<?xml version="1.0" standalone="no"?>
<!DOCTYPE svg PUBLIC "-//W3C//DTD SVG 1.1//EN" "http://www.w3.org/Graphics/SVG/1.1/DTD/svg11.dtd" >
<svg>
<metadata>
Created by FontForge 20090914 at Mon Oct 29 20:47:01 2012
 By www-data
Copyright 1990-1999 Bitstream Inc.  All rights reserved.
</metadata>
<defs>
<font id="CooperBT-Black" horiz-adv-x="1024" >
  <font-face 
    font-family="Cooper Blk BT"
    font-weight="400"
    font-stretch="normal"
    units-per-em="2048"
    panose-1="2 8 9 4 4 3 11 2 4 4"
    ascent="1556"
    descent="-492"
    x-height="1094"
    cap-height="1493"
    bbox="-352 -530.001 2705 1972"
    underline-thickness="338"
    underline-position="-97"
    unicode-range="U+0020-U+F002"
  />
<missing-glyph horiz-adv-x="1229" 
d="M102 -362v1806h1024v-1806h-1024zM217 -248h795v1577h-795v-1577z" />
    <glyph glyph-name=".notdef" horiz-adv-x="1229" 
d="M102 -362v1806h1024v-1806h-1024zM217 -248h795v1577h-795v-1577z" />
    <glyph glyph-name="space" unicode=" " horiz-adv-x="637" 
 />
    <glyph glyph-name="exclam" unicode="!" horiz-adv-x="786" 
d="M391 582c-20 0 -40.166 10.832 -60.499 32.499s-43.833 57.834 -70.5 108.501c-40.667 77.333 -71.667 155.833 -93 235.5s-32 158.167 -32 235.5c0 102.667 22.667 182.334 68 239.001s108.666 85 189.999 85s144.333 -28.333 189 -85s67 -136.334 67 -239.001
c0 -63.333 -7.16699 -127.333 -21.5 -192s-35.833 -131 -64.5 -199c-31.333 -74 -61.333 -129.333 -90 -166s-56 -55 -82 -55zM152.001 212.999c0 67.333 23.333 124.5 70 171.5s103.667 70.5 171 70.5c68 0 125.333 -23.5 172 -70.5s70 -104.167 70 -171.5
s-23.333 -124.5 -70 -171.5s-104 -70.5 -172 -70.5c-67.333 0 -124.333 23.5 -171 70.5s-70 104.167 -70 171.5z" />
    <glyph glyph-name="quotedbl" unicode="&#x22;" horiz-adv-x="729" 
d="M565 838l-49 0.000976562l-92 467c-2 10 -3.16699 17.333 -3.5 22s-0.5 9.33398 -0.5 14.001c0 36.667 11.167 66.334 33.5 89.001s51.5 34 87.5 34s65.167 -11.333 87.5 -34s33.5 -52.334 33.5 -89.001c-0.666992 -4.66699 -1.16699 -9.33398 -1.5 -14.001
s-1.5 -12.334 -3.5 -23.001zM213 838.001h-49l-92 466c-2 10.667 -3.16699 18.334 -3.5 23.001s-0.5 9.33398 -0.5 14.001c0 36.667 11 66.334 33 89.001s51 34 87 34s65.167 -11.333 87.5 -34s33.5 -52.334 33.5 -89.001c0 -4.66699 -0.166992 -9.33398 -0.5 -14.001
s-1.5 -12.334 -3.5 -23.001z" />
    <glyph glyph-name="numbersign" unicode="#" horiz-adv-x="1575" 
d="M707 836l-78 -220h239l78 220h-239zM649 1470h289l-129 -366h227l129 366h289l-129 -366h256l-100 -270h-252l-76 -213h258l-100 -271h-254l-131 -366h-289l131 366h-227l-131 -366h-289l131 366h-258l100 271h254l74 213h-258l98 270h258z" />
    <glyph glyph-name="dollar" unicode="$" horiz-adv-x="1276" 
d="M469 4c-159.333 28 -271.168 62.168 -335.501 102.501s-96.5 94.833 -96.5 163.5c0 62.667 9.5 109.167 28.5 139.5s48.5 45.5 88.5 45.5c22 0 44.667 -7 68 -21s43.666 -32.333 60.999 -55l18 -25c68.667 -92.667 140.334 -139 215.001 -139
c30.667 0 54.667 6.66699 72 20s26 31.333 26 54c0 38.667 -53 83 -159 133c-47.333 22 -85 40.333 -113 55c-108 58 -182.5 115.333 -223.5 172s-61.5 127 -61.5 211c0 123.333 45.333 226.333 136 309s209.334 128 356.001 136v79c0 24.667 4.83301 40.5 14.5 47.5
s37.5 10.5 83.5 10.5h66c39.333 0 64.166 -3.66699 74.499 -11s15.5 -21.333 15.5 -42v-84c130.667 -24 227.5 -56 290.5 -96s94.5 -89.333 94.5 -148c0 -46 -15.5 -84.167 -46.5 -114.5s-68.833 -45.5 -113.5 -45.5c-51.333 0 -103 27.333 -155 82l-5 4
c-2 2 -5 5.33301 -9 10c-67.333 67.333 -131.666 101 -192.999 101c-36 0 -65.5 -6.66699 -88.5 -20s-34.5 -30 -34.5 -50c0 -44.667 60.667 -90.667 182 -138l70 -28c159.333 -65.333 270.833 -130.333 334.5 -195s95.5 -142.334 95.5 -233.001
c0 -127.333 -41.833 -228.333 -125.5 -303s-203.167 -117.667 -358.5 -129v-86c0 -26.667 -16.167 -46 -48.5 -58s-84.833 -18 -157.5 -18c-20.667 0 -34.5 3 -41.5 9s-11.833 21 -14.5 45z" />
    <glyph glyph-name="percent" unicode="%" horiz-adv-x="1915" 
d="M1393 461c0 -67.333 9.83301 -124.167 29.5 -170.5s42.5 -69.5 68.5 -69.5c21.333 0 36.833 10.5 46.5 31.5s14.5 54.167 14.5 99.5c0 67.333 -9.5 124.5 -28.5 171.5s-40.833 70.5 -65.5 70.5c-21.333 0 -37.5 -11.167 -48.5 -33.5s-16.5 -55.5 -16.5 -99.5z
M1087 419.999c0 112 37 205.499 111 280.499s164.667 112.5 272 112.5c113.333 0 205.833 -38.5 277.5 -115.5s107.5 -177.167 107.5 -300.5c0 -115.333 -34.833 -210.333 -104.5 -285s-158.167 -112 -265.5 -112c-114 0 -208.833 39.833 -284.5 119.5
s-113.5 179.834 -113.5 300.501zM438 95.998c0 10 49.8301 87.8311 149.497 233.498s193.167 289.834 280.5 432.501l226 378c106 182 168.667 273 188 273c20 0 80 -31.667 180 -95l8 -5c6.66699 -4.66699 11.834 -10.167 15.501 -16.5s5.5 -12.5 5.5 -18.5
c0 -14.667 -18.667 -43.667 -56 -87l-20 -24c-57.333 -67.333 -130.166 -166 -218.499 -296s-186.166 -282.333 -293.499 -457c-86.667 -140.667 -157.334 -272.667 -212.001 -396c-4 -9.33301 -6.33301 -14.666 -7 -15.999c-8 -16 -15 -26.5 -21 -31.5s-14 -7.5 -24 -7.5
c-11.333 0 -31.166 7.5 -59.499 22.5s-66.833 38.5 -115.5 70.5c-6.66699 4 -12.667 10.167 -18 18.5s-8 15.5 -8 21.5zM355.997 1030c0 -67.333 9.66699 -124 29 -170s42 -69 68 -69c21.333 0 37.166 10.667 47.499 32s15.5 54.333 15.5 99
c0 66.667 -9.5 123.5 -28.5 170.5s-40.833 70.5 -65.5 70.5c-21.333 0 -37.666 -11.167 -48.999 -33.5s-17 -55.5 -17 -99.5zM50.9971 990.996c0 112.667 36.5 206 109.5 280s163.5 111 271.5 111c114 0 206.667 -38.167 278 -114.5s107 -175.833 107 -298.5
c0 -116.667 -34.667 -212.5 -104 -287.5s-157.333 -112.5 -264 -112.5c-113.333 0 -208 40.167 -284 120.5s-114 180.833 -114 301.5z" />
    <glyph glyph-name="ampersand" unicode="&#x26;" horiz-adv-x="1991" 
d="M362 1008c-15.333 28.667 -26.6699 55.333 -34.0029 80s-11 49 -11 73c0 108 41.833 195.167 125.5 261.5s194.834 99.5 333.501 99.5c104 0 187.667 -15.5 251 -46.5s95 -70.833 95 -119.5c0 -32.667 -9.83301 -57.667 -29.5 -75s-47.834 -26 -84.501 -26
c-22 0 -52.833 4.5 -92.5 13.5s-68.5 13.5 -86.5 13.5c-37.333 0 -67.833 -11.5 -91.5 -34.5s-35.5 -52.5 -35.5 -88.5c0 -27.333 7.66699 -53 23 -77s36.333 -43.333 63 -58c10.667 -5.33301 26 -11.666 46 -18.999c42 -14 63 -35.667 63 -65
c0 -44.667 -14.667 -85.5 -44 -122.5s-63 -55.5 -101 -55.5c-14.667 0 -33 3.33301 -55 10s-36.667 10 -44 10c-13.333 0 -23.833 -10.667 -31.5 -32s-11.5 -51.666 -11.5 -90.999c0 -50 9.83301 -99.5 29.5 -148.5s47.5 -93.5 83.5 -133.5c34.667 -38 72 -67 112 -87
s80.333 -30 121 -30c58.667 0 110 17.167 154 51.5s66 73.166 66 116.499c0 30 -9.83301 54.833 -29.5 74.5s-44.167 29.5 -73.5 29.5c-16.667 0 -38.667 -8.83301 -66 -26.5s-48.333 -26.5 -63 -26.5c-20.667 0 -38.5 10.667 -53.5 32s-22.5 47.666 -22.5 78.999
c0 50.667 22.333 99 67 145s118 95.333 220 148l158 78c185.333 90 278 166.333 278 229c0 22.667 -6.16699 42 -18.5 58s-27.166 24 -44.499 24c-10.667 0 -26.5 -5.83301 -47.5 -17.5s-37.167 -17.5 -48.5 -17.5c-18 0 -32.167 6.16699 -42.5 18.5
s-15.5 28.833 -15.5 49.5c0 49.333 28.333 94.333 85 135s123.334 61 200.001 61c92.667 0 166.334 -28.667 221.001 -86s82 -134.333 82 -231c0 -108 -38 -200.5 -114 -277.5s-193 -141.5 -351 -193.5c23.333 -37.333 40.833 -76.166 52.5 -116.499s17.5 -83.5 17.5 -129.5
c0 -58.667 -16.667 -117.834 -50 -177.501s-79.666 -112.5 -138.999 -158.5c-70 -54.667 -151.333 -96.334 -244 -125.001s-192.667 -43 -300 -43c-221.333 0 -400.333 57.833 -537 173.5s-205 264.834 -205 447.501c0 93.333 23.167 176.333 69.5 249
s113.166 131 200.499 175z" />
    <glyph glyph-name="quotesingle" unicode="'" horiz-adv-x="379" 
d="M213 838h-47l-92 466c-2 10.667 -3.16699 18.334 -3.5 23.001s-0.5 9.33398 -0.5 14.001c0 36.667 11 66.334 33 89.001s50.333 34 85 34c36 0 65.167 -11.333 87.5 -34s33.5 -52.334 33.5 -89.001c0 -4.66699 -0.166992 -9.33398 -0.5 -14.001
s-1.5 -12.334 -3.5 -23.001z" />
    <glyph glyph-name="parenleft" unicode="(" horiz-adv-x="977" 
d="M123 600c0 126.667 21.332 246.166 63.999 358.499s104 209.833 184 292.5c77.333 80.667 163 145.334 257 194.001s177.667 73 251 73c32.667 0 58.167 -7.16699 76.5 -21.5s27.5 -34.5 27.5 -60.5c0 -8 -1.66699 -15.667 -5 -23s-7.66602 -13.333 -12.999 -18
c-12 -12 -37 -32 -75 -60s-64.333 -52.333 -79 -73c-42 -58.667 -72.667 -137.667 -92 -237s-29 -232 -29 -398c0 -136 7.16699 -255.667 21.5 -359s35.166 -187.333 62.499 -252c24.667 -58 68 -117.333 130 -178c5.33301 -5.33301 9 -9.33301 11 -12
c3.33301 -3.33301 8 -7.66602 14 -12.999c32 -31.333 48 -57.666 48 -78.999c0 -20.667 -7.66699 -36.834 -23 -48.501s-36.333 -17.5 -63 -17.5c-51.333 0 -113.833 15.167 -187.5 45.5s-145.167 71.166 -214.5 122.499c-125.333 92.667 -217.666 201 -276.999 325
s-89 270.333 -89 439z" />
    <glyph glyph-name="parenright" unicode=")" horiz-adv-x="977" 
d="M864 588c0 -126.667 -21.333 -246.167 -64 -358.5s-104 -209.833 -184 -292.5c-77.333 -80.667 -162.833 -145.334 -256.5 -194.001s-177.167 -73 -250.5 -73c-34 0 -60 7 -78 21s-27 33.667 -27 59c0 8 1.66699 16 5 24s7.66602 14.333 12.999 19
c12.667 12 37.834 31.667 75.501 59s63.834 51.333 78.501 72c42 58 72.667 136.833 92 236.5s29 232.5 29 398.5c0 136 -7.16699 256 -21.5 360s-35.166 188 -62.499 252c-25.333 60.667 -69 121.667 -131 183c-4 3.33301 -6.66699 6 -8 8l-16 16c-32 30 -48 55.333 -48 76
c0 20 7.66699 35.667 23 47s36.333 17 63 17c51.333 0 114.166 -15.167 188.499 -45.5s146.166 -71.166 215.499 -122.499c124.667 -92.667 216.5 -200.667 275.5 -324s88.5 -269.333 88.5 -438z" />
    <glyph glyph-name="asterisk" unicode="*" horiz-adv-x="1141" 
d="M672 1176c5.33301 0 13.8301 5.32812 25.4971 15.9951s24.834 25.667 39.501 45c20 27.333 39.667 46.833 59 58.5s42 17.5 68 17.5c40.667 0 75.5 -15.667 104.5 -47s43.5 -69 43.5 -113c0 -40.667 -13.5 -74.667 -40.5 -102s-60.833 -41 -101.5 -41
c-15.333 0 -37.333 4.33301 -66 13s-51 13 -67 13c-12 0 -20.833 -1.83301 -26.5 -5.5s-8.5 -9.83398 -8.5 -18.501c0 -8 6.5 -16.167 19.5 -24.5s33.167 -17.166 60.5 -26.499c40.667 -14 71 -32.667 91 -56s30 -52 30 -86c0 -40 -16.167 -75.5 -48.5 -106.5
s-69.5 -46.5 -111.5 -46.5c-38 0 -71 13.833 -99 41.5s-42 60.834 -42 99.501c0 7.33301 0.333008 15 1 23s1 12.667 1 14c0 26.667 -2.83301 46.334 -8.5 59.001s-14.5 19 -26.5 19c-10.667 0 -19 -7 -25 -21s-9 -33.667 -9 -59v-29
c0 -42.667 -13.333 -77.834 -40 -105.501s-60.667 -41.5 -102 -41.5s-77.833 15.333 -109.5 46s-47.5 65.667 -47.5 105c0 35.333 9.5 64.333 28.5 87s48.833 40.667 89.5 54c28.667 10 49.167 19.333 61.5 28s18.5 18 18.5 28c0 8.66699 -2.16699 14.834 -6.5 18.501
s-12.5 5.5 -24.5 5.5c-15.333 0 -37.5 -4.66699 -66.5 -14s-51.167 -14 -66.5 -14c-40 0 -73.5 13.333 -100.5 40s-40.5 60.334 -40.5 101.001c0 45.333 13.833 83.333 41.5 114s62.167 46 103.5 46c26 0 48.833 -5.66699 68.5 -17s39.834 -31 60.501 -59
c18 -22 32.167 -37.333 42.5 -46s19.5 -13 27.5 -13c6.66699 0 12.167 2 16.5 6s6.5 8.66699 6.5 14c0 15.333 -13.333 42.333 -40 81s-40 72.334 -40 101.001c0 41.333 14.333 75.333 43 102s65.334 40 110.001 40c45.333 0 82.333 -13.333 111 -40s43 -60.667 43 -102
c0 -28 -13.333 -61.333 -40 -100s-40 -64.667 -40 -78c0 -7.33301 2.66699 -13.166 8 -17.499s12.333 -6.5 21 -6.5z" />
    <glyph glyph-name="plus" unicode="+" horiz-adv-x="1706" 
d="M713 1221h280v-473h459v-273h-459v-475h-280v475h-459v273h459v473z" />
    <glyph glyph-name="comma" unicode="," horiz-adv-x="637" 
d="M82 252c0 71.333 21.6699 129.833 65.0029 175.5s98.666 68.5 165.999 68.5c75.333 0 136.166 -30.333 182.499 -91s69.5 -141 69.5 -241c0 -70 -10.333 -137 -31 -201s-53.334 -130.333 -98.001 -199c-32 -48.667 -59.5 -84.667 -82.5 -108s-42.5 -35 -58.5 -35
c-29.333 0 -54.833 5.5 -76.5 16.5s-32.5 23.167 -32.5 36.5c0 10.667 8 27 24 49c6.66699 8.66699 12 16 16 22c24.667 36 44 72 58 108s21 68 21 96c0 32.667 -16.667 55 -50 67c-10 3.33301 -18 6.33301 -24 9c-46 18 -82.333 47.333 -109 88s-40 87 -40 139z" />
    <glyph glyph-name="hyphen" unicode="-" horiz-adv-x="791" 
d="M74 420c0 40 4.49902 80.501 13.499 121.501s22.167 79.5 39.5 115.5c1.33301 3.33301 3.33301 7.66602 6 12.999c19.333 43.333 45.333 65 78 65c2.66699 0 9.66699 -0.333008 21 -1c70.667 -6 143 -9 217 -9c47.333 0 95.166 0.666992 143.499 2s72.833 2 73.5 2
c18.667 0 31.834 -4.16699 39.501 -12.5s11.5 -22.5 11.5 -42.5c0 -48.667 -6.16699 -95.5 -18.5 -140.5s-30.166 -86.167 -53.499 -123.5c-16.667 -26.667 -30.667 -43 -42 -49s-36.333 -9 -75 -9c-19.333 0 -53 0.333008 -101 1s-86.667 1 -116 1
c-48 0 -98.667 -2 -152 -6c-15.333 -1.33301 -24.666 -2 -27.999 -2c-22.667 0 -37.834 4.83301 -45.501 14.5s-11.5 29.5 -11.5 59.5z" />
    <glyph glyph-name="period" unicode="." horiz-adv-x="637" 
d="M68 223c0 70.667 24.167 130 72.5 178s107.833 72 178.5 72s130 -24 178 -72s72 -107.333 72 -178s-24 -130.334 -72 -179.001s-107.333 -73 -178 -73c-70 0 -129.333 24.333 -178 73s-73 108.334 -73 179.001z" />
    <glyph glyph-name="slash" unicode="/" horiz-adv-x="557" 
d="M199 -147c-4 -16.667 -16.667 -27.998 -38 -33.998s-68.333 -9 -141 -9c-29.333 0 -48.166 1.66699 -56.499 5s-12.5 9.66602 -12.5 18.999c0 4 0.166992 7 0.5 9s0.833008 4 1.5 6l422 1624c4 18 18.333 30.333 43 37s77 10 157 10c13.333 0 23.166 -2.33301 29.499 -7
s9.5 -11.334 9.5 -20.001c0 -4.66699 -0.5 -10 -1.5 -16s-2.5 -13 -4.5 -21z" />
    <glyph glyph-name="zero" unicode="0" horiz-adv-x="1276" 
d="M524 752c0 -114 15.332 -211.501 45.999 -292.501s65.334 -121.5 104.001 -121.5c28 0 49 16.333 63 49s21 82.667 21 150c0 116.667 -14.833 215.667 -44.5 297s-63.5 122 -101.5 122c-28.667 0 -50.5 -17.167 -65.5 -51.5s-22.5 -85.166 -22.5 -152.499z
M38.999 669.999c0 99.333 14.002 186.83 42.002 262.497s72 144.5 132 206.5c57.333 58.667 123 104 197 136s151 48 231 48c83.333 0 162 -16.833 236 -50.5s138 -81.834 192 -144.501c56.667 -64.667 98.834 -137.5 126.501 -218.5s41.5 -173.167 41.5 -276.5
c0 -93.333 -12.833 -178.166 -38.5 -254.499s-64.834 -145.166 -117.501 -206.499c-58 -67.333 -121.833 -117.666 -191.5 -150.999s-146.5 -50 -230.5 -50c-82.667 0 -161.334 16.5 -236.001 49.5s-141.334 80.833 -200.001 143.5
c-61.333 65.333 -107.333 140.333 -138 225s-46 178.334 -46 281.001z" />
    <glyph glyph-name="one" unicode="1" horiz-adv-x="1276" 
d="M260 225c32 0 54.834 7.33105 68.501 21.998s23.5 43.667 29.5 87c6 42 10.667 104.667 14 188s5 180.333 5 291c0 71.333 -7 114.166 -21 128.499s-42.667 21.5 -86 21.5c-11.333 0 -25 -0.333008 -41 -1s-26 -1 -30 -1c-26.667 0 -46.667 6.83301 -60 20.5
s-20 33.834 -20 60.501c0 30 16 58.333 48 85s82.667 54.334 152 83.001c81.333 34 174.333 61.333 279 82s202.334 31 293.001 31c56 0 96.667 -7.33301 122 -22s38 -38 38 -70c0 -39.333 -24 -70 -72 -92c-16.667 -7.33301 -29 -13.666 -37 -18.999
c-14.667 -8.66699 -24.834 -29.334 -30.501 -62.001s-8.5 -101.334 -8.5 -206.001v-49v-70c0 -180 3.5 -297.5 10.5 -352.5s19.167 -89.833 36.5 -104.5c28.667 -23.333 71.667 -37.666 129 -42.999c19.333 -2 33.333 -4 42 -6c16.667 -4 29.667 -13.667 39 -29
s14 -35.666 14 -60.999c0 -52.667 -35 -90 -105 -112s-193.667 -33 -371 -33c-236.667 0 -396.834 10.833 -480.501 32.5s-125.5 59.167 -125.5 112.5c0 30.667 8.5 53.667 25.5 69s42.167 23 75.5 23c8 0 19.333 -0.666992 34 -2s25.667 -2 33 -2z" />
    <glyph glyph-name="two" unicode="2" horiz-adv-x="1276" 
d="M774 0l-603.998 0.00292969c-44 0 -77.167 5.83301 -99.5 17.5s-33.5 29.167 -33.5 52.5c0 27.333 42 85 126 173l128 138c79.333 90.667 139 170.667 179 240s60 127.333 60 174c0 25.333 -10.333 46.666 -31 63.999s-46.334 26 -77.001 26
c-31.333 0 -71 -18.333 -119 -55l-6 -5c-2 -1.33301 -5.66699 -4 -11 -8c-41.333 -31.333 -74.666 -47 -99.999 -47c-38 0 -70.667 14.5 -98 43.5s-41 64.5 -41 106.5c0 27.333 9.16699 56.666 27.5 87.999s45.5 63.333 81.5 96c68 62 147.167 108.833 237.5 140.5
s189.166 47.5 296.499 47.5c146.667 0 265 -33.333 355 -100s135 -153.334 135 -260.001c0 -56.667 -12.833 -110 -38.5 -160s-77.167 -114 -154.5 -192c-14 -14.667 -34 -34 -60 -58c-60.667 -57.333 -91 -99 -91 -125c0 -16.667 6.5 -30 19.5 -40s30.833 -15 53.5 -15
c21.333 0 42.5 3.33301 63.5 10s40.167 16.334 57.5 29.001c12 8.66699 27.667 21.667 47 39c32 28.667 58 43 78 43c30.667 0 55.834 -16.833 75.501 -50.5s29.5 -78.167 29.5 -133.5c0 -104.667 -25.167 -196.167 -75.5 -274.5s-104.5 -117.5 -162.5 -117.5
c-16 0 -30.333 4.16699 -43 12.5s-26.334 22.833 -41.001 43.5c-18.667 25.333 -37.834 41.166 -57.501 47.499s-55.167 9.5 -106.5 9.5z" />
    <glyph glyph-name="three" unicode="3" horiz-adv-x="1276" 
d="M502 -211c-146.667 0 -271.503 20.168 -374.503 60.501s-154.5 86.5 -154.5 138.5c0 46 10 82 30 108s47.667 39 83 39c18 0 58 -7.5 120 -22.5s115 -22.5 159 -22.5c76 0 136.833 16.833 182.5 50.5s68.5 77.5 68.5 131.5c0 50 -17.833 90.5 -53.5 121.5
s-82.5 46.5 -140.5 46.5c-8 0 -24.5 -1 -49.5 -3s-46.167 -3 -63.5 -3c-33.333 0 -60 14.333 -80 43s-30 66.334 -30 113.001c0 52 27.333 85.667 82 101c18.667 5.33301 33.667 10 45 14c48 18 85.167 42.5 111.5 73.5s39.5 65.833 39.5 104.5
c0 38 -13.167 69.333 -39.5 94s-60.166 37 -101.499 37c-26 0 -60.167 -8.5 -102.5 -25.5s-72.5 -25.5 -90.5 -25.5c-23.333 0 -43.833 11.833 -61.5 35.5s-26.5 52.5 -26.5 86.5c0 28 4.83301 50.667 14.5 68s26.834 33.666 51.501 48.999c66 40 134.167 70.167 204.5 90.5
s142.833 30.5 217.5 30.5c167.333 0 299.833 -29.333 397.5 -88s146.5 -138 146.5 -238c0 -42.667 -9.5 -82.834 -28.5 -120.501s-46.167 -70.5 -81.5 -98.5c-7.33301 -5.33301 -17.333 -11.666 -30 -18.999c-22.667 -14 -34 -26 -34 -36
c0.666992 -12 17.334 -20.333 50.001 -25c27.333 -4 49 -8.66699 65 -14c70.667 -22.667 123.5 -60.834 158.5 -114.501s52.5 -123.5 52.5 -209.5c0 -170 -67.833 -307.667 -203.5 -413s-313.5 -158 -533.5 -158z" />
    <glyph glyph-name="four" unicode="4" horiz-adv-x="1276" 
d="M627 698c0 22 -2.83301 36.501 -8.5 43.501s-15.167 10.5 -28.5 10.5s-28.333 -7.33301 -45 -22s-46 -47.667 -88 -99c-52 -65.333 -92 -118.833 -120 -160.5s-42 -68.834 -42 -81.501c0 -15.333 8 -26.333 24 -33s42.667 -10 80 -10h146c35.333 0 57.833 4.5 67.5 13.5
s14.5 31.833 14.5 68.5v270zM152 0.000976562c-52 0 -89.6641 12.834 -112.997 38.501s-35 68.167 -35 127.5c0 113.333 112 309.333 336 588l61 77c152 191.333 269.167 320.166 351.5 386.499s159.166 99.5 230.499 99.5c55.333 0 92.666 -10.5 111.999 -31.5
s29 -62.5 29 -124.5c0 -100 -3.33301 -232.333 -10 -397s-10 -278.667 -10 -342v-16c0 -16.667 1.33301 -27 4 -31s8.66699 -6 18 -6h6c13.333 1.33301 25.666 2 36.999 2c25.333 0 42.333 -4.83301 51 -14.5s13 -29.5 13 -59.5v-211c0 -24 -3.33301 -41.833 -10 -53.5
s-18.334 -20.5 -35.001 -26.5c-10.667 -3.33301 -24.334 -5.33301 -41.001 -6c-20.667 0 -31 -13 -31 -39c0 -36.667 1 -73.667 3 -111s3 -57 3 -59c0 -28.667 -7.16699 -47.834 -21.5 -57.501s-50.166 -14.5 -107.499 -14.5h-108c-82.667 0 -142 1 -178 3
s-59.667 5.33301 -71 10c-13.333 5.33301 -22.666 12.833 -27.999 22.5s-8 27.167 -8 52.5v25v141c0 10.667 -1.83301 17.834 -5.5 21.501s-10.167 5.5 -19.5 5.5h-423z" />
    <glyph glyph-name="five" unicode="5" horiz-adv-x="1276" 
d="M367 1294l729.001 0.000976562c45.333 0 73.333 -7 84 -21s16 -48.667 16 -104c0 -87.333 -18.167 -155.833 -54.5 -205.5s-86.5 -74.5 -150.5 -74.5h-411c-51.333 0 -84 -5.33301 -98 -16s-21 -29.334 -21 -56.001c0 -12 28 -22 84 -30
c45.333 -6 83.333 -12.333 114 -19c194 -39.333 333 -94.5 417 -165.5s126 -167.5 126 -289.5c0 -69.333 -16.333 -133.833 -49 -193.5s-81.667 -114.5 -147 -164.5c-68.667 -52.667 -150 -94.167 -244 -124.5s-189.667 -45.5 -287 -45.5
c-134 0 -237.167 17.167 -309.5 51.5s-108.5 83.5 -108.5 147.5c0 40.667 6 71.167 18 91.5s30 30.5 54 30.5c7.33301 0 38.166 -6 92.499 -18s104.166 -18 149.499 -18c52 0 93.333 12.833 124 38.5s46 60.5 46 104.5c0 40 -20.667 75.167 -62 105.5
s-102.666 55.166 -183.999 74.499c-16 4 -38.333 9 -67 15c-122 26.667 -183 66.667 -183 120c0 62.667 17.5 155.834 52.5 279.501s81.167 245.834 138.5 366.501c26 55.333 47 89.166 63 101.499s38.667 18.5 68 18.5z" />
    <glyph glyph-name="six" unicode="6" horiz-adv-x="1276" 
d="M690 307c20.667 0 36.167 9.83203 46.5 29.499s15.5 48.834 15.5 87.501c0 66.667 -12.667 123.667 -38 171s-54.333 71 -87 71c-22.667 0 -40 -10.333 -52 -31s-18 -50 -18 -88c0 -66 13.5 -122.5 40.5 -169.5s57.833 -70.5 92.5 -70.5zM633 929.999
c36 17.333 70.833 30.498 104.5 39.498s65.834 13.5 96.501 13.5c123.333 0 221.333 -38.833 294 -116.5s109 -182.834 109 -315.501c0 -82.667 -13.667 -156.167 -41 -220.5s-71 -126.166 -131 -185.499c-62 -60.667 -128.5 -105.5 -199.5 -134.5
s-149.833 -43.5 -236.5 -43.5c-172.667 0 -312.5 59.333 -419.5 178s-160.5 275 -160.5 469c0 116 28.667 233.833 86 353.5s143.333 240.834 258 363.501c43.333 46 78.5 77.667 105.5 95s52.5 26 76.5 26c30.667 0 64 -5.83301 100 -17.5s74.667 -29.167 116 -52.5
c30 -16 50.667 -31.167 62 -45.5s17 -31.166 17 -50.499c0 -22.667 -21.333 -56.667 -64 -102c-10 -10 -17.667 -18 -23 -24c-36 -38.667 -66.333 -76.667 -91 -114s-44.334 -76 -59.001 -116z" />
    <glyph glyph-name="seven" unicode="7" horiz-adv-x="1276" 
d="M526 1294l547.003 -0.00195312c68.667 0 115.5 -7.5 140.5 -22.5s37.5 -41.5 37.5 -79.5c0 -51.333 -48.667 -217.5 -146 -498.5s-174.333 -510.833 -231 -689.5c-9.33301 -30 -21.833 -72.5 -37.5 -127.5s-27.5 -90.167 -35.5 -105.5
c-7.33301 -13.333 -21.833 -23.166 -43.5 -29.499s-50.834 -9.5 -87.501 -9.5c-82 0 -154.833 14.167 -218.5 42.5s-95.5 57.166 -95.5 86.499c0 32.667 50.667 145.334 152 338.001l88 170c74 142.667 125 244.834 153 306.501s42 101.5 42 119.5s-6.5 32 -19.5 42
s-31.167 15 -54.5 15h-240c-30 0 -54.667 -3.5 -74 -10.5s-37 -18.5 -53 -34.5l-21 -22c-42 -44 -81.333 -66 -118 -66c-52.667 0 -93.834 20.667 -123.501 62s-44.5 98.333 -44.5 171c0 116.667 20.167 212.5 60.5 287.5s90.5 112.5 150.5 112.5
c14.667 0 36 -7.66699 64 -23c16 -8.66699 28 -14.667 36 -18c15.333 -6 34.166 -10.333 56.499 -13s60.833 -4 115.5 -4z" />
    <glyph glyph-name="eight" unicode="8" horiz-adv-x="1276" 
d="M737 936c19.333 16.667 33.833 35.168 43.5 55.501s14.5 42.166 14.5 65.499c0 36 -11.833 64.833 -35.5 86.5s-55.5 32.5 -95.5 32.5c-30 0 -53.667 -7.16699 -71 -21.5s-26 -33.833 -26 -58.5c0 -30 14 -58.167 42 -84.5s70.667 -51.5 128 -75.5zM426 537.001
c-7.33301 -17.333 -12.5 -32.666 -15.5 -45.999s-4.5 -26 -4.5 -38c0 -60.667 21.667 -112.5 65 -155.5s95.333 -64.5 156 -64.5c34 0 61.833 8.66699 83.5 26s32.5 39.666 32.5 66.999c0 60.667 -98.333 128 -295 202zM182 684.001
c-46.667 39.333 -81.5 83.832 -104.5 133.499s-34.5 104.834 -34.5 165.501c0 132 51.833 236.333 155.5 313s245.834 115 426.501 115c184.667 0 328 -30.333 430 -91s153 -145.667 153 -255c0 -59.333 -14 -110.5 -42 -153.5s-71.333 -79.167 -130 -108.5
c70 -40 122 -89.333 156 -148s51 -128.334 51 -209.001c0 -144 -56.333 -260.167 -169 -348.5s-261 -132.5 -445 -132.5c-90 0 -172.833 12.167 -248.5 36.5s-143.834 60.833 -204.501 109.5c-50.667 40 -87.5 83 -110.5 129s-34.5 99 -34.5 159
c0 58.667 12.833 112.334 38.5 161.001s63.167 90 112.5 124z" />
    <glyph glyph-name="nine" unicode="9" horiz-adv-x="1276" 
d="M702 604c17.333 0 31.334 8.33301 42.001 25s16 38.334 16 65.001c0 69.333 -15.333 130.666 -46 183.999s-65.334 80 -104.001 80c-18.667 0 -34.167 -9.33301 -46.5 -28s-18.5 -43.334 -18.5 -74.001c0 -67.333 16.333 -126.166 49 -176.499s68.667 -75.5 108 -75.5z
M600.001 284c-24 -6 -47.168 -10.5 -69.501 -13.5s-44.166 -4.5 -65.499 -4.5c-58.667 0 -112.667 11.167 -162 33.5s-93 55.5 -131 99.5c-40 46 -71.833 103.833 -95.5 173.5s-35.5 141.5 -35.5 215.5c0 160 54.833 288.833 164.5 386.5s254.834 146.5 435.501 146.5
s326.5 -49.167 437.5 -147.5s166.5 -227.5 166.5 -387.5c0 -149.333 -34.333 -300.833 -103 -454.5s-171.334 -309.834 -308.001 -468.501c-39.333 -45.333 -70.666 -75.833 -93.999 -91.5s-47.333 -23.5 -72 -23.5c-30 0 -64.333 6.66699 -103 20s-76.667 32 -114 56
c-24.667 15.333 -44.167 31 -58.5 47s-21.5 30.333 -21.5 43c0 14 15 34.5 45 61.5s52.333 48.833 67 65.5c37.333 42 65.666 83.333 84.999 124s30 80.334 32 119.001z" />
    <glyph glyph-name="colon" unicode=":" horiz-adv-x="756" 
d="M127 858c0 71.333 24 131.168 72 179.501s107.333 72.5 178 72.5s130.334 -24.333 179.001 -73s73 -108.334 73 -179.001s-24.333 -130.334 -73 -179.001s-108.334 -73 -179.001 -73s-130 24.333 -178 73s-72 108.334 -72 179.001zM127 223.002c0 70.667 24 130 72 178
s107.333 72 178 72s130.334 -24 179.001 -72s73 -107.333 73 -178s-24.333 -130.334 -73 -179.001s-108.334 -73 -179.001 -73s-130 24.333 -178 73s-72 108.334 -72 179.001z" />
    <glyph glyph-name="semicolon" unicode=";" horiz-adv-x="756" 
d="M133 252c0 72 21.5 130.667 64.5 176s97.833 68 164.5 68c76 0 137.333 -30.333 184 -91s70 -141 70 -241c0 -70 -10.333 -137 -31 -201s-53.334 -130.333 -98.001 -199c-31.333 -48 -58.833 -83.833 -82.5 -107.5s-43.834 -35.5 -60.501 -35.5
c-29.333 0 -54.666 5.5 -75.999 16.5s-32 23.167 -32 36.5c0 10.667 7.66699 27 23 49c6.66699 8.66699 12 16 16 22c26 37.333 46 73.833 60 109.5s21 67.167 21 94.5c0 32.667 -16.667 54.667 -50 66l-26 10c-45.333 18 -81.166 47.167 -107.499 87.5
s-39.5 86.833 -39.5 139.5zM133 862c0 69.333 23.832 128 71.499 176s105.834 72 174.501 72c68 0 126 -24 174 -72s72 -106.667 72 -176c0 -68.667 -23.833 -126.834 -71.5 -174.501s-105.834 -71.5 -174.501 -71.5c-69.333 0 -127.666 23.833 -174.999 71.5
s-71 105.834 -71 174.501z" />
    <glyph glyph-name="less" unicode="&#x3c;" horiz-adv-x="1706" 
d="M1442 1239v-301l-801 -328l801 -327v-299l-1178 487v281z" />
    <glyph glyph-name="equal" unicode="=" horiz-adv-x="1706" 
d="M254 512h1198v-272h-1198v272zM254 983h1198v-272h-1198v272z" />
    <glyph glyph-name="greater" unicode="&#x3e;" horiz-adv-x="1706" 
d="M264 1239l1178 -487v-281l-1178 -487v299l801 327l-801 328v301z" />
    <glyph glyph-name="question" unicode="?" horiz-adv-x="1167" 
d="M354 211c0 67.333 23.5 124.5 70.5 171.5s104.167 70.5 171.5 70.5s124.5 -23.5 171.5 -70.5s70.5 -104.167 70.5 -171.5s-23.5 -124.5 -70.5 -171.5s-104.167 -70.5 -171.5 -70.5c-68 0 -125.333 23.333 -172 70s-70 104 -70 172zM258 926
c-62 0 -109.997 16.168 -143.997 48.501s-51 78.166 -51 137.499c0 36 7.5 72 22.5 108s37.167 71 66.5 105c50 60.667 111.5 107.667 184.5 141s151.167 50 234.5 50c146 0 271 -39.833 375 -119.5s156 -173.167 156 -280.5c0 -36.667 -7 -71.5 -21 -104.5
s-34.333 -62.833 -61 -89.5c-35.333 -36 -83 -71.167 -143 -105.5s-95 -58.166 -105 -71.499c-9.33301 -12 -17.833 -33 -25.5 -63s-14.834 -49.667 -21.501 -59c-12.667 -19.333 -28.834 -33.833 -48.501 -43.5s-42.5 -14.5 -68.5 -14.5
c-59.333 0 -101.5 11.167 -126.5 33.5s-37.5 59.833 -37.5 112.5c0 58.667 26 133 78 223l11 19c28 49.333 46.833 88.166 56.5 116.499s14.5 55.5 14.5 81.5c0 34.667 -8.33301 64.167 -25 88.5s-36.334 36.5 -59.001 36.5c-24 0 -40.833 -12.667 -50.5 -38
s-14.5 -74 -14.5 -146c0 -41.333 -19.833 -79.333 -59.5 -114s-85.5 -52 -137.5 -52z" />
    <glyph glyph-name="at" unicode="@" horiz-adv-x="2019" 
d="M1163 305c-38.667 -62.667 -81.502 -109.665 -128.502 -140.998s-97.5 -47 -151.5 -47c-101.333 0 -181.666 31 -240.999 93s-89 146.333 -89 253c0 77.333 14.667 150.333 44 219s72 130 128 184c50.667 50 106.5 88.5 167.5 115.5s121.833 40.5 182.5 40.5
c66 0 117.333 -14.333 154 -43s58.334 -71.667 65.001 -129l45 149h234l-176 -628c-4.66699 -16 -8.33398 -31.333 -11.001 -46s-4 -28 -4 -40c0 -29.333 6.16699 -52.5 18.5 -69.5s28.833 -25.5 49.5 -25.5c18 0 45.833 10.833 83.5 32.5s71.834 47.834 102.501 78.501
c60 59.333 105.167 128.166 135.5 206.499s45.5 164.5 45.5 258.5c0 72 -9.33301 139.5 -28 202.5s-45.667 116.833 -81 161.5c-56.667 75.333 -135.334 135.166 -236.001 179.499s-207.667 66.5 -321 66.5c-97.333 0 -191.166 -16.167 -281.499 -48.5
s-171.833 -78.833 -244.5 -139.5c-98 -82 -172.333 -180.667 -223 -296s-76 -244 -76 -386c0 -218.667 66.333 -391.167 199 -517.5s314 -189.5 544 -189.5c107.333 0 210.333 16 309 48s207.334 85 326.001 159l45 -65c-100 -76 -207 -133.333 -321 -172
s-232.333 -58 -355 -58c-290 0 -520.5 74.167 -691.5 222.5s-256.5 347.833 -256.5 598.5c0 120 22 234 66 342s108 204.333 192 289c95.333 96 207.666 170.167 336.999 222.5s265.333 78.5 408 78.5c230.667 0 416.667 -63.833 558 -191.5s212 -295.834 212 -504.501
c0 -104.667 -16 -199 -48 -283s-81.333 -160.333 -148 -229c-44 -46 -92.5 -81 -145.5 -105s-108.167 -36 -165.5 -36c-67.333 0 -121.833 17.5 -163.5 52.5s-63.167 80.833 -64.5 137.5zM1139 934.002c-34.667 0 -66.168 -10.8311 -94.501 -32.498
s-56.166 -56.5 -83.499 -104.5c-42.667 -72.667 -77 -151.5 -103 -236.5s-39 -155.833 -39 -212.5c0 -46 9.5 -81 28.5 -105s46.5 -36 82.5 -36c29.333 0 57.666 13.667 84.999 41s56.333 71.666 87 132.999c37.333 75.333 67.833 156.666 91.5 243.999s35.5 157 35.5 209
c0 32.667 -7.66699 57.5 -23 74.5s-37.666 25.5 -66.999 25.5z" />
    <glyph glyph-name="A" unicode="A" horiz-adv-x="1769" 
d="M602 635h326.001c-40 96.667 -74.333 169.667 -103 219s-51 74 -67 74c-14.667 0 -32.834 -20.167 -54.501 -60.5s-55.5 -117.833 -101.5 -232.5zM-32.999 117c0 25.333 6.00098 45.498 18.001 60.498s40.333 30.833 85 47.5v0c39.333 12.667 65 28.334 77 47.001
c14 20.667 33 56.334 57 107.001s65.333 144 124 280l30 69c150 344.667 232 553.334 246 626.001c0.666992 2.66699 1.66699 7 3 13c19.333 102 79 153 179 153c58 0 107 -7 147 -21s74.333 -35.667 103 -65c40.667 -42.667 85.167 -107.667 133.5 -195
s122.166 -241 221.499 -461l102 -241c64 -155.333 110.333 -247.666 139 -276.999c11.333 -11.333 29 -20.333 53 -27c10 -2.66699 17.667 -5.33398 23 -8.00098c17.333 -8 31.166 -19.833 41.499 -35.5s15.5 -31.834 15.5 -48.501c0 -54 -34.5 -93.667 -103.5 -119
s-177.167 -38 -324.5 -38c-167.333 0 -284.5 10.167 -351.5 30.5s-100.5 55.166 -100.5 104.499c0 20 4.16699 37 12.5 51s21.833 26.333 40.5 37c5.33301 2.66699 13.333 6.33398 24 11.001c36 15.333 54 34 54 56c0 30 -24.5 51.5 -73.5 64.5s-129.167 19.5 -240.5 19.5
c-87.333 0 -147.666 -6.33301 -180.999 -19s-50 -35 -50 -67c0 -15.333 3.5 -27.166 10.5 -35.499s23.833 -16.833 50.5 -25.5c31.333 -10.667 51.833 -22.334 61.5 -35.001s14.5 -31 14.5 -55c0 -47.333 -26.667 -82 -80 -104s-136.333 -33 -249 -33
c-104 0 -182 11 -234 33s-78 55.333 -78 100z" />
    <glyph glyph-name="B" unicode="B" horiz-adv-x="1581" 
d="M1034 0l-823 -0.00292969c-62 0 -107.833 8.66699 -137.5 26s-44.5 44 -44.5 80c0 18 4.83301 35.5 14.5 52.5s17.834 25.5 24.501 25.5c16 0 34.833 10.333 56.5 31s35.5 44.667 41.5 72c8.66699 40.667 15.667 111.834 21 213.501s8 220.167 8 355.5v160
c0 88 -2.5 148.333 -7.5 181s-13.5 52.667 -25.5 60c-9.33301 6 -25 13.333 -47 22c-57.333 22 -86 54.333 -86 97c0 40 15.667 69.167 47 87.5s81 27.5 149 27.5c26 0 68.667 -0.666992 128 -2s106.333 -2 141 -2c58.667 0 131.667 1 219 3s144.666 3 171.999 3
c186 0 322.167 -28.5 408.5 -85.5s129.5 -146.5 129.5 -268.5c0 -49.333 -8 -93.666 -24 -132.999s-39.333 -72.333 -70 -99l-40 -31c-28 -19.333 -42 -35.666 -42 -48.999s16.667 -24 50 -32c28.667 -6.66699 51.667 -13.667 69 -21c55.333 -24 98.5 -63.5 129.5 -118.5
s46.5 -119.833 46.5 -194.5c0 -140 -46.167 -251.833 -138.5 -335.5s-215.5 -125.5 -369.5 -125.5zM705 589.997c0 -54.667 0.500977 -105.667 1.50098 -153s2.5 -84.666 4.5 -111.999c3.33301 -42.667 10.166 -69 20.499 -79s30.833 -15 61.5 -15
c54 0 95.5 18.667 124.5 56s43.5 91.333 43.5 162c0 65.333 -16 113.666 -48 144.999s-81 47 -147 47c-25.333 0 -41.833 -3.5 -49.5 -10.5s-11.5 -20.5 -11.5 -40.5zM702.001 1217v-308c0 -19.333 3 -31.666 9 -36.999s16.667 -8 32 -8c56 0 96 14.833 120 44.5
s36 79.167 36 148.5c0 77.333 -12 130 -36 158s-67.333 42 -130 42c-12 0 -20.5 -1.83301 -25.5 -5.5s-7.5 -9.83398 -7.5 -18.501c0 -0.666992 0.333008 -3 1 -7s1 -7 1 -9z" />
    <glyph glyph-name="C" unicode="C" horiz-adv-x="1620" 
d="M1316 114c-68.667 -49.333 -142.667 -86.5029 -222 -111.503s-162.666 -37.5 -249.999 -37.5c-106.667 0 -205.334 17.333 -296.001 52s-172.334 86.334 -245.001 155.001c-77.333 73.333 -137 158 -179 254s-63 196.333 -63 301c0 102 20 201.667 60 299
s96.667 183.333 170 258c72 74.667 155.5 132 250.5 172s195.167 60 300.5 60c79.333 0 160.166 -13.667 242.499 -41s126.5 -41 132.5 -41c8 0 23.833 3 47.5 9s43.167 9 58.5 9c55.333 0 106 -37.833 152 -113.5s69 -160.834 69 -255.501
c0 -66.667 -18.667 -121.167 -56 -163.5s-84.666 -63.5 -141.999 -63.5c-63.333 0 -118.333 37.667 -165 113c-7.33301 12.667 -13.333 22 -18 28c-42 64.667 -90.333 114 -145 148s-112.667 51 -174 51c-75.333 0 -134.5 -25.167 -177.5 -75.5
s-64.5 -120.166 -64.5 -209.499c0 -68 10 -132.167 30 -192.5s49 -114.833 87 -163.5c46 -57.333 98.167 -101.333 156.5 -132s118.833 -46 181.5 -46c52 0 100.5 8.83301 145.5 26.5s92.5 46.834 142.5 87.501c4.66699 4 10.334 9.33301 17.001 16c24 22.667 45 34 63 34
c28 0 51.5 -13.833 70.5 -41.5s28.5 -62.5 28.5 -104.5c0 -71.333 -20.167 -136.166 -60.5 -194.499s-83.833 -87.5 -130.5 -87.5c-4 0 -7.16699 0.166992 -9.5 0.5s-4.83301 0.5 -7.5 0.5z" />
    <glyph glyph-name="D" unicode="D" horiz-adv-x="1718" 
d="M31 119c0 18.667 2.99902 34.834 8.99902 48.501s16.667 27.5 32 41.5c11.333 10 28.666 19.833 51.999 29.5s37.333 17.5 42 23.5c11.333 15.333 19.666 90.166 24.999 224.499s8 346.833 8 637.5c0 45.333 -2.5 73.5 -7.5 84.5s-21.833 23.167 -50.5 36.5
c-30 15.333 -50.5 31.166 -61.5 47.499s-16.5 37.5 -16.5 63.5c0 48.667 17 82.334 51 101.001s106.667 28 218 28c19.333 0 47.833 -0.333008 85.5 -1s65.834 -1 84.501 -1c4.66699 0 53.834 0.333008 147.501 1s185.167 1 274.5 1c238.667 0 422.834 -65 552.501 -195
s194.5 -315 194.5 -555c0 -124 -19 -234 -57 -330s-96 -180.333 -174 -253c-62.667 -58 -137.667 -100.167 -225 -126.5s-196 -39.5 -326 -39.5c-48 0 -139.333 2.66699 -274 8c-42 2 -74.333 3.33301 -97 4c-26 0 -58.833 0.333008 -98.5 1s-66.167 1 -79.5 1h-117h-28
c-60 4.66699 -102.333 16.167 -127 34.5s-37 46.5 -37 84.5zM714.999 889c0 -120 0.499023 -228.167 1.49902 -324.5s2.5 -161.166 4.5 -194.499c3.33301 -48.667 10.333 -80.5 21 -95.5s30.334 -22.5 59.001 -22.5c105.333 0 183.833 37 235.5 111s77.5 186.333 77.5 337
c0 178 -27.5 310 -82.5 396s-139.5 129 -253.5 129c-16.667 0 -30.5 -2.33301 -41.5 -7s-16.833 -9.66699 -17.5 -15c-1.33301 -5.33301 -2.33301 -25.333 -3 -60s-1 -119.334 -1 -254.001z" />
    <glyph glyph-name="E" unicode="E" horiz-adv-x="1503" 
d="M911 -2l-741.002 -0.00585938c-62.667 0 -105 7.5 -127 22.5s-33 41.5 -33 79.5c0 38.667 23.667 71.334 71 98.001c22.667 13.333 38.667 24.333 48 33c23.333 24 40.166 80.167 50.499 168.5s15.5 233.166 15.5 434.499c0 137.333 -3.5 236.333 -10.5 297
s-18.5 99.334 -34.5 116.001c-5.33301 5.33301 -27.833 18.333 -67.5 39s-59.5 50.667 -59.5 90c0 36.667 15.5 64.667 46.5 84s76.167 29 135.5 29c10.667 0 76.5 -1.33301 197.5 -4s236.833 -4 347.5 -4c174.667 0 328.334 8.66699 461.001 26c12 1.33301 19.333 2 22 2
c54.667 0 98.667 -27.667 132 -83s50 -128.666 50 -219.999c0 -53.333 -11.167 -95.666 -33.5 -126.999s-52.166 -47 -89.499 -47c-39.333 0 -76.666 25.667 -111.999 77c-11.333 16.667 -20.333 28.667 -27 36c-29.333 33.333 -63.833 57.333 -103.5 72
s-89.834 22 -150.501 22c-76.667 0 -126.334 -2.16699 -149.001 -6.5s-38.667 -11.833 -48 -22.5c-8 -9.33301 -14.333 -32.833 -19 -70.5s-7 -87.167 -7 -148.5c0 -58 5.5 -93 16.5 -105s38.167 -18 81.5 -18c31.333 0 53.5 5 66.5 15s22.833 30.333 29.5 61
c1.33301 5.33301 3 13 5 23c16 86 47.333 129 94 129c48.667 0 85.334 -25.167 110.001 -75.5s37 -126.166 37 -227.499c0 -124 -13.167 -217.5 -39.5 -280.5s-64.833 -94.5 -115.5 -94.5c-45.333 0 -73.666 36 -84.999 108c-0.666992 4 -1.33398 7 -2.00098 9
c-8 50 -18 80.833 -30 92.5s-34.667 17.5 -68 17.5c-38 0 -62.833 -7.66699 -74.5 -23s-17.5 -53.333 -17.5 -114c0 -86 2 -142.167 6 -168.5s11 -45.166 21 -56.499c10 -12 27.833 -20.5 53.5 -25.5s69.834 -7.5 132.501 -7.5c76.667 0 140.5 9.66699 191.5 29
s92.167 49.333 123.5 90c12 14.667 26.667 36 44 64c34.667 58 72 87 112 87c38.667 0 68.167 -11.833 88.5 -35.5s30.5 -58.167 30.5 -103.5c0 -48.667 -7 -98.667 -21 -150s-34.333 -101.666 -61 -150.999c-23.333 -44 -44.833 -74.833 -64.5 -92.5
s-41.167 -26.5 -64.5 -26.5c-2.66699 0 -11.667 1.66699 -27 5c-106 21.333 -218.667 32 -338 32z" />
    <glyph glyph-name="F" unicode="F" horiz-adv-x="1425" 
d="M39 139c0 48 26.9961 85.333 80.9961 112l32 17c18 11.333 30.667 45.833 38 103.5s11 165.834 11 324.501c0 156.667 -2.66699 283 -8 379s-12.333 150.667 -21 164c-9.33301 14 -26 25.167 -50 33.5s-38.333 14.5 -43 18.5c-16 13.333 -26.667 25.333 -32 36
s-8 23.667 -8 39c0 42 16.667 73.333 50 94s83.666 31 150.999 31c6 0 45.333 -1 118 -3s142.334 -3 209.001 -3c222.667 0 434.667 9.66699 636 29c26.667 2.66699 42 4 46 4c45.333 0 86.333 -33.833 123 -101.5s55 -145.167 55 -232.5c0 -46 -10.167 -81.5 -30.5 -106.5
s-48.833 -37.5 -85.5 -37.5c-33.333 0 -72.333 24.667 -117 74l-23 25c-41.333 43.333 -85 73.5 -131 90.5s-112.667 25.5 -200 25.5c-37.333 0 -66.166 -3.16699 -86.499 -9.5s-32.5 -15.833 -36.5 -28.5c-5.33301 -18 -10.166 -52 -14.499 -102s-6.5 -105 -6.5 -165
c0 -17.333 4.33301 -28.5 13 -33.5s35 -7.5 79 -7.5c31.333 0 54 4.83301 68 14.5s24.333 27.5 31 53.5c1.33301 5.33301 3 12.666 5 21.999c14.667 67.333 46.334 101 95.001 101s84.334 -26.667 107.001 -80s34 -138 34 -254c0 -119.333 -12.333 -207.5 -37 -264.5
s-62.667 -85.5 -114 -85.5c-20 0 -38.167 6.83301 -54.5 20.5s-26.166 29.834 -29.499 48.501c-1.33301 7.33301 -3 17 -5 29c-15.333 95.333 -54.666 143 -117.999 143c-30 0 -49.5 -3.66699 -58.5 -11s-13.5 -29.333 -13.5 -66v-11c0 -96.667 4 -169.667 12 -219
s20.667 -78 38 -86c12.667 -6 30.667 -11.333 54 -16s37.666 -8.66699 42.999 -12c19.333 -12 33.5 -25.5 42.5 -40.5s13.5 -33.167 13.5 -54.5c0 -58 -32.5 -99.833 -97.5 -125.5s-173.833 -38.5 -326.5 -38.5c-156.667 0 -268.834 12.667 -336.501 38
s-101.5 66.666 -101.5 123.999z" />
    <glyph glyph-name="G" unicode="G" horiz-adv-x="1772" 
d="M63 750c0 104 22.1699 203.999 66.5029 299.999s107.5 181.667 189.5 257c77.333 70 163 122.333 257 157s197.667 52 311 52c90.667 0 187 -17 289 -51c30 -10 49 -15 57 -15c13.333 0 34.5 6.5 63.5 19.5s51.5 19.5 67.5 19.5c57.333 0 107.5 -33.833 150.5 -101.5
s64.5 -149.167 64.5 -244.5c0 -66 -16.333 -117.667 -49 -155s-77.667 -56 -135 -56c-38.667 0 -72.167 8.33301 -100.5 25s-62.5 52 -102.5 106c-44 58.667 -86.833 100.334 -128.5 125.001s-88.834 37 -141.501 37c-88.667 0 -161 -33 -217 -99s-84 -151.333 -84 -256
c0 -172.667 37.667 -316.167 113 -430.5s167.333 -171.5 276 -171.5c34 0 60.167 11.333 78.5 34s27.5 55 27.5 97s-33 66 -99 72c-7.33301 0.666992 -13 1.33398 -17 2.00098c-31.333 3.33301 -57 15.5 -77 36.5s-30 46.5 -30 76.5c0 59.333 36.667 104.166 110 134.499
s182 45.5 326 45.5c145.333 0 253.666 -14.5 324.999 -43.5s107 -73.167 107 -132.5c0 -18.667 -4.16699 -36.667 -12.5 -54s-19.166 -30 -32.499 -38c-20 -13.333 -43.333 -23.833 -70 -31.5s-40.667 -12.167 -42 -13.5c-6.66699 -6.66699 -12.667 -22 -18 -46
c-1.33301 -6 -2.33301 -10.667 -3 -14c-12.667 -47.333 -27.834 -88 -45.501 -122s-40.834 -67.667 -69.501 -101c-58.667 -70 -136.667 -122.667 -234 -158s-213 -53 -347 -53c-247.333 0 -446.5 72.5 -597.5 217.5s-226.5 336.167 -226.5 573.5z" />
    <glyph glyph-name="H" unicode="H" horiz-adv-x="1767" 
d="M37 139c0 47.333 28.002 82.001 84.002 104.001c12 4.66699 20.667 8.33398 26 11.001c16.667 7.33301 29.167 48 37.5 122s12.5 181.333 12.5 322c0 182.667 -2.5 313.167 -7.5 391.5s-12.833 124.166 -23.5 137.499c-0.666992 0.666992 -20.334 10.334 -59.001 29.001
s-58 47 -58 85c0 50 33.667 87.5 101 112.5s168.333 37.5 303 37.5c138.667 0 237.167 -10.5 295.5 -31.5s87.5 -55.5 87.5 -103.5c0 -23.333 -4.83301 -42.833 -14.5 -58.5s-29.5 -32.5 -59.5 -50.5c-24.667 -14.667 -41.167 -31.5 -49.5 -50.5s-12.5 -56.167 -12.5 -111.5
v-79c0 -44.667 8.83301 -72.667 26.5 -84s60.167 -17 127.5 -17c48.667 0 88.667 1.66699 120 5s54.666 8.66602 69.999 15.999c9.33301 4 15.833 12 19.5 24s5.5 36 5.5 72v27c0 48.667 -3.66699 89.334 -11 122.001s-17.333 54 -30 64
c-5.33301 4 -14.666 9.66699 -27.999 17c-41.333 23.333 -62 54.666 -62 93.999c0 52.667 30 90 90 112s168.667 33 326 33c137.333 0 234.5 -10.5 291.5 -31.5s85.5 -56.167 85.5 -105.5c0 -42 -26.667 -77.333 -80 -106c-19.333 -10.667 -33.333 -19.334 -42 -26.001
c-13.333 -10 -22.666 -43.333 -27.999 -100s-8 -178.667 -8 -366c0 -158.667 2.33301 -278.167 7 -358.5s12 -126.833 22 -139.5c0 -0.666992 17.667 -11.167 53 -31.5s53 -50.833 53 -91.5c0 -52 -30.5 -89.833 -91.5 -113.5s-158.167 -35.5 -291.5 -35.5
c-138.667 0 -239.5 11.5 -302.5 34.5s-94.5 59.833 -94.5 110.5c0 25.333 5.66699 47.166 17 65.499s29.333 34.833 54 49.5l19 10c21.333 12 33.666 23.667 36.999 35c4 24.667 7.33301 58 10 100s4 86.333 4 133c0 56 -9.16699 89.5 -27.5 100.5s-60.5 16.5 -126.5 16.5
c-52 0 -94.833 -2.16699 -128.5 -6.5s-59.167 -11.166 -76.5 -20.499c-9.33301 -4 -16 -13.333 -20 -28s-6 -39.334 -6 -74.001c0 -69.333 3.66699 -127 11 -173s16.666 -73 27.999 -81l24 -15c48 -30 72 -64 72 -102c0 -52 -33.667 -90.833 -101 -116.5
s-169.333 -38.5 -306 -38.5c-124 0 -217.5 12.833 -280.5 38.5s-94.5 63.834 -94.5 114.501z" />
    <glyph glyph-name="I" unicode="I" horiz-adv-x="942" 
d="M53 141c0 41.333 26.3301 77.668 78.9971 109.001c18.667 11.333 32 20 40 26c19.333 14.667 32.666 55.667 39.999 123s11 193.666 11 378.999c0 32 0.333008 72.667 1 122s1 83 1 101c0 72 -3.16699 123.5 -9.5 154.5s-17.166 52.5 -32.499 64.5
c-8 6 -20.333 14 -37 24c-46.667 28 -70 60.333 -70 97c0 51.333 33.833 89.5 101.5 114.5s170.167 37.5 307.5 37.5c135.333 0 234.5 -11.833 297.5 -35.5s94.5 -60.834 94.5 -111.501c0 -36.667 -18.167 -67.5 -54.5 -92.5s-55.166 -38.833 -56.499 -41.5
c-13.333 -18.667 -22.833 -83.5 -28.5 -194.5s-8.5 -289.833 -8.5 -536.5c0 -70 2.66699 -119.333 8 -148s14.333 -49 27 -61c8 -7.33301 21.333 -17.666 40 -30.999c45.333 -32.667 68 -67.334 68 -104.001c0 -50.667 -33.667 -88.167 -101 -112.5
s-170.666 -36.5 -309.999 -36.5c-129.333 0 -229.666 13.333 -300.999 40s-107 64.334 -107 113.001z" />
    <glyph glyph-name="J" unicode="J" horiz-adv-x="1391" 
d="M674 473l0.000976562 576.002c0 59.333 -4.5 98.166 -13.5 116.499s-30.833 34.833 -65.5 49.5l-3 1c-56 24.667 -84 59.667 -84 105c0 60.667 31.667 104.167 95 130.5s171 39.5 323 39.5c156 0 263.833 -11.167 323.5 -33.5s89.5 -61.166 89.5 -116.499
c0 -46.667 -24 -84 -72 -112c-3.33301 -2 -5.66602 -3.33301 -6.99902 -4c-44 -25.333 -68 -82.333 -72 -171v-5c-2.66699 -74 -4.66699 -175.333 -6 -304c-1.33301 -226.667 -12.333 -372 -33 -436c-37.333 -114.667 -103.333 -201.334 -198 -260.001
s-216.334 -88 -365.001 -88c-172.667 0 -311.167 38.5 -415.5 115.5s-156.5 178.5 -156.5 304.5c0 75.333 22.167 136.833 66.5 184.5s101.5 71.5 171.5 71.5c69.333 0 126.666 -21.667 171.999 -65s68 -98 68 -164c0 -12.667 -2.5 -31.667 -7.5 -57
s-7.5 -44.666 -7.5 -57.999c0 -14.667 5.16699 -26.834 15.5 -36.501s23.5 -14.5 39.5 -14.5c44.667 0 79.5 20.167 104.5 60.5s37.5 97.166 37.5 170.499z" />
    <glyph glyph-name="K" unicode="K" horiz-adv-x="1804" 
d="M1610 -16l-376.999 0.00683594c-30 0 -51.5 3.5 -64.5 10.5s-31.167 25.167 -54.5 54.5l-182 238c-94 128 -155.333 192 -184 192c-14 0 -24.333 -6.33301 -31 -19s-10 -31.667 -10 -57c0 -40.667 2.5 -73.834 7.5 -99.501s12.833 -44.5 23.5 -56.5
c5.33301 -5.33301 15 -13.333 29 -24c42.667 -31.333 64 -67.333 64 -108c0 -52 -28.167 -89 -84.5 -111s-153.5 -33 -291.5 -33c-140 0 -241.667 11.167 -305 33.5s-95 57.833 -95 106.5c0 35.333 19.333 69.666 58 102.999c13.333 12 22.666 21.333 27.999 28
c21.333 26 36.333 76.333 45 151s13 218.667 13 432c0 127.333 -4 221.833 -12 283.5s-20.333 99.167 -37 112.5c-6 4 -15 9.66699 -27 17c-45.333 29.333 -68 61.666 -68 96.999c0 50 34.333 88.833 103 116.5s166.334 41.5 293.001 41.5
c126 0 217.167 -11.167 273.5 -33.5s84.5 -58.166 84.5 -107.499c0 -27.333 -3.83301 -48 -11.5 -62s-22.834 -27.667 -45.501 -41c-27.333 -16.667 -46.5 -40.667 -57.5 -72s-16.5 -79 -16.5 -143c0 -22.667 4.16699 -39.834 12.5 -51.501s20.5 -17.5 36.5 -17.5
c15.333 0 31 6.33301 47 19s36 35 60 67c30.667 42 56 80.167 76 114.5s30 56.166 30 65.499c0 7.33301 -5.83301 23.5 -17.5 48.5s-17.5 48.5 -17.5 70.5c0 50 31.833 86.333 95.5 109s167.834 34 312.501 34c114 0 195.667 -10.333 245 -31s74 -54 74 -100
c0 -38.667 -12.167 -67.834 -36.5 -87.501s-60.5 -29.5 -108.5 -29.5c-6 0 -14.167 0.333008 -24.5 1s-17.833 1 -22.5 1c-30 0 -58 -6 -84 -18s-54.667 -31.333 -86 -58c-52.667 -43.333 -93.5 -84 -122.5 -122s-43.5 -69.667 -43.5 -95c0 -32 49.667 -108.833 149 -230.5
s226 -257.834 380 -408.501c1.33301 -1.33301 4.66602 -5 9.99902 -11c34 -36.667 75.333 -69 124 -97c9.33301 -6 16.833 -18.167 22.5 -36.5s8.5 -40.5 8.5 -66.5c0 -46.667 -12.167 -78.334 -36.5 -95.001s-74.833 -25 -151.5 -25z" />
    <glyph glyph-name="L" unicode="L" horiz-adv-x="1393" 
d="M885 -2l-715.004 -0.00195312c-40 0 -71.5 11.5 -94.5 34.5s-34.5 54.5 -34.5 94.5s24 75 72 105c21.333 14 36.333 25.333 45 34c18.667 20.667 31.834 53.667 39.501 99s11.5 141.333 11.5 288v187c0 144.667 -2.16699 241 -6.5 289s-11.833 78 -22.5 90
c-7.33301 8 -22.333 15.333 -45 22s-37.667 12 -45 16c-16 11.333 -27.5 23.833 -34.5 37.5s-10.5 30.834 -10.5 51.501c0 50 38 88.667 114 116s184.667 41 326 41c138.667 0 243.334 -12.333 314.001 -37s106 -61.334 106 -110.001c0 -43.333 -26.667 -77.333 -80 -102
c-16 -7.33301 -28.333 -13.666 -37 -18.999c-18 -12 -29.833 -22.5 -35.5 -31.5s-10.167 -23.833 -13.5 -44.5c-3.33301 -28.667 -5.83301 -74.167 -7.5 -136.5s-2.5 -153.166 -2.5 -272.499v-164c0 -82.667 0.833008 -144.667 2.5 -186s4.16699 -69.333 7.5 -84
c4.66699 -18 18.834 -31.833 42.501 -41.5s55.5 -14.5 95.5 -14.5c74.667 0 130.834 10 168.501 30s67.5 55.333 89.5 106c4.66699 10.667 10.334 25.667 17.001 45c19.333 56.667 47.666 85 84.999 85c39.333 0 72.666 -16 99.999 -48s41 -72 41 -120
c0 -45.333 -10 -98.333 -30 -159s-44.667 -112 -74 -154c-16.667 -24.667 -35.5 -43.5 -56.5 -56.5s-43.167 -19.5 -66.5 -19.5c-2 0 -8.33301 1.33301 -19 4c-73.333 16.667 -155.666 25 -246.999 25z" />
    <glyph glyph-name="M" unicode="M" horiz-adv-x="1995" 
d="M20 106c0 42 20.1621 73.4971 60.4951 94.4971s61.833 33.167 64.5 36.5c18 22.667 31.833 99.167 41.5 229.5s14.5 308.5 14.5 534.5c0 81.333 -4.66699 135.333 -14 162s-26.666 48.667 -51.999 66l-19 13c-52.667 35.333 -79 72.666 -79 111.999
c0 48 26.333 83.5 79 106.5s133.334 34.5 242.001 34.5c62 0 116.833 -3.33301 164.5 -10s79.167 -15 94.5 -25c11.333 -8 25.5 -24.667 42.5 -50s50.5 -81.666 100.5 -168.999c27.333 -48 60.666 -109.667 99.999 -185c64.667 -125.333 112.667 -188 144 -188
c32.667 0 78.334 63 137.001 189c42.667 92 80 167.667 112 227c29.333 54 53.5 94.667 72.5 122s35.833 46 50.5 56c19.333 12.667 45 21.667 77 27s93 8 183 8c114.667 0 195.334 -11 242.001 -33s70 -58 70 -108c0 -34 -20 -62.333 -60 -85
c-12.667 -7.33301 -21.334 -13.333 -26.001 -18c-21.333 -20.667 -36.666 -68 -45.999 -142s-14 -185.667 -14 -335c0 -141.333 3.66699 -258.166 11 -350.499s16.666 -146.833 27.999 -163.5c2.66699 -3.33301 11.667 -9.33301 27 -18c53.333 -30 80 -68.333 80 -115
c0 -51.333 -29.167 -87.666 -87.5 -108.999s-161.833 -32 -310.5 -32c-144.667 0 -245.334 11 -302.001 33s-85 59.333 -85 112c0 38 20.333 69.667 61 95c16.667 10.667 27.667 19.334 33 26.001c14.667 17.333 24.834 47.833 30.501 91.5s8.5 120.167 8.5 229.5
c0 30 -4 52.333 -12 67s-20.333 22 -37 22c-26 0 -56.667 -43 -92 -129c-12.667 -30.667 -23 -54.667 -31 -72l-71 -165c-77.333 -180.667 -134.666 -271 -171.999 -271c-23.333 0 -48.666 21.333 -75.999 64s-79.333 151.667 -156 327c-14.667 34 -32.667 79 -54 135
c-32.667 87.333 -61 131 -85 131c-17.333 0 -29.166 -16 -35.499 -48s-9.5 -108 -9.5 -228c0 -78.667 3.66699 -128.167 11 -148.5s21.333 -35.833 42 -46.5l14 -7c49.333 -24.667 74 -57 74 -97c0 -44 -22 -75.167 -66 -93.5s-119.667 -27.5 -227 -27.5
c-105.333 0 -180.5 9.16699 -225.5 27.5s-67.5 48.5 -67.5 90.5z" />
    <glyph glyph-name="N" unicode="N" horiz-adv-x="1774" 
d="M203 686c0 166 -3.66602 283.166 -10.999 351.499s-19.333 119.5 -36 153.5c-9.33301 17.333 -29.333 32.666 -60 45.999c-10 4 -17.333 7.33301 -22 10c-20 11.333 -35.333 24.666 -46 39.999s-16 32 -16 50c0 51.333 27.5 87.833 82.5 109.5s150.5 32.5 286.5 32.5
c44.667 0 79.667 -2 105 -6s46.333 -10.333 63 -19c26 -14 57.167 -36.167 93.5 -66.5s95.166 -83.833 176.499 -160.5l42 -39c217.333 -204.667 344 -307 380 -307c15.333 0 27 8 35 24s12 39.333 12 70c0 33.333 0.666992 69.666 2 108.999v18
c0 46.667 -5.5 80.667 -16.5 102s-31.5 39 -61.5 53c-2 1.33301 -5.33301 3 -10 5c-40.667 18.667 -61 50 -61 94c0 50 22 85 66 105s128.333 30 253 30c111.333 0 188.666 -9.5 231.999 -28.5s65 -51.833 65 -98.5c0 -26.667 -4.83301 -48.167 -14.5 -64.5
s-32.834 -33.833 -69.501 -52.5c-27.333 -14.667 -45.666 -32 -54.999 -52s-17.666 -65.333 -24.999 -136c-6 -60.667 -10.667 -161.667 -14 -303c-1.33301 -68.667 -2.66602 -121 -3.99902 -157c-0.666992 -27.333 -2 -66.333 -4 -117c-6 -208 -13.667 -330.333 -23 -367
c-10 -44.667 -24.333 -77 -43 -97s-43 -30 -73 -30c-29.333 0 -70.333 18.833 -123 56.5s-153 125.167 -301 262.5l-216 205c-120.667 117.333 -193 176 -217 176c-24.667 0 -42 -13.5 -52 -40.5s-15 -76.833 -15 -149.5c0 -55.333 3.5 -105.166 10.5 -149.499
s14.833 -72.166 23.5 -83.499c5.33301 -7.33301 26.166 -22.166 62.499 -44.499s54.5 -50.833 54.5 -85.5c0 -49.333 -25 -86.166 -75 -110.499s-125.333 -36.5 -226 -36.5c-104.667 0 -183 11.5 -235 34.5s-78 57.833 -78 104.5c0 33.333 18 62.333 54 87s56.333 40 61 46
c15.333 22.667 26.333 64 33 124s10 160.667 10 302z" />
    <glyph glyph-name="O" unicode="O" horiz-adv-x="1731" 
d="M49 745c0 105.333 22.499 208.666 67.499 309.999s107.167 188 186.5 260c74 68 159.167 118.833 255.5 152.5s205.166 50.5 326.499 50.5c114.667 0 221.5 -19.167 320.5 -57.5s185.167 -93.833 258.5 -166.5c71.333 -70.667 125.333 -153.167 162 -247.5
s55 -196.833 55 -307.5c0 -117.333 -20.667 -224 -62 -320s-103 -181 -185 -255c-73.333 -66.667 -158.166 -117.5 -254.499 -152.5s-200.166 -52.5 -311.499 -52.5c-84.667 0 -165.167 10.833 -241.5 32.5s-147.833 53.834 -214.5 96.501c-114 74 -203 169 -267 285
s-96 240 -96 372zM605.999 956c0 -54 7.66602 -114.499 22.999 -181.499s37 -135.5 65 -205.5c36.667 -88.667 78.334 -156.5 125.001 -203.5s96 -70.5 148 -70.5c49.333 0 87.833 20.5 115.5 61.5s41.5 98.167 41.5 171.5c0 56.667 -6.16699 115.667 -18.5 177
s-30.5 122.666 -54.5 183.999c-42 104.667 -85.333 180.667 -130 228s-95 71 -151 71c-49.333 0 -89 -20.833 -119 -62.5s-45 -98.167 -45 -169.5z" />
    <glyph glyph-name="P" unicode="P" horiz-adv-x="1466" 
d="M723 532c0 -10.667 -0.333984 -25 -1.00098 -43s-1 -30.667 -1 -38c0 -58 3.16699 -102 9.5 -132s16.833 -51 31.5 -63c8 -6 20.333 -13.333 37 -22c46 -24 69 -55.667 69 -95c0 -54.667 -31.667 -94.5 -95 -119.5s-164.666 -37.5 -303.999 -37.5c-148 0 -256 13 -324 39
s-102 67.333 -102 124c0 37.333 20.333 67.833 61 91.5s63.334 39.167 68.001 46.5c12 18 20.5 80.667 25.5 188s7.5 308.666 7.5 603.999c0 60 -5.16699 102.833 -15.5 128.5s-28.833 44.834 -55.5 57.501c-8 4 -19 8.66699 -33 14c-54 22 -81 53.667 -81 95
c0 39.333 17.333 68 52 86s89.334 27 164.001 27c23.333 0 51.5 -1 84.5 -3s54.5 -3 64.5 -3c41.333 0 114.333 3.66699 219 11s188 11 250 11c200.667 0 350.5 -38.667 449.5 -116s148.5 -194.333 148.5 -351c0 -160 -52.333 -284.333 -157 -373
s-252.334 -133 -443.001 -133c-20 0 -40.833 0.5 -62.5 1.5s-43.834 2.5 -66.501 4.5zM706.999 1006v-95c0 -56.667 2.66699 -92.334 8 -107.001s17 -22 35 -22c55.333 0 98.833 19.333 130.5 58s47.5 92.334 47.5 161.001c0 76 -14.667 135 -44 177s-70 63 -122 63
c-22 0 -36.667 -10.333 -44 -31s-11 -69.667 -11 -147v-57z" />
    <glyph glyph-name="Q" unicode="Q" horiz-adv-x="1731" 
d="M1102 -4c67.333 -24 129.833 -42.332 187.5 -54.999s107.834 -19 150.501 -19c24 0 54.667 6.16699 92 18.5s64 18.5 80 18.5c24.667 0 43.167 -9.16699 55.5 -27.5s18.5 -46.166 18.5 -83.499c0 -61.333 -48.667 -119.666 -146 -174.999s-208 -83 -332 -83
c-66.667 0 -137.834 9.66699 -213.501 29s-162.834 50 -261.501 92l-206 92c-151.333 68.667 -241 103 -269 103c-9.33301 0 -24.166 -2.5 -44.499 -7.5s-36.166 -7.5 -47.499 -7.5c-27.333 0 -49.5 8 -66.5 24s-25.5 36.667 -25.5 62c0 41.333 18.333 76 55 104
s82.334 42 137.001 42c24 0 48.667 -2.83301 74 -8.5s50.666 -13.834 75.999 -24.501c-116.667 73.333 -207 167 -271 281s-96 238.667 -96 374c0 105.333 22.833 209.166 68.5 311.499s107.5 188.5 185.5 258.5c74 66.667 160 117.167 258 151.5s206 51.5 324 51.5
c115.333 0 222.666 -19.167 321.999 -57.5s185 -93.833 257 -166.5c71.333 -70.667 125.333 -153.167 162 -247.5s55 -196.833 55 -307.5c0 -191.333 -52 -353.833 -156 -487.5s-245 -218.834 -423 -255.501zM590 958.001c0 -52 8.16602 -112.499 24.499 -181.499
s39.5 -140.833 69.5 -215.5c36.667 -90 80 -159.167 130 -207.5s102.333 -72.5 157 -72.5c52 0 93 21 123 63s45 100.667 45 176c0 55.333 -7 114.833 -21 178.5s-34.333 128.5 -61 194.5c-42 104 -86.667 180.833 -134 230.5s-99.666 74.5 -156.999 74.5
c-52.667 0 -95.167 -21.833 -127.5 -65.5s-48.5 -101.834 -48.5 -174.501z" />
    <glyph glyph-name="R" unicode="R" horiz-adv-x="1694" 
d="M688 868c16 -4 28.332 -6.66699 36.999 -8s16.334 -2 23.001 -2c53.333 0 91.5 16.5 114.5 49.5s34.5 88.833 34.5 167.5c0 60 -11.667 104.333 -35 133s-59.333 43 -108 43c-28.667 0 -47.5 -9.33301 -56.5 -28s-13.5 -64 -13.5 -136v-92c0 -31.333 0.333008 -56 1 -74
s1.66699 -35.667 3 -53zM695.999 612l-0.00292969 -198c0 -62.667 2 -104.834 6 -126.501s11 -36.167 21 -43.5c6.66699 -5.33301 17.334 -12.333 32.001 -21c50.667 -30 76 -65.333 76 -106c0 -49.333 -28.5 -84.166 -85.5 -104.499s-158.167 -30.5 -303.5 -30.5
s-249.833 11 -313.5 33s-95.5 58 -95.5 108c0 39.333 27.667 73.666 83 102.999l22 12c16 8.66699 29.167 59.334 39.5 152.001s15.5 215.334 15.5 368.001v76c0 164.667 -3 271.667 -9 321s-16.667 79.333 -32 90c-8.66699 6 -22.334 13.667 -41.001 23
c-52 26.667 -78 59.334 -78 98.001c0 39.333 22.667 69 68 89s112.666 30 201.999 30c12 0 40.667 -0.333008 86 -1s85 -1 119 -1c55.333 0 127.5 1.33301 216.5 4s150.5 4 184.5 4c174.667 0 308.834 -33.167 402.501 -99.5s140.5 -161.5 140.5 -285.5
c0 -59.333 -11.667 -111.833 -35 -157.5s-58 -83.834 -104 -114.501c-10.667 -7.33301 -25.667 -15.666 -45 -24.999c-31.333 -16 -47 -30.333 -47 -43c0 -15.333 20.333 -29 61 -41s70.667 -25 90 -39c40 -28 71.833 -64.667 95.5 -110s41.834 -105.666 54.501 -180.999
c1.33301 -8.66699 3 -20.334 5 -35.001c12 -74.667 27 -115.334 45 -122.001c4.66699 -2 10.667 -4.33301 18 -7c65.333 -24.667 98 -56 98 -94c0 -49.333 -31.167 -89.333 -93.5 -120s-145.166 -46 -248.499 -46c-61.333 0 -114.666 6.16699 -159.999 18.5
s-83 30.833 -113 55.5c-53.333 44 -97.666 133.333 -132.999 268l-2 9l-10 39c-44 173.333 -103.333 260 -178 260c-10 0 -19.333 -0.833008 -28 -2.5s-17.334 -3.83398 -26.001 -6.50098z" />
    <glyph glyph-name="S" unicode="S" horiz-adv-x="1425" 
d="M676 -41c-116.667 0 -227.499 15.5 -332.499 46.5s-175.167 66.167 -210.5 105.5c-30 34 -53.5 82 -70.5 144s-25.5 131.333 -25.5 208c0 44 8 76.5 24 97.5s41.333 31.5 76 31.5c43.333 0 86 -31.667 128 -95c14 -21.333 25.333 -37.333 34 -48
c48 -62.667 99.333 -109.834 154 -141.501s112 -47.5 172 -47.5c44.667 0 81 9 109 27s42 41 42 69c0 37.333 -53 74.333 -159 111c-47.333 16 -85 29.667 -113 41c-145.333 56 -254 125.833 -326 209.5s-108 181.834 -108 294.501c0 144.667 56.5 264 169.5 358
s257.833 141 434.5 141c65.333 0 130.833 -7.16699 196.5 -21.5s99.167 -21.5 100.5 -21.5c17.333 0 40 3.16699 68 9.5s47.667 9.5 59 9.5c25.333 0 48.5 -5.83301 69.5 -17.5s42.833 -31.167 65.5 -58.5c36 -42.667 64.167 -87 84.5 -133s30.5 -88.333 30.5 -127
c0 -47.333 -14 -85.833 -42 -115.5s-64 -44.5 -108 -44.5c-40.667 0 -93.334 31.333 -158.001 94c-20.667 20 -37 35 -49 45c-29.333 27.333 -63 48.666 -101 63.999s-76.667 23 -116 23c-38.667 0 -68.834 -7.66699 -90.501 -23s-32.5 -36.666 -32.5 -63.999
c0 -52.667 78 -102 234 -148l50 -15c158.667 -47.333 270.834 -106.5 336.501 -177.5s98.5 -166.167 98.5 -285.5c0 -161.333 -63.833 -292.5 -191.5 -393.5s-295.167 -151.5 -502.5 -151.5z" />
    <glyph glyph-name="T" unicode="T" horiz-adv-x="1505" 
d="M1120 1485c10 0 30 4.66699 60 14s55 14 75 14c22.667 0 44.667 -4.66699 66 -14s39.666 -23 54.999 -41c40 -46 71.5 -97.667 94.5 -155s34.5 -112.666 34.5 -165.999c0 -62 -14.167 -110 -42.5 -144s-68.166 -51 -119.499 -51c-32 0 -62.5 10.167 -91.5 30.5
s-54.833 49.833 -77.5 88.5c-7.33301 11.333 -16.333 26.666 -27 45.999c-31.333 55.333 -58.666 83 -81.999 83c-17.333 0 -30.166 -6.83301 -38.499 -20.5s-12.5 -34.834 -12.5 -63.501v-70c0 -48.667 -1.66699 -135.167 -5 -259.5s-5 -223.5 -5 -297.5
c0 -72 5.5 -122.667 16.5 -152s30.5 -51.666 58.5 -66.999c8 -4 18.667 -9 32 -15c48.667 -21.333 73 -53 73 -95c0 -58 -36.833 -99.833 -110.5 -125.5s-193.167 -38.5 -358.5 -38.5c-134 0 -238.167 14.167 -312.5 42.5s-111.5 67.833 -111.5 118.5
c0 44.667 30 79.334 90 104.001c24 10 41 18.333 51 25c23.333 17.333 41.166 76.666 53.499 177.999s18.5 239.333 18.5 414v93c0 94.667 -4.33301 155.5 -13 182.5s-24.334 40.5 -47.001 40.5c-24 0 -53.333 -25.333 -88 -76l-24 -35c-38 -51.333 -70 -86 -96 -104
s-54.667 -27 -86 -27c-39.333 0 -71.833 14.833 -97.5 44.5s-38.5 67.5 -38.5 113.5c0 38.667 10 83.667 30 135s47.667 103.333 83 156c27.333 40 54.5 70.333 81.5 91s53.167 31 78.5 31c12.667 0 32 -4.66699 58 -14s45.333 -14 58 -14h717z" />
    <glyph glyph-name="U" unicode="U" horiz-adv-x="1767" 
d="M205 991l0.00292969 23.0049c0 69.333 -4 114.666 -12 135.999s-23.667 40 -47 56c-2 1.33301 -4.66699 3 -8 5c-51.333 33.333 -77 68.666 -77 105.999c0 54.667 39.833 97.334 119.5 128.001s191.5 46 335.5 46c126 0 216.167 -11 270.5 -33s81.5 -58 81.5 -108
c0 -48 -29 -88.667 -87 -122c-11.333 -6.66699 -20 -12 -26 -16c-15.333 -10.667 -26.5 -56.167 -33.5 -136.5s-10.5 -203.833 -10.5 -370.5c0 -140 21 -238.833 63 -296.5s112.333 -86.5 211 -86.5c52.667 0 98.667 8.16699 138 24.5s70.666 40.166 93.999 71.499
c20 28 34.167 73.333 42.5 136s12.5 175.667 12.5 339v63c0 106 -2.33301 177.333 -7 214s-12.667 61 -24 73c-5.33301 6 -27.833 18.5 -67.5 37.5s-59.5 44.833 -59.5 77.5c0 41.333 30.167 73.833 90.5 97.5s143.5 35.5 249.5 35.5c92 0 162.5 -11.5 211.5 -34.5
s73.5 -55.833 73.5 -98.5c0 -40.667 -24.667 -75.334 -74 -104.001l-23 -13c-31.333 -20.667 -50.333 -74.667 -57 -162c-0.666992 -8.66699 -1.33398 -15.334 -2.00098 -20.001c-4 -66 -7.66699 -157.333 -11 -274c-6.66699 -252.667 -27.667 -419.334 -63 -500.001
c-46.667 -106.667 -123.834 -186.667 -231.501 -240s-245.5 -80 -413.5 -80c-203.333 0 -364 46.833 -482 140.5s-177 220.167 -177 379.5v506z" />
    <glyph glyph-name="V" unicode="V" horiz-adv-x="1667" 
d="M453 545l-139 347.002l-7 17c-76.667 194.667 -126.667 297.334 -150 308.001c-8.66699 4 -22 9 -40 15c-52 17.333 -78 45.666 -78 84.999c0 60 33.333 105.667 100 137s164.334 47 293.001 47c137.333 0 236.5 -13 297.5 -39s91.5 -68.333 91.5 -127
c0 -35.333 -15 -62.5 -45 -81.5s-45 -31.167 -45 -36.5c0 -6.66699 11 -37.334 33 -92.001l6 -15l109 -270c10 -25.333 20 -44.333 30 -57s20.333 -19 31 -19c14 0 27.333 7.66699 40 23s28.667 45.333 48 90c59.333 134.667 97.333 224.5 114 269.5s25 75.833 25 92.5
c0 12.667 -13.667 25 -41 37c-9.33301 4 -16.666 7.33301 -21.999 10c-12 6 -21.5 14.5 -28.5 25.5s-10.5 23.833 -10.5 38.5c0 47.333 25 84.333 75 111s120 40 210 40c123.333 0 206.666 -10.333 249.999 -31s65 -58 65 -112c0 -52.667 -25 -83.334 -75 -92.001
c-10.667 -2 -18.334 -3.33301 -23.001 -4c-46 -9.33301 -99.333 -88 -160 -236l-45 -108l-148 -353c-62.667 -148 -114 -263.833 -154 -347.5s-71.667 -141.167 -95 -172.5c-24.667 -32 -47.834 -54 -69.501 -66s-48.5 -18 -80.5 -18
c-89.333 0 -192.666 150.333 -309.999 451z" />
    <glyph glyph-name="W" unicode="W" horiz-adv-x="2238" 
d="M238 1013l-13.9971 36c-34.667 92.667 -72.334 148.667 -113.001 168l-15 6c-47.333 21.333 -71 53.333 -71 96c0 59.333 33 104.5 99 135.5s162 46.5 288 46.5c120 0 208 -11.333 264 -34s84 -58.334 84 -107.001c0 -33.333 -10 -61.5 -30 -84.5s-30 -37.167 -30 -42.5
c0 -9.33301 2.33301 -22.833 7 -40.5s11.334 -37.5 20.001 -59.5l94 -256c8 -23.333 16.167 -40.833 24.5 -52.5s16.5 -17.5 24.5 -17.5c9.33301 0 17.166 3.83301 23.499 11.5s13.166 21.167 20.499 40.5l42 116c6 15.333 10.333 27.166 13 35.499s4 14.833 4 19.5
c0 6 -5.33301 24.333 -16 55l-5 15l-24 71c-14.667 44 -37 77 -67 99c-3.33301 2.66699 -5.66602 4.66699 -6.99902 6c-8.66699 8.66699 -16 20.834 -22 36.501s-9 30.167 -9 43.5c0 50.667 29.333 87.5 88 110.5s154.334 34.5 287.001 34.5
c114.667 0 197.667 -10.667 249 -32s77 -55.666 77 -102.999c0 -25.333 -13.667 -52 -41 -80s-41 -47.667 -41 -59c0 -19.333 10.333 -55.666 31 -108.999c7.33301 -18 12.666 -31.667 15.999 -41l55 -143l2 -5c32 -81.333 55.333 -122 70 -122c8 0 16.333 6.66699 25 20
s21.334 41.333 38.001 84l68 176c10.667 27.333 19.167 52.666 25.5 75.999s9.5 40.333 9.5 51c0 22 -12 39 -36 51c-8 4 -14.667 7.66699 -20 11c-16.667 10.667 -29 22.667 -37 36s-12 29.333 -12 48c0 45.333 23.667 80.166 71 104.499s114.666 36.5 201.999 36.5
c109.333 0 184 -9.83301 224 -29.5s60 -54.167 60 -103.5c0 -50.667 -27.667 -89 -83 -115l-5 -2c-52 -22.667 -94.667 -78.667 -128 -168l-13 -35l-213 -552l-59 -157c-93.333 -252 -177.333 -378 -252 -378c-43.333 0 -78.666 15.833 -105.999 47.5
s-59 99.834 -95 204.501l-135 397c-0.666992 2 -1.66699 4.66699 -3 8c-8.66699 24.667 -18.667 37 -30 37c-6 0 -11.333 -2.66699 -16 -8s-10.334 -16.333 -17.001 -33l-141 -405c-32 -92 -62.167 -155.333 -90.5 -190s-62.5 -52 -102.5 -52
c-28.667 0 -54.834 8.66699 -78.501 26s-45.834 44.333 -66.501 81c-12.667 22 -38.167 85.833 -76.5 191.5l-97.5 260.5z" />
    <glyph glyph-name="X" unicode="X" horiz-adv-x="1731" 
d="M596 700l-296.998 392.502c-54.667 69 -89.334 108.167 -104.001 117.5c-7.33301 4.66699 -22.666 9.5 -45.999 14.5s-41 11.167 -53 18.5c-16 10 -28.167 22.5 -36.5 37.5s-12.5 31.833 -12.5 50.5c0 56.667 35.167 97.5 105.5 122.5s186.166 37.5 347.499 37.5
c182 0 294.667 -10.833 338 -32.5s65 -64.167 65 -127.5c0 -23.333 -11.167 -45 -33.5 -65s-33.5 -33 -33.5 -39c0 -8.66699 9.33301 -25.334 28 -50.001s46 -56.667 82 -96c34 40.667 60.667 76.834 80 108.501s29 55.167 29 70.5c0 4.66699 -15.333 17.167 -46 37.5
s-46 43.833 -46 70.5c0 43.333 24.167 74.666 72.5 93.999s127.166 29 236.499 29c126 0 212.833 -9.83301 260.5 -29.5s71.5 -54.167 71.5 -103.5c0 -16 -2.16699 -30 -6.5 -42s-11.166 -23.333 -20.499 -34c-16 -16.667 -48 -26 -96 -28
c-24.667 -0.666992 -44 -2.33398 -58 -5.00098c-40 -6.66699 -125.667 -91.334 -257 -254.001l-87 -106l323 -429c83.333 -107.333 136.333 -171.333 159 -192c10.667 -10 27.834 -18.5 51.501 -25.5s38.5 -12.167 44.5 -15.5
c18.667 -8.66699 31.834 -19.334 39.501 -32.001s11.5 -30.667 11.5 -54c0 -59.333 -36.333 -101.5 -109 -126.5s-199.334 -37.5 -380.001 -37.5c-146.667 0 -249.334 10.167 -308.001 30.5s-88 54.833 -88 103.5c0 28 14.667 53.833 44 77.5s44 42.167 44 55.5
c0 14.667 -13.167 41.5 -39.5 80.5s-66.166 90.5 -119.499 154.5c-46 -57.333 -83.167 -107.666 -111.5 -150.999s-42.5 -70.666 -42.5 -81.999c0 -9.33301 15.333 -26.833 46 -52.5s46 -51.167 46 -76.5c0 -46 -24 -78.333 -72 -97s-135.333 -28 -262 -28
c-130 0 -219.5 9.66699 -268.5 29s-73.5 52.666 -73.5 99.999c0 18 4.66699 35 14 51s22 28.333 38 37c12.667 7.33301 37.667 12.833 75 16.5s64.666 9.83398 81.999 18.501c25.333 12.667 68.666 56.5 129.999 131.5s142.333 183.167 243 324.5z" />
    <glyph glyph-name="Y" unicode="Y" horiz-adv-x="1481" 
d="M1108 965c-4 -5.33301 -10.6689 -13.3359 -20.002 -24.0029c-37.333 -44.667 -61.333 -82 -72 -112c-7.33301 -20 -12.666 -44.5 -15.999 -73.5s-5 -71.833 -5 -128.5v-49c0 -95.333 3.83301 -166.833 11.5 -214.5s19.834 -77.5 36.501 -89.5
c6.66699 -4.66699 17.667 -11 33 -19c50 -25.333 75 -59.666 75 -102.999c0 -59.333 -32.167 -102.166 -96.5 -128.499s-168.833 -39.5 -313.5 -39.5c-134 0 -236.333 13.667 -307 41s-106 66.666 -106 117.999c0 22.667 5.83301 42 17.5 58s37.167 35 76.5 57
c19.333 10.667 32 19.167 38 25.5s10.333 14.166 13 23.499c4.66699 20.667 8.16699 58.334 10.5 113.001s3.5 122.334 3.5 203.001c0 42 -0.666992 74.5 -2 97.5s-4 41.167 -8 54.5c-6.66699 23.333 -28.667 58.666 -66 105.999l-20 26l-203 264
c-25.333 33.333 -59.333 56.333 -102 69c-15.333 4 -26 7.66699 -32 11c-21.333 12 -37.333 26.5 -48 43.5s-16 36.833 -16 59.5c0 54.667 28.167 92.834 84.5 114.501s161.833 32.5 316.5 32.5c155.333 0 263.166 -10.333 323.499 -31s90.5 -56 90.5 -106
c0 -26 -8.5 -50.667 -25.5 -74s-25.5 -38.333 -25.5 -45c0 -8.66699 3.83301 -21.334 11.5 -38.001s18.167 -34.667 31.5 -54c16 -24 30 -41.333 42 -52s23 -16 33 -16c16 0 37.833 20.5 65.5 61.5s41.5 73.167 41.5 96.5c0 6 -9.5 22.833 -28.5 50.5
s-28.5 53.167 -28.5 76.5c0 42 25.5 74 76.5 96s125.167 33 222.5 33c108.667 0 186 -9.66699 232 -29s69 -51.333 69 -96c0 -25.333 -6.83301 -46.166 -20.5 -62.499s-34.167 -28.166 -61.5 -35.499c-5.33301 -1.33301 -13.333 -3 -24 -5
c-33.333 -6.66699 -57.666 -16 -72.999 -28c-26.667 -20 -67 -64.333 -121 -133l-2 -3z" />
    <glyph glyph-name="Z" unicode="Z" horiz-adv-x="1354" 
d="M223 489l413.998 623.001c11.333 17.333 20 32.5 26 45.5s9 23.167 9 30.5c0 14 -7.83301 24 -23.5 30s-45.5 9 -89.5 9c-54 0 -95 -6 -123 -18s-50.333 -32.667 -67 -62c-6 -10 -13.667 -25.667 -23 -47c-32 -72.667 -77.667 -109 -137 -109
c-36.667 0 -65.667 13.167 -87 39.5s-32 61.833 -32 106.5c0 46.667 9.33301 95 28 145s44.334 95.667 77.001 137c24.667 31.333 48.334 54.166 71.001 68.499s46 21.5 70 21.5c16 0 34.333 -2.66699 55 -8s33 -8 37 -8h727c68 0 115.667 -8.16699 143 -24.5
s41 -43.833 41 -82.5c0 -45.333 -63.333 -167.333 -190 -366l-113 -178l-276 -445c-13.333 -20 -22.5 -35.667 -27.5 -47s-7.5 -21.666 -7.5 -30.999c0 -12.667 8.5 -21.834 25.5 -27.501s43.833 -8.5 80.5 -8.5c52.667 0 94.167 4.66699 124.5 14s52.5 24.333 66.5 45
c8.66699 13.333 20 34 34 62c34 69.333 74 104 120 104c39.333 0 69.5 -14.167 90.5 -42.5s31.5 -68.833 31.5 -121.5c0 -92 -22 -176.833 -66 -254.5s-88.667 -116.5 -134 -116.5c-6 0 -25.5 4.5 -58.5 13.5s-64.167 13.5 -93.5 13.5h-727
c-78 0 -133.333 9.16699 -166 27.5s-49 48.833 -49 91.5c0 29.333 60.333 134 181 314z" />
    <glyph glyph-name="bracketleft" unicode="[" horiz-adv-x="977" 
d="M137 1305c0 60 18.168 106.331 54.501 138.998s87.833 49 154.5 49h508c48 0 80.833 -8.16699 98.5 -24.5s26.5 -47.166 26.5 -92.499c0 -44.667 -8.66699 -75 -26 -91s-50 -24.333 -98 -25c-10 -0.666992 -23.333 -1 -40 -1
c-104.667 -0.666992 -157.334 -28.334 -158.001 -83.001v-1147c0.666992 -55.333 53.667 -83.333 159 -84h38c49.333 -1.33301 82.5 -10 99.5 -26s25.5 -46.333 25.5 -91c0 -47.333 -9 -78.666 -27 -93.999s-65 -23 -141 -23h-465c-66.667 0 -118.167 16.333 -154.5 49
s-54.5 79.334 -54.5 140.001v1405z" />
    <glyph glyph-name="backslash" unicode="\" horiz-adv-x="569" 
d="M375 -147l-412.001 1603c-2 9.33301 -3.5 17.166 -4.5 23.499s-1.5 10.833 -1.5 13.5c0 8.66699 3.5 15.334 10.5 20.001s17.167 7 30.5 7c80 0 132.333 -3.5 157 -10.5s39.334 -19.167 44.001 -36.5l422 -1625v-4v-10c0 -9.33301 -4.33301 -15.666 -13 -18.999
s-27.667 -5 -57 -5c-72 0 -118.333 3 -139 9s-33 17.333 -37 34z" />
    <glyph glyph-name="bracketright" unicode="]" horiz-adv-x="977" 
d="M842 -102c0 -60.667 -18.1699 -107.333 -54.5029 -140s-87.833 -49 -154.5 -49h-465c-0.666992 0 -3 0.333008 -7 1c-13.333 0.666992 -26 1 -38 1c-48 0 -80.5 8.16699 -97.5 24.5s-25.5 47.166 -25.5 92.499s8.33301 75.833 25 91.5s49.334 24.167 98.001 25.5h38
c106.667 0.666992 160.334 28.667 161.001 84v1147c-0.666992 54.667 -54 82.334 -160 83.001c-17.333 0 -30.666 0.333008 -39.999 1c-48 0.666992 -80.333 8.83398 -97 24.501s-25 46.167 -25 91.5c0 47.333 9 78.666 27 93.999s65 23 141 23h465
c66.667 0 118.167 -16.333 154.5 -49s54.5 -79 54.5 -139v-1407z" />
    <glyph glyph-name="asciicircum" unicode="^" horiz-adv-x="2048" 
d="M879 1462h288l465 -565h-131l-479 315l-477 -315h-133z" />
    <glyph glyph-name="underscore" unicode="_" 
d="M0 -201h1024v-282h-1024v282z" />
    <glyph glyph-name="grave" unicode="`" 
d="M599 1212l-377.999 91.001c-28.667 6.66699 -47.667 14.167 -57 22.5s-14 21.166 -14 38.499c0 40.667 8.66699 78.167 26 112.5s35.666 51.5 54.999 51.5c14.667 0 35 -4.33301 61 -13l10 -4l343 -122c46 -16.667 74.667 -29.667 86 -39s17 -21 17 -35
c0 -34 -7.33301 -61.333 -22 -82s-34 -31 -58 -31c-9.33301 0 -19.833 0.833008 -31.5 2.5s-24.167 4.16699 -37.5 7.5z" />
    <glyph glyph-name="a" unicode="a" horiz-adv-x="1245" 
d="M635 426c0 23.333 -2.83398 38 -8.50098 44s-20.5 9 -44.5 9c-33.333 0 -59.166 -11.333 -77.499 -34s-27.5 -55 -27.5 -97c0 -39.333 7 -69.333 21 -90s34.333 -31 61 -31c29.333 0 49.333 11.333 60 34s16 77.667 16 165zM635.999 633
c0.666992 4 1.33398 9.66699 2.00098 17c2 39.333 3 67.666 3 84.999c0 68 -7 116.833 -21 146.5s-37 44.5 -69 44.5c-35.333 0 -75.666 -28.667 -120.999 -86l-18 -22c-31.333 -38 -61.166 -65.333 -89.499 -82s-58.833 -25 -91.5 -25c-36 0 -66.167 12.5 -90.5 37.5
s-36.5 56.833 -36.5 95.5c0 74.667 48.5 137.667 145.5 189s219.167 77 366.5 77c163.333 0 287.166 -31.167 371.499 -93.5s126.5 -153.5 126.5 -273.5c0 -31.333 -1 -73.5 -3 -126.5s-3 -89.833 -3 -110.5v-31c0 -84 3.66699 -135.667 11 -155s24 -32.333 50 -39
c20 -5.33301 35.333 -14.166 46 -26.499s16 -27.5 16 -45.5c0 -56 -34.833 -109 -104.5 -159s-149.5 -75 -239.5 -75c-31.333 0 -57.333 3.5 -78 10.5s-39 17.833 -55 32.5l-34 35c-22 24.667 -38 37 -48 37c-9.33301 0 -22 -6.33301 -38 -19
c-6.66699 -5.33301 -12 -9.33301 -16 -12c-39.333 -28 -76.333 -47.5 -111 -58.5s-75.334 -16.5 -122.001 -16.5c-109.333 0 -197 29.5 -263 88.5s-99 136.5 -99 232.5c0 98 43.167 180.167 129.5 246.5s193.166 99.5 320.499 99.5c21.333 0 45.5 -1.5 72.5 -4.5
s57.167 -7.5 90.5 -13.5z" />
    <glyph glyph-name="b" unicode="b" horiz-adv-x="1405" 
d="M637 424c0 -86.667 6.50098 -145.833 19.501 -177.5s35.833 -47.5 68.5 -47.5c39.333 0 70.666 23.333 93.999 70s35 110 35 190c0 92.667 -12.833 165 -38.5 217s-61.167 78 -106.5 78c-24 0 -42 -8.5 -54 -25.5s-18 -42.167 -18 -75.5v-229zM633.001 967.001
c42 46.667 89.501 82.167 142.501 106.5s109.833 36.5 170.5 36.5c118 0 215.833 -44.667 293.5 -134s116.5 -203 116.5 -341c0 -80.667 -14 -160 -42 -238s-66 -144.667 -114 -200c-64 -73.333 -137.333 -129 -220 -167s-171.667 -57 -267 -57
c-75.333 0 -144.666 11.667 -207.999 35s-123 59 -179 107c-26.667 -11.333 -51.334 -19.666 -74.001 -24.999s-43.334 -8 -62.001 -8c-26 0 -45.667 5 -59 15s-20 24.667 -20 44c0 3.33301 4 18.166 12 44.499s13.333 51.833 16 76.5c4.66699 33.333 8 82.333 10 147
s3 194 3 388c0 117.333 -2.33301 200.166 -7 248.499s-12 73.833 -22 76.5c-9.33301 3.33301 -23 7 -41 11c-66.667 14.667 -100 45.334 -100 92.001c0 29.333 12 56.333 36 81s63.667 50 119 76c66 30.667 134.833 54.5 206.5 71.5s139.5 25.5 203.5 25.5
c34.667 0 57.667 -3.5 69 -10.5s17 -27.5 17 -61.5v-440z" />
    <glyph glyph-name="c" unicode="c" horiz-adv-x="1169" 
d="M47 539c0 65.333 9.33105 125.833 27.998 181.5s47 106.167 85 151.5c62.667 76.667 138.5 135.167 227.5 175.5s186.5 60.5 292.5 60.5c137.333 0 248.833 -29.5 334.5 -88.5s128.5 -134.5 128.5 -226.5c0 -62 -20.667 -114.167 -62 -156.5
s-91.666 -63.5 -150.999 -63.5c-35.333 0 -66.833 7.66699 -94.5 23s-51.5 38 -71.5 68c-7.33301 10.667 -16.333 27.667 -27 51c-24.667 57.333 -58 86 -100 86c-33.333 0 -60.5 -13.333 -81.5 -40s-31.5 -61.334 -31.5 -104.001c0 -74.667 26.333 -140.667 79 -198
s113 -86 181 -86c40 0 87.333 10.833 142 32.5s91.334 32.5 110.001 32.5c29.333 0 54.5 -12.333 75.5 -37s31.5 -54.667 31.5 -90c0 -44.667 -15.167 -88.167 -45.5 -130.5s-72.5 -79.166 -126.5 -110.499c-54.667 -31.333 -111.667 -55.333 -171 -72
s-118.333 -25 -177 -25c-76.667 0 -149.5 13.667 -218.5 41s-130.167 66.333 -183.5 117c-58 56 -101.5 118 -130.5 186s-43.5 142 -43.5 222z" />
    <glyph glyph-name="d" unicode="d" horiz-adv-x="1430" 
d="M37 551c0 84.667 14.998 163.006 44.998 235.006s74.333 135.667 133 191c47.333 44 100.333 77.833 159 101.5s119 35.5 181 35.5c76 0 150.667 -17.667 224 -53c12 -5.33301 19.333 -8 22 -8s4.66699 2.33301 6 7s2 16.667 2 36v43c0 24.667 -0.833008 40.5 -2.5 47.5
s-4.16699 11.5 -7.5 13.5c-10 5.33301 -26 11.666 -48 18.999c-50 17.333 -75 42.333 -75 75c0 28.667 11 52.5 33 71.5s60 36.833 114 53.5c69.333 21.333 141.833 38.333 217.5 51s141.834 19 198.501 19c23.333 0 38.333 -4.5 45 -13.5s10 -32.5 10 -70.5v-33
c0 -10.667 -0.333008 -40.334 -1 -89.001c-4.66699 -249.333 -7 -495.333 -7 -738v-60c0 -74 1.83301 -124.167 5.5 -150.5s9.83398 -43.5 18.501 -51.5c6 -4.66699 28.5 -14.834 67.5 -30.501s58.5 -39.167 58.5 -70.5c0 -22 -7.33301 -43 -22 -63s-34.667 -36.333 -60 -49
c-60 -30 -123.667 -53.667 -191 -71s-129.333 -26 -186 -26c-57.333 0 -96 4.66699 -116 14s-30 26.666 -30 51.999v45c0 9.33301 -1.33301 17.166 -4 23.499s-6 9.5 -10 9.5c-4.66699 0 -15.334 -6.66699 -32.001 -20c-10 -8 -18.333 -14.333 -25 -19
c-42.667 -31.333 -82.334 -53.5 -119.001 -66.5s-76.334 -19.5 -119.001 -19.5c-61.333 0 -120.166 13 -176.499 39s-108.166 64 -155.499 114c-51.333 54.667 -89.666 115.667 -114.999 183s-38 141.666 -38 222.999zM554.998 545.006
c0 -80 11.832 -143.332 35.499 -189.999s54.834 -70 93.501 -70c45.333 0 77.5 27.167 96.5 81.5s28.5 151.166 28.5 290.499v56c0 62.667 -6.5 103.167 -19.5 121.5s-35.833 27.5 -68.5 27.5c-52.667 0 -93.5 -27.833 -122.5 -83.5s-43.5 -133.5 -43.5 -233.5z" />
    <glyph glyph-name="e" unicode="e" horiz-adv-x="1169" 
d="M1030 500l-463 0.000976562c-25.333 0 -42.166 -2.16699 -50.499 -6.5s-12.5 -11.833 -12.5 -22.5c0 -50.667 25.833 -97.5 77.5 -140.5s111.167 -64.5 178.5 -64.5c50 0 103.667 15 161 45s91.666 45 102.999 45c24.667 0 45.167 -10 61.5 -30s24.5 -45.333 24.5 -76
c0 -27.333 -11.333 -56.5 -34 -87.5s-54.334 -59.833 -95.001 -86.5c-53.333 -35.333 -110.166 -62 -170.499 -80s-123.5 -27 -189.5 -27c-166 0 -303.5 53.667 -412.5 161s-163.5 241.333 -163.5 402c0 58.667 9 116.167 27 172.5s44.667 108.833 80 157.5
c54.667 77.333 124.167 137.666 208.5 180.999s174.5 65 270.5 65c149.333 0 272.333 -42.833 369 -128.5s145 -193.167 145 -322.5c0 -56 -8.83301 -96.167 -26.5 -120.5s-47.167 -36.5 -88.5 -36.5zM600 705.001l21.002 -0.000976562c61.333 0 98.166 4 110.499 12
s18.5 27.667 18.5 59c0 38.667 -11.167 70.167 -33.5 94.5s-50.833 36.5 -85.5 36.5c-36 0 -67.167 -14.167 -93.5 -42.5s-39.5 -62.5 -39.5 -102.5c0 -23.333 4.16699 -38.666 12.5 -45.999s29.166 -11 62.499 -11h27z" />
    <glyph glyph-name="f" unicode="f" horiz-adv-x="936" 
d="M459 -27c-123.333 0 -217.334 13.001 -282.001 39.001s-97 63.667 -97 113c0 34 25.667 68 77 102l7 4c0.666992 0.666992 2 1.66699 4 3c24.667 15.333 39.667 30.666 45 45.999c6.66699 21.333 12.167 57.5 16.5 108.5s6.5 108.5 6.5 172.5
c-0.666992 44.667 -19 68.334 -55 71.001c-12 1.33301 -21.333 2.33301 -28 3c-6 0.666992 -14.667 1.33398 -26 2.00098c-44 4 -66 25 -66 63c0 52 2.66699 91 8 117s13 41.667 23 47c11.333 6.66699 28.833 11 52.5 13s35.5 6.66699 35.5 14
c0 1.33301 -14 30.166 -42 86.499s-42 111.5 -42 165.5c0 100.667 43.333 183.834 130 249.501s198.334 98.5 335.001 98.5c118 0 216.167 -26.5 294.5 -79.5s117.5 -117.167 117.5 -192.5c0 -55.333 -16.167 -98.666 -48.5 -129.999s-76.833 -47 -133.5 -47
c-33.333 0 -62 6.16699 -86 18.5s-55.333 40.833 -94 85.5l-6 7c-44 50.667 -81 76 -111 76c-20.667 0 -36.834 -6.33301 -48.501 -19s-17.5 -30.334 -17.5 -53.001c0 -18 4.16699 -34.833 12.5 -50.5s22.5 -32.834 42.5 -51.501c22.667 -21.333 52.334 -43.5 89.001 -66.5
s59.667 -38.5 69 -46.5c13.333 -11.333 24 -25.666 32 -42.999c2.66699 -5.33301 4.33398 -8 5.00098 -8c7.33301 -4.66699 17.833 -7.83398 31.5 -9.50098s34.5 -2.5 62.5 -2.5h72c25.333 0 41.166 -3.5 47.499 -10.5s9.5 -28.167 9.5 -63.5
c0 -71.333 -4.16699 -117.166 -12.5 -137.499s-32.166 -30.5 -71.499 -30.5h-33c-42.667 0 -68.667 -4.66699 -78 -14s-14 -29.333 -14 -60c0 -86.667 5.83301 -156.334 17.5 -209.001s28.5 -85.334 50.5 -98.001c10.667 -6.66699 27.667 -14.667 51 -24
c53.333 -20.667 80 -53.667 80 -99c0 -54 -35.333 -94.167 -106 -120.5s-179.334 -39.5 -326.001 -39.5z" />
    <glyph glyph-name="g" unicode="g" horiz-adv-x="1243" 
d="M332 -23c-2 -6 -3.5 -11.501 -4.5 -16.501s-1.5 -10.167 -1.5 -15.5c0 -37.333 24.333 -70.666 73 -99.999s106.667 -44 174 -44c62.667 0 111.834 9 147.501 27s53.5 42.667 53.5 74c0 18 -5.5 32 -16.5 42s-26.5 15 -46.5 15c-12 0 -37.833 -1.66699 -77.5 -5
s-73.5 -5 -101.5 -5c-38.667 0 -74.334 2.33301 -107.001 7s-63.667 11.667 -93 21zM483 783.999c0 -73.333 11 -130.499 33 -171.499s52.667 -61.5 92 -61.5c36 0 62.833 13.167 80.5 39.5s26.5 66.5 26.5 120.5c0 75.333 -10.667 132.666 -32 171.999s-52.333 59 -93 59
c-34.667 0 -61.167 -13.5 -79.5 -40.5s-27.5 -66.167 -27.5 -117.5zM221 463c-52.667 28.667 -93.168 66.835 -121.501 114.502s-42.5 100.834 -42.5 159.501c0 107.333 48.833 196 146.5 266s222.5 105 374.5 105c54 0 117.667 -8.16699 191 -24.5s119.333 -24.5 138 -24.5
c57.333 0 113.5 16.667 168.5 50s82.833 50 83.5 50c26 0 45.833 -9.16699 59.5 -27.5s20.5 -44.5 20.5 -78.5c0 -38.667 -9.33301 -74.834 -28 -108.501s-49 -68.834 -91 -105.501c2 -11.333 3.5 -23 4.5 -35s1.5 -24 1.5 -36c0 -111.333 -46.833 -201.666 -140.5 -270.999
s-216.834 -104 -369.501 -104c-26 0 -54 1.16699 -84 3.5s-61.333 5.83301 -94 10.5c-9.33301 -4.66699 -16.333 -10.834 -21 -18.501s-7 -17.167 -7 -28.5c0 -23.333 14.5 -42.666 43.5 -57.999s66.833 -23 113.5 -23c26 0 77.833 4.66699 155.5 14s142.834 14 195.501 14
c103.333 0 182 -22.833 236 -68.5s81 -112.167 81 -199.5c0 -127.333 -62.333 -231.5 -187 -312.5s-287.667 -121.5 -489 -121.5c-158.667 0 -289.5 29.167 -392.5 87.5s-154.5 130.166 -154.5 215.499c0 38.667 11.333 71 34 97s57.334 45.333 104.001 58
c-44 23.333 -76.667 50.5 -98 81.5s-32 66.833 -32 107.5c0 47.333 17 88.666 51 123.999s84 64.333 150 87z" />
    <glyph glyph-name="h" unicode="h" horiz-adv-x="1507" 
d="M647 1366v-399.004c0 -18 1.33301 -30 4 -36s7.66699 -9 15 -9c6.66699 0 18.334 11 35.001 33c13.333 18 24.666 32 33.999 42c34.667 37.333 75.167 65.166 121.5 83.499s98.166 27.5 155.499 27.5c72 0 136.333 -17.167 193 -51.5s97.334 -81.5 122.001 -141.5
c26.667 -63.333 41.667 -195.333 45 -396c0.666992 -53.333 1.33398 -94.333 2.00098 -123c0 -6 0.333008 -14.667 1 -26c1.33301 -74 10 -121 26 -141c4.66699 -5.33301 13 -13 25 -23c34 -28.667 51 -59 51 -91c0 -46 -26 -79 -78 -99s-138.667 -30 -260 -30
c-116.667 0 -202.5 11 -257.5 33s-82.5 56 -82.5 102c0 18.667 8.33301 39.834 25 63.501s26.667 38.834 30 45.501c8.66699 17.333 15 39.5 19 66.5s6 69.5 6 127.5v115c0 78 -11 134 -33 168s-57.667 51 -107 51c-32.667 0 -57.167 -9.16699 -73.5 -27.5
s-24.5 -45.5 -24.5 -81.5c0 -106 1.16699 -190.333 3.5 -253s5.83301 -107 10.5 -133c2.66699 -11.333 15.334 -31.833 38.001 -61.5s34 -56.5 34 -80.5c0 -47.333 -27.333 -81.666 -82 -102.999s-142 -32 -262 -32c-108.667 0 -195.834 13.167 -261.501 39.5
s-98.5 60.833 -98.5 103.5c0 34 18.667 63.667 56 89c15.333 10.667 26 19.334 32 26.001c15.333 20 26.333 55 33 105s10 139.667 10 269v166c0 127.333 -3 219.333 -9 276s-16 90.334 -30 101.001c-7.33301 6 -19.333 13.667 -36 23c-42 23.333 -63 56 -63 98
c0 24.667 7.66699 45.167 23 61.5s46.666 35.5 93.999 57.5c65.333 30 136.833 53.5 214.5 70.5s152.167 25.5 223.5 25.5c29.333 0 49.333 -6.66699 60 -20s16 -46.333 16 -99v-12z" />
    <glyph glyph-name="i" unicode="i" horiz-adv-x="829" 
d="M678 979l0.000976562 -635c0 -26.667 2.5 -46.667 7.5 -60s16.5 -28 34.5 -44c3.33301 -2.66699 8.33301 -7 15 -13c37.333 -30.667 56 -62 56 -94c0 -50 -30 -87.667 -90 -113s-149.667 -38 -269 -38c-121.333 0 -214.833 13.5 -280.5 40.5s-98.5 65.167 -98.5 114.5
c0 34 20.667 66.667 62 98h1c3.33301 2.66699 7.33301 5.66699 12 9c19.333 15.333 30.666 29 33.999 41c5.33301 16 9 43.333 11 82s3 101.334 3 188.001v45c0 66 -4 111 -12 135s-23.333 43.333 -46 58c-2 1.33301 -6 3.66602 -12 6.99902c-40.667 24 -61 53.667 -61 89
c0 27.333 10 50.333 30 69s56.333 38 109 58c74.667 28.667 152.167 51.5 232.5 68.5s144.833 25.5 193.5 25.5c27.333 0 45.5 -4 54.5 -12s13.5 -27.333 13.5 -58v-61zM285.001 1159c-72.667 0 -127.833 13.168 -165.5 39.501s-56.5 65.166 -56.5 116.499
c0 54 34.667 100.167 104 138.5s155 57.5 257 57.5c76 0 134.667 -12.333 176 -37s62 -60 62 -106c0 -58.667 -35.833 -108.167 -107.5 -148.5s-161.5 -60.5 -269.5 -60.5z" />
    <glyph glyph-name="j" unicode="j" horiz-adv-x="834" 
d="M301 1155c-72.667 0 -127.667 13.168 -165 39.501s-56 65.166 -56 116.499c0 53.333 34.5 99.333 103.5 138s154.5 58 256.5 58c76.667 0 135.5 -12.333 176.5 -37s61.5 -60 61.5 -106c0 -58.667 -35.833 -108.167 -107.5 -148.5s-161.5 -60.5 -269.5 -60.5z
M186 -5.99902l-0.000976562 688.001c0 34.667 -3.66699 58 -11 70s-22.666 23.333 -45.999 34c-28.667 13.333 -47.834 27.166 -57.501 41.499s-14.5 34.166 -14.5 59.499c0 26 10.333 49.5 31 70.5s53.334 41.167 98.001 60.5c66.667 28.667 135.167 50.5 205.5 65.5
s140.5 22.5 210.5 22.5c32 0 53.333 -3.83301 64 -11.5s16 -24.5 16 -50.5v-1050c0 -131.333 -32 -229.333 -96 -294s-161 -97 -291 -97c-78 0 -144 17.333 -198 52s-81 75.334 -81 122.001c0 19.333 5.5 36 16.5 50s24.167 21 39.5 21c8 0 19.667 -1 35 -3s26 -3 32 -3
c20 0 35 4.5 45 13.5s15 22.5 15 40.5c0 2 -2.16699 13.833 -6.5 35.5s-6.5 42.5 -6.5 62.5z" />
    <glyph glyph-name="k" unicode="k" horiz-adv-x="1536" 
d="M629 1362v-533c0 -12.667 2.5 -22.167 7.5 -28.5s12.5 -9.5 22.5 -9.5c34.667 0 73.5 13.667 116.5 41s64.5 51 64.5 71c0 4.66699 -7.83301 16.334 -23.5 35.001s-23.5 36.334 -23.5 53.001c0 35.333 23.167 61.666 69.5 78.999s116.5 26 210.5 26
c110.667 0 192 -10.5 244 -31.5s78 -53.5 78 -97.5c0 -38.667 -22.667 -62.334 -68 -71.001c-16 -3.33301 -29 -6.33301 -39 -9c-45.333 -12.667 -89.666 -36 -132.999 -70s-65 -61.333 -65 -82c0 -22.667 29.667 -75.167 89 -157.5s142 -185.5 248 -309.5
c13.333 -15.333 33.666 -33 60.999 -53c45.333 -33.333 68 -70.333 68 -111c0 -44.667 -18.667 -75.167 -56 -91.5s-134 -24.5 -290 -24.5h-110c-74 0 -136.667 36.333 -188 109l-7 10l-186 266c-1.33301 1.33301 -3.33301 4 -6 8c-16.667 24.667 -31 37 -43 37
c-8.66699 0 -15.667 -3.66699 -21 -11s-8 -17.333 -8 -30c0 -0.666992 0.333008 -5.33398 1 -14.001s1 -17 1 -25c0 -28.667 2 -53.167 6 -73.5s9 -32.833 15 -37.5l16 -13c36.667 -29.333 55 -59.666 55 -90.999c0 -48 -28 -83.5 -84 -106.5s-142 -34.5 -258 -34.5
c-122 0 -213.5 11.667 -274.5 35s-91.5 58.666 -91.5 105.999c0 28 18 53.333 54 76c19.333 12 32.666 22 39.999 30c12.667 16 21.667 51.833 27 107.5s8 157.167 8 304.5v317c0 80 -2.5 132.667 -7.5 158s-13.833 42 -26.5 50c-11.333 6 -29.333 13 -54 21
c-52 16.667 -78 42.334 -78 77.001c0 25.333 12.833 48.833 38.5 70.5s67.5 44.5 125.5 68.5c67.333 28 136.333 50 207 66s133.334 24 188.001 24c31.333 0 52.5 -7.33301 63.5 -22s16.5 -51 16.5 -109z" />
    <glyph glyph-name="l" unicode="l" horiz-adv-x="825" 
d="M29 127c0 40.667 22.999 71.3379 68.999 92.0049c16.667 7.33301 28.334 13.666 35.001 18.999c18 13.333 30.333 51.5 37 114.5s10 200.833 10 413.5v84c0 98.667 -3.16699 163.5 -9.5 194.5s-17.5 54.167 -33.5 69.5c-9.33301 9.33301 -34.166 23.666 -74.499 42.999
s-60.5 47.333 -60.5 84c0 28 7.5 52.167 22.5 72.5s41.5 41.166 79.5 62.499c63.333 35.333 137.666 63.666 222.999 84.999s168 32 248 32c40.667 0 68 -5.83301 82 -17.5s21 -35.834 21 -72.501c0 -4.66699 -0.333008 -20.667 -1 -48
c-4.66699 -213.333 -7 -439.666 -7 -678.999c0 -138 3.66699 -239.333 11 -304s19.333 -105.334 36 -122.001c5.33301 -6 16 -14.333 32 -25c40 -26.667 60 -58 60 -94c0 -49.333 -33.833 -86.833 -101.5 -112.5s-166.834 -38.5 -297.501 -38.5
c-129.333 0 -225.166 12 -287.499 36s-93.5 61 -93.5 111z" />
    <glyph glyph-name="m" unicode="m" horiz-adv-x="2034" 
d="M1905 303c0 -30 11.5029 -61.4951 34.5029 -94.4951s34.5 -58.833 34.5 -77.5c0 -49.333 -25 -85.833 -75 -109.5s-127.333 -35.5 -232 -35.5c-101.333 0 -177.166 11.167 -227.499 33.5s-75.5 56.166 -75.5 101.499c0 23.333 9 51 27 83l12 21
c8.66699 18 14.834 49.5 18.501 94.5s5.5 117.5 5.5 217.5c0 85.333 -6.66699 144.833 -20 178.5s-36 50.5 -68 50.5s-55.333 -14.833 -70 -44.5s-22 -77.5 -22 -143.5c0 -88.667 1.66699 -159.334 5 -212.001s8.66602 -90.334 15.999 -113.001
c0.666992 -2.66699 4 -9 10 -19c20.667 -34.667 31 -69 31 -103c0 -52 -23.5 -89.167 -70.5 -111.5s-124.5 -33.5 -232.5 -33.5s-184.5 10.167 -229.5 30.5s-67.5 54.5 -67.5 102.5c0 27.333 13 59.666 39 96.999c7.33301 10.667 12.666 18.667 15.999 24
c8 12.667 13.667 33.167 17 61.5s5 88.166 5 179.499c0 112 -7 187.5 -21 226.5s-39 58.5 -75 58.5c-28.667 0 -48.5 -15.833 -59.5 -47.5s-16.5 -101.834 -16.5 -210.501v-172c0 -40 6.5 -81 19.5 -123s19.5 -68 19.5 -78c0 -51.333 -23.333 -89 -70 -113
s-121 -36 -223 -36c-109.333 0 -188.833 11.333 -238.5 34s-74.5 59 -74.5 109c0 26.667 15.333 53 46 79l28 25c12 13.333 20.5 39.5 25.5 78.5s7.5 116.833 7.5 233.5c0 88 -2.5 147.667 -7.5 179s-13.5 53.666 -25.5 66.999l-23 22c-31.333 28.667 -47 56 -47 82
c0 32 12.5 58.667 37.5 80s71.833 44.333 140.5 69c54.667 20.667 109.667 36.834 165 48.501s101.333 17.5 138 17.5c21.333 0 37.166 -3.16699 47.499 -9.5s17.833 -17.5 22.5 -33.5c5.33301 -17.333 9 -46.166 11 -86.499s11.333 -60.5 28 -60.5
c10.667 0 23.167 10.667 37.5 32s25.833 36.666 34.5 45.999c35.333 36.667 75.666 64.5 120.999 83.5s95.666 28.5 150.999 28.5c44 0 83.167 -7.33301 117.5 -22s63.5 -36.667 87.5 -66c10.667 -13.333 23.334 -32.333 38.001 -57s26 -37 34 -37s20.667 10.333 38 31
s31.666 36.334 42.999 47.001c44 39.333 84 66.5 120 81.5s78 22.5 126 22.5c104.667 0 183.5 -29.333 236.5 -88s79.5 -146 79.5 -262v-457z" />
    <glyph glyph-name="n" unicode="n" horiz-adv-x="1511" 
d="M61 127c0 30.667 12.999 56.333 38.999 77l39 31c8 13.333 13.5 47.5 16.5 102.5s4.5 160.167 4.5 315.5v33c0 34 -2.33301 55.833 -7 65.5s-20.334 23.5 -47.001 41.5c-22.667 14.667 -38.834 29 -48.501 43s-14.5 29.667 -14.5 47c0 24.667 10.333 47.667 31 69
s51.334 40.666 92.001 57.999c78 34 154.333 60.833 229 80.5s133.334 29.5 176.001 29.5c28.667 0 49.834 -7.66699 63.501 -23s20.5 -39 20.5 -71c0 -36 2 -59.333 6 -70s11 -16 21 -16c8 0 17.667 9 29 27c8 13.333 15.333 24 22 32c28 36 62.833 63.167 104.5 81.5
s89.5 27.5 143.5 27.5c70 0 134.167 -12.167 192.5 -36.5s104.166 -57.833 137.499 -100.5c27.333 -36 47.166 -78.5 59.499 -127.5s18.5 -114.5 18.5 -196.5c0 -59.333 -1.16699 -123.166 -3.5 -191.499s-3.5 -106.833 -3.5 -115.5c0 -31.333 2.83301 -54.666 8.5 -69.999
s17.834 -33 36.501 -53c2.66699 -2 6.33398 -5.33301 11.001 -10c27.333 -26 41 -51.333 41 -76c0 -53.333 -29.333 -91.166 -88 -113.499s-161.334 -33.5 -308.001 -33.5c-95.333 0 -167.166 10.5 -215.499 31.5s-72.5 52.833 -72.5 95.5c0 22.667 10.333 44.667 31 66
c8.66699 9.33301 14.667 16.666 18 21.999c13.333 20.667 22.833 50.667 28.5 90s8.5 117.666 8.5 234.999c0 84.667 -10.167 146.167 -30.5 184.5s-52.5 57.5 -96.5 57.5c-36 0 -61.5 -14.167 -76.5 -42.5s-22.5 -79.166 -22.5 -152.499c0 -110 2 -189.667 6 -239
s10.333 -82 19 -98c2 -4 6.66699 -10.333 14 -19c23.333 -29.333 35 -59.333 35 -90c0 -50.667 -28.5 -86.834 -85.5 -108.501s-152.833 -32.5 -287.5 -32.5c-93.333 0 -165.833 12.667 -217.5 38s-77.5 60.333 -77.5 105z" />
    <glyph glyph-name="o" unicode="o" horiz-adv-x="1309" 
d="M526 674c0 -43.333 4.83203 -91.501 14.499 -144.501s22.834 -103.833 39.501 -152.5c16 -48.667 34.167 -85.167 54.5 -109.5s42.833 -36.5 67.5 -36.5c28 0 50.167 12.333 66.5 37s24.5 58.334 24.5 101.001c0 128.667 -18.167 239.667 -54.5 333
s-77.833 140 -124.5 140c-29.333 0 -51.333 -14 -66 -42s-22 -70 -22 -126zM36.999 521.999c0 85.333 17.1689 164.002 51.502 236.002s85.5 136 153.5 192c61.333 51.333 130.666 90.5 207.999 117.5s158.666 40.5 243.999 40.5c172.667 0 312.5 -49.333 419.5 -148
s160.5 -228.334 160.5 -389.001c0 -80.667 -15.5 -157.167 -46.5 -229.5s-75.5 -136.166 -133.5 -191.499c-63.333 -59.333 -134.5 -104 -213.5 -134s-164.833 -45 -257.5 -45c-80.667 0 -154.667 12.5 -222 37.5s-127.333 62.5 -180 112.5
c-59.333 55.333 -104.833 117.666 -136.5 186.999s-47.5 140.666 -47.5 213.999z" />
    <glyph glyph-name="p" unicode="p" horiz-adv-x="1466" 
d="M676 12c0 -41.333 4.33301 -71.5 13 -90.5s27 -35.833 55 -50.5c6 -3.33301 15 -8 27 -14c59.333 -30 89 -65.667 89 -107c0 -50 -35 -87.333 -105 -112s-176.333 -37 -319 -37c-120.667 0 -214.334 12.667 -281.001 38s-100 61 -100 107c0 39.333 25.333 75.333 76 108
c16.667 10.667 29 19 37 25c15.333 11.333 26 42.333 32 93s9 159.667 9 327c0 122 -2.83301 218.5 -8.5 289.5s-13.834 112.5 -24.501 124.5c-8.66699 10 -24.5 17.833 -47.5 23.5s-38.167 10.834 -45.5 15.501c-18 12 -30.833 24.167 -38.5 36.5s-11.5 27.5 -11.5 45.5
c0 24 12.833 49.333 38.5 76s61.167 51 106.5 73c76 38 152.667 68 230 90s142 33 194 33c22.667 0 37.834 -4.33301 45.501 -13s11.5 -26.334 11.5 -53.001c0 -24.667 2 -42 6 -52s10.333 -15 19 -15c10 0 26 10 48 30c11.333 10.667 20.666 19 27.999 25
c28.667 24.667 62.167 43.5 100.5 56.5s79.833 19.5 124.5 19.5c130.667 0 236 -48.333 316 -145s120 -225.334 120 -386.001c0 -84 -11.167 -160.667 -33.5 -230s-56.166 -131.666 -101.499 -186.999c-46.667 -58 -99.667 -102.333 -159 -133s-121.666 -46 -186.999 -46
c-52 0 -106 13.333 -162 40s-85.333 40 -88 40c-4.66699 0 -8.16699 -3.5 -10.5 -10.5s-3.5 -18.5 -3.5 -34.5zM770 793c-30.667 0 -52.5 -5.49902 -65.5 -16.499s-21.833 -32.167 -26.5 -63.5c-5.33301 -46.667 -9.33301 -96.5 -12 -149.5s-4 -107.833 -4 -164.5
c0 -52.667 7.5 -88.667 22.5 -108s42.833 -29 83.5 -29c50.667 0 89 19.667 115 59s39 97.666 39 174.999c0 86 -14.833 157 -44.5 213s-65.5 84 -107.5 84z" />
    <glyph glyph-name="q" unicode="q" horiz-adv-x="1427" 
d="M563 608c0 -104.667 14 -186.499 42 -245.499s66.667 -88.5 116 -88.5c29.333 0 49.333 12.167 60 36.5s16 83.166 16 176.499v74c0 118 -8 197.667 -24 239s-43.667 62 -83 62c-41.333 0 -72.833 -21.5 -94.5 -64.5s-32.5 -106.167 -32.5 -189.5zM1286 229.001
c0 -132.667 3.33398 -220.498 10.001 -263.498s18.334 -71.833 35.001 -86.5c8.66699 -7.33301 21.667 -16.666 39 -27.999c48 -32 72 -67 72 -105c0 -47.333 -33.667 -83.333 -101 -108s-164.666 -37 -291.999 -37c-152 0 -264.167 12.167 -336.5 36.5
s-108.5 61.833 -108.5 112.5c0 22.667 5 41.167 15 55.5s30 29.166 60 44.499l19 10c62 30.667 93 85.667 93 165c0 10.667 -2.5 18.667 -7.5 24s-12.167 8 -21.5 8c-5.33301 0 -17 -5.66699 -35 -17c-70 -44.667 -141.667 -67 -215 -67c-132 0 -243.5 53.5 -334.5 160.5
s-136.5 239.833 -136.5 398.5c0 177.333 54 317.666 162 420.999s255.333 155 442 155c65.333 0 136.666 -7.5 213.999 -22.5s122 -22.5 134 -22.5c19.333 0 54.666 8.5 105.999 25.5s92.666 25.5 123.999 25.5c32 0 55 -7.66699 69 -23s21 -41 21 -77
c0 -6.66699 -1.33301 -29.334 -4 -68.001c-15.333 -233.333 -23 -472.333 -23 -717z" />
    <glyph glyph-name="r" unicode="r" horiz-adv-x="1165" 
d="M41 147c0 40 20.998 74.6689 62.998 104.002c6 4 10.333 7 13 9c12.667 9.33301 21.834 17.333 27.501 24s9.5 14 11.5 22c5.33301 19.333 9.66602 62.166 12.999 128.499s5 144.166 5 233.499v32c0 29.333 -2.33301 48.333 -7 57s-16 17.667 -34 27
c-32 18 -54.333 34.5 -67 49.5s-19 32.167 -19 51.5c0 20.667 9.16699 41 27.5 61s44.833 38.333 79.5 55c62.667 30.667 132.334 55.167 209.001 73.5s148.334 27.5 215.001 27.5c23.333 0 41 -4 53 -12s19.333 -21 22 -39c2 -13.333 4 -31 6 -53
c2.66699 -36 10.334 -54 23.001 -54c11.333 0 21 11 29 33c6 15.333 11.333 27 16 35c19.333 30 44.166 52.5 74.499 67.5s66.166 22.5 107.499 22.5c82.667 0 149.834 -24.5 201.501 -73.5s77.5 -112.5 77.5 -190.5c0 -79.333 -23.5 -144.666 -70.5 -195.999
s-106.833 -77 -179.5 -77c-36.667 0 -71 7.33301 -103 22s-58.333 34.667 -79 60c-7.33301 8.66699 -15.5 23.5 -24.5 44.5s-19.5 31.5 -31.5 31.5c-14 0 -23.833 -16 -29.5 -48s-8.5 -93 -8.5 -183c0 -96.667 4.66699 -158.834 14 -186.501s27.333 -48.5 54 -62.5
c4 -2 10.333 -5 19 -9c56.667 -28 85 -63 85 -105c0 -52 -29.833 -89.167 -89.5 -111.5s-160.5 -33.5 -302.5 -33.5c-132.667 0 -232.667 13.667 -300 41s-101 68 -101 122z" />
    <glyph glyph-name="s" unicode="s" horiz-adv-x="1012" 
d="M979 334c0 -105.333 -40.335 -191.5 -121.002 -258.5s-185.667 -100.5 -315 -100.5c-48 0 -96.833 6.16699 -146.5 18.5s-76.167 18.5 -79.5 18.5c-10 0 -25.667 -4 -47 -12s-37.666 -12 -48.999 -12c-41.333 0 -84.666 31.5 -129.999 94.5s-68 128.5 -68 196.5
c0 41.333 7.33301 72.333 22 93s36.667 31 66 31c38.667 0 81.667 -25 129 -75c6 -6.66699 10.667 -11.667 14 -15c32.667 -34 62.334 -59.5 89.001 -76.5s51 -25.5 73 -25.5c15.333 0 28.333 4.5 39 13.5s16 19.5 16 31.5c0 35.333 -33.667 68 -101 98
c-23.333 10 -41.666 18.333 -54.999 25c-87.333 43.333 -153.833 96 -199.5 158s-68.5 130 -68.5 204c0 98.667 41.167 183.5 123.5 254.5s181.166 106.5 296.499 106.5c28 0 62.167 -4.5 102.5 -13.5s66.166 -13.5 77.499 -13.5c14.667 0 34.5 5.5 59.5 16.5
s42.833 16.5 53.5 16.5c42 0 85.5 -29.667 130.5 -89s67.5 -119.666 67.5 -180.999c0 -36 -10.833 -64.833 -32.5 -86.5s-50.167 -32.5 -85.5 -32.5c-20 0 -39 3.83301 -57 11.5s-36.667 20.167 -56 37.5l-39 38c-44 45.333 -82.333 68 -115 68
c-16.667 0 -31 -5.33301 -43 -16s-18 -23.667 -18 -39c0 -28.667 40.667 -62.334 122 -101.001c24.667 -11.333 44 -20.666 58 -27.999c104.667 -52.667 178.667 -106.334 222 -161.001s65 -119.667 65 -195z" />
    <glyph glyph-name="t" unicode="t" horiz-adv-x="981" 
d="M172 852c-6.66699 0 -16 0.333984 -28 1.00098c-90 2 -135.333 31.667 -136 89c0 44.667 28.667 86.334 86 125.001c15.333 10 27.666 18.333 36.999 25l6 4c228.667 159.333 375.667 239 441 239c38.667 0 64.334 -8.33301 77.001 -25s19 -61.334 19 -134.001v-95h227
c33.333 0 53.333 -3.33301 60 -10s10 -22.334 10 -47.001v-90c0 -34 -4.16699 -55.833 -12.5 -65.5s-32.166 -15.167 -71.499 -16.5l-160 -6h-7c-40 -2 -60.333 -19 -61 -51v-377c0 -41.333 9 -72.166 27 -92.499s45.333 -30.5 82 -30.5c17.333 0 40.5 6.83301 69.5 20.5
s50.833 20.5 65.5 20.5c20 0 36.667 -10.833 50 -32.5s20 -49.834 20 -84.501c0 -60 -43 -116 -129 -168s-185 -78 -297 -78c-122.667 0 -215.834 32.333 -279.501 97s-95.5 158.667 -95.5 282v500z" />
    <glyph glyph-name="u" unicode="u" horiz-adv-x="1505" 
d="M147 387l0.00292969 283c0 39.333 -3.5 66.5 -10.5 81.5s-20.167 28.5 -39.5 40.5l-14 9c-38.667 24 -58 53.333 -58 88c0 27.333 9.66699 50.333 29 69s55.333 38 108 58c74 28.667 150.667 51.5 230 68.5s142.666 25.5 189.999 25.5
c27.333 0 45.666 -4.66699 54.999 -14s14 -27.333 14 -54c0 -6.66699 -4 -70.834 -12 -192.501s-12 -239.5 -12 -353.5c0 -83.333 9 -141.5 27 -174.5s48.333 -49.5 91 -49.5c52.667 0 89.167 18.5 109.5 55.5s30.5 106.167 30.5 207.5v135c0 40.667 -3.5 68.167 -10.5 82.5
s-20.167 27.833 -39.5 40.5l-11 7c-38.667 24 -58 53.667 -58 89c0 27.333 9.5 50.5 28.5 69.5s53.833 38.167 104.5 57.5c72 28 147 50.667 225 68s139.667 26 185 26c28.667 0 47 -5.33301 55 -16s12 -45.667 12 -105c0 -74 -2.33301 -180.167 -7 -318.5
s-7 -238.833 -7 -301.5c0 -50.667 15 -85.334 45 -104.001l4 -3l3 -2c37.333 -24 56 -51.333 56 -82c0 -52.667 -48.667 -97.5 -146 -134.5s-220 -55.5 -368 -55.5c-30.667 0 -49.334 2.33301 -56.001 7s-11 14.334 -13 29.001l-3 36c-2 44.667 -14.667 67 -38 67
c-13.333 0 -32 -10 -56 -30l-16 -13c-46 -35.333 -90.167 -60.166 -132.5 -74.499s-89.5 -21.5 -141.5 -21.5c-120 0 -208.833 32.5 -266.5 97.5s-86.5 165.5 -86.5 301.5z" />
    <glyph glyph-name="v" unicode="v" horiz-adv-x="1391" 
d="M705 -29c-82 0 -234.003 233.998 -456.003 701.998l-36 75l-4 8c-24 50 -50.667 81.333 -80 94c-8 3.33301 -20 8 -36 14c-55.333 20 -83 52.333 -83 97c0 50 29.833 86 89.5 108s159.5 33 299.5 33c146.667 0 245.834 -9 297.501 -27s77.5 -50 77.5 -96
c0 -31.333 -12 -58.166 -36 -80.499s-36 -40.5 -36 -54.5c0 -21.333 13 -60 39 -116l3 -6c12.667 -30 24.334 -50 35.001 -60s24 -15 40 -15c14 0 26.667 5.83301 38 17.5s24 31.834 38 60.501c15.333 33.333 27 61.666 35 84.999s12 41.333 12 54c0 8 -10.167 24 -30.5 48
s-30.5 47.667 -30.5 71c0 40.667 22.5 70.334 67.5 89.001s117.167 28 216.5 28c85.333 0 145.333 -7.83301 180 -23.5s52 -42.167 52 -79.5c0 -25.333 -5.16699 -45.166 -15.5 -59.499s-29.166 -27.833 -56.499 -40.5c-5.33301 -2.66699 -13.333 -6 -24 -10
c-39.333 -14.667 -69 -41.667 -89 -81c-4.66699 -8.66699 -18 -36.334 -40 -83.001c-75.333 -163.333 -149.333 -316.333 -222 -459l-16 -31c-88.667 -174.667 -165 -262 -229 -262z" />
    <glyph glyph-name="w" unicode="w" horiz-adv-x="2032" 
d="M678 -29c-48 0 -137.662 132.006 -268.995 396.006l-194 378c-14.667 29.333 -29.834 52 -45.501 68s-34.5 29 -56.5 39l-19 8c-53.333 22 -80 52.667 -80 92c0 45.333 35.167 81.666 105.5 108.999s164.833 41 283.5 41c106 0 183.833 -11 233.5 -33s74.5 -56 74.5 -102
c0 -16 -5.5 -33.833 -16.5 -53.5s-16.5 -32.834 -16.5 -39.501c0 -10.667 3.33301 -25 10 -43s19 -45 37 -81c18.667 -39.333 34 -66.333 46 -81s24 -22 36 -22c11.333 0 28.166 17.333 50.499 52s33.5 63 33.5 85c0 14.667 -6.33301 32.334 -19 53.001
s-28.334 37.334 -47.001 50.001c-20 14 -33.833 27.167 -41.5 39.5s-11.5 27.166 -11.5 44.499c0 43.333 30.833 75.333 92.5 96s158.5 31 290.5 31c96 0 166.167 -9.16699 210.5 -27.5s66.5 -47.5 66.5 -87.5c0 -23.333 -11 -49 -33 -77s-33 -49.333 -33 -64
c0 -12 2.83301 -27.167 8.5 -45.5s14.5 -39.5 26.5 -63.5c14.667 -30.667 28.667 -53.334 42 -68.001s26.666 -22 39.999 -22c7.33301 0 15.333 3.83301 24 11.5s17 18.167 25 31.5c30 50 50.833 88 62.5 114s17.5 46 17.5 60c0 15.333 -9.33301 36.166 -28 62.499
s-28 47.833 -28 64.5c0 38 21.667 66.333 65 85s108.666 28 195.999 28c81.333 0 139.166 -7.33301 173.499 -22s51.5 -38.667 51.5 -72c0 -21.333 -4.5 -40.333 -13.5 -57s-19.833 -27.334 -32.5 -32.001c-6.66699 -2.66699 -17 -6.33398 -31 -11.001
c-48 -16 -83 -44 -105 -84l-32 -67l-263 -528c-6 -10.667 -14 -25.667 -24 -45c-70.667 -136.667 -127.667 -205 -171 -205c-42 0 -107 76.667 -195 230l-8 14l-63 117c-42 80.667 -72 121 -90 121c-20 0 -49 -41.333 -87 -124c-20 -44 -36.667 -79.333 -50 -106
c-53.333 -106.667 -93.166 -176.334 -119.499 -209.001s-52.833 -49 -79.5 -49z" />
    <glyph glyph-name="x" unicode="x" horiz-adv-x="1352" 
d="M-14 98c0 19.333 3.00098 34.6641 9.00098 45.9971s16.667 21.333 32 30c9.33301 6 27.166 12.5 53.499 19.5s44.5 15.5 54.5 25.5c15.333 16.667 44.666 60 87.999 130l19 30l28 45c64.667 103.333 97 162 97 176c0 8 -7.16699 22.833 -21.5 44.5s-37.5 52.5 -69.5 92.5
c-25.333 32.667 -47.333 59.167 -66 79.5s-32 32.833 -40 37.5c-6 3.33301 -21.333 7 -46 11s-44 10.667 -58 20c-12.667 8 -21.667 18.167 -27 30.5s-8 28.166 -8 47.499c0 48 36.333 83.833 109 107.5s182.334 35.5 329.001 35.5c138 0 230.833 -8.16699 278.5 -24.5
s71.5 -45.166 71.5 -86.499c0 -23.333 -6.5 -46.666 -19.5 -69.999s-19.5 -36 -19.5 -38c0 -20 8.16699 -41.5 24.5 -64.5s31.5 -34.5 45.5 -34.5c10 0 25.833 13.833 47.5 41.5s32.5 49.5 32.5 65.5c0 4 -6.5 16.667 -19.5 38s-19.5 40 -19.5 56c0 36 19.5 64.5 58.5 85.5
s91.833 31.5 158.5 31.5c72.667 0 128 -9 166 -27s57 -44.667 57 -80c0 -29.333 -20.5 -56.333 -61.5 -81s-68.833 -45.334 -83.5 -62.001c-48.667 -52.667 -93.667 -112 -135 -178s-62 -104.333 -62 -115c0 -22 21.667 -67 65 -135s92.666 -128 147.999 -180
c12.667 -12.667 32.334 -24.667 59.001 -36c38.667 -17.333 58 -44.333 58 -81c0 -53.333 -32 -91.166 -96 -113.499s-173.333 -33.5 -328 -33.5c-146 0 -243.333 8.66699 -292 26s-73 48 -73 92c0 28.667 13.333 54.334 40 77.001s40 38 40 46
c0 30.667 -11.5 62.334 -34.5 95.001s-44.167 49 -63.5 49c-14.667 0 -36 -21.167 -64 -63.5s-42 -75.833 -42 -100.5c0 -6.66699 6.33301 -20 19 -40s19 -38.667 19 -56c0 -43.333 -16 -73.333 -48 -90s-95 -25 -189 -25c-86 0 -144.333 7.66699 -175 23s-46 42.333 -46 81
z" />
    <glyph glyph-name="y" unicode="y" horiz-adv-x="1352" 
d="M363 329l-157.994 342l-13 30c-24.667 58.667 -53.334 96 -86.001 112c-3.33301 2 -9.33301 5 -18 9c-50.667 24.667 -76 58.667 -76 102c0 54.667 35.167 96.667 105.5 126s172.5 44 306.5 44c126.667 0 213.667 -10 261 -30s71 -54.333 71 -103
c0 -28.667 -11.333 -53.167 -34 -73.5s-34 -34.833 -34 -43.5c0 -10.667 3.33301 -26.334 10 -47.001s17 -48.667 31 -84c14 -34.667 27.667 -58.667 41 -72s29.666 -20 48.999 -20c16.667 0 31.5 6.5 44.5 19.5s26.833 36.5 41.5 70.5c12 24.667 21.5 49 28.5 73
s10.5 40.667 10.5 50c0 16 -13.667 37.167 -41 63.5s-41 50.166 -41 71.499c0 39.333 22.5 69.666 67.5 90.999s109.167 32 192.5 32c79.333 0 138.166 -10.333 176.499 -31s57.5 -52 57.5 -94c0 -29.333 -6 -52.166 -18 -68.499s-39.667 -32.5 -83 -48.5
c-54.667 -21.333 -101 -81.666 -139 -180.999l-2 -6c-19.333 -52.667 -56.5 -167.167 -111.5 -343.5s-107.167 -309.5 -156.5 -399.5c-61.333 -110 -129.5 -190.667 -204.5 -242s-161.167 -77 -258.5 -77c-102 0 -184.167 26.5 -246.5 79.5s-93.5 121.833 -93.5 206.5
c0 56.667 18.833 105 56.5 145s82.167 60 133.5 60c37.333 0 70.166 -9 98.499 -27s50.166 -43.667 65.499 -77c9.33301 -19.333 17.666 -45.666 24.999 -78.999c10 -42 24.333 -63 43 -63c16 0 28.5 6.16699 37.5 18.5s13.5 29.5 13.5 51.5
c0 52.667 -50.333 188.667 -151 408z" />
    <glyph glyph-name="z" unicode="z" horiz-adv-x="1159" 
d="M629 0l-276.996 0.00195312c-15.333 0 -39.833 -0.666992 -73.5 -2s-59.5 -2 -77.5 -2c-46.667 0 -80.834 8 -102.501 24s-32.5 41.333 -32.5 76c0 21.333 5 44.666 15 69.999s26.667 56 50 92l219 352l30 49c52.667 85.333 79 135.333 79 150
c0 12.667 -4.66699 21.667 -14 27s-26 8 -50 8c-36.667 0 -65 -6.16699 -85 -18.5s-40 -39.5 -60 -81.5l-5 -10c-22.667 -46.667 -55.334 -70 -98.001 -70c-29.333 0 -54.666 12 -75.999 36s-32 52.667 -32 86c0 34 5.66699 70.5 17 109.5s27.333 76.5 48 112.5
c20 35.333 40.167 60.833 60.5 76.5s43.166 23.5 68.499 23.5c1.33301 0 6 -1 14 -3c62 -16 136.667 -24 224 -24h223c72.667 0 146 0.666992 220 2h28c48 0 83.5 -7.16699 106.5 -21.5s34.5 -36.5 34.5 -66.5c0 -16.667 -6.33301 -40.5 -19 -71.5
s-31.334 -69.167 -56.001 -114.5l-240 -426c-14.667 -26.667 -24.834 -47.334 -30.501 -62.001s-8.5 -26.667 -8.5 -36c0 -12.667 4.83301 -22 14.5 -28s24.5 -9 44.5 -9c30.667 0 56.167 5.5 76.5 16.5s39.5 29.167 57.5 54.5c5.33301 8 12.333 20.333 21 37
c24 45.333 51 68 81 68c36 0 64.833 -12.333 86.5 -37s32.5 -58 32.5 -100c0 -77.333 -22.667 -149.333 -68 -216s-93 -100 -143 -100c-0.666992 0 -4.66699 1 -12 3c-72.667 17.333 -169.667 26 -291 26z" />
    <glyph glyph-name="braceleft" unicode="{" 
d="M856 1516v-72c-66.667 -2 -112.334 -19.833 -137.001 -53.5s-37 -103.167 -37 -208.5v-125c0 -151.333 -15.667 -254 -47 -308s-88 -92 -170 -114c82 -23.333 138.667 -61.666 170 -114.999s47 -155 47 -305v-127c0 -105.333 12.333 -174.833 37 -208.5
s70.334 -51.834 137.001 -54.501v-69c-162.667 0 -273.667 24.167 -333 72.5s-89 138.833 -89 271.5v176c0 114.667 -18 193.167 -54 235.5s-103.333 68.5 -202 78.5v90c98.667 9.33301 166 35.333 202 78s54 121 54 235v176c0 134 29.833 225.333 89.5 274
s170.5 73 332.5 73z" />
    <glyph glyph-name="bar" unicode="|" 
d="M373 1565h280v-2048h-280v2048z" />
    <glyph glyph-name="braceright" unicode="}" 
d="M168 1516c162 0 272.832 -24.499 332.499 -73.499s89.5 -140.167 89.5 -273.5v-176c0 -114 18 -192.333 54 -235s103.333 -68.667 202 -78v-90c-98.667 -10 -166 -36.167 -202 -78.5s-54 -120.833 -54 -235.5v-176c0 -132 -29.667 -222.333 -89 -271
s-170.333 -73 -333 -73v69c66.667 2.66699 112.334 21 137.001 55s37 103.333 37 208v127c0 150 15.667 251.667 47 305s88 91.666 170 114.999c-82 22 -138.667 60 -170 114s-47 156.667 -47 308v125c0 104 -12.5 173.167 -37.5 207.5s-70.5 52.5 -136.5 54.5v72z" />
    <glyph glyph-name="asciitilde" unicode="~" horiz-adv-x="1706" 
d="M1530 842l0.00195312 -299c-68 -46 -132 -79.667 -192 -101s-119.667 -32 -179 -32c-36 0 -73.167 3.83301 -111.5 11.5s-89.833 22.834 -154.5 45.501c-82.667 28 -147.5 46.667 -194.5 56s-92.833 14 -137.5 14c-56 0 -114.667 -12.667 -176 -38
s-130.333 -65.333 -207 -120v299c79.333 50 151.5 86.333 216.5 109s128.833 34 191.5 34c38.667 0 79.667 -4 123 -12s95 -21.667 155 -41c14.667 -4.66699 36 -12 64 -22c101.333 -36 179.666 -54 234.999 -54c57.333 0 115.666 12.167 174.999 36.5
s123.333 62.166 192 113.499z" />
    <glyph glyph-name="euro" horiz-adv-x="1276" 
d="M1227 328c0 -66 -14.498 -123.832 -43.498 -173.499s-63.167 -74.5 -102.5 -74.5c-1.33301 0 -6 0.333008 -14 1s-14.667 1 -20 1c-3.33301 0 -8.66602 -2.16699 -15.999 -6.5s-21.333 -13.166 -42 -26.499c-36 -24.667 -76 -43.834 -120 -57.501
s-88.667 -20.5 -134 -20.5c-147.333 0 -272.833 46.833 -376.5 140.5s-171.834 218.834 -204.501 375.501h-39c-39.333 0 -67.333 4.66699 -84 14s-25 24.666 -25 45.999c0 22.667 7.16699 38.167 21.5 46.5s43.5 12.5 87.5 12.5l22 1
c-0.666992 6.66699 -1.16699 14.5 -1.5 23.5s-0.5 22.167 -0.5 39.5c0 16 0.166992 28 0.5 36s0.833008 15.667 1.5 23h-22c-39.333 0 -67.333 4.66699 -84 14s-25 24.333 -25 45c0 22.667 7.16699 38.334 21.5 47.001s43.5 13 87.5 13h41
c34.667 143.333 104.5 258.333 209.5 345s228.833 130 371.5 130c46.667 0 92.667 -8.83301 138 -26.5s74.666 -26.5 87.999 -26.5c6.66699 0 17.167 2.66699 31.5 8s28.166 8 41.499 8c49.333 0 92.5 -29.5 129.5 -88.5s55.5 -129.167 55.5 -210.5
c0 -62 -13.667 -110.667 -41 -146s-65 -53 -113 -53c-34 0 -62.667 8 -86 24s-48 49 -74 99c-22 44 -48.667 76.833 -80 98.5s-67.333 32.5 -108 32.5c-34 0 -61.333 -16.5 -82 -49.5s-33.667 -81.167 -39 -144.5h160c38 0 65.5 -4.66699 82.5 -14
s25.5 -24.666 25.5 -45.999c0 -22 -7.16699 -37.333 -21.5 -46s-43.166 -13 -86.499 -13h-162c1.33301 -20.667 3 -41.334 5 -62.001s4.33301 -40.667 7 -60l101 -1c39.333 0 67.166 -4.5 83.499 -13.5s24.5 -24.167 24.5 -45.5c0 -22.667 -7.16699 -38.334 -21.5 -47.001
s-43.166 -13 -86.499 -13h-76c17.333 -58 39.833 -101.833 67.5 -131.5s60.5 -44.5 98.5 -44.5c50 0 98.167 8.5 144.5 25.5s89.166 42.167 128.499 75.5c4 3.33301 10 8.66602 18 15.999c19.333 18 36.333 27 51 27c24 0 44.333 -12 61 -36s25 -54.333 25 -91z" />
    <glyph glyph-name="euro" unicode="&#x20ac;" horiz-adv-x="1276" 
d="M1227 328c0 -66 -14.498 -123.832 -43.498 -173.499s-63.167 -74.5 -102.5 -74.5c-1.33301 0 -6 0.333008 -14 1s-14.667 1 -20 1c-3.33301 0 -8.66602 -2.16699 -15.999 -6.5s-21.333 -13.166 -42 -26.499c-36 -24.667 -76 -43.834 -120 -57.501
s-88.667 -20.5 -134 -20.5c-147.333 0 -272.833 46.833 -376.5 140.5s-171.834 218.834 -204.501 375.501h-39c-39.333 0 -67.333 4.66699 -84 14s-25 24.666 -25 45.999c0 22.667 7.16699 38.167 21.5 46.5s43.5 12.5 87.5 12.5l22 1
c-0.666992 6.66699 -1.16699 14.5 -1.5 23.5s-0.5 22.167 -0.5 39.5c0 16 0.166992 28 0.5 36s0.833008 15.667 1.5 23h-22c-39.333 0 -67.333 4.66699 -84 14s-25 24.333 -25 45c0 22.667 7.16699 38.334 21.5 47.001s43.5 13 87.5 13h41
c34.667 143.333 104.5 258.333 209.5 345s228.833 130 371.5 130c46.667 0 92.667 -8.83301 138 -26.5s74.666 -26.5 87.999 -26.5c6.66699 0 17.167 2.66699 31.5 8s28.166 8 41.499 8c49.333 0 92.5 -29.5 129.5 -88.5s55.5 -129.167 55.5 -210.5
c0 -62 -13.667 -110.667 -41 -146s-65 -53 -113 -53c-34 0 -62.667 8 -86 24s-48 49 -74 99c-22 44 -48.667 76.833 -80 98.5s-67.333 32.5 -108 32.5c-34 0 -61.333 -16.5 -82 -49.5s-33.667 -81.167 -39 -144.5h160c38 0 65.5 -4.66699 82.5 -14
s25.5 -24.666 25.5 -45.999c0 -22 -7.16699 -37.333 -21.5 -46s-43.166 -13 -86.499 -13h-162c1.33301 -20.667 3 -41.334 5 -62.001s4.33301 -40.667 7 -60l101 -1c39.333 0 67.166 -4.5 83.499 -13.5s24.5 -24.167 24.5 -45.5c0 -22.667 -7.16699 -38.334 -21.5 -47.001
s-43.166 -13 -86.499 -13h-76c17.333 -58 39.833 -101.833 67.5 -131.5s60.5 -44.5 98.5 -44.5c50 0 98.167 8.5 144.5 25.5s89.166 42.167 128.499 75.5c4 3.33301 10 8.66602 18 15.999c19.333 18 36.333 27 51 27c24 0 44.333 -12 61 -36s25 -54.333 25 -91z" />
    <glyph glyph-name="nonbreakingspace" unicode="&#xa0;" horiz-adv-x="1276" 
 />
    <glyph glyph-name="exclamdown" unicode="&#xa1;" horiz-adv-x="786" 
d="M393 907c20.667 0 41.165 -10.832 61.498 -32.499s43.5 -57.834 69.5 -108.501c41.333 -77.333 72.5 -155.833 93.5 -235.5s31.5 -158.167 31.5 -235.5c0 -102.667 -22.333 -182.334 -67 -239.001s-107.667 -85 -189 -85s-144.666 28.333 -189.999 85
s-68 136.334 -68 239.001c0 61.333 7.33301 124.333 22 189s36.667 132 66 202c32.667 74.667 62.834 130.167 90.501 166.5s54.167 54.5 79.5 54.5zM634.998 1276c0 -67.333 -23.333 -124.5 -70 -171.5s-104 -70.5 -172 -70.5c-67.333 0 -124.333 23.5 -171 70.5
s-70 104.167 -70 171.5s23.333 124.5 70 171.5s103.667 70.5 171 70.5c68 0 125.333 -23.5 172 -70.5s70 -104.167 70 -171.5z" />
    <glyph glyph-name="cent" unicode="&#xa2;" horiz-adv-x="1276" 
d="M496 147c-128.667 38.667 -229.499 105.668 -302.499 201.001s-109.5 207.333 -109.5 336c0 135.333 36.667 248.666 110 339.999s182.666 159.666 327.999 204.999v59c0 40.667 12.333 65.167 37 73.5s80 12.5 166 12.5c20.667 0 35 -3.16699 43 -9.5s12 -17.5 12 -33.5
v-84c133.333 -18.667 237 -58 311 -118s111 -134 111 -222c0 -62 -20.833 -114.667 -62.5 -158s-91.834 -65 -150.501 -65c-37.333 0 -71.5 9.66699 -102.5 29s-56.167 47.333 -75.5 84c-6.66699 11.333 -14 30 -22 56c-20.667 63.333 -53.667 95 -99 95
c-35.333 0 -64 -14.5 -86 -43.5s-33 -66.833 -33 -113.5c0 -81.333 25.333 -149.833 76 -205.5s113 -83.5 187 -83.5c27.333 0 64.5 7.16699 111.5 21.5s81.5 21.5 103.5 21.5c28.667 0 52.834 -12 72.501 -36s29.5 -53.667 29.5 -89
c0 -66.667 -34.167 -126.5 -102.5 -179.5s-160.5 -89.5 -276.5 -109.5v-104c0 -20.667 -8.16699 -34.5 -24.5 -41.5s-64.833 -10.5 -145.5 -10.5c-46 0 -75.167 3.83301 -87.5 11.5s-18.5 27.834 -18.5 60.501v100z" />
    <glyph glyph-name="sterling" unicode="&#xa3;" horiz-adv-x="1276" 
d="M358 205c-12 18 -26.832 31.333 -44.499 40s-38.834 13 -63.501 13c-23.333 0 -42.5 -7.5 -57.5 -22.5s-22.5 -34.167 -22.5 -57.5c0 -20.667 7 -38.167 21 -52.5s31.667 -21.5 53 -21.5c28.667 0 53.167 9 73.5 27s33.833 42.667 40.5 74zM381.001 430v8.00195
c0 13.333 -3.66699 30.166 -11 50.499s-20 47.833 -38 82.5h-164c-48 0 -77 5.5 -87 16.5s-15 35.833 -15 74.5c0 44.667 4.83301 74.167 14.5 88.5s37.5 21.5 83.5 21.5c10 0 21 -0.166992 33 -0.5s30.667 -1.5 56 -3.5c-10 28 -17.5 55.5 -22.5 82.5
s-7.5 54.167 -7.5 81.5c0 117.333 44.833 211.833 134.5 283.5s208.167 107.5 355.5 107.5c138.667 0 250.5 -26.833 335.5 -80.5s127.5 -123.167 127.5 -208.5c0 -46.667 -14.167 -87.667 -42.5 -123s-60.833 -53 -97.5 -53c-24 0 -45.667 15.333 -65 46
c-6 9.33301 -11 16.666 -15 21.999c-12.667 16.667 -30.5 29.667 -53.5 39s-49.5 14 -79.5 14c-50.667 0 -89.167 -12.167 -115.5 -36.5s-39.5 -59.833 -39.5 -106.5c0 -10 0.5 -20 1.5 -30s2.5 -20.667 4.5 -32c33.333 -2 74.666 -3.33301 123.999 -4
c105.333 -2 158 -28.667 158 -80c0 -52.667 -5 -85.334 -15 -98.001s-39 -19 -87 -19h-78h-74v-22c0 -22.667 -1.33301 -45.167 -4 -67.5s-6.66699 -44.166 -12 -65.499c19.333 -8.66699 46.666 -21.667 81.999 -39c73.333 -36.667 127.333 -55 162 -55
c32.667 0 63.167 6.33301 91.5 19s54.5 32.334 78.5 59.001c2 2 4.66699 5 8 9c20 23.333 39.667 35 59 35c25.333 0 45 -11.667 59 -35s21 -56.666 21 -99.999c0 -101.333 -41.167 -182.333 -123.5 -243s-193.166 -91 -332.499 -91c-42 0 -86.167 8.33301 -132.5 25
s-96.5 42 -150.5 76c-37.333 -30.667 -75.666 -53.334 -114.999 -68.001s-80.333 -22 -123 -22c-68.667 0 -123 16.667 -163 50s-60 78.666 -60 135.999c0 66 29.833 122 89.5 168s141.167 75.333 244.5 88z" />
    <glyph glyph-name="currency" unicode="&#xa4;" horiz-adv-x="1276" 
d="M1227 328c0 -66 -14.498 -123.832 -43.498 -173.499s-63.167 -74.5 -102.5 -74.5c-1.33301 0 -6 0.333008 -14 1s-14.667 1 -20 1c-3.33301 0 -8.66602 -2.16699 -15.999 -6.5s-21.333 -13.166 -42 -26.499c-36 -24.667 -76 -43.834 -120 -57.501
s-88.667 -20.5 -134 -20.5c-147.333 0 -272.833 46.833 -376.5 140.5s-171.834 218.834 -204.501 375.501h-39c-39.333 0 -67.333 4.66699 -84 14s-25 24.666 -25 45.999c0 22.667 7.16699 38.167 21.5 46.5s43.5 12.5 87.5 12.5l22 1
c-0.666992 6.66699 -1.16699 14.5 -1.5 23.5s-0.5 22.167 -0.5 39.5c0 16 0.166992 28 0.5 36s0.833008 15.667 1.5 23h-22c-39.333 0 -67.333 4.66699 -84 14s-25 24.333 -25 45c0 22.667 7.16699 38.334 21.5 47.001s43.5 13 87.5 13h41
c34.667 143.333 104.5 258.333 209.5 345s228.833 130 371.5 130c46.667 0 92.667 -8.83301 138 -26.5s74.666 -26.5 87.999 -26.5c6.66699 0 17.167 2.66699 31.5 8s28.166 8 41.499 8c49.333 0 92.5 -29.5 129.5 -88.5s55.5 -129.167 55.5 -210.5
c0 -62 -13.667 -110.667 -41 -146s-65 -53 -113 -53c-34 0 -62.667 8 -86 24s-48 49 -74 99c-22 44 -48.667 76.833 -80 98.5s-67.333 32.5 -108 32.5c-34 0 -61.333 -16.5 -82 -49.5s-33.667 -81.167 -39 -144.5h160c38 0 65.5 -4.66699 82.5 -14
s25.5 -24.666 25.5 -45.999c0 -22 -7.16699 -37.333 -21.5 -46s-43.166 -13 -86.499 -13h-162c1.33301 -20.667 3 -41.334 5 -62.001s4.33301 -40.667 7 -60l101 -1c39.333 0 67.166 -4.5 83.499 -13.5s24.5 -24.167 24.5 -45.5c0 -22.667 -7.16699 -38.334 -21.5 -47.001
s-43.166 -13 -86.499 -13h-76c17.333 -58 39.833 -101.833 67.5 -131.5s60.5 -44.5 98.5 -44.5c50 0 98.167 8.5 144.5 25.5s89.166 42.167 128.499 75.5c4 3.33301 10 8.66602 18 15.999c19.333 18 36.333 27 51 27c24 0 44.333 -12 61 -36s25 -54.333 25 -91z" />
    <glyph glyph-name="yen" unicode="&#xa5;" horiz-adv-x="1276" 
d="M420 535l-295.003 0.00195312c-39.333 0 -67.333 4.5 -84 13.5s-25 24.167 -25 45.5c0 22.667 7.16699 38.167 21.5 46.5s43.5 12.5 87.5 12.5h289c-6.66699 22 -16.334 43.333 -29.001 64s-27.667 40.334 -45 59.001h-215c-39.333 0 -67.333 4.66699 -84 14
s-25 24.666 -25 45.999c0 22 7.16699 37.333 21.5 46s43.5 13 87.5 13h123c-8 10.667 -18.333 25.667 -31 45c-48 70 -90.333 111 -127 123c-34 11.333 -57.833 24.666 -71.5 39.999s-20.5 35.333 -20.5 60c0 47.333 23.5 80.333 70.5 99s136.167 28 267.5 28
s222.5 -9 273.5 -27s76.5 -48.667 76.5 -92c0 -21.333 -7.16699 -42 -21.5 -62s-21.5 -33.333 -21.5 -40c0 -22.667 12.333 -50.834 37 -84.501s45.667 -50.5 63 -50.5c12.667 0 31.334 17.5 56.001 52.5s37 62.5 37 82.5c0 4.66699 -8.66699 18.834 -26 42.501
s-26 45.834 -26 66.501c0 36 21.333 63.667 64 83s104.667 29 186 29c93.333 0 159.666 -8.33301 198.999 -25s59 -44.334 59 -83.001c0 -22 -5.5 -39.667 -16.5 -53s-28.5 -23.666 -52.5 -30.999c-6 -2 -14 -4 -24 -6c-27.333 -5.33301 -46.666 -13 -57.999 -23
c-14.667 -11.333 -30.167 -26.333 -46.5 -45s-35.166 -42.667 -56.499 -72l-41 -57h146c38 0 65.5 -4.66699 82.5 -14s25.5 -24.333 25.5 -45c0 -22.667 -7.16699 -38.334 -21.5 -47.001s-43.166 -13 -86.499 -13h-244c-15.333 -22.667 -27.166 -44.334 -35.499 -65.001
s-12.833 -39.667 -13.5 -57l293 -1c39.333 0 67.166 -4.5 83.499 -13.5s24.5 -24.167 24.5 -45.5c0 -22.667 -7.16699 -38.167 -21.5 -46.5s-43.166 -12.5 -86.499 -12.5h-299c2.66699 -118 7 -195.333 13 -232s16 -60 30 -70c6 -4 15.333 -9.33301 28 -16
c42.667 -22 64 -52.667 64 -92c0 -48.667 -27.167 -84 -81.5 -106s-142.5 -33 -264.5 -33c-112 0 -198.333 11.5 -259 34.5s-91 55.833 -91 98.5c0 37.333 26 70 78 98l3 2c22 12 37.167 28.333 45.5 49s12.5 55.667 12.5 105c0 10.667 -0.333008 30.5 -1 59.5
s-1 52.833 -1 71.5v31z" />
    <glyph glyph-name="brokenbar" unicode="&#xa6;" 
d="M373 408h280v-758h-280v758zM373 1432h280v-758h-280v758z" />
    <glyph glyph-name="section" unicode="&#xa7;" horiz-adv-x="1141" 
d="M383 768c-35.333 0 -65.3301 -11.166 -89.9971 -33.499s-37 -49.5 -37 -81.5c0 -26.667 9 -50.834 27 -72.501s48.667 -44.5 92 -68.5c73.333 -39.333 140.166 -70 200.499 -92s108.166 -33 143.499 -33c40 0 72.167 10 96.5 30s36.5 46.333 36.5 79
c0 29.333 -9.5 55.333 -28.5 78s-53.833 47.667 -104.5 75c-64.667 35.333 -129.334 64 -194.001 86s-112 33 -142 33zM924.003 260.001c48 -50.667 83.499 -99.498 106.499 -146.498s34.5 -95.167 34.5 -144.5c0 -128.667 -45.833 -228 -137.5 -298
s-221.834 -105 -390.501 -105c-132 0 -238.167 23.667 -318.5 71s-120.5 109 -120.5 185c0 44.667 17.667 84.167 53 118.5s77 51.5 125 51.5c37.333 0 68 -9 92 -27s45.333 -48.667 64 -92l11 -26c28 -70 79 -105 153 -105c48 0 86.333 11.833 115 35.5s43 55.5 43 95.5
c0 42.667 -15.667 78.334 -47 107.001s-108 65.334 -230 110.001c-198 72.667 -329 141.167 -393 205.5s-96 148.166 -96 251.499c0 80.667 20.167 153 60.5 217s98.5 115.333 174.5 154c-47.333 34 -83 71 -107 111s-36 82.667 -36 128c0 105.333 46.667 191.833 140 259.5
s216 101.5 368 101.5c135.333 0 241.5 -21.167 318.5 -63.5s115.5 -99.833 115.5 -172.5c0 -40.667 -13.833 -75.334 -41.5 -104.001s-60.834 -43 -99.501 -43s-70 8.33301 -94 25s-45.333 45.667 -64 87c-19.333 42 -41.666 71.333 -66.999 88s-59.666 25 -102.999 25
c-44.667 0 -79.667 -10.5 -105 -31.5s-38 -49.5 -38 -85.5c0 -36.667 15.667 -68.334 47 -95.001s105 -63.334 221 -110.001l76 -29c142 -54 237.333 -105.667 286 -155c34.667 -35.333 60.834 -75.833 78.501 -121.5s26.5 -95.167 26.5 -148.5
c0 -76.667 -18.833 -142.5 -56.5 -197.5s-92.5 -97.167 -164.5 -126.5z" />
    <glyph glyph-name="dieresis" unicode="&#xa8;" 
d="M604 1339c0 39.333 13.167 72.166 39.5 98.499s58.833 39.5 97.5 39.5c39.333 0 72.166 -13.167 98.499 -39.5s39.5 -59.166 39.5 -98.499c0 -38.667 -13.167 -71.167 -39.5 -97.5s-59.166 -39.5 -98.499 -39.5c-38 0 -70.333 13.333 -97 40s-40 59 -40 97zM156 1339
c0 38.667 13.333 71.667 40 99s59 41 97 41c39.333 0 72 -13.333 98 -40s39 -60 39 -100c0 -38.667 -13.167 -71.167 -39.5 -97.5s-58.833 -39.5 -97.5 -39.5c-38 0 -70.333 13.5 -97 40.5s-40 59.167 -40 96.5z" />
    <glyph glyph-name="copyright" unicode="&#xa9;" horiz-adv-x="1683" 
d="M1130 1108l54.002 -0.000976562l6 -336h-57c-22.667 88 -56.334 155 -101.001 201s-98.667 69 -162 69c-68.667 0 -120.5 -30.167 -155.5 -90.5s-52.5 -149.5 -52.5 -267.5c0 -120.667 19.5 -213 58.5 -277s95.167 -96 168.5 -96c48 0 94 14.833 138 44.5
s85.333 73.5 124 131.5l55 -34c-44.667 -75.333 -97.167 -131.166 -157.5 -167.499s-129.833 -54.5 -208.5 -54.5c-128 0 -234.5 42 -319.5 126s-127.5 189 -127.5 315c0 126.667 42.5 231.667 127.5 315s192.167 125 321.5 125c58 0 111.667 -10.833 161 -32.5
s74.666 -32.5 75.999 -32.5c13.333 0 23.833 4.33301 31.5 13s14.167 24.667 19.5 48zM842.002 1313c-86 0 -168.001 -16.168 -246.001 -48.501s-146.333 -78.5 -205 -138.5c-60 -60.667 -105.667 -129.167 -137 -205.5s-47 -157.166 -47 -242.499
c0 -86 16 -167.5 48 -244.5s78 -145.167 138 -204.5c61.333 -60 130 -105.667 206 -137s157 -47 243 -47c84.667 0 164.834 15.667 240.501 47s143.5 77 203.5 137c60 61.333 106.5 131 139.5 209s49.5 158 49.5 240c0 84.667 -16.333 166.5 -49 245.5
s-78.667 147.167 -138 204.5c-59.333 58.667 -128 104.167 -206 136.5s-158 48.5 -240 48.5zM844.001 1438c98.667 0 194.501 -19.334 287.501 -58.001s174.5 -93 244.5 -163c70.667 -70 125.5 -152.167 164.5 -246.5s58.5 -191.833 58.5 -292.5
c0 -100 -19.167 -196.167 -57.5 -288.5s-93.5 -175.166 -165.5 -248.499c-70.667 -71.333 -151.834 -126 -243.501 -164s-188.5 -57 -290.5 -57c-102.667 0 -199 18.667 -289 56s-172 92.333 -246 165c-72 71.333 -127.167 153 -165.5 245s-57.5 189.333 -57.5 292
c0 100.667 19 197.167 57 289.5s92.667 174.5 164 246.5c70.667 72 152.667 127.333 246 166s191 58 293 58z" />
    <glyph glyph-name="ordfeminine" unicode="&#xaa;" horiz-adv-x="934" 
d="M477 1020c0 15.333 -2.16602 25.167 -6.49902 29.5s-15.833 6.83301 -34.5 7.5c-24.667 0 -43.834 -8 -57.501 -24s-20.5 -38.667 -20.5 -68c0 -28 5.16699 -49 15.5 -63s25.833 -21 46.5 -21c22 0 37 8 45 24s12 54.333 12 115zM477.001 1164
c0.666992 3.33301 0.998047 8.33789 0.998047 15.0049c2 26 3 44.667 3 56c0 47.333 -5.16699 81.333 -15.5 102s-27.5 31 -51.5 31c-28 0 -59 -20.333 -93 -61l-12 -15c-24 -26 -46.5 -44.667 -67.5 -56s-43.5 -17 -67.5 -17c-27.333 0 -50.166 8.83301 -68.499 26.5
s-27.5 39.5 -27.5 65.5c0 52 36.333 96 109 132s164.667 54 276 54c122 0 214.667 -21.667 278 -65s95 -107 95 -191c0 -22.667 -0.833008 -52.334 -2.5 -89.001s-2.5 -62.334 -2.5 -77.001v-22c0 -57.333 2.66699 -92.833 8 -106.5s18 -23.167 38 -28.5
c14.667 -4.66699 26.167 -11.334 34.5 -20.001s12.5 -19.334 12.5 -32.001c0 -38.667 -26.167 -75.167 -78.5 -109.5s-112.166 -51.5 -179.499 -51.5c-24.667 0 -44.667 2.16699 -60 6.5s-29 11.5 -41 21.5l-23 23c-18 18.667 -30.667 28 -38 28s-17 -4.66699 -29 -14
c-4.66699 -4 -8 -6.66699 -10 -8c-32.667 -20.667 -61.834 -34.667 -87.501 -42s-55.167 -11 -88.5 -11c-82 0 -148 20.667 -198 62s-75 95.666 -75 162.999c0 68.667 32.5 126.5 97.5 173.5s145.167 70.5 240.5 70.5c18 0 37.333 -1.33301 58 -4s42.334 -6 65.001 -10z" />
    <glyph glyph-name="guillemotleft" unicode="&#xab;" horiz-adv-x="1143" 
d="M918 543c70 -124 117.834 -213.667 143.501 -269s38.5 -95.333 38.5 -120c0 -24 -5.83301 -42.333 -17.5 -55s-28.5 -19 -50.5 -19c-28 0 -59.167 11.833 -93.5 35.5s-95.833 81.5 -184.5 173.5l-48 49c-100.667 102.667 -151 171.667 -151 207c0 30 62.333 109 187 237
l18 19c73.333 76 130.666 129.167 171.999 159.5s76 45.5 104 45.5c20 0 36 -6.33301 48 -19s18 -29.667 18 -51c0 -37.333 -49.333 -146 -148 -326zM399.001 543c68.667 -120.667 116.334 -209.5 143.001 -266.5s40 -97.833 40 -122.5c0 -24 -5.83301 -42.333 -17.5 -55
s-28.5 -19 -50.5 -19c-28 0 -59.167 11.833 -93.5 35.5s-95.833 81.5 -184.5 173.5l-48 49c-100.667 102.667 -151 171.667 -151 207c0 30 62.333 109 187 237l18 19c73.333 76 130.666 129.167 171.999 159.5s76 45.5 104 45.5c20 0 36 -6.33301 48 -19s18 -29.667 18 -51
c0 -37.333 -49.333 -146 -148 -326z" />
    <glyph glyph-name="logicalnot" unicode="&#xac;" horiz-adv-x="1706" 
d="M254 868h1198v-501h-272v235h-926v266z" />
    <glyph glyph-name="sfthyphen" unicode="&#xad;" horiz-adv-x="791" 
d="M74 420c0 40 4.49902 80.501 13.499 121.501s22.167 79.5 39.5 115.5c1.33301 3.33301 3.33301 7.66602 6 12.999c19.333 43.333 45.333 65 78 65c2.66699 0 9.66699 -0.333008 21 -1c70.667 -6 143 -9 217 -9c47.333 0 95.166 0.666992 143.499 2s72.833 2 73.5 2
c18.667 0 31.834 -4.16699 39.501 -12.5s11.5 -22.5 11.5 -42.5c0 -48.667 -6.16699 -95.5 -18.5 -140.5s-30.166 -86.167 -53.499 -123.5c-16.667 -26.667 -30.667 -43 -42 -49s-36.333 -9 -75 -9c-19.333 0 -53 0.333008 -101 1s-86.667 1 -116 1
c-48 0 -98.667 -2 -152 -6c-15.333 -1.33301 -24.666 -2 -27.999 -2c-22.667 0 -37.834 4.83301 -45.501 14.5s-11.5 29.5 -11.5 59.5z" />
    <glyph glyph-name="registered" unicode="&#xae;" horiz-adv-x="1683" 
d="M787 729c4 -0.666992 8.33203 -1.16699 12.999 -1.5s11 -0.5 19 -0.5c48 0 84.333 14.333 109 43s37 71 37 127c0 42.667 -10.667 77.167 -32 103.5s-49.666 39.5 -84.999 39.5c-21.333 0 -37 -4.66699 -47 -14s-15 -24.333 -15 -45zM460.999 1102l409.001 -0.000976562
c99.333 0 179.166 -18.833 239.499 -56.5s90.5 -86.5 90.5 -146.5c0 -59.333 -21.5 -105.666 -64.5 -138.999s-112.167 -57.333 -207.5 -72c74.667 -11.333 131.5 -37.5 170.5 -78.5s58.5 -94.5 58.5 -160.5v-48c0 -19.333 3 -34 9 -44s14.667 -15 26 -15
c16.667 0 29.334 10.167 38.001 30.5s13 49.833 13 88.5v12h62v-33c0 -59.333 -16.333 -104.5 -49 -135.5s-80.667 -46.5 -144 -46.5c-115.333 0 -177.666 73 -186.999 219c-0.666992 8.66699 -1 15 -1 19c-4.66699 60.667 -16.834 104.5 -36.501 131.5
s-49.834 40.5 -90.501 40.5h-11v-242c0 -29.333 5.16699 -49.833 15.5 -61.5s29.833 -20.5 58.5 -26.5v-59h-399v59c33.333 3.33301 56.333 11.333 69 24s19 34 19 64v528c0 30 -5.83301 50.833 -17.5 62.5s-35.167 19.5 -70.5 23.5v62zM842 1313
c-86 0 -167.999 -16.168 -245.999 -48.501s-146.333 -78.5 -205 -138.5c-60 -60.667 -105.667 -129.167 -137 -205.5s-47 -157.166 -47 -242.499c0 -86 16 -167.5 48 -244.5s78 -145.167 138 -204.5c62 -60.667 130.667 -106.5 206 -137.5s155.666 -46.5 240.999 -46.5
s166 15.833 242 47.5s144 77.167 204 136.5c60 61.333 106.5 131 139.5 209s49.5 158 49.5 240c0 84.667 -16.333 166.5 -49 245.5s-78.667 147.167 -138 204.5c-59.333 58.667 -128 104.167 -206 136.5s-158 48.5 -240 48.5zM842.001 1438
c103.333 0 203.169 -20.833 299.502 -62.5s180.166 -100.167 251.499 -175.5c65.333 -69.333 116 -149.666 152 -240.999s54 -185 54 -281c0 -79.333 -12.333 -156.833 -37 -232.5s-60.667 -146.5 -108 -212.5c-72 -99.333 -161.5 -176.333 -268.5 -231
s-222.167 -82 -345.5 -82c-74.667 0 -147.334 10.667 -218.001 32s-136.667 52.333 -198 93c-108 71.333 -191.667 162.166 -251 272.499s-89 230.5 -89 360.5c0 100.667 19 197.167 57 289.5s92.667 174.5 164 246.5c70.667 72 152.5 127.333 245.5 166
s190.167 58 291.5 58z" />
    <glyph glyph-name="macron" unicode="&#xaf;" 
d="M272 1264c-13.333 0 -22.332 2.83301 -26.999 8.5s-7 17.167 -7 34.5v100c0 16 2.5 26.833 7.5 32.5s13.833 8.5 26.5 8.5h488c13.333 0 22.666 -2.83301 27.999 -8.5s8.33301 -16.5 9 -32.5v-100c0 -16.667 -2.83301 -28 -8.5 -34s-15.167 -9 -28.5 -9h-488z" />
    <glyph glyph-name="degree" unicode="&#xb0;" horiz-adv-x="674" 
d="M336 1303c-41.333 0 -76.667 -14.833 -106 -44.5s-44 -65.5 -44 -107.5c0 -42.667 14.667 -79 44 -109s65.333 -45 108 -45c41.333 0 76.833 15.333 106.5 46s44.5 66.667 44.5 108s-15 77 -45 107s-66 45 -108 45zM337.999 1473
c89.333 0 165.166 -31.499 227.499 -94.499s93.5 -139.5 93.5 -229.5c0 -88 -31.5 -163.667 -94.5 -227s-139.167 -95 -228.5 -95s-165.333 31.167 -228 93.5s-94 138.5 -94 228.5c0 89.333 31.833 165.666 95.5 228.999s139.834 95 228.501 95z" />
    <glyph glyph-name="plusminus" unicode="&#xb1;" horiz-adv-x="1706" 
d="M254 231h1198v-272h-1198v272zM713 1262h280v-310h459v-272h-459v-309h-280v309h-459v272h459v310z" />
    <glyph glyph-name="twosuperior" unicode="&#xb2;" horiz-adv-x="842" 
d="M510 518l-397.003 0.000976562c-28.667 0 -50.5 3.5 -65.5 10.5s-22.5 17.167 -22.5 30.5c0 16.667 27.667 51.667 83 105l85 84c52 54 91.167 101.833 117.5 143.5s39.5 76.167 39.5 103.5c0 14.667 -6.83301 27.334 -20.5 38.001s-30.5 16 -50.5 16
c-19.333 0 -43.333 -9.66699 -72 -29c-4.66699 -2.66699 -8 -4.66699 -10 -6l-1 -1c-31.333 -21.333 -55.666 -32 -72.999 -32c-25.333 0 -47 8.66699 -65 26s-27 38 -27 62c0 17.333 6 35.166 18 53.499s29.667 37.5 53 57.5c45.333 37.333 97.833 65.666 157.5 84.999
s124.834 29 195.501 29c96.667 0 174.667 -20 234 -60s89 -92.333 89 -157c0 -34 -8.5 -66 -25.5 -96s-50.833 -68.333 -101.5 -115c-9.33301 -8.66699 -23 -20.667 -41 -36c-39.333 -34 -59 -58.667 -59 -74c0 -10 4.5 -18 13.5 -24s20.833 -9 35.5 -9s29 2.16699 43 6.5
s26 10.166 36 17.499c8 4.66699 20.833 14.167 38.5 28.5s32.5 21.5 44.5 21.5c20.667 0 37.334 -10.167 50.001 -30.5s19 -47.166 19 -80.499c0 -62.667 -16.5 -117.5 -49.5 -164.5s-68.833 -70.5 -107.5 -70.5c-10.667 0 -20.167 2.33301 -28.5 7s-17.5 13 -27.5 25
c-12 16 -24.5 25.833 -37.5 29.5s-36.5 5.5 -70.5 5.5z" />
    <glyph glyph-name="threesuperior" unicode="&#xb3;" horiz-adv-x="842" 
d="M332 391c-97.333 0 -180.004 12 -248.004 36s-102 51.667 -102 83c0 28.667 6.66699 50.834 20 66.501s31.666 23.5 54.999 23.5c12.667 0 39.167 -4.83301 79.5 -14.5s74.833 -14.5 103.5 -14.5c50 0 90.5 10.333 121.5 31s46.5 47.334 46.5 80.001
c0 30 -12 54.167 -36 72.5s-55 27.5 -93 27.5c-5.33301 0 -16.166 -0.666992 -32.499 -2s-30.166 -2 -41.499 -2c-22 0 -39.833 8.66699 -53.5 26s-20.5 40 -20.5 68c0 32 18 52 54 60c13.333 3.33301 23.333 6 30 8c32.667 11.333 57.5 26.333 74.5 45s25.5 40 25.5 64
c0 22.667 -8.83301 41.167 -26.5 55.5s-40.167 21.5 -67.5 21.5c-17.333 0 -39.833 -5 -67.5 -15s-47.5 -15 -59.5 -15c-15.333 0 -28.666 7.16699 -39.999 21.5s-17 31.5 -17 51.5c0 17.333 3.16699 31.166 9.5 41.499s17.5 19.833 33.5 28.5
c42.667 24.667 87.334 43.167 134.001 55.5s94.667 18.5 144 18.5c110 0 197.333 -17.833 262 -53.5s97 -83.5 97 -143.5c0 -26 -6.16699 -50.333 -18.5 -73s-30.166 -42 -53.499 -58c-4 -2.66699 -10.333 -6.33398 -19 -11.001c-16 -8.66699 -24 -16 -24 -22
c0 -7.33301 11.667 -12.666 35 -15.999c18 -2.66699 31.333 -5.33398 40 -8.00098c46.667 -13.333 81.667 -36 105 -68s35 -73.667 35 -125c0 -102.667 -44.5 -185.667 -133.5 -249s-206.167 -95 -351.5 -95z" />
    <glyph glyph-name="acute" unicode="&#xb4;" 
d="M446 1212c-13.333 -3.33301 -26.166 -5.83398 -38.499 -7.50098s-23.166 -2.5 -32.499 -2.5c-24 0 -43 10.333 -57 31s-21 48 -21 82c0 14 5.66699 25.667 17 35s39.666 22.333 84.999 39l342 122c2 0.666992 5.33301 2 10 4c26 8.66699 46 13 60 13
c20 0 39 -17.167 57 -51.5s27 -71.833 27 -112.5c0 -17.333 -4.83301 -30.166 -14.5 -38.499s-28.834 -15.833 -57.501 -22.5z" />
    <glyph glyph-name="mu" unicode="&#xb5;" horiz-adv-x="1270" 
d="M268 165c-11.333 -75.333 -21.667 -159.495 -31 -252.495s-15.333 -147.833 -18 -164.5c-10 -68 -26 -114.333 -48 -139s-57 -37 -105 -37c-42 0 -75.5 12.833 -100.5 38.5s-37.5 60.5 -37.5 104.5c0 32 23.167 121.667 69.5 269s81.833 279 106.5 395l107 506h336
l-117 -543c-4.66699 -20.667 -8.16699 -40.334 -10.5 -59.001s-3.5 -36 -3.5 -52c0 -31.333 7.83301 -55.833 23.5 -73.5s37.834 -26.5 66.501 -26.5c37.333 0 67.5 17.167 90.5 51.5s43.833 94.166 62.5 179.499l115 523h334l-111 -514
c-2.66699 -12.667 -4.66699 -25.334 -6 -38.001s-2 -24.667 -2 -36c0 -28.667 6.83301 -50.834 20.5 -66.501s32.834 -23.5 57.501 -23.5c36 0 70.667 28 104 84l2 3c14.667 24.667 26.167 40.167 34.5 46.5s18.166 9.5 29.499 9.5c10 0 18.333 -3.83301 25 -11.5
s10 -17.5 10 -29.5c0 -14.667 -5 -37.834 -15 -69.501s-22.667 -61.5 -38 -89.5c-32 -58 -69.167 -101.333 -111.5 -130s-89.833 -43 -142.5 -43c-59.333 0 -105.333 16.5 -138 49.5s-51 81.5 -55 145.5c-27.333 -64 -63.833 -111.667 -109.5 -143s-101.167 -47 -166.5 -47
c-66 0 -118.833 16 -158.5 48s-62.834 77 -69.501 135z" />
    <glyph glyph-name="paragraph" unicode="&#xb6;" 
d="M1014 1479v-141.999h-101v-1337h-202v1337h-140v-1337h-202v784c-108.667 5.33301 -195.667 39.666 -261 102.999s-98 144.333 -98 243c0 104.667 35.5 189 106.5 253s165.167 96 282.5 96h615z" />
    <glyph glyph-name="periodcentered" unicode="&#xb7;" horiz-adv-x="637" 
d="M68 647c0 70.667 24.333 130.332 73 178.999s108 73 178 73c70.667 0 130 -24.167 178 -72.5s72 -108.166 72 -179.499c0 -70.667 -24 -130.334 -72 -179.001s-107.333 -73 -178 -73c-70 0 -129.333 24.333 -178 73s-73 108.334 -73 179.001z" />
    <glyph glyph-name="cedilla" unicode="&#xb8;" 
d="M451 0l120.001 0.00195312c-2 -19.333 -3.5 -36.833 -4.5 -52.5s-1.5 -30.167 -1.5 -43.5c12.667 2.66699 25.667 4.66699 39 6s27 2 41 2c59.333 0 106.333 -14.833 141 -44.5s52 -69.5 52 -119.5c0 -64 -25.333 -114.833 -76 -152.5s-119 -56.5 -205 -56.5
s-157 10.833 -213 32.5s-84 48.5 -84 80.5c0 19.333 6.16699 35.333 18.5 48s28.166 19 47.499 19c12.667 0 41.667 -7.5 87 -22.5s85 -22.5 119 -22.5c33.333 0 58.166 5.33301 74.499 16s24.5 26.667 24.5 48s-10 36.166 -30 44.499s-62.667 12.5 -128 12.5
c-17.333 0 -28.833 3.5 -34.5 10.5s-8.5 20.5 -8.5 40.5c0 8.66699 1.83301 26.667 5.5 54s8.83398 60.666 15.501 99.999z" />
    <glyph glyph-name="onesuperior" unicode="&#xb9;" horiz-adv-x="842" 
d="M172 653c21.333 0 36.501 4.50195 45.501 13.502s15.833 26.5 20.5 52.5c3.33301 26 6.16602 64.5 8.49902 115.5s3.5 108.167 3.5 171.5c0 42.667 -4.5 68.334 -13.5 77.001s-27.833 13 -56.5 13c-7.33301 0 -16.333 -0.333008 -27 -1s-17.334 -1 -20.001 -1
c-17.333 0 -30.5 4.16699 -39.5 12.5s-13.5 20.5 -13.5 36.5c0 17.333 10.333 34.166 31 50.499s54 33.5 100 51.5c56.667 20.667 119.5 37.167 188.5 49.5s132.5 18.5 190.5 18.5c36 0 62.333 -4.5 79 -13.5s25 -23.167 25 -42.5c0 -24 -16 -42.667 -48 -56
c-10.667 -4.66699 -18.334 -8.33398 -23.001 -11.001c-9.33301 -4.66699 -15.833 -16 -19.5 -34s-5.5 -60 -5.5 -126v-31v-41c0 -112.667 2.33301 -184.334 7 -215.001s12.667 -50.334 24 -59.001c19.333 -14 47.333 -22.333 84 -25
c12.667 -1.33301 22.334 -2.66602 29.001 -3.99902c11.333 -3.33301 19.833 -9.5 25.5 -18.5s8.5 -21.167 8.5 -36.5c0 -31.333 -23.167 -53.5 -69.5 -66.5s-127.5 -19.5 -243.5 -19.5c-158.667 0 -265.334 6.33301 -320.001 19s-82 35 -82 67
c0 18.667 5.66699 32.5 17 41.5s28.333 13.5 51 13.5c4.66699 0 11.834 -0.333008 21.501 -1s16.834 -1 21.501 -1z" />
    <glyph glyph-name="ordmasculine" unicode="&#xba;" horiz-adv-x="981" 
d="M395 1192c0 -29.333 3.5 -62.333 10.5 -99s16.5 -72.667 28.5 -108c12 -34 25.667 -59.5 41 -76.5s32.333 -25.5 51 -25.5c21.333 0 38 8.5 50 25.5s18 40.5 18 70.5c0 90.667 -13.5 168.667 -40.5 234s-57.833 98 -92.5 98c-22 0 -38.5 -9.83301 -49.5 -29.5
s-16.5 -49.5 -16.5 -89.5zM29 1087c0 60 12.8311 114.998 38.498 164.998s63.834 94.667 114.501 134c46 36 98 63.5 156 82.5s118.667 28.5 182 28.5c130 0 235.167 -34.833 315.5 -104.5s120.5 -160.5 120.5 -272.5c0 -55.333 -11.5 -108.333 -34.5 -159
s-56.5 -96 -100.5 -136c-47.333 -41.333 -100.666 -72.5 -159.999 -93.5s-124 -31.5 -194 -31.5c-60 0 -115.333 8.83301 -166 26.5s-95.667 43.834 -135 78.501c-44 38.667 -77.833 82.334 -101.5 131.001s-35.5 99 -35.5 151z" />
    <glyph glyph-name="guillemotright" unicode="&#xbb;" horiz-adv-x="1143" 
d="M735 543c-70.667 123.333 -118.667 212.668 -144 268.001s-38 95.666 -38 120.999c0 23.333 6 41.166 18 53.499s29.333 18.5 52 18.5c49.333 0 139 -67.333 269 -202l7 -7l55 -56c97.333 -99.333 146 -166 146 -200c0 -29.333 -58 -103.666 -174 -222.999l-31 -31
c-73.333 -76 -130.833 -129.167 -172.5 -159.5s-76.5 -45.5 -104.5 -45.5c-20 0 -36.167 6.16699 -48.5 18.5s-18.5 28.5 -18.5 48.5c0 38.667 51.667 152.667 155 342zM225 543.002c-68.667 120 -116.167 208.5 -142.5 265.5s-39.5 98.167 -39.5 123.5
c0 23.333 5.66699 41.166 17 53.499s28.333 18.5 51 18.5c28 0 59.167 -12 93.5 -36s95.833 -81.667 184.5 -173l48 -49c100.667 -102.667 151 -171.667 151 -207c0 -29.333 -58 -103.666 -174 -222.999l-31 -31c-73.333 -76 -130.833 -129.167 -172.5 -159.5
s-76.5 -45.5 -104.5 -45.5c-20 0 -36.167 6.16699 -48.5 18.5s-18.5 28.5 -18.5 48.5c0 38.667 51.667 152 155 340z" />
    <glyph glyph-name="onequarter" unicode="&#xbc;" horiz-adv-x="1950" 
d="M1540 391c0 12 -1.99902 20.167 -5.99902 24.5s-10 6.5 -18 6.5s-17 -3.83301 -27 -11.5s-29 -27.167 -57 -58.5c-31.333 -34 -56 -63 -74 -87s-27 -40 -27 -48s4.66699 -13.667 14 -17s26.666 -5 51.999 -5h92c22 0 36 2.5 42 7.5s9 17.5 9 37.5v151zM1241 0
c-32.667 0 -56.499 7.16602 -71.499 21.499s-22.5 37.833 -22.5 70.5c0 63.333 69 171.666 207 324.999l43 48c98.667 108.667 173.334 181.167 224.001 217.5s98 54.5 142 54.5c35.333 0 59.166 -5.66699 71.499 -17s18.5 -34.333 18.5 -69
c0 -56.667 -2 -131.167 -6 -223.5s-6 -156.166 -6 -191.499v-9c0 -9.33301 0.833008 -15 2.5 -17s5.5 -3 11.5 -3h27c15.333 0 25.666 -2.66699 30.999 -8s8 -16.333 8 -33v-117c0 -14 -2 -24.167 -6 -30.5s-11.667 -11.166 -23 -14.499c-6 -2 -14.333 -3.33301 -25 -4
c-13.333 -0 -20 -7.66699 -20 -23c0 -20 0.666992 -40.333 2 -61s2 -31.667 2 -33c0 -16 -4.66699 -26.833 -14 -32.5s-31 -8.5 -65 -8.5h-70c-48 0 -84.333 0.666992 -109 2s-40 3.33301 -46 6c-9.33301 4 -15.5 8.33301 -18.5 13s-4.5 14 -4.5 28v15v80
c-0.666992 5.33301 -2.16699 9 -4.5 11s-6.5 3 -12.5 3h-266zM451.002 40.999c0 10 49.666 87.8311 148.999 233.498s193 289.834 281 432.501l225 378c106 182 168.667 273 188 273c20 0 80 -31.667 180 -95l8 -5c6 -4 11 -9.33301 15 -16s6 -13 6 -19
c0 -15.333 -18.333 -44.333 -55 -87l-20 -23c-59.333 -70 -133.666 -170.333 -222.999 -301s-186.666 -282 -291.999 -454c-86 -140.667 -155.667 -272 -209 -394c-4 -9.33301 -6.66699 -15.333 -8 -18c-8 -16 -15 -26.333 -21 -31s-14 -7 -24 -7
c-10.667 0 -30.334 7.5 -59.001 22.5s-67 38.167 -115 69.5c-7.33301 4.66699 -13.5 10.834 -18.5 18.501s-7.5 15.167 -7.5 22.5zM164.001 695.997c20.667 0 35.168 3.99902 43.501 11.999s14.166 23.667 17.499 47c4 20.667 7.16699 53.5 9.5 98.5s3.5 101.833 3.5 170.5
c0 40 -4.5 64 -13.5 72s-27.167 12 -54.5 12h-45c-16.667 0 -29 3.66699 -37 11s-12 18.666 -12 33.999c0 16.667 9.83301 32.5 29.5 47.5s51.5 30.5 95.5 46.5c52.667 19.333 112 34.833 178 46.5s126.667 17.5 182 17.5c34.667 0 60.167 -4.16699 76.5 -12.5
s24.5 -21.166 24.5 -38.499c0 -22.667 -14.333 -40 -43 -52c-11.333 -4.66699 -19.666 -8.66699 -24.999 -12c-9.33301 -5.33301 -15.833 -17.333 -19.5 -36s-5.5 -56.334 -5.5 -113.001v-27v-41c0 -96.667 2.16699 -161.167 6.5 -193.5s11.833 -52.5 22.5 -60.5
c19.333 -14 46.333 -22.333 81 -25c12.667 -1.33301 22 -2.66602 28 -3.99902c10 -2 17.833 -7.16699 23.5 -15.5s8.5 -19.5 8.5 -33.5c0 -30 -21.5 -51.167 -64.5 -63.5s-121.167 -18.5 -234.5 -18.5c-150 0 -251.333 6.16699 -304 18.5s-79 33.5 -79 63.5
c0 16.667 5.5 29.334 16.5 38.001s26.833 13 47.5 13c5.33301 0 12.666 -0.333008 21.999 -1s16.333 -1 21 -1z" />
    <glyph glyph-name="onehalf" unicode="&#xbd;" horiz-adv-x="1950" 
d="M1632 0l-381.003 -0.000976562c-27.333 0 -48.166 3.33301 -62.499 10s-21.5 16.334 -21.5 29.001c0 15.333 25.667 46.666 77 93.999c34.667 32 62.334 58.667 83.001 80c50 50 87.833 94.5 113.5 133.5s38.5 71.5 38.5 97.5c0 14.667 -6.5 27 -19.5 37
s-29.167 15 -48.5 15s-44.333 -10 -75 -30l-5 -3c-16.667 -12.667 -29.834 -21 -39.501 -25s-19.5 -6 -29.5 -6c-24.667 0 -45.5 8 -62.5 24s-25.5 35.333 -25.5 58c0 16 5.66699 32.667 17 50s28.666 35.333 51.999 54c42.667 34.667 92.5 60.834 149.5 78.501
s119.167 26.5 186.5 26.5c92.667 0 167.334 -18.5 224.001 -55.5s85 -85.5 85 -145.5c0 -31.333 -8.16699 -61.333 -24.5 -90s-48.166 -64.667 -95.499 -108l-42 -35c-36.667 -30 -55 -52 -55 -66c0 -9.33301 4.16699 -16.666 12.5 -21.999s19.833 -8 34.5 -8
s28.334 1.66699 41.001 5s24.334 8.33301 35.001 15c7.33301 4.66699 17 12 29 22c20 16.667 36.333 25 49 25c19.333 0 35 -9.5 47 -28.5s18 -44.167 18 -75.5c0 -58.667 -15.667 -109.834 -47 -153.501s-65.333 -65.5 -102 -65.5c-9.33301 0 -18 2.16699 -26 6.5
s-16.333 12.166 -25 23.499c-12.667 14.667 -25.334 23.834 -38.001 27.501s-35 5.5 -67 5.5zM450.997 40.999c0 10 49.666 87.8311 148.999 233.498s193 289.834 281 432.501l225 378c106 182 168.667 273 188 273c20 0 80 -31.667 180 -95l8 -5c6 -4 11 -9.33301 15 -16
s6 -13 6 -19c0 -15.333 -18.333 -44.333 -55 -87l-20 -23c-59.333 -70 -133.666 -170.333 -222.999 -301s-186.666 -282 -291.999 -454c-86 -140.667 -155.667 -272 -209 -394c-4 -9.33301 -6.66699 -15.333 -8 -18c-8 -16 -15 -26.333 -21 -31s-14 -7 -24 -7
c-10.667 0 -30.334 7.5 -59.001 22.5s-67 38.167 -115 69.5c-7.33301 4.66699 -13.5 10.834 -18.5 18.501s-7.5 15.167 -7.5 22.5zM163.996 695.997c20.667 0 35.168 3.99902 43.501 11.999s14.166 23.667 17.499 47c4 20.667 7.16699 53.5 9.5 98.5s3.5 101.833 3.5 170.5
c0 40 -4.5 64 -13.5 72s-27.167 12 -54.5 12h-45c-16.667 0 -29 3.66699 -37 11s-12 18.666 -12 33.999c0 16.667 9.83301 32.5 29.5 47.5s51.5 30.5 95.5 46.5c52.667 19.333 112 34.833 178 46.5s126.667 17.5 182 17.5c34.667 0 60.167 -4.16699 76.5 -12.5
s24.5 -21.166 24.5 -38.499c0 -22.667 -14.333 -40 -43 -52c-11.333 -4.66699 -19.666 -8.66699 -24.999 -12c-9.33301 -5.33301 -15.833 -17.333 -19.5 -36s-5.5 -56.334 -5.5 -113.001v-27v-41c0 -96.667 2.16699 -161.167 6.5 -193.5s11.833 -52.5 22.5 -60.5
c19.333 -14 46.333 -22.333 81 -25c12.667 -1.33301 22 -2.66602 28 -3.99902c10 -2 17.833 -7.16699 23.5 -15.5s8.5 -19.5 8.5 -33.5c0 -30 -21.5 -51.167 -64.5 -63.5s-121.167 -18.5 -234.5 -18.5c-150 0 -251.333 6.16699 -304 18.5s-79 33.5 -79 63.5
c0 16.667 5.5 29.334 16.5 38.001s26.833 13 47.5 13c5.33301 0 12.666 -0.333008 21.999 -1s16.333 -1 21 -1z" />
    <glyph glyph-name="threequarters" unicode="&#xbe;" horiz-adv-x="1950" 
d="M1540 391c0 12 -1.99902 20.167 -5.99902 24.5s-10 6.5 -18 6.5s-17 -3.83301 -27 -11.5s-29 -27.167 -57 -58.5c-31.333 -34 -56 -63 -74 -87s-27 -40 -27 -48s4.66699 -13.667 14 -17s26.666 -5 51.999 -5h92c22 0 36 2.5 42 7.5s9 17.5 9 37.5v151zM1241 0
c-32.667 0 -56.499 7.16602 -71.499 21.499s-22.5 37.833 -22.5 70.5c0 63.333 69 171.666 207 324.999l43 48c98.667 108.667 173.334 181.167 224.001 217.5s98 54.5 142 54.5c35.333 0 59.166 -5.66699 71.499 -17s18.5 -34.333 18.5 -69
c0 -56.667 -2 -131.167 -6 -223.5s-6 -156.166 -6 -191.499v-9c0 -9.33301 0.833008 -15 2.5 -17s5.5 -3 11.5 -3h27c15.333 0 25.666 -2.66699 30.999 -8s8 -16.333 8 -33v-117c0 -14 -2 -24.167 -6 -30.5s-11.667 -11.166 -23 -14.499c-6 -2 -14.333 -3.33301 -25 -4
c-13.333 -0 -20 -7.66699 -20 -23c0 -20 0.666992 -40.333 2 -61s2 -31.667 2 -33c0 -16 -4.66699 -26.833 -14 -32.5s-31 -8.5 -65 -8.5h-70c-48 0 -84.333 0.666992 -109 2s-40 3.33301 -46 6c-9.33301 4 -15.5 8.33301 -18.5 13s-4.5 14 -4.5 28v15v80
c-0.666992 5.33301 -2.16699 9 -4.5 11s-6.5 3 -12.5 3h-266zM451.002 40.999c0 10 49.666 87.8311 148.999 233.498s193 289.834 281 432.501l225 378c106 182 168.667 273 188 273c20 0 80 -31.667 180 -95l8 -5c6 -4 11 -9.33301 15 -16s6 -13 6 -19
c0 -15.333 -18.333 -44.333 -55 -87l-20 -23c-59.333 -70 -133.666 -170.333 -222.999 -301s-186.666 -282 -291.999 -454c-86 -140.667 -155.667 -272 -209 -394c-4 -9.33301 -6.66699 -15.333 -8 -18c-8 -16 -15 -26.333 -21 -31s-14 -7 -24 -7
c-10.667 0 -30.334 7.5 -59.001 22.5s-67 38.167 -115 69.5c-7.33301 4.66699 -13.5 10.834 -18.5 18.501s-7.5 15.167 -7.5 22.5zM315.001 450.997c-92.667 0 -170.999 11.333 -234.999 34s-96 48.667 -96 78c0 25.333 6.16699 45.333 18.5 60s29.166 22 50.499 22
c12 0 37.667 -4 77 -12s72.333 -12 99 -12c48.667 0 87.5 9.16699 116.5 27.5s43.5 42.5 43.5 72.5c0 28 -11.333 50.667 -34 68s-52.334 26 -89.001 26c-4.66699 0 -15 -0.333008 -31 -1s-29.333 -1 -40 -1c-21.333 0 -38.333 7.83301 -51 23.5s-19 36.5 -19 62.5
c0 29.333 17.667 48.666 53 57.999c10.667 2.66699 19.667 5.33398 27 8.00098c30 10 53.5 23.667 70.5 41s25.5 36.333 25.5 57c0 21.333 -8.33301 39 -25 53s-38.334 21 -65.001 21c-16 0 -37.167 -4.83301 -63.5 -14.5s-45.5 -14.5 -57.5 -14.5
c-15.333 0 -28.333 6.66699 -39 20s-16 30 -16 50c0 15.333 3 27.833 9 37.5s16.667 18.834 32 27.501c40.667 22.667 83.334 39.667 128.001 51s90.667 17 138 17c105.333 0 189 -16.5 251 -49.5s93 -77.5 93 -133.5c0 -24 -6 -46.5 -18 -67.5s-29.333 -39.167 -52 -54.5
c-4.66699 -3.33301 -11 -7 -19 -11c-14.667 -8 -22 -14.667 -22 -20c0 -6.66699 9.5 -11.334 28.5 -14.001s33.833 -5.66699 44.5 -9c44 -12 77 -33 99 -63s33 -69 33 -117c0 -96 -42.667 -173.5 -128 -232.5s-197.666 -88.5 -336.999 -88.5z" />
    <glyph glyph-name="questiondown" unicode="&#xbf;" horiz-adv-x="1167" 
d="M813 1266c0 -68 -23.333 -125.333 -70 -172s-104 -70 -172 -70c-67.333 0 -124.333 23.333 -171 70s-70 104 -70 172c0 67.333 23.333 124.333 70 171s103.667 70 171 70c68.667 0 126.167 -23.167 172.5 -69.5s69.5 -103.5 69.5 -171.5zM909 551
c62.667 0 110.831 -16.1729 144.498 -48.5059s50.5 -78.166 50.5 -137.499c0 -36 -7.5 -72.167 -22.5 -108.5s-36.833 -71.166 -65.5 -104.499c-50.667 -61.333 -112.167 -108.5 -184.5 -141.5s-150.166 -49.5 -233.499 -49.5c-146 0 -271.167 39.833 -375.5 119.5
s-156.5 172.834 -156.5 279.501c0 37.333 6.83301 72.5 20.5 105.5s33.834 62.833 60.501 89.5c36 35.333 84.167 70 144.5 104s95.5 57.333 105.5 70c9.33301 12 17.833 33.333 25.5 64s15.167 51.334 22.5 62.001c12 18 27.833 31.833 47.5 41.5s42.5 14.5 68.5 14.5
c59.333 0 101.5 -11 126.5 -33s37.5 -59.333 37.5 -112c0 -57.333 -25.333 -129.666 -76 -216.999l-14 -25c-28.667 -49.333 -47.834 -88.166 -57.501 -116.499s-14.5 -55.5 -14.5 -81.5c0 -35.333 8.33301 -65 25 -89s36.334 -36 59.001 -36
c24.667 0 42.167 13.167 52.5 39.5s15.5 74.5 15.5 144.5c0 41.333 19.5 79.333 58.5 114s84.167 52 135.5 52z" />
    <glyph glyph-name="Agrave" unicode="&#xc0;" horiz-adv-x="1769" 
d="M602 635h326.001c-40 96.667 -74.333 169.667 -103 219s-51 74 -67 74c-14.667 0 -32.834 -20.167 -54.501 -60.5s-55.5 -117.833 -101.5 -232.5zM-32.999 117c0 25.333 6.00098 45.498 18.001 60.498s40.333 30.833 85 47.5v0c39.333 12.667 65 28.334 77 47.001
c14 20.667 33 56.334 57 107.001s65.333 144 124 280l30 69c150 344.667 232 553.334 246 626.001c0.666992 2.66699 1.66699 7 3 13c19.333 102 79 153 179 153c58 0 107 -7 147 -21s74.333 -35.667 103 -65c40.667 -42.667 85.167 -107.667 133.5 -195
s122.166 -241 221.499 -461l102 -241c64 -155.333 110.333 -247.666 139 -276.999c11.333 -11.333 29 -20.333 53 -27c10 -2.66699 17.667 -5.33398 23 -8.00098c17.333 -8 31.166 -19.833 41.499 -35.5s15.5 -31.834 15.5 -48.501c0 -54 -34.5 -93.667 -103.5 -119
s-177.167 -38 -324.5 -38c-167.333 0 -284.5 10.167 -351.5 30.5s-100.5 55.166 -100.5 104.499c0 20 4.16699 37 12.5 51s21.833 26.333 40.5 37c5.33301 2.66699 13.333 6.33398 24 11.001c36 15.333 54 34 54 56c0 30 -24.5 51.5 -73.5 64.5s-129.167 19.5 -240.5 19.5
c-87.333 0 -147.666 -6.33301 -180.999 -19s-50 -35 -50 -67c0 -15.333 3.5 -27.166 10.5 -35.499s23.833 -16.833 50.5 -25.5c31.333 -10.667 51.833 -22.334 61.5 -35.001s14.5 -31 14.5 -55c0 -47.333 -26.667 -82 -80 -104s-136.333 -33 -249 -33
c-104 0 -182 11 -234 33s-78 55.333 -78 100zM951.002 1607l-377.999 91.001c-28.667 6.66699 -47.667 14.167 -57 22.5s-14 21.166 -14 38.499c0 40.667 8.66699 78.167 26 112.5s35.666 51.5 54.999 51.5c14.667 0 35 -4.33301 61 -13l10 -4l343 -122
c46 -16.667 74.667 -29.667 86 -39s17 -21 17 -35c0 -34 -7.33301 -61.333 -22 -82s-34 -31 -58 -31c-9.33301 0 -19.833 0.833008 -31.5 2.5s-24.167 4.16699 -37.5 7.5z" />
    <glyph glyph-name="Aacute" unicode="&#xc1;" horiz-adv-x="1769" 
d="M602 635h326.001c-40 96.667 -74.333 169.667 -103 219s-51 74 -67 74c-14.667 0 -32.834 -20.167 -54.501 -60.5s-55.5 -117.833 -101.5 -232.5zM-32.999 117c0 25.333 6.00098 45.498 18.001 60.498s40.333 30.833 85 47.5v0c39.333 12.667 65 28.334 77 47.001
c14 20.667 33 56.334 57 107.001s65.333 144 124 280l30 69c150 344.667 232 553.334 246 626.001c0.666992 2.66699 1.66699 7 3 13c19.333 102 79 153 179 153c58 0 107 -7 147 -21s74.333 -35.667 103 -65c40.667 -42.667 85.167 -107.667 133.5 -195
s122.166 -241 221.499 -461l102 -241c64 -155.333 110.333 -247.666 139 -276.999c11.333 -11.333 29 -20.333 53 -27c10 -2.66699 17.667 -5.33398 23 -8.00098c17.333 -8 31.166 -19.833 41.499 -35.5s15.5 -31.834 15.5 -48.501c0 -54 -34.5 -93.667 -103.5 -119
s-177.167 -38 -324.5 -38c-167.333 0 -284.5 10.167 -351.5 30.5s-100.5 55.166 -100.5 104.499c0 20 4.16699 37 12.5 51s21.833 26.333 40.5 37c5.33301 2.66699 13.333 6.33398 24 11.001c36 15.333 54 34 54 56c0 30 -24.5 51.5 -73.5 64.5s-129.167 19.5 -240.5 19.5
c-87.333 0 -147.666 -6.33301 -180.999 -19s-50 -35 -50 -67c0 -15.333 3.5 -27.166 10.5 -35.499s23.833 -16.833 50.5 -25.5c31.333 -10.667 51.833 -22.334 61.5 -35.001s14.5 -31 14.5 -55c0 -47.333 -26.667 -82 -80 -104s-136.333 -33 -249 -33
c-104 0 -182 11 -234 33s-78 55.333 -78 100zM798.002 1607c-13.333 -3.33301 -26.166 -5.83398 -38.499 -7.50098s-23.166 -2.5 -32.499 -2.5c-24 0 -43 10.333 -57 31s-21 48 -21 82c0 14 5.66699 25.667 17 35s39.666 22.333 84.999 39l342 122
c2 0.666992 5.33301 2 10 4c26 8.66699 46 13 60 13c20 0 39 -17.167 57 -51.5s27 -71.833 27 -112.5c0 -17.333 -4.83301 -30.166 -14.5 -38.499s-28.834 -15.833 -57.501 -22.5z" />
    <glyph glyph-name="Acircumflex" unicode="&#xc2;" horiz-adv-x="1769" 
d="M602 635h326.001c-40 96.667 -74.333 169.667 -103 219s-51 74 -67 74c-14.667 0 -32.834 -20.167 -54.501 -60.5s-55.5 -117.833 -101.5 -232.5zM-32.999 117c0 25.333 6.00098 45.498 18.001 60.498s40.333 30.833 85 47.5v0c39.333 12.667 65 28.334 77 47.001
c14 20.667 33 56.334 57 107.001s65.333 144 124 280l30 69c150 344.667 232 553.334 246 626.001c0.666992 2.66699 1.66699 7 3 13c19.333 102 79 153 179 153c58 0 107 -7 147 -21s74.333 -35.667 103 -65c40.667 -42.667 85.167 -107.667 133.5 -195
s122.166 -241 221.499 -461l102 -241c64 -155.333 110.333 -247.666 139 -276.999c11.333 -11.333 29 -20.333 53 -27c10 -2.66699 17.667 -5.33398 23 -8.00098c17.333 -8 31.166 -19.833 41.499 -35.5s15.5 -31.834 15.5 -48.501c0 -54 -34.5 -93.667 -103.5 -119
s-177.167 -38 -324.5 -38c-167.333 0 -284.5 10.167 -351.5 30.5s-100.5 55.166 -100.5 104.499c0 20 4.16699 37 12.5 51s21.833 26.333 40.5 37c5.33301 2.66699 13.333 6.33398 24 11.001c36 15.333 54 34 54 56c0 30 -24.5 51.5 -73.5 64.5s-129.167 19.5 -240.5 19.5
c-87.333 0 -147.666 -6.33301 -180.999 -19s-50 -35 -50 -67c0 -15.333 3.5 -27.166 10.5 -35.499s23.833 -16.833 50.5 -25.5c31.333 -10.667 51.833 -22.334 61.5 -35.001s14.5 -31 14.5 -55c0 -47.333 -26.667 -82 -80 -104s-136.333 -33 -249 -33
c-104 0 -182 11 -234 33s-78 55.333 -78 100zM876.002 1765l-71.0029 -78.001c-46.667 -50.667 -74.334 -78 -83.001 -82c-5.33301 -2 -17.166 -3.83301 -35.499 -5.5s-39.166 -2.5 -62.499 -2.5c-39.333 0 -66.166 2.5 -80.499 7.5s-21.5 13.5 -21.5 25.5
c0 6.66699 5 16.334 15 29.001l3 3l189 220c24.667 28.667 44.667 46 60 52s44.333 9 87 9c37.333 0 62.5 -2.83301 75.5 -8.5s28.167 -18.5 45.5 -38.5l205 -237c4.66699 -6 8.16699 -12 10.5 -18s3.5 -11.667 3.5 -17c0 -10 -7.66699 -17 -23 -21s-45 -6 -89 -6h-25
c-28 0 -48.167 3 -60.5 9s-24.166 16 -35.499 30z" />
    <glyph glyph-name="Atilde" unicode="&#xc3;" horiz-adv-x="1769" 
d="M602 635h326.001c-40 96.667 -74.333 169.667 -103 219s-51 74 -67 74c-14.667 0 -32.834 -20.167 -54.501 -60.5s-55.5 -117.833 -101.5 -232.5zM-32.999 117c0 25.333 6.00098 45.498 18.001 60.498s40.333 30.833 85 47.5v0c39.333 12.667 65 28.334 77 47.001
c14 20.667 33 56.334 57 107.001s65.333 144 124 280l30 69c150 344.667 232 553.334 246 626.001c0.666992 2.66699 1.66699 7 3 13c19.333 102 79 153 179 153c58 0 107 -7 147 -21s74.333 -35.667 103 -65c40.667 -42.667 85.167 -107.667 133.5 -195
s122.166 -241 221.499 -461l102 -241c64 -155.333 110.333 -247.666 139 -276.999c11.333 -11.333 29 -20.333 53 -27c10 -2.66699 17.667 -5.33398 23 -8.00098c17.333 -8 31.166 -19.833 41.499 -35.5s15.5 -31.834 15.5 -48.501c0 -54 -34.5 -93.667 -103.5 -119
s-177.167 -38 -324.5 -38c-167.333 0 -284.5 10.167 -351.5 30.5s-100.5 55.166 -100.5 104.499c0 20 4.16699 37 12.5 51s21.833 26.333 40.5 37c5.33301 2.66699 13.333 6.33398 24 11.001c36 15.333 54 34 54 56c0 30 -24.5 51.5 -73.5 64.5s-129.167 19.5 -240.5 19.5
c-87.333 0 -147.666 -6.33301 -180.999 -19s-50 -35 -50 -67c0 -15.333 3.5 -27.166 10.5 -35.499s23.833 -16.833 50.5 -25.5c31.333 -10.667 51.833 -22.334 61.5 -35.001s14.5 -31 14.5 -55c0 -47.333 -26.667 -82 -80 -104s-136.333 -33 -249 -33
c-104 0 -182 11 -234 33s-78 55.333 -78 100zM1011 1628c-42 0 -100.332 13.666 -174.999 40.999s-127.334 41 -158.001 41c-22.667 0 -41.167 -5.5 -55.5 -16.5s-28.833 -32.833 -43.5 -65.5c-5.33301 -13.333 -11 -21.833 -17 -25.5s-14.667 -5.5 -26 -5.5
c-16 0 -29.833 3.83301 -41.5 11.5s-17.5 16.834 -17.5 27.501c0 14.667 5.5 36 16.5 64s25.167 56 42.5 84c27.333 42 55.166 73.167 83.499 93.5s58.5 30.5 90.5 30.5c28.667 0 81.167 -13.833 157.5 -41.5s137.166 -41.5 182.499 -41.5c28.667 0 50.834 5 66.501 15
s29.834 30 42.501 60c4.66699 12 10 20.167 16 24.5s14.333 6.5 25 6.5c24 0 39.833 -2.83301 47.5 -8.5s11.5 -16.5 11.5 -32.5c0 -62.667 -25.333 -122 -76 -178s-108 -84 -172 -84z" />
    <glyph glyph-name="Adieresis" unicode="&#xc4;" horiz-adv-x="1769" 
d="M602 635h326.001c-40 96.667 -74.333 169.667 -103 219s-51 74 -67 74c-14.667 0 -32.834 -20.167 -54.501 -60.5s-55.5 -117.833 -101.5 -232.5zM-32.999 117c0 25.333 6.00098 45.498 18.001 60.498s40.333 30.833 85 47.5v0c39.333 12.667 65 28.334 77 47.001
c14 20.667 33 56.334 57 107.001s65.333 144 124 280l30 69c150 344.667 232 553.334 246 626.001c0.666992 2.66699 1.66699 7 3 13c19.333 102 79 153 179 153c58 0 107 -7 147 -21s74.333 -35.667 103 -65c40.667 -42.667 85.167 -107.667 133.5 -195
s122.166 -241 221.499 -461l102 -241c64 -155.333 110.333 -247.666 139 -276.999c11.333 -11.333 29 -20.333 53 -27c10 -2.66699 17.667 -5.33398 23 -8.00098c17.333 -8 31.166 -19.833 41.499 -35.5s15.5 -31.834 15.5 -48.501c0 -54 -34.5 -93.667 -103.5 -119
s-177.167 -38 -324.5 -38c-167.333 0 -284.5 10.167 -351.5 30.5s-100.5 55.166 -100.5 104.499c0 20 4.16699 37 12.5 51s21.833 26.333 40.5 37c5.33301 2.66699 13.333 6.33398 24 11.001c36 15.333 54 34 54 56c0 30 -24.5 51.5 -73.5 64.5s-129.167 19.5 -240.5 19.5
c-87.333 0 -147.666 -6.33301 -180.999 -19s-50 -35 -50 -67c0 -15.333 3.5 -27.166 10.5 -35.499s23.833 -16.833 50.5 -25.5c31.333 -10.667 51.833 -22.334 61.5 -35.001s14.5 -31 14.5 -55c0 -47.333 -26.667 -82 -80 -104s-136.333 -33 -249 -33
c-104 0 -182 11 -234 33s-78 55.333 -78 100zM956.002 1734c0 39.333 13.167 72.166 39.5 98.499s58.833 39.5 97.5 39.5c39.333 0 72.166 -13.167 98.499 -39.5s39.5 -59.166 39.5 -98.499c0 -38.667 -13.167 -71.167 -39.5 -97.5s-59.166 -39.5 -98.499 -39.5
c-38 0 -70.333 13.333 -97 40s-40 59 -40 97zM508.002 1734c0 38.667 13.333 71.667 40 99s59 41 97 41c39.333 0 72 -13.333 98 -40s39 -60 39 -100c0 -38.667 -13.167 -71.167 -39.5 -97.5s-58.833 -39.5 -97.5 -39.5c-38 0 -70.333 13.5 -97 40.5s-40 59.167 -40 96.5z
" />
    <glyph glyph-name="Aring" unicode="&#xc5;" horiz-adv-x="1769" 
d="M596 1720c0 70.667 24.333 130.334 73 179.001s108.334 73 179.001 73s130.334 -24.333 179.001 -73s73 -108.334 73 -179.001s-24.333 -130.334 -73 -179.001s-108.334 -73 -179.001 -73s-130.334 24.333 -179.001 73s-73 108.334 -73 179.001zM748 1722
c0 -27.333 9.83301 -51.166 29.5 -71.499s43.167 -30.5 70.5 -30.5s50.833 10.167 70.5 30.5s29.5 44.166 29.5 71.499c0 28 -9.83301 51.833 -29.5 71.5s-43.167 29.5 -70.5 29.5c-28 0 -51.667 -9.83301 -71 -29.5s-29 -43.5 -29 -71.5zM602 594h326.002
c-41.333 93.333 -75.833 162.333 -103.5 207s-49.834 67 -66.501 67c-14 0 -30.833 -16.5 -50.5 -49.5s-54.834 -107.833 -105.501 -224.5zM-32.998 109c0 24 5.99902 43 17.999 57s40.333 28.333 85 43v0c39.333 12 65 27 77 45c20 27.333 68.667 124.333 146 291l57 123
l22 46c140.667 302 218 486.667 232 554c0.666992 2.66699 1.66699 7 3 13c18.667 94.667 78.334 142 179.001 142c58 0 107.167 -6.33301 147.5 -19s74.5 -33 102.5 -61c41.333 -40 86.166 -101 134.499 -183s121.833 -225.667 220.5 -431l104 -231
c61.333 -142.667 106.333 -227.334 135 -254.001c10.667 -9.33301 25.5 -16.833 44.5 -22.5s30.167 -9.16699 33.5 -10.5c17.333 -8 31.166 -19.333 41.499 -34s15.5 -30 15.5 -46c0 -50 -34 -86.667 -102 -110s-176.667 -35 -326 -35c-170 0 -287.833 9.33301 -353.5 28
s-98.5 51 -98.5 97c0 19.333 4.16699 35.5 12.5 48.5s21.833 24.167 40.5 33.5c6 2.66699 15 6.33398 27 11.001c34 12.667 51 30 51 52c0 28 -24.667 48.333 -74 61s-130.666 19 -243.999 19c-87.333 0 -147 -6 -179 -18s-48 -32.667 -48 -62
c0 -16 3.83301 -28.333 11.5 -37s24.167 -16.667 49.5 -24c33.333 -10 54.333 -20.833 63 -32.5s13 -28.167 13 -49.5c0 -44.667 -26 -77 -78 -97s-135.667 -30 -251 -30c-105.333 0 -183.666 10 -234.999 30s-77 51 -77 93z" />
    <glyph glyph-name="AE" unicode="&#xc6;" horiz-adv-x="2359" 
d="M672 635c24 1.33301 49.833 2.33398 77.5 3.00098s68.5 1 122.5 1s93.833 -0.333008 119.5 -1s49.167 -1.66699 70.5 -3c2.66699 104 4.5 190 5.5 258s1.5 119.333 1.5 154c0 73.333 -3 122.666 -9 147.999s-16.667 38 -32 38c-11.333 0 -37 -32.667 -77 -98
s-133 -232 -279 -500zM1757 0.000976562l-773.998 0.0107422c-32 0 -57.333 8.83301 -76 26.5s-28 42.167 -28 73.5c0 21.333 4.16699 38.833 12.5 52.5s27.166 29.167 56.499 46.5c28.667 16.667 50.5 35.167 65.5 55.5s22.5 41.166 22.5 62.499
c0 18 -15.667 30.5 -47 37.5s-96.666 10.5 -195.999 10.5c-120 0 -200.667 -6.83301 -242 -20.5s-62 -37.834 -62 -72.501c0.666992 -16 4.5 -28 11.5 -36s23.833 -16.333 50.5 -25c31.333 -10.667 51.833 -22.334 61.5 -35.001s14.5 -31 14.5 -55
c0 -47.333 -26.667 -82 -80 -104s-136.666 -33 -249.999 -33c-104 0 -182.167 11 -234.5 33s-78.5 55.333 -78.5 100c0 18 4.16699 34.167 12.5 48.5s21.833 27.5 40.5 39.5c4.66699 2.66699 17.167 7.16699 37.5 13.5s37.166 12.833 50.499 19.5
c21.333 10 42.666 33.333 63.999 70c2.66699 4.66699 4.66699 8 6 10c9.33301 16 49 88.333 119 217l202 364c22.667 40 53 90.333 91 151c50 80.667 75 130.667 75 150c0 16 -4.5 29.667 -13.5 41s-28.5 24.333 -58.5 39c-32 16 -52.5 30.667 -61.5 44
s-13.5 30.666 -13.5 51.999c0 36.667 15.833 64.667 47.5 84s77.167 29 136.5 29c7.33301 0 30.666 -0.333008 69.999 -1c222.667 -4.66699 447.667 -7 675 -7c220 0 414.667 8 584 24c16 1.33301 25.667 2 29 2c54.667 0 98.667 -27.333 132 -82s50 -127.667 50 -219
c0 -52.667 -11 -94.834 -33 -126.501s-51.333 -47.5 -88 -47.5c-38.667 0 -77.667 27 -117 81c-11.333 15.333 -20 26.666 -26 33.999c-30 32.667 -64.167 56.167 -102.5 70.5s-87.5 21.5 -147.5 21.5c-77.333 0 -127.5 -2.16699 -150.5 -6.5s-39.167 -11.833 -48.5 -22.5
c-8 -8.66699 -14 -31.334 -18 -68.001s-6 -87 -6 -151c0 -58 5.33301 -93 16 -105s38 -18 82 -18c31.333 0 53.5 5 66.5 15s22.833 30.333 29.5 61c1.33301 5.33301 3 13 5 23c16 86 47.333 129 94 129c48.667 0 85 -25 109 -75s36 -126 36 -228
c0 -124.667 -12.833 -218.334 -38.5 -281.001s-64.167 -94 -115.5 -94c-26 0 -45 6.66699 -57 20s-22.333 45.666 -31 96.999c-8 50 -18 80.833 -30 92.5s-34.667 17.5 -68 17.5c-38 0 -62.833 -7.66699 -74.5 -23s-17.5 -51.333 -17.5 -108
c0 -76.667 2 -131.334 6 -164.001s10.667 -55 20 -67c10 -12.667 27 -21.334 51 -26.001s70 -7 138 -7c76 0 139.167 9.5 189.5 28.5s91.5 49.167 123.5 90.5c12 14.667 26.333 36 43 64c34.667 58 72.334 87 113 87c38.667 0 68.167 -12.167 88.5 -36.5
s30.5 -59.833 30.5 -106.5s-7.16699 -95.667 -21.5 -147s-34.5 -101.333 -60.5 -150c-26 -46 -48 -77.333 -66 -94s-38.333 -25 -61 -25c-2.66699 0 -11.667 1.66699 -27 5c-106 22.667 -218.667 34 -338 34z" />
    <glyph glyph-name="Ccedilla" unicode="&#xc7;" horiz-adv-x="1620" 
d="M1316 114c-68.667 -49.333 -142.667 -86.5029 -222 -111.503s-162.666 -37.5 -249.999 -37.5c-106.667 0 -205.334 17.333 -296.001 52s-172.334 86.334 -245.001 155.001c-77.333 73.333 -137 158 -179 254s-63 196.333 -63 301c0 102 20 201.667 60 299
s96.667 183.333 170 258c72 74.667 155.5 132 250.5 172s195.167 60 300.5 60c79.333 0 160.166 -13.667 242.499 -41s126.5 -41 132.5 -41c8 0 23.833 3 47.5 9s43.167 9 58.5 9c55.333 0 106 -37.833 152 -113.5s69 -160.834 69 -255.501
c0 -66.667 -18.667 -121.167 -56 -163.5s-84.666 -63.5 -141.999 -63.5c-63.333 0 -118.333 37.667 -165 113c-7.33301 12.667 -13.333 22 -18 28c-42 64.667 -90.333 114 -145 148s-112.667 51 -174 51c-75.333 0 -134.5 -25.167 -177.5 -75.5
s-64.5 -120.166 -64.5 -209.499c0 -68 10 -132.167 30 -192.5s49 -114.833 87 -163.5c46 -57.333 98.167 -101.333 156.5 -132s118.833 -46 181.5 -46c52 0 100.5 8.83301 145.5 26.5s92.5 46.834 142.5 87.501c4.66699 4 10.334 9.33301 17.001 16c24 22.667 45 34 63 34
c28 0 51.5 -13.833 70.5 -41.5s28.5 -62.5 28.5 -104.5c0 -71.333 -20.167 -136.166 -60.5 -194.499s-83.833 -87.5 -130.5 -87.5c-4 0 -7.16699 0.166992 -9.5 0.5s-4.83301 0.5 -7.5 0.5zM762 -0.00292969l120.001 0.00195312c-2 -19.333 -3.5 -36.833 -4.5 -52.5
s-1.5 -30.167 -1.5 -43.5c12.667 2.66699 25.667 4.66699 39 6s27 2 41 2c59.333 0 106.333 -14.833 141 -44.5s52 -69.5 52 -119.5c0 -64 -25.333 -114.833 -76 -152.5s-119 -56.5 -205 -56.5s-157 10.833 -213 32.5s-84 48.5 -84 80.5c0 19.333 6.16699 35.333 18.5 48
s28.166 19 47.499 19c12.667 0 41.667 -7.5 87 -22.5s85 -22.5 119 -22.5c33.333 0 58.166 5.33301 74.499 16s24.5 26.667 24.5 48s-10 36.166 -30 44.499s-62.667 12.5 -128 12.5c-17.333 0 -28.833 3.5 -34.5 10.5s-8.5 20.5 -8.5 40.5c0 8.66699 1.83301 26.667 5.5 54
s8.83398 60.666 15.501 99.999z" />
    <glyph glyph-name="Egrave" unicode="&#xc8;" horiz-adv-x="1503" 
d="M911 -2l-741.002 -0.00585938c-62.667 0 -105 7.5 -127 22.5s-33 41.5 -33 79.5c0 38.667 23.667 71.334 71 98.001c22.667 13.333 38.667 24.333 48 33c23.333 24 40.166 80.167 50.499 168.5s15.5 233.166 15.5 434.499c0 137.333 -3.5 236.333 -10.5 297
s-18.5 99.334 -34.5 116.001c-5.33301 5.33301 -27.833 18.333 -67.5 39s-59.5 50.667 -59.5 90c0 36.667 15.5 64.667 46.5 84s76.167 29 135.5 29c10.667 0 76.5 -1.33301 197.5 -4s236.833 -4 347.5 -4c174.667 0 328.334 8.66699 461.001 26c12 1.33301 19.333 2 22 2
c54.667 0 98.667 -27.667 132 -83s50 -128.666 50 -219.999c0 -53.333 -11.167 -95.666 -33.5 -126.999s-52.166 -47 -89.499 -47c-39.333 0 -76.666 25.667 -111.999 77c-11.333 16.667 -20.333 28.667 -27 36c-29.333 33.333 -63.833 57.333 -103.5 72
s-89.834 22 -150.501 22c-76.667 0 -126.334 -2.16699 -149.001 -6.5s-38.667 -11.833 -48 -22.5c-8 -9.33301 -14.333 -32.833 -19 -70.5s-7 -87.167 -7 -148.5c0 -58 5.5 -93 16.5 -105s38.167 -18 81.5 -18c31.333 0 53.5 5 66.5 15s22.833 30.333 29.5 61
c1.33301 5.33301 3 13 5 23c16 86 47.333 129 94 129c48.667 0 85.334 -25.167 110.001 -75.5s37 -126.166 37 -227.499c0 -124 -13.167 -217.5 -39.5 -280.5s-64.833 -94.5 -115.5 -94.5c-45.333 0 -73.666 36 -84.999 108c-0.666992 4 -1.33398 7 -2.00098 9
c-8 50 -18 80.833 -30 92.5s-34.667 17.5 -68 17.5c-38 0 -62.833 -7.66699 -74.5 -23s-17.5 -53.333 -17.5 -114c0 -86 2 -142.167 6 -168.5s11 -45.166 21 -56.499c10 -12 27.833 -20.5 53.5 -25.5s69.834 -7.5 132.501 -7.5c76.667 0 140.5 9.66699 191.5 29
s92.167 49.333 123.5 90c12 14.667 26.667 36 44 64c34.667 58 72 87 112 87c38.667 0 68.167 -11.833 88.5 -35.5s30.5 -58.167 30.5 -103.5c0 -48.667 -7 -98.667 -21 -150s-34.333 -101.666 -61 -150.999c-23.333 -44 -44.833 -74.833 -64.5 -92.5
s-41.167 -26.5 -64.5 -26.5c-2.66699 0 -11.667 1.66699 -27 5c-106 21.333 -218.667 32 -338 32zM817.998 1606.99l-377.999 91.001c-28.667 6.66699 -47.667 14.167 -57 22.5s-14 21.166 -14 38.499c0 40.667 8.66699 78.167 26 112.5s35.666 51.5 54.999 51.5
c14.667 0 35 -4.33301 61 -13l10 -4l343 -122c46 -16.667 74.667 -29.667 86 -39s17 -21 17 -35c0 -34 -7.33301 -61.333 -22 -82s-34 -31 -58 -31c-9.33301 0 -19.833 0.833008 -31.5 2.5s-24.167 4.16699 -37.5 7.5z" />
    <glyph glyph-name="Eacute" unicode="&#xc9;" horiz-adv-x="1503" 
d="M911 -2l-741.002 -0.00585938c-62.667 0 -105 7.5 -127 22.5s-33 41.5 -33 79.5c0 38.667 23.667 71.334 71 98.001c22.667 13.333 38.667 24.333 48 33c23.333 24 40.166 80.167 50.499 168.5s15.5 233.166 15.5 434.499c0 137.333 -3.5 236.333 -10.5 297
s-18.5 99.334 -34.5 116.001c-5.33301 5.33301 -27.833 18.333 -67.5 39s-59.5 50.667 -59.5 90c0 36.667 15.5 64.667 46.5 84s76.167 29 135.5 29c10.667 0 76.5 -1.33301 197.5 -4s236.833 -4 347.5 -4c174.667 0 328.334 8.66699 461.001 26c12 1.33301 19.333 2 22 2
c54.667 0 98.667 -27.667 132 -83s50 -128.666 50 -219.999c0 -53.333 -11.167 -95.666 -33.5 -126.999s-52.166 -47 -89.499 -47c-39.333 0 -76.666 25.667 -111.999 77c-11.333 16.667 -20.333 28.667 -27 36c-29.333 33.333 -63.833 57.333 -103.5 72
s-89.834 22 -150.501 22c-76.667 0 -126.334 -2.16699 -149.001 -6.5s-38.667 -11.833 -48 -22.5c-8 -9.33301 -14.333 -32.833 -19 -70.5s-7 -87.167 -7 -148.5c0 -58 5.5 -93 16.5 -105s38.167 -18 81.5 -18c31.333 0 53.5 5 66.5 15s22.833 30.333 29.5 61
c1.33301 5.33301 3 13 5 23c16 86 47.333 129 94 129c48.667 0 85.334 -25.167 110.001 -75.5s37 -126.166 37 -227.499c0 -124 -13.167 -217.5 -39.5 -280.5s-64.833 -94.5 -115.5 -94.5c-45.333 0 -73.666 36 -84.999 108c-0.666992 4 -1.33398 7 -2.00098 9
c-8 50 -18 80.833 -30 92.5s-34.667 17.5 -68 17.5c-38 0 -62.833 -7.66699 -74.5 -23s-17.5 -53.333 -17.5 -114c0 -86 2 -142.167 6 -168.5s11 -45.166 21 -56.499c10 -12 27.833 -20.5 53.5 -25.5s69.834 -7.5 132.501 -7.5c76.667 0 140.5 9.66699 191.5 29
s92.167 49.333 123.5 90c12 14.667 26.667 36 44 64c34.667 58 72 87 112 87c38.667 0 68.167 -11.833 88.5 -35.5s30.5 -58.167 30.5 -103.5c0 -48.667 -7 -98.667 -21 -150s-34.333 -101.666 -61 -150.999c-23.333 -44 -44.833 -74.833 -64.5 -92.5
s-41.167 -26.5 -64.5 -26.5c-2.66699 0 -11.667 1.66699 -27 5c-106 21.333 -218.667 32 -338 32zM664.998 1606.99c-13.333 -3.33301 -26.166 -5.83398 -38.499 -7.50098s-23.166 -2.5 -32.499 -2.5c-24 0 -43 10.333 -57 31s-21 48 -21 82c0 14 5.66699 25.667 17 35
s39.666 22.333 84.999 39l342 122c2 0.666992 5.33301 2 10 4c26 8.66699 46 13 60 13c20 0 39 -17.167 57 -51.5s27 -71.833 27 -112.5c0 -17.333 -4.83301 -30.166 -14.5 -38.499s-28.834 -15.833 -57.501 -22.5z" />
    <glyph glyph-name="Ecircumflex" unicode="&#xca;" horiz-adv-x="1503" 
d="M911 -2l-741.002 -0.00585938c-62.667 0 -105 7.5 -127 22.5s-33 41.5 -33 79.5c0 38.667 23.667 71.334 71 98.001c22.667 13.333 38.667 24.333 48 33c23.333 24 40.166 80.167 50.499 168.5s15.5 233.166 15.5 434.499c0 137.333 -3.5 236.333 -10.5 297
s-18.5 99.334 -34.5 116.001c-5.33301 5.33301 -27.833 18.333 -67.5 39s-59.5 50.667 -59.5 90c0 36.667 15.5 64.667 46.5 84s76.167 29 135.5 29c10.667 0 76.5 -1.33301 197.5 -4s236.833 -4 347.5 -4c174.667 0 328.334 8.66699 461.001 26c12 1.33301 19.333 2 22 2
c54.667 0 98.667 -27.667 132 -83s50 -128.666 50 -219.999c0 -53.333 -11.167 -95.666 -33.5 -126.999s-52.166 -47 -89.499 -47c-39.333 0 -76.666 25.667 -111.999 77c-11.333 16.667 -20.333 28.667 -27 36c-29.333 33.333 -63.833 57.333 -103.5 72
s-89.834 22 -150.501 22c-76.667 0 -126.334 -2.16699 -149.001 -6.5s-38.667 -11.833 -48 -22.5c-8 -9.33301 -14.333 -32.833 -19 -70.5s-7 -87.167 -7 -148.5c0 -58 5.5 -93 16.5 -105s38.167 -18 81.5 -18c31.333 0 53.5 5 66.5 15s22.833 30.333 29.5 61
c1.33301 5.33301 3 13 5 23c16 86 47.333 129 94 129c48.667 0 85.334 -25.167 110.001 -75.5s37 -126.166 37 -227.499c0 -124 -13.167 -217.5 -39.5 -280.5s-64.833 -94.5 -115.5 -94.5c-45.333 0 -73.666 36 -84.999 108c-0.666992 4 -1.33398 7 -2.00098 9
c-8 50 -18 80.833 -30 92.5s-34.667 17.5 -68 17.5c-38 0 -62.833 -7.66699 -74.5 -23s-17.5 -53.333 -17.5 -114c0 -86 2 -142.167 6 -168.5s11 -45.166 21 -56.499c10 -12 27.833 -20.5 53.5 -25.5s69.834 -7.5 132.501 -7.5c76.667 0 140.5 9.66699 191.5 29
s92.167 49.333 123.5 90c12 14.667 26.667 36 44 64c34.667 58 72 87 112 87c38.667 0 68.167 -11.833 88.5 -35.5s30.5 -58.167 30.5 -103.5c0 -48.667 -7 -98.667 -21 -150s-34.333 -101.666 -61 -150.999c-23.333 -44 -44.833 -74.833 -64.5 -92.5
s-41.167 -26.5 -64.5 -26.5c-2.66699 0 -11.667 1.66699 -27 5c-106 21.333 -218.667 32 -338 32zM742.998 1764.99l-71.0029 -78.001c-46.667 -50.667 -74.334 -78 -83.001 -82c-5.33301 -2 -17.166 -3.83301 -35.499 -5.5s-39.166 -2.5 -62.499 -2.5
c-39.333 0 -66.166 2.5 -80.499 7.5s-21.5 13.5 -21.5 25.5c0 6.66699 5 16.334 15 29.001l3 3l189 220c24.667 28.667 44.667 46 60 52s44.333 9 87 9c37.333 0 62.5 -2.83301 75.5 -8.5s28.167 -18.5 45.5 -38.5l205 -237c4.66699 -6 8.16699 -12 10.5 -18
s3.5 -11.667 3.5 -17c0 -10 -7.66699 -17 -23 -21s-45 -6 -89 -6h-25c-28 0 -48.167 3 -60.5 9s-24.166 16 -35.499 30z" />
    <glyph glyph-name="Edieresis" unicode="&#xcb;" horiz-adv-x="1503" 
d="M911 -2l-741.002 -0.00585938c-62.667 0 -105 7.5 -127 22.5s-33 41.5 -33 79.5c0 38.667 23.667 71.334 71 98.001c22.667 13.333 38.667 24.333 48 33c23.333 24 40.166 80.167 50.499 168.5s15.5 233.166 15.5 434.499c0 137.333 -3.5 236.333 -10.5 297
s-18.5 99.334 -34.5 116.001c-5.33301 5.33301 -27.833 18.333 -67.5 39s-59.5 50.667 -59.5 90c0 36.667 15.5 64.667 46.5 84s76.167 29 135.5 29c10.667 0 76.5 -1.33301 197.5 -4s236.833 -4 347.5 -4c174.667 0 328.334 8.66699 461.001 26c12 1.33301 19.333 2 22 2
c54.667 0 98.667 -27.667 132 -83s50 -128.666 50 -219.999c0 -53.333 -11.167 -95.666 -33.5 -126.999s-52.166 -47 -89.499 -47c-39.333 0 -76.666 25.667 -111.999 77c-11.333 16.667 -20.333 28.667 -27 36c-29.333 33.333 -63.833 57.333 -103.5 72
s-89.834 22 -150.501 22c-76.667 0 -126.334 -2.16699 -149.001 -6.5s-38.667 -11.833 -48 -22.5c-8 -9.33301 -14.333 -32.833 -19 -70.5s-7 -87.167 -7 -148.5c0 -58 5.5 -93 16.5 -105s38.167 -18 81.5 -18c31.333 0 53.5 5 66.5 15s22.833 30.333 29.5 61
c1.33301 5.33301 3 13 5 23c16 86 47.333 129 94 129c48.667 0 85.334 -25.167 110.001 -75.5s37 -126.166 37 -227.499c0 -124 -13.167 -217.5 -39.5 -280.5s-64.833 -94.5 -115.5 -94.5c-45.333 0 -73.666 36 -84.999 108c-0.666992 4 -1.33398 7 -2.00098 9
c-8 50 -18 80.833 -30 92.5s-34.667 17.5 -68 17.5c-38 0 -62.833 -7.66699 -74.5 -23s-17.5 -53.333 -17.5 -114c0 -86 2 -142.167 6 -168.5s11 -45.166 21 -56.499c10 -12 27.833 -20.5 53.5 -25.5s69.834 -7.5 132.501 -7.5c76.667 0 140.5 9.66699 191.5 29
s92.167 49.333 123.5 90c12 14.667 26.667 36 44 64c34.667 58 72 87 112 87c38.667 0 68.167 -11.833 88.5 -35.5s30.5 -58.167 30.5 -103.5c0 -48.667 -7 -98.667 -21 -150s-34.333 -101.666 -61 -150.999c-23.333 -44 -44.833 -74.833 -64.5 -92.5
s-41.167 -26.5 -64.5 -26.5c-2.66699 0 -11.667 1.66699 -27 5c-106 21.333 -218.667 32 -338 32zM822.998 1733.99c0 39.333 13.167 72.166 39.5 98.499s58.833 39.5 97.5 39.5c39.333 0 72.166 -13.167 98.499 -39.5s39.5 -59.166 39.5 -98.499
c0 -38.667 -13.167 -71.167 -39.5 -97.5s-59.166 -39.5 -98.499 -39.5c-38 0 -70.333 13.333 -97 40s-40 59 -40 97zM374.998 1733.99c0 38.667 13.333 71.667 40 99s59 41 97 41c39.333 0 72 -13.333 98 -40s39 -60 39 -100c0 -38.667 -13.167 -71.167 -39.5 -97.5
s-58.833 -39.5 -97.5 -39.5c-38 0 -70.333 13.5 -97 40.5s-40 59.167 -40 96.5z" />
    <glyph glyph-name="Igrave" unicode="&#xcc;" horiz-adv-x="942" 
d="M53 141c0 41.333 26.3301 77.668 78.9971 109.001c18.667 11.333 32 20 40 26c19.333 14.667 32.666 55.667 39.999 123s11 193.666 11 378.999c0 32 0.333008 72.667 1 122s1 83 1 101c0 72 -3.16699 123.5 -9.5 154.5s-17.166 52.5 -32.499 64.5
c-8 6 -20.333 14 -37 24c-46.667 28 -70 60.333 -70 97c0 51.333 33.833 89.5 101.5 114.5s170.167 37.5 307.5 37.5c135.333 0 234.5 -11.833 297.5 -35.5s94.5 -60.834 94.5 -111.501c0 -36.667 -18.167 -67.5 -54.5 -92.5s-55.166 -38.833 -56.499 -41.5
c-13.333 -18.667 -22.833 -83.5 -28.5 -194.5s-8.5 -289.833 -8.5 -536.5c0 -70 2.66699 -119.333 8 -148s14.333 -49 27 -61c8 -7.33301 21.333 -17.666 40 -30.999c45.333 -32.667 68 -67.334 68 -104.001c0 -50.667 -33.667 -88.167 -101 -112.5
s-170.666 -36.5 -309.999 -36.5c-129.333 0 -229.666 13.333 -300.999 40s-107 64.334 -107 113.001zM537.997 1607l-377.999 91.001c-28.667 6.66699 -47.667 14.167 -57 22.5s-14 21.166 -14 38.499c0 40.667 8.66699 78.167 26 112.5s35.666 51.5 54.999 51.5
c14.667 0 35 -4.33301 61 -13l10 -4l343 -122c46 -16.667 74.667 -29.667 86 -39s17 -21 17 -35c0 -34 -7.33301 -61.333 -22 -82s-34 -31 -58 -31c-9.33301 0 -19.833 0.833008 -31.5 2.5s-24.167 4.16699 -37.5 7.5z" />
    <glyph glyph-name="Iacute" unicode="&#xcd;" horiz-adv-x="942" 
d="M53 141c0 41.333 26.3301 77.668 78.9971 109.001c18.667 11.333 32 20 40 26c19.333 14.667 32.666 55.667 39.999 123s11 193.666 11 378.999c0 32 0.333008 72.667 1 122s1 83 1 101c0 72 -3.16699 123.5 -9.5 154.5s-17.166 52.5 -32.499 64.5
c-8 6 -20.333 14 -37 24c-46.667 28 -70 60.333 -70 97c0 51.333 33.833 89.5 101.5 114.5s170.167 37.5 307.5 37.5c135.333 0 234.5 -11.833 297.5 -35.5s94.5 -60.834 94.5 -111.501c0 -36.667 -18.167 -67.5 -54.5 -92.5s-55.166 -38.833 -56.499 -41.5
c-13.333 -18.667 -22.833 -83.5 -28.5 -194.5s-8.5 -289.833 -8.5 -536.5c0 -70 2.66699 -119.333 8 -148s14.333 -49 27 -61c8 -7.33301 21.333 -17.666 40 -30.999c45.333 -32.667 68 -67.334 68 -104.001c0 -50.667 -33.667 -88.167 -101 -112.5
s-170.666 -36.5 -309.999 -36.5c-129.333 0 -229.666 13.333 -300.999 40s-107 64.334 -107 113.001zM384.997 1607c-13.333 -3.33301 -26.166 -5.83398 -38.499 -7.50098s-23.166 -2.5 -32.499 -2.5c-24 0 -43 10.333 -57 31s-21 48 -21 82c0 14 5.66699 25.667 17 35
s39.666 22.333 84.999 39l342 122c2 0.666992 5.33301 2 10 4c26 8.66699 46 13 60 13c20 0 39 -17.167 57 -51.5s27 -71.833 27 -112.5c0 -17.333 -4.83301 -30.166 -14.5 -38.499s-28.834 -15.833 -57.501 -22.5z" />
    <glyph glyph-name="Icircumflex" unicode="&#xce;" horiz-adv-x="942" 
d="M53 141c0 41.333 26.3301 77.668 78.9971 109.001c18.667 11.333 32 20 40 26c19.333 14.667 32.666 55.667 39.999 123s11 193.666 11 378.999c0 32 0.333008 72.667 1 122s1 83 1 101c0 72 -3.16699 123.5 -9.5 154.5s-17.166 52.5 -32.499 64.5
c-8 6 -20.333 14 -37 24c-46.667 28 -70 60.333 -70 97c0 51.333 33.833 89.5 101.5 114.5s170.167 37.5 307.5 37.5c135.333 0 234.5 -11.833 297.5 -35.5s94.5 -60.834 94.5 -111.501c0 -36.667 -18.167 -67.5 -54.5 -92.5s-55.166 -38.833 -56.499 -41.5
c-13.333 -18.667 -22.833 -83.5 -28.5 -194.5s-8.5 -289.833 -8.5 -536.5c0 -70 2.66699 -119.333 8 -148s14.333 -49 27 -61c8 -7.33301 21.333 -17.666 40 -30.999c45.333 -32.667 68 -67.334 68 -104.001c0 -50.667 -33.667 -88.167 -101 -112.5
s-170.666 -36.5 -309.999 -36.5c-129.333 0 -229.666 13.333 -300.999 40s-107 64.334 -107 113.001zM462.997 1765l-71.0029 -78.001c-46.667 -50.667 -74.334 -78 -83.001 -82c-5.33301 -2 -17.166 -3.83301 -35.499 -5.5s-39.166 -2.5 -62.499 -2.5
c-39.333 0 -66.166 2.5 -80.499 7.5s-21.5 13.5 -21.5 25.5c0 6.66699 5 16.334 15 29.001l3 3l189 220c24.667 28.667 44.667 46 60 52s44.333 9 87 9c37.333 0 62.5 -2.83301 75.5 -8.5s28.167 -18.5 45.5 -38.5l205 -237c4.66699 -6 8.16699 -12 10.5 -18
s3.5 -11.667 3.5 -17c0 -10 -7.66699 -17 -23 -21s-45 -6 -89 -6h-25c-28 0 -48.167 3 -60.5 9s-24.166 16 -35.499 30z" />
    <glyph glyph-name="Idieresis" unicode="&#xcf;" horiz-adv-x="942" 
d="M53 141c0 41.333 26.3301 77.668 78.9971 109.001c18.667 11.333 32 20 40 26c19.333 14.667 32.666 55.667 39.999 123s11 193.666 11 378.999c0 32 0.333008 72.667 1 122s1 83 1 101c0 72 -3.16699 123.5 -9.5 154.5s-17.166 52.5 -32.499 64.5
c-8 6 -20.333 14 -37 24c-46.667 28 -70 60.333 -70 97c0 51.333 33.833 89.5 101.5 114.5s170.167 37.5 307.5 37.5c135.333 0 234.5 -11.833 297.5 -35.5s94.5 -60.834 94.5 -111.501c0 -36.667 -18.167 -67.5 -54.5 -92.5s-55.166 -38.833 -56.499 -41.5
c-13.333 -18.667 -22.833 -83.5 -28.5 -194.5s-8.5 -289.833 -8.5 -536.5c0 -70 2.66699 -119.333 8 -148s14.333 -49 27 -61c8 -7.33301 21.333 -17.666 40 -30.999c45.333 -32.667 68 -67.334 68 -104.001c0 -50.667 -33.667 -88.167 -101 -112.5
s-170.666 -36.5 -309.999 -36.5c-129.333 0 -229.666 13.333 -300.999 40s-107 64.334 -107 113.001zM542.997 1734c0 39.333 13.167 72.166 39.5 98.499s58.833 39.5 97.5 39.5c39.333 0 72.166 -13.167 98.499 -39.5s39.5 -59.166 39.5 -98.499
c0 -38.667 -13.167 -71.167 -39.5 -97.5s-59.166 -39.5 -98.499 -39.5c-38 0 -70.333 13.333 -97 40s-40 59 -40 97zM94.9971 1734c0 38.667 13.333 71.667 40 99s59 41 97 41c39.333 0 72 -13.333 98 -40s39 -60 39 -100c0 -38.667 -13.167 -71.167 -39.5 -97.5
s-58.833 -39.5 -97.5 -39.5c-38 0 -70.333 13.5 -97 40.5s-40 59.167 -40 96.5z" />
    <glyph glyph-name="Eth" unicode="&#xd0;" horiz-adv-x="1729" 
d="M205 657l-36.998 -0.00195312c-53.333 0 -93 9.83301 -119 29.5s-39 49.5 -39 89.5c0 38 13.833 67.333 41.5 88s66.5 31 116.5 31h39v219v33c0 33.333 -2.66699 54.833 -8 64.5s-21 20.834 -47 33.501c-30 15.333 -50.5 31.166 -61.5 47.499s-16.5 37.5 -16.5 63.5
c0 48.667 16.833 82.334 50.5 101.001s106.167 28 217.5 28c19.333 0 47.666 -0.333008 84.999 -1s65 -1 83 -1c5.33301 0 55 0.333008 149 1s185.667 1 275 1c238.667 0 422.5 -65 551.5 -195s193.5 -315 193.5 -555c0 -124 -19 -234 -57 -330s-96 -180.333 -174 -253
c-62.667 -58 -137.334 -100.167 -224.001 -126.5s-195 -39.5 -325 -39.5c-48 0 -139.333 2.66699 -274 8c-42 2 -74.333 3.33301 -97 4c-26 0 -58.667 0.333008 -98 1s-66 1 -80 1h-117h-28c-59.333 4.66699 -101.5 16.167 -126.5 34.5s-37.5 46.5 -37.5 84.5
c0 19.333 3 35.833 9 49.5s16 27.167 30 40.5c11.333 10 29 20 53 30s38.333 17.667 43 23c8 11.333 14.5 51.833 19.5 121.5s8.16699 160.834 9.5 273.501zM725.002 656.998v-102v-31c0 -126 5.66699 -202.833 17 -230.5s34.333 -41.5 69 -41.5
c105.333 0 183.5 37 234.5 111s76.5 186.333 76.5 337c0 178 -27.5 310 -82.5 396s-139.5 129 -253.5 129c-26 0 -43 -5 -51 -15s-12 -33 -12 -69c0 -8.66699 0.333008 -29 1 -61s1 -60.333 1 -85v-100h39c53.333 0 93.333 -9.83301 120 -29.5s40 -49.5 40 -89.5
c0 -37.333 -14 -66.5 -42 -87.5s-67.333 -31.5 -118 -31.5h-39z" />
    <glyph glyph-name="Ntilde" unicode="&#xd1;" horiz-adv-x="1774" 
d="M203 686c0 166 -3.66602 283.166 -10.999 351.499s-19.333 119.5 -36 153.5c-9.33301 17.333 -29.333 32.666 -60 45.999c-10 4 -17.333 7.33301 -22 10c-20 11.333 -35.333 24.666 -46 39.999s-16 32 -16 50c0 51.333 27.5 87.833 82.5 109.5s150.5 32.5 286.5 32.5
c44.667 0 79.667 -2 105 -6s46.333 -10.333 63 -19c26 -14 57.167 -36.167 93.5 -66.5s95.166 -83.833 176.499 -160.5l42 -39c217.333 -204.667 344 -307 380 -307c15.333 0 27 8 35 24s12 39.333 12 70c0 33.333 0.666992 69.666 2 108.999v18
c0 46.667 -5.5 80.667 -16.5 102s-31.5 39 -61.5 53c-2 1.33301 -5.33301 3 -10 5c-40.667 18.667 -61 50 -61 94c0 50 22 85 66 105s128.333 30 253 30c111.333 0 188.666 -9.5 231.999 -28.5s65 -51.833 65 -98.5c0 -26.667 -4.83301 -48.167 -14.5 -64.5
s-32.834 -33.833 -69.501 -52.5c-27.333 -14.667 -45.666 -32 -54.999 -52s-17.666 -65.333 -24.999 -136c-6 -60.667 -10.667 -161.667 -14 -303c-1.33301 -68.667 -2.66602 -121 -3.99902 -157c-0.666992 -27.333 -2 -66.333 -4 -117c-6 -208 -13.667 -330.333 -23 -367
c-10 -44.667 -24.333 -77 -43 -97s-43 -30 -73 -30c-29.333 0 -70.333 18.833 -123 56.5s-153 125.167 -301 262.5l-216 205c-120.667 117.333 -193 176 -217 176c-24.667 0 -42 -13.5 -52 -40.5s-15 -76.833 -15 -149.5c0 -55.333 3.5 -105.166 10.5 -149.499
s14.833 -72.166 23.5 -83.499c5.33301 -7.33301 26.166 -22.166 62.499 -44.499s54.5 -50.833 54.5 -85.5c0 -49.333 -25 -86.166 -75 -110.499s-125.333 -36.5 -226 -36.5c-104.667 0 -183 11.5 -235 34.5s-78 57.833 -78 104.5c0 33.333 18 62.333 54 87s56.333 40 61 46
c15.333 22.667 26.333 64 33 124s10 160.667 10 302zM1013 1628c-42 0 -100.332 13.666 -174.999 40.999s-127.334 41 -158.001 41c-22.667 0 -41.167 -5.5 -55.5 -16.5s-28.833 -32.833 -43.5 -65.5c-5.33301 -13.333 -11 -21.833 -17 -25.5s-14.667 -5.5 -26 -5.5
c-16 0 -29.833 3.83301 -41.5 11.5s-17.5 16.834 -17.5 27.501c0 14.667 5.5 36 16.5 64s25.167 56 42.5 84c27.333 42 55.166 73.167 83.499 93.5s58.5 30.5 90.5 30.5c28.667 0 81.167 -13.833 157.5 -41.5s137.166 -41.5 182.499 -41.5c28.667 0 50.834 5 66.501 15
s29.834 30 42.501 60c4.66699 12 10 20.167 16 24.5s14.333 6.5 25 6.5c24 0 39.833 -2.83301 47.5 -8.5s11.5 -16.5 11.5 -32.5c0 -62.667 -25.333 -122 -76 -178s-108 -84 -172 -84z" />
    <glyph glyph-name="Ograve" unicode="&#xd2;" horiz-adv-x="1731" 
d="M49 745c0 105.333 22.499 208.666 67.499 309.999s107.167 188 186.5 260c74 68 159.167 118.833 255.5 152.5s205.166 50.5 326.499 50.5c114.667 0 221.5 -19.167 320.5 -57.5s185.167 -93.833 258.5 -166.5c71.333 -70.667 125.333 -153.167 162 -247.5
s55 -196.833 55 -307.5c0 -117.333 -20.667 -224 -62 -320s-103 -181 -185 -255c-73.333 -66.667 -158.166 -117.5 -254.499 -152.5s-200.166 -52.5 -311.499 -52.5c-84.667 0 -165.167 10.833 -241.5 32.5s-147.833 53.834 -214.5 96.501c-114 74 -203 169 -267 285
s-96 240 -96 372zM605.999 956c0 -54 7.66602 -114.499 22.999 -181.499s37 -135.5 65 -205.5c36.667 -88.667 78.334 -156.5 125.001 -203.5s96 -70.5 148 -70.5c49.333 0 87.833 20.5 115.5 61.5s41.5 98.167 41.5 171.5c0 56.667 -6.16699 115.667 -18.5 177
s-30.5 122.666 -54.5 183.999c-42 104.667 -85.333 180.667 -130 228s-95 71 -151 71c-49.333 0 -89 -20.833 -119 -62.5s-45 -98.167 -45 -169.5zM930.998 1607l-377.999 91.001c-28.667 6.66699 -47.667 14.167 -57 22.5s-14 21.166 -14 38.499
c0 40.667 8.66699 78.167 26 112.5s35.666 51.5 54.999 51.5c14.667 0 35 -4.33301 61 -13l10 -4l343 -122c46 -16.667 74.667 -29.667 86 -39s17 -21 17 -35c0 -34 -7.33301 -61.333 -22 -82s-34 -31 -58 -31c-9.33301 0 -19.833 0.833008 -31.5 2.5
s-24.167 4.16699 -37.5 7.5z" />
    <glyph glyph-name="Oacute" unicode="&#xd3;" horiz-adv-x="1731" 
d="M49 745c0 105.333 22.499 208.666 67.499 309.999s107.167 188 186.5 260c74 68 159.167 118.833 255.5 152.5s205.166 50.5 326.499 50.5c114.667 0 221.5 -19.167 320.5 -57.5s185.167 -93.833 258.5 -166.5c71.333 -70.667 125.333 -153.167 162 -247.5
s55 -196.833 55 -307.5c0 -117.333 -20.667 -224 -62 -320s-103 -181 -185 -255c-73.333 -66.667 -158.166 -117.5 -254.499 -152.5s-200.166 -52.5 -311.499 -52.5c-84.667 0 -165.167 10.833 -241.5 32.5s-147.833 53.834 -214.5 96.501c-114 74 -203 169 -267 285
s-96 240 -96 372zM605.999 956c0 -54 7.66602 -114.499 22.999 -181.499s37 -135.5 65 -205.5c36.667 -88.667 78.334 -156.5 125.001 -203.5s96 -70.5 148 -70.5c49.333 0 87.833 20.5 115.5 61.5s41.5 98.167 41.5 171.5c0 56.667 -6.16699 115.667 -18.5 177
s-30.5 122.666 -54.5 183.999c-42 104.667 -85.333 180.667 -130 228s-95 71 -151 71c-49.333 0 -89 -20.833 -119 -62.5s-45 -98.167 -45 -169.5zM777.998 1607c-13.333 -3.33301 -26.166 -5.83398 -38.499 -7.50098s-23.166 -2.5 -32.499 -2.5c-24 0 -43 10.333 -57 31
s-21 48 -21 82c0 14 5.66699 25.667 17 35s39.666 22.333 84.999 39l342 122c2 0.666992 5.33301 2 10 4c26 8.66699 46 13 60 13c20 0 39 -17.167 57 -51.5s27 -71.833 27 -112.5c0 -17.333 -4.83301 -30.166 -14.5 -38.499s-28.834 -15.833 -57.501 -22.5z" />
    <glyph glyph-name="Ocircumflex" unicode="&#xd4;" horiz-adv-x="1731" 
d="M49 745c0 105.333 22.499 208.666 67.499 309.999s107.167 188 186.5 260c74 68 159.167 118.833 255.5 152.5s205.166 50.5 326.499 50.5c114.667 0 221.5 -19.167 320.5 -57.5s185.167 -93.833 258.5 -166.5c71.333 -70.667 125.333 -153.167 162 -247.5
s55 -196.833 55 -307.5c0 -117.333 -20.667 -224 -62 -320s-103 -181 -185 -255c-73.333 -66.667 -158.166 -117.5 -254.499 -152.5s-200.166 -52.5 -311.499 -52.5c-84.667 0 -165.167 10.833 -241.5 32.5s-147.833 53.834 -214.5 96.501c-114 74 -203 169 -267 285
s-96 240 -96 372zM605.999 956c0 -54 7.66602 -114.499 22.999 -181.499s37 -135.5 65 -205.5c36.667 -88.667 78.334 -156.5 125.001 -203.5s96 -70.5 148 -70.5c49.333 0 87.833 20.5 115.5 61.5s41.5 98.167 41.5 171.5c0 56.667 -6.16699 115.667 -18.5 177
s-30.5 122.666 -54.5 183.999c-42 104.667 -85.333 180.667 -130 228s-95 71 -151 71c-49.333 0 -89 -20.833 -119 -62.5s-45 -98.167 -45 -169.5zM855.998 1765l-71.0029 -78.001c-46.667 -50.667 -74.334 -78 -83.001 -82c-5.33301 -2 -17.166 -3.83301 -35.499 -5.5
s-39.166 -2.5 -62.499 -2.5c-39.333 0 -66.166 2.5 -80.499 7.5s-21.5 13.5 -21.5 25.5c0 6.66699 5 16.334 15 29.001l3 3l189 220c24.667 28.667 44.667 46 60 52s44.333 9 87 9c37.333 0 62.5 -2.83301 75.5 -8.5s28.167 -18.5 45.5 -38.5l205 -237
c4.66699 -6 8.16699 -12 10.5 -18s3.5 -11.667 3.5 -17c0 -10 -7.66699 -17 -23 -21s-45 -6 -89 -6h-25c-28 0 -48.167 3 -60.5 9s-24.166 16 -35.499 30z" />
    <glyph glyph-name="Otilde" unicode="&#xd5;" horiz-adv-x="1731" 
d="M49 745c0 105.333 22.499 208.666 67.499 309.999s107.167 188 186.5 260c74 68 159.167 118.833 255.5 152.5s205.166 50.5 326.499 50.5c114.667 0 221.5 -19.167 320.5 -57.5s185.167 -93.833 258.5 -166.5c71.333 -70.667 125.333 -153.167 162 -247.5
s55 -196.833 55 -307.5c0 -117.333 -20.667 -224 -62 -320s-103 -181 -185 -255c-73.333 -66.667 -158.166 -117.5 -254.499 -152.5s-200.166 -52.5 -311.499 -52.5c-84.667 0 -165.167 10.833 -241.5 32.5s-147.833 53.834 -214.5 96.501c-114 74 -203 169 -267 285
s-96 240 -96 372zM605.999 956c0 -54 7.66602 -114.499 22.999 -181.499s37 -135.5 65 -205.5c36.667 -88.667 78.334 -156.5 125.001 -203.5s96 -70.5 148 -70.5c49.333 0 87.833 20.5 115.5 61.5s41.5 98.167 41.5 171.5c0 56.667 -6.16699 115.667 -18.5 177
s-30.5 122.666 -54.5 183.999c-42 104.667 -85.333 180.667 -130 228s-95 71 -151 71c-49.333 0 -89 -20.833 -119 -62.5s-45 -98.167 -45 -169.5zM990.998 1628c-42 0 -100.332 13.666 -174.999 40.999s-127.334 41 -158.001 41c-22.667 0 -41.167 -5.5 -55.5 -16.5
s-28.833 -32.833 -43.5 -65.5c-5.33301 -13.333 -11 -21.833 -17 -25.5s-14.667 -5.5 -26 -5.5c-16 0 -29.833 3.83301 -41.5 11.5s-17.5 16.834 -17.5 27.501c0 14.667 5.5 36 16.5 64s25.167 56 42.5 84c27.333 42 55.166 73.167 83.499 93.5s58.5 30.5 90.5 30.5
c28.667 0 81.167 -13.833 157.5 -41.5s137.166 -41.5 182.499 -41.5c28.667 0 50.834 5 66.501 15s29.834 30 42.501 60c4.66699 12 10 20.167 16 24.5s14.333 6.5 25 6.5c24 0 39.833 -2.83301 47.5 -8.5s11.5 -16.5 11.5 -32.5c0 -62.667 -25.333 -122 -76 -178
s-108 -84 -172 -84z" />
    <glyph glyph-name="Odieresis" unicode="&#xd6;" horiz-adv-x="1731" 
d="M49 745c0 105.333 22.499 208.666 67.499 309.999s107.167 188 186.5 260c74 68 159.167 118.833 255.5 152.5s205.166 50.5 326.499 50.5c114.667 0 221.5 -19.167 320.5 -57.5s185.167 -93.833 258.5 -166.5c71.333 -70.667 125.333 -153.167 162 -247.5
s55 -196.833 55 -307.5c0 -117.333 -20.667 -224 -62 -320s-103 -181 -185 -255c-73.333 -66.667 -158.166 -117.5 -254.499 -152.5s-200.166 -52.5 -311.499 -52.5c-84.667 0 -165.167 10.833 -241.5 32.5s-147.833 53.834 -214.5 96.501c-114 74 -203 169 -267 285
s-96 240 -96 372zM605.999 956c0 -54 7.66602 -114.499 22.999 -181.499s37 -135.5 65 -205.5c36.667 -88.667 78.334 -156.5 125.001 -203.5s96 -70.5 148 -70.5c49.333 0 87.833 20.5 115.5 61.5s41.5 98.167 41.5 171.5c0 56.667 -6.16699 115.667 -18.5 177
s-30.5 122.666 -54.5 183.999c-42 104.667 -85.333 180.667 -130 228s-95 71 -151 71c-49.333 0 -89 -20.833 -119 -62.5s-45 -98.167 -45 -169.5zM935.998 1734c0 39.333 13.167 72.166 39.5 98.499s58.833 39.5 97.5 39.5c39.333 0 72.166 -13.167 98.499 -39.5
s39.5 -59.166 39.5 -98.499c0 -38.667 -13.167 -71.167 -39.5 -97.5s-59.166 -39.5 -98.499 -39.5c-38 0 -70.333 13.333 -97 40s-40 59 -40 97zM487.998 1734c0 38.667 13.333 71.667 40 99s59 41 97 41c39.333 0 72 -13.333 98 -40s39 -60 39 -100
c0 -38.667 -13.167 -71.167 -39.5 -97.5s-58.833 -39.5 -97.5 -39.5c-38 0 -70.333 13.5 -97 40.5s-40 59.167 -40 96.5z" />
    <glyph glyph-name="multiply" unicode="&#xd7;" horiz-adv-x="1706" 
d="M446 1231l428 -428l429 428l192 -193l-428 -428l428 -428l-192 -190l-429 428l-428 -428l-190 190l428 428l-428 428z" />
    <glyph glyph-name="Oslash" unicode="&#xd8;" horiz-adv-x="1731" 
d="M473 53l-154.001 -230.997c-14 -22 -27.833 -37.833 -41.5 -47.5s-29.167 -14.5 -46.5 -14.5c-25.333 0 -48 10 -68 30s-30 42.333 -30 67c0 9.33301 2.5 19.833 7.5 31.5s12.833 24.834 23.5 39.501l158 228c-90 81.333 -158 171.666 -204 270.999s-69 205.333 -69 318
c0 105.333 22.667 208.666 68 309.999s107.333 188 186 260c72.667 66 156.667 116.333 252 151s198.333 52 309 52c61.333 0 122.833 -5.66699 184.5 -17s123.834 -28.333 186.501 -51l121 184c14 21.333 27.667 36.666 41 45.999s29 14 47 14c25.333 0 48 -9.66699 68 -29
s30 -41.333 30 -66c0 -9.33301 -2.5 -19.833 -7.5 -31.5s-12.833 -24.834 -23.5 -39.501l-116 -170c95.333 -78 166.833 -168.667 214.5 -272s71.5 -219 71.5 -347c0 -117.333 -20.667 -224 -62 -320s-103 -181 -185 -255c-74.667 -67.333 -160 -118.333 -256 -153
s-200 -52 -312 -52c-74 0 -143.5 7.83301 -208.5 23.5s-126.5 39.167 -184.5 70.5zM1057 915.003l-323.999 -462.001c35.333 -54 71.666 -94.167 108.999 -120.5s77 -39.5 119 -39.5c55.333 0 99.166 21.833 131.499 65.5s48.5 103.834 48.5 180.501
c0 58 -7.16699 118.667 -21.5 182s-35.166 128 -62.499 194zM975 1067c-26.667 40.667 -56.502 71.001 -89.502 91.001s-70.167 30 -111.5 30c-53.333 0 -96.666 -22.333 -129.999 -67s-50 -104.334 -50 -179.001c0 -44 5.33301 -93.667 16 -149s26.334 -115 47.001 -179z
" />
    <glyph glyph-name="Ugrave" unicode="&#xd9;" horiz-adv-x="1767" 
d="M205 991l0.00292969 23.0049c0 69.333 -4 114.666 -12 135.999s-23.667 40 -47 56c-2 1.33301 -4.66699 3 -8 5c-51.333 33.333 -77 68.666 -77 105.999c0 54.667 39.833 97.334 119.5 128.001s191.5 46 335.5 46c126 0 216.167 -11 270.5 -33s81.5 -58 81.5 -108
c0 -48 -29 -88.667 -87 -122c-11.333 -6.66699 -20 -12 -26 -16c-15.333 -10.667 -26.5 -56.167 -33.5 -136.5s-10.5 -203.833 -10.5 -370.5c0 -140 21 -238.833 63 -296.5s112.333 -86.5 211 -86.5c52.667 0 98.667 8.16699 138 24.5s70.666 40.166 93.999 71.499
c20 28 34.167 73.333 42.5 136s12.5 175.667 12.5 339v63c0 106 -2.33301 177.333 -7 214s-12.667 61 -24 73c-5.33301 6 -27.833 18.5 -67.5 37.5s-59.5 44.833 -59.5 77.5c0 41.333 30.167 73.833 90.5 97.5s143.5 35.5 249.5 35.5c92 0 162.5 -11.5 211.5 -34.5
s73.5 -55.833 73.5 -98.5c0 -40.667 -24.667 -75.334 -74 -104.001l-23 -13c-31.333 -20.667 -50.333 -74.667 -57 -162c-0.666992 -8.66699 -1.33398 -15.334 -2.00098 -20.001c-4 -66 -7.66699 -157.333 -11 -274c-6.66699 -252.667 -27.667 -419.334 -63 -500.001
c-46.667 -106.667 -123.834 -186.667 -231.501 -240s-245.5 -80 -413.5 -80c-203.333 0 -364 46.833 -482 140.5s-177 220.167 -177 379.5v506zM984.003 1607l-377.999 91.001c-28.667 6.66699 -47.667 14.167 -57 22.5s-14 21.166 -14 38.499
c0 40.667 8.66699 78.167 26 112.5s35.666 51.5 54.999 51.5c14.667 0 35 -4.33301 61 -13l10 -4l343 -122c46 -16.667 74.667 -29.667 86 -39s17 -21 17 -35c0 -34 -7.33301 -61.333 -22 -82s-34 -31 -58 -31c-9.33301 0 -19.833 0.833008 -31.5 2.5
s-24.167 4.16699 -37.5 7.5z" />
    <glyph glyph-name="Uacute" unicode="&#xda;" horiz-adv-x="1767" 
d="M205 991l0.00292969 23.0049c0 69.333 -4 114.666 -12 135.999s-23.667 40 -47 56c-2 1.33301 -4.66699 3 -8 5c-51.333 33.333 -77 68.666 -77 105.999c0 54.667 39.833 97.334 119.5 128.001s191.5 46 335.5 46c126 0 216.167 -11 270.5 -33s81.5 -58 81.5 -108
c0 -48 -29 -88.667 -87 -122c-11.333 -6.66699 -20 -12 -26 -16c-15.333 -10.667 -26.5 -56.167 -33.5 -136.5s-10.5 -203.833 -10.5 -370.5c0 -140 21 -238.833 63 -296.5s112.333 -86.5 211 -86.5c52.667 0 98.667 8.16699 138 24.5s70.666 40.166 93.999 71.499
c20 28 34.167 73.333 42.5 136s12.5 175.667 12.5 339v63c0 106 -2.33301 177.333 -7 214s-12.667 61 -24 73c-5.33301 6 -27.833 18.5 -67.5 37.5s-59.5 44.833 -59.5 77.5c0 41.333 30.167 73.833 90.5 97.5s143.5 35.5 249.5 35.5c92 0 162.5 -11.5 211.5 -34.5
s73.5 -55.833 73.5 -98.5c0 -40.667 -24.667 -75.334 -74 -104.001l-23 -13c-31.333 -20.667 -50.333 -74.667 -57 -162c-0.666992 -8.66699 -1.33398 -15.334 -2.00098 -20.001c-4 -66 -7.66699 -157.333 -11 -274c-6.66699 -252.667 -27.667 -419.334 -63 -500.001
c-46.667 -106.667 -123.834 -186.667 -231.501 -240s-245.5 -80 -413.5 -80c-203.333 0 -364 46.833 -482 140.5s-177 220.167 -177 379.5v506zM831.003 1607c-13.333 -3.33301 -26.166 -5.83398 -38.499 -7.50098s-23.166 -2.5 -32.499 -2.5c-24 0 -43 10.333 -57 31
s-21 48 -21 82c0 14 5.66699 25.667 17 35s39.666 22.333 84.999 39l342 122c2 0.666992 5.33301 2 10 4c26 8.66699 46 13 60 13c20 0 39 -17.167 57 -51.5s27 -71.833 27 -112.5c0 -17.333 -4.83301 -30.166 -14.5 -38.499s-28.834 -15.833 -57.501 -22.5z" />
    <glyph glyph-name="Ucircumflex" unicode="&#xdb;" horiz-adv-x="1767" 
d="M205 991l0.00292969 23.0049c0 69.333 -4 114.666 -12 135.999s-23.667 40 -47 56c-2 1.33301 -4.66699 3 -8 5c-51.333 33.333 -77 68.666 -77 105.999c0 54.667 39.833 97.334 119.5 128.001s191.5 46 335.5 46c126 0 216.167 -11 270.5 -33s81.5 -58 81.5 -108
c0 -48 -29 -88.667 -87 -122c-11.333 -6.66699 -20 -12 -26 -16c-15.333 -10.667 -26.5 -56.167 -33.5 -136.5s-10.5 -203.833 -10.5 -370.5c0 -140 21 -238.833 63 -296.5s112.333 -86.5 211 -86.5c52.667 0 98.667 8.16699 138 24.5s70.666 40.166 93.999 71.499
c20 28 34.167 73.333 42.5 136s12.5 175.667 12.5 339v63c0 106 -2.33301 177.333 -7 214s-12.667 61 -24 73c-5.33301 6 -27.833 18.5 -67.5 37.5s-59.5 44.833 -59.5 77.5c0 41.333 30.167 73.833 90.5 97.5s143.5 35.5 249.5 35.5c92 0 162.5 -11.5 211.5 -34.5
s73.5 -55.833 73.5 -98.5c0 -40.667 -24.667 -75.334 -74 -104.001l-23 -13c-31.333 -20.667 -50.333 -74.667 -57 -162c-0.666992 -8.66699 -1.33398 -15.334 -2.00098 -20.001c-4 -66 -7.66699 -157.333 -11 -274c-6.66699 -252.667 -27.667 -419.334 -63 -500.001
c-46.667 -106.667 -123.834 -186.667 -231.501 -240s-245.5 -80 -413.5 -80c-203.333 0 -364 46.833 -482 140.5s-177 220.167 -177 379.5v506zM909.003 1765l-71.0029 -78.001c-46.667 -50.667 -74.334 -78 -83.001 -82c-5.33301 -2 -17.166 -3.83301 -35.499 -5.5
s-39.166 -2.5 -62.499 -2.5c-39.333 0 -66.166 2.5 -80.499 7.5s-21.5 13.5 -21.5 25.5c0 6.66699 5 16.334 15 29.001l3 3l189 220c24.667 28.667 44.667 46 60 52s44.333 9 87 9c37.333 0 62.5 -2.83301 75.5 -8.5s28.167 -18.5 45.5 -38.5l205 -237
c4.66699 -6 8.16699 -12 10.5 -18s3.5 -11.667 3.5 -17c0 -10 -7.66699 -17 -23 -21s-45 -6 -89 -6h-25c-28 0 -48.167 3 -60.5 9s-24.166 16 -35.499 30z" />
    <glyph glyph-name="Udieresis" unicode="&#xdc;" horiz-adv-x="1767" 
d="M205 991l0.00292969 23.0049c0 69.333 -4 114.666 -12 135.999s-23.667 40 -47 56c-2 1.33301 -4.66699 3 -8 5c-51.333 33.333 -77 68.666 -77 105.999c0 54.667 39.833 97.334 119.5 128.001s191.5 46 335.5 46c126 0 216.167 -11 270.5 -33s81.5 -58 81.5 -108
c0 -48 -29 -88.667 -87 -122c-11.333 -6.66699 -20 -12 -26 -16c-15.333 -10.667 -26.5 -56.167 -33.5 -136.5s-10.5 -203.833 -10.5 -370.5c0 -140 21 -238.833 63 -296.5s112.333 -86.5 211 -86.5c52.667 0 98.667 8.16699 138 24.5s70.666 40.166 93.999 71.499
c20 28 34.167 73.333 42.5 136s12.5 175.667 12.5 339v63c0 106 -2.33301 177.333 -7 214s-12.667 61 -24 73c-5.33301 6 -27.833 18.5 -67.5 37.5s-59.5 44.833 -59.5 77.5c0 41.333 30.167 73.833 90.5 97.5s143.5 35.5 249.5 35.5c92 0 162.5 -11.5 211.5 -34.5
s73.5 -55.833 73.5 -98.5c0 -40.667 -24.667 -75.334 -74 -104.001l-23 -13c-31.333 -20.667 -50.333 -74.667 -57 -162c-0.666992 -8.66699 -1.33398 -15.334 -2.00098 -20.001c-4 -66 -7.66699 -157.333 -11 -274c-6.66699 -252.667 -27.667 -419.334 -63 -500.001
c-46.667 -106.667 -123.834 -186.667 -231.501 -240s-245.5 -80 -413.5 -80c-203.333 0 -364 46.833 -482 140.5s-177 220.167 -177 379.5v506zM989.003 1734c0 39.333 13.167 72.166 39.5 98.499s58.833 39.5 97.5 39.5c39.333 0 72.166 -13.167 98.499 -39.5
s39.5 -59.166 39.5 -98.499c0 -38.667 -13.167 -71.167 -39.5 -97.5s-59.166 -39.5 -98.499 -39.5c-38 0 -70.333 13.333 -97 40s-40 59 -40 97zM541.003 1734c0 38.667 13.333 71.667 40 99s59 41 97 41c39.333 0 72 -13.333 98 -40s39 -60 39 -100
c0 -38.667 -13.167 -71.167 -39.5 -97.5s-58.833 -39.5 -97.5 -39.5c-38 0 -70.333 13.5 -97 40.5s-40 59.167 -40 96.5z" />
    <glyph glyph-name="Yacute" unicode="&#xdd;" horiz-adv-x="1481" 
d="M1108 965c-4 -5.33301 -10.6689 -13.3359 -20.002 -24.0029c-37.333 -44.667 -61.333 -82 -72 -112c-7.33301 -20 -12.666 -44.5 -15.999 -73.5s-5 -71.833 -5 -128.5v-49c0 -95.333 3.83301 -166.833 11.5 -214.5s19.834 -77.5 36.501 -89.5
c6.66699 -4.66699 17.667 -11 33 -19c50 -25.333 75 -59.666 75 -102.999c0 -59.333 -32.167 -102.166 -96.5 -128.499s-168.833 -39.5 -313.5 -39.5c-134 0 -236.333 13.667 -307 41s-106 66.666 -106 117.999c0 22.667 5.83301 42 17.5 58s37.167 35 76.5 57
c19.333 10.667 32 19.167 38 25.5s10.333 14.166 13 23.499c4.66699 20.667 8.16699 58.334 10.5 113.001s3.5 122.334 3.5 203.001c0 42 -0.666992 74.5 -2 97.5s-4 41.167 -8 54.5c-6.66699 23.333 -28.667 58.666 -66 105.999l-20 26l-203 264
c-25.333 33.333 -59.333 56.333 -102 69c-15.333 4 -26 7.66699 -32 11c-21.333 12 -37.333 26.5 -48 43.5s-16 36.833 -16 59.5c0 54.667 28.167 92.834 84.5 114.501s161.833 32.5 316.5 32.5c155.333 0 263.166 -10.333 323.499 -31s90.5 -56 90.5 -106
c0 -26 -8.5 -50.667 -25.5 -74s-25.5 -38.333 -25.5 -45c0 -8.66699 3.83301 -21.334 11.5 -38.001s18.167 -34.667 31.5 -54c16 -24 30 -41.333 42 -52s23 -16 33 -16c16 0 37.833 20.5 65.5 61.5s41.5 73.167 41.5 96.5c0 6 -9.5 22.833 -28.5 50.5
s-28.5 53.167 -28.5 76.5c0 42 25.5 74 76.5 96s125.167 33 222.5 33c108.667 0 186 -9.66699 232 -29s69 -51.333 69 -96c0 -25.333 -6.83301 -46.166 -20.5 -62.499s-34.167 -28.166 -61.5 -35.499c-5.33301 -1.33301 -13.333 -3 -24 -5
c-33.333 -6.66699 -57.666 -16 -72.999 -28c-26.667 -20 -67 -64.333 -121 -133l-2 -3zM652.998 1607c-13.333 -3.33301 -26.166 -5.83398 -38.499 -7.50098s-23.166 -2.5 -32.499 -2.5c-24 0 -43 10.333 -57 31s-21 48 -21 82c0 14 5.66699 25.667 17 35
s39.666 22.333 84.999 39l342 122c2 0.666992 5.33301 2 10 4c26 8.66699 46 13 60 13c20 0 39 -17.167 57 -51.5s27 -71.833 27 -112.5c0 -17.333 -4.83301 -30.166 -14.5 -38.499s-28.834 -15.833 -57.501 -22.5z" />
    <glyph glyph-name="Thorn" unicode="&#xde;" horiz-adv-x="1466" 
d="M729 329c2.66699 -40.667 31.6641 -75.6689 86.9971 -105.002c4 -2 7 -3.66699 9 -5c13.333 -7.33301 23.833 -18.166 31.5 -32.499s11.5 -30.166 11.5 -47.499c0 -54.667 -31.667 -94.5 -95 -119.5s-164.666 -37.5 -303.999 -37.5
c-146.667 0 -254.334 13.167 -323.001 39.5s-103 67.5 -103 123.5c0 37.333 20.333 67.833 61 91.5s63.334 39.167 68.001 46.5c12 18 20.5 80.5 25.5 187.5s7.5 308.5 7.5 604.5c0 60.667 -5.16699 103.834 -15.5 129.501s-28.833 44.5 -55.5 56.5c-8 4 -19 8.66699 -33 14
c-54 22 -81 53.667 -81 95c0 46.667 27.333 78.834 82 96.501s172.334 26.5 353.001 26.5s298.5 -8.83301 353.5 -26.5s82.5 -49.834 82.5 -96.501c0 -24.667 -5.66699 -43.834 -17 -57.501s-37 -28.5 -77 -44.5l-4 -2c-42.667 -17.333 -64 -41.333 -64 -72
c23.333 2 46.166 3.5 68.499 4.5s44.5 1.5 66.5 1.5c194.667 0 341.334 -35.333 440.001 -106s148 -176 148 -316c0 -143.333 -52.167 -254.833 -156.5 -334.5s-250.833 -119.5 -439.5 -119.5c-20.667 0 -41.667 0.5 -63 1.5s-42.666 2.16699 -63.999 3.5zM706.997 749.998
l-0.000976562 -67.999c0 -58.667 2.33301 -94.834 7 -108.501s14.334 -20.5 29.001 -20.5c58.667 0 104.167 17.333 136.5 52s48.5 83.667 48.5 147c0 68 -14.667 120.833 -44 158.5s-70 56.5 -122 56.5c-22 0 -36.667 -9.5 -44 -28.5s-11 -64.167 -11 -135.5v-53z" />
    <glyph glyph-name="germandbls" unicode="&#xdf;" horiz-adv-x="1427" 
d="M147 723l-4 233.001v37c0 82 4.83301 147.5 14.5 196.5s25.5 90.167 47.5 123.5c40 60.667 98.333 106.5 175 137.5s170.667 46.5 282 46.5c168.667 0 299.167 -32.833 391.5 -98.5s138.5 -158.5 138.5 -278.5c0 -46 -8.33301 -87.5 -25 -124.5
s-41.667 -69.833 -75 -98.5c-4.66699 -3.33301 -11.334 -7.66602 -20.001 -12.999c-14 -8.66699 -21 -17.334 -21 -26.001c0 -11.333 13.5 -19.833 40.5 -25.5s48.833 -12.167 65.5 -19.5c70 -30 122 -74.333 156 -133s51 -132.334 51 -221.001
c0 -143.333 -38.5 -256.333 -115.5 -339s-181.833 -124 -314.5 -124c-79.333 0 -145.333 16.5 -198 49.5s-79 73.167 -79 120.5c0 41.333 24.333 71.333 73 90c14.667 6 25 10.667 31 14c38.667 20.667 68.667 51.334 90 92.001s32 88 32 142c0 45.333 -6.5 86 -19.5 122
s-32.5 67 -58.5 93c-15.333 14.667 -42.666 31.167 -81.999 49.5s-59 41.5 -59 69.5c0 26.667 17.333 49 52 67c11.333 6 20 11 26 15c20 14 34.833 33.5 44.5 58.5s14.5 56.5 14.5 94.5c0 56.667 -11.667 102.334 -35 137.001s-54 52 -92 52
c-29.333 0 -50 -6.66699 -62 -20s-18 -37 -18 -71v-12l14 -868c0 -10.667 0.333008 -25.834 1 -45.501s1 -34.5 1 -44.5c0 -84 -19.5 -141.167 -58.5 -171.5s-119.167 -45.5 -240.5 -45.5c-105.333 0 -184.166 12.5 -236.499 37.5s-78.5 62.833 -78.5 113.5
c0 36 15.667 64.167 47 84.5s49 33.166 53 38.499c17.333 22 30.166 65.167 38.499 129.5s12.5 150.833 12.5 259.5v76z" />
    <glyph glyph-name="agrave" unicode="&#xe0;" horiz-adv-x="1245" 
d="M635 426c0 23.333 -2.83398 38 -8.50098 44s-20.5 9 -44.5 9c-33.333 0 -59.166 -11.333 -77.499 -34s-27.5 -55 -27.5 -97c0 -39.333 7 -69.333 21 -90s34.333 -31 61 -31c29.333 0 49.333 11.333 60 34s16 77.667 16 165zM635.999 633
c0.666992 4 1.33398 9.66699 2.00098 17c2 39.333 3 67.666 3 84.999c0 68 -7 116.833 -21 146.5s-37 44.5 -69 44.5c-35.333 0 -75.666 -28.667 -120.999 -86l-18 -22c-31.333 -38 -61.166 -65.333 -89.499 -82s-58.833 -25 -91.5 -25c-36 0 -66.167 12.5 -90.5 37.5
s-36.5 56.833 -36.5 95.5c0 74.667 48.5 137.667 145.5 189s219.167 77 366.5 77c163.333 0 287.166 -31.167 371.499 -93.5s126.5 -153.5 126.5 -273.5c0 -31.333 -1 -73.5 -3 -126.5s-3 -89.833 -3 -110.5v-31c0 -84 3.66699 -135.667 11 -155s24 -32.333 50 -39
c20 -5.33301 35.333 -14.166 46 -26.499s16 -27.5 16 -45.5c0 -56 -34.833 -109 -104.5 -159s-149.5 -75 -239.5 -75c-31.333 0 -57.333 3.5 -78 10.5s-39 17.833 -55 32.5l-34 35c-22 24.667 -38 37 -48 37c-9.33301 0 -22 -6.33301 -38 -19
c-6.66699 -5.33301 -12 -9.33301 -16 -12c-39.333 -28 -76.333 -47.5 -111 -58.5s-75.334 -16.5 -122.001 -16.5c-109.333 0 -197 29.5 -263 88.5s-99 136.5 -99 232.5c0 98 43.167 180.167 129.5 246.5s193.166 99.5 320.499 99.5c21.333 0 45.5 -1.5 72.5 -4.5
s57.167 -7.5 90.5 -13.5zM709.999 1212l-377.999 91.001c-28.667 6.66699 -47.667 14.167 -57 22.5s-14 21.166 -14 38.499c0 40.667 8.66699 78.167 26 112.5s35.666 51.5 54.999 51.5c14.667 0 35 -4.33301 61 -13l10 -4l343 -122c46 -16.667 74.667 -29.667 86 -39
s17 -21 17 -35c0 -34 -7.33301 -61.333 -22 -82s-34 -31 -58 -31c-9.33301 0 -19.833 0.833008 -31.5 2.5s-24.167 4.16699 -37.5 7.5z" />
    <glyph glyph-name="aacute" unicode="&#xe1;" horiz-adv-x="1245" 
d="M635 426c0 23.333 -2.83398 38 -8.50098 44s-20.5 9 -44.5 9c-33.333 0 -59.166 -11.333 -77.499 -34s-27.5 -55 -27.5 -97c0 -39.333 7 -69.333 21 -90s34.333 -31 61 -31c29.333 0 49.333 11.333 60 34s16 77.667 16 165zM635.999 633
c0.666992 4 1.33398 9.66699 2.00098 17c2 39.333 3 67.666 3 84.999c0 68 -7 116.833 -21 146.5s-37 44.5 -69 44.5c-35.333 0 -75.666 -28.667 -120.999 -86l-18 -22c-31.333 -38 -61.166 -65.333 -89.499 -82s-58.833 -25 -91.5 -25c-36 0 -66.167 12.5 -90.5 37.5
s-36.5 56.833 -36.5 95.5c0 74.667 48.5 137.667 145.5 189s219.167 77 366.5 77c163.333 0 287.166 -31.167 371.499 -93.5s126.5 -153.5 126.5 -273.5c0 -31.333 -1 -73.5 -3 -126.5s-3 -89.833 -3 -110.5v-31c0 -84 3.66699 -135.667 11 -155s24 -32.333 50 -39
c20 -5.33301 35.333 -14.166 46 -26.499s16 -27.5 16 -45.5c0 -56 -34.833 -109 -104.5 -159s-149.5 -75 -239.5 -75c-31.333 0 -57.333 3.5 -78 10.5s-39 17.833 -55 32.5l-34 35c-22 24.667 -38 37 -48 37c-9.33301 0 -22 -6.33301 -38 -19
c-6.66699 -5.33301 -12 -9.33301 -16 -12c-39.333 -28 -76.333 -47.5 -111 -58.5s-75.334 -16.5 -122.001 -16.5c-109.333 0 -197 29.5 -263 88.5s-99 136.5 -99 232.5c0 98 43.167 180.167 129.5 246.5s193.166 99.5 320.499 99.5c21.333 0 45.5 -1.5 72.5 -4.5
s57.167 -7.5 90.5 -13.5zM556.999 1212c-13.333 -3.33301 -26.166 -5.83398 -38.499 -7.50098s-23.166 -2.5 -32.499 -2.5c-24 0 -43 10.333 -57 31s-21 48 -21 82c0 14 5.66699 25.667 17 35s39.666 22.333 84.999 39l342 122c2 0.666992 5.33301 2 10 4
c26 8.66699 46 13 60 13c20 0 39 -17.167 57 -51.5s27 -71.833 27 -112.5c0 -17.333 -4.83301 -30.166 -14.5 -38.499s-28.834 -15.833 -57.501 -22.5z" />
    <glyph glyph-name="acircumflex" unicode="&#xe2;" horiz-adv-x="1245" 
d="M635 426c0 23.333 -2.83398 38 -8.50098 44s-20.5 9 -44.5 9c-33.333 0 -59.166 -11.333 -77.499 -34s-27.5 -55 -27.5 -97c0 -39.333 7 -69.333 21 -90s34.333 -31 61 -31c29.333 0 49.333 11.333 60 34s16 77.667 16 165zM635.999 633
c0.666992 4 1.33398 9.66699 2.00098 17c2 39.333 3 67.666 3 84.999c0 68 -7 116.833 -21 146.5s-37 44.5 -69 44.5c-35.333 0 -75.666 -28.667 -120.999 -86l-18 -22c-31.333 -38 -61.166 -65.333 -89.499 -82s-58.833 -25 -91.5 -25c-36 0 -66.167 12.5 -90.5 37.5
s-36.5 56.833 -36.5 95.5c0 74.667 48.5 137.667 145.5 189s219.167 77 366.5 77c163.333 0 287.166 -31.167 371.499 -93.5s126.5 -153.5 126.5 -273.5c0 -31.333 -1 -73.5 -3 -126.5s-3 -89.833 -3 -110.5v-31c0 -84 3.66699 -135.667 11 -155s24 -32.333 50 -39
c20 -5.33301 35.333 -14.166 46 -26.499s16 -27.5 16 -45.5c0 -56 -34.833 -109 -104.5 -159s-149.5 -75 -239.5 -75c-31.333 0 -57.333 3.5 -78 10.5s-39 17.833 -55 32.5l-34 35c-22 24.667 -38 37 -48 37c-9.33301 0 -22 -6.33301 -38 -19
c-6.66699 -5.33301 -12 -9.33301 -16 -12c-39.333 -28 -76.333 -47.5 -111 -58.5s-75.334 -16.5 -122.001 -16.5c-109.333 0 -197 29.5 -263 88.5s-99 136.5 -99 232.5c0 98 43.167 180.167 129.5 246.5s193.166 99.5 320.499 99.5c21.333 0 45.5 -1.5 72.5 -4.5
s57.167 -7.5 90.5 -13.5zM634.999 1370l-71.0029 -78.001c-46.667 -50.667 -74.334 -78 -83.001 -82c-5.33301 -2 -17.166 -3.83301 -35.499 -5.5s-39.166 -2.5 -62.499 -2.5c-39.333 0 -66.166 2.5 -80.499 7.5s-21.5 13.5 -21.5 25.5c0 6.66699 5 16.334 15 29.001l3 3
l189 220c24.667 28.667 44.667 46 60 52s44.333 9 87 9c37.333 0 62.5 -2.83301 75.5 -8.5s28.167 -18.5 45.5 -38.5l205 -237c4.66699 -6 8.16699 -12 10.5 -18s3.5 -11.667 3.5 -17c0 -10 -7.66699 -17 -23 -21s-45 -6 -89 -6h-25c-28 0 -48.167 3 -60.5 9
s-24.166 16 -35.499 30z" />
    <glyph glyph-name="atilde" unicode="&#xe3;" horiz-adv-x="1245" 
d="M635 426c0 23.333 -2.83398 38 -8.50098 44s-20.5 9 -44.5 9c-33.333 0 -59.166 -11.333 -77.499 -34s-27.5 -55 -27.5 -97c0 -39.333 7 -69.333 21 -90s34.333 -31 61 -31c29.333 0 49.333 11.333 60 34s16 77.667 16 165zM635.999 633
c0.666992 4 1.33398 9.66699 2.00098 17c2 39.333 3 67.666 3 84.999c0 68 -7 116.833 -21 146.5s-37 44.5 -69 44.5c-35.333 0 -75.666 -28.667 -120.999 -86l-18 -22c-31.333 -38 -61.166 -65.333 -89.499 -82s-58.833 -25 -91.5 -25c-36 0 -66.167 12.5 -90.5 37.5
s-36.5 56.833 -36.5 95.5c0 74.667 48.5 137.667 145.5 189s219.167 77 366.5 77c163.333 0 287.166 -31.167 371.499 -93.5s126.5 -153.5 126.5 -273.5c0 -31.333 -1 -73.5 -3 -126.5s-3 -89.833 -3 -110.5v-31c0 -84 3.66699 -135.667 11 -155s24 -32.333 50 -39
c20 -5.33301 35.333 -14.166 46 -26.499s16 -27.5 16 -45.5c0 -56 -34.833 -109 -104.5 -159s-149.5 -75 -239.5 -75c-31.333 0 -57.333 3.5 -78 10.5s-39 17.833 -55 32.5l-34 35c-22 24.667 -38 37 -48 37c-9.33301 0 -22 -6.33301 -38 -19
c-6.66699 -5.33301 -12 -9.33301 -16 -12c-39.333 -28 -76.333 -47.5 -111 -58.5s-75.334 -16.5 -122.001 -16.5c-109.333 0 -197 29.5 -263 88.5s-99 136.5 -99 232.5c0 98 43.167 180.167 129.5 246.5s193.166 99.5 320.499 99.5c21.333 0 45.5 -1.5 72.5 -4.5
s57.167 -7.5 90.5 -13.5zM769.999 1233c-42 0 -100.332 13.666 -174.999 40.999s-127.334 41 -158.001 41c-22.667 0 -41.167 -5.5 -55.5 -16.5s-28.833 -32.833 -43.5 -65.5c-5.33301 -13.333 -11 -21.833 -17 -25.5s-14.667 -5.5 -26 -5.5
c-16 0 -29.833 3.83301 -41.5 11.5s-17.5 16.834 -17.5 27.501c0 14.667 5.5 36 16.5 64s25.167 56 42.5 84c27.333 42 55.166 73.167 83.499 93.5s58.5 30.5 90.5 30.5c28.667 0 81.167 -13.833 157.5 -41.5s137.166 -41.5 182.499 -41.5c28.667 0 50.834 5 66.501 15
s29.834 30 42.501 60c4.66699 12 10 20.167 16 24.5s14.333 6.5 25 6.5c24 0 39.833 -2.83301 47.5 -8.5s11.5 -16.5 11.5 -32.5c0 -62.667 -25.333 -122 -76 -178s-108 -84 -172 -84z" />
    <glyph glyph-name="adieresis" unicode="&#xe4;" horiz-adv-x="1245" 
d="M635 426c0 23.333 -2.83398 38 -8.50098 44s-20.5 9 -44.5 9c-33.333 0 -59.166 -11.333 -77.499 -34s-27.5 -55 -27.5 -97c0 -39.333 7 -69.333 21 -90s34.333 -31 61 -31c29.333 0 49.333 11.333 60 34s16 77.667 16 165zM635.999 633
c0.666992 4 1.33398 9.66699 2.00098 17c2 39.333 3 67.666 3 84.999c0 68 -7 116.833 -21 146.5s-37 44.5 -69 44.5c-35.333 0 -75.666 -28.667 -120.999 -86l-18 -22c-31.333 -38 -61.166 -65.333 -89.499 -82s-58.833 -25 -91.5 -25c-36 0 -66.167 12.5 -90.5 37.5
s-36.5 56.833 -36.5 95.5c0 74.667 48.5 137.667 145.5 189s219.167 77 366.5 77c163.333 0 287.166 -31.167 371.499 -93.5s126.5 -153.5 126.5 -273.5c0 -31.333 -1 -73.5 -3 -126.5s-3 -89.833 -3 -110.5v-31c0 -84 3.66699 -135.667 11 -155s24 -32.333 50 -39
c20 -5.33301 35.333 -14.166 46 -26.499s16 -27.5 16 -45.5c0 -56 -34.833 -109 -104.5 -159s-149.5 -75 -239.5 -75c-31.333 0 -57.333 3.5 -78 10.5s-39 17.833 -55 32.5l-34 35c-22 24.667 -38 37 -48 37c-9.33301 0 -22 -6.33301 -38 -19
c-6.66699 -5.33301 -12 -9.33301 -16 -12c-39.333 -28 -76.333 -47.5 -111 -58.5s-75.334 -16.5 -122.001 -16.5c-109.333 0 -197 29.5 -263 88.5s-99 136.5 -99 232.5c0 98 43.167 180.167 129.5 246.5s193.166 99.5 320.499 99.5c21.333 0 45.5 -1.5 72.5 -4.5
s57.167 -7.5 90.5 -13.5zM714.999 1339c0 39.333 13.167 72.166 39.5 98.499s58.833 39.5 97.5 39.5c39.333 0 72.166 -13.167 98.499 -39.5s39.5 -59.166 39.5 -98.499c0 -38.667 -13.167 -71.167 -39.5 -97.5s-59.166 -39.5 -98.499 -39.5c-38 0 -70.333 13.333 -97 40
s-40 59 -40 97zM266.999 1339c0 38.667 13.333 71.667 40 99s59 41 97 41c39.333 0 72 -13.333 98 -40s39 -60 39 -100c0 -38.667 -13.167 -71.167 -39.5 -97.5s-58.833 -39.5 -97.5 -39.5c-38 0 -70.333 13.5 -97 40.5s-40 59.167 -40 96.5z" />
    <glyph glyph-name="aring" unicode="&#xe5;" horiz-adv-x="1245" 
d="M516 1460c0 -32 11 -58.999 33 -80.999s49.333 -33 82 -33c31.333 0 58.166 11.167 80.499 33.5s33.5 49.166 33.5 80.499c0 32 -11.167 59.167 -33.5 81.5s-49.166 33.5 -80.499 33.5c-32 0 -59.167 -11.167 -81.5 -33.5s-33.5 -49.5 -33.5 -81.5zM346 1460
c0 80 27.333 147.5 82 202.5s121.667 82.5 201 82.5c80 0 147.667 -27.5 203 -82.5s83 -122.5 83 -202.5s-27.5 -147.333 -82.5 -202s-122.833 -82 -203.5 -82c-80 0 -147.167 27.333 -201.5 82s-81.5 122 -81.5 202zM635 426.001c0 23.333 -2.83398 38 -8.50098 44
s-20.5 9 -44.5 9c-33.333 0 -59.166 -11.333 -77.499 -34s-27.5 -55 -27.5 -97c0 -39.333 7 -69.333 21 -90s34.333 -31 61 -31c29.333 0 49.333 11.333 60 34s16 77.667 16 165zM635.999 633.001c0.666992 4 1.33398 9.66699 2.00098 17c2 39.333 3 67.666 3 84.999
c0 68 -7 116.833 -21 146.5s-37 44.5 -69 44.5c-35.333 0 -75.666 -28.667 -120.999 -86l-18 -22c-31.333 -38 -61.166 -65.333 -89.499 -82s-58.833 -25 -91.5 -25c-36 0 -66.167 12.5 -90.5 37.5s-36.5 56.833 -36.5 95.5c0 74.667 48.5 137.667 145.5 189
s219.167 77 366.5 77c163.333 0 287.166 -31.167 371.499 -93.5s126.5 -153.5 126.5 -273.5c0 -31.333 -1 -73.5 -3 -126.5s-3 -89.833 -3 -110.5v-31c0 -84 3.66699 -135.667 11 -155s24 -32.333 50 -39c20 -5.33301 35.333 -14.166 46 -26.499s16 -27.5 16 -45.5
c0 -56 -34.833 -109 -104.5 -159s-149.5 -75 -239.5 -75c-31.333 0 -57.333 3.5 -78 10.5s-39 17.833 -55 32.5l-34 35c-22 24.667 -38 37 -48 37c-9.33301 0 -22 -6.33301 -38 -19c-6.66699 -5.33301 -12 -9.33301 -16 -12c-39.333 -28 -76.333 -47.5 -111 -58.5
s-75.334 -16.5 -122.001 -16.5c-109.333 0 -197 29.5 -263 88.5s-99 136.5 -99 232.5c0 98 43.167 180.167 129.5 246.5s193.166 99.5 320.499 99.5c21.333 0 45.5 -1.5 72.5 -4.5s57.167 -7.5 90.5 -13.5z" />
    </font>
</defs>
</svg>
