<?xml version="1.0" standalone="no"?>
<!DOCTYPE svg PUBLIC "-//W3C//DTD SVG 1.1//EN" "http://www.w3.org/Graphics/SVG/1.1/DTD/svg11.dtd" >
<svg>
<metadata>
Created by FontForge 20090914 at Mon Oct 29 18:27:58 2012
 By www-data
URW Software, Copyright 1994 by URW
</metadata>
<defs>
<font id="DiskusD-Medi" horiz-adv-x="1024" >
  <font-face 
    font-family="DiskusDMed"
    font-weight="400"
    font-stretch="normal"
    units-per-em="2048"
    panose-1="3 2 7 2 4 8 3 7 2 5"
    ascent="1611"
    descent="-437"
    x-height="561"
    cap-height="1438"
    bbox="-247.002 -641 3073 1775"
    underline-thickness="115"
    underline-position="-143"
    unicode-range="U+0020-U+F002"
  />
<missing-glyph horiz-adv-x="512" 
d="M51 0v1365h410v-1365h-410zM410 51v1263h-308v-1263h308z" />
    <glyph glyph-name=".notdef" horiz-adv-x="512" 
d="M51 0v1365h410v-1365h-410zM410 51v1263h-308v-1263h308z" />
    <glyph glyph-name="space" unicode=" " horiz-adv-x="512" 
 />
    <glyph glyph-name="exclam" unicode="!" horiz-adv-x="499" 
d="M635 1114l2 -22l-327 -843l-104 -35h-26l254 812c66.667 26 133.667 55.333 201 88zM209 125c26 0 47.333 -8.5 64 -25.5s25 -38.167 25 -63.5c0 -24 -8.66699 -44.667 -26 -62s-38 -26 -62 -26s-44.833 8.83301 -62.5 26.5s-26.5 38.5 -26.5 62.5s8.5 44.5 25.5 61.5
s37.833 25.833 62.5 26.5z" />
    <glyph glyph-name="quotedbl" unicode="&#x22;" horiz-adv-x="662" 
d="M665 1365l4 -9l-152 -337l-99 -14l97 325c49.333 10 99.333 21.667 150 35zM928 1365l4 -9l-152 -337l-99 -14l97 325c49.333 10 99.333 21.667 150 35z" />
    <glyph glyph-name="numbersign" unicode="#" horiz-adv-x="956" 
d="M374 570h-180l15 65h189l126 348h72l-126 -348h342l127 348h72l-127 -348h201l-15 -65h-210l-105 -290h201l-15 -65h-210l-128 -352h-72l128 352h-342l-128 -352h-72l128 352h-180l14 65h190zM340 280h343l105 290h-344z" />
    <glyph glyph-name="dollar" unicode="$" horiz-adv-x="1229" 
d="M366 -221l71.999 197.001c-41.333 -1.33301 -74.333 -2 -99 -2c-88 0 -164.833 8.16699 -230.5 24.5s-98.5 35.5 -98.5 57.5c0 6.66699 2.33301 12.167 7 16.5s19.334 15.5 44.001 33.5c50 36.667 85 66.667 105 90c9.33301 -7.33301 36 -12.333 80 -15
c49.333 -2.66699 84.666 -5 105.999 -7l-28 -68l157 -12l197 541l-50 16c-152.667 47.333 -229 120.666 -229 219.999s72.333 202 217 308c83.333 60.667 189.666 114.667 318.999 162l102 281l48 -18l-89 -244c80 22.667 148 34 204 34
c52.667 0 94.834 -10.667 126.501 -32s47.5 -49.666 47.5 -84.999c0 -40 -27 -90.167 -81 -150.5s-124.333 -118.5 -211 -174.5l-11 12c40.667 34 68.334 62.667 83.001 86s22 50.666 22 81.999c0 43.333 -18.667 77.833 -56 103.5s-88.333 39.834 -153 42.501l-167 -458
l193 -65c18.667 -6.66699 41.5 -21.834 68.5 -45.501s48.167 -47.167 63.5 -70.5c26.667 -40.667 40 -88.667 40 -144c0 -73.333 -26.667 -146 -80 -218s-126 -133.333 -218 -184c-108 -59.333 -232.333 -97.333 -373 -114l-79 -217zM726.999 620.001l-193.001 -532.001
c92 0 158 3.16699 198 9.5s79.667 20.5 119 42.5c86.667 47.333 130 123 130 227c0 46 -9 84.333 -27 115c-11.333 18 -26.666 36.333 -45.999 55s-35 30.334 -47 35.001zM750.998 837l160 439c-65.333 -6 -128.333 -28 -189 -66c-84 -52.667 -126 -116.667 -126 -192
c0 -86.667 51.667 -147 155 -181z" />
    <glyph glyph-name="percent" unicode="%" horiz-adv-x="1191" 
d="M691 1089c22.667 0 39.334 -10 50.001 -30s16 -51 16 -93s-12.833 -86.667 -38.5 -134s-59.834 -89.333 -102.501 -126c-38 -32 -79.167 -57.667 -123.5 -77s-84.833 -29 -121.5 -29c-85.333 0 -128 39.333 -128 118c0 48 14.333 95.333 43 142s69 88.667 121 126
c42 29.333 90 53.833 144 73.5s100.667 29.5 140 29.5zM527 1037c-38 -32.667 -68.9971 -72.168 -92.9971 -118.501s-36 -90.166 -36 -131.499c0 -33.333 10.167 -60.666 30.5 -81.999s46.166 -32 77.499 -32c35.333 0 63.333 14.667 84 44c26 37.333 39 86.333 39 147
c0 58 -9 100 -27 126c-8 12.667 -19.667 23 -35 31c-4.66699 2.66699 -12.334 6.16699 -23.001 10.5s-16.334 6.16602 -17.001 5.49902zM1116 1058c38 -1.33301 80 -2.66602 126 -3.99902c-81.333 -71.333 -172.333 -163 -273 -275l-527 -609
c-66 -77.333 -113 -135.333 -141 -174l-114 4c38.667 35.333 87.667 86.666 147 153.999l662 759c64.667 74.667 104.667 123 120 145zM1134 495.999c22 0 38.334 -10 49.001 -30s16 -51 16 -93s-12.833 -86.667 -38.5 -134s-59.834 -89.333 -102.501 -126
c-38 -32 -79.167 -57.667 -123.5 -77s-84.833 -29 -121.5 -29c-40.667 0 -72.167 10.333 -94.5 31s-33.5 49.667 -33.5 87c0 48 14.333 95.333 43 142s69 88.667 121 126c42 30 90 54.667 144 74s101 29 141 29zM969.004 443.999
c-38 -32 -68.9971 -71.332 -92.9971 -117.999s-36 -91 -36 -133c0 -32.667 10.167 -59.667 30.5 -81s46.166 -32 77.499 -32c35.333 0 63.333 14.667 84 44c26 38 39 87 39 147c0 57.333 -9 99.333 -27 126c-8 12 -19.667 22.333 -35 31
c-4.66699 2.66699 -12.334 6.16699 -23.001 10.5s-16.334 6.16602 -17.001 5.49902z" />
    <glyph glyph-name="ampersand" unicode="&#x26;" horiz-adv-x="978" 
d="M994 756l54 -70.0039c-0.666992 -48 -16 -103.5 -46 -166.5s-69.667 -122.833 -119 -179.5c40.667 -101.333 66.334 -205 77.001 -311c-66.667 -29.333 -134 -63.666 -202 -102.999l-9 3c10.667 38.667 16 72 16 100c0 38.667 -11 90.334 -33 155.001
c-66.667 -58 -137.5 -103 -212.5 -135s-148.167 -48 -219.5 -48c-65.333 0 -117.333 17.667 -156 53c-40.667 36.667 -61 84.334 -61 143.001c0 133.333 99 269 297 407l64 45l54 38c-23.333 68 -35 123.667 -35 167c0 56 16.5 112 49.5 168s78.5 106.333 136.5 151
c90.667 68.667 172.334 103 245.001 103c32.667 0 58.167 -8.66699 76.5 -26s27.5 -41.333 27.5 -72c0 -64.667 -38.667 -138.334 -116 -221.001c-24 -25.333 -44.833 -45.166 -62.5 -59.499s-67.834 -52.166 -150.501 -113.499c13.333 -34.667 29.666 -71.667 48.999 -111
l111 -219c5.33301 -10 11.333 -22 18 -36c8 -18.667 16.333 -36 25 -52c81.333 102 122 205.667 122 311c0 7.33301 -2 33 -6 77zM663 816.996c38.667 36.667 68.499 75.832 89.499 117.499s31.5 83.167 31.5 124.5c0 34.667 -6.16699 62.834 -18.5 84.501
s-28.166 32.5 -47.499 32.5c-24 0 -44.667 -17.667 -62 -53s-26 -78.333 -26 -129c0 -51.333 11 -110.333 33 -177zM509.999 658.994c-80 -52.667 -137 -102.833 -171 -150.5s-51 -101.167 -51 -160.5s19 -106.833 57 -142.5s89 -53.5 153 -53.5c65.333 0 139 24.333 221 73
c-19.333 50 -40.333 97 -63 141l-88 172c-18 34.667 -37.333 75 -58 121z" />
    <glyph glyph-name="quotesingle" unicode="'" horiz-adv-x="399" 
d="M665 1365l4 -9l-152 -337l-99 -14l97 325c49.333 10 99.333 21.667 150 35z" />
    <glyph glyph-name="parenleft" unicode="(" horiz-adv-x="540" 
d="M477 -151l9 -17c-86.667 -76 -172 -155 -256 -237l-11 2c-24 98.667 -36 217 -36 355c0 280 56.167 548.667 168.5 806s275.5 492 489.5 704l9 -10c-102 -139.333 -175.667 -248 -221 -326s-87 -168 -125 -270c-83.333 -222 -125 -458.667 -125 -710
c0 -150 10.333 -266 31 -348z" />
    <glyph glyph-name="parenright" unicode=")" horiz-adv-x="540" 
d="M361 1180l-9 16.999c86.667 76.667 172 156 256 238l11 -2c24.667 -101.333 37 -220 37 -356c0 -279.333 -56.167 -547.666 -168.5 -804.999s-275.833 -492 -490.5 -704l-9 9c102.667 141.333 176.5 250.5 221.5 327.5s86.833 166.5 125.5 268.5
c83.333 222.667 125 459.334 125 710.001c0 149.333 -10.667 265.666 -32 348.999z" />
    <glyph glyph-name="asterisk" unicode="*" horiz-adv-x="818" 
d="M734 1177c-3.33301 21.333 -4.99902 42.001 -4.99902 62.001c0 85.333 17.667 149.666 53 192.999l11 2c34.667 -16 70.667 -30.667 108 -44c-44 -33.333 -76.833 -65.5 -98.5 -96.5s-38.834 -70.5 -51.501 -118.5c58.667 31.333 122.667 47 192 47
c21.333 0 43.333 -4.33301 66 -13l5 -11c-4.66699 -37.333 -7.33398 -76 -8.00098 -116c-42.667 30 -79.667 50.333 -111 61s-69 16 -113 16c-8 0 -17 -0.333008 -27 -1c32 -30.667 58.833 -66.5 80.5 -107.5s32.5 -76.5 32.5 -106.5c0 -4 -0.333008 -10.667 -1 -20l-9 -8
c-37.333 -7.33301 -74.666 -16.666 -111.999 -27.999c15.333 48 23 89.667 23 125c0 42 -9.33301 88 -28 138c-19.333 -42.667 -47.166 -81.334 -83.499 -116.001s-71.5 -56 -105.5 -64l-10 5c-18.667 33.333 -39.334 66.333 -62.001 99c52.667 1.33301 97 8.33301 133 21
s74.333 35 115 67c-50 8 -96 23.167 -138 45.5s-72 47.833 -90 76.5l2 11c25.333 28 50 58 74 90c17.333 -50 37 -89.5 59 -118.5s55 -59.167 99 -90.5z" />
    <glyph glyph-name="plus" unicode="+" 
d="M259 511h328v315h68v-315h328v-67h-328v-315h-68v315h-328v67z" />
    <glyph glyph-name="comma" unicode="," horiz-adv-x="498" 
d="M123 114l161 67.002c14.667 -30 22 -56.667 22 -80c0 -42 -23.5 -84.833 -70.5 -128.5s-121.5 -91.834 -223.5 -144.501l-26 24c120 48 180 99 180 153c0 25.333 -14.333 61.666 -43 108.999z" />
    <glyph glyph-name="hyphen" unicode="-" horiz-adv-x="342" 
d="M454 570l6 -21l-65 -95c-66 8 -138 12 -216 12c-23.333 0 -49.333 -0.666992 -78 -2l-5 25c22 30 43.667 61.333 65 94c31.333 -7.33301 83 -11 155 -11c46 0 92 -0.666992 138 -2z" />
    <glyph glyph-name="period" unicode="." horiz-adv-x="314" 
d="M115 150c26 0 47.333 -8.5 64 -25.5s25 -38.167 25 -63.5c0 -24 -8.66699 -44.667 -26 -62s-38 -26 -62 -26s-44.833 8.83301 -62.5 26.5s-26.5 38.5 -26.5 62.5s8.5 44.5 25.5 61.5s37.833 25.833 62.5 26.5z" />
    <glyph glyph-name="slash" unicode="/" horiz-adv-x="549" 
d="M-209 -373l1098 1767c30.667 2.66699 64.334 4.66699 101.001 6c-17.333 -21.333 -39.333 -51.666 -66 -90.999c-35.333 -52.667 -61 -90 -77 -112c-32 -46.667 -53 -78.334 -63 -95.001l-792 -1295c-53.333 -84 -89.666 -144.667 -108.999 -182c-26 2 -44.333 3 -55 3
c-10 0 -22.333 -0.333008 -37 -1z" />
    <glyph glyph-name="zero" unicode="0" 
d="M550 726l-0.000976562 10.001c39.333 29.333 67.833 52.333 85.5 69s42.834 43.667 75.501 81c81.333 -18.667 147.666 -50.667 198.999 -96c31.333 -28 55.833 -63.167 73.5 -105.5s26.5 -86.5 26.5 -132.5c0 -78.667 -20.667 -158.667 -62 -240
s-96.333 -150.333 -165 -207c-94.667 -77.333 -190 -116 -286 -116c-83.333 0 -153.666 28.333 -210.999 85c-60.667 61.333 -91 137.666 -91 228.999c0 102 32.5 199.833 97.5 293.5s153.833 170.5 266.5 230.5l13 -15c-66 -43.333 -113.667 -80.666 -143 -111.999
c-68.667 -74.667 -103 -156.334 -103 -245.001c0 -47.333 10.333 -95.5 31 -144.5s48.334 -91.167 83.001 -126.5c55.333 -56.667 121.666 -85 198.999 -85c74.667 0 136.334 27.333 185.001 82c49.333 54.667 74 121.667 74 201c0 54.667 -12.833 107.167 -38.5 157.5
s-61.167 91.833 -106.5 124.5c-54.667 40 -122.334 60.667 -203.001 62z" />
    <glyph glyph-name="one" unicode="1" 
d="M853 905l-310 -856l-174 -71l-8 13l289 790l-237 -127v27l430 231z" />
    <glyph glyph-name="two" unicode="2" 
d="M372 708l-9.00098 11.9971c42 56 82 112.667 120 170c84.667 24 176 36 274 36c74 0 130.667 -12.667 170 -38c40.667 -26 61 -63.667 61 -113c0 -62.667 -37 -129.667 -111 -201c-65.333 -63.333 -152.333 -134 -261 -212l-170 -123
c-42.667 -30.667 -83.667 -64 -123 -100c130 19.333 253.333 29 370 29c174 0 261 -12.667 261 -38c0 -6.66699 -15 -24.667 -45 -54l-112 -132l-8 5c2 6.66699 3 11.667 3 15c0 21.333 -15.333 34.333 -46 39c-60 8.66699 -143 13 -249 13
c-87.333 0 -170.666 -3 -249.999 -9c-72 -5.33301 -115 -8.66602 -129 -9.99902l3 35l221 165c137.333 102.667 222.5 167.834 255.5 195.501s66.5 61.834 100.5 102.501c46 54 69 102.667 69 146c0 70 -52 105 -156 105c-64 0 -143.667 -12.667 -239 -38z" />
    <glyph glyph-name="three" unicode="3" 
d="M350 732c42 34.667 72.332 61.333 90.999 80s43 47.667 73 87c59.333 9.33301 119 14 179 14c92.667 0 167.5 -14.167 224.5 -42.5s85.5 -65.5 85.5 -111.5c0 -51.333 -48.667 -106.666 -146 -165.999c-70 -42.667 -179.333 -90.667 -328 -144l52 -27l69 -32
c62.667 -28.667 105.334 -54.334 128.001 -77.001s34 -51.667 34 -87c0 -42.667 -16.5 -89.334 -49.5 -140.001s-78.167 -98.334 -135.5 -143.001c-49.333 -39.333 -110 -72.166 -182 -98.499s-144 -42.166 -216 -47.499l-70 89l16 9c79.333 -11.333 135 -17 167 -17
c100 0 186.333 25.667 259 77c54.667 39.333 82 85.333 82 138c0 48 -37.333 89.333 -112 124l-102 46c-54 24.667 -90.333 43.5 -109 56.5s-28 25.833 -28 38.5c0 14.667 15.333 32.667 46 54c32 20.667 59.667 49 83 85c238 32 357 82.333 357 151c0 64 -78 96 -234 96
c-66 0 -140.667 -7.66699 -224 -23z" />
    <glyph glyph-name="four" unicode="4" 
d="M980 905l-220 -597.999c23.333 -0.666992 38.333 -1.33398 45 -2.00098c102 -2.66699 163 -10.334 183 -23.001l-121 -167l-5 1c-6 19.333 -17.5 31.5 -34.5 36.5s-57.5 8.5 -121.5 10.5l-52 -138l-182 -66l-5 8l38 91l42 109c-36.667 1.33301 -69 2 -97 2
c-90 0 -197.333 -3.66699 -322 -11l-32 -2v16c109.333 148.667 192 268.334 248 359.001s113.667 198.334 173 323.001l211 56c-48.667 -105.333 -120.667 -216 -216 -332s-204 -224.667 -326 -326c89.333 25.333 227 42.666 413 51.999l193 554l179 57z" />
    <glyph glyph-name="five" unicode="5" 
d="M1018 905c-11.333 -17.333 -34.666 -50.002 -69.999 -98.002c-19.333 -29.333 -31.833 -46.5 -37.5 -51.5s-15.834 -7.5 -30.501 -7.5c-16 0 -31.667 0.666992 -47 2l-55 5c-48 4.66699 -83 7 -105 7c-42.667 0 -70.5 -1.16699 -83.5 -3.5s-24.167 -8.5 -33.5 -18.5
c-10.667 -10.667 -23.667 -37 -39 -79s-27.333 -84.333 -36 -127c46 7.33301 94.333 11 145 11c146.667 0 220 -50 220 -150c0 -75.333 -63.667 -172 -191 -290c-98 -90 -223.667 -174 -377 -252l-76 66l16 8c124 19.333 228 57 312 113
c97.333 64.667 146 135.334 146 212.001c0 45.333 -14.333 78.5 -43 99.5s-74.334 31.5 -137.001 31.5c-59.333 0 -113.666 -6 -162.999 -18l-4 9c32 90 66.333 173.333 103 250s69.667 134 99 172c33.333 42.667 75.5 72.834 126.5 90.501s121.5 26.5 211.5 26.5
c50 0 99.667 -2.66699 149 -8z" />
    <glyph glyph-name="six" unicode="6" 
d="M959 1191l9.99902 -20.9971c-116 -69.333 -218 -162 -306 -278c-69.333 -91.333 -126.666 -192 -171.999 -302c-50 -122 -75 -233 -75 -333c0 -60.667 14 -110.334 42 -149.001c30.667 -42 72.334 -63 125.001 -63c53.333 0 99.333 22 138 66
c62 71.333 93 155.333 93 252c0 56 -13.667 102.5 -41 139.5s-62 55.5 -104 55.5c-34 0 -64.333 -11.833 -91 -35.5s-47 -56.834 -61 -99.501l-19 2c13.333 60.667 41.666 117.334 84.999 170.001c59.333 71.333 125.666 107 198.999 107c54 0 99 -20.833 135 -62.5
s54 -93.834 54 -156.501c0 -90 -32.667 -179 -98 -267c-64.667 -86 -140.667 -149.667 -228 -191c-61.333 -28.667 -118.666 -43 -171.999 -43c-74 0 -134 23.167 -180 69.5s-69 107.166 -69 182.499c0 192 110 402.667 330 632c130.667 136.667 265.667 245 405 325z" />
    <glyph glyph-name="seven" unicode="7" 
d="M312 697l-6.00098 15c47.333 58.667 92 117 134 175c76.667 18 182.667 27 318 27c127.333 0 222 -6 284 -18c18 -3.33301 27 -12.333 27 -27c0 -8.66699 -18.667 -43 -56 -103l-28 -47l-208 -346c-91.333 -153.333 -194.333 -339.333 -309 -558l-15 -29
c-51.333 -10 -101.333 -23.333 -150 -40l-10 3c46.667 93.333 177 291.333 391 594l217 302c16.667 23.333 25 39.333 25 48c0 14 -13.667 23.333 -41 28c-42.667 8 -117.667 12 -225 12c-67.333 0 -120.666 -2 -159.999 -6s-97 -13 -173 -27z" />
    <glyph glyph-name="eight" unicode="8" 
d="M651 839v18c57.333 22.667 111.333 49 162 79c98 -45.333 147 -105.333 147 -180c0 -51.333 -24 -98.333 -72 -141c-19.333 -16.667 -63 -45.334 -131 -86.001c54 -49.333 87.333 -82 100 -98c30 -39.333 45 -78.666 45 -117.999c0 -86 -72.667 -174.667 -218 -266
c-40 -24.667 -70.833 -40.5 -92.5 -47.5s-52.167 -10.5 -91.5 -10.5c-94 0 -168.333 21 -223 63c-50 38.667 -75 83 -75 133c0 66 39 122.333 117 169c22.667 14 92.334 47.333 209.001 100c-36.667 36 -62.334 67.167 -77.001 93.5s-22 55.833 -22 88.5
c0 51.333 16.333 98.833 49 142.5s77 77.5 133 101.5l8 -12c-44.667 -35.333 -67 -71 -67 -107c0 -47.333 38.667 -101.333 116 -162l64 -51c62 26.667 93 64 93 112c0 58 -58 117.667 -174 179zM552 435c-64.667 -28.667 -110 -55.165 -136 -79.498s-39 -52.833 -39 -85.5
c0 -42.667 25.333 -78.334 76 -107.001s113.334 -43 188.001 -43c33.333 0 69.666 2.66699 108.999 8l3 10c4.66699 19.333 7 34.333 7 45c0 32.667 -9.83301 63.667 -29.5 93s-52.167 61.666 -97.5 96.999z" />
    <glyph glyph-name="nine" unicode="9" 
d="M259 -269l-12.998 20.9971c90 60 163.333 118 220 174s108.667 121.667 156 197c57.333 90.667 102.333 183.334 135 278.001s49 179 49 253c0 62.667 -14.833 113.334 -44.5 152.001s-68.5 58 -116.5 58c-60.667 0 -114.334 -31.667 -161.001 -95
c-48.667 -66 -73 -139 -73 -219c0 -56 13.5 -102.333 40.5 -139s60.833 -55 101.5 -55c64.667 0 116 45 154 135l19 -6c-17.333 -65.333 -47.666 -122.666 -90.999 -171.999c-58 -66.667 -122 -100 -192 -100c-56 0 -101.667 20 -137 60s-53 91.667 -53 155
c0 118 52.667 230.333 158 337c49.333 50.667 105.166 90.167 167.499 118.5s124.166 42.5 185.499 42.5c70 0 127.167 -22.833 171.5 -68.5s66.5 -104.5 66.5 -176.5c0 -191.333 -116 -405 -348 -641c-134 -136 -265.667 -239 -395 -309z" />
    <glyph glyph-name="colon" unicode=":" horiz-adv-x="314" 
d="M115 150c26 0 47.333 -8.5 64 -25.5s25 -38.167 25 -63.5c0 -24 -8.66699 -44.667 -26 -62s-38 -26 -62 -26s-44.833 8.83301 -62.5 26.5s-26.5 38.5 -26.5 62.5s8.5 44.5 25.5 61.5s37.833 25.833 62.5 26.5zM253 573c24.667 0 45.5 -8.5 62.5 -25.5
s25.5 -38.167 25.5 -63.5c0 -24 -8.66699 -44.667 -26 -62s-38 -26 -62 -26s-44.833 8.83301 -62.5 26.5s-26.5 38.5 -26.5 62.5s8.5 44.5 25.5 61.5s38.167 25.833 63.5 26.5z" />
    <glyph glyph-name="semicolon" unicode=";" horiz-adv-x="498" 
d="M123 114l161 67.002c14.667 -30 22 -56.667 22 -80c0 -42 -23.5 -84.833 -70.5 -128.5s-121.5 -91.834 -223.5 -144.501l-26 24c120 48 180 99 180 153c0 25.333 -14.333 61.666 -43 108.999zM345 573.002c24.667 0 45.5 -8.5 62.5 -25.5s25.5 -38.167 25.5 -63.5
c0 -24 -8.66699 -44.667 -26 -62s-38 -26 -62 -26c-24.667 0 -45.667 8.83301 -63 26.5s-26 38.5 -26 62.5s8.5 44.5 25.5 61.5s38.167 25.833 63.5 26.5z" />
    <glyph glyph-name="less" unicode="&#x3c;" 
d="M955 1184v-177l-698 -324l698 -324v-177l-887 425v152z" />
    <glyph glyph-name="equal" unicode="=" 
d="M225 648h778v-67h-778v67zM225 375h778v-67h-778v67z" />
    <glyph glyph-name="greater" unicode="&#x3e;" 
d="M69 1184l887 -425v-152l-887 -425v177l697 324l-697 324v177z" />
    <glyph glyph-name="question" unicode="?" horiz-adv-x="606" 
d="M486 1162l6.00391 -6.99902c-8.66699 -10.667 -13 -20 -13 -28c0 -12 10 -22.333 30 -31l95 -40c118.667 -49.333 178 -110 178 -182c0 -54 -25.333 -108.5 -76 -163.5s-120.667 -104.833 -210 -149.5l-67 -32c-16 -8 -35.667 -19.333 -59 -34
c3.33301 -40 9.66602 -72.333 18.999 -97s28.666 -61.667 57.999 -111c-50.667 -20 -100.334 -42.667 -149.001 -68c-48.667 68.667 -73 134.334 -73 197.001c0 44.667 16 78 48 100c20.667 14 64 31.667 130 53l90 29c93.333 30.667 140 76.334 140 137.001
c0 40 -14 73.667 -42 101s-77.667 55.666 -149 84.999l-86 35c-26.667 11.333 -43.334 19.666 -50.001 24.999s-10 12.666 -10 21.999c0 18.667 17.833 42.667 53.5 72s81.167 58.333 136.5 87zM290.004 124.001c26 0 47.333 -8.5 64 -25.5s25 -38.167 25 -63.5
c0 -24 -8.66699 -44.667 -26 -62s-38 -26 -62 -26s-44.833 8.83301 -62.5 26.5s-26.5 38.5 -26.5 62.5s8.5 44.5 25.5 61.5s37.833 25.833 62.5 26.5z" />
    <glyph glyph-name="at" unicode="@" horiz-adv-x="1638" 
d="M1514 234l21.0039 -53.002c-221.333 -131.333 -433.333 -197 -636 -197c-170.667 0 -314.334 53.667 -431.001 161c-122.667 113.333 -184 258 -184 434c0 132 37.333 259 112 381c85.333 140.667 207 255.334 365 344.001c138 77.333 279 116 423 116
c146 0 273 -37 381 -111c62 -42.667 110 -95.334 144 -158.001s51 -129 51 -199c0 -83.333 -21.667 -164.333 -65 -243s-101.666 -142.667 -174.999 -192c-54 -37.333 -120.167 -68.166 -198.5 -92.499s-149.166 -36.5 -212.499 -36.5c-64 0 -96 24 -96 72
c0 21.333 6.33301 49.666 19 84.999c11.333 31.333 18.666 53.333 21.999 66c-68.667 -73.333 -131.834 -126.666 -189.501 -159.999s-114.834 -50 -171.501 -50c-66 0 -99 38.333 -99 115c0 117.333 78 236 234 356c151.333 117.333 287.666 176 408.999 176
c64 0 122.667 -11 176 -33c-12 -26 -47 -97.667 -105 -215c-60 -120.667 -90 -201.667 -90 -243s31 -62 93 -62c58 0 111.333 16 160 48c47.333 30.667 84.666 75.334 111.999 134.001s41 123.667 41 195c0 153.333 -59.667 270.333 -179 351c-98 66 -216.333 99 -355 99
c-159.333 0 -296.333 -42.333 -411 -127c-82.667 -61.333 -146 -138 -190 -230s-66 -194.333 -66 -307c0 -156 46.333 -283.667 139 -383c106.667 -115.333 258 -173 454 -173c172.667 0 338.667 44 498 132zM1179 914.998c-54.667 15.333 -102.666 23 -143.999 23
c-56 0 -101.667 -23.333 -137 -70c-24.667 -32.667 -47.167 -79 -67.5 -139s-30.5 -110.333 -30.5 -151c0 -51.333 22.333 -77 67 -77c45.333 0 99.666 47.667 162.999 143c59.333 90 109 180.333 149 271z" />
    <glyph glyph-name="A" unicode="A" horiz-adv-x="2125" 
d="M1807 335l-295.999 -0.000976562c-56.667 -70 -104 -123 -142 -159s-80 -68.667 -126 -98c-104 -64.667 -227.667 -97 -371 -97c-178.667 0 -356 66.333 -532 199c-99.333 75.333 -177.666 159.333 -234.999 252c62.667 30 121.667 62.333 177 97
c71.333 -21.333 138.666 -36.666 201.999 -45.999c57.333 -10 234.666 -22 531.999 -36l436 -17c17.333 26.667 44.666 72.667 81.999 138l73 126c184 319.333 352 539 504 659c66 17.333 129.667 36.666 191 57.999c0 -53.333 -11.5 -125.333 -34.5 -216
s-56.167 -194.667 -99.5 -312l-78 -209c-16 -43.333 -36.333 -103.333 -61 -180l-26 -79l228 -6l-157 -66l-96 -4l-42 -129c-24 -74 -36 -125.667 -36 -155c0 -5.33301 0.666992 -13.666 2 -24.999c-73.333 -16 -148 -34.333 -224 -55c32.667 83.333 61.334 161 86.001 233z
M1834 418.999l223 660c24.667 73.333 43 145.333 55 216c-58.667 -60 -122.667 -152.333 -192 -277l-106 -190c-96 -169.333 -175.333 -303.333 -238 -402zM393.001 370.999c61.333 -80.667 140.331 -151.667 236.998 -213c136 -86 260.333 -129 373 -129
c78.667 0 147.334 23 206.001 69s120.334 125.333 185.001 238z" />
    <glyph glyph-name="B" unicode="B" horiz-adv-x="1631" 
d="M929 1129l-382.004 -1094c-56.667 -16 -114 -35 -172 -57l209 642c38.667 119.333 58 216.333 58 291c0 48.667 -13 86.334 -39 113.001s-75 53 -147 79l-43 15c-52.667 18.667 -79 38.334 -79 59.001c0 11.333 13.333 24.666 40 39.999c30.667 18 63.667 42 99 72
c220 29.333 459.667 44 719 44c192 0 326.667 -10.667 404 -32s116 -58.666 116 -111.999c0 -57.333 -57.667 -120.666 -173 -189.999l-95 -57c-47.333 -28 -76.666 -46.5 -87.999 -55.5s-17 -18.833 -17 -29.5c0 -18.667 16.667 -38.334 50 -59.001l51 -32
c88.667 -54 150.167 -103 184.5 -147s51.5 -95.667 51.5 -155c0 -100.667 -48 -200.334 -144 -299.001c-58 -60 -127.333 -109.333 -208 -148c-70.667 -33.333 -163.667 -50 -279 -50c-91.333 0 -169.666 7.66699 -234.999 23c-30.667 6.66699 -46 17 -46 31
c0 6 12 19 36 39c40 32.667 74.333 63.334 103 92.001c64.667 -5.33301 110.667 -8 138 -8c35.333 0 83 2 143 6c-1.33301 -2.66699 -3.33301 -7.33398 -6 -14.001c-2 -3.33301 -3 -8 -3 -14c0 -16.667 27 -25 81 -25c86.667 0 152.334 15.333 197.001 46
c52 34.667 78 81.667 78 141c0 57.333 -18.333 113.666 -55 168.999c-40.667 60.667 -94.667 111 -162 151l-70 42c-64 41.333 -101.833 67.5 -113.5 78.5s-17.5 26.5 -17.5 46.5c0 21.333 8.33301 39.333 25 54c12.667 10.667 50.334 32.334 113.001 65.001l81 43
c67.333 35.333 114.833 64.166 142.5 86.499s41.5 43.166 41.5 62.499c0 69.333 -144.333 104 -433 104c-42 0 -120.5 -1.83301 -235.5 -5.5s-190.167 -6.83398 -225.5 -9.50098c-20 -1.33301 -30 -5.66602 -30 -12.999c0 -4.66699 7 -11.334 21 -20.001
c24.667 -14.667 40.667 -30 48 -46s11 -43 11 -81c0 -59.333 -7 -125.666 -21 -198.999l83 255c66.667 17.333 131.667 38 195 62z" />
    <glyph glyph-name="C" unicode="C" horiz-adv-x="1482" 
d="M1291 1024l-7.00195 17.998c38.667 15.333 65.834 30.833 81.501 46.5s23.5 34.5 23.5 56.5c0 36.667 -22.667 68.834 -68 96.501s-98 41.5 -158 41.5c-117.333 0 -234.333 -36.667 -351 -110c-114 -71.333 -202.667 -170 -266 -296
c-57.333 -114.667 -86 -232.667 -86 -354c0 -146 47.333 -253 142 -321c100.667 -72 266.334 -108 497.001 -108c94.667 0 188 5.66699 280 17c100.667 12 160.334 19 179.001 21l5 -13c-72 -33.333 -141.667 -71 -209 -113c-126 -26 -269 -39 -429 -39
c-121.333 0 -222.833 9 -304.5 27s-152.167 47 -211.5 87c-108 72.667 -162 180.334 -162 323.001c0 170 63.667 336 191 498c146 186 337.333 321.333 574 406c131.333 47.333 253.666 71 366.999 71c67.333 0 119.333 -12.667 156 -38c32.667 -22.667 49 -53 49 -91
c0 -55.333 -41.333 -106.333 -124 -153c-28.667 -16.667 -85 -41 -169 -73z" />
    <glyph glyph-name="D" unicode="D" horiz-adv-x="2129" 
d="M1083 160l103.001 326.005c-215.333 39.333 -407.666 105 -576.999 197c-115.333 63.333 -200.333 138.666 -255 225.999c-37.333 60.667 -56 117.667 -56 171c0 81.333 65 156.666 195 225.999c69.333 37.333 147 66.666 233 87.999s169.667 32 251 32
c181.333 0 361.666 -41.333 540.999 -124c227.333 -104.667 404.666 -238.334 531.999 -401.001c104.667 -133.333 157 -261.333 157 -384c0 -112.667 -55.667 -224.334 -167 -335.001c-135.333 -134.667 -300.666 -202 -495.999 -202c-36.667 0 -89.334 2.33301 -158.001 7
l-118 7c-124 8 -241.333 12 -352 12c-144 0 -268.333 -9 -373 -27l-4 9c67.333 48 131 100 191 156c59.333 6.66699 128.666 10 207.999 10c138 0 257.667 -3.33301 359 -10l146 -10c128 -12.667 219.667 -19 275 -19c118.667 0 215.667 33 291 99c48 42 72 93 72 153
c0 24.667 -4.66699 57 -14 97c-14.667 -3.33301 -52.667 -14.333 -114 -33c-38 -11.333 -76.667 -17 -116 -17c-110.667 0 -273.667 15 -489 45l-69 -194c-65.333 -29.333 -130.666 -64.333 -195.999 -105zM1349 987.005c74.667 24.667 147.001 52.334 217.001 83.001
c-98 63.333 -208.667 116 -332 158c-178.667 62 -345 93 -499 93c-46.667 0 -93.5 -5.66699 -140.5 -17s-82.167 -25.333 -105.5 -42c-31.333 -22.667 -47 -57 -47 -103c0 -58 22.333 -115.333 67 -172c131.333 -166.667 370.666 -292.334 717.999 -377.001zM1387 568.005
c306.667 -66.667 533 -100 679 -100c-36.667 118.667 -96.167 227.667 -178.5 327s-187.833 190 -316.5 272c-14 -27.333 -35.333 -80 -64 -158z" />
    <glyph glyph-name="E" unicode="E" horiz-adv-x="1202" 
d="M1273 140l4 -8.99902c-64.667 -36 -129.334 -77.333 -194.001 -124c-108 -22 -222 -33 -342 -33c-181.333 0 -330.333 28.667 -447 86c-104.667 51.333 -157 118.333 -157 201c0 88.667 65.333 172.667 196 252c43.333 26 84.166 46.667 122.499 62
s119.166 42.666 242.499 81.999l96 32c63.333 20.667 95 34.667 95 42c0 5.33301 -14.333 12.333 -43 21c-79.333 24 -133.666 45 -162.999 63c-59.333 36 -89 78.667 -89 128c0 28 10.333 63.333 31 106l-110 -38l-5 9c67.333 41.333 134 85 200 131
c72.667 74 135.334 128.333 188.001 163c48 32 103 59 165 81s114.333 33 157 33c16 0 24 -5 24 -15c0 -12.667 -18 -38.5 -54 -77.5s-71.333 -70.833 -106 -95.5c-45.333 -32.667 -111.666 -64.667 -198.999 -96c-48 -17.333 -85.333 -31.333 -112 -42
c-1.33301 -9.33301 -2 -16.333 -2 -21c0 -30.667 15.5 -60.5 46.5 -89.5s72.5 -52.833 124.5 -71.5l57 -20c66.667 -24 100 -43.333 100 -58c0 -8 -19 -27.833 -57 -59.5s-82.333 -64.5 -133 -98.5c-35.333 -24 -64.833 -40.333 -88.5 -49s-68.167 -19 -133.5 -31l-61 -11
c-88.667 -16 -159.667 -42 -213 -78c-56 -38.667 -84 -86 -84 -142c0 -94 70 -165.333 210 -214c100 -35.333 217 -53 351 -53c75.333 0 203 11.333 383 34z" />
    <glyph glyph-name="F" unicode="F" horiz-adv-x="1950" 
d="M1699 1214l-245.996 -707.007c92 -11.333 172.833 -19.166 242.5 -23.499s209.167 -10.166 418.5 -17.499v-11c-46 -36 -89.667 -73.667 -131 -113c-128.667 4 -220.334 5.66699 -275.001 5h-311l-207 -559c-58.667 -24.667 -118.334 -53.334 -179.001 -86.001h-5
l224 645h-76c-226 -5.33301 -378.667 -30.666 -458 -75.999l-7 11c33.333 40.667 71.666 82.334 114.999 125.001s70.666 66 81.999 70c26.667 10 159 16.333 397 19c-264.667 57.333 -474.334 121.666 -629.001 192.999c-105.333 48.667 -182 95.667 -230 141
s-72 94 -72 146c0 44.667 17 84.834 51 120.501s99.333 81.834 196 138.501c42.667 69.333 103.667 119.166 183 149.499s188.666 45.5 327.999 45.5c146.667 0 312.334 -11.333 497.001 -34l525 -66c-64 -54.667 -102.5 -89 -115.5 -103s-19.5 -28.667 -19.5 -44l-317 44
c-100.667 14.667 -221.167 27.167 -361.5 37.5s-255.166 15.5 -344.499 15.5c-281.333 0 -422 -61 -422 -183c0 -81.333 50.333 -173.666 151 -276.999c69.333 -71.333 145.833 -127.333 229.5 -168s204.167 -80.667 361.5 -120l167 493c20 62.667 32 105.334 36 128.001
c46 8.66699 80.333 16.334 103 23.001s55.667 19.334 99 38.001z" />
    <glyph glyph-name="G" unicode="G" horiz-adv-x="1905" 
d="M1769 363l280.999 -6c-59.333 -40 -118.333 -82.333 -177 -127l-148 2c-58 -166 -132 -285 -222 -357c-66.667 -53.333 -147.5 -95.666 -242.5 -126.999s-190.5 -47 -286.5 -47c-208 0 -417.667 64.667 -629 194c-141.333 86.667 -250.333 182.334 -327 287.001
c62.667 34 119.334 69 170.001 105c174 25.333 313.167 42.166 417.5 50.499s247.833 14.5 430.5 18.5l542 11l33 115c22.667 84.667 47 155.667 73 213c-136.667 -72 -249 -123.667 -337 -155s-164.333 -47 -229 -47c-84 0 -152 20.667 -204 62c-54 42.667 -81 99 -81 169
c0 119.333 61.333 239.666 184 360.999c130 129.333 280 225 450 287c110 40 214.667 60 314 60c77.333 0 139.333 -16.333 186 -49c40 -27.333 60 -62.333 60 -105c0 -60 -37 -112.667 -111 -158c-32 -20 -83.667 -40 -155 -60l-7 16c54.667 28 82 67.667 82 119
c0 42 -23 76.5 -69 103.5s-104.667 40.5 -176 40.5c-60 0 -121.333 -10.833 -184 -32.5s-118.334 -51.167 -167.001 -88.5c-62.667 -48 -112 -107 -148 -177c-32 -60.667 -48 -122 -48 -184c0 -74 28 -135.333 84 -184c50.667 -43.333 111.334 -65 182.001 -65
c78 0 169.167 22.167 273.5 66.5s215.5 108.5 333.5 192.5l11 -7c-51.333 -138 -92.333 -260.667 -123 -368zM1544 237l-1059 33.001c-34.667 1.33301 -64 2 -88 2c-64.667 0 -126.667 -2.33301 -186 -7c98 -108.667 230.333 -207.334 397 -296.001
c100 -54 203.333 -96.833 310 -128.5s200 -47.5 280 -47.5c76.667 0 134.334 16 173.001 48c53.333 44.667 95.333 121.667 126 231z" />
    <glyph glyph-name="H" unicode="H" horiz-adv-x="2645" 
d="M2776 116l2 -15.001c-182.667 -52 -314 -86.5 -394 -103.5s-152 -25.5 -216 -25.5c-132 0 -198 59 -198 177c0 33.333 7.16699 84.833 21.5 154.5s29.833 127.167 46.5 172.5c-44 -4.66699 -89 -10 -135 -16c-44.667 -86 -89 -153.333 -133 -202s-104.333 -96 -181 -142
c-152 -91.333 -302 -137 -450 -137c-106 0 -214.5 20.167 -325.5 60.5s-216.5 97.833 -316.5 172.5c-133.333 99.333 -237.666 207.333 -312.999 324c47.333 12 82.666 23.5 105.999 34.5s50.333 29.5 81 55.5c622.667 -60 1042.67 -90 1260 -90c22.667 0 63 0.666992 121 2
l215 582c-34.667 -16.667 -69.667 -32 -105 -46l-5 12c50.667 50 87.667 88.5 111 115.5s56.333 68.833 99 125.5c70.667 20.667 141.667 46 213 76c-42 -84 -74 -156 -96 -216l-90 -236l-51 -133l-57 -149l-49 -129c40.667 0.666992 81.667 2.66699 123 6
c59.333 158 113.166 281.833 161.5 371.5c48.333 89.667 104.166 169.5 167.5 239.5c63.333 69.333 128 126.666 194 171.999s118.333 68 157 68c54.667 0 82 -40.667 82 -122c0 -71.333 -15 -149.166 -45 -233.499s-68.667 -158.166 -116 -221.499
c-48 -63.333 -103.5 -117.5 -166.5 -162.5s-144.833 -88.167 -245.5 -129.5c-48 -146.667 -72 -250 -72 -310c0 -46 22.167 -79.167 66.5 -99.5s116.833 -30.5 217.5 -30.5c44 0 139 8 285 24zM2267 580.999c124 54 209 117.333 255 190c32 50 59.5 116.333 82.5 199
s34.5 156 34.5 220c0 64.667 -10.667 97 -32 97c-17.333 0 -51 -46 -101 -138c-63.333 -116 -143 -305.333 -239 -568zM520 456.999c42.667 -52.667 87.002 -97.167 133.002 -133.5s105.667 -73.5 179 -111.5c190 -98.667 357 -148 501 -148
c85.333 0 158.666 30.833 219.999 92.5s117 160.5 167 296.5c-25.333 -1.33301 -86 -5 -182 -11c-118 -8 -236.667 -12 -356 -12c-186.667 0 -407.334 9 -662.001 27z" />
    <glyph glyph-name="I" unicode="I" horiz-adv-x="1574" 
d="M275 702l-7.00391 9.00098c72.667 82 155.834 166.5 249.501 253.5s179.834 159.833 258.501 218.5c230 170 425.333 255 586 255c102.667 0 185.667 -33.667 249 -101c38.667 -40.667 68.834 -94.667 90.501 -162s32.5 -140.333 32.5 -219
c0 -177.333 -51.667 -340.333 -155 -489c-112 -160.667 -278.667 -288.334 -500 -383.001c-173.333 -74 -347.666 -111 -522.999 -111c-79.333 0 -150 7.33301 -212 22s-93 31 -93 49c0 6.66699 3.5 13.5 10.5 20.5s26.5 22.167 58.5 45.5c32 24.667 62 52.667 90 84
c73.333 -2.66699 135 -4 185 -4c53.333 0 143 4.33301 269 13c-20.667 -23.333 -32.667 -36.333 -36 -39c-14.667 -16 -22 -26 -22 -30c0 -9.33301 13.333 -14 40 -14c69.333 0 150 10.333 242 31c153.333 34.667 268 112.667 344 234c70.667 114 106 247 106 399
c0 179.333 -49.667 315 -149 407c-70.667 64.667 -155 97 -253 97c-103.333 0 -210.5 -39.5 -321.5 -118.5s-222.5 -195.167 -334.5 -348.5c-68 -37.333 -136.333 -77 -205 -119z" />
    <glyph glyph-name="J" unicode="J" horiz-adv-x="1512" 
d="M1680 321l14 -26c-140.667 -7.33301 -259 -26 -355 -56c-141.333 -170.667 -294 -302.334 -458 -395.001c-112 -62.667 -222.667 -108.334 -332 -137.001s-228.333 -43 -357 -43c-73.333 0 -132.666 3.66699 -177.999 11s-68 16.666 -68 27.999
c0 6.66699 17 22.334 51 47.001c29.333 21.333 63.666 50 102.999 86c68 11.333 160.333 39 277 83l323 121c205.333 79.333 385.333 144.666 540 195.999c149.333 280 224 540.333 224 781c0 116 -23.667 202.667 -71 260c-36 43.333 -86 65 -150 65
c-217.333 0 -530.333 -201 -939 -603l-6 2c16 40.667 30.333 80.334 43 119.001c76.667 70.667 164.167 141.834 262.5 213.501s191.5 132.834 279.5 183.501c226.667 128.667 408 193 544 193c87.333 0 157 -27.333 209 -82c48 -50 72 -126 72 -228
c0 -128 -30.667 -270 -92 -426s-144 -303 -248 -441c100 28 204 44 312 48zM1220 202c-106 -34.667 -304 -124.667 -594 -270c-86.667 -42 -173.667 -80.667 -261 -116c51.333 -4.66699 89 -7 113 -7c80.667 0 162.5 9.66699 245.5 29s154.5 45 214.5 77
c56.667 30.667 105.167 66.667 145.5 108s85.833 101 136.5 179z" />
    <glyph glyph-name="K" unicode="K" horiz-adv-x="2132" 
d="M1245 730l-129.996 -87c-75.333 -198 -177.333 -352.333 -306 -463c-74 -64 -157.333 -113.833 -250 -149.5s-184.667 -53.5 -276 -53.5c-84 0 -161 12 -231 36l151 129c105.333 40.667 206.666 88 303.999 142s227.666 136 390.999 246l54 193
c32.667 118 77 257.667 133 419l-80 -41l-14 15c63.333 74 123 148 179 222c72 26.667 120 45.334 144 56.001c26 12 41.667 18 47 18c7.33301 0 11 -4.66699 11 -14c0 -4.66699 -2 -10.667 -6 -18c-10.667 -20 -29.667 -67.167 -57 -141.5s-50.666 -141.833 -69.999 -202.5
l-111 -354l112 74l-9 52c58.667 18 113 35.667 163 53c202 172 373.667 303.333 515 394c68.667 44 134.667 81.5 198 112.5s106.333 46.5 129 46.5c12 0 18 -4.66699 18 -14c0 -14 -22.333 -43.667 -67 -89c-48.667 -48.667 -99 -90.5 -151 -125.5
s-129 -78.833 -231 -131.5l-292 -151c-55.333 -30 -89 -49 -101 -57c58.667 -220.667 129.667 -394 213 -520c52.667 -78.667 117.667 -139.334 195 -182.001s161.666 -64 252.999 -64c53.333 0 106.333 8 159 24l5 -10c-82.667 -38 -164.834 -69 -246.501 -93
s-145.834 -36 -192.501 -36c-124 0 -233 65 -327 195s-169.333 320 -226 570zM890.004 492l-176.001 -115l-211 -138c-64.667 -42 -117.667 -79 -159 -111c60 -14.667 114.333 -22 163 -22c65.333 0 122.5 9 171.5 27s83.833 42.667 104.5 74
c26.667 41.333 62.334 136.333 107.001 285z" />
    <glyph glyph-name="L" unicode="L" horiz-adv-x="1772" 
d="M1191 452l-8.00195 10.999c118 106.667 212.667 208.334 284 305.001c126 169.333 189 313.333 189 432c0 40.667 -9.83301 72.334 -29.5 95.001s-47.167 34 -82.5 34c-69.333 0 -137.166 -43.833 -203.499 -131.5s-138.166 -228.167 -215.499 -421.5l-43 -107
c-35.333 -88.667 -81.833 -172 -139.5 -250s-126.834 -151.333 -207.501 -220c50.667 1.33301 102 2 154 2c312.667 0 617.334 -32.667 914.001 -98l31 38l10 -59c-51.333 -41.333 -103 -86 -155 -134c-139.333 35.333 -256.666 60.666 -351.999 75.999
c-190 30 -377 45 -561 45c-62 0 -129 -3.33301 -201 -10c-128.667 -61.333 -259 -92 -391 -92c-92 0 -138 11.667 -138 35c0 16 25.667 35 77 57l9 12c19.333 24.667 36.666 41.5 51.999 50.5s41.666 17.833 78.999 26.5c76 16.667 226.667 33.334 452 50.001
c30 38 62.333 114 97 228l33 112c38.667 130 69.167 224.333 91.5 283s48.5 110.667 78.5 156c88 136 219 247.333 393 334c135.333 68 241.333 102 318 102c47.333 0 83.833 -13.167 109.5 -39.5s38.5 -64.166 38.5 -113.499c0 -66.667 -18.167 -133.834 -54.5 -201.501
s-94.166 -141.834 -173.499 -222.501c-121.333 -124 -273 -252 -455 -384z" />
    <glyph glyph-name="M" unicode="M" horiz-adv-x="2306" 
d="M2429 88v-13c-42.667 -25.333 -98.834 -49.833 -168.5 -73.5c-69.667 -23.667 -120.167 -35.5 -151.5 -35.5c-44.667 0 -79.834 22.333 -105.501 67s-38.5 106.334 -38.5 185.001c0 152.667 35.667 366 107 640l27 101c16.667 65.333 25 107 25 125
c0 16.667 -6.33301 25 -19 25c-15.333 0 -70.333 -50.667 -165 -152c-107.333 -114 -215.666 -252.833 -324.999 -416.5s-206.333 -331.834 -291 -504.501c-61.333 -20 -121.333 -42.333 -180 -67c20.667 73.333 51.167 166.833 91.5 280.5s76.833 209.834 109.5 288.501
l136 330c67.333 162.667 101 270 101 322c0 15.333 -4.83301 29.166 -14.5 41.499s-20.834 18.5 -33.501 18.5c-18.667 0 -42 -19.333 -70 -58c-49.333 -70 -98 -157.667 -146 -263l-105 -228c-122.667 -266 -248.667 -472.667 -378 -620
c-101.333 -115.333 -221 -200.666 -359 -255.999c-104.667 -42 -206.667 -63 -306 -63c-62 0 -114.5 6.33301 -157.5 19s-64.5 28 -64.5 46c0 11.333 6.66699 21.666 20 30.999l165 123l13 -10l-23 -34c50 -27.333 125.333 -41 226 -41
c112.667 0 204.334 16.167 275.001 48.5s130 85.5 178 159.5c68.667 105.333 141.667 252 219 440l62 151c50.667 124 95.834 218.5 135.501 283.5s88.167 124.167 145.5 177.5c68 63.333 135.333 115.833 202 157.5s117 62.5 151 62.5c21.333 0 39.166 -8.5 53.499 -25.5
s21.5 -38.833 21.5 -65.5c0 -72 -42 -204 -126 -396l-109 -248c-22.667 -51.333 -45.667 -106.666 -69 -165.999c168.667 238.667 333 429 493 571c69.333 61.333 136.666 114.166 202 158.499c65.333 44.333 108.666 66.5 130 66.5c9.33301 0 17.333 -3.5 24 -10.5
s10 -15.5 10 -25.5c0 -6 -4 -23 -12 -51l-47 -147c-38.667 -122 -69.834 -249.167 -93.5 -381.5c-23.667 -132.333 -35.5 -245.5 -35.5 -339.5c0 -80 15 -141.333 45 -184s73.333 -64 130 -64c25.333 0 57 6.66699 95 20z" />
    <glyph glyph-name="N" unicode="N" horiz-adv-x="2198" 
d="M2311 652l-69 -57.001c-58 -180.667 -125.333 -330.334 -202 -449.001c-93.333 -143.333 -174.333 -215 -243 -215c-118.667 0 -178 203.333 -178 610c0 24.667 1 63.667 3 117l9 421c0.666992 16 1 26.667 1 32c0 76.667 -11 115 -33 115
c-30 0 -77.333 -73.667 -142 -221l-61 -138c-56.667 -130 -104.834 -231.333 -144.501 -304s-84.5 -141.667 -134.5 -207c-164.667 -218 -343.667 -374.333 -537 -469c-147.333 -72 -282.333 -108 -405 -108c-61.333 0 -113.166 6 -155.499 18s-63.5 26.667 -63.5 44
c0 9.33301 10.667 22.666 32 39.999l100 90c64.667 2.66699 131 7.33398 199 14.001l-55 -64c39.333 -5.33301 82.333 -8 129 -8c190.667 0 339.334 53 446.001 159c86.667 86 181.667 239.333 285 460l91 194c54 114 105.5 205.833 154.5 275.5s111.833 139.5 188.5 209.5
c132.667 121.333 216 182 250 182c39.333 0 59 -48.667 59 -146c0 -15.333 -0.333008 -28.666 -1 -39.999l-8 -113c-12 -166 -18 -315.667 -18 -449c0 -359.333 47.667 -539 143 -539c22 0 42.167 14.333 60.5 43s40.166 79.667 65.499 153c34 98.667 57 194 69 286
c-34.667 58.667 -52 128.667 -52 210c0 115.333 23 201.333 69 258c50 26.667 98.333 55.334 145 86.001c4.66699 -22 7 -47.667 7 -77c0 -58 -3.66699 -121 -11 -189s-16 -118 -26 -150c10 -26 21 -50.667 33 -74z" />
    <glyph glyph-name="O" unicode="O" horiz-adv-x="1385" 
d="M832 679l-12.9961 -3.99902c-15.333 40.667 -29.166 87.334 -41.499 140.001s-20.833 101 -25.5 145c37.333 106 96.666 202.333 177.999 289c104.667 112.667 212.667 169 324 169c86.667 0 161 -37.333 223 -112c72 -88 108 -211.333 108 -370
c0 -180 -50.333 -351.333 -151 -514c-100 -161.333 -224.667 -287.333 -374 -378c-124.667 -75.333 -250.334 -113 -377.001 -113c-98.667 0 -184.334 31.333 -257.001 94c-108.667 94.667 -163 225 -163 391c0 234.667 104 454.667 312 660
c90 89.333 186.333 160.666 289 213.999l10 -13c-114 -64 -204 -137.667 -270 -221c-112.667 -142.667 -169 -299 -169 -469c0 -143.333 39.667 -266.666 119 -369.999c39.333 -52.667 88.166 -93.334 146.499 -122.001s120.166 -43 185.499 -43c162 0 297 79 405 237
c87.333 127.333 131 268.666 131 423.999c0 166 -36.667 302 -110 408c-66 96 -145.667 144 -239 144c-83.333 0 -150 -44.333 -200 -133c-46.667 -82.667 -70 -168.667 -70 -258c0 -50.667 9.66699 -115.667 29 -195z" />
    <glyph glyph-name="P" unicode="P" horiz-adv-x="1509" 
d="M827 145l-53.001 -63.002c28.667 -1.33301 49.334 -2 62.001 -2c122 0 233.333 26.333 334 79c102.667 54 176.667 151 222 291c38.667 118.667 58 238.667 58 360c0 153.333 -38 274 -114 362c-53.333 62 -120 93 -200 93c-116.667 0 -236.667 -77.333 -360 -232
c-78.667 -99.333 -155.667 -223.666 -231 -372.999c-84.667 -168 -156.334 -333 -215.001 -495l-210 -583l-178 -55l218 672c126 388.667 236.667 746.667 332 1074l11 38c76 18 153.333 39 232 63l-12 -34c-92 -259.333 -158.333 -457.333 -199 -594
c122.667 196.667 245.334 346.334 368.001 449.001c153.333 128.667 295.333 193 426 193c105.333 0 187.666 -40.333 246.999 -121c57.333 -77.333 86 -181.666 86 -312.999c0 -190.667 -60 -371.334 -180 -542.001c-108 -154 -249.333 -273.667 -424 -359
c-147.333 -72 -296.666 -108 -447.999 -108c-70 0 -127.667 4.33301 -173 13c-27.333 5.33301 -41 15 -41 29c0 7.33301 6.66699 16 20 26c43.333 32 83.333 69.333 120 112c99.333 1.33301 200 8 302 20z" />
    <glyph glyph-name="Q" unicode="Q" horiz-adv-x="1426" 
d="M1546 -96l4.99902 -11.999c-22.667 -18 -56 -38.667 -100 -62c-50.667 -28 -91.334 -58 -122.001 -90c-12.667 -0.666992 -21.334 -1 -26.001 -1c-36 0 -98 12.333 -186 37l-92 26c-69.333 19.333 -128.666 29 -177.999 29c-10.667 0 -29.667 -1.66699 -57 -5
c-6 -3.33301 -17 -10.666 -33 -21.999c-16.667 -11.333 -30.667 -17 -42 -17c-9.33301 0 -14 4 -14 12c0 7.33301 11.333 22.833 34 46.5s49 47.834 79 72.501c58.667 47.333 113.334 73.666 164.001 78.999c108 84.667 195 181 261 289c45.333 76 81.5 162.333 108.5 259
s40.5 189 40.5 277c0 130 -32.667 238.333 -98 325c-79.333 106 -186.666 159 -321.999 159c-161.333 0 -300.666 -78.667 -417.999 -236c-56 -74.667 -100.333 -160.667 -133 -258s-49 -192 -49 -284c0 -66.667 12.667 -130.334 38 -191.001
s60.666 -112.334 105.999 -155.001c76 -70.667 162 -106 258 -106c50 0 99.833 10.667 149.5 32s92.834 50.666 129.501 87.999c34 34 68.333 82.333 103 145l19 -8c-52 -98 -116 -180 -192 -246c-116 -100 -245.333 -150 -388 -150c-117.333 0 -212.333 39.667 -285 119
c-76 84 -114 194 -114 330c0 182.667 64 365.334 192 548.001c107.333 152 239.666 279.333 396.999 382c138.667 90 268.667 135 390 135c111.333 0 204.333 -39.333 279 -118c84 -88 126 -208.333 126 -361c0 -227.333 -93.667 -456.666 -281 -687.999
c-57.333 -70.667 -147.333 -167.334 -270 -290.001c39.333 -4.66699 101.333 -18 186 -40l83 -22c11.333 -2.66699 26.333 -6.66699 45 -12c56 -16 101.667 -24 137 -24c22 0 45.333 2.66699 70 8z" />
    <glyph glyph-name="R" unicode="R" horiz-adv-x="1777" 
d="M1014 1141l-393.999 -1088c-50.667 -22 -102 -47.667 -154 -77h-15c-0.666992 13.333 -1 22.666 -1 27.999c0 26.667 7.33301 77.667 22 153c17.333 96 26.666 168.667 27.999 218l37 -62l271 752c69.333 21.333 138 46.666 206 75.999zM479.001 1084
c-36.667 17.333 -74.3311 32.001 -112.998 44.001v15c44.667 38 89.667 79 135 123c101.333 18 229.333 33 384 45s296 18 424 18c211.333 0 361.666 -22.667 450.999 -68c58 -28.667 87 -62.334 87 -101.001c0 -46.667 -52.667 -109.667 -158 -189
c-60.667 -46 -115.334 -79.667 -164.001 -101s-126.667 -46.333 -234 -75c-53.333 -14.667 -102 -31.667 -146 -51c36 -141.333 121.333 -279.666 256 -414.999c70 -69.333 140.667 -123 212 -161s138.333 -57 201 -57c28.667 0 66.667 10 114 30l9 -14
c-54 -31.333 -93.333 -56 -118 -74s-59 -46.667 -103 -86c-16 -2 -31.333 -3 -46 -3c-153.333 0 -310.666 93 -471.999 279c-82.667 95.333 -147.334 195.666 -194.001 300.999c-22 49.333 -33 83 -33 101c0 22 30 49.667 90 83c89.333 49.333 197 94 323 134l108 34
c106.667 34 160 73 160 117c0 106 -164 159 -492 159c-88.667 0 -198 -3.5 -328 -10.5s-225.667 -14.167 -287 -21.5z" />
    <glyph glyph-name="S" unicode="S" horiz-adv-x="1480" 
d="M1335 976l-11.998 10c68 55.333 102 110.333 102 165c0 45.333 -18.333 80.833 -55 106.5s-87.334 38.5 -152.001 38.5c-102 0 -194.667 -33 -278 -99c-66.667 -53.333 -100 -111 -100 -173c0 -52 19.667 -94.833 59 -128.5s102.333 -61.5 189 -83.5l144 -36
c116 -29.333 200.833 -65.166 254.5 -107.499s80.5 -94.833 80.5 -157.5c0 -102.667 -54 -199 -162 -289c-215.333 -180 -506.333 -270 -873 -270c-154.667 0 -291 12.333 -409 37c-35.333 7.33301 -58.5 13.833 -69.5 19.5s-16.5 13.5 -16.5 23.5c0 8 11.333 20.667 34 38
c42.667 31.333 78 64 106 98c17.333 -0.666992 73.666 -3.66699 168.999 -9c46.667 -2.66699 96.334 -4 149.001 -4c32.667 0 73.334 1.33301 122.001 4c19.333 0.666992 35.333 1 48 1c-16.667 -22 -34.334 -47 -53.001 -75c68 -4.66699 129.667 -7 185 -7
c212 0 371 28 477 84c88 46.667 132 108.667 132 186c0 62.667 -27.833 114.5 -83.5 155.5s-146.5 77.167 -272.5 108.5l-152 37c-159.333 38.667 -239 107.667 -239 207c0 76.667 43.333 159 130 247c125.333 128 279.666 222 462.999 282c76 24.667 141.667 37 197 37
c52.667 0 94.167 -9.83301 124.5 -29.5s45.5 -46.834 45.5 -81.501c0 -38.667 -26.667 -89.5 -80 -152.5s-121.333 -123.833 -204 -182.5z" />
    <glyph glyph-name="T" unicode="T" horiz-adv-x="1683" 
d="M1667 1018l-364 -979.999c187.333 62 343.333 98.667 468 110c32.667 -25.333 65.667 -49 99 -71l-8 -11c-59.333 14.667 -108 22 -146 22c-75.333 0 -172.333 -13.833 -291 -41.5s-219 -59.834 -301 -96.501l-11 5l352 1016c62 12 129.333 27.667 202 47zM996 314.001
l0.996094 -13c-24 -14 -57.667 -26.833 -101 -38.5s-79.666 -17.5 -108.999 -17.5c-49.333 0 -105.333 16.833 -168 50.5s-118.334 76.5 -167.001 128.5c-57.333 62 -102.166 131.833 -134.499 209.5s-48.5 154.5 -48.5 230.5c0 120.667 38.667 225.667 116 315
c133.333 153.333 332.333 230 597 230c90.667 0 180.334 -9.66699 269.001 -29s196 -52.333 322 -99c132 -49.333 250.333 -102.333 355 -159v-19c-15.333 -34 -23 -65 -23 -93c0 -14 2 -35.333 6 -64c-231.333 114 -450.166 202.5 -656.499 265.5
s-380.166 94.5 -521.499 94.5c-100 0 -172.333 -15.333 -217 -46c-62 -42.667 -93 -127 -93 -253c0 -102 21.167 -200.833 63.5 -296.5s100.5 -176.5 174.5 -242.5c116.667 -102.667 224.667 -154 324 -154h11z" />
    <glyph glyph-name="U" unicode="U" horiz-adv-x="1824" 
d="M1951 114l2.00195 -23c-114.667 -40.667 -204.334 -69 -269.001 -85s-124 -24 -178 -24c-46 0 -81.667 10.667 -107 32s-38 51.666 -38 90.999c0 50.667 23.333 137.667 70 261l300 791c13.333 36 20 58.667 20 68c0 8.66699 -4 13 -12 13
c-10.667 0 -22.834 -10 -36.501 -30s-34.167 -57.333 -61.5 -112l-62 -125c-103.333 -205.333 -199.166 -371.5 -287.499 -498.5s-181.166 -231.5 -278.499 -313.5c-70.667 -59.333 -145.834 -107.166 -225.501 -143.499s-148.834 -54.5 -207.501 -54.5
c-26.667 0 -48.334 7.5 -65.001 22.5s-25 34.833 -25 59.5c0 36 26 103.667 78 203l130 249c97.333 187.333 160.5 317.833 189.5 391.5s43.5 140.834 43.5 201.501c0 64 -19.167 114.833 -57.5 152.5s-90.5 56.5 -156.5 56.5c-62 0 -128.333 -20 -199 -60
s-141 -97.333 -211 -172l-6 63c98.667 78.667 202.5 140.667 311.5 186s208.833 68 299.5 68c76 0 136 -20.667 180 -62c42.667 -40 64 -90.667 64 -152c0 -66.667 -22 -153 -66 -259c-26 -63.333 -97.333 -204.333 -214 -423l-83 -156c-48 -91.333 -72 -152 -72 -182
c0 -42 23 -63 69 -63c80.667 0 166.334 49.167 257.001 147.5s193 252.833 307 463.5l168 311c47.333 88 85.833 149 115.5 183s79.167 74.333 148.5 121c46 31.333 81.333 58 106 80c20 17.333 34.333 26 43 26c20 0 30 -17 30 -51c0 -32.667 -10.5 -80.834 -31.5 -144.501
s-65.5 -182.5 -133.5 -356.5l-83 -216c-56 -148 -93.5 -252.167 -112.5 -312.5s-28.5 -107.5 -28.5 -141.5c0 -72.667 57.333 -109 172 -109c54 0 121.667 9.33301 203 28z" />
    <glyph glyph-name="V" unicode="V" horiz-adv-x="1643" 
d="M329 1120l-16.002 13c114 127.333 179.333 194.333 196 201c19.333 8 71.833 15.333 157.5 22s170.5 10 254.5 10c170 0 289 -8.66699 357 -26c28.667 -7.33301 43 -20.333 43 -39c0 -19.333 -17.333 -41.666 -52 -66.999l-45 -33
c-157.333 -115.333 -272 -226.5 -344 -333.5s-108 -219.833 -108 -338.5c0 -127.333 39.333 -230.333 118 -309c75.333 -76.667 164.666 -115 267.999 -115c70 0 136.833 18.667 200.5 56s115.834 88 156.501 152c39.333 63.333 70.333 141.666 93 234.999
s34 190.333 34 291c0 46 -4 96.333 -12 151l-48 -41c6 54 9 112.333 9 175c0 48 -2 93.667 -6 137c50 23.333 117.333 72.333 202 147c26 -112.667 39 -230 39 -352c0 -180 -37.667 -350.333 -113 -511c-74 -159.333 -181.667 -293.333 -323 -402
c-146.667 -112.667 -289.667 -169 -429 -169c-109.333 0 -198.666 35 -267.999 105c-76.667 76 -115 179.333 -115 310c0 138.667 46 269 138 391c53.333 70.667 142 157 266 259l78 64l13 12c14 13.333 21 23.666 21 30.999c0 15.333 -14.333 25.333 -43 30
c-78 13.333 -177.333 20 -298 20c-150 0 -264 -9 -342 -27c-31.333 -7.33301 -58.666 -23.666 -81.999 -48.999z" />
    <glyph glyph-name="W" unicode="W" horiz-adv-x="2303" 
d="M2003 1207l6.99609 -13.0029c-108.667 -70 -208 -160 -298 -270c-138 -168.667 -207 -327.667 -207 -477c0 -108 35.333 -194 106 -258c62 -55.333 138.333 -83 229 -83c64.667 0 125.667 15.5 183 46.5s105.666 74.833 145 131.5c80 114.667 120 252.334 120 413.001
c0 63.333 -6.66699 124.833 -20 184.5s-31.666 109.167 -55 148.5l-28 -38c-8.66699 36 -24.667 77 -48 123c-27.333 54.667 -41 110 -41 166c0 2 0.333008 6.33301 1 13c58 28 114 58.667 168 92c54 -67.333 96 -147.333 126 -240s45 -188.667 45 -288
c0 -175.333 -49.667 -336.333 -149 -483c-85.333 -125.333 -194.666 -225.666 -328 -300.999c-111.333 -62.667 -216.666 -94 -315.999 -94c-95.333 0 -174.666 33.333 -237.999 100c-68.667 71.333 -103 162 -103 272c0 83.333 18.833 169 56.5 257s98.5 188.333 182.5 301
c-72 -57.333 -160 -146.666 -264 -267.999l-332 -388c-92 -106.667 -148.667 -183 -170 -229c-61.333 -8.66699 -122 -20 -182 -34c4.66699 38.667 41 133.667 109 285l64 143c126 279.333 189 480.333 189 603c0 84 -25 150.333 -75 199c-51.333 50 -119 75 -203 75
c-59.333 0 -120.166 -14.833 -182.499 -44.5s-117.166 -70.167 -164.499 -121.5l9 59c96 66.667 193.5 119 292.5 157s186.5 57 262.5 57c86.667 0 154.167 -23.333 202.5 -70s72.5 -112 72.5 -196c0 -138.667 -75.667 -366.667 -227 -684l-40 -82
c-23.333 -50 -40.333 -89.333 -51 -118l54 54l23 24l65 71l105 112l291 300c140 143.333 268 260.666 384 351.999c78 12.667 154.667 26.334 230 41.001z" />
    <glyph glyph-name="X" unicode="X" horiz-adv-x="1746" 
d="M1884 156l6.00098 -16.002c-56 -27.333 -97.333 -49.166 -124 -65.499s-65 -42.833 -115 -79.5c-49.333 -14 -94.666 -21 -135.999 -21c-66.667 0 -130.5 14 -191.5 42s-113.167 67 -156.5 117c-68.667 79.333 -120.667 191.666 -156 336.999l-160 -155
c-140 -136 -269.333 -243.667 -388 -323c-77.333 -52 -144.5 -88.833 -201.5 -110.5s-115.5 -32.5 -175.5 -32.5c-68.667 0 -103 10 -103 30c0 7.33301 5.66699 17 17 29c54.667 60.667 93.667 111.334 117 152.001c61.333 5.33301 122.666 13.666 183.999 24.999l-39 -54
c16.667 -1.33301 30 -2 40 -2c66.667 0 143 19.667 229 59c46 20.667 83.833 45.167 113.5 73.5s75.167 83.5 136.5 165.5l207 274l-56 448c-8.66699 70.667 -23.334 106 -44.001 106c-11.333 0 -26.166 -13.5 -44.499 -40.5s-48.833 -79.5 -91.5 -157.5
c-81.333 -150 -140.333 -278.667 -177 -386c-44.667 -37.333 -87.334 -76.666 -128.001 -117.999l-12 8l183 337c109.333 200 223.333 377 342 531c26 33.333 44.5 54.833 55.5 64.5s22.5 14.5 34.5 14.5c26 0 45 -23.167 57 -69.5s20.667 -129.833 26 -250.5l7 -153
c2 -39.333 5.33301 -85 10 -137c10 12 27 30.667 51 56l33 35l343 369c104 22 207 47.667 309 77l11 -14l-410 -368.5c-130.667 -123 -235.667 -228.167 -315 -315.5c20 -131.333 61.667 -238.333 125 -321c47.333 -61.333 105 -108.666 173 -141.999s142 -50 222 -50
c69.333 0 133.333 10.667 192 32z" />
    <glyph glyph-name="Y" unicode="Y" horiz-adv-x="1407" 
d="M1604 298l5.00195 -20.002c-50.667 -10.667 -113.334 -27.167 -188.001 -49.5s-141.334 -44.5 -200.001 -66.5c-59.333 -118.667 -152.333 -221 -279 -307c-184 -124.667 -358.333 -187 -523 -187c-76 0 -144.333 8.33301 -205 25c-56.667 -14 -101.667 -21 -135 -21
c-47.333 0 -71 11.333 -71 34c0 8 8.33301 18 25 30c8 6 25.333 21 52 45c64 56.667 120 85 168 85c19.333 0 44 -3.33301 74 -10c18.667 6.66699 54.667 20.667 108 42l101 38l126 48l256 93c44.667 16 92 34.667 142 56l122 373
c-85.333 -111.333 -163.333 -191.333 -234 -240c-88.667 -61.333 -176.334 -92 -263.001 -92c-86 0 -152.167 27.833 -198.5 83.5s-69.5 135.5 -69.5 239.5c0 54.667 3.33301 114.334 10 179.001l17 168c11.333 109.333 17 201.333 17 276c0 75.333 -12.667 143 -38 203
c76 32 150.333 67.333 223 106c10.667 -7.33301 17.834 -20.166 21.501 -38.499s5.5 -48.5 5.5 -90.5c0 -43.333 -7.66699 -131.666 -23 -264.999l-17 -151c-16.667 -136 -25 -245.667 -25 -329c0 -58 5.33301 -104.833 16 -140.5s28.334 -65.834 53.001 -90.501
c38 -38 85.667 -57 143 -57c83.333 0 163.666 47.333 240.999 142c56.667 69.333 116 194.333 178 375l195 570c72 21.333 143.667 44.333 215 69l-9 -26c-80.667 -224 -163.667 -472 -249 -744l-65 -210c-30.667 -99.333 -60.667 -182 -90 -248
c62 22 127.5 42.667 196.5 62s126.167 33 171.5 41zM1045 88.998c-87.333 -33.333 -193.333 -78.668 -318 -136.001s-210.667 -100.666 -258 -129.999c86 -22 158 -33 216 -33c162.667 0 282.667 99.667 360 299z" />
    <glyph glyph-name="Z" unicode="Z" horiz-adv-x="1758" 
d="M1927 1207l8.99609 -12.002l-273 -225l-133 -107c-114 -91.333 -203.333 -165 -268 -221c28.667 2 91.334 4.33301 188.001 7c30 0 81.333 7.33301 154 22l8 -13c-46 -36.667 -90.667 -78 -134 -124l-33 -2c-137.333 -10.667 -257.333 -17.334 -360 -20.001
c-32 -21.333 -70.833 -49.833 -116.5 -85.5s-81.167 -65.167 -106.5 -88.5c51.333 -7.33301 125.333 -26.333 222 -57l169 -56c152.667 -51.333 260.334 -84.666 323.001 -99.999s122.667 -24 180 -26l-12 74l111 -68v-15c-49.333 -50.667 -95.333 -104 -138 -160
c-20 -1.33301 -34.667 -2 -44 -2c-47.333 0 -109.833 10 -187.5 30s-177.5 52 -299.5 96l-136 49c-49.333 18 -110.833 37.333 -184.5 58s-136.167 36.334 -187.5 47.001c-136 -88.667 -242.667 -148 -320 -178c-86.667 -34 -161.334 -51 -224.001 -51
c-22 0 -39.833 5.16699 -53.5 15.5s-20.5 23.5 -20.5 39.5c0 50 49.667 105.333 149 166c78.667 48 161.5 85.333 248.5 112s169.167 40 246.5 40c24.667 0 56 -1.66699 94 -5l204 166c-84.667 0 -151.334 4 -200.001 12v16c56.667 36 112.334 75 167.001 117
c56.667 -6 122 -10 196 -12l259 210c95.333 76.667 195.333 151.667 300 225c-34.667 -12.667 -71.167 -24.167 -109.5 -34.5s-64.833 -15.5 -79.5 -15.5c-19.333 0 -45.666 10.5 -78.999 31.5s-93.666 65.167 -180.999 132.5c-120 92.667 -213 139 -279 139
c-67.333 0 -133.5 -44.667 -198.5 -134s-123.5 -215.666 -175.5 -378.999c-67.333 -36.667 -133.333 -75.667 -198 -117l-12 8c7.33301 42 39 139.333 95 292l38 102c19.333 53.333 37.333 115.333 54 186c59.333 29.333 117.666 61 174.999 95l11 -7c2 -16 3 -32 3 -48
c0 -26.667 -2.66699 -58 -8 -94c84.667 72 159 123.5 223 154.5s128.667 46.5 194 46.5c47.333 0 91.333 -8.33301 132 -25s86.334 -45 137.001 -85l141 -112c76.667 -61.333 123.334 -92 140.001 -92c16 0 42.5 8.33301 79.5 25s70.5 35.667 100.5 57zM634.996 218.998
c-92 18 -158.667 27 -200 27c-57.333 0 -103 -8.83301 -137 -26.5s-51 -41.5 -51 -71.5c0 -21.333 8.33301 -38.833 25 -52.5s38.667 -20.5 66 -20.5c60.667 0 159.667 48 297 144z" />
    <glyph glyph-name="bracketleft" unicode="[" horiz-adv-x="540" 
d="M947 1401l-15 -47h-224l-546 -1681h223l-15 -47h-370l577 1775h370z" />
    <glyph glyph-name="backslash" unicode="\" horiz-adv-x="795" 
d="M1000 -373c-14.667 0.666992 -27.001 1 -37.001 1c-10.667 0 -29 -1 -55 -3c-9.33301 36.667 -29.666 97.334 -60.999 182.001l-450 1295c-6 16 -19 47.667 -39 95l-47 112c-16 39.333 -30 69.666 -42 90.999c36 -1.33301 69.333 -3.33301 100 -6z" />
    <glyph glyph-name="bracketright" unicode="]" horiz-adv-x="540" 
d="M-204 -374l15 47h224l546 1681h-223l15 47h370l-577 -1775h-370z" />
    <glyph glyph-name="asciicircum" unicode="^" 
d="M225 760h-165l351 609h201l351 -609h-166l-287 488z" />
    <glyph glyph-name="underscore" unicode="_" 
d="M0 -142h1024v-115h-1024v115z" />
    <glyph glyph-name="grave" unicode="`" 
d="M874 692c-70 18.667 -134.833 50.833 -194.5 96.5s-101.5 95.167 -125.5 148.5l8 9c54 -14 108.333 -24 163 -30c22 -107.333 73.333 -178.333 154 -213z" />
    <glyph glyph-name="a" unicode="a" horiz-adv-x="795" 
d="M834 83l5.00293 -15c-174.667 -61.333 -280.334 -92 -317.001 -92c-20.667 0 -37.167 5.66699 -49.5 17s-18.5 26.666 -18.5 45.999c0 14 6 39.333 18 76c5.33301 14.667 11.333 34.334 18 59.001c-62.667 -66.667 -119.834 -115.167 -171.501 -145.5
s-103.5 -45.5 -155.5 -45.5c-60 0 -90 35 -90 105c0 106.667 70.333 214.667 211 324c137.333 106.667 261 160 371 160c57.333 0 110.666 -10.333 159.999 -31c-10.667 -23.333 -42 -88 -94 -194c-54 -110 -81 -185.333 -81 -226c0 -33.333 28 -50 84 -50
c44 0 80.667 4 110 12zM600.003 450c-50.667 14.667 -94.332 22 -130.999 22c-50.667 0 -92 -21 -124 -63c-22 -29.333 -42.167 -71.5 -60.5 -126.5s-27.5 -100.833 -27.5 -137.5c0 -47.333 20.333 -71 61 -71c41.333 0 90.666 43.333 147.999 130c53.333 82 98 164 134 246
z" />
    <glyph glyph-name="b" unicode="b" horiz-adv-x="668" 
d="M577 1159l-207.001 -602c40 3.33301 80 13 120 29c32.667 14.667 59.334 22 80.001 22c50 0 85.333 -21.333 106 -64c20.667 -6 41.667 -10.667 63 -14l5 -25l-52 -12c1.33301 -11.333 2 -21.666 2 -30.999c0 -104.667 -36.333 -197.334 -109 -278.001
c-53.333 -60 -115 -108.5 -185 -145.5s-134.667 -55.5 -194 -55.5c-37.333 0 -68.333 10.5 -93 31.5s-37 47.5 -37 79.5s11.333 83 34 153l283 881c60.667 8 122 18.333 184 31zM366.999 546l-81.999 -242.001c-21.333 -62.667 -32 -107 -32 -133
c0 -28 10.833 -50.667 32.5 -68s50.167 -26 85.5 -26c43.333 0 76 19.667 98 59c38 67.333 57 140.666 57 219.999c0 32.667 -4.83301 59.334 -14.5 80.001s-27.167 41.667 -52.5 63c-34.667 10.667 -65.334 26.334 -92.001 47.001z" />
    <glyph glyph-name="c" unicode="c" horiz-adv-x="621" 
d="M676 86l5 -10.001c-164 -61.333 -304.667 -92 -422 -92c-120 0 -180 44.667 -180 134c0 105.333 56 209 168 311c56 52 115.5 92.833 178.5 122.5s120.833 44.5 173.5 44.5c65.333 0 98 -23.667 98 -71c0 -36.667 -20.833 -72.5 -62.5 -107.5s-98.5 -64.5 -170.5 -88.5
l-7 11c35.333 37.333 53 79 53 125c0 26 -12.333 53.667 -37 83c-48 -29.333 -89.333 -69.666 -124 -120.999c-51.333 -78 -77 -153 -77 -225c0 -90.667 65.667 -136 197 -136c48 0 89.667 2.66699 125 8c42.667 6.66699 70 10.667 82 12z" />
    <glyph glyph-name="d" unicode="d" horiz-adv-x="665" 
d="M160 992l-7.99902 12l182 109c38 23.333 72.333 35 103 35c54 0 103.667 -24 149 -72c83.333 -88 125 -221 125 -399c0 -166 -42.667 -316 -128 -450c-48 -75.333 -103.833 -134.833 -167.5 -178.5s-125.834 -65.5 -186.501 -65.5
c-44.667 0 -79.834 15.167 -105.501 45.5s-38.5 72.5 -38.5 126.5c0 116.667 58.667 219 176 307c92.667 69.333 193 113 301 131c-5.33301 118 -30 217.333 -74 298c-52 96.667 -118 145 -198 145c-37.333 0 -80.666 -14.667 -129.999 -44zM562.001 569
c-74 -14 -138.667 -51.999 -194 -113.999c-65.333 -72.667 -98 -147.667 -98 -225c0 -45.333 9.83301 -83.5 29.5 -114.5s43.834 -46.5 72.501 -46.5c28 0 56.167 17.667 84.5 53s51.166 81 68.499 137c24.667 79.333 37 182.666 37 309.999z" />
    <glyph glyph-name="e" unicode="e" horiz-adv-x="679" 
d="M706 75l4.99805 -15c-174.667 -54.667 -312.667 -82 -414 -82c-70.667 0 -124.667 15.333 -162 46c-34 28.667 -51 69 -51 121c0 111.333 59 212 177 302c113.333 86 226 129 338 129c32.667 0 59.334 -8.66699 80.001 -26s31 -40 31 -68
c0 -60 -38.833 -121.5 -116.5 -184.5s-177.167 -113.5 -298.5 -151.5c56 -59.333 143.333 -89 262 -89c52.667 0 102.334 6 149.001 18zM284.998 161c63.333 30 115.332 69.665 155.999 118.998c48.667 58.667 73 116 73 172c0 18.667 -5.66699 33.834 -17 45.501
s-26.333 17.5 -45 17.5c-35.333 0 -69.666 -19.667 -102.999 -59c-24.667 -28.667 -44.667 -63.167 -60 -103.5s-23 -78.166 -23 -113.499c0 -28.667 6.33301 -54.667 19 -78z" />
    <glyph glyph-name="f" unicode="f" horiz-adv-x="658" 
d="M762 82l-12.0049 -16.9971c-171.333 -52.667 -288.666 -83 -351.999 -91l-87 -354c-55.333 -8.66699 -110.333 -18 -165 -28l99 385c-55.333 14.667 -95.333 35.167 -120 61.5s-37 61.5 -37 105.5c0 46 12.333 95.5 37 148.5s58 101.5 100 145.5
c51.333 54.667 94 82 128 82c8 0 18.333 -2 31 -6c72.667 211.333 143.667 395.666 213 552.999c58 17.333 113.333 37 166 59c9.33301 -78.667 14 -163.667 14 -255c0 -116.667 -5.66699 -210.5 -17 -281.5s-30.666 -135.167 -57.999 -192.5
c-51.333 -106.667 -102 -184.334 -152 -233.001l-8 10c40.667 76.667 70.334 151 89.001 223c34 131.333 51 281 51 449c0 33.333 -1.33301 70.666 -4 111.999c-53.333 -122 -138.666 -417.333 -255.999 -886c34 -5.33301 67.667 -8 101 -8c48.667 0 128.334 6 239.001 18z
M278.995 116.003l18 63c14.667 55.333 22 105.333 22 150c0 30 -5 54 -15 72s-23.667 27 -41 27c-20 0 -36.333 -14.5 -49 -43.5s-19 -66.833 -19 -113.5c0 -74 28 -125.667 84 -155z" />
    <glyph glyph-name="g" unicode="g" horiz-adv-x="782" 
d="M872 263l0.000976562 -18.999c-16.667 -8 -51 -23 -103 -45c-36 -14.667 -66.333 -29.334 -91 -44.001c-24 -92 -49.833 -161.667 -77.5 -209s-72.5 -98.666 -134.5 -153.999c-64 -57.333 -128.333 -105.166 -193 -143.499s-113.667 -57.5 -147 -57.5
c-37.333 0 -56 14.667 -56 44c0 51.333 53.333 131.666 160 240.999c58 60 142.667 128 254 204c15.333 52 32.666 107.667 51.999 167c-182.667 -160.667 -306 -241 -370 -241c-25.333 0 -45.833 10 -61.5 30s-23.5 46 -23.5 78c0 109.333 71 218.333 213 327
c140 107.333 260.333 161 361 161c56.667 0 111.334 -7 164.001 -21c-63.333 -148 -107 -278.333 -131 -391c87.333 41.333 148.666 65.666 183.999 72.999zM622.001 484.001c-52 11.333 -97.666 16.999 -136.999 16.999c-50.667 0 -89.334 -15 -116.001 -45
c-20.667 -23.333 -41.667 -64.5 -63 -123.5s-32 -105.5 -32 -139.5c0 -42 16 -63 48 -63c41.333 0 91 34.333 149 103s108.333 152.334 151 251.001zM476.002 45c-52 -33.333 -103.169 -73.832 -153.502 -121.499s-83.5 -86.834 -99.5 -117.501
c-10 -19.333 -15.667 -30 -17 -32c-4 -5.33301 -6 -9.33301 -6 -12c0 -5.33301 9.33301 -10.333 28 -15s39.667 -7 63 -7c46.667 0 78.834 7 96.501 21s31.834 43.667 42.501 89l18 74l9 44c6 27.333 12.333 53 19 77z" />
    <glyph glyph-name="h" unicode="h" horiz-adv-x="757" 
d="M601 1163l-275 -821.999c65.333 75.333 132.833 135.166 202.5 179.499s130.834 66.5 183.501 66.5c18.667 0 33.667 -5.33301 45 -16s17 -24.667 17 -42c0 -12.667 -6.66699 -36 -20 -70l-81 -211c-17.333 -46 -26 -79.333 -26 -100c0 -39.333 33.333 -59 100 -59
c25.333 0 53.333 1.33301 84 4l4 -15c-172 -65.333 -277.333 -98 -316 -98c-20.667 0 -37.167 6.66699 -49.5 20s-18.5 31.333 -18.5 54c0 50 24.333 134.333 73 253l25 63c11.333 27.333 17 46.333 17 57c0 14.667 -11.333 22 -34 22
c-56.667 0 -106.334 -29.833 -149.001 -89.5s-95.667 -173.167 -159 -340.5l-73 -13l-82 -16l333 1120c66 16 132.333 33.667 199 53z" />
    <glyph glyph-name="i" unicode="i" horiz-adv-x="461" 
d="M533 94l-0.00195312 -17.998c-112 -41.333 -186.667 -67.5 -224 -78.5s-69.666 -16.5 -96.999 -16.5c-29.333 0 -52.5 8.16699 -69.5 24.5s-25.5 38.166 -25.5 65.499c0 33.333 14.667 86.666 44 159.999l117 293c66.667 15.333 132.334 35 197.001 59l-133 -304
c-28 -64.667 -42 -110 -42 -136c0 -42 33.333 -63 100 -63c30.667 0 75 4.66699 133 14zM460.998 941.002c26.667 0 48.334 -9 65.001 -27s25 -41 25 -69c0 -28.667 -10.333 -53.167 -31 -73.5s-46 -30.5 -76 -30.5c-26.667 0 -48.834 8.66699 -66.501 26
s-26.5 39.333 -26.5 66c0 29.333 10.667 54.5 32 75.5s47.333 31.833 78 32.5z" />
    <glyph glyph-name="j" unicode="j" horiz-adv-x="535" 
d="M533 193l29.001 -22c-85.333 -33.333 -154 -72 -206 -116c-4.66699 -13.333 -20 -50 -46 -110l-139 -329c-44.667 -6.66699 -89 -16 -133 -28c0.666992 8.66699 2 21.667 4 39c0 0.666992 0.666992 13.334 2 38.001c5.33301 107.333 39.333 195.333 102 264
c110 257.333 165 427.333 165 510c0 24.667 -9.66699 37 -29 37c-38 0 -79.5 -35 -124.5 -105s-83.5 -160.333 -115.5 -271l-8 -1v138c48.667 90 107.667 166.667 177 230c40.667 36.667 81.667 66.5 123 89.5s74.666 34.5 99.999 34.5c16 0 29 -7 39 -21s15 -32 15 -54
c0 -54.667 -39.333 -196.334 -118 -425.001c80 56 134.333 90 163 102zM488.001 957c26.667 0 48.334 -9 65.001 -27s25 -41 25 -69c0 -28.667 -10.333 -53.167 -31 -73.5s-46 -30.5 -76 -30.5c-26.667 0 -48.834 8.66699 -66.501 26s-26.5 39.333 -26.5 66
c0 29.333 10.667 54.5 32 75.5s47.333 31.833 78 32.5z" />
    <glyph glyph-name="k" unicode="k" horiz-adv-x="717" 
d="M602 1141l-282.998 -840.998c134 177.333 251 266 351 266c58.667 0 88 -28 88 -84c0 -28 -11.167 -59.333 -33.5 -94s-52.833 -67.667 -91.5 -99l-9 8c10 19.333 15 38.333 15 57c0 27.333 -11.833 51.833 -35.5 73.5s-50.834 32.5 -81.501 32.5
c-24.667 0 -44 -9.5 -58 -28.5s-21 -45.167 -21 -78.5c0 -74.667 25.333 -144 76 -208c54.667 -68 124.334 -102 209.001 -102c8 0 20.667 0.666992 38 2l2 -7c-118.667 -49.333 -205.667 -74 -261 -74c-40.667 0 -76.334 13.333 -107.001 40c-44 38 -66 93.667 -66 167
c0 41.333 7.66699 85.666 23 132.999c-34 -47.333 -57.333 -84.666 -70 -111.999s-33.667 -86 -63 -176c-54.667 -10.667 -108.334 -24.334 -161.001 -41.001l346 1114c62.667 13.333 127 30.666 193 51.999z" />
    <glyph glyph-name="l" unicode="l" horiz-adv-x="560" 
d="M598 60l3 -14.002c-170.667 -53.333 -295 -80 -373 -80c-101.333 0 -152 48.667 -152 146c0 46.667 10 102.834 30 168.501s54.667 155.834 104 270.501c79.333 184.667 161.333 353 246 505c58 15.333 116.333 33.666 175 54.999c2.66699 -38 4 -80 4 -126
c0 -140 -8 -256.167 -24 -348.5s-41.667 -171.166 -77 -236.499c-32 -58 -66.833 -109.333 -104.5 -154s-89.167 -95 -154.5 -151c42.667 -29.333 114 -44 214 -44c22.667 0 59 3 109 9zM261 111.998c44.667 38.667 84.833 85.5 120.5 140.5s62.167 111.167 79.5 168.5
c21.333 68.667 38.833 153.5 52.5 254.5s22.167 204.167 25.5 309.5c-82.667 -172 -152.167 -336.667 -208.5 -494s-84.5 -265 -84.5 -323c0 -18 5 -36.667 15 -56z" />
    <glyph glyph-name="m" unicode="m" horiz-adv-x="1139" 
d="M52 -27l199.002 541c58.667 12.667 120.667 28.667 186 48c-30 -58 -59.667 -120 -89 -186c61.333 56.667 124.666 103.167 189.999 139.5s118.333 54.5 159 54.5c18.667 0 33.834 -5.16699 45.501 -15.5s17.5 -23.833 17.5 -40.5c0 -15.333 -9 -41.666 -27 -78.999
l-32 -66c146 130 266.333 195 361 195c45.333 0 68 -17.333 68 -52c0 -14.667 -5.66699 -36.334 -17 -65.001l-88 -219c-18 -43.333 -27 -75.333 -27 -96c0 -44 33.333 -66 100 -66c27.333 0 56.333 5.33301 87 16l2 -14c-164.667 -68.667 -268.667 -103 -312 -103
c-20 0 -36.833 7 -50.5 21s-20.5 31 -20.5 51c0 20.667 8.33301 53.667 25 99l76 203c13.333 37.333 20 60 20 68c0 23.333 -20 35 -60 35c-38 0 -75.667 -23.667 -113 -71s-82 -128.333 -134 -243l-53 -117c-54.667 -10.667 -109.334 -24.334 -164.001 -41.001l128 345
c16.667 44.667 25 74.667 25 90c0 20.667 -21 31 -63 31c-38 0 -74.833 -23.167 -110.5 -69.5s-74.834 -121.166 -117.501 -224.499l-54 -133c-54 -8.66699 -106.333 -20.667 -157 -36z" />
    <glyph glyph-name="n" unicode="n" horiz-adv-x="820" 
d="M59 -33l188.998 544.998c62 16 124.333 34 187 54l-94 -230c69.333 72 135.666 127.833 198.999 167.5s117.666 59.5 162.999 59.5c26.667 0 48.834 -6.83301 66.501 -20.5s26.5 -30.834 26.5 -51.501c0 -15.333 -4.33301 -32.666 -13 -51.999l-114 -255
c-18 -41.333 -27 -69.666 -27 -84.999c0 -18 8.5 -32.167 25.5 -42.5s39.833 -15.5 68.5 -15.5c20 0 56.667 5.33301 110 16l4 -15c-163.333 -56.667 -269.666 -85 -318.999 -85c-56.667 0 -85 25.667 -85 77c0 32.667 12.333 75.667 37 129l71 152c24 51.333 36 82 36 92
c0 15.333 -18.333 23 -55 23c-29.333 0 -55.666 -7.33301 -78.999 -22s-47.666 -39 -72.999 -73c-19.333 -26 -41 -63.167 -65 -111.5s-42.333 -92.166 -55 -131.499l-25 -75c-61.333 -16 -121 -32.667 -179 -50z" />
    <glyph glyph-name="o" unicode="o" horiz-adv-x="689" 
d="M708 512l10.001 -14.998c-19.333 -18 -38.666 -33 -57.999 -45c0.666992 -24.667 1 -40.334 1 -47.001c0 -108 -46.333 -207 -139 -297c-47.333 -46 -100 -82.333 -158 -109s-113.667 -40 -167 -40c-98.667 0 -148 48.333 -148 145c0 69.333 27.333 136.666 82 201.999
s131 122 229 170c-30.667 18.667 -46 31 -46 37c0 5.33301 8.66699 9 26 11c35.333 5.33301 69.666 14.333 102.999 27c52 19.333 84.333 29 97 29c39.333 0 71.666 -20.667 96.999 -62c23.333 -3.33301 47 -5.33301 71 -6zM381.001 463.002
c-42 -36.667 -76.667 -82.001 -104 -136.001s-41 -104.333 -41 -151c0 -39.333 11.167 -71.166 33.5 -95.499s51.5 -36.5 87.5 -36.5c44 0 77 18 99 54c30.667 50 46 108 46 174c0 45.333 -10 99.333 -30 162c-32.667 6 -63 15.667 -91 29z" />
    <glyph glyph-name="p" unicode="p" horiz-adv-x="802" 
d="M9 -413l124.998 395.003c-33.333 14 -64.666 29 -93.999 45l124 55l76 239c10.667 33.333 16 60.333 16 81c0 27.333 -11.667 41 -35 41c-26.667 0 -62.667 -30 -108 -90c-29.333 -38.667 -62.333 -98.667 -99 -180v101c58 86 123 156.667 195 212
c84.667 64 151.334 96 200.001 96c31.333 0 47 -14.667 47 -44c0 -10.667 -2.33301 -26 -7 -46l-22 -84c114 111.333 210.333 167 289 167c32.667 0 58.334 -10.333 77.001 -31s28 -49.334 28 -86.001c0 -47.333 -13.833 -96.333 -41.5 -147s-65.5 -96.667 -113.5 -138
c-38.667 -33.333 -95.334 -66.333 -170.001 -99l129 -7c15.333 -0.666992 46 -1.66699 92 -3c44 -0.666992 79.333 -2 106 -4c-81.333 -43.333 -133.666 -65 -156.999 -65l-26 1h-283c-26 -12.667 -51.667 -23.334 -77 -32.001l-110 -348
c-54.667 -8.66699 -108.334 -18.334 -161.001 -29.001zM451.998 76.0029c48 36.667 84.333 76.001 109 118.001c18 31.333 33.333 67.166 46 107.499s19 73.833 19 100.5c0 22.667 -5 41.167 -15 55.5s-23.333 21.5 -40 21.5c-87.333 0 -173.333 -132 -258 -396z" />
    <glyph glyph-name="q" unicode="q" horiz-adv-x="722" 
d="M766 550l-238.001 -670c44.667 32.667 87 62 127 88l7 -8c-49.333 -51.333 -97.166 -109.5 -143.499 -174.5s-82.5 -124.833 -108.5 -179.5c-52 -12 -102 -25 -150 -39l216 611c-73.333 -71.333 -142 -124 -206 -158c-61.333 -32.667 -112.333 -49 -153 -49
c-25.333 0 -45.333 8.66699 -60 26s-22 40.666 -22 69.999c0 116.667 66 225.334 198 326.001c151.333 115.333 283 173 395 173c39.333 0 85.333 -5.33301 138 -16zM580.999 441c-35.333 12 -78.999 17.999 -130.999 17.999c-33.333 0 -57.333 -1.66699 -72 -5
s-27.334 -9.66602 -38.001 -18.999c-28 -26 -53.167 -68.167 -75.5 -126.5s-33.5 -110.833 -33.5 -157.5c0 -24.667 5.16699 -44.5 15.5 -59.5s23.833 -22.5 40.5 -22.5c28.667 0 69.334 30.333 122.001 91c49.333 56 106.666 149.667 171.999 281z" />
    <glyph glyph-name="r" unicode="r" horiz-adv-x="506" 
d="M583 540l-0.000976562 -29.999c-82 -66.667 -150 -134 -204 -202s-81 -120 -81 -156c0 -29.333 14.667 -52 44 -68s70.666 -24 123.999 -24c4 0 40.333 3.33301 109 10l5 -13c-54.667 -21.333 -121.5 -41.5 -200.5 -60.5s-136.5 -28.5 -172.5 -28.5
c-35.333 0 -63.333 8.5 -84 25.5s-31 39.833 -31 68.5c0 40.667 25.167 85.834 75.5 135.501s149.833 127.5 298.5 233.5c-51.333 0 -98.666 -1.33301 -141.999 -4c-4 -6 -9.66699 -16 -17 -30s-23 -25.667 -47 -35s-50.667 -14.333 -80 -15l34 77c-21.333 6 -32 20 -32 42
c0 12 6 32.167 18 60.5s23.333 49.166 34 62.499c16 19.333 35 33.166 57 41.499s60.667 16.5 116 24.5l-37 -119c10.667 0 37.334 -0.666992 80.001 -2c22 0 66.333 2 133 6z" />
    <glyph glyph-name="s" unicode="s" horiz-adv-x="553" 
d="M460 353l-9.00195 10.0029c29.333 30 44 53.333 44 70c0 34 -32.667 51 -98 51c-46 0 -92.667 -6 -140 -18c13.333 -30 35.666 -58.667 66.999 -86l79 -67c58 -48.667 87 -86.667 87 -114c0 -38.667 -42.333 -91.334 -127 -158.001
c-37.333 -30 -69.166 -50.667 -95.499 -62s-54.833 -17 -85.5 -17c-95.333 0 -143 11.667 -143 35c0 6 7 16.667 21 32c15.333 18 31.333 40.667 48 68c36.667 -0.666992 76.334 -1.33398 119.001 -2.00098l-14 -44c20.667 -5.33301 39.334 -8 56.001 -8
c25.333 0 49 4 71 12s33 17 33 27c0 18.667 -28 50.667 -84 96l-74 59c-42.667 34.667 -64 67 -64 97c0 55.333 40.333 114.333 121 177s156.334 94 227.001 94c31.333 0 56.666 -8.16699 75.999 -24.5s29 -37.5 29 -63.5c0 -25.333 -12.5 -52.333 -37.5 -81
s-60.5 -56.334 -106.5 -83.001z" />
    <glyph glyph-name="t" unicode="t" horiz-adv-x="500" 
d="M554 827l-103.999 -278.997c39.333 1.33301 78.666 3 117.999 5l-20 -38l-24 -45c-32.667 3.33301 -66 5.66602 -100 6.99902l-61 -167c-30 -84 -45 -140.667 -45 -170c0 -58.667 48.333 -88 145 -88c24 0 56.667 3.33301 98 10l4 -14l-26 -8
c-118 -34.667 -191.167 -55.334 -219.5 -62.001s-55.5 -10 -81.5 -10c-62.667 0 -94 30.667 -94 92c0 40 12.333 94.667 37 164l90 256c-36.667 -1.33301 -73.334 -3 -110.001 -5c18 27.333 34.333 53.333 49 78c29.333 -2 58 -3.66699 86 -5l88 248
c56.667 7.33301 113.334 17.666 170.001 30.999z" />
    <glyph glyph-name="u" unicode="u" horiz-adv-x="800" 
d="M827 84l4.99902 -13.001c-155.333 -65.333 -257.666 -98 -306.999 -98c-22 0 -39.833 6 -53.5 18s-20.5 28 -20.5 48c0 18 7.33301 43.333 22 76l43 97c-69.333 -74.667 -130 -130 -182 -166c-71.333 -48.667 -136 -73 -194 -73c-41.333 0 -62 22.667 -62 68
c0 28.667 10.667 68.667 32 120l147 362c61.333 12 125.333 27 192 45l-150 -344c-22.667 -52 -34 -86.333 -34 -103c0 -11.333 4.83301 -20.666 14.5 -27.999s21.834 -11 36.501 -11c38 0 84 38.5 138 115.5s110.333 184.5 169 322.5c62 14 123.667 29 185 45l-134 -315
c-28 -66 -42 -108.667 -42 -128c0 -37.333 28.667 -56 86 -56c21.333 0 57.666 6 108.999 18z" />
    <glyph glyph-name="v" unicode="v" horiz-adv-x="704" 
d="M738 507l6.99805 -15.999c-17.333 -13.333 -34 -25.333 -50 -36c0 -90.667 -34.333 -180.667 -103 -270c-52.667 -68.667 -116.667 -124.167 -192 -166.5s-147.333 -63.5 -216 -63.5c-39.333 0 -70.166 8 -92.499 24s-33.5 38 -33.5 66
c0 27.333 8.33301 63.666 25 108.999l121 328c62 18 125.333 38.667 190 62l-114 -286c-28 -71.333 -42 -121 -42 -149c0 -18.667 9.83301 -34.167 29.5 -46.5s44.834 -18.5 75.501 -18.5c53.333 0 96.166 25.833 128.499 77.5s48.5 120.167 48.5 205.5
c0 28 -3.66699 63.667 -11 107l-42 28c-21.333 14.667 -32 24.667 -32 30c0 8.66699 13.333 16.667 40 24c13.333 3.33301 40.333 12 81 26c33.333 12.667 54.333 19 63 19c24.667 0 45.334 -15 62.001 -45c18 -4 37 -7 57 -9z" />
    <glyph glyph-name="w" unicode="w" horiz-adv-x="1038" 
d="M1106 497l2.00293 -8c-17.333 -14 -34 -26 -50 -36c-3.33301 -67.333 -22.833 -133 -58.5 -197s-85.167 -122.667 -148.5 -176c-42.667 -36 -92.167 -66.167 -148.5 -90.5s-103.833 -36.5 -142.5 -36.5c-36 0 -64.667 9.83301 -86 29.5s-32 46.5 -32 80.5
c0 37.333 7.66699 78.333 23 123c-61.333 -72 -124.666 -127.667 -189.999 -167c-69.333 -42 -125.666 -63 -168.999 -63c-40 0 -60 19.333 -60 58c0 25.333 9.66699 62.666 29 111.999l145 380c61.333 13.333 124.333 31.333 189 54l-123 -293
c-28 -66.667 -42 -113 -42 -139c0 -12.667 4.66699 -23.667 14 -33s20.666 -14 33.999 -14c38 0 85.667 40 143 120c59.333 81.333 108 186 146 314c63.333 12 125.333 27.667 186 47l-109 -288c-25.333 -66 -38 -112 -38 -138c0 -24 9.66699 -43.167 29 -57.5
s45.666 -21.5 78.999 -21.5c51.333 0 90.666 25 117.999 75c31.333 58.667 47 128.334 47 209.001c0 38.667 -4.33301 68.667 -13 90s-23.334 37 -44.001 47c-11.333 6 -17 10.667 -17 14c0 7.33301 24.5 20.5 73.5 39.5s82.833 28.5 101.5 28.5
c31.333 0 51.666 -19 60.999 -57c16 -2 33 -4 51 -6z" />
    <glyph glyph-name="x" unicode="x" horiz-adv-x="775" 
d="M832 74l1 -13c-58 -30 -113.167 -53.833 -165.5 -71.5s-93.166 -26.5 -122.499 -26.5c-72 0 -126 65 -162 195c-19.333 -16 -61 -48.667 -125 -98c-82 -63.333 -126.333 -95 -133 -95c-8.66699 0 -13 8.66699 -13 26c0 78 7.66699 124.667 23 140
c23.333 24.667 65.666 52 126.999 82c-11.333 -28 -17 -56 -17 -84c0 -24 4.66699 -36 14 -36c11.333 0 50 31.667 116 95c-2 6 -5.66699 20.667 -11 44l-8 35l-16 64c-15.333 65.333 -42.333 98 -81 98c-54 0 -101.667 -62.333 -143 -187l-11 1c0 32 0.333008 65.667 1 101
c47.333 46 106.666 98 177.999 156c58.667 48.667 100.334 73 125.001 73c32 0 55.333 -20 70 -60c10 -26 24.667 -86.667 44 -182c56 62 115.667 135.667 179 221c41.333 6 84 13 128 21c-68 -77.333 -166.667 -174.333 -296 -291c19.333 -81.333 44.333 -138 75 -170
s76 -48 136 -48c15.333 0 44.333 3.33301 87 10z" />
    <glyph glyph-name="y" unicode="y" horiz-adv-x="752" 
d="M779 573l-256.001 -721.002c46 26 90.667 49.667 134 71l4 -11c-89.333 -73.333 -164 -172.666 -224 -297.999c-56 -14 -111 -31 -165 -51l214 631c-72 -79.333 -136 -137 -192 -173c-66 -43.333 -121.333 -65 -166 -65c-20 0 -36 5.83301 -48 17.5s-18 27.167 -18 46.5
c0 20 6.33301 46.667 19 80l155 424c64 15.333 128.333 32.333 193 51l-158 -402c-12.667 -31.333 -19 -54 -19 -68c0 -26 13 -39 39 -39c41.333 0 89.833 41.333 145.5 124s108.167 191.667 157.5 327c58.667 16.667 120.334 35.334 185.001 56.001z" />
    <glyph glyph-name="z" unicode="z" horiz-adv-x="656" 
d="M709 94l6.99902 -15.001c-66 -38 -128.833 -68.5 -188.5 -91.5s-106.5 -34.5 -140.5 -34.5s-75 8.66699 -123 26l-56 19c-33.333 11.333 -60.666 17 -81.999 17c-2.66699 0 -7 -0.333008 -13 -1c-23.333 -16 -41 -30.333 -53 -43c-6.66699 -6.66699 -11.667 -10 -15 -10
c-5.33301 0 -8 2.33301 -8 7c0 12 11 31 33 57c60.667 72.667 123.334 113.334 188.001 122.001l140 134c40 38.667 71.333 70.334 94 95.001c-45.333 -18 -79.333 -27 -102 -27c-17.333 0 -45.333 5.66699 -84 17c-14 4 -27 6 -39 6c-38 0 -72.333 -33.333 -103 -100
l-43 -11l129 341c30 7.33301 61.333 16 94 26l-85 -187c51.333 61.333 106.333 92 165 92c24 0 67.333 -5.33301 130 -16c22 -3.33301 41 -5 57 -5c33.333 0 62 3 86 9l4 -7l-134 -122l-160 -139c-58.667 -52.667 -96 -87.667 -112 -105
c30.667 -2.66699 73.667 -13.334 129 -32.001c78 -27.333 138.667 -41 182 -41c23.333 0 57.666 6.33301 102.999 19z" />
    <glyph glyph-name="braceleft" unicode="{" horiz-adv-x="696" 
d="M446 511c40.667 -26.667 61.001 -63.667 61.001 -111c0 -30.667 -8.66699 -72.667 -26 -126l-132 -406c-16 -48.667 -24 -84.667 -24 -108c0 -30 11.833 -51.667 35.5 -65s63.167 -20.666 118.5 -21.999l-15 -47c-101.333 2 -164.666 8 -189.999 18
c-53.333 21.333 -80 64.333 -80 129c0 39.333 10.667 91.666 32 156.999l119 367c14.667 44.667 22 79.334 22 104.001c0 44.667 -25.333 75 -76 91l15 47c47.333 12.667 84.666 33.167 111.999 61.5s50 70.166 68 125.499l128 396c32 98 77 169 135 213
c31.333 24 67.833 41 109.5 51s95.834 15 162.501 15c3.33301 0 10.666 -0.333008 21.999 -1l-15 -48c-76.667 -2 -132.834 -16 -168.501 -42s-64.834 -74 -87.501 -144l-137 -422c-21.333 -64 -45.666 -113 -72.999 -147s-66 -62.667 -116 -86z" />
    <glyph glyph-name="bar" unicode="|" 
d="M423 1365h178v-1706h-178v1706z" />
    <glyph glyph-name="braceright" unicode="}" horiz-adv-x="696" 
d="M475 514c-40 28 -60.001 65.3311 -60.001 111.998c0 32.667 8.33301 74.667 25 126l132 406c16 48.667 24 84.667 24 108c0 30 -11.833 51.667 -35.5 65s-63.167 20.333 -118.5 21l15 48c101.333 -2 164.666 -8 189.999 -18c53.333 -21.333 80 -64.333 80 -129
c0 -40 -10.667 -92.333 -32 -157l-119 -367c-14 -43.333 -21 -78 -21 -104c0 -44.667 25 -75 75 -91l-15 -47c-47.333 -12.667 -84.5 -33.167 -111.5 -61.5s-49.833 -70.166 -68.5 -125.499l-128 -396c-32 -98 -77 -169 -135 -213c-32 -24 -68.667 -41 -110 -51
s-95.333 -15 -162 -15c-3.33301 0 -10.666 0.333008 -21.999 1l15 48c76.667 2 132.834 15.833 168.501 41.5s64.834 73.834 87.501 144.501l137 422c21.333 64 45.666 112.833 72.999 146.5s66 62.167 116 85.5z" />
    <glyph glyph-name="asciitilde" unicode="~" horiz-adv-x="1365" 
d="M287 1181l-94.002 74.002c38 81.333 79.5 141 124.5 179s96.5 57 154.5 57c52 0 130 -25.667 234 -77c57.333 -28.667 97.833 -47.167 121.5 -55.5s47.5 -12.5 71.5 -12.5c35.333 0 66.833 11.5 94.5 34.5s56.834 61.5 87.501 115.5l94 -74
c-28.667 -60.667 -57 -107.334 -85 -140.001c-54.667 -65.333 -119.667 -98 -195 -98c-27.333 0 -55.666 5.16699 -84.999 15.5s-78 31.833 -146 64.5c-92 44.667 -158 67 -198 67c-34.667 0 -65.5 -11.333 -92.5 -34s-55.833 -61.334 -86.5 -116.001z" />
    <glyph glyph-name="nbspace" unicode="&#xa0;" horiz-adv-x="512" 
 />
    <glyph glyph-name="exclamdown" unicode="&#xa1;" horiz-adv-x="499" 
d="M-99 -592l-2 22l327 843l105 35h25l-254 -812c-66.667 -26.667 -133.667 -56 -201 -88zM326 573c24 0 44.833 -8.83301 62.5 -26.5s26.5 -38.5 26.5 -62.5s-8.66699 -44.667 -26 -62s-38.333 -26 -63 -26c-25.333 0 -46.333 8.5 -63 25.5s-25 38.167 -25 63.5
c0 24 8.66699 44.667 26 62s38 26 62 26z" />
    <glyph glyph-name="cent" unicode="&#xa2;" 
d="M757 807c34.667 6.66699 64.6699 10.001 90.0029 10.001c78 0 117 -28.333 117 -85c0 -44 -25 -87.167 -75 -129.5s-118.333 -77.833 -205 -106.5l-8 13c42.667 44.667 64 94.667 64 150c0 32 -14.667 65.667 -44 101c-58 -35.333 -107.667 -84 -149 -146
c-62 -93.333 -93 -183.333 -93 -270c0 -108.667 78.667 -163 236 -163c57.333 0 107.666 3.33301 150.999 10l98 14l7 -12c-164.667 -62.667 -315.334 -98.667 -452.001 -108l-86 -237l-50 20l78 215c-142 6.66699 -213 59.667 -213 159c0 106 49.667 213.667 149 323
c47.333 52 94.666 94.167 141.999 126.5s106.333 63.166 177 92.499l89 243l50 -20z" />
    <glyph glyph-name="sterling" unicode="&#xa3;" horiz-adv-x="1229" 
d="M1026 -60c-172.667 88 -350.331 132 -532.998 132c-42.667 0 -90.334 -2.66699 -143.001 -8c-71.333 -34.667 -130.333 -58.5 -177 -71.5s-94.334 -19.5 -143.001 -19.5c-56 0 -99.667 9.66699 -131 29c47.333 44 90 87 128 129c44 22 102.667 38 176 48
c122.667 16.667 244 25 364 25c106 0 200.5 -7.66699 283.5 -23s173.167 -41.666 270.5 -78.999l21 35c4.66699 -20.667 7.66699 -42.334 9 -65.001c-40 -38.667 -81.667 -82.667 -125 -132zM706.003 682l316.997 -0.000976562l-17 -53h-325
c-31.333 -74 -68.5 -138.667 -111.5 -194s-114.833 -130.333 -215.5 -225h-20c36.667 60.667 70.334 140 101.001 238l54 181h-258l18 53h257c6 16.667 10.333 29.334 13 38.001c34 101.333 66 177.666 96 228.999s74 105 132 161c56 53.333 116.5 100.333 181.5 141
s147.833 82.667 248.5 126c114 49.333 197.333 74 250 74c48 0 84.333 -12.667 109 -38c26.667 -28.667 40 -68.667 40 -120c0 -106 -54 -218 -162 -336c-83.333 -90.667 -182.666 -182 -297.999 -274l-11 12c60.667 58 107.667 110.333 141 157
c79.333 110.667 119 223.667 119 339c0 52.667 -10.167 94.167 -30.5 124.5s-48.5 45.5 -84.5 45.5c-32.667 0 -72.167 -12.167 -118.5 -36.5s-89.833 -56.166 -130.5 -95.499c-80 -76 -157 -207.333 -231 -394c-35.333 -88 -56.666 -139 -63.999 -153z" />
    <glyph glyph-name="currency" unicode="&#xa4;" 
d="M410 649l-122 121l48 48l123 -123c50 35.333 104 53 162 53c58.667 0 113 -17.667 163 -53l123 123l47 -48l-122 -121c40 -50.667 60 -105.334 60 -164.001s-19.667 -113.334 -59 -164.001l121 -121l-48 -48l-123 123c-49.333 -35.333 -103.333 -53 -162 -53
c-58 0 -112.333 17.667 -163 53l-122 -122l-47 47l121 121c-39.333 50.667 -59 105.334 -59 164.001s19.667 113.334 59 164.001zM622 670c-52 0 -97 -18.333 -135 -55c-36 -35.333 -54 -78 -54 -128c0 -52.667 18 -96.667 54 -132c37.333 -36.667 82.333 -55 135 -55
c52 0 96.333 18.333 133 55c36.667 36 55 79.333 55 130s-18.167 94 -54.5 130s-80.833 54.333 -133.5 55z" />
    <glyph glyph-name="yen" unicode="&#xa5;" horiz-adv-x="1241" 
d="M1013 648l263.995 0.000976562l-21 -67h-289l-65 -97h322l-22 -67h-346l-161 -236c-75.333 -110 -171 -192.667 -287 -248c-117.333 -56.667 -241.666 -85 -372.999 -85c-76 0 -114 10 -114 30c0 7.33301 5.66699 17.333 17 30c54.667 60 93.667 110.667 117 152
c80.667 -20.667 148 -31 202 -31c94.667 0 173.834 22.167 237.501 66.5s127.834 121.5 192.501 231.5l52 90h-371l22 67h341l-12 97h-318l22 67h286l-43 401c-8 70.667 -22.667 106 -44 106c-12.667 0 -31.667 -22.667 -57 -68s-51.666 -103.333 -78.999 -174
c-44.667 -37.333 -87.667 -77 -129 -119l-11 9l79 131c107.333 180.667 195.666 312.667 264.999 396c28.667 34.667 48.334 56.334 59.001 65.001s22 13 34 13c26 0 44.667 -21.333 56 -64s20.333 -128 27 -256l9 -153c4 -86.667 10.333 -182.334 19 -287.001
c22.667 37.333 48.334 76.666 77.001 117.999l339 492c86 22 170.667 47.667 254 77l11 -14c-300 -336.667 -487.333 -561 -562 -673z" />
    <glyph glyph-name="brokenbar" unicode="&#xa6;" 
d="M423 1365h178v-688h-178v688zM423 314h178v-655h-178v655z" />
    <glyph glyph-name="section" unicode="&#xa7;" horiz-adv-x="1229" 
d="M1042 956l-7.99805 16.998c76 45.333 114 105.333 114 180c0 57.333 -26.333 107 -79 149c-53.333 43.333 -114.666 65 -183.999 65c-60.667 0 -110.667 -16 -150 -48c-48.667 -39.333 -73 -93 -73 -161c0 -47.333 12.167 -91.166 36.5 -131.499
s64.833 -83.5 121.5 -129.5l139 -114c80.667 -65.333 138.334 -125 173.001 -179s52 -110.667 52 -170c0 -126 -74 -232 -222 -318c14.667 -37.333 22 -72.666 22 -105.999c0 -60.667 -22 -119 -66 -175s-106 -105 -186 -147c-104 -54.667 -211.667 -82 -323 -82
c-98.667 0 -181.334 15.333 -248.001 46c-35.333 16.667 -63.833 39.334 -85.5 68.001s-32.5 58.667 -32.5 90c0 48.667 29.833 98 89.5 148s137.5 91.333 233.5 124l7 -17c-46 -24 -79 -50 -99 -78s-30 -62 -30 -102c0 -58.667 28.667 -110.834 86 -156.501
s122.666 -68.5 195.999 -68.5c69.333 0 131.666 20.333 186.999 61c56.667 42 85 100.333 85 175c0 47.333 -12.5 91 -37.5 131s-65.833 82.333 -122.5 127l-141 112c-152 119.333 -228 234 -228 344c0 66.667 20.167 128.5 60.5 185.5s97.5 104.5 171.5 142.5
c-17.333 36.667 -26 72.667 -26 108c0 86 44.667 165.333 134 238c66 54 144.333 93.333 235 118c81.333 21.333 156.666 32 225.999 32c89.333 0 161 -22.667 215 -68c38 -32.667 57 -70 57 -112c0 -90.667 -100 -190 -300 -298zM511.002 915.998
c-55.333 -44.667 -82.999 -101.335 -82.999 -170.002c0 -109.333 77 -223.666 231 -342.999l150 -116c73.333 -58 120.333 -107.333 141 -148c50 44 75 100 75 168c0 58 -19.167 115 -57.5 171s-101.833 119 -190.5 189l-138 109
c-68.667 54.667 -111.334 101.334 -128.001 140.001z" />
    <glyph glyph-name="dieresis" unicode="&#xa8;" 
d="M542 917c26 0 47.501 -9 64.501 -27s25.5 -41 25.5 -69c0 -29.333 -10.333 -54 -31 -74s-46 -30 -76 -30c-26.667 0 -48.834 8.66699 -66.501 26s-26.5 39.333 -26.5 66c0 29.333 10.667 54.5 32 75.5s47.333 31.833 78 32.5zM849.001 917c26 0 47.501 -9 64.501 -27
s25.5 -41 25.5 -69c0 -29.333 -10.333 -54 -31 -74s-46 -30 -76 -30c-26.667 0 -48.834 8.66699 -66.501 26s-26.5 39.333 -26.5 66c0 29.333 10.667 54.5 32 75.5s47.333 31.833 78 32.5z" />
    <glyph glyph-name="copyright" unicode="&#xa9;" horiz-adv-x="1617" 
d="M1060 1419c206.667 0 376.666 -70.6641 509.999 -211.997c114 -119.333 171 -266 171 -440c0 -134.667 -39.667 -264.334 -119 -389.001c-71.333 -114 -166.666 -205.667 -285.999 -275c-132 -76.667 -274 -115 -426 -115c-116.667 0 -225.667 26.667 -327 80
c-114 59.333 -201.667 142.666 -263 249.999c-55.333 96.667 -83 203 -83 319c0 141.333 39.333 272.333 118 393c75.333 115.333 171 206.666 287 273.999c128 74 267.333 112.333 418 115zM988.999 1352c-188.667 0 -347.001 -71.668 -475.001 -215.001
c-109.333 -123.333 -164 -267.666 -164 -432.999c0 -115.333 28.667 -223.333 86 -324c57.333 -100 135.333 -179 234 -237s201.667 -87 309 -87c196.667 0 358.334 71.667 485.001 215c60 67.333 104 144.333 132 231c21.333 67.333 32 133 32 197
c0 192.667 -70.667 354.667 -212 486c-116.667 108 -259 163.667 -427 167zM1192 887.002l-5.99805 16l13 5c31.333 13.333 47 30.333 47 51c0 20 -13 37.667 -39 53s-56 23 -90 23c-45.333 0 -92.5 -10.667 -141.5 -32s-91.5 -50 -127.5 -86
c-39.333 -38.667 -70.333 -85.667 -93 -141s-34 -111.333 -34 -168c0 -84 29.167 -145.167 87.5 -183.5s152.166 -57.5 281.499 -57.5c52.667 0 133.667 6.66699 243 20l20 2l5 -12c-43.333 -19.333 -84.666 -41.333 -123.999 -66
c-72.667 -14.667 -156.334 -22 -251.001 -22c-260.667 0 -391 83.667 -391 251c0 97.333 36.333 192 109 284c84 106 194.333 183.333 331 232c75.333 26.667 146.333 40 213 40c37.333 0 66.666 -6.83301 87.999 -20.5s32 -32.167 32 -55.5
c0 -25.333 -13 -47.833 -39 -67.5s-70.667 -41.5 -134 -65.5z" />
    <glyph glyph-name="ordfeminine" unicode="&#xaa;" horiz-adv-x="519" 
d="M694 610l7 -21.999c-110.667 -37.333 -178.334 -56 -203.001 -56c-32 0 -48 14.667 -48 44c0 8 5 26.333 15 55c-68 -63.333 -129.667 -95 -185 -95c-41.333 0 -62 23 -62 69c0 65.333 44 130.666 132 195.999c85.333 64 162 96 230 96c36.667 0 72.334 -7 107.001 -21
l-61 -121c-32.667 -64 -49 -107.667 -49 -131c0 -14.667 14.667 -22 44 -22c28.667 0 53 2.66699 73 8zM537 814.001c-34.667 6.66699 -58.332 10.002 -70.999 10.002c-28 0 -51.333 -11.667 -70 -35c-12.667 -16.667 -24.5 -40.834 -35.5 -72.501
s-16.5 -57.834 -16.5 -78.501c0 -23.333 10 -35 30 -35c18.667 0 44.667 21.667 78 65s61.666 92 84.999 146z" />
    <glyph glyph-name="guillemotleft" unicode="&#xab;" horiz-adv-x="700" 
d="M637 485l30.002 -18.999c-30.667 -23.333 -83.334 -60.333 -158.001 -111c50 -44.667 89 -88.667 117 -132c-38.667 -25.333 -77.334 -52 -116.001 -80c-5.33301 11.333 -46 65.666 -122 162.999c72.667 35.333 155.667 95 249 179zM421.002 485.001l30.001 -18.999
c-30.667 -23.333 -83.334 -60.333 -158.001 -111c50 -44.667 89 -88.667 117 -132l-116 -80c-5.33301 11.333 -46 65.666 -122 162.999c72.667 35.333 155.667 95 249 179z" />
    <glyph glyph-name="logicalnot" unicode="&#xac;" 
d="M782 0v415h-714v156h887v-571h-173z" />
    <glyph glyph-name="sfthyphen" unicode="&#xad;" horiz-adv-x="342" 
d="M454 570l6 -21l-65 -95c-66 8 -138 12 -216 12c-23.333 0 -49.333 -0.666992 -78 -2l-5 25c22 30 43.667 61.333 65 94c31.333 -7.33301 83 -11 155 -11c46 0 92 -0.666992 138 -2z" />
    <glyph glyph-name="registered" unicode="&#xae;" horiz-adv-x="1617" 
d="M1060 1419c206.667 0 376.666 -70.6641 509.999 -211.997c114 -119.333 171 -266 171 -440c0 -134.667 -39.667 -264.334 -119 -389.001c-71.333 -114 -166.666 -205.667 -285.999 -275c-132 -76.667 -274 -115 -426 -115c-116.667 0 -225.667 26.667 -327 80
c-114 59.333 -201.667 142.666 -263 249.999c-55.333 96.667 -83 203 -83 319c0 141.333 39.333 272.333 118 393c75.333 115.333 171 206.666 287 273.999c128 74 267.333 112.333 418 115zM988.999 1352c-188.667 0 -347.001 -71.668 -475.001 -215.001
c-109.333 -123.333 -164 -267.666 -164 -432.999c0 -115.333 28.667 -223.333 86 -324c57.333 -100 135.333 -179 234 -237s201.667 -87 309 -87c196.667 0 358.334 71.667 485.001 215c60 67.333 104 144.333 132 231c21.333 67.333 32 133 32 197
c0 192.667 -70.667 354.667 -212 486c-116.667 108 -259 163.667 -427 167zM919.998 954.002l-221.999 -614c-30.667 -12.667 -61.334 -27.667 -92.001 -45h-11c-0.666992 7.33301 -1 14 -1 20c0 13.333 4 41.666 12 84.999c10.667 57.333 16 103 16 137l24 -39l148 409
c42 12.667 84 28.334 126 47.001zM610.999 923.002c-22.667 10.667 -45.668 19.333 -69.001 26v12c26.667 22 53.334 46 80.001 72c143.333 24 299 36 467 36c97.333 0 173.666 -8.83301 228.999 -26.5s83 -41.834 83 -72.501c0 -30 -31 -67.667 -93 -113
c-32.667 -24 -63.667 -42.167 -93 -54.5s-74.666 -26.5 -135.999 -42.5c-31.333 -8.66699 -58 -17.667 -80 -27c20 -78 69 -155.333 147 -232c83.333 -82 162.333 -123 237 -123c16 0 38 6 66 18l7 -12c-48 -28.667 -91.333 -60 -130 -94
c-9.33301 -1.33301 -18.333 -2 -27 -2c-89.333 0 -181 53 -275 159c-32 36 -62 78.333 -90 127s-42 82.667 -42 102c0 35.333 80 78 240 128l62 19c59.333 18.667 89 39.334 89 62.001c0 59.333 -93.667 89 -281 89c-142 0 -259.667 -6.33301 -353 -19z" />
    <glyph glyph-name="overscore" unicode="&#xaf;" 
d="M0 1775h1024v-148h-1024v148z" />
    <glyph glyph-name="degree" unicode="&#xb0;" horiz-adv-x="695" 
d="M527 942c61.333 0 114.333 -21.332 159 -63.999c44 -42.667 66 -94.334 66 -155.001s-22 -112.334 -66 -155.001c-44.667 -42.667 -97.667 -64 -159 -64c-62.667 0 -116 21.333 -160 64s-66 95.334 -66 158.001c0 58.667 22 109.167 66 151.5s97.333 63.833 160 64.5z
M527 877.001c-43.333 0 -80.333 -15.002 -111 -45.002s-46 -65.667 -46 -107c0 -44 15.167 -81 45.5 -111s67.5 -45 111.5 -45c43.333 0 80.333 15 111 45s46 66.333 46 109s-15.167 78.834 -45.5 108.501s-67.5 44.834 -111.5 45.501z" />
    <glyph glyph-name="plusminus" unicode="&#xb1;" 
d="M259 94h724v-67h-724v67zM259 562h328v315h68v-315h328v-67h-328v-315h-68v315h-328v67z" />
    <glyph glyph-name="twosuperior" unicode="&#xb2;" horiz-adv-x="633" 
d="M318 772l-7.99902 9.99902c26 34.667 51 69.667 75 105c51.333 14.667 107 22 167 22c96 0 144 -31 144 -93c0 -32 -17.333 -67.167 -52 -105.5s-92.667 -86.166 -174 -143.499l-102 -73c-24.667 -17.333 -47 -35.333 -67 -54c74 11.333 146.667 17 218 17
c106 0 159 -8 159 -24c0 -5.33301 -9.66699 -17.333 -29 -36l-70 -82l-8 5c1.33301 4.66699 2 8 2 10c0 11.333 -13 19.166 -39 23.499s-72.333 6.5 -139 6.5c-52.667 0 -102.667 -2 -150 -6c-43.333 -3.33301 -70 -5.33301 -80 -6l2 25l135 100
c82 60.667 133 99.334 153 116.001s40.333 37 61 61c26.667 30.667 40 59 40 85c0 40 -30.667 60 -92 60c-40.667 0 -89.334 -7.66699 -146.001 -23z" />
    <glyph glyph-name="threesuperior" unicode="&#xb3;" horiz-adv-x="633" 
d="M319 790c40 32.667 73.998 67 101.998 103c37.333 5.33301 74 8 110 8c57.333 0 103.5 -8.66699 138.5 -26s52.5 -40 52.5 -68c0 -58 -93.667 -120 -281 -186c12 -6.66699 20.333 -11 25 -13l42 -19c38.667 -17.333 65 -33 79 -47s21 -32 21 -54
c0 -56 -37.667 -113.333 -113 -172c-65.333 -50.667 -147 -80 -245 -88l-45 57l16 8c48.667 -6.66699 83.334 -10 104.001 -10c53.333 0 99.833 12.333 139.5 37s59.5 53.667 59.5 87c0 28 -22.667 52 -68 72l-61 28c-56.667 25.333 -85 45 -85 59c0 10 10 21.667 30 35
c18.667 12 35.334 29.333 50.001 52c142 18.667 213 47 213 85c0 37.333 -46.667 56 -140 56c-40 0 -85.333 -4.66699 -136 -14z" />
    <glyph glyph-name="acute" unicode="&#xb4;" 
d="M559 692l-4.99902 11.001c81.333 34.667 132.666 105.667 153.999 213c54.667 6 109 16 163 30l8 -9c-24 -53.333 -65.667 -102.833 -125 -148.5s-124.333 -77.834 -195 -96.501z" />
    <glyph glyph-name="mu" unicode="&#xb5;" horiz-adv-x="800" 
d="M-82 -319l338.997 841.999c61.333 12 125.333 27 192 45l-150 -344c-22.667 -51.333 -34 -86 -34 -104c0 -11.333 4.83301 -20.666 14.5 -27.999s21.834 -11 36.501 -11c38 0 83.833 38.333 137.5 115s110.167 184.667 169.5 324c62 14 123.333 29 184 45l-133 -315
c-28 -66 -42 -108.667 -42 -128c0 -37.333 28.667 -56 86 -56c22 0 58.333 6 109 18l5 -13c-68 -28.667 -130.667 -52.167 -188 -70.5s-97 -27.5 -119 -27.5s-39.833 6.16699 -53.5 18.5s-20.5 28.166 -20.5 47.499c0 18 7 43.333 21 76l43 97
c-56.667 -62 -105.334 -108.333 -146.001 -139c-43.333 -33.333 -75.166 -55.666 -95.499 -66.999s-39.166 -17 -56.499 -17c-11.333 0 -22.666 4.66699 -33.999 14l-91 -261l-172 -83z" />
    <glyph glyph-name="paragraph" unicode="&#xb6;" horiz-adv-x="991" 
d="M1332 1346l-574.999 -1570c-54 -14 -105.333 -30.667 -154 -50l554 1562c-26.667 14 -55.667 23.333 -87 28l-566 -1540c-50 -14.667 -98.667 -31.334 -146 -50.001l356 1026c-100.667 -61.333 -190 -92 -268 -92c-34.667 0 -61.667 8.5 -81 25.5s-29 40.833 -29 71.5
c0 68 26.167 143.167 78.5 225.5s120.166 155.5 203.499 219.5c145.333 110.667 311 166 497 166c80.667 0 153 -7.33301 217 -22z" />
    <glyph glyph-name="middot" unicode="&#xb7;" horiz-adv-x="451" 
d="M347 607c26 0 47.333 -8.5 64 -25.5s25 -38.167 25 -63.5c0 -24 -8.66699 -44.667 -26 -62s-38 -26 -62 -26s-44.833 8.83301 -62.5 26.5s-26.5 38.5 -26.5 62.5s8.5 44.5 25.5 61.5s37.833 25.833 62.5 26.5z" />
    <glyph glyph-name="cedilla" unicode="&#xb8;" 
d="M406 41l41 -8.00098l-77 -120c32 10 59.333 15 82 15c29.333 0 52.833 -7.16699 70.5 -21.5s26.5 -33.5 26.5 -57.5c0 -46 -27 -85.667 -81 -119s-125.333 -54.666 -214 -63.999l-3 31c120.667 18 181 53 181 105c0 34.667 -24.667 52 -74 52
c-21.333 0 -44.333 -2.33301 -69 -7z" />
    <glyph glyph-name="onesuperior" unicode="&#xb9;" horiz-adv-x="633" 
d="M624 895l-185 -514l-110 -45l-7 10l171 467l-141 -74v22l264 140z" />
    <glyph glyph-name="ordmasculine" unicode="&#xba;" horiz-adv-x="454" 
d="M638 861l11.001 -15.998c-14 -12.667 -26.333 -22.334 -37 -29.001v-27c0 -64 -29 -123 -87 -177c-63.333 -60 -131 -90 -203 -90c-64.667 0 -97 30.667 -97 92c0 40.667 16.167 80.667 48.5 120s77.166 72.666 134.499 99.999c-14 10 -21 17.333 -21 22
c0 6.66699 7.33301 11 22 13c20.667 2.66699 41 7.66699 61 15c32 12 52.667 18 62 18c25.333 0 46 -12.333 62 -37c13.333 -2 28 -3.33301 44 -4zM435.001 818.002c-22.667 -19.333 -42 -44.668 -58 -76.001s-24 -60 -24 -86c0 -20.667 6 -37.5 18 -50.5
s28.333 -19.5 49 -19.5c24 0 43.5 11.667 58.5 35s22.5 54.333 22.5 93c0 28.667 -5.33301 58.334 -16 89.001c-17.333 3.33301 -34 8.33301 -50 15z" />
    <glyph glyph-name="guillemotright" unicode="&#xbb;" horiz-adv-x="593" 
d="M125 143l-32.002 18.999c28 23.333 76.667 60.333 146 111c-55.333 44.667 -99.666 88.667 -132.999 132c36 25.333 71.667 52 107 80c7.33301 -11.333 54.333 -65.666 141 -162.999c-69.333 -35.333 -145.666 -95 -228.999 -179zM340.998 142.999l-32.001 18.999
c28 23.333 76.333 60.333 145 111c-54.667 44.667 -98.667 88.667 -132 132c36 25.333 71.667 52 107 80c6.66699 -11.333 53.667 -65.666 141 -162.999c-69.333 -35.333 -145.666 -95 -228.999 -179z" />
    <glyph glyph-name="onequarter" unicode="&#xbc;" horiz-adv-x="1447" 
d="M592 895l-185 -514l-110 -45l-7 10l171 467l-141 -74v22l264 140zM1107 902c34.667 -1.33301 75 -2.33398 121 -3.00098c-76.667 -64 -158 -144 -244 -240l-445 -515c-57.333 -67.333 -97 -116.666 -119 -147.999l-108 3c38.667 34.667 83.667 80.667 135 138l559 641
c57.333 66.667 91 108 101 124zM1380 544.999l-131.001 -354.999c12.667 -0.666992 33 -1.33398 61 -2.00098c39.333 -2.66699 65 -7.66699 77 -15l-77 -105l-6 2c-3.33301 10.667 -9.5 17.5 -18.5 20.5s-32.5 5.16699 -70.5 6.5l-32 -81
c-38.667 -14.667 -76.667 -28.334 -114 -41.001l-4 7l23 56l24 62c-21.333 0.666992 -39 1 -53 1c-56 0 -121.667 -2.33301 -197 -7l-22 -1l-1 13c61.333 80 109.5 148 144.5 204s71.833 124.667 110.5 206l135 35c-30.667 -64.667 -73.5 -130.667 -128.5 -198
s-118.833 -132 -191.5 -194c54.667 14.667 133.334 24.334 236.001 29.001l115 329l112 36z" />
    <glyph glyph-name="onehalf" unicode="&#xbd;" horiz-adv-x="1447" 
d="M606 895l-185 -514l-110 -45l-7 10l171 467l-141 -74v22l264 140zM1107 902c35.333 -1.33301 75.666 -2.33398 120.999 -3.00098c-76 -64 -157.333 -144 -244 -240l-444 -515c-58 -67.333 -97.667 -116.666 -119 -147.999l-108 3
c38.667 34.667 83.334 80.667 134.001 138l559 641c57.333 66.667 91 108 101 124zM992 421.999l-7.99805 9.99902c26 34.667 51 69.667 75 105c50.667 14.667 106.667 22 168 22c95.333 0 143 -31 143 -93c0 -32 -17.167 -67 -51.5 -105s-92.5 -86 -174.5 -144l-103 -73
c-24 -17.333 -46 -35 -66 -53c77.333 10.667 149.666 16 216.999 16c106 0 159 -8.33301 159 -25c0 -4.66699 -9.33301 -16.334 -28 -35.001c-4.66699 -4.66699 -19 -21 -43 -49c-12 -15.333 -21 -26.333 -27 -33l-8 5c0.666992 4.66699 1 8.33398 1 11.001
c0 10.667 -12.833 18.167 -38.5 22.5s-71.834 6.5 -138.501 6.5c-52 0 -102 -2 -150 -6l-80 -6l2 25l135 100c82 60.667 133 99.334 153 116.001s40.333 37 61 61c26.667 30.667 40 59 40 85c0 40 -30.667 60 -92 60c-40 0 -88.667 -7.66699 -146 -23z" />
    <glyph glyph-name="threequarters" unicode="&#xbe;" horiz-adv-x="1447" 
d="M286 790c40 32.667 73.998 67 101.998 103c37.333 5.33301 74 8 110 8c57.333 0 103.5 -8.66699 138.5 -26s52.5 -40 52.5 -68c0 -58 -93.667 -120 -281 -186c12 -6.66699 20.333 -11 25 -13l42 -19c38.667 -17.333 65 -33 79 -47s21 -32 21 -54
c0 -56 -37.667 -113.333 -113 -172c-65.333 -50.667 -147 -80 -245 -88l-45 57l16 8c48.667 -6.66699 83.334 -10 104.001 -10c53.333 0 99.833 12.333 139.5 37s59.5 53.667 59.5 87c0 28 -22.667 52 -68 72l-61 28c-56.667 25.333 -85 45 -85 59c0 10 10 21.667 30 35
c18.667 12 35.334 29.333 50.001 52c142 18.667 213 47 213 85c0 37.333 -46.667 56 -140 56c-40 0 -85.333 -4.66699 -136 -14zM1148 902c34.667 -1.33301 74.666 -2.33398 119.999 -3.00098c-76 -64 -157 -144 -243 -240l-445 -515
c-57.333 -67.333 -97 -116.666 -119 -147.999l-108 3c38.667 34.667 83.334 80.667 134.001 138l559 641c57.333 66.667 91.333 108 102 124zM1407 544.999l-131.002 -355c12.667 -0.666992 33 -1.33398 61 -2.00098c38.667 -2.66699 64.334 -7.66699 77.001 -15l-77 -105
l-7 2c-2.66699 10.667 -8.5 17.5 -17.5 20.5s-32.833 5.16699 -71.5 6.5l-31 -81l-114 -41l-5 7c10.667 24 18.667 42.667 24 56l24 62c-21.333 0.666992 -39 1 -53 1c-56.667 0 -122.667 -2.33301 -198 -7l-21 -1l-1 13c61.333 80 109.333 148 144 204
s71.667 124.667 111 206l135 35c-30.667 -64.667 -73.5 -130.667 -128.5 -198s-118.833 -132 -191.5 -194c54.667 14.667 133.334 24.334 236.001 29.001l115 329l112 36z" />
    <glyph glyph-name="questiondown" unicode="&#xbf;" horiz-adv-x="606" 
d="M195 -641l-6.00391 6.99609c8.66699 10.667 13 20 13 28c0 12 -10 22.333 -30 31l-95 40c-118.667 49.333 -178 110 -178 182c0 54 25.333 108.5 76 163.5s120.667 104.5 210 148.5l67 33c16.667 8 36.334 19.333 59.001 34c-3.33301 40 -9.66602 72.333 -18.999 97
s-28.666 61.334 -57.999 110.001c50.667 20.667 100.334 43.334 149.001 68.001c48.667 -68 73 -133.333 73 -196c0 -45.333 -16 -78.666 -48 -99.999c-20.667 -14 -64 -31.667 -130 -53l-90 -30c-93.333 -30 -140 -75.333 -140 -136c0 -40 14 -73.667 42 -101
s77.667 -55.666 149 -84.999l86 -36c26 -10.667 42.5 -18.667 49.5 -24s10.5 -13 10.5 -23c0 -18 -17.833 -41.833 -53.5 -71.5s-81.167 -58.5 -136.5 -86.5zM389.996 572.996c24 0 44.833 -8.83301 62.5 -26.5s26.5 -38.5 26.5 -62.5s-8.66699 -44.667 -26 -62
s-38 -26 -62 -26c-25.333 0 -46.5 8.5 -63.5 25.5s-25.5 38.167 -25.5 63.5c0 24 8.66699 44.667 26 62s38 26 62 26z" />
    <glyph glyph-name="Agrave" unicode="&#xc0;" horiz-adv-x="2125" 
d="M1807 335l-295.999 -0.000976562c-56.667 -70 -104 -123 -142 -159s-80 -68.667 -126 -98c-104 -64.667 -227.667 -97 -371 -97c-178.667 0 -356 66.333 -532 199c-99.333 75.333 -177.666 159.333 -234.999 252c62.667 30 121.667 62.333 177 97
c71.333 -21.333 138.666 -36.666 201.999 -45.999c57.333 -10 234.666 -22 531.999 -36l436 -17c17.333 26.667 44.666 72.667 81.999 138l73 126c184 319.333 352 539 504 659c66 17.333 129.667 36.666 191 57.999c0 -53.333 -11.5 -125.333 -34.5 -216
s-56.167 -194.667 -99.5 -312l-78 -209c-16 -43.333 -36.333 -103.333 -61 -180l-26 -79l228 -6l-157 -66l-96 -4l-42 -129c-24 -74 -36 -125.667 -36 -155c0 -5.33301 0.666992 -13.666 2 -24.999c-73.333 -16 -148 -34.333 -224 -55c32.667 83.333 61.334 161 86.001 233z
M1834 418.999l223 660c24.667 73.333 43 145.333 55 216c-58.667 -60 -122.667 -152.333 -192 -277l-106 -190c-96 -169.333 -175.333 -303.333 -238 -402zM393.001 370.999c61.333 -80.667 140.331 -151.667 236.998 -213c136 -86 260.333 -129 373 -129
c78.667 0 147.334 23 206.001 69s120.334 125.333 185.001 238zM2358 1457c-84 18.667 -161.833 50.833 -233.5 96.5s-121.834 95.167 -150.501 148.5l10 9c65.333 -14 130.333 -24 195 -30c26.667 -107.333 88.334 -178.333 185.001 -213z" />
    <glyph glyph-name="Aacute" unicode="&#xc1;" horiz-adv-x="2125" 
d="M1807 335l-295.999 -0.000976562c-56.667 -70 -104 -123 -142 -159s-80 -68.667 -126 -98c-104 -64.667 -227.667 -97 -371 -97c-178.667 0 -356 66.333 -532 199c-99.333 75.333 -177.666 159.333 -234.999 252c62.667 30 121.667 62.333 177 97
c71.333 -21.333 138.666 -36.666 201.999 -45.999c57.333 -10 234.666 -22 531.999 -36l436 -17c17.333 26.667 44.666 72.667 81.999 138l73 126c184 319.333 352 539 504 659c66 17.333 129.667 36.666 191 57.999c0 -53.333 -11.5 -125.333 -34.5 -216
s-56.167 -194.667 -99.5 -312l-78 -209c-16 -43.333 -36.333 -103.333 -61 -180l-26 -79l228 -6l-157 -66l-96 -4l-42 -129c-24 -74 -36 -125.667 -36 -155c0 -5.33301 0.666992 -13.666 2 -24.999c-73.333 -16 -148 -34.333 -224 -55c32.667 83.333 61.334 161 86.001 233z
M1834 418.999l223 660c24.667 73.333 43 145.333 55 216c-58.667 -60 -122.667 -152.333 -192 -277l-106 -190c-96 -169.333 -175.333 -303.333 -238 -402zM393.001 370.999c61.333 -80.667 140.331 -151.667 236.998 -213c136 -86 260.333 -129 373 -129
c78.667 0 147.334 23 206.001 69s120.334 125.333 185.001 238zM2034 1443l-5.99902 11.001c97.333 34.667 159 105.667 185 213c65.333 6 130.666 16 195.999 30l9 -9c-28.667 -53.333 -78.667 -102.833 -150 -148.5s-149.333 -77.834 -234 -96.501z" />
    <glyph glyph-name="Acircumflex" unicode="&#xc2;" horiz-adv-x="2125" 
d="M1807 335l-295.999 -0.000976562c-56.667 -70 -104 -123 -142 -159s-80 -68.667 -126 -98c-104 -64.667 -227.667 -97 -371 -97c-178.667 0 -356 66.333 -532 199c-99.333 75.333 -177.666 159.333 -234.999 252c62.667 30 121.667 62.333 177 97
c71.333 -21.333 138.666 -36.666 201.999 -45.999c57.333 -10 234.666 -22 531.999 -36l436 -17c17.333 26.667 44.666 72.667 81.999 138l73 126c184 319.333 352 539 504 659c66 17.333 129.667 36.666 191 57.999c0 -53.333 -11.5 -125.333 -34.5 -216
s-56.167 -194.667 -99.5 -312l-78 -209c-16 -43.333 -36.333 -103.333 -61 -180l-26 -79l228 -6l-157 -66l-96 -4l-42 -129c-24 -74 -36 -125.667 -36 -155c0 -5.33301 0.666992 -13.666 2 -24.999c-73.333 -16 -148 -34.333 -224 -55c32.667 83.333 61.334 161 86.001 233z
M1834 418.999l223 660c24.667 73.333 43 145.333 55 216c-58.667 -60 -122.667 -152.333 -192 -277l-106 -190c-96 -169.333 -175.333 -303.333 -238 -402zM393.001 370.999c61.333 -80.667 140.331 -151.667 236.998 -213c136 -86 260.333 -129 373 -129
c78.667 0 147.334 23 206.001 69s120.334 125.333 185.001 238zM2032 1467l-50.001 28.002c72.667 37.333 125 68.666 157 93.999s64 60 96 104c44.667 10.667 88.334 22.667 131.001 36c10 -68.667 34.333 -141.334 73 -218.001c-50.667 -18 -102.667 -33.333 -156 -46
c-26.667 60 -44.667 110.667 -54 152c-64 -58.667 -129.667 -108.667 -197 -150z" />
    <glyph glyph-name="Atilde" unicode="&#xc3;" horiz-adv-x="2125" 
d="M1807 335l-295.999 -0.000976562c-56.667 -70 -104 -123 -142 -159s-80 -68.667 -126 -98c-104 -64.667 -227.667 -97 -371 -97c-178.667 0 -356 66.333 -532 199c-99.333 75.333 -177.666 159.333 -234.999 252c62.667 30 121.667 62.333 177 97
c71.333 -21.333 138.666 -36.666 201.999 -45.999c57.333 -10 234.666 -22 531.999 -36l436 -17c17.333 26.667 44.666 72.667 81.999 138l73 126c184 319.333 352 539 504 659c66 17.333 129.667 36.666 191 57.999c0 -53.333 -11.5 -125.333 -34.5 -216
s-56.167 -194.667 -99.5 -312l-78 -209c-16 -43.333 -36.333 -103.333 -61 -180l-26 -79l228 -6l-157 -66l-96 -4l-42 -129c-24 -74 -36 -125.667 -36 -155c0 -5.33301 0.666992 -13.666 2 -24.999c-73.333 -16 -148 -34.333 -224 -55c32.667 83.333 61.334 161 86.001 233z
M1834 418.999l223 660c24.667 73.333 43 145.333 55 216c-58.667 -60 -122.667 -152.333 -192 -277l-106 -190c-96 -169.333 -175.333 -303.333 -238 -402zM393.001 370.999c61.333 -80.667 140.331 -151.667 236.998 -213c136 -86 260.333 -129 373 -129
c78.667 0 147.334 23 206.001 69s120.334 125.333 185.001 238zM2473 1664l22.001 -3.99902c-44.667 -66.667 -78.834 -110.834 -102.501 -132.501s-49.5 -32.5 -77.5 -32.5c-22 0 -49 2 -81 6l-118 16c-20.667 2.66699 -37.667 4 -51 4c-30 0 -60 -15 -90 -45l-22 7
c52 68 91.333 112.333 118 133s57 31 91 31c18.667 0 42.667 -2.66699 72 -8l105 -20c10.667 -2 25 -3 43 -3c28 0 58.333 16 91 48z" />
    <glyph glyph-name="Adieresis" unicode="&#xc4;" horiz-adv-x="2125" 
d="M1807 335l-295.999 -0.000976562c-56.667 -70 -104 -123 -142 -159s-80 -68.667 -126 -98c-104 -64.667 -227.667 -97 -371 -97c-178.667 0 -356 66.333 -532 199c-99.333 75.333 -177.666 159.333 -234.999 252c62.667 30 121.667 62.333 177 97
c71.333 -21.333 138.666 -36.666 201.999 -45.999c57.333 -10 234.666 -22 531.999 -36l436 -17c17.333 26.667 44.666 72.667 81.999 138l73 126c184 319.333 352 539 504 659c66 17.333 129.667 36.666 191 57.999c0 -53.333 -11.5 -125.333 -34.5 -216
s-56.167 -194.667 -99.5 -312l-78 -209c-16 -43.333 -36.333 -103.333 -61 -180l-26 -79l228 -6l-157 -66l-96 -4l-42 -129c-24 -74 -36 -125.667 -36 -155c0 -5.33301 0.666992 -13.666 2 -24.999c-73.333 -16 -148 -34.333 -224 -55c32.667 83.333 61.334 161 86.001 233z
M1834 418.999l223 660c24.667 73.333 43 145.333 55 216c-58.667 -60 -122.667 -152.333 -192 -277l-106 -190c-96 -169.333 -175.333 -303.333 -238 -402zM393.001 370.999c61.333 -80.667 140.331 -151.667 236.998 -213c136 -86 260.333 -129 373 -129
c78.667 0 147.334 23 206.001 69s120.334 125.333 185.001 238zM1997 1668c27.333 0 50.333 -9.33496 69 -28.002s28 -42 28 -70c0 -26.667 -9.5 -49.5 -28.5 -68.5s-41.833 -28.5 -68.5 -28.5s-49.667 9.66699 -69 29s-29 42.333 -29 69s9.33301 49.334 28 68.001
s42 28.334 70 29.001zM2342 1668c27.333 0 50.333 -9.33496 69 -28.002s28 -42 28 -70c0 -26.667 -9.5 -49.5 -28.5 -68.5s-41.833 -28.5 -68.5 -28.5s-49.667 9.66699 -69 29s-29 42.333 -29 69s9.33301 49.334 28 68.001s42 28.334 70 29.001z" />
    <glyph glyph-name="Aring" unicode="&#xc5;" horiz-adv-x="2125" 
d="M1807 335l-295.999 -0.000976562c-56.667 -70 -104 -123 -142 -159s-80 -68.667 -126 -98c-104 -64.667 -227.667 -97 -371 -97c-178.667 0 -356 66.333 -532 199c-99.333 75.333 -177.666 159.333 -234.999 252c62.667 30 121.667 62.333 177 97
c71.333 -21.333 138.666 -36.666 201.999 -45.999c57.333 -10 234.666 -22 531.999 -36l436 -17c17.333 26.667 44.666 72.667 81.999 138l73 126c184 319.333 352 539 504 659c66 17.333 129.667 36.666 191 57.999c0 -53.333 -11.5 -125.333 -34.5 -216
s-56.167 -194.667 -99.5 -312l-78 -209c-16 -43.333 -36.333 -103.333 -61 -180l-26 -79l228 -6l-157 -66l-96 -4l-42 -129c-24 -74 -36 -125.667 -36 -155c0 -5.33301 0.666992 -13.666 2 -24.999c-73.333 -16 -148 -34.333 -224 -55c32.667 83.333 61.334 161 86.001 233z
M1834 418.999l223 660c24.667 73.333 43 145.333 55 216c-58.667 -60 -122.667 -152.333 -192 -277l-106 -190c-96 -169.333 -175.333 -303.333 -238 -402zM393.001 370.999c61.333 -80.667 140.331 -151.667 236.998 -213c136 -86 260.333 -129 373 -129
c78.667 0 147.334 23 206.001 69s120.334 125.333 185.001 238zM2247 1710l-3.00098 10c23.333 16 45 34.333 65 55c80 -16 120 -56.667 120 -122c0 -50.667 -21.833 -97.667 -65.5 -141s-90.834 -65 -141.5 -65c-34.667 0 -63.5 11 -86.5 33s-34.5 49.333 -34.5 82
c0 40 13.333 78.5 40 115.5s62.334 66.833 107.001 89.5l8 -18c-68 -38.667 -102 -82 -102 -130c0 -31.333 12.5 -58.833 37.5 -82.5s53.833 -35.5 86.5 -35.5c26.667 0 48.667 8.5 66 25.5s26 38.833 26 65.5c0 33.333 -12 61.333 -36 84s-53 34 -87 34z" />
    <glyph glyph-name="AE" unicode="&#xc6;" horiz-adv-x="2841" 
d="M1790 334l-305.998 3.00195c-82 -108.667 -175 -193 -279 -253c-118.667 -68 -245.334 -102 -380.001 -102c-180 0 -358.333 71 -535 213c-90.667 73.333 -161.667 154.666 -213 243.999c66.667 29.333 127 61 181 95c82 -26 181.833 -44.833 299.5 -56.5
s334.167 -24.167 649.5 -37.5l217 -10l43 69l44 73l121 198c83.333 136.667 162.166 249.667 236.499 339s170.833 187 289.5 293l212 63c-34 -152.667 -82.333 -275.667 -145 -369c83.333 88 165.333 165.667 246 233c145.333 38.667 284 58 416 58
c50 0 89 -3.33301 117 -10c8 -2 14.667 -3 20 -3c3.33301 0 16.666 4.66699 40 14l9 -11c-41.333 -36.667 -80 -77.334 -116 -122.001c-88.667 22.667 -170.334 34 -245 34c-85.333 0 -176 -10 -272 -30c-56 -55.333 -110.167 -121 -162.5 -197
s-96.833 -153.333 -133.5 -232c76.667 7.33301 151.667 11 225 11l248 -1c8.66699 0 37 2 85 6l6 -13l-95 -87l-18 1c-106 6 -183.667 9 -233 9c-94.667 0 -180.667 -4 -258 -12c-63.333 -141.333 -95 -260.333 -95 -357c0 -108.667 44.333 -184.334 133 -227.001
c62 -30 184 -45 366 -45c124.667 0 264.667 12 420 36l3 -12c-62.667 -40 -125 -82.667 -187 -128c-30.667 -2 -70.667 -5.66699 -120 -11c-148.667 -17.333 -271 -26 -367 -26c-152.667 0 -268.667 27.833 -348 83.5s-119 136.834 -119 243.501v33zM1800 418.002
c14 77.333 56.333 194.667 127 352l113 251c64 141.333 111 261.333 141 360l-96 -118c-84 -106.667 -158 -213 -222 -319l-117 -191c-70.667 -122.667 -137.667 -231.667 -201 -327zM366.002 374.003c60.667 -79.333 138.333 -149 233 -209
c131.333 -83.333 256.333 -125 375 -125c104 0 191.667 39.667 263 119c54 60 98.333 120 133 180z" />
    <glyph glyph-name="Ccedilla" unicode="&#xc7;" horiz-adv-x="1482" 
d="M864 -32l-49.002 -77.001c35.333 12 65 18 89 18c32.667 0 58.834 -8 78.501 -24s29.5 -37.333 29.5 -64c0 -50 -29.667 -93.333 -89 -130s-138 -60.334 -236 -71.001l-4 34c133.333 19.333 200 58 200 116c0 38.667 -27.667 58 -83 58c-22 0 -47 -3.33301 -75 -10
l92 153c-144 9.33301 -253.333 31 -328 65c-161.333 74 -242 197 -242 369c0 170 63.667 335.667 191 497c145.333 186 336.666 321.333 573.999 406c131.333 47.333 253.666 71 366.999 71c67.333 0 119.333 -12.667 156 -38c32.667 -22.667 49 -53 49 -91
c0 -55.333 -41.333 -106.333 -124 -153c-28.667 -16.667 -85 -41 -169 -73l-7 18c38.667 16 65.834 31.667 81.501 47s23.5 34 23.5 56c0 36.667 -22.667 68.834 -68 96.501s-98 41.5 -158 41.5c-117.333 0 -234.333 -36.667 -351 -110
c-114 -71.333 -202.667 -170 -266 -296c-57.333 -114.667 -86 -232.667 -86 -354c0 -146 47.333 -253 142 -321c100.667 -72 266.334 -108 497.001 -108c94.667 0 188 5.66699 280 17c100.667 12 160.334 19 179.001 21l5 -13c-72 -33.333 -141.667 -71 -209 -113
c-52.667 -11.333 -119.5 -20.666 -200.5 -27.999s-153.167 -11 -216.5 -11c-14 0 -38.333 0.333008 -73 1z" />
    <glyph glyph-name="Egrave" unicode="&#xc8;" horiz-adv-x="1202" 
d="M1273 140l4 -8.99902c-64.667 -36 -129.334 -77.333 -194.001 -124c-108 -22 -222 -33 -342 -33c-181.333 0 -330.333 28.667 -447 86c-104.667 51.333 -157 118.333 -157 201c0 88.667 65.333 172.667 196 252c43.333 26 84.166 46.667 122.499 62
s119.166 42.666 242.499 81.999l96 32c63.333 20.667 95 34.667 95 42c0 5.33301 -14.333 12.333 -43 21c-79.333 24 -133.666 45 -162.999 63c-59.333 36 -89 78.667 -89 128c0 28 10.333 63.333 31 106l-110 -38l-5 9c67.333 41.333 134 85 200 131
c72.667 74 135.334 128.333 188.001 163c48 32 103 59 165 81s114.333 33 157 33c16 0 24 -5 24 -15c0 -12.667 -18 -38.5 -54 -77.5s-71.333 -70.833 -106 -95.5c-45.333 -32.667 -111.666 -64.667 -198.999 -96c-48 -17.333 -85.333 -31.333 -112 -42
c-1.33301 -9.33301 -2 -16.333 -2 -21c0 -30.667 15.5 -60.5 46.5 -89.5s72.5 -52.833 124.5 -71.5l57 -20c66.667 -24 100 -43.333 100 -58c0 -8 -19 -27.833 -57 -59.5s-82.333 -64.5 -133 -98.5c-35.333 -24 -64.833 -40.333 -88.5 -49s-68.167 -19 -133.5 -31l-61 -11
c-88.667 -16 -159.667 -42 -213 -78c-56 -38.667 -84 -86 -84 -142c0 -94 70 -165.333 210 -214c100 -35.333 217 -53 351 -53c75.333 0 203 11.333 383 34zM1294 1484c-84 18.667 -161.833 50.833 -233.5 96.5s-121.834 95.167 -150.501 148.5l10 9
c65.333 -14 130.333 -24 195 -30c26.667 -107.333 88.334 -178.333 185.001 -213z" />
    <glyph glyph-name="Eacute" unicode="&#xc9;" horiz-adv-x="1202" 
d="M1273 140l4 -8.99902c-64.667 -36 -129.334 -77.333 -194.001 -124c-108 -22 -222 -33 -342 -33c-181.333 0 -330.333 28.667 -447 86c-104.667 51.333 -157 118.333 -157 201c0 88.667 65.333 172.667 196 252c43.333 26 84.166 46.667 122.499 62
s119.166 42.666 242.499 81.999l96 32c63.333 20.667 95 34.667 95 42c0 5.33301 -14.333 12.333 -43 21c-79.333 24 -133.666 45 -162.999 63c-59.333 36 -89 78.667 -89 128c0 28 10.333 63.333 31 106l-110 -38l-5 9c67.333 41.333 134 85 200 131
c72.667 74 135.334 128.333 188.001 163c48 32 103 59 165 81s114.333 33 157 33c16 0 24 -5 24 -15c0 -12.667 -18 -38.5 -54 -77.5s-71.333 -70.833 -106 -95.5c-45.333 -32.667 -111.666 -64.667 -198.999 -96c-48 -17.333 -85.333 -31.333 -112 -42
c-1.33301 -9.33301 -2 -16.333 -2 -21c0 -30.667 15.5 -60.5 46.5 -89.5s72.5 -52.833 124.5 -71.5l57 -20c66.667 -24 100 -43.333 100 -58c0 -8 -19 -27.833 -57 -59.5s-82.333 -64.5 -133 -98.5c-35.333 -24 -64.833 -40.333 -88.5 -49s-68.167 -19 -133.5 -31l-61 -11
c-88.667 -16 -159.667 -42 -213 -78c-56 -38.667 -84 -86 -84 -142c0 -94 70 -165.333 210 -214c100 -35.333 217 -53 351 -53c75.333 0 203 11.333 383 34zM971 1443l-5.99902 11.001c97.333 34.667 159 105.667 185 213c65.333 6 130.666 16 195.999 30l9 -9
c-28.667 -53.333 -78.667 -102.833 -150 -148.5s-149.333 -77.834 -234 -96.501z" />
    <glyph glyph-name="Ecircumflex" unicode="&#xca;" horiz-adv-x="1202" 
d="M1273 140l4 -8.99902c-64.667 -36 -129.334 -77.333 -194.001 -124c-108 -22 -222 -33 -342 -33c-181.333 0 -330.333 28.667 -447 86c-104.667 51.333 -157 118.333 -157 201c0 88.667 65.333 172.667 196 252c43.333 26 84.166 46.667 122.499 62
s119.166 42.666 242.499 81.999l96 32c63.333 20.667 95 34.667 95 42c0 5.33301 -14.333 12.333 -43 21c-79.333 24 -133.666 45 -162.999 63c-59.333 36 -89 78.667 -89 128c0 28 10.333 63.333 31 106l-110 -38l-5 9c67.333 41.333 134 85 200 131
c72.667 74 135.334 128.333 188.001 163c48 32 103 59 165 81s114.333 33 157 33c16 0 24 -5 24 -15c0 -12.667 -18 -38.5 -54 -77.5s-71.333 -70.833 -106 -95.5c-45.333 -32.667 -111.666 -64.667 -198.999 -96c-48 -17.333 -85.333 -31.333 -112 -42
c-1.33301 -9.33301 -2 -16.333 -2 -21c0 -30.667 15.5 -60.5 46.5 -89.5s72.5 -52.833 124.5 -71.5l57 -20c66.667 -24 100 -43.333 100 -58c0 -8 -19 -27.833 -57 -59.5s-82.333 -64.5 -133 -98.5c-35.333 -24 -64.833 -40.333 -88.5 -49s-68.167 -19 -133.5 -31l-61 -11
c-88.667 -16 -159.667 -42 -213 -78c-56 -38.667 -84 -86 -84 -142c0 -94 70 -165.333 210 -214c100 -35.333 217 -53 351 -53c75.333 0 203 11.333 383 34zM968 1481l-50.001 28.002c72.667 37.333 125 68.666 157 93.999s64 60 96 104
c44.667 10.667 88.334 22.667 131.001 36c10 -68.667 34.333 -141.334 73 -218.001c-50.667 -18 -102.667 -33.333 -156 -46c-26.667 60 -44.667 110.667 -54 152c-64 -58.667 -129.667 -108.667 -197 -150z" />
    <glyph glyph-name="Edieresis" unicode="&#xcb;" horiz-adv-x="1202" 
d="M1273 140l4 -8.99902c-64.667 -36 -129.334 -77.333 -194.001 -124c-108 -22 -222 -33 -342 -33c-181.333 0 -330.333 28.667 -447 86c-104.667 51.333 -157 118.333 -157 201c0 88.667 65.333 172.667 196 252c43.333 26 84.166 46.667 122.499 62
s119.166 42.666 242.499 81.999l96 32c63.333 20.667 95 34.667 95 42c0 5.33301 -14.333 12.333 -43 21c-79.333 24 -133.666 45 -162.999 63c-59.333 36 -89 78.667 -89 128c0 28 10.333 63.333 31 106l-110 -38l-5 9c67.333 41.333 134 85 200 131
c72.667 74 135.334 128.333 188.001 163c48 32 103 59 165 81s114.333 33 157 33c16 0 24 -5 24 -15c0 -12.667 -18 -38.5 -54 -77.5s-71.333 -70.833 -106 -95.5c-45.333 -32.667 -111.666 -64.667 -198.999 -96c-48 -17.333 -85.333 -31.333 -112 -42
c-1.33301 -9.33301 -2 -16.333 -2 -21c0 -30.667 15.5 -60.5 46.5 -89.5s72.5 -52.833 124.5 -71.5l57 -20c66.667 -24 100 -43.333 100 -58c0 -8 -19 -27.833 -57 -59.5s-82.333 -64.5 -133 -98.5c-35.333 -24 -64.833 -40.333 -88.5 -49s-68.167 -19 -133.5 -31l-61 -11
c-88.667 -16 -159.667 -42 -213 -78c-56 -38.667 -84 -86 -84 -142c0 -94 70 -165.333 210 -214c100 -35.333 217 -53 351 -53c75.333 0 203 11.333 383 34zM987 1668c28 0 51.333 -9.33496 70 -28.002s28 -42 28 -70c0 -26.667 -9.66699 -49.5 -29 -68.5
s-42 -28.5 -68 -28.5c-26.667 0 -49.667 9.66699 -69 29s-29 42.333 -29 69s9.33301 49.334 28 68.001s41.667 28.334 69 29.001zM1333 1668c27.333 0 50.333 -9.33496 69 -28.002s28 -42 28 -70c0 -26.667 -9.66699 -49.5 -29 -68.5s-42 -28.5 -68 -28.5
c-26.667 0 -49.667 9.66699 -69 29s-29 42.333 -29 69s9.33301 49.334 28 68.001s42 28.334 70 29.001z" />
    <glyph glyph-name="Igrave" unicode="&#xcc;" horiz-adv-x="1574" 
d="M275 702l-7.00391 9.00098c72.667 82 155.834 166.5 249.501 253.5s179.834 159.833 258.501 218.5c230 170 425.333 255 586 255c102.667 0 185.667 -33.667 249 -101c38.667 -40.667 68.834 -94.667 90.501 -162s32.5 -140.333 32.5 -219
c0 -177.333 -51.667 -340.333 -155 -489c-112 -160.667 -278.667 -288.334 -500 -383.001c-173.333 -74 -347.666 -111 -522.999 -111c-79.333 0 -150 7.33301 -212 22s-93 31 -93 49c0 6.66699 3.5 13.5 10.5 20.5s26.5 22.167 58.5 45.5c32 24.667 62 52.667 90 84
c73.333 -2.66699 135 -4 185 -4c53.333 0 143 4.33301 269 13c-20.667 -23.333 -32.667 -36.333 -36 -39c-14.667 -16 -22 -26 -22 -30c0 -9.33301 13.333 -14 40 -14c69.333 0 150 10.333 242 31c153.333 34.667 268 112.667 344 234c70.667 114 106 247 106 399
c0 179.333 -49.667 315 -149 407c-70.667 64.667 -155 97 -253 97c-103.333 0 -210.5 -39.5 -321.5 -118.5s-222.5 -195.167 -334.5 -348.5c-68 -37.333 -136.333 -77 -205 -119zM1536 1470c-84 18.667 -161.833 50.833 -233.5 96.5s-121.834 95.167 -150.501 148.5l10 9
c65.333 -14 130.333 -24 195 -30c26.667 -107.333 88.334 -178.333 185.001 -213z" />
    <glyph glyph-name="Iacute" unicode="&#xcd;" horiz-adv-x="1574" 
d="M275 702l-7.00391 9.00098c72.667 82 155.834 166.5 249.501 253.5s179.834 159.833 258.501 218.5c230 170 425.333 255 586 255c102.667 0 185.667 -33.667 249 -101c38.667 -40.667 68.834 -94.667 90.501 -162s32.5 -140.333 32.5 -219
c0 -177.333 -51.667 -340.333 -155 -489c-112 -160.667 -278.667 -288.334 -500 -383.001c-173.333 -74 -347.666 -111 -522.999 -111c-79.333 0 -150 7.33301 -212 22s-93 31 -93 49c0 6.66699 3.5 13.5 10.5 20.5s26.5 22.167 58.5 45.5c32 24.667 62 52.667 90 84
c73.333 -2.66699 135 -4 185 -4c53.333 0 143 4.33301 269 13c-20.667 -23.333 -32.667 -36.333 -36 -39c-14.667 -16 -22 -26 -22 -30c0 -9.33301 13.333 -14 40 -14c69.333 0 150 10.333 242 31c153.333 34.667 268 112.667 344 234c70.667 114 106 247 106 399
c0 179.333 -49.667 315 -149 407c-70.667 64.667 -155 97 -253 97c-103.333 0 -210.5 -39.5 -321.5 -118.5s-222.5 -195.167 -334.5 -348.5c-68 -37.333 -136.333 -77 -205 -119zM1226 1470l-5.99902 11.001c97.333 34.667 159 105.667 185 213
c65.333 6 130.666 16 195.999 30l9 -9c-28.667 -53.333 -78.667 -102.833 -150 -148.5s-149.333 -77.834 -234 -96.501z" />
    <glyph glyph-name="Icircumflex" unicode="&#xce;" horiz-adv-x="1574" 
d="M275 702l-7.00391 9.00098c72.667 82 155.834 166.5 249.501 253.5s179.834 159.833 258.501 218.5c230 170 425.333 255 586 255c102.667 0 185.667 -33.667 249 -101c38.667 -40.667 68.834 -94.667 90.501 -162s32.5 -140.333 32.5 -219
c0 -177.333 -51.667 -340.333 -155 -489c-112 -160.667 -278.667 -288.334 -500 -383.001c-173.333 -74 -347.666 -111 -522.999 -111c-79.333 0 -150 7.33301 -212 22s-93 31 -93 49c0 6.66699 3.5 13.5 10.5 20.5s26.5 22.167 58.5 45.5c32 24.667 62 52.667 90 84
c73.333 -2.66699 135 -4 185 -4c53.333 0 143 4.33301 269 13c-20.667 -23.333 -32.667 -36.333 -36 -39c-14.667 -16 -22 -26 -22 -30c0 -9.33301 13.333 -14 40 -14c69.333 0 150 10.333 242 31c153.333 34.667 268 112.667 344 234c70.667 114 106 247 106 399
c0 179.333 -49.667 315 -149 407c-70.667 64.667 -155 97 -253 97c-103.333 0 -210.5 -39.5 -321.5 -118.5s-222.5 -195.167 -334.5 -348.5c-68 -37.333 -136.333 -77 -205 -119zM1196 1467l-50.001 28.002c72.667 37.333 125 68.666 157 93.999s64 60 96 104
c44.667 10.667 88.334 22.667 131.001 36c10 -68.667 34.333 -141.334 73 -218.001c-50.667 -18 -102.667 -33.333 -156 -46c-26.667 60 -44.667 110.667 -54 152c-64 -58.667 -129.667 -108.667 -197 -150z" />
    <glyph glyph-name="Idieresis" unicode="&#xcf;" horiz-adv-x="1574" 
d="M275 702l-7.00391 9.00098c72.667 82 155.834 166.5 249.501 253.5s179.834 159.833 258.501 218.5c230 170 425.333 255 586 255c102.667 0 185.667 -33.667 249 -101c38.667 -40.667 68.834 -94.667 90.501 -162s32.5 -140.333 32.5 -219
c0 -177.333 -51.667 -340.333 -155 -489c-112 -160.667 -278.667 -288.334 -500 -383.001c-173.333 -74 -347.666 -111 -522.999 -111c-79.333 0 -150 7.33301 -212 22s-93 31 -93 49c0 6.66699 3.5 13.5 10.5 20.5s26.5 22.167 58.5 45.5c32 24.667 62 52.667 90 84
c73.333 -2.66699 135 -4 185 -4c53.333 0 143 4.33301 269 13c-20.667 -23.333 -32.667 -36.333 -36 -39c-14.667 -16 -22 -26 -22 -30c0 -9.33301 13.333 -14 40 -14c69.333 0 150 10.333 242 31c153.333 34.667 268 112.667 344 234c70.667 114 106 247 106 399
c0 179.333 -49.667 315 -149 407c-70.667 64.667 -155 97 -253 97c-103.333 0 -210.5 -39.5 -321.5 -118.5s-222.5 -195.167 -334.5 -348.5c-68 -37.333 -136.333 -77 -205 -119zM1175 1695c27.333 0 50.333 -9.33496 69 -28.002s28 -42 28 -70
c0 -26.667 -9.66699 -49.5 -29 -68.5s-42 -28.5 -68 -28.5c-26.667 0 -49.667 9.66699 -69 29s-29 42.333 -29 69s9.33301 49.334 28 68.001s42 28.334 70 29.001zM1520 1695c27.333 0 50.333 -9.33496 69 -28.002s28 -42 28 -70c0 -26.667 -9.66699 -49.5 -29 -68.5
s-42 -28.5 -68 -28.5c-26.667 0 -49.667 9.66699 -69 29s-29 42.333 -29 69s9.33301 49.334 28 68.001s42 28.334 70 29.001z" />
    <glyph glyph-name="Eth" unicode="&#xd0;" horiz-adv-x="2129" 
d="M1359 478l-73.998 -213.001c-69.333 -28 -137 -63 -203 -105l103 318h-290l68 64h242l144 445c76 25.333 148.333 53 217 83c-102 71.333 -215.833 127.5 -341.5 168.5s-246.5 61.5 -362.5 61.5c-154 0 -266 -30 -336 -90c-60 -51.333 -90 -111.666 -90 -180.999
c0 -79.333 33.667 -142 101 -188c58.667 -40 136.667 -60 234 -60c90 0 173 14.833 249 44.5s155 78.167 237 145.5l14 -10c-78 -97.333 -163 -172.333 -255 -225c-138 -78 -267 -117 -387 -117c-93.333 0 -171 26.333 -233 79c-65.333 56.667 -98 128 -98 214
c0 53.333 14.833 108.5 44.5 165.5s70.5 108.833 122.5 155.5c130.667 116.667 312.667 175 546 175c210.667 0 417.334 -50 620.001 -150c154 -76 280 -172.667 378 -290c132 -158.667 198 -307.667 198 -447c0 -115.333 -55.667 -228.333 -167 -339
c-135.333 -134.667 -300.666 -202 -495.999 -202c-37.333 0 -90.333 2.33301 -159 7l-117 7c-124.667 8 -242.334 12 -353.001 12c-143.333 0 -267.333 -9 -372 -27l-4 9c67.333 48 131 100 191 156c59.333 6.66699 128.666 10 207.999 10c138 0 257.667 -3.33301 359 -10
l146 -10c128 -12.667 219.333 -19 274 -19c102.667 0 189 24.333 259 73s105 108.667 105 180c0 49.333 -13.333 107.5 -40 174.5s-61.667 130.167 -105 189.5c-44.667 62 -100.834 123.667 -168.501 185s-134.834 112.333 -201.501 153l-184 -528h319l-68 -64h-274z" />
    <glyph glyph-name="Ntilde" unicode="&#xd1;" horiz-adv-x="2198" 
d="M2311 652l-69 -57.001c-58 -180.667 -125.333 -330.334 -202 -449.001c-93.333 -143.333 -174.333 -215 -243 -215c-118.667 0 -178 203.333 -178 610c0 24.667 1 63.667 3 117l9 421c0.666992 16 1 26.667 1 32c0 76.667 -11 115 -33 115
c-30 0 -77.333 -73.667 -142 -221l-61 -138c-56.667 -130 -104.834 -231.333 -144.501 -304s-84.5 -141.667 -134.5 -207c-164.667 -218 -343.667 -374.333 -537 -469c-147.333 -72 -282.333 -108 -405 -108c-61.333 0 -113.166 6 -155.499 18s-63.5 26.667 -63.5 44
c0 9.33301 10.667 22.666 32 39.999l100 90c64.667 2.66699 131 7.33398 199 14.001l-55 -64c39.333 -5.33301 82.333 -8 129 -8c190.667 0 339.334 53 446.001 159c86.667 86 181.667 239.333 285 460l91 194c54 114 105.5 205.833 154.5 275.5s111.833 139.5 188.5 209.5
c132.667 121.333 216 182 250 182c39.333 0 59 -48.667 59 -146c0 -15.333 -0.333008 -28.666 -1 -39.999l-8 -113c-12 -166 -18 -315.667 -18 -449c0 -359.333 47.667 -539 143 -539c22 0 42.167 14.333 60.5 43s40.166 79.667 65.499 153c34 98.667 57 194 69 286
c-34.667 58.667 -52 128.667 -52 210c0 115.333 23 201.333 69 258c50 26.667 98.333 55.334 145 86.001c4.66699 -22 7 -47.667 7 -77c0 -58 -3.66699 -121 -11 -189s-16 -118 -26 -150c10 -26 21 -50.667 33 -74zM2344 1664l22 -3.99902
c-44.667 -66.667 -78.834 -110.834 -102.5 -132.501c-23.667 -21.667 -49.5 -32.5 -77.5 -32.5c-22 0 -49 2 -81 6l-118 16c-20.667 2.66699 -37.667 4 -51 4c-30 0 -60 -15 -90 -45l-22 7c52 68 91.333 112.333 118 133s57 31 91 31c18.667 0 42.667 -2.66699 72 -8
l105 -20c10.667 -2 25 -3 43 -3c28 0 58.333 16 91 48z" />
    <glyph glyph-name="Ograve" unicode="&#xd2;" horiz-adv-x="1385" 
d="M832 679l-12.9961 -3.99902c-15.333 40.667 -29.166 87.334 -41.499 140.001s-20.833 101 -25.5 145c37.333 106 96.666 202.333 177.999 289c104.667 112.667 212.667 169 324 169c86.667 0 161 -37.333 223 -112c72 -88 108 -211.333 108 -370
c0 -180 -50.333 -351.333 -151 -514c-100 -161.333 -224.667 -287.333 -374 -378c-124.667 -75.333 -250.334 -113 -377.001 -113c-98.667 0 -184.334 31.333 -257.001 94c-108.667 94.667 -163 225 -163 391c0 234.667 104 454.667 312 660
c90 89.333 186.333 160.666 289 213.999l10 -13c-114 -64 -204 -137.667 -270 -221c-112.667 -142.667 -169 -299 -169 -469c0 -143.333 39.667 -266.666 119 -369.999c39.333 -52.667 88.166 -93.334 146.499 -122.001s120.166 -43 185.499 -43c162 0 297 79 405 237
c87.333 127.333 131 268.666 131 423.999c0 166 -36.667 302 -110 408c-66 96 -145.667 144 -239 144c-83.333 0 -150 -44.333 -200 -133c-46.667 -82.667 -70 -168.667 -70 -258c0 -50.667 9.66699 -115.667 29 -195zM1441 1470c-84 18.667 -161.833 50.833 -233.5 96.5
s-121.834 95.167 -150.501 148.5l10 9c65.333 -14 130.333 -24 195 -30c26.667 -107.333 88.334 -178.333 185.001 -213z" />
    <glyph glyph-name="Oacute" unicode="&#xd3;" horiz-adv-x="1385" 
d="M832 679l-12.9961 -3.99902c-15.333 40.667 -29.166 87.334 -41.499 140.001s-20.833 101 -25.5 145c37.333 106 96.666 202.333 177.999 289c104.667 112.667 212.667 169 324 169c86.667 0 161 -37.333 223 -112c72 -88 108 -211.333 108 -370
c0 -180 -50.333 -351.333 -151 -514c-100 -161.333 -224.667 -287.333 -374 -378c-124.667 -75.333 -250.334 -113 -377.001 -113c-98.667 0 -184.334 31.333 -257.001 94c-108.667 94.667 -163 225 -163 391c0 234.667 104 454.667 312 660
c90 89.333 186.333 160.666 289 213.999l10 -13c-114 -64 -204 -137.667 -270 -221c-112.667 -142.667 -169 -299 -169 -469c0 -143.333 39.667 -266.666 119 -369.999c39.333 -52.667 88.166 -93.334 146.499 -122.001s120.166 -43 185.499 -43c162 0 297 79 405 237
c87.333 127.333 131 268.666 131 423.999c0 166 -36.667 302 -110 408c-66 96 -145.667 144 -239 144c-83.333 0 -150 -44.333 -200 -133c-46.667 -82.667 -70 -168.667 -70 -258c0 -50.667 9.66699 -115.667 29 -195zM1063 1443l-5.99902 11.001
c97.333 34.667 159 105.667 185 213c65.333 6 130.666 16 195.999 30l9 -9c-28.667 -53.333 -78.667 -102.833 -150 -148.5s-149.333 -77.834 -234 -96.501z" />
    <glyph glyph-name="Ocircumflex" unicode="&#xd4;" horiz-adv-x="1385" 
d="M832 679l-12.9961 -3.99902c-15.333 40.667 -29.166 87.334 -41.499 140.001s-20.833 101 -25.5 145c37.333 106 96.666 202.333 177.999 289c104.667 112.667 212.667 169 324 169c86.667 0 161 -37.333 223 -112c72 -88 108 -211.333 108 -370
c0 -180 -50.333 -351.333 -151 -514c-100 -161.333 -224.667 -287.333 -374 -378c-124.667 -75.333 -250.334 -113 -377.001 -113c-98.667 0 -184.334 31.333 -257.001 94c-108.667 94.667 -163 225 -163 391c0 234.667 104 454.667 312 660
c90 89.333 186.333 160.666 289 213.999l10 -13c-114 -64 -204 -137.667 -270 -221c-112.667 -142.667 -169 -299 -169 -469c0 -143.333 39.667 -266.666 119 -369.999c39.333 -52.667 88.166 -93.334 146.499 -122.001s120.166 -43 185.499 -43c162 0 297 79 405 237
c87.333 127.333 131 268.666 131 423.999c0 166 -36.667 302 -110 408c-66 96 -145.667 144 -239 144c-83.333 0 -150 -44.333 -200 -133c-46.667 -82.667 -70 -168.667 -70 -258c0 -50.667 9.66699 -115.667 29 -195zM1074 1467l-50.001 28.002
c72.667 37.333 125 68.666 157 93.999s64 60 96 104c44.667 10.667 88.334 22.667 131.001 36c10 -68.667 34.333 -141.334 73 -218.001c-50.667 -18 -102.667 -33.333 -156 -46c-26.667 60 -44.667 110.667 -54 152c-64 -58.667 -129.667 -108.667 -197 -150z" />
    <glyph glyph-name="Otilde" unicode="&#xd5;" horiz-adv-x="1385" 
d="M832 679l-12.9961 -3.99902c-15.333 40.667 -29.166 87.334 -41.499 140.001s-20.833 101 -25.5 145c37.333 106 96.666 202.333 177.999 289c104.667 112.667 212.667 169 324 169c86.667 0 161 -37.333 223 -112c72 -88 108 -211.333 108 -370
c0 -180 -50.333 -351.333 -151 -514c-100 -161.333 -224.667 -287.333 -374 -378c-124.667 -75.333 -250.334 -113 -377.001 -113c-98.667 0 -184.334 31.333 -257.001 94c-108.667 94.667 -163 225 -163 391c0 234.667 104 454.667 312 660
c90 89.333 186.333 160.666 289 213.999l10 -13c-114 -64 -204 -137.667 -270 -221c-112.667 -142.667 -169 -299 -169 -469c0 -143.333 39.667 -266.666 119 -369.999c39.333 -52.667 88.166 -93.334 146.499 -122.001s120.166 -43 185.499 -43c162 0 297 79 405 237
c87.333 127.333 131 268.666 131 423.999c0 166 -36.667 302 -110 408c-66 96 -145.667 144 -239 144c-83.333 0 -150 -44.333 -200 -133c-46.667 -82.667 -70 -168.667 -70 -258c0 -50.667 9.66699 -115.667 29 -195zM1501 1678l22.001 -3.99902
c-44.667 -66.667 -78.834 -110.834 -102.501 -132.501s-49.5 -32.5 -77.5 -32.5c-22 0 -49 2 -81 6l-118 16c-20.667 2.66699 -37.667 4 -51 4c-30 0 -60 -15 -90 -45l-22 7c52 68 91.333 112.333 118 133s57 31 91 31c18.667 0 42.667 -2.66699 72 -8l105 -20
c10.667 -2 25 -3 43 -3c28 0 58.333 16 91 48z" />
    <glyph glyph-name="Odieresis" unicode="&#xd6;" horiz-adv-x="1385" 
d="M832 679l-12.9961 -3.99902c-15.333 40.667 -29.166 87.334 -41.499 140.001s-20.833 101 -25.5 145c37.333 106 96.666 202.333 177.999 289c104.667 112.667 212.667 169 324 169c86.667 0 161 -37.333 223 -112c72 -88 108 -211.333 108 -370
c0 -180 -50.333 -351.333 -151 -514c-100 -161.333 -224.667 -287.333 -374 -378c-124.667 -75.333 -250.334 -113 -377.001 -113c-98.667 0 -184.334 31.333 -257.001 94c-108.667 94.667 -163 225 -163 391c0 234.667 104 454.667 312 660
c90 89.333 186.333 160.666 289 213.999l10 -13c-114 -64 -204 -137.667 -270 -221c-112.667 -142.667 -169 -299 -169 -469c0 -143.333 39.667 -266.666 119 -369.999c39.333 -52.667 88.166 -93.334 146.499 -122.001s120.166 -43 185.499 -43c162 0 297 79 405 237
c87.333 127.333 131 268.666 131 423.999c0 166 -36.667 302 -110 408c-66 96 -145.667 144 -239 144c-83.333 0 -150 -44.333 -200 -133c-46.667 -82.667 -70 -168.667 -70 -258c0 -50.667 9.66699 -115.667 29 -195zM1079 1668c28 0 51.333 -9.33496 70 -28.002
s28 -42 28 -70c0 -26.667 -9.66699 -49.5 -29 -68.5s-42 -28.5 -68 -28.5c-26.667 0 -49.667 9.66699 -69 29s-29 42.333 -29 69s9.33301 49.334 28 68.001s41.667 28.334 69 29.001zM1425 1668c27.333 0 50.333 -9.33496 69 -28.002s28 -42 28 -70
c0 -26.667 -9.66699 -49.5 -29 -68.5s-42 -28.5 -68 -28.5c-26.667 0 -49.667 9.66699 -69 29s-29 42.333 -29 69s9.33301 49.334 28 68.001s42 28.334 70 29.001z" />
    <glyph glyph-name="multiply" unicode="&#xd7;" 
d="M275 185l299 300l-300 300l48 48l300 -300l300 299l47 -47l-300 -299l300 -300l-48 -49l-300 300l-299 -299z" />
    <glyph glyph-name="Oslash" unicode="&#xd8;" horiz-adv-x="1459" 
d="M1364 1346l77.998 108.001l40 -28l-84 -115c39.333 -52.667 67.666 -107.834 84.999 -165.501s26 -126.834 26 -207.501c0 -179.333 -50.333 -350.666 -151 -513.999c-100 -160.667 -224.667 -286.334 -374 -377.001c-124.667 -75.333 -250.667 -113 -378 -113
c-60 0 -119.333 13.667 -178 41l-98 -134l-39 28l95 132c-49.333 36.667 -87.666 75 -114.999 115c-56 82.667 -84 183.667 -84 303c0 234.667 104 454.667 312 660c90 88.667 186.333 160 289 214l10 -13c-114 -64 -204 -138 -270 -222c-112.667 -142 -169 -298 -169 -468
c0 -162 52 -299.667 156 -413l704 970c-66 80 -140.333 120 -223 120s-149 -44 -199 -132c-46.667 -83.333 -70 -169.666 -70 -258.999c0 -50.667 9.66699 -115.334 29 -194.001l-13 -4c-15.333 40.667 -29.166 87.334 -41.499 140.001s-20.833 101 -25.5 145
c38 106 97.333 202.333 178 289c104.667 112 212.334 168 323.001 168c68 0 130.333 -24.667 187 -74zM550.998 145.001c80 -60 166.667 -90 260 -90c161.333 0 296 79 404 237c87.333 126.667 131 267.667 131 423c0 144.667 -32.333 274.667 -97 390z" />
    <glyph glyph-name="Ugrave" unicode="&#xd9;" horiz-adv-x="1824" 
d="M1951 114l2.00195 -23c-114.667 -40.667 -204.334 -69 -269.001 -85s-124 -24 -178 -24c-46 0 -81.667 10.667 -107 32s-38 51.666 -38 90.999c0 50.667 23.333 137.667 70 261l300 791c13.333 36 20 58.667 20 68c0 8.66699 -4 13 -12 13
c-10.667 0 -22.834 -10 -36.501 -30s-34.167 -57.333 -61.5 -112l-62 -125c-103.333 -205.333 -199.166 -371.5 -287.499 -498.5s-181.166 -231.5 -278.499 -313.5c-70.667 -59.333 -145.834 -107.166 -225.501 -143.499s-148.834 -54.5 -207.501 -54.5
c-26.667 0 -48.334 7.5 -65.001 22.5s-25 34.833 -25 59.5c0 36 26 103.667 78 203l130 249c97.333 187.333 160.5 317.833 189.5 391.5s43.5 140.834 43.5 201.501c0 64 -19.167 114.833 -57.5 152.5s-90.5 56.5 -156.5 56.5c-62 0 -128.333 -20 -199 -60
s-141 -97.333 -211 -172l-6 63c98.667 78.667 202.5 140.667 311.5 186s208.833 68 299.5 68c76 0 136 -20.667 180 -62c42.667 -40 64 -90.667 64 -152c0 -66.667 -22 -153 -66 -259c-26 -63.333 -97.333 -204.333 -214 -423l-83 -156c-48 -91.333 -72 -152 -72 -182
c0 -42 23 -63 69 -63c80.667 0 166.334 49.167 257.001 147.5s193 252.833 307 463.5l168 311c47.333 88 85.833 149 115.5 183s79.167 74.333 148.5 121c46 31.333 81.333 58 106 80c20 17.333 34.333 26 43 26c20 0 30 -17 30 -51c0 -32.667 -10.5 -80.834 -31.5 -144.501
s-65.5 -182.5 -133.5 -356.5l-83 -216c-56 -148 -93.5 -252.167 -112.5 -312.5s-28.5 -107.5 -28.5 -141.5c0 -72.667 57.333 -109 172 -109c54 0 121.667 9.33301 203 28zM1660 1443c-84 18.667 -161.833 50.833 -233.5 96.5s-121.834 95.167 -150.501 148.5l10 9
c65.333 -14 130.333 -24 195 -30c26.667 -107.333 88.334 -178.333 185.001 -213z" />
    <glyph glyph-name="Uacute" unicode="&#xda;" horiz-adv-x="1824" 
d="M1951 114l2.00195 -23c-114.667 -40.667 -204.334 -69 -269.001 -85s-124 -24 -178 -24c-46 0 -81.667 10.667 -107 32s-38 51.666 -38 90.999c0 50.667 23.333 137.667 70 261l300 791c13.333 36 20 58.667 20 68c0 8.66699 -4 13 -12 13
c-10.667 0 -22.834 -10 -36.501 -30s-34.167 -57.333 -61.5 -112l-62 -125c-103.333 -205.333 -199.166 -371.5 -287.499 -498.5s-181.166 -231.5 -278.499 -313.5c-70.667 -59.333 -145.834 -107.166 -225.501 -143.499s-148.834 -54.5 -207.501 -54.5
c-26.667 0 -48.334 7.5 -65.001 22.5s-25 34.833 -25 59.5c0 36 26 103.667 78 203l130 249c97.333 187.333 160.5 317.833 189.5 391.5s43.5 140.834 43.5 201.501c0 64 -19.167 114.833 -57.5 152.5s-90.5 56.5 -156.5 56.5c-62 0 -128.333 -20 -199 -60
s-141 -97.333 -211 -172l-6 63c98.667 78.667 202.5 140.667 311.5 186s208.833 68 299.5 68c76 0 136 -20.667 180 -62c42.667 -40 64 -90.667 64 -152c0 -66.667 -22 -153 -66 -259c-26 -63.333 -97.333 -204.333 -214 -423l-83 -156c-48 -91.333 -72 -152 -72 -182
c0 -42 23 -63 69 -63c80.667 0 166.334 49.167 257.001 147.5s193 252.833 307 463.5l168 311c47.333 88 85.833 149 115.5 183s79.167 74.333 148.5 121c46 31.333 81.333 58 106 80c20 17.333 34.333 26 43 26c20 0 30 -17 30 -51c0 -32.667 -10.5 -80.834 -31.5 -144.501
s-65.5 -182.5 -133.5 -356.5l-83 -216c-56 -148 -93.5 -252.167 -112.5 -312.5s-28.5 -107.5 -28.5 -141.5c0 -72.667 57.333 -109 172 -109c54 0 121.667 9.33301 203 28zM1282 1443l-5.99902 11.001c97.333 34.667 159 105.667 185 213c65.333 6 130.666 16 195.999 30
l9 -9c-28.667 -53.333 -78.667 -102.833 -150 -148.5s-149.333 -77.834 -234 -96.501z" />
    <glyph glyph-name="Ucircumflex" unicode="&#xdb;" horiz-adv-x="1824" 
d="M1951 114l2.00195 -23c-114.667 -40.667 -204.334 -69 -269.001 -85s-124 -24 -178 -24c-46 0 -81.667 10.667 -107 32s-38 51.666 -38 90.999c0 50.667 23.333 137.667 70 261l300 791c13.333 36 20 58.667 20 68c0 8.66699 -4 13 -12 13
c-10.667 0 -22.834 -10 -36.501 -30s-34.167 -57.333 -61.5 -112l-62 -125c-103.333 -205.333 -199.166 -371.5 -287.499 -498.5s-181.166 -231.5 -278.499 -313.5c-70.667 -59.333 -145.834 -107.166 -225.501 -143.499s-148.834 -54.5 -207.501 -54.5
c-26.667 0 -48.334 7.5 -65.001 22.5s-25 34.833 -25 59.5c0 36 26 103.667 78 203l130 249c97.333 187.333 160.5 317.833 189.5 391.5s43.5 140.834 43.5 201.501c0 64 -19.167 114.833 -57.5 152.5s-90.5 56.5 -156.5 56.5c-62 0 -128.333 -20 -199 -60
s-141 -97.333 -211 -172l-6 63c98.667 78.667 202.5 140.667 311.5 186s208.833 68 299.5 68c76 0 136 -20.667 180 -62c42.667 -40 64 -90.667 64 -152c0 -66.667 -22 -153 -66 -259c-26 -63.333 -97.333 -204.333 -214 -423l-83 -156c-48 -91.333 -72 -152 -72 -182
c0 -42 23 -63 69 -63c80.667 0 166.334 49.167 257.001 147.5s193 252.833 307 463.5l168 311c47.333 88 85.833 149 115.5 183s79.167 74.333 148.5 121c46 31.333 81.333 58 106 80c20 17.333 34.333 26 43 26c20 0 30 -17 30 -51c0 -32.667 -10.5 -80.834 -31.5 -144.501
s-65.5 -182.5 -133.5 -356.5l-83 -216c-56 -148 -93.5 -252.167 -112.5 -312.5s-28.5 -107.5 -28.5 -141.5c0 -72.667 57.333 -109 172 -109c54 0 121.667 9.33301 203 28zM1293 1440l-50.001 28.002c72.667 37.333 125 68.666 157 93.999s64 60 96 104
c44.667 10.667 88.334 22.667 131.001 36c10 -68.667 34.333 -141.334 73 -218.001c-50.667 -18 -102.667 -33.333 -156 -46c-26.667 60 -44.667 110.667 -54 152c-64 -58.667 -129.667 -108.667 -197 -150z" />
    <glyph glyph-name="Udieresis" unicode="&#xdc;" horiz-adv-x="1824" 
d="M1951 114l2.00195 -23c-114.667 -40.667 -204.334 -69 -269.001 -85s-124 -24 -178 -24c-46 0 -81.667 10.667 -107 32s-38 51.666 -38 90.999c0 50.667 23.333 137.667 70 261l300 791c13.333 36 20 58.667 20 68c0 8.66699 -4 13 -12 13
c-10.667 0 -22.834 -10 -36.501 -30s-34.167 -57.333 -61.5 -112l-62 -125c-103.333 -205.333 -199.166 -371.5 -287.499 -498.5s-181.166 -231.5 -278.499 -313.5c-70.667 -59.333 -145.834 -107.166 -225.501 -143.499s-148.834 -54.5 -207.501 -54.5
c-26.667 0 -48.334 7.5 -65.001 22.5s-25 34.833 -25 59.5c0 36 26 103.667 78 203l130 249c97.333 187.333 160.5 317.833 189.5 391.5s43.5 140.834 43.5 201.501c0 64 -19.167 114.833 -57.5 152.5s-90.5 56.5 -156.5 56.5c-62 0 -128.333 -20 -199 -60
s-141 -97.333 -211 -172l-6 63c98.667 78.667 202.5 140.667 311.5 186s208.833 68 299.5 68c76 0 136 -20.667 180 -62c42.667 -40 64 -90.667 64 -152c0 -66.667 -22 -153 -66 -259c-26 -63.333 -97.333 -204.333 -214 -423l-83 -156c-48 -91.333 -72 -152 -72 -182
c0 -42 23 -63 69 -63c80.667 0 166.334 49.167 257.001 147.5s193 252.833 307 463.5l168 311c47.333 88 85.833 149 115.5 183s79.167 74.333 148.5 121c46 31.333 81.333 58 106 80c20 17.333 34.333 26 43 26c20 0 30 -17 30 -51c0 -32.667 -10.5 -80.834 -31.5 -144.501
s-65.5 -182.5 -133.5 -356.5l-83 -216c-56 -148 -93.5 -252.167 -112.5 -312.5s-28.5 -107.5 -28.5 -141.5c0 -72.667 57.333 -109 172 -109c54 0 121.667 9.33301 203 28zM1298 1668c28 0 51.333 -9.33496 70 -28.002s28 -42 28 -70c0 -26.667 -9.66699 -49.5 -29 -68.5
s-42 -28.5 -68 -28.5c-26.667 0 -49.667 9.66699 -69 29s-29 42.333 -29 69s9.33301 49.334 28 68.001s41.667 28.334 69 29.001zM1644 1668c27.333 0 50.333 -9.33496 69 -28.002s28 -42 28 -70c0 -26.667 -9.66699 -49.5 -29 -68.5s-42 -28.5 -68 -28.5
c-26.667 0 -49.667 9.66699 -69 29s-29 42.333 -29 69s9.33301 49.334 28 68.001s42 28.334 70 29.001z" />
    <glyph glyph-name="Yacute" unicode="&#xdd;" horiz-adv-x="1407" 
d="M1604 298l5.00195 -20.002c-50.667 -10.667 -113.334 -27.167 -188.001 -49.5s-141.334 -44.5 -200.001 -66.5c-59.333 -118.667 -152.333 -221 -279 -307c-184 -124.667 -358.333 -187 -523 -187c-76 0 -144.333 8.33301 -205 25c-56.667 -14 -101.667 -21 -135 -21
c-47.333 0 -71 11.333 -71 34c0 8 8.33301 18 25 30c8 6 25.333 21 52 45c64 56.667 120 85 168 85c19.333 0 44 -3.33301 74 -10c18.667 6.66699 54.667 20.667 108 42l101 38l126 48l256 93c44.667 16 92 34.667 142 56l122 373
c-85.333 -111.333 -163.333 -191.333 -234 -240c-88.667 -61.333 -176.334 -92 -263.001 -92c-86 0 -152.167 27.833 -198.5 83.5s-69.5 135.5 -69.5 239.5c0 54.667 3.33301 114.334 10 179.001l17 168c11.333 109.333 17 201.333 17 276c0 75.333 -12.667 143 -38 203
c76 32 150.333 67.333 223 106c10.667 -7.33301 17.834 -20.166 21.501 -38.499s5.5 -48.5 5.5 -90.5c0 -43.333 -7.66699 -131.666 -23 -264.999l-17 -151c-16.667 -136 -25 -245.667 -25 -329c0 -58 5.33301 -104.833 16 -140.5s28.334 -65.834 53.001 -90.501
c38 -38 85.667 -57 143 -57c83.333 0 163.666 47.333 240.999 142c56.667 69.333 116 194.333 178 375l195 570c72 21.333 143.667 44.333 215 69l-9 -26c-80.667 -224 -163.667 -472 -249 -744l-65 -210c-30.667 -99.333 -60.667 -182 -90 -248
c62 22 127.5 42.667 196.5 62s126.167 33 171.5 41zM1045 88.998c-87.333 -33.333 -193.333 -78.668 -318 -136.001s-210.667 -100.666 -258 -129.999c86 -22 158 -33 216 -33c162.667 0 282.667 99.667 360 299zM1074 1443l-5.99902 11.001
c97.333 34.667 159 105.667 185 213c65.333 6 130.666 16 195.999 30l9 -9c-28.667 -53.333 -78.667 -102.833 -150 -148.5s-149.333 -77.834 -234 -96.501z" />
    <glyph glyph-name="Thorn" unicode="&#xde;" horiz-adv-x="1440" 
d="M827 145l-53 -63.001c25.333 -1.33301 44 -2 56 -2c88 0 168.833 18 242.5 54s131.5 85.667 173.5 149c69.333 104 104 218.667 104 344c0 109.333 -31.667 197.666 -95 264.999c-55.333 58 -119.666 87 -192.999 87c-115.333 0 -234 -62.667 -356 -188
c-160 -166 -285.333 -374.667 -376 -626l-210 -583l-178 -55l218 672c126 388.667 236.667 746.667 332 1074l11 38c76 18 153.333 39 232 63l-16 -47c-129.333 -360 -224 -635.667 -284 -827c127.333 200 245 344.667 353 434c68.667 56.667 141.167 100.834 217.5 132.501
s148.166 47.5 215.499 47.5c100 0 180.5 -29.667 241.5 -89s91.5 -137.333 91.5 -234c0 -109.333 -49.333 -236 -148 -380c-106 -155.333 -238.667 -274.666 -398 -357.999c-135.333 -72 -273 -108 -413 -108c-68 0 -124.333 4.33301 -169 13c-27.333 5.33301 -41 15 -41 29
c0 7.33301 6.66699 16 20 26c41.333 30 81.333 67.333 120 112c99.333 1.33301 200 8 302 20z" />
    <glyph glyph-name="germandbls" unicode="&#xdf;" horiz-adv-x="706" 
d="M186 -41l-115 -363.999h-14c2 112 10.5 235 25.5 369s33.833 252.667 56.5 356c24 108 55.5 210.167 94.5 306.5s79.833 172.5 122.5 228.5c53.333 69.333 121.5 133 204.5 191s147.833 87 194.5 87c50.667 0 76 -25 76 -75c0 -58 -41 -136 -123 -234l-74 -87
c-39.333 -46.667 -59 -86.667 -59 -120c0 -20 11.667 -45.333 35 -76l67 -86c52 -68 78 -123.667 78 -167c0 -44.667 -15.5 -89.334 -46.5 -134.001s-74.167 -85 -129.5 -121c-85.333 -55.333 -169.333 -83 -252 -83c-49.333 0 -96.333 3 -141 9zM462 35.001
c12.667 -1.33301 22.9961 -2 30.9961 -2c30.667 0 56.334 9.83301 77.001 29.5s31 44.167 31 73.5c0 64 -29.333 134.333 -88 211l-38 51c-22 28.667 -33 52 -33 70s8.66699 40.667 26 68l25 39c42.667 66.667 76.834 134.5 102.501 203.5s38.5 127.167 38.5 174.5
c0 44 -12 66 -36 66c-44 0 -91.333 -76 -142 -228l-185 -558l-67 -216l-12 -39c51.333 37.333 99 76 143 116c22.667 -3.33301 43.334 -5 62.001 -5c28.667 0 67.334 4 116.001 12z" />
    <glyph glyph-name="agrave" unicode="&#xe0;" horiz-adv-x="795" 
d="M834 83l5.00293 -15c-174.667 -61.333 -280.334 -92 -317.001 -92c-20.667 0 -37.167 5.66699 -49.5 17s-18.5 26.666 -18.5 45.999c0 14 6 39.333 18 76c5.33301 14.667 11.333 34.334 18 59.001c-62.667 -66.667 -119.834 -115.167 -171.501 -145.5
s-103.5 -45.5 -155.5 -45.5c-60 0 -90 35 -90 105c0 106.667 70.333 214.667 211 324c137.333 106.667 261 160 371 160c57.333 0 110.666 -10.333 159.999 -31c-10.667 -23.333 -42 -88 -94 -194c-54 -110 -81 -185.333 -81 -226c0 -33.333 28 -50 84 -50
c44 0 80.667 4 110 12zM600.003 450c-50.667 14.667 -94.332 22 -130.999 22c-50.667 0 -92 -21 -124 -63c-22 -29.333 -42.167 -71.5 -60.5 -126.5s-27.5 -100.833 -27.5 -137.5c0 -47.333 20.333 -71 61 -71c41.333 0 90.666 43.333 147.999 130c53.333 82 98 164 134 246
zM842.005 692c-70 18.667 -134.833 50.833 -194.5 96.5s-101.5 95.167 -125.5 148.5l8 9c54 -14 108.333 -24 163 -30c22 -107.333 73.333 -178.333 154 -213z" />
    <glyph glyph-name="aacute" unicode="&#xe1;" horiz-adv-x="795" 
d="M834 83l5.00293 -15c-174.667 -61.333 -280.334 -92 -317.001 -92c-20.667 0 -37.167 5.66699 -49.5 17s-18.5 26.666 -18.5 45.999c0 14 6 39.333 18 76c5.33301 14.667 11.333 34.334 18 59.001c-62.667 -66.667 -119.834 -115.167 -171.501 -145.5
s-103.5 -45.5 -155.5 -45.5c-60 0 -90 35 -90 105c0 106.667 70.333 214.667 211 324c137.333 106.667 261 160 371 160c57.333 0 110.666 -10.333 159.999 -31c-10.667 -23.333 -42 -88 -94 -194c-54 -110 -81 -185.333 -81 -226c0 -33.333 28 -50 84 -50
c44 0 80.667 4 110 12zM600.003 450c-50.667 14.667 -94.332 22 -130.999 22c-50.667 0 -92 -21 -124 -63c-22 -29.333 -42.167 -71.5 -60.5 -126.5s-27.5 -100.833 -27.5 -137.5c0 -47.333 20.333 -71 61 -71c41.333 0 90.666 43.333 147.999 130c53.333 82 98 164 134 246
zM527.005 692l-4.99902 11.001c81.333 34.667 132.666 105.667 153.999 213c54.667 6 109 16 163 30l8 -9c-24 -53.333 -65.667 -102.833 -125 -148.5s-124.333 -77.834 -195 -96.501z" />
    <glyph glyph-name="acircumflex" unicode="&#xe2;" horiz-adv-x="795" 
d="M834 83l5.00293 -15c-174.667 -61.333 -280.334 -92 -317.001 -92c-20.667 0 -37.167 5.66699 -49.5 17s-18.5 26.666 -18.5 45.999c0 14 6 39.333 18 76c5.33301 14.667 11.333 34.334 18 59.001c-62.667 -66.667 -119.834 -115.167 -171.501 -145.5
s-103.5 -45.5 -155.5 -45.5c-60 0 -90 35 -90 105c0 106.667 70.333 214.667 211 324c137.333 106.667 261 160 371 160c57.333 0 110.666 -10.333 159.999 -31c-10.667 -23.333 -42 -88 -94 -194c-54 -110 -81 -185.333 -81 -226c0 -33.333 28 -50 84 -50
c44 0 80.667 4 110 12zM600.003 450c-50.667 14.667 -94.332 22 -130.999 22c-50.667 0 -92 -21 -124 -63c-22 -29.333 -42.167 -71.5 -60.5 -126.5s-27.5 -100.833 -27.5 -137.5c0 -47.333 20.333 -71 61 -71c41.333 0 90.666 43.333 147.999 130c53.333 82 98 164 134 246
zM536.005 689l-42.001 28c60.667 37.333 104.334 68.666 131.001 93.999s53.334 60 80.001 104c37.333 11.333 73.666 23.333 108.999 36c8.66699 -69.333 29 -142 61 -218c-42 -18 -85.333 -33.333 -130 -46c-22.667 60.667 -38 111.334 -46 152.001
c-52 -58 -106.333 -108 -163 -150z" />
    <glyph glyph-name="atilde" unicode="&#xe3;" horiz-adv-x="795" 
d="M834 83l5.00293 -15c-174.667 -61.333 -280.334 -92 -317.001 -92c-20.667 0 -37.167 5.66699 -49.5 17s-18.5 26.666 -18.5 45.999c0 14 6 39.333 18 76c5.33301 14.667 11.333 34.334 18 59.001c-62.667 -66.667 -119.834 -115.167 -171.501 -145.5
s-103.5 -45.5 -155.5 -45.5c-60 0 -90 35 -90 105c0 106.667 70.333 214.667 211 324c137.333 106.667 261 160 371 160c57.333 0 110.666 -10.333 159.999 -31c-10.667 -23.333 -42 -88 -94 -194c-54 -110 -81 -185.333 -81 -226c0 -33.333 28 -50 84 -50
c44 0 80.667 4 110 12zM600.003 450c-50.667 14.667 -94.332 22 -130.999 22c-50.667 0 -92 -21 -124 -63c-22 -29.333 -42.167 -71.5 -60.5 -126.5s-27.5 -100.833 -27.5 -137.5c0 -47.333 20.333 -71 61 -71c41.333 0 90.666 43.333 147.999 130c53.333 82 98 164 134 246
zM893.005 913l17.998 -4.00098c-38 -67.333 -66.667 -111.666 -86 -132.999s-40.666 -32 -63.999 -32c-18 0 -40.667 2.33301 -68 7l-98 15c-17.333 2.66699 -31.666 4 -42.999 4c-24.667 0 -49.667 -15 -75 -45l-18 7c43.333 68 76 112.333 98 133s47.333 31 76 31
c16 0 36 -2.66699 60 -8l88 -20c9.33301 -2 21 -3 35 -3c24 0 49.667 16 77 48z" />
    <glyph glyph-name="adieresis" unicode="&#xe4;" horiz-adv-x="795" 
d="M834 83l5.00293 -15c-174.667 -61.333 -280.334 -92 -317.001 -92c-20.667 0 -37.167 5.66699 -49.5 17s-18.5 26.666 -18.5 45.999c0 14 6 39.333 18 76c5.33301 14.667 11.333 34.334 18 59.001c-62.667 -66.667 -119.834 -115.167 -171.501 -145.5
s-103.5 -45.5 -155.5 -45.5c-60 0 -90 35 -90 105c0 106.667 70.333 214.667 211 324c137.333 106.667 261 160 371 160c57.333 0 110.666 -10.333 159.999 -31c-10.667 -23.333 -42 -88 -94 -194c-54 -110 -81 -185.333 -81 -226c0 -33.333 28 -50 84 -50
c44 0 80.667 4 110 12zM600.003 450c-50.667 14.667 -94.332 22 -130.999 22c-50.667 0 -92 -21 -124 -63c-22 -29.333 -42.167 -71.5 -60.5 -126.5s-27.5 -100.833 -27.5 -137.5c0 -47.333 20.333 -71 61 -71c41.333 0 90.666 43.333 147.999 130c53.333 82 98 164 134 246
zM537.005 917c26 0 47.501 -9 64.501 -27s25.5 -41 25.5 -69c0 -28.667 -10.333 -53.167 -31 -73.5s-46 -30.5 -76 -30.5c-26.667 0 -48.834 8.66699 -66.501 26s-26.5 39.333 -26.5 66c0 29.333 10.667 54.5 32 75.5s47.333 31.833 78 32.5zM844.006 917
c26 0 47.501 -9 64.501 -27s25.5 -41 25.5 -69c0 -29.333 -10.333 -54 -31 -74s-46 -30 -76 -30c-26.667 0 -48.834 8.66699 -66.501 26s-26.5 39.333 -26.5 66c0 29.333 10.667 54.5 32 75.5s47.333 31.833 78 32.5z" />
    <glyph glyph-name="aring" unicode="&#xe5;" horiz-adv-x="795" 
d="M834 83l5.00293 -15c-174.667 -61.333 -280.334 -92 -317.001 -92c-20.667 0 -37.167 5.66699 -49.5 17s-18.5 26.666 -18.5 45.999c0 14 6 39.333 18 76c5.33301 14.667 11.333 34.334 18 59.001c-62.667 -66.667 -119.834 -115.167 -171.501 -145.5
s-103.5 -45.5 -155.5 -45.5c-60 0 -90 35 -90 105c0 106.667 70.333 214.667 211 324c137.333 106.667 261 160 371 160c57.333 0 110.666 -10.333 159.999 -31c-10.667 -23.333 -42 -88 -94 -194c-54 -110 -81 -185.333 -81 -226c0 -33.333 28 -50 84 -50
c44 0 80.667 4 110 12zM600.003 450c-50.667 14.667 -94.332 22 -130.999 22c-50.667 0 -92 -21 -124 -63c-22 -29.333 -42.167 -71.5 -60.5 -126.5s-27.5 -100.833 -27.5 -137.5c0 -47.333 20.333 -71 61 -71c41.333 0 90.666 43.333 147.999 130c53.333 82 98 164 134 246
zM667.005 918l-3 10c23.333 16 45 34.333 65 55c80 -15.333 120 -56 120 -122c0 -50.667 -21.833 -97.667 -65.5 -141s-90.834 -65 -141.501 -65c-34.667 0 -63.5 11 -86.5 33s-34.5 49.333 -34.5 82c0 40 13.333 78.667 40 116s62.334 67 107.001 89l8 -18
c-68 -38 -102 -81.333 -102 -130c0 -31.333 12.5 -58.833 37.5 -82.5s53.833 -35.5 86.5 -35.5c26.667 0 48.667 8.5 66 25.5s26 38.833 26 65.5c0 33.333 -12 61.333 -36 84s-53 34 -87 34z" />
    <glyph glyph-name="ae" unicode="&#xe6;" horiz-adv-x="1105" 
d="M814 541c66 23.333 123.333 35 172 35c32.667 0 59.167 -8.66699 79.5 -26s30.5 -40 30.5 -68c0 -60 -38.833 -121.5 -116.5 -184.5s-177.167 -113.5 -298.5 -151.5c56 -59.333 143.667 -89 263 -89c52 0 101.333 6 148 18l5 -15c-174.667 -54.667 -312.667 -82 -414 -82
c-71.333 0 -127.333 15.333 -168 46c-30.667 23.333 -46 60 -46 110v18c-61.333 -61.333 -115.5 -104.833 -162.5 -130.5s-94.833 -38.5 -143.5 -38.5c-60 0 -90 35 -90 105c0 106.667 70.333 214.667 211 324c137.333 106.667 261 160 371 160
c58.667 0 111.667 -10.333 159 -31zM600 450c-50.667 14.667 -94.332 22 -130.999 22c-50.667 0 -92 -21 -124 -63c-22 -29.333 -42.167 -71.5 -60.5 -126.5s-27.5 -100.833 -27.5 -137.5c0 -47.333 20.333 -71 61 -71c41.333 0 90.666 43.333 147.999 130
c53.333 82 98 164 134 246zM671.002 161c63.333 30 115.666 69.665 156.999 118.998c48 58 72 115.333 72 172c0 18.667 -5.66699 33.834 -17 45.501s-26.333 17.5 -45 17.5c-35.333 0 -69.666 -19.667 -102.999 -59c-24.667 -28.667 -44.667 -63.167 -60 -103.5
s-23 -78.166 -23 -113.499c0 -28.667 6.33301 -54.667 19 -78z" />
    <glyph glyph-name="ccedilla" unicode="&#xe7;" horiz-adv-x="621" 
d="M269 -16l-46 -71c31.333 10 58.666 15 81.999 15c29.333 0 52.833 -7.16699 70.5 -21.5s26.5 -33.5 26.5 -57.5c0 -46 -27 -85.667 -81 -119s-125.333 -54.666 -214 -63.999l-3 31c120.667 18 181 53 181 105c0 34.667 -24.667 52 -74 52
c-21.333 0 -44.333 -2.33301 -69 -7l84 139c-98 12.667 -147 56.667 -147 132c0 105.333 56 209 168 311c56 52 115.5 92.833 178.5 122.5s120.833 44.5 173.5 44.5c65.333 0 98 -23.667 98 -71c0 -36.667 -20.833 -72.5 -62.5 -107.5s-98.5 -64.5 -170.5 -88.5l-7 11
c35.333 37.333 53 79 53 125c0 26 -12.333 53.667 -37 83c-48 -29.333 -89.333 -70 -124 -122c-51.333 -77.333 -77 -152 -77 -224c0 -90.667 65.667 -136 197 -136c47.333 0 89 2.66699 125 8c42.667 6.66699 70 10.667 82 12l5 -10
c-149.333 -56.667 -286.666 -87.334 -411.999 -92.001z" />
    <glyph glyph-name="egrave" unicode="&#xe8;" horiz-adv-x="679" 
d="M706 75l4.99805 -15c-174.667 -54.667 -312.667 -82 -414 -82c-70.667 0 -124.667 15.333 -162 46c-34 28.667 -51 69 -51 121c0 111.333 59 212 177 302c113.333 86 226 129 338 129c32.667 0 59.334 -8.66699 80.001 -26s31 -40 31 -68
c0 -60 -38.833 -121.5 -116.5 -184.5s-177.167 -113.5 -298.5 -151.5c56 -59.333 143.333 -89 262 -89c52.667 0 102.334 6 149.001 18zM284.998 161c63.333 30 115.332 69.665 155.999 118.998c48.667 58.667 73 116 73 172c0 18.667 -5.66699 33.834 -17 45.501
s-26.333 17.5 -45 17.5c-35.333 0 -69.666 -19.667 -102.999 -59c-24.667 -28.667 -44.667 -63.167 -60 -103.5s-23 -78.166 -23 -113.499c0 -28.667 6.33301 -54.667 19 -78zM714.997 691.998c-70 18.667 -134.833 50.833 -194.5 96.5s-101.5 95.167 -125.5 148.5l8 9
c54 -14 108.333 -24 163 -30c22 -107.333 73.333 -178.333 154 -213z" />
    <glyph glyph-name="eacute" unicode="&#xe9;" horiz-adv-x="679" 
d="M706 75l4.99805 -15c-174.667 -54.667 -312.667 -82 -414 -82c-70.667 0 -124.667 15.333 -162 46c-34 28.667 -51 69 -51 121c0 111.333 59 212 177 302c113.333 86 226 129 338 129c32.667 0 59.334 -8.66699 80.001 -26s31 -40 31 -68
c0 -60 -38.833 -121.5 -116.5 -184.5s-177.167 -113.5 -298.5 -151.5c56 -59.333 143.333 -89 262 -89c52.667 0 102.334 6 149.001 18zM284.998 161c63.333 30 115.332 69.665 155.999 118.998c48.667 58.667 73 116 73 172c0 18.667 -5.66699 33.834 -17 45.501
s-26.333 17.5 -45 17.5c-35.333 0 -69.666 -19.667 -102.999 -59c-24.667 -28.667 -44.667 -63.167 -60 -103.5s-23 -78.166 -23 -113.499c0 -28.667 6.33301 -54.667 19 -78zM413.997 691.998l-4.99902 11.001c81.333 34.667 132.666 105.667 153.999 213
c54.667 6 109 16 163 30l8 -9c-24 -53.333 -65.667 -102.833 -125 -148.5s-124.333 -77.834 -195 -96.501z" />
    <glyph glyph-name="ecircumflex" unicode="&#xea;" horiz-adv-x="679" 
d="M679 75l4.99805 -15c-174.667 -54.667 -312.667 -82 -414 -82c-70.667 0 -124.667 15.333 -162 46c-34 28.667 -51 69 -51 121c0 111.333 59 212 177 302c113.333 86 226 129 338 129c32.667 0 59.334 -8.66699 80.001 -26s31 -40 31 -68
c0 -60 -38.833 -121.5 -116.5 -184.5s-177.167 -113.5 -298.5 -151.5c56 -59.333 143.333 -89 262 -89c52.667 0 102.334 6 149.001 18zM257.998 161c63.333 30 115.332 69.665 155.999 118.998c48.667 58.667 73 116 73 172c0 18.667 -5.66699 33.834 -17 45.501
s-26.333 17.5 -45 17.5c-35.333 0 -69.666 -19.667 -102.999 -59c-24.667 -28.667 -44.667 -63.167 -60 -103.5s-23 -78.166 -23 -113.499c0 -28.667 6.33301 -54.667 19 -78zM395.997 688.998l-42.001 28c60.667 37.333 104.334 68.666 131.001 93.999
s53.334 60 80.001 104c37.333 11.333 73.666 23.333 108.999 36c8.66699 -69.333 29 -142 61 -218c-42 -18 -85.333 -33.333 -130 -46c-22.667 60.667 -38 111.334 -46 152.001c-52 -58 -106.333 -108 -163 -150z" />
    <glyph glyph-name="edieresis" unicode="&#xeb;" horiz-adv-x="679" 
d="M706 75l4.99805 -15c-174.667 -54.667 -312.667 -82 -414 -82c-70.667 0 -124.667 15.333 -162 46c-34 28.667 -51 69 -51 121c0 111.333 59 212 177 302c113.333 86 226 129 338 129c32.667 0 59.334 -8.66699 80.001 -26s31 -40 31 -68
c0 -60 -38.833 -121.5 -116.5 -184.5s-177.167 -113.5 -298.5 -151.5c56 -59.333 143.333 -89 262 -89c52.667 0 102.334 6 149.001 18zM284.998 161c63.333 30 115.332 69.665 155.999 118.998c48.667 58.667 73 116 73 172c0 18.667 -5.66699 33.834 -17 45.501
s-26.333 17.5 -45 17.5c-35.333 0 -69.666 -19.667 -102.999 -59c-24.667 -28.667 -44.667 -63.167 -60 -103.5s-23 -78.166 -23 -113.499c0 -28.667 6.33301 -54.667 19 -78zM409.997 916.998c26 0 47.501 -9 64.501 -27s25.5 -41 25.5 -69c0 -29.333 -10.333 -54 -31 -74
s-46 -30 -76 -30c-26.667 0 -48.834 8.66699 -66.501 26s-26.5 39.333 -26.5 66c0 29.333 10.667 54.5 32 75.5s47.333 31.833 78 32.5zM716.998 916.998c26 0 47.501 -9 64.501 -27s25.5 -41 25.5 -69c0 -29.333 -10.333 -54 -31 -74s-46 -30 -76 -30
c-26.667 0 -48.834 8.66699 -66.501 26s-26.5 39.333 -26.5 66c0 29.333 10.667 54.5 32 75.5s47.333 31.833 78 32.5z" />
    <glyph glyph-name="igrave" unicode="&#xec;" horiz-adv-x="461" 
d="M519 94l-0.00195312 -17.998c-112 -41.333 -186.667 -67.5 -224 -78.5s-69.666 -16.5 -96.999 -16.5c-29.333 0 -52.5 8.16699 -69.5 24.5s-25.5 38.166 -25.5 65.499c0 33.333 14.667 86.666 44 159.999l117 293c66.667 15.333 132.334 35 197.001 59l-133 -304
c-28 -64.667 -42 -110 -42 -136c0 -42 33.333 -63 100 -63c30.667 0 75 4.66699 133 14zM591.998 692.002c-70 18.667 -134.833 50.833 -194.5 96.5s-101.5 95.167 -125.5 148.5l8 9c54 -14 108.333 -24 163 -30c22 -107.333 73.333 -178.333 154 -213z" />
    <glyph glyph-name="iacute" unicode="&#xed;" horiz-adv-x="461" 
d="M519 94l-0.00195312 -17.998c-112 -41.333 -186.667 -67.5 -224 -78.5s-69.666 -16.5 -96.999 -16.5c-29.333 0 -52.5 8.16699 -69.5 24.5s-25.5 38.166 -25.5 65.499c0 33.333 14.667 86.666 44 159.999l117 293c66.667 15.333 132.334 35 197.001 59l-133 -304
c-28 -64.667 -42 -110 -42 -136c0 -42 33.333 -63 100 -63c30.667 0 75 4.66699 133 14zM304.998 692.002l-4.99902 11.001c81.333 34.667 132.666 105.667 153.999 213c54.667 6 109 16 163 30l8 -9c-24 -53.333 -65.667 -102.833 -125 -148.5
s-124.333 -77.834 -195 -96.501z" />
    <glyph glyph-name="icircumflex" unicode="&#xee;" horiz-adv-x="461" 
d="M519 94l-0.00195312 -17.998c-112 -41.333 -186.667 -67.5 -224 -78.5s-69.666 -16.5 -96.999 -16.5c-29.333 0 -52.5 8.16699 -69.5 24.5s-25.5 38.166 -25.5 65.499c0 33.333 14.667 86.666 44 159.999l117 293c66.667 15.333 132.334 35 197.001 59l-133 -304
c-28 -64.667 -42 -110 -42 -136c0 -42 33.333 -63 100 -63c30.667 0 75 4.66699 133 14zM286.998 689.002l-42.001 28c60.667 37.333 104.334 68.666 131.001 93.999s53.334 60 80.001 104c37.333 11.333 73.666 23.333 108.999 36c8.66699 -69.333 29 -142 61 -218
c-42 -18 -85.333 -33.333 -130 -46c-22.667 60.667 -38 111.334 -46 152.001c-52 -58 -106.333 -108 -163 -150z" />
    <glyph glyph-name="idieresis" unicode="&#xef;" horiz-adv-x="461" 
d="M533 94l-0.00195312 -17.998c-112 -41.333 -186.667 -67.5 -224 -78.5s-69.666 -16.5 -96.999 -16.5c-29.333 0 -52.5 8.16699 -69.5 24.5s-25.5 38.166 -25.5 65.499c0 33.333 14.667 86.666 44 159.999l117 293c66.667 15.333 132.334 35 197.001 59l-133 -304
c-28 -64.667 -42 -110 -42 -136c0 -42 33.333 -63 100 -63c30.667 0 75 4.66699 133 14zM355.998 917.002c26 0 47.501 -9 64.501 -27s25.5 -41 25.5 -69c0 -29.333 -10.333 -54 -31 -74s-46 -30 -76 -30c-26.667 0 -48.834 8.66699 -66.501 26s-26.5 39.333 -26.5 66
c0 29.333 10.667 54.5 32 75.5s47.333 31.833 78 32.5zM607.999 917.002c26 0 47.501 -9 64.501 -27s25.5 -41 25.5 -69c0 -28.667 -10.333 -53.167 -31 -73.5s-46 -30.5 -76 -30.5c-26.667 0 -48.834 8.66699 -66.501 26s-26.5 39.333 -26.5 66
c0 29.333 10.667 54.5 32 75.5s47.333 31.833 78 32.5z" />
    <glyph glyph-name="eth" unicode="&#xf0;" horiz-adv-x="665" 
d="M558 601l-0.000976562 20.001c0 102 -15.333 208 -46 318l-207 -84l-3 43l198 81c-28 83.333 -65.667 159.666 -113 228.999l42 8c59.333 -57.333 110.333 -119.666 153 -186.999l214 86l2 -43l-194 -79c75.333 -132 113 -264 113 -396
c0 -128.667 -34.667 -247.334 -104 -356.001c-62 -96.667 -139 -167.667 -231 -213c-59.333 -29.333 -114.666 -44 -165.999 -44c-44.667 0 -79.834 15.333 -105.501 46s-38.5 73 -38.5 127c0 101.333 43.833 192 131.5 272s205.834 137.333 354.501 172zM556.999 566.001
c-82 -19.333 -147.668 -54 -197.001 -104c-68.667 -69.333 -103 -154 -103 -254c0 -40 7 -72.333 21 -97s32.667 -37 56 -37c57.333 0 111 67 161 201c38.667 103.333 59.334 200.333 62.001 291z" />
    <glyph glyph-name="ntilde" unicode="&#xf1;" horiz-adv-x="820" 
d="M59 -33l188.998 544.998c62 16 124.333 34 187 54l-94 -230c69.333 72 135.666 127.833 198.999 167.5s117.666 59.5 162.999 59.5c26.667 0 48.834 -6.83301 66.501 -20.5s26.5 -30.834 26.5 -51.501c0 -15.333 -4.33301 -32.666 -13 -51.999l-114 -255
c-18 -41.333 -27 -69.666 -27 -84.999c0 -18 8.5 -32.167 25.5 -42.5s39.833 -15.5 68.5 -15.5c20 0 56.667 5.33301 110 16l4 -15c-163.333 -56.667 -269.666 -85 -318.999 -85c-56.667 0 -85 25.667 -85 77c0 32.667 12.333 75.667 37 129l71 152c24 51.333 36 82 36 92
c0 15.333 -18.333 23 -55 23c-29.333 0 -55.666 -7.33301 -78.999 -22s-47.666 -39 -72.999 -73c-19.333 -26 -41 -63.167 -65 -111.5s-42.333 -92.166 -55 -131.499l-25 -75c-61.333 -16 -121 -32.667 -179 -50zM849.998 912.998l17.998 -4.00098
c-38 -67.333 -66.667 -111.666 -86 -132.999s-40.666 -32 -63.999 -32c-18 0 -40.667 2.33301 -68 7l-98 15c-17.333 2.66699 -31.666 4 -42.999 4c-24.667 0 -49.667 -15 -75 -45l-18 7c43.333 68 76 112.333 98 133s47.333 31 76 31c16 0 36 -2.66699 60 -8l88 -20
c9.33301 -2 21 -3 35 -3c24 0 49.667 16 77 48z" />
    <glyph glyph-name="ograve" unicode="&#xf2;" horiz-adv-x="689" 
d="M715 512l10.001 -14.998c-19.333 -18 -38.666 -33 -57.999 -45c0.666992 -24.667 1 -40.334 1 -47.001c0 -108 -46.333 -207 -139 -297c-47.333 -46 -100 -82.333 -158 -109s-113.667 -40 -167 -40c-98.667 0 -148 48.333 -148 145c0 69.333 27.333 136.666 82 201.999
s131 122 229 170c-30.667 18.667 -46 31 -46 37c0 5.33301 8.66699 9 26 11c35.333 5.33301 69.666 14.333 102.999 27c52 19.333 84.333 29 97 29c39.333 0 71.666 -20.667 96.999 -62c23.333 -3.33301 47 -5.33301 71 -6zM388.001 463.002
c-42 -36.667 -76.667 -82.001 -104 -136.001s-41 -104.333 -41 -151c0 -39.333 11.167 -71.166 33.5 -95.499s51.5 -36.5 87.5 -36.5c44 0 77 18 99 54c30.667 50 46 108 46 174c0 45.333 -10 99.333 -30 162c-32.667 6 -63 15.667 -91 29zM707.001 692.001
c-70 18.667 -134.833 50.833 -194.5 96.5s-101.5 95.167 -125.5 148.5l8 9c54 -14 108.333 -24 163 -30c22 -107.333 73.333 -178.333 154 -213z" />
    <glyph glyph-name="oacute" unicode="&#xf3;" horiz-adv-x="689" 
d="M715 512l10.001 -14.998c-19.333 -18 -38.666 -33 -57.999 -45c0.666992 -24.667 1 -40.334 1 -47.001c0 -108 -46.333 -207 -139 -297c-47.333 -46 -100 -82.333 -158 -109s-113.667 -40 -167 -40c-98.667 0 -148 48.333 -148 145c0 69.333 27.333 136.666 82 201.999
s131 122 229 170c-30.667 18.667 -46 31 -46 37c0 5.33301 8.66699 9 26 11c35.333 5.33301 69.666 14.333 102.999 27c52 19.333 84.333 29 97 29c39.333 0 71.666 -20.667 96.999 -62c23.333 -3.33301 47 -5.33301 71 -6zM388.001 463.002
c-42 -36.667 -76.667 -82.001 -104 -136.001s-41 -104.333 -41 -151c0 -39.333 11.167 -71.166 33.5 -95.499s51.5 -36.5 87.5 -36.5c44 0 77 18 99 54c30.667 50 46 108 46 174c0 45.333 -10 99.333 -30 162c-32.667 6 -63 15.667 -91 29zM392.001 692.001l-4.99902 11.001
c81.333 34.667 132.666 105.667 153.999 213c54.667 6 109 16 163 30l8 -9c-24 -53.333 -65.667 -102.833 -125 -148.5s-124.333 -77.834 -195 -96.501z" />
    <glyph glyph-name="ocircumflex" unicode="&#xf4;" horiz-adv-x="689" 
d="M715 512l10.001 -14.998c-19.333 -18 -38.666 -33 -57.999 -45c0.666992 -24.667 1 -40.334 1 -47.001c0 -108 -46.333 -207 -139 -297c-47.333 -46 -100 -82.333 -158 -109s-113.667 -40 -167 -40c-98.667 0 -148 48.333 -148 145c0 69.333 27.333 136.666 82 201.999
s131 122 229 170c-30.667 18.667 -46 31 -46 37c0 5.33301 8.66699 9 26 11c35.333 5.33301 69.666 14.333 102.999 27c52 19.333 84.333 29 97 29c39.333 0 71.666 -20.667 96.999 -62c23.333 -3.33301 47 -5.33301 71 -6zM388.001 463.002
c-42 -36.667 -76.667 -82.001 -104 -136.001s-41 -104.333 -41 -151c0 -39.333 11.167 -71.166 33.5 -95.499s51.5 -36.5 87.5 -36.5c44 0 77 18 99 54c30.667 50 46 108 46 174c0 45.333 -10 99.333 -30 162c-32.667 6 -63 15.667 -91 29zM401.001 689.001l-42.001 28
c60.667 37.333 104.334 68.666 131.001 93.999s53.334 60 80.001 104c37.333 11.333 73.666 23.333 108.999 36c8.66699 -69.333 29 -142 61 -218c-42 -18 -85.333 -33.333 -130 -46c-22.667 60.667 -38 111.334 -46 152.001c-52 -58 -106.333 -108 -163 -150z" />
    <glyph glyph-name="otilde" unicode="&#xf5;" horiz-adv-x="689" 
d="M715 512l10.001 -14.998c-19.333 -18 -38.666 -33 -57.999 -45c0.666992 -24.667 1 -40.334 1 -47.001c0 -108 -46.333 -207 -139 -297c-47.333 -46 -100 -82.333 -158 -109s-113.667 -40 -167 -40c-98.667 0 -148 48.333 -148 145c0 69.333 27.333 136.666 82 201.999
s131 122 229 170c-30.667 18.667 -46 31 -46 37c0 5.33301 8.66699 9 26 11c35.333 5.33301 69.666 14.333 102.999 27c52 19.333 84.333 29 97 29c39.333 0 71.666 -20.667 96.999 -62c23.333 -3.33301 47 -5.33301 71 -6zM388.001 463.002
c-42 -36.667 -76.667 -82.001 -104 -136.001s-41 -104.333 -41 -151c0 -39.333 11.167 -71.166 33.5 -95.499s51.5 -36.5 87.5 -36.5c44 0 77 18 99 54c30.667 50 46 108 46 174c0 45.333 -10 99.333 -30 162c-32.667 6 -63 15.667 -91 29zM757.001 913.001l17.998 -4.00098
c-38 -67.333 -66.667 -111.666 -86 -132.999s-40.666 -32 -63.999 -32c-18 0 -40.667 2.33301 -68 7l-98 15c-17.333 2.66699 -31.666 4 -42.999 4c-24.667 0 -49.667 -15 -75 -45l-18 7c43.333 68 76 112.333 98 133s47.333 31 76 31c16 0 36 -2.66699 60 -8l88 -20
c9.33301 -2 21 -3 35 -3c24 0 49.667 16 77 48z" />
    <glyph glyph-name="odieresis" unicode="&#xf6;" horiz-adv-x="689" 
d="M715 512l10.001 -14.998c-19.333 -18 -38.666 -33 -57.999 -45c0.666992 -24.667 1 -40.334 1 -47.001c0 -108 -46.333 -207 -139 -297c-47.333 -46 -100 -82.333 -158 -109s-113.667 -40 -167 -40c-98.667 0 -148 48.333 -148 145c0 69.333 27.333 136.666 82 201.999
s131 122 229 170c-30.667 18.667 -46 31 -46 37c0 5.33301 8.66699 9 26 11c35.333 5.33301 69.666 14.333 102.999 27c52 19.333 84.333 29 97 29c39.333 0 71.666 -20.667 96.999 -62c23.333 -3.33301 47 -5.33301 71 -6zM388.001 463.002
c-42 -36.667 -76.667 -82.001 -104 -136.001s-41 -104.333 -41 -151c0 -39.333 11.167 -71.166 33.5 -95.499s51.5 -36.5 87.5 -36.5c44 0 77 18 99 54c30.667 50 46 108 46 174c0 45.333 -10 99.333 -30 162c-32.667 6 -63 15.667 -91 29zM415.001 917.001
c26 0 47.501 -9 64.501 -27s25.5 -41 25.5 -69c0 -29.333 -10.333 -54 -31 -74s-46 -30 -76 -30c-26.667 0 -48.834 8.66699 -66.501 26s-26.5 39.333 -26.5 66c0 29.333 10.667 54.5 32 75.5s47.333 31.833 78 32.5zM722.002 917.001c26 0 47.501 -9 64.501 -27
s25.5 -41 25.5 -69c0 -29.333 -10.333 -54 -31 -74s-46 -30 -76 -30c-26.667 0 -48.834 8.66699 -66.501 26s-26.5 39.333 -26.5 66c0 29.333 10.667 54.5 32 75.5s47.333 31.833 78 32.5z" />
    <glyph glyph-name="divide" unicode="&#xf7;" 
d="M619 244c17.333 0 31.666 -5.66797 42.999 -17.001s17 -25.333 17 -42c0 -19.333 -6.66699 -35.5 -20 -48.5s-29.666 -19.5 -48.999 -19.5c-16.667 0 -30.5 5.83301 -41.5 17.5s-16.5 26.167 -16.5 43.5c0 18.667 6.33301 34.334 19 47.001s28.667 19 48 19zM621 844.999
c16.667 0 30.5 -5.83203 41.5 -17.499s16.5 -26.167 16.5 -43.5c0 -18.667 -6.5 -34.334 -19.5 -47.001s-28.833 -19 -47.5 -19c-17.333 0 -31.666 5.66699 -42.999 17s-17 25.333 -17 42c0 19.333 6.66699 35.5 20 48.5s29.666 19.5 48.999 19.5zM225 511h778v-67h-778v67z
" />
    <glyph glyph-name="oslash" unicode="&#xf8;" horiz-adv-x="686" 
d="M663 491c8.66699 -28.667 12.999 -59.3311 12.999 -91.998c0 -103.333 -46.333 -200 -139 -290c-47.333 -46.667 -100.166 -83.334 -158.499 -110.001s-114.5 -40 -168.5 -40c-14 0 -29.667 2 -47 6l-98 -103l-36 37l84 88c-32.667 26 -49 65 -49 117
c0 69.333 27.333 136.666 82 201.999s131 122 229 170c-30.667 18.667 -46 31 -46 37c0 5.33301 8.66699 9 26 11c36.667 5.33301 71 14.333 103 27c52 19.333 84.333 29 97 29c28 0 55.333 -14 82 -42l96 101l35 -38zM512.999 333.003l-234 -246
c26 -28.667 57.333 -43 94 -43c43.333 0 76.333 18 99 54c30 49.333 45 107.333 45 174c0 16.667 -1.33301 37 -4 61zM255.999 137.003l244 257l-13 40c-32.667 6 -63 15.667 -91 29c-42 -36.667 -76.667 -82 -104 -136s-41 -104 -41 -150c0 -12 1.66699 -25.333 5 -40z" />
    <glyph glyph-name="ugrave" unicode="&#xf9;" horiz-adv-x="800" 
d="M827 84l4.99902 -13.001c-155.333 -65.333 -257.666 -98 -306.999 -98c-22 0 -39.833 6 -53.5 18s-20.5 28 -20.5 48c0 18 7.33301 43.333 22 76l43 97c-69.333 -74.667 -130 -130 -182 -166c-71.333 -48.667 -136 -73 -194 -73c-41.333 0 -62 22.667 -62 68
c0 28.667 10.667 68.667 32 120l147 362c61.333 12 125.333 27 192 45l-150 -344c-22.667 -52 -34 -86.333 -34 -103c0 -11.333 4.83301 -20.666 14.5 -27.999s21.834 -11 36.501 -11c38 0 84 38.5 138 115.5s110.333 184.5 169 322.5c62 14 123.667 29 185 45l-134 -315
c-28 -66 -42 -108.667 -42 -128c0 -37.333 28.667 -56 86 -56c21.333 0 57.666 6 108.999 18zM789.999 691.999c-70 18.667 -134.833 50.833 -194.5 96.5s-101.5 95.167 -125.5 148.5l8 9c54 -14 108.333 -24 163 -30c22 -107.333 73.333 -178.333 154 -213z" />
    <glyph glyph-name="uacute" unicode="&#xfa;" horiz-adv-x="800" 
d="M840 84l4.99902 -13.001c-155.333 -65.333 -257.666 -98 -306.999 -98c-22 0 -39.833 6 -53.5 18s-20.5 28 -20.5 48c0 18 7.33301 43.333 22 76l43 97c-69.333 -74.667 -130 -130 -182 -166c-71.333 -48.667 -136 -73 -194 -73c-41.333 0 -62 22.667 -62 68
c0 28.667 10.667 68.667 32 120l147 362c61.333 12 125.333 27 192 45l-150 -344c-22.667 -52 -34 -86.333 -34 -103c0 -11.333 4.83301 -20.666 14.5 -27.999s21.834 -11 36.501 -11c38 0 84 38.5 138 115.5s110.333 184.5 169 322.5c62 14 123.667 29 185 45l-134 -315
c-28 -66 -42 -108.667 -42 -128c0 -37.333 28.667 -56 86 -56c21.333 0 57.666 6 108.999 18zM473.999 691.999l-4.99902 11.001c81.333 34.667 132.666 105.667 153.999 213c54.667 6 109 16 163 30l8 -9c-24 -53.333 -65.667 -102.833 -125 -148.5
s-124.333 -77.834 -195 -96.501z" />
    <glyph glyph-name="ucircumflex" unicode="&#xfb;" horiz-adv-x="800" 
d="M827 84l4.99902 -13.001c-155.333 -65.333 -257.666 -98 -306.999 -98c-22 0 -39.833 6 -53.5 18s-20.5 28 -20.5 48c0 18 7.33301 43.333 22 76l43 97c-69.333 -74.667 -130 -130 -182 -166c-71.333 -48.667 -136 -73 -194 -73c-41.333 0 -62 22.667 -62 68
c0 28.667 10.667 68.667 32 120l147 362c61.333 12 125.333 27 192 45l-150 -344c-22.667 -52 -34 -86.333 -34 -103c0 -11.333 4.83301 -20.666 14.5 -27.999s21.834 -11 36.501 -11c38 0 84 38.5 138 115.5s110.333 184.5 169 322.5c62 14 123.667 29 185 45l-134 -315
c-28 -66 -42 -108.667 -42 -128c0 -37.333 28.667 -56 86 -56c21.333 0 57.666 6 108.999 18zM456.999 688.999l-42.001 28c60.667 37.333 104.334 68.666 131.001 93.999s53.334 60 80.001 104c37.333 11.333 73.666 23.333 108.999 36c8.66699 -69.333 29 -142 61 -218
c-42 -18 -85.333 -33.333 -130 -46c-22.667 60.667 -38 111.334 -46 152.001c-52 -58 -106.333 -108 -163 -150z" />
    <glyph glyph-name="udieresis" unicode="&#xfc;" horiz-adv-x="800" 
d="M847 84l4.99902 -13.001c-155.333 -65.333 -257.666 -98 -306.999 -98c-22 0 -39.833 6 -53.5 18s-20.5 28 -20.5 48c0 18 7.33301 43.333 22 76l43 97c-69.333 -74.667 -130 -130 -182 -166c-71.333 -48.667 -136 -73 -194 -73c-41.333 0 -62 22.667 -62 68
c0 28.667 10.667 68.667 32 120l147 362c61.333 12 125.333 27 192 45l-150 -344c-22.667 -52 -34 -86.333 -34 -103c0 -11.333 4.83301 -20.666 14.5 -27.999s21.834 -11 36.501 -11c38 0 84 38.5 138 115.5s110.333 184.5 169 322.5c62 14 123.667 29 185 45l-134 -315
c-28 -66 -42 -108.667 -42 -128c0 -37.333 28.667 -56 86 -56c21.333 0 57.666 6 108.999 18zM504.999 916.999c26 0 47.501 -9 64.501 -27s25.5 -41 25.5 -69c0 -29.333 -10.333 -54 -31 -74s-46 -30 -76 -30c-26.667 0 -48.834 8.66699 -66.501 26s-26.5 39.333 -26.5 66
c0 29.333 10.667 54.5 32 75.5s47.333 31.833 78 32.5zM812 916.999c26 0 47.501 -9 64.501 -27s25.5 -41 25.5 -69c0 -28.667 -10.333 -53.167 -31 -73.5s-46 -30.5 -76 -30.5c-26.667 0 -48.834 8.66699 -66.501 26s-26.5 39.333 -26.5 66c0 29.333 10.667 54.5 32 75.5
s47.333 31.833 78 32.5z" />
    <glyph glyph-name="yacute" unicode="&#xfd;" horiz-adv-x="711" 
d="M752 573l-256.001 -721.002c46 26 90.667 49.667 134 71l4 -11c-89.333 -73.333 -164 -172.666 -224 -297.999c-56 -14 -111 -31 -165 -51l214 631c-72 -79.333 -136 -137 -192 -173c-66 -43.333 -121.333 -65 -166 -65c-20 0 -36 5.83301 -48 17.5s-18 27.167 -18 46.5
c0 20 6.33301 46.667 19 80l155 424c64 15.333 128.333 32.333 193 51l-158 -402c-12.667 -31.333 -19 -54 -19 -68c0 -26 13 -39 39 -39c41.333 0 89.833 41.333 145.5 124s108.167 191.667 157.5 327c58.667 16.667 120.334 35.334 185.001 56.001zM409.999 691.998
l-4.99902 11.001c81.333 34.667 132.666 105.667 153.999 213c54.667 6 109 16 163 30l8 -9c-24 -53.333 -65.667 -102.833 -125 -148.5s-124.333 -77.834 -195 -96.501z" />
    <glyph glyph-name="thorn" unicode="&#xfe;" horiz-adv-x="802" 
d="M457 1128c54 8 108.667 18.333 164 31l-245 -761c116.667 118 215.667 177 297 177c33.333 0 59.333 -10.333 78 -31s28 -49.667 28 -87c0 -47.333 -13.667 -96.166 -41 -146.499s-64.666 -96.166 -111.999 -137.499c-39.333 -33.333 -96 -66.333 -170 -99l129 -7
c15.333 -0.666992 45.666 -1.66699 90.999 -3c44 -0.666992 79.667 -2 107 -4c-81.333 -43.333 -133.666 -65 -156.999 -65l-26 1h-283c-26 -12.667 -51.667 -23.334 -77 -32.001l-109 -348c-54.667 -8.66699 -108.334 -18.334 -161.001 -29.001l124 395
c-34 14 -65.667 29 -95 45l125 55zM412 76c47.333 36 83.333 75.334 108 118.001c18 30.667 33.333 66.167 46 106.5s19 73.833 19 100.5c0 23.333 -5.16699 42.166 -15.5 56.499s-23.5 21.5 -39.5 21.5c-87.333 0 -173 -132 -257 -396z" />
    <glyph glyph-name="ydieresis" unicode="&#xff;" horiz-adv-x="752" 
d="M779 573l-256.001 -721.002c46 26 90.667 49.667 134 71l4 -11c-89.333 -73.333 -164 -172.666 -224 -297.999c-56 -14 -111 -31 -165 -51l214 631c-72 -79.333 -136 -137 -192 -173c-66 -43.333 -121.333 -65 -166 -65c-20 0 -36 5.83301 -48 17.5s-18 27.167 -18 46.5
c0 20 6.33301 46.667 19 80l155 424c64 15.333 128.333 32.333 193 51l-158 -402c-12.667 -31.333 -19 -54 -19 -68c0 -26 13 -39 39 -39c41.333 0 89.833 41.333 145.5 124s108.167 191.667 157.5 327c58.667 16.667 120.334 35.334 185.001 56.001zM446.999 916.998
c26 0 47.501 -9 64.501 -27s25.5 -41 25.5 -69c0 -29.333 -10.333 -54 -31 -74s-46 -30 -76 -30c-26.667 0 -48.834 8.66699 -66.501 26s-26.5 39.333 -26.5 66c0 29.333 10.667 54.5 32 75.5s47.333 31.833 78 32.5zM754 916.998c26 0 47.501 -9 64.501 -27
s25.5 -41 25.5 -69c0 -29.333 -10.333 -54 -31 -74s-46 -30 -76 -30c-26.667 0 -48.834 8.66699 -66.501 26s-26.5 39.333 -26.5 66c0 29.333 10.667 54.5 32 75.5s47.333 31.833 78 32.5z" />
    <glyph glyph-name="Cacute" unicode="&#x106;" horiz-adv-x="1482" 
d="M1112 1443l-5.99902 11.001c97.333 34.667 159 105.667 185 213c65.333 6 130.666 16 195.999 30l9 -9c-28.667 -53.333 -78.667 -102.833 -150 -148.5s-149.333 -77.834 -234 -96.501zM1291 1024l-7.00195 17.998c38.667 15.333 65.834 30.833 81.501 46.5
s23.5 34.5 23.5 56.5c0 36.667 -22.667 68.834 -68 96.501s-98 41.5 -158 41.5c-117.333 0 -234.333 -36.667 -351 -110c-114 -71.333 -202.667 -170 -266 -296c-57.333 -114.667 -86 -232.667 -86 -354c0 -146 47.333 -253 142 -321c100.667 -72 266.334 -108 497.001 -108
c94.667 0 188 5.66699 280 17c100.667 12 160.334 19 179.001 21l5 -13c-72 -33.333 -141.667 -71 -209 -113c-126 -26 -269 -39 -429 -39c-121.333 0 -222.833 9 -304.5 27s-152.167 47 -211.5 87c-108 72.667 -162 180.334 -162 323.001c0 170 63.667 336 191 498
c146 186 337.333 321.333 574 406c131.333 47.333 253.666 71 366.999 71c67.333 0 119.333 -12.667 156 -38c32.667 -22.667 49 -53 49 -91c0 -55.333 -41.333 -106.333 -124 -153c-28.667 -16.667 -85 -41 -169 -73z" />
    <glyph glyph-name="cacute" unicode="&#x107;" horiz-adv-x="621" 
d="M440 692l-4.99902 11.001c81.333 34.667 132.666 105.667 153.999 213c54.667 6 109 16 163 30l8 -9c-24 -53.333 -65.667 -102.833 -125 -148.5s-124.333 -77.834 -195 -96.501zM676.001 86.001l5 -10.001c-164 -61.333 -304.667 -92 -422 -92
c-120 0 -180 44.667 -180 134c0 105.333 56 209 168 311c56 52 115.5 92.833 178.5 122.5s120.833 44.5 173.5 44.5c65.333 0 98 -23.667 98 -71c0 -36.667 -20.833 -72.5 -62.5 -107.5s-98.5 -64.5 -170.5 -88.5l-7 11c35.333 37.333 53 79 53 125
c0 26 -12.333 53.667 -37 83c-48 -29.333 -89.333 -69.666 -124 -120.999c-51.333 -78 -77 -153 -77 -225c0 -90.667 65.667 -136 197 -136c48 0 89.667 2.66699 125 8c42.667 6.66699 70 10.667 82 12z" />
    <glyph glyph-name="Ccaron" unicode="&#x10c;" horiz-adv-x="1482" 
d="M1507 1700l50 -27c-8 -4.66699 -16 -9 -24 -13c-104.667 -52.667 -181.334 -114.334 -230.001 -185.001c-44 -11.333 -87.333 -23.666 -130 -36.999c-11.333 70.667 -35.666 143.334 -72.999 218.001c50 18.667 102 34 156 46
c26.667 -60.667 44.667 -111.334 54 -152.001c63.333 58.667 129 108.667 197 150zM1291 1024l-7.00195 17.998c38.667 15.333 65.834 30.833 81.501 46.5s23.5 34.5 23.5 56.5c0 36.667 -22.667 68.834 -68 96.501s-98 41.5 -158 41.5
c-117.333 0 -234.333 -36.667 -351 -110c-114 -71.333 -202.667 -170 -266 -296c-57.333 -114.667 -86 -232.667 -86 -354c0 -146 47.333 -253 142 -321c100.667 -72 266.334 -108 497.001 -108c94.667 0 188 5.66699 280 17c100.667 12 160.334 19 179.001 21l5 -13
c-72 -33.333 -141.667 -71 -209 -113c-126 -26 -269 -39 -429 -39c-121.333 0 -222.833 9 -304.5 27s-152.167 47 -211.5 87c-108 72.667 -162 180.334 -162 323.001c0 170 63.667 336 191 498c146 186 337.333 321.333 574 406c131.333 47.333 253.666 71 366.999 71
c67.333 0 119.333 -12.667 156 -38c32.667 -22.667 49 -53 49 -91c0 -55.333 -41.333 -106.333 -124 -153c-28.667 -16.667 -85 -41 -169 -73z" />
    <glyph glyph-name="ccaron" unicode="&#x10d;" horiz-adv-x="621" 
d="M759 949l41.999 -27.001c-60.667 -38 -104.5 -69.5 -131.5 -94.5s-53.5 -59.5 -79.5 -103.5c-37.333 -11.333 -73.666 -23.666 -108.999 -36.999c-8.66699 70 -29 142.667 -61 218c42 18.667 85.333 34 130 46c22 -60 37 -110.667 45 -152
c52 58.667 106.667 108.667 164 150zM675.999 85.999l5 -10.001c-164 -61.333 -304.667 -92 -422 -92c-120 0 -180 44.667 -180 134c0 105.333 56 209 168 311c56 52 115.5 92.833 178.5 122.5s120.833 44.5 173.5 44.5c65.333 0 98 -23.667 98 -71
c0 -36.667 -20.833 -72.5 -62.5 -107.5s-98.5 -64.5 -170.5 -88.5l-7 11c35.333 37.333 53 79 53 125c0 26 -12.333 53.667 -37 83c-48 -29.333 -89.333 -69.666 -124 -120.999c-51.333 -78 -77 -153 -77 -225c0 -90.667 65.667 -136 197 -136c48 0 89.667 2.66699 125 8
c42.667 6.66699 70 10.667 82 12z" />
    <glyph glyph-name="dmacron" unicode="&#x111;" horiz-adv-x="665" 
d="M693 849c86 0.666992 141.002 6.33398 165.002 17.001l3 -8c-44 -30.667 -74 -53.667 -90 -69h-68c5.33301 -41.333 8 -78 8 -110c0 -168 -42.667 -318.667 -128 -452c-48 -75.333 -103.833 -134.833 -167.5 -178.5s-125.834 -65.5 -186.501 -65.5
c-44.667 0 -79.834 15.167 -105.501 45.5s-38.5 72.5 -38.5 126.5c0 116.667 58.667 219 176 307c92.667 69.333 193 113 301 131c-2.66699 70.667 -13 136 -31 196c-110 1.33301 -178.333 -4.33398 -205 -17.001l-2 6c17.333 12 42.333 35.667 75 71h110
c-55.333 124.667 -128.333 187 -219 187c-38.667 0 -82 -14.667 -130 -44l-8 12l182 109c38 23.333 72.333 35 103 35c59.333 0 112 -26.833 158 -80.5s78.667 -126.5 98 -218.5zM562.002 569c-73.333 -14 -138 -51.999 -194 -113.999
c-65.333 -72.667 -98 -147.667 -98 -225c0 -45.333 9.83301 -83.5 29.5 -114.5s43.834 -46.5 72.501 -46.5c28 0 56.167 17.667 84.5 53s51.166 81 68.499 137c24.667 79.333 37 182.666 37 309.999z" />
    <glyph glyph-name="Gbreve" unicode="&#x11e;" horiz-adv-x="1905" 
d="M1983 1723l34 -22.001c-126.667 -152 -242 -228 -346 -228c-46 0 -81.833 14 -107.5 42s-38.5 67 -38.5 117c0 12.667 1.66699 26.334 5 41.001l177 39c-5.33301 -32 -8 -54.667 -8 -68c0 -38.667 21.667 -58 65 -58c60 0 133 45.667 219 137zM1769 362.999l280.999 -6
c-59.333 -40 -118.333 -82.333 -177 -127l-148 2c-58 -166 -132 -285 -222 -357c-66.667 -53.333 -147.5 -95.666 -242.5 -126.999s-190.5 -47 -286.5 -47c-208 0 -417.667 64.667 -629 194c-141.333 86.667 -250.333 182.334 -327 287.001
c62.667 34 119.334 69 170.001 105c174 25.333 313.167 42.166 417.5 50.499s247.833 14.5 430.5 18.5l542 11l33 115c22.667 84.667 47 155.667 73 213c-136.667 -72 -249 -123.667 -337 -155s-164.333 -47 -229 -47c-84 0 -152 20.667 -204 62c-54 42.667 -81 99 -81 169
c0 119.333 61.333 239.666 184 360.999c130 129.333 280 225 450 287c110 40 214.667 60 314 60c77.333 0 139.333 -16.333 186 -49c40 -27.333 60 -62.333 60 -105c0 -60 -37 -112.667 -111 -158c-32 -20 -83.667 -40 -155 -60l-7 16c54.667 28 82 67.667 82 119
c0 42 -23 76.5 -69 103.5s-104.667 40.5 -176 40.5c-60 0 -121.333 -10.833 -184 -32.5s-118.334 -51.167 -167.001 -88.5c-62.667 -48 -112 -107 -148 -177c-32 -60.667 -48 -122 -48 -184c0 -74 28 -135.333 84 -184c50.667 -43.333 111.334 -65 182.001 -65
c78 0 169.167 22.167 273.5 66.5s215.5 108.5 333.5 192.5l11 -7c-51.333 -138 -92.333 -260.667 -123 -368zM1544 236.999l-1059 33.001c-34.667 1.33301 -64 2 -88 2c-64.667 0 -126.667 -2.33301 -186 -7c98 -108.667 230.333 -207.334 397 -296.001
c100 -54 203.333 -96.833 310 -128.5s200 -47.5 280 -47.5c76.667 0 134.334 16 173.001 48c53.333 44.667 95.333 121.667 126 231z" />
    <glyph glyph-name="gbreve" unicode="&#x11f;" horiz-adv-x="782" 
d="M841 944l28 -22c-105.333 -151.333 -201.333 -227 -288 -227c-38.667 0 -68.667 14 -90 42s-32 66.667 -32 116c0 13.333 1.33301 27 4 41l148 39c-4.66699 -33.333 -7 -56 -7 -68c0 -38 18 -57 54 -57c50 0 111 45.333 183 136zM872 263l0.000976562 -18.999
c-16.667 -8 -51 -23 -103 -45c-36 -14.667 -66.333 -29.334 -91 -44.001c-24 -92 -49.833 -161.667 -77.5 -209s-72.5 -98.666 -134.5 -153.999c-64 -57.333 -128.333 -105.166 -193 -143.499s-113.667 -57.5 -147 -57.5c-37.333 0 -56 14.667 -56 44
c0 51.333 53.333 131.666 160 240.999c58 60 142.667 128 254 204c15.333 52 32.666 107.667 51.999 167c-182.667 -160.667 -306 -241 -370 -241c-25.333 0 -45.833 10 -61.5 30s-23.5 46 -23.5 78c0 109.333 71 218.333 213 327c140 107.333 260.333 161 361 161
c56.667 0 111.334 -7 164.001 -21c-63.333 -148 -107 -278.333 -131 -391c87.333 41.333 148.666 65.666 183.999 72.999zM622.001 484.001c-52 11.333 -97.666 16.999 -136.999 16.999c-50.667 0 -89.334 -15 -116.001 -45c-20.667 -23.333 -41.667 -64.5 -63 -123.5
s-32 -105.5 -32 -139.5c0 -42 16 -63 48 -63c41.333 0 91 34.333 149 103s108.333 152.334 151 251.001zM476.002 45c-52 -33.333 -103.169 -73.832 -153.502 -121.499s-83.5 -86.834 -99.5 -117.501c-10 -19.333 -15.667 -30 -17 -32c-4 -5.33301 -6 -9.33301 -6 -12
c0 -5.33301 9.33301 -10.333 28 -15s39.667 -7 63 -7c46.667 0 78.834 7 96.501 21s31.834 43.667 42.501 89l18 74l9 44c6 27.333 12.333 53 19 77z" />
    <glyph glyph-name="Idot" unicode="&#x130;" horiz-adv-x="1574" 
d="M1428 1695c28 0 51.333 -9.33496 70 -28.002s28 -42 28 -70c0 -26.667 -9.66699 -49.5 -29 -68.5s-42 -28.5 -68 -28.5c-26.667 0 -49.667 9.66699 -69 29s-29 42.333 -29 69s9.33301 49.334 28 68.001s41.667 28.334 69 29.001zM275 701.998l-7.00391 9.00098
c72.667 82 155.834 166.5 249.501 253.5s179.834 159.833 258.501 218.5c230 170 425.333 255 586 255c102.667 0 185.667 -33.667 249 -101c38.667 -40.667 68.834 -94.667 90.501 -162s32.5 -140.333 32.5 -219c0 -177.333 -51.667 -340.333 -155 -489
c-112 -160.667 -278.667 -288.334 -500 -383.001c-173.333 -74 -347.666 -111 -522.999 -111c-79.333 0 -150 7.33301 -212 22s-93 31 -93 49c0 6.66699 3.5 13.5 10.5 20.5s26.5 22.167 58.5 45.5c32 24.667 62 52.667 90 84c73.333 -2.66699 135 -4 185 -4
c53.333 0 143 4.33301 269 13c-20.667 -23.333 -32.667 -36.333 -36 -39c-14.667 -16 -22 -26 -22 -30c0 -9.33301 13.333 -14 40 -14c69.333 0 150 10.333 242 31c153.333 34.667 268 112.667 344 234c70.667 114 106 247 106 399c0 179.333 -49.667 315 -149 407
c-70.667 64.667 -155 97 -253 97c-103.333 0 -210.5 -39.5 -321.5 -118.5s-222.5 -195.167 -334.5 -348.5c-68 -37.333 -136.333 -77 -205 -119z" />
    <glyph glyph-name="dotlessi" unicode="&#x131;" horiz-adv-x="461" 
d="M519 94l-0.00195312 -17.998c-112 -41.333 -186.667 -67.5 -224 -78.5s-69.666 -16.5 -96.999 -16.5c-29.333 0 -52.5 8.16699 -69.5 24.5s-25.5 38.166 -25.5 65.499c0 33.333 14.667 86.666 44 159.999l117 293c66.667 15.333 132.334 35 197.001 59l-133 -304
c-28 -64.667 -42 -110 -42 -136c0 -42 33.333 -63 100 -63c30.667 0 75 4.66699 133 14z" />
    <glyph glyph-name="Lslash" unicode="&#x141;" horiz-adv-x="1876" 
d="M672 569l229.999 32.0039c46 152.667 86.667 262.167 122 328.5s88 132.5 158 198.5c92 87.333 206.667 161 344 221c96.667 42 176.334 63 239.001 63c46.667 0 83.667 -14.333 111 -43s41 -67.334 41 -116.001c0 -105.333 -52.667 -191.333 -158 -258
c-98 -62 -215 -114.333 -351 -157l-9 24c86.667 32.667 157.334 78.667 212.001 138c26 27.333 46.833 58.666 62.5 93.999s23.5 68.666 23.5 99.999c0 40.667 -10.5 73.167 -31.5 97.5s-48.833 36.5 -83.5 36.5c-69.333 0 -137.333 -43.833 -204 -131.5
s-138.334 -227.834 -215.001 -420.501l-43 -107c-5.33301 -13.333 -11 -26.333 -17 -39l368 51l-46 -64l-351 -49c-74 -142.667 -174.333 -265.667 -301 -369c52.667 0.666992 104 1 154 1c314.667 0 619.334 -32.667 914.001 -98l31 38l10 -59
c-51.333 -40.667 -103 -85 -155 -133c-318 80 -622.333 120 -913 120c-62.667 0 -129.667 -3.33301 -201 -10c-58.667 -28 -123.167 -50.167 -193.5 -66.5s-136.166 -24.5 -197.499 -24.5c-92 0 -138 11.667 -138 35c0 16 25.667 35 77 57l9 11
c19.333 25.333 36.666 42.5 51.999 51.5s41.666 17.833 78.999 26.5c76 16 226.667 32.667 452 50c30 38 62.333 114 97 228l34 115l-258 -36z" />
    <glyph glyph-name="lslash" unicode="&#x142;" horiz-adv-x="574" 
d="M192 489l-156.001 -21.999l21 44l155 22c94.667 204 185.334 378.333 272.001 523c58 15.333 116 33.666 174 54.999c9.33301 -26 15.166 -55.5 17.499 -88.5s3.5 -104.167 3.5 -213.5c0 -103.333 -10.667 -189.333 -32 -258s-59.666 -139.667 -114.999 -213
c-58.667 -78.667 -144.334 -159.667 -257.001 -243c42.667 -29.333 114 -44 214 -44c22.667 0 59.334 3 110.001 9l2 -14c-170.667 -53.333 -294.667 -80 -372 -80c-101.333 0 -152 48.333 -152 145c0 43.333 8.16699 92 24.5 146s46.5 131.333 90.5 232zM351.999 521.001
c-70 -175.333 -105.001 -293 -105.001 -353c0 -18 4.66699 -36.667 14 -56c108.667 77.333 187.834 173.5 237.501 288.5s74.5 258.833 74.5 431.5c0 40 -2 91 -6 153c-64 -120 -129.333 -260 -196 -420l132 18l-19 -44z" />
    <glyph glyph-name="OE" unicode="&#x152;" horiz-adv-x="2306" 
d="M2205 884c-30.667 -34 -59.668 -68.998 -87.001 -104.998c-78 6 -142 9 -192 9c-93.333 0 -202.666 -7.66699 -327.999 -23c-42 -105.333 -63 -206.333 -63 -303c0 -110 29 -189.667 87 -239c63.333 -53.333 179.333 -80 348 -80c158.667 0 312.667 14.667 462 44l6 -11
c-64.667 -41.333 -126 -85 -184 -131l-22 -3l-129 -19c-136.667 -21.333 -249.334 -32 -338.001 -32c-143.333 0 -252.5 24.167 -327.5 72.5s-112.5 118.5 -112.5 210.5c0 18.667 2 38.667 6 60c-73.333 -86 -147 -154.667 -221 -206
c-149.333 -103.333 -296.666 -155 -441.999 -155c-130 0 -234.667 46.667 -314 140c-75.333 87.333 -113 197.666 -113 330.999c0 171.333 57.5 336.666 172.5 495.999s268.167 286.333 459.5 381l12 -15c-120 -59.333 -214.333 -130.333 -283 -213
c-120.667 -145.333 -181 -304.666 -181 -477.999c0 -156 45 -285.333 135 -388c82 -92.667 184 -139 306 -139c72 0 141.167 17.167 207.5 51.5s124.833 83.5 175.5 147.5c109.333 136 164 293.667 164 473c0 148 -30.667 271.333 -92 370
c-64.667 104.667 -146 157 -244 157c-80.667 0 -147.334 -43.333 -200.001 -130c-50 -83.333 -75 -172.333 -75 -267c0 -63.333 7 -122 21 -176l-14 -5c-18 62 -30.167 108.833 -36.5 140.5s-13.166 80.167 -20.499 145.5c41.333 102 102.666 194.333 183.999 277
c106.667 107.333 213.334 161 320.001 161c85.333 0 156.333 -33.333 213 -100c75.333 -88 113 -199 113 -333c0 -15.333 -0.666992 -36.666 -2 -63.999c34 59.333 78.833 123.666 134.5 192.999s113.5 133.333 173.5 192c204 72 380 108 528 108
c9.33301 0 23.333 -0.333008 42 -1h18c4.66699 -0.666992 7.33398 -1 8 -1c7.33301 0 21.666 5.33301 43 16l16 -11c-38.667 -42.667 -74.334 -88 -107 -136c-50.667 7.33301 -111.334 11 -182 11c-126 0 -261.333 -21.667 -406 -65
c-36 -50.667 -73.167 -111.334 -111.5 -182.001s-72.833 -141 -103.5 -211c177.333 30.667 344.333 46 501 46h49h19z" />
    <glyph glyph-name="oe" unicode="&#x153;" horiz-adv-x="1092" 
d="M674 447c121.333 86 234.333 128.999 339 128.999c32.667 0 59.334 -8.66699 80.001 -26s31 -39.666 31 -66.999c0 -60.667 -38.833 -122.5 -116.5 -185.5s-177.167 -113.5 -298.5 -151.5c56 -59.333 143.333 -89 262 -89c52 0 101.333 6 148 18l6 -15
c-174.667 -54.667 -312.667 -82 -414 -82c-54.667 0 -98 8.33301 -130 25s-56 43.334 -72 80.001c-96 -82.667 -195 -124 -297 -124c-98.667 0 -148 48.333 -148 145c0 69.333 27.333 136.666 82 201.999s131 122 229 170c-30.667 18.667 -46 31 -46 37
c0 5.33301 8.66699 9 26 11c35.333 5.33301 69.666 14.333 102.999 27c52 19.333 84.333 29 97 29c30 0 55.333 -11.667 76 -35s35 -56 43 -98zM396 462.999c-42 -36.667 -76.667 -82.001 -104 -136.001s-41 -104.333 -41 -151c0 -39.333 11.167 -71.166 33.5 -95.499
s51.833 -36.5 88.5 -36.5c44 0 77 18 99 54c30.667 49.333 46 107.333 46 174c0 44.667 -10.333 98.667 -31 162c-32.667 6 -63 15.667 -91 29zM699 160.998c63.333 30 115.332 69.665 155.999 118.998c48.667 58 73 115.333 73 172c0 18.667 -5.66699 33.834 -17 45.501
s-26.333 17.5 -45 17.5c-35.333 0 -69.666 -19.667 -102.999 -59c-24.667 -28.667 -44.667 -63.167 -60 -103.5s-23 -78.166 -23 -113.499c0 -28.667 6.33301 -54.667 19 -78z" />
    <glyph glyph-name="Scedilla" unicode="&#x15e;" horiz-adv-x="1480" 
d="M702 -42l-38.001 -60.002c34.667 11.333 64.667 17 90 17c32 0 57.833 -8 77.5 -24s29.5 -37 29.5 -63c0 -50.667 -29.667 -94.167 -89 -130.5s-138 -59.833 -236 -70.5l-3 34c132.667 18.667 199 57.334 199 116.001c0 38 -27.667 57 -83 57c-22 0 -46.667 -3 -74 -9
l78 130c-43.333 -2.66699 -83.333 -4 -120 -4c-155.333 0 -292 12.333 -410 37c-35.333 7.33301 -58.5 13.833 -69.5 19.5s-16.5 13.834 -16.5 24.501c0 7.33301 11.333 19.666 34 36.999c42.667 32.667 78 65.667 106 99c17.333 -0.666992 73.666 -3.66699 168.999 -9
c46.667 -2.66699 96.334 -4 149.001 -4c32.667 0 73.334 1 122.001 3c19.333 1.33301 35.333 2 48 2l-53 -75c68.667 -5.33301 130.334 -8 185.001 -8c212 0 371 28 477 84c88 46.667 132 109 132 187c0 62.667 -27.833 114.5 -83.5 155.5s-146.5 76.833 -272.5 107.5
l-152 38c-159.333 38.667 -239 107.667 -239 207c0 76.667 43 159 129 247c125.333 128 280 222 464 282c76 24.667 141.667 37 197 37c52.667 0 94.167 -9.83301 124.5 -29.5s45.5 -46.834 45.5 -81.501c0 -39.333 -26.5 -90.166 -79.5 -152.499
s-121.167 -123.5 -204.5 -183.5l-12 10c38 31.333 64.5 59.333 79.5 84s22.5 52 22.5 82c0 45.333 -18.333 80.833 -55 106.5s-87.334 38.5 -152.001 38.5c-102 0 -194.667 -33 -278 -99c-66.667 -53.333 -100 -111.333 -100 -174c0 -52 19.833 -94.833 59.5 -128.5
s102.5 -61.167 188.5 -82.5l144 -36c116 -29.333 200.833 -65.166 254.5 -107.499s80.5 -94.833 80.5 -157.5c0 -103.333 -54 -200 -162 -290c-180 -150 -414.333 -237.667 -703 -263z" />
    <glyph glyph-name="scedilla" unicode="&#x15f;" horiz-adv-x="553" 
d="M185 -38l-35.998 -49.9932c25.333 3.33301 45.666 5 60.999 5c49.333 0 74 -23 74 -69c0 -41.333 -25 -76.833 -75 -106.5s-117 -48.834 -201 -57.501l-3 30c114 14.667 171 45 171 91c0 32.667 -17.333 49 -52 49c-18 0 -36.333 -2.33301 -55 -7l83 115
c-80 4.66699 -120 16 -120 34c0 6.66699 7 17.667 21 33c15.333 18 31.333 40.667 48 68c37.333 -0.666992 77 -1.33398 119 -2.00098l-14 -44c21.333 -6 40 -9 56 -9c25.333 0 49 4.16699 71 12.5s33 17.166 33 26.499c0 19.333 -28 51.666 -84 96.999l-73 59
c-43.333 35.333 -65 67.666 -65 96.999c0 55.333 40.333 114.333 121 177s156.334 94 227.001 94c31.333 0 56.666 -8.16699 75.999 -24.5s29 -37.5 29 -63.5s-12.5 -53.167 -37.5 -81.5s-60.167 -55.833 -105.5 -82.5l-10 10c29.333 29.333 44 52.666 44 69.999
c0 34 -32.667 51 -98 51c-44 0 -90.667 -6 -140 -18c13.333 -30 36 -58.667 68 -86l78 -67c58 -48.667 87 -86.667 87 -114c0 -44.667 -50.667 -104 -152 -178c-50.667 -36.667 -99.334 -56.334 -146.001 -59.001z" />
    <glyph glyph-name="Scaron" unicode="&#x160;" horiz-adv-x="1480" 
d="M1335 976l-11.998 10c68 55.333 102 110.333 102 165c0 45.333 -18.333 80.833 -55 106.5s-87.334 38.5 -152.001 38.5c-102 0 -194.667 -33 -278 -99c-66.667 -53.333 -100 -111 -100 -173c0 -52 19.667 -94.833 59 -128.5s102.333 -61.5 189 -83.5l144 -36
c116 -29.333 200.833 -65.166 254.5 -107.499s80.5 -94.833 80.5 -157.5c0 -102.667 -54 -199 -162 -289c-215.333 -180 -506.333 -270 -873 -270c-154.667 0 -291 12.333 -409 37c-35.333 7.33301 -58.5 13.833 -69.5 19.5s-16.5 13.5 -16.5 23.5c0 8 11.333 20.667 34 38
c42.667 31.333 78 64 106 98c17.333 -0.666992 73.666 -3.66699 168.999 -9c46.667 -2.66699 96.334 -4 149.001 -4c32.667 0 73.334 1.33301 122.001 4c19.333 0.666992 35.333 1 48 1c-16.667 -22 -34.334 -47 -53.001 -75c68 -4.66699 129.667 -7 185 -7
c212 0 371 28 477 84c88 46.667 132 108.667 132 186c0 62.667 -27.833 114.5 -83.5 155.5s-146.5 77.167 -272.5 108.5l-152 37c-159.333 38.667 -239 107.667 -239 207c0 76.667 43.333 159 130 247c125.333 128 279.666 222 462.999 282c76 24.667 141.667 37 197 37
c52.667 0 94.167 -9.83301 124.5 -29.5s45.5 -46.834 45.5 -81.501c0 -38.667 -26.667 -89.5 -80 -152.5s-121.333 -123.833 -204 -182.5zM1602 1714l50 -27c-8 -4.66699 -16 -9 -24 -13c-104.667 -52.667 -181.334 -114.334 -230.001 -185.001
c-44 -11.333 -87.333 -23.666 -130 -36.999c-11.333 70.667 -35.666 143.334 -72.999 218.001c50 18.667 102 34 156 46c26.667 -60.667 44.667 -111.334 54 -152.001c63.333 58.667 129 108.667 197 150z" />
    <glyph glyph-name="scaron" unicode="&#x161;" horiz-adv-x="553" 
d="M467 353l-9.00195 10.0029c29.333 30 44 53.333 44 70c0 34 -32.667 51 -98 51c-46 0 -92.667 -6 -140 -18c13.333 -30 35.666 -58.667 66.999 -86l79 -67c58 -48.667 87 -86.667 87 -114c0 -38.667 -42.333 -91.334 -127 -158.001
c-37.333 -30 -69.166 -50.667 -95.499 -62s-54.833 -17 -85.5 -17c-95.333 0 -143 11.667 -143 35c0 6 7 16.667 21 32c15.333 18 31.333 40.667 48 68c36.667 -0.666992 76.334 -1.33398 119.001 -2.00098l-14 -44c20.667 -5.33301 39.334 -8 56.001 -8
c25.333 0 49 4 71 12s33 17 33 27c0 18.667 -28 50.667 -84 96l-74 59c-42.667 34.667 -64 67 -64 97c0 55.333 40.333 114.333 121 177s156.334 94 227.001 94c31.333 0 56.666 -8.16699 75.999 -24.5s29 -37.5 29 -63.5c0 -25.333 -12.5 -52.333 -37.5 -81
s-60.5 -56.334 -106.5 -83.001zM657.998 949.003l41.999 -27.001c-60.667 -38 -104.5 -69.5 -131.5 -94.5s-53.5 -59.5 -79.5 -103.5c-37.333 -11.333 -73.666 -23.666 -108.999 -36.999c-8.66699 70 -29 142.667 -61 218c42 18.667 85.333 34 130 46
c22 -60 37 -110.667 45 -152c52 58.667 106.667 108.667 164 150z" />
    <glyph glyph-name="Ydieresis" unicode="&#x178;" horiz-adv-x="1407" 
d="M1604 298l5.00195 -20.002c-50.667 -10.667 -113.334 -27.167 -188.001 -49.5s-141.334 -44.5 -200.001 -66.5c-59.333 -118.667 -152.333 -221 -279 -307c-184 -124.667 -358.333 -187 -523 -187c-76 0 -144.333 8.33301 -205 25c-56.667 -14 -101.667 -21 -135 -21
c-47.333 0 -71 11.333 -71 34c0 8 8.33301 18 25 30c8 6 25.333 21 52 45c64 56.667 120 85 168 85c19.333 0 44 -3.33301 74 -10c18.667 6.66699 54.667 20.667 108 42l101 38l126 48l256 93c44.667 16 92 34.667 142 56l122 373
c-85.333 -111.333 -163.333 -191.333 -234 -240c-88.667 -61.333 -176.334 -92 -263.001 -92c-86 0 -152.167 27.833 -198.5 83.5s-69.5 135.5 -69.5 239.5c0 54.667 3.33301 114.334 10 179.001l17 168c11.333 109.333 17 201.333 17 276c0 75.333 -12.667 143 -38 203
c76 32 150.333 67.333 223 106c10.667 -7.33301 17.834 -20.166 21.501 -38.499s5.5 -48.5 5.5 -90.5c0 -43.333 -7.66699 -131.666 -23 -264.999l-17 -151c-16.667 -136 -25 -245.667 -25 -329c0 -58 5.33301 -104.833 16 -140.5s28.334 -65.834 53.001 -90.501
c38 -38 85.667 -57 143 -57c83.333 0 163.666 47.333 240.999 142c56.667 69.333 116 194.333 178 375l195 570c72 21.333 143.667 44.333 215 69l-9 -26c-80.667 -224 -163.667 -472 -249 -744l-65 -210c-30.667 -99.333 -60.667 -182 -90 -248
c62 22 127.5 42.667 196.5 62s126.167 33 171.5 41zM1045 88.998c-87.333 -33.333 -193.333 -78.668 -318 -136.001s-210.667 -100.666 -258 -129.999c86 -22 158 -33 216 -33c162.667 0 282.667 99.667 360 299zM954.002 1668c28 0 51.333 -9.33496 70 -28.002
s28 -42 28 -70c0 -26.667 -9.66699 -49.5 -29 -68.5s-42 -28.5 -68 -28.5c-26.667 0 -49.667 9.66699 -69 29s-29 42.333 -29 69s9.33301 49.334 28 68.001s41.667 28.334 69 29.001zM1300 1667.99c27.333 0 50.333 -9.33496 69 -28.002s28 -42 28 -70
c0 -26.667 -9.66699 -49.5 -29 -68.5s-42 -28.5 -68 -28.5c-26.667 0 -49.667 9.66699 -69 29s-29 42.333 -29 69s9.33301 49.334 28 68.001s42 28.334 70 29.001z" />
    <glyph glyph-name="Zcaron" unicode="&#x17d;" horiz-adv-x="1758" 
d="M1927 1207l8.99609 -12.002l-273 -225l-133 -107c-114 -91.333 -203.333 -165 -268 -221c28.667 2 91.334 4.33301 188.001 7c30 0 81.333 7.33301 154 22l8 -13c-46 -36.667 -90.667 -78 -134 -124l-33 -2c-137.333 -10.667 -257.333 -17.334 -360 -20.001
c-32 -21.333 -70.833 -49.833 -116.5 -85.5s-81.167 -65.167 -106.5 -88.5c51.333 -7.33301 125.333 -26.333 222 -57l169 -56c152.667 -51.333 260.334 -84.666 323.001 -99.999s122.667 -24 180 -26l-12 74l111 -68v-15c-49.333 -50.667 -95.333 -104 -138 -160
c-20 -1.33301 -34.667 -2 -44 -2c-47.333 0 -109.833 10 -187.5 30s-177.5 52 -299.5 96l-136 49c-49.333 18 -110.833 37.333 -184.5 58s-136.167 36.334 -187.5 47.001c-136 -88.667 -242.667 -148 -320 -178c-86.667 -34 -161.334 -51 -224.001 -51
c-22 0 -39.833 5.16699 -53.5 15.5s-20.5 23.5 -20.5 39.5c0 50 49.667 105.333 149 166c78.667 48 161.5 85.333 248.5 112s169.167 40 246.5 40c24.667 0 56 -1.66699 94 -5l204 166c-84.667 0 -151.334 4 -200.001 12v16c56.667 36 112.334 75 167.001 117
c56.667 -6 122 -10 196 -12l259 210c95.333 76.667 195.333 151.667 300 225c-34.667 -12.667 -71.167 -24.167 -109.5 -34.5s-64.833 -15.5 -79.5 -15.5c-19.333 0 -45.666 10.5 -78.999 31.5s-93.666 65.167 -180.999 132.5c-120 92.667 -213 139 -279 139
c-67.333 0 -133.5 -44.667 -198.5 -134s-123.5 -215.666 -175.5 -378.999c-67.333 -36.667 -133.333 -75.667 -198 -117l-12 8c7.33301 42 39 139.333 95 292l38 102c19.333 53.333 37.333 115.333 54 186c59.333 29.333 117.666 61 174.999 95l11 -7c2 -16 3 -32 3 -48
c0 -26.667 -2.66699 -58 -8 -94c84.667 72 159 123.5 223 154.5s128.667 46.5 194 46.5c47.333 0 91.333 -8.33301 132 -25s86.334 -45 137.001 -85l141 -112c76.667 -61.333 123.334 -92 140.001 -92c16 0 42.5 8.33301 79.5 25s70.5 35.667 100.5 57zM634.996 218.998
c-92 18 -158.667 27 -200 27c-57.333 0 -103 -8.83301 -137 -26.5s-51 -41.5 -51 -71.5c0 -21.333 8.33301 -38.833 25 -52.5s38.667 -20.5 66 -20.5c60.667 0 159.667 48 297 144zM1686 1727l50 -27c-8 -4.66699 -16 -9 -24 -13
c-104.667 -52.667 -181.334 -114.334 -230.001 -185.001c-44 -11.333 -87.333 -23.666 -130 -36.999c-11.333 70.667 -35.666 143.334 -72.999 218.001c50 18.667 102 34 156 46c26.667 -60.667 44.667 -111.334 54 -152.001c63.333 58.667 129 108.667 197 150z" />
    <glyph glyph-name="zcaron" unicode="&#x17e;" horiz-adv-x="670" 
d="M736 94l6.99902 -15.001c-66 -38 -128.833 -68.5 -188.5 -91.5s-106.5 -34.5 -140.5 -34.5s-75 8.66699 -123 26l-56 19c-33.333 11.333 -60.666 17 -81.999 17c-2.66699 0 -7 -0.333008 -13 -1c-23.333 -16 -41 -30.333 -53 -43c-6.66699 -6.66699 -11.667 -10 -15 -10
c-5.33301 0 -8 2.33301 -8 7c0 12 11 31 33 57c60.667 72.667 123.334 113.334 188.001 122.001l140 134c40 38.667 71.333 70.334 94 95.001c-45.333 -18 -79.333 -27 -102 -27c-17.333 0 -45.333 5.66699 -84 17c-14 4 -27 6 -39 6c-38 0 -72.333 -33.333 -103 -100
l-43 -11l129 341c30 7.33301 61.333 16 94 26l-85 -187c51.333 61.333 106.333 92 165 92c24 0 67.333 -5.33301 130 -16c22 -3.33301 41 -5 57 -5c33.333 0 62 3 86 9l4 -7l-134 -122l-160 -139c-58.667 -52.667 -96 -87.667 -112 -105
c30.667 -2.66699 73.667 -13.334 129 -32.001c78 -27.333 138.667 -41 182 -41c23.333 0 57.666 6.33301 102.999 19zM742.999 948.999l41.999 -27.001c-60.667 -38 -104.5 -69.5 -131.5 -94.5s-53.5 -59.5 -79.5 -103.5c-37.333 -11.333 -73.666 -23.666 -108.999 -36.999
c-8.66699 70 -29 142.667 -61 218c42 18.667 85.333 34 130 46c22 -60 37 -110.667 45 -152c52 58.667 106.667 108.667 164 150z" />
    <glyph glyph-name="florin" unicode="&#x192;" horiz-adv-x="1261" 
d="M917 667l246.997 0.00292969l-28 -53h-244l-37 -80c-84.667 -184 -140 -302.333 -166 -355c-134.667 -268.667 -293 -466.667 -475 -594c-105.333 -74 -211.666 -111 -318.999 -111c-94.667 0 -142 35 -142 105c0 44.667 14.333 84.667 43 120s80.667 77.666 156 126.999
l7 -13c-33.333 -56.667 -50 -113.334 -50 -170.001c0 -71.333 34.333 -107 103 -107c112 0 214.667 81 308 243c40 69.333 135.333 277.333 286 624l74 168l18 43h-235l27 53h232c54.667 112 107.834 205 159.501 279s111.834 144 180.501 210
c88 84 175.833 149.5 263.5 196.5s165.5 70.5 233.5 70.5c40 0 73.167 -8.33301 99.5 -25s39.5 -37.667 39.5 -63c0 -36.667 -19 -79.667 -57 -129s-91 -99.666 -159 -150.999l-16 8c54 91.333 81 162.333 81 213c0 24.667 -8.33301 45 -25 61s-37.667 24 -63 24
c-72.667 0 -146 -35 -220 -105c-38 -36.667 -77.167 -91.834 -117.5 -165.501s-108.5 -214.834 -204.5 -423.501z" />
    <glyph glyph-name="circumflex" unicode="&#x2c6;" 
d="M569 689l-42.001 28c60.667 37.333 104.334 68.666 131.001 93.999s53.334 60 80.001 104c37.333 11.333 73.666 23.333 108.999 36c8.66699 -69.333 29 -142 61 -218c-42 -18 -85.333 -33.333 -130 -46c-22.667 60.667 -38 111.334 -46 152.001
c-52 -58 -106.333 -108 -163 -150z" />
    <glyph glyph-name="caron" unicode="&#x2c7;" 
d="M906 949l41.999 -27.001c-60.667 -38 -104.5 -69.5 -131.5 -94.5s-53.5 -59.5 -79.5 -103.5c-37.333 -11.333 -73.666 -23.666 -108.999 -36.999c-8.66699 70 -29 142.667 -61 218c42 18.667 85.333 34 130 46c22 -60 37 -110.667 45 -152
c52 58.667 106.667 108.667 164 150z" />
    <glyph glyph-name="macron" unicode="&#x2c9;" 
d="M932 872l-32 -105h-399l33 105h398z" />
    <glyph glyph-name="breve" unicode="&#x2d8;" 
d="M901 944l28 -22c-105.333 -151.333 -201.333 -227 -288 -227c-38.667 0 -68.667 14 -90 42s-32 66.667 -32 116c0 13.333 1.33301 27 4 41l148 39c-4.66699 -33.333 -7 -56 -7 -68c0 -38 18 -57 54 -57c50 0 111 45.333 183 136z" />
    <glyph glyph-name="dotaccent" unicode="&#x2d9;" 
d="M730 914c26 0 47.501 -9 64.501 -27s25.5 -41 25.5 -69c0 -29.333 -10.333 -54 -31 -74s-46 -30 -76 -30c-26.667 0 -48.834 8.66699 -66.501 26s-26.5 39.333 -26.5 66c0 29.333 10.667 54.5 32 75.5s47.333 31.833 78 32.5z" />
    <glyph glyph-name="ring" unicode="&#x2da;" 
d="M699 918l-3 10c23.333 16 45 34.333 65 55c80 -15.333 120 -56 120 -122c0 -50.667 -21.833 -97.667 -65.5 -141s-90.834 -65 -141.501 -65c-34.667 0 -63.5 11 -86.5 33s-34.5 49.333 -34.5 82c0 40 13.333 78.667 40 116s62.334 67 107.001 89l8 -18
c-68 -38 -102 -81.333 -102 -130c0 -31.333 12.5 -58.833 37.5 -82.5s53.833 -35.5 86.5 -35.5c26.667 0 48.667 8.5 66 25.5s26 38.833 26 65.5c0 33.333 -12 61.333 -36 84s-53 34 -87 34z" />
    <glyph glyph-name="ogonek" unicode="&#x2db;" 
d="M705 -11l46.001 -10.998c-52.667 -17.333 -93.834 -40.166 -123.501 -68.499s-44.5 -58.5 -44.5 -90.5c0 -19.333 7 -34.833 21 -46.5s32.333 -17.5 55 -17.5c32 0 66.667 10.333 104 31l11 -18c-71.333 -48 -141.333 -72 -210 -72c-32 0 -58.5 8.16699 -79.5 24.5
s-31.5 37.166 -31.5 62.499c0 37.333 23 74.666 69 111.999s107 68.666 183 93.999z" />
    <glyph glyph-name="tilde" unicode="&#x2dc;" 
d="M925 913l17.998 -4.00098c-38 -67.333 -66.667 -111.666 -86 -132.999s-40.666 -32 -63.999 -32c-18 0 -40.667 2.33301 -68 7l-98 15c-17.333 2.66699 -31.666 4 -42.999 4c-24.667 0 -49.667 -15 -75 -45l-18 7c43.333 68 76 112.333 98 133s47.333 31 76 31
c16 0 36 -2.66699 60 -8l88 -20c9.33301 -2 21 -3 35 -3c24 0 49.667 16 77 48z" />
    <glyph glyph-name="hungarumlaut" unicode="&#x2dd;" 
d="M426 692l-4.99902 11.001c81.333 34.667 132.666 105.667 153.999 213c54.667 6 109 16 163 30l8 -9c-24 -53.333 -65.667 -102.833 -125 -148.5s-124.333 -77.834 -195 -96.501zM665.001 692.001l-4.99902 11.001c81.333 34.667 133 105.667 155 213c54 6 108 16 162 30
l9 -9c-24 -53.333 -65.833 -102.833 -125.5 -148.5s-124.834 -77.834 -195.501 -96.501z" />
    <glyph glyph-name="pi" unicode="&#x3c0;" horiz-adv-x="1149" 
d="M187 0v851h-148v129h1070v-129h-147v-851h-159v851h-457v-851h-159z" />
    <glyph glyph-name="endash" unicode="&#x2013;" horiz-adv-x="1092" 
d="M1059 570l6.00098 -20.999l-65 -95c-56.667 6.66699 -101 10 -133 10h-455l-132 1c-2.66699 0 -12.334 -0.333008 -29.001 -1l-5 25c22 30 43.667 61.333 65 94c30.667 -6.66699 81 -10.334 151 -11.001h455c52.667 0 100 -0.666992 142 -2z" />
    <glyph glyph-name="emdash" unicode="&#x2014;" horiz-adv-x="1406" 
d="M1373 570l6.00098 -20.999l-64 -95c-57.333 6.66699 -102 10 -134 10h-769l-132 1c-2.66699 0 -12.334 -0.333008 -29.001 -1l-5 25c22 30 43.667 61.333 65 94c30.667 -6.66699 81 -10.334 151 -11.001h769c52.667 0 100 -0.666992 142 -2z" />
    <glyph glyph-name="quoteleft" unicode="&#x2018;" horiz-adv-x="334" 
d="M565 1080l-161 -67c-14.667 29.333 -22 55.666 -22 78.999c0 42.667 23.5 85.667 70.5 129s121.5 91.333 223.5 144l26 -23c-120 -48 -180 -99 -180 -153c0 -25.333 14.333 -61.666 43 -108.999z" />
    <glyph glyph-name="quoteright" unicode="&#x2019;" horiz-adv-x="361" 
d="M465 1298l161 67.001c14.667 -30 22 -56.667 22 -80c0 -42 -23.5 -84.833 -70.5 -128.5s-121.5 -91.5 -223.5 -143.5l-26 23c120 48 180 99 180 153c0 25.333 -14.333 61.666 -43 108.999z" />
    <glyph glyph-name="quotesinglbase" unicode="&#x201a;" horiz-adv-x="498" 
d="M123 114l161 67.002c14.667 -30 22 -56.667 22 -80c0 -42 -23.5 -84.833 -70.5 -128.5s-121.5 -91.834 -223.5 -144.501l-26 24c120 48 180 99 180 153c0 25.333 -14.333 61.666 -43 108.999z" />
    <glyph glyph-name="quotedblleft" unicode="&#x201c;" horiz-adv-x="634" 
d="M832 1080l-162 -67c-14.667 30 -22 56.333 -22 79c0 42.667 23.5 85.667 70.5 129s121.833 91.333 224.5 144l25 -23c-120 -48 -180 -99 -180 -153c0 -26 14.667 -62.333 44 -109zM580 1080l-162 -66.999c-14.667 29.333 -22 55.666 -22 78.999
c0 42.667 23.5 85.667 70.5 129s121.5 91.333 223.5 144l26 -23c-120 -48 -180 -99 -180 -153c0 -26 14.667 -62.333 44 -109z" />
    <glyph glyph-name="quotedblright" unicode="&#x201d;" horiz-adv-x="654" 
d="M489 1298l161 67.001c14.667 -30 22 -56.667 22 -80c0 -42 -23.5 -84.833 -70.5 -128.5s-121.5 -91.5 -223.5 -143.5l-26 23c120 48 180 99 180 153c0 25.333 -14.333 61.666 -43 108.999zM741 1298l161 67c15.333 -30 23 -56.667 23 -80c0 -42 -23.5 -84.667 -70.5 -128
s-121.833 -91.333 -224.5 -144l-26 23c120.667 48 181 99 181 153c0 26 -14.667 62.333 -44 109z" />
    <glyph glyph-name="quotedblbase" unicode="&#x201e;" horiz-adv-x="586" 
d="M79 137l161 68.002c14.667 -30.667 22 -57.334 22 -80.001c0 -42 -23.5 -84.833 -70.5 -128.5s-121.5 -91.834 -223.5 -144.501l-26 24c120 48 180 99 180 153c0 25.333 -14.333 61.333 -43 108zM331 138.002l161 67.002c15.333 -30 23 -56.667 23 -80
c0 -42 -23.5 -84.833 -70.5 -128.5s-121.833 -91.834 -224.5 -144.501l-26 24c120.667 48 181 99 181 153c0 25.333 -14.667 61.666 -44 108.999z" />
    <glyph glyph-name="dagger" unicode="&#x2020;" horiz-adv-x="1092" 
d="M807 769l-406.001 -1078c-65.333 -36 -129.666 -75 -192.999 -117l452 1196l-311 3c-44.667 0.666992 -86 -5 -124 -17l10 27l27 70l21 57l428 -7l167 443c57.333 24 117.666 53 180.999 87l-202 -532l271 -4h10h7c38.667 0 65.667 1.5 81 4.5s37 11.5 65 25.5
c-21.333 -53.333 -40.666 -107.333 -57.999 -162z" />
    </font>
</defs>
</svg>
