<?xml version="1.0" standalone="no"?>
<!DOCTYPE svg PUBLIC "-//W3C//DTD SVG 1.1//EN" "http://www.w3.org/Graphics/SVG/1.1/DTD/svg11.dtd" >
<svg>
<metadata>
Created by FontForge 20090914 at Mon Oct 29 21:11:53 2012
 By www-data
Copyright 1990-1993 Bitstream Inc.  All rights reserved.
</metadata>
<defs>
<font id="Ribbon131BT-Regular" horiz-adv-x="1024" >
  <font-face 
    font-family="Ribbon131 BT"
    font-weight="400"
    font-style="italic"
    font-stretch="normal"
    units-per-em="2048"
    panose-1="3 3 5 2 4 5 6 7 6 2"
    ascent="1638"
    descent="-410"
    x-height="440"
    cap-height="1473"
    bbox="-647 -499.999 2210 1884"
    underline-thickness="51"
    underline-position="-208"
    slope="-15.5"
    unicode-range="U+0020-U+F002"
  />
<missing-glyph horiz-adv-x="1229" 
d="M102 -362v1806h1024v-1806h-1024zM217 -248h795v1577h-795v-1577z" />
    <glyph glyph-name=".notdef" horiz-adv-x="1229" 
d="M102 -362v1806h1024v-1806h-1024zM217 -248h795v1577h-795v-1577z" />
    <glyph glyph-name="space" unicode=" " horiz-adv-x="371" 
 />
    <glyph glyph-name="exclam" unicode="!" horiz-adv-x="371" 
d="M-12 328h-27l151.5 523.5l139.5 522.5l119 51c-52.667 -132 -109.5 -285.167 -170.5 -459.5zM-152 57c0 16.667 5.99902 30.5 17.999 41.5s26.667 16.5 44 16.5c16.667 0 30.334 -5.66699 41.001 -17s16 -25.666 16 -42.999c0 -16.667 -5 -30 -15 -40
s-23.333 -15 -40 -15c-18 0 -33.167 5.66699 -45.5 17s-18.5 24.666 -18.5 39.999z" />
    <glyph glyph-name="quotedbl" unicode="&#x22;" horiz-adv-x="666" 
d="M508 870h-29l-57 453c-1.33301 8 -2.33301 15.833 -3 23.5s-1 14.834 -1 21.501c0 31.333 6.33301 54.833 19 70.5s31.667 23.5 57 23.5c24.667 0 43.667 -8.16699 57 -24.5s20 -39.5 20 -69.5c0 -4.66699 -0.166992 -9.83398 -0.5 -15.501s-1.5 -15.5 -3.5 -29.5z
M186 870l-27.999 -0.000976562l-60 453c-1.33301 8 -2.33301 15.833 -3 23.5s-1 14.834 -1 21.501c0 30.667 6.66699 54 20 70s32.666 24 57.999 24c24.667 0 43.5 -8 56.5 -24s19.5 -39.333 19.5 -70c0 -4 -0.333008 -9.16699 -1 -15.5l-3 -28.5z" />
    <glyph glyph-name="numbersign" unicode="#" horiz-adv-x="1575" 
d="M700 877l-108 -304h301l106 304h-299zM809 1454h94l-174 -498h299l176 498h96l-176 -498h322l-27 -79h-323l-107 -304h348l-28 -79h-348l-175 -494h-96l174 494h-301l-174 -494h-94l174 494h-340l31 79h338l106 304h-368l28 79h369z" />
    <glyph glyph-name="dollar" unicode="$" horiz-adv-x="739" 
d="M176 483l97.999 342c-78 -5.33301 -142.833 -28.5 -194.5 -69.5s-77.5 -88.167 -77.5 -141.5c0 -32 10.333 -56.833 31 -74.5s68.334 -36.5 143.001 -56.5zM85.999 39c79.333 8.66699 140.833 31.5 184.5 68.5s65.5 84.5 65.5 142.5c0 34 -12.333 62.333 -37 85
s-63 40.667 -115 54zM73.999 0l-51.001 -182.001h-35l51 182h-16c-42 0 -87.5 7 -136.5 21s-101.167 35 -156.5 63l47 59c40 -30 82.833 -53.5 128.5 -70.5s94.167 -28.167 145.5 -33.5l103 360c-66 14.667 -114.667 37 -146 67s-47 68.667 -47 116
c0 69.333 31.333 132.333 94 189s140.667 90.334 234 101.001l43 156h35l-45 -156c38.667 0 75.834 -3.33301 111.501 -10s70.167 -17 103.5 -31l-31 -67c-32.667 18.667 -65 33 -97 43s-65.333 16 -100 18l-100 -352c58 -13.333 102.167 -35.833 132.5 -67.5
s45.5 -71.167 45.5 -118.5c0 -74 -28.333 -137.167 -85 -189.5s-132.667 -84.833 -228 -97.5z" />
    <glyph glyph-name="percent" unicode="%" horiz-adv-x="1208" 
d="M817 489c-21.333 0 -41.667 -6 -61 -18s-37.333 -29.667 -54 -53c-30 -43.333 -54.5 -93.5 -73.5 -150.5s-28.5 -109.167 -28.5 -156.5c0 -32.667 7.5 -59 22.5 -79s34.167 -30 57.5 -30c21.333 0 42.333 7 63 21s40 34.333 58 61c28 40.667 51.333 90 70 148
s28 109 28 153c0 35.333 -6.83301 61.5 -20.5 78.5s-34.167 25.5 -61.5 25.5zM529.999 170c0 87.333 28.667 166.832 86 238.499s119 107.5 185 107.5c47.333 0 85.333 -17.667 114 -53s43 -81.666 43 -138.999c0 -90 -27.5 -170.333 -82.5 -241s-116.833 -106 -185.5 -106
c-48.667 0 -87.5 17.5 -116.5 52.5s-43.5 81.833 -43.5 140.5zM3.99902 464.999c0 -36.667 7.16602 -65 21.499 -85s34.5 -30 60.5 -30c21.333 0 43.833 8.5 67.5 25.5s44.167 39.167 61.5 66.5c22.667 36.667 42.334 84 59.001 142s25 107 25 147
c0 33.333 -7 59.5 -21 78.5s-33 28.5 -57 28.5c-50.667 0 -99.5 -40 -146.5 -120s-70.5 -164.333 -70.5 -253zM153.998 -186.001l-53.999 -1.99902l537 1032c-38 -18.667 -71.667 -32.167 -101 -40.5s-56.333 -12.5 -81 -12.5c-20 0 -41.833 1.66699 -65.5 5
s-48.5 8.33301 -74.5 15c14.667 -22.667 25.5 -46.167 32.5 -70.5s10.5 -49.833 10.5 -76.5c0 -86 -28.167 -163.833 -84.5 -233.5s-117.5 -104.5 -183.5 -104.5c-45.333 0 -83 18 -113 54s-45 82 -45 138c0 88 29.167 168 87.5 240s121.5 108 189.5 108
c14.667 0 46.834 -8.16699 96.501 -24.5s95.167 -24.5 136.5 -24.5s81.166 7.66699 119.499 23s79.166 39.666 122.499 72.999l39 -2z" />
    <glyph glyph-name="ampersand" unicode="&#x26;" horiz-adv-x="1485" 
d="M965 557c7.33301 -19.333 12.832 -38.166 16.499 -56.499s5.5 -36.5 5.5 -54.5c0 -42.667 -10.667 -85 -32 -127s-53.666 -84 -96.999 -126c-60 -59.333 -139.167 -107.333 -237.5 -144s-196.5 -55 -294.5 -55c-118 0 -212.333 26.167 -283 78.5s-106 121.833 -106 208.5
c0 44.667 10.5 88.5 31.5 131.5s51.167 82.167 90.5 117.5c34 31.333 75.333 60.666 124 87.999c6 3.33301 10 5.66602 12 6.99902l16 9c69.333 42.667 104 69.667 104 81c0 14 -22.667 28.667 -68 44c-20 6.66699 -36 12.334 -48 17.001c-38 14.667 -64.333 31.5 -79 50.5
s-22 44.5 -22 76.5c0 38.667 15.167 82.334 45.5 131.001s70.5 93.667 120.5 135c60 49.333 124 87.666 192 114.999s133 41 195 41c45.333 0 80.333 -9.83301 105 -29.5s37 -47.5 37 -83.5c0 -32.667 -16 -74 -48 -124s-75 -98.667 -129 -146l-55 45
c57.333 43.333 103.833 87 139.5 131s53.5 78.333 53.5 103s-8.5 43.667 -25.5 57s-41.5 20 -73.5 20c-35.333 0 -76.166 -8.33301 -122.499 -25s-94.833 -41 -145.5 -73c-62.667 -38 -114.167 -85.333 -154.5 -142s-60.5 -107.667 -60.5 -153c0 -54 43 -100 129 -138
c5.33301 -2 9.33301 -3.66699 12 -5c31.333 -13.333 52.166 -25 62.499 -35s15.5 -21.667 15.5 -35c0 -24 -33 -57 -99 -99c-18 -11.333 -31.333 -20 -40 -26c-91.333 -60 -153.5 -111.5 -186.5 -154.5s-49.5 -89.833 -49.5 -140.5c0 -69.333 30.333 -125.5 91 -168.5
s140.334 -64.5 239.001 -64.5c84 0 162.5 11 235.5 33s136.5 54 190.5 96c50 38 89.5 81.5 118.5 130.5s43.5 96.167 43.5 141.5c0 43.333 -11 75.666 -33 96.999s-55.333 32 -100 32c-56.667 0 -106.334 -16.167 -149.001 -48.5s-64 -69.166 -64 -110.499
c0 -22.667 6 -44 18 -64s31.333 -40.333 58 -61l-58 -31c-18.667 18.667 -32.167 38.167 -40.5 58.5s-12.5 43.833 -12.5 70.5c0 77.333 29.333 138.333 88 183s139.334 67 242.001 67c26 0 62.167 -1.66699 108.5 -5s79.833 -5 100.5 -5c67.333 0 121.333 15.333 162 46
s61 71.334 61 122.001c0 42.667 -16.333 76.167 -49 100.5s-78 36.5 -136 36.5h-14l33 61c62 -9.33301 109.833 -30.833 143.5 -64.5s50.5 -76.834 50.5 -129.501c0 -72.667 -26.833 -131.5 -80.5 -176.5s-124.167 -67.5 -211.5 -67.5c-14.667 0 -28.834 0.5 -42.501 1.5
s-28.167 2.5 -43.5 4.5z" />
    <glyph glyph-name="quotesingle" unicode="'" horiz-adv-x="342" 
d="M184 870h-28.001l-60 454c-0.666992 4 -1.16699 9 -1.5 15s-0.5 15.667 -0.5 29c0 31.333 6.33301 54.833 19 70.5s31.667 23.5 57 23.5c24.667 0 43.834 -8.16699 57.501 -24.5s20.5 -39.5 20.5 -69.5c0 -4 -0.333008 -9.16699 -1 -15.5l-3 -28.5z" />
    <glyph glyph-name="parenleft" unicode="(" horiz-adv-x="797" 
d="M662 1473h22c-175.333 -276 -306.833 -554.333 -394.5 -835s-131.5 -563 -131.5 -847c0 -37.333 0.666992 -75 2 -113s3.33301 -76 6 -114h-19c-12 67.333 -21 138 -27 212s-9 151.333 -9 232c0 164 16.833 316.833 50.5 458.5s91.167 294.167 172.5 457.5
c32.667 64.667 75.5 141.667 128.5 231s119.5 195.333 199.5 318z" />
    <glyph glyph-name="parenright" unicode=")" horiz-adv-x="797" 
d="M-164 -436l-22 -0.00195312c174 274 304.833 551.5 392.5 832.5s131.5 563.833 131.5 848.5c0 38 -0.666992 75.833 -2 113.5s-3.33301 75.834 -6 114.501h18c13.333 -72 23.166 -145 29.499 -219s9.5 -149.333 9.5 -226c0 -162.667 -17.167 -315.167 -51.5 -457.5
s-92.166 -295.5 -173.499 -459.5c-33.333 -66.667 -76.5 -144.667 -129.5 -234s-118.5 -193.666 -196.5 -312.999z" />
    <glyph glyph-name="asterisk" unicode="*" horiz-adv-x="592" 
d="M190 1065l-45 59l142 129l-176 56l47 51l145 -82l10 168l78 16l-59 -188l172 51l33 -70l-203 -8l108 -155l-55 -43l-82 182z" />
    <glyph glyph-name="plus" unicode="+" horiz-adv-x="1706" 
d="M813 1221h80v-570h559v-82h-559v-569h-80v569h-559v82h559v570z" />
    <glyph glyph-name="comma" unicode="," horiz-adv-x="371" 
d="M-229 -246l-27.001 6.00098c53.333 54.667 95 101.667 125 141s48.333 71.666 55 96.999c-4 -1.33301 -8.5 -2.33301 -13.5 -3s-12.167 -1 -21.5 -1c-17.333 0 -30.833 4 -40.5 12s-14.5 19.667 -14.5 35c0 18.667 6.33301 34.167 19 46.5s29 18.5 49 18.5
c16.667 0 30.334 -6.5 41.001 -19.5s16 -30.167 16 -51.5c0 -34 -16 -74.833 -48 -122.5s-78.667 -100.5 -140 -158.5z" />
    <glyph glyph-name="hyphen" unicode="-" horiz-adv-x="371" 
d="M-182 199l18 57h211l-16 -57h-213z" />
    <glyph glyph-name="period" unicode="." horiz-adv-x="371" 
d="M-166 57c0 15.333 6 28.8311 18 40.498s26 17.5 42 17.5s29.5 -5.66699 40.5 -17s16.5 -25.666 16.5 -42.999c0 -16.667 -5 -30 -15 -40s-23.333 -15 -40 -15c-18.667 0 -33.667 5.33301 -45 16s-17 24.334 -17 41.001z" />
    <glyph glyph-name="slash" unicode="/" horiz-adv-x="379" 
d="M-408 -469h-45l859 1939h45z" />
    <glyph glyph-name="zero" unicode="0" horiz-adv-x="739" 
d="M262 858c-35.333 0 -70.502 -11.834 -105.502 -35.501s-68.167 -58.167 -99.5 -103.5c-47.333 -68 -84.666 -147 -111.999 -237s-41 -178.333 -41 -265c0 -59.333 15.167 -107.666 45.5 -144.999s69.833 -56 118.5 -56c42.667 0 82.334 14.333 119.001 43
s74.667 75.334 114 140.001c35.333 58 64.333 125.667 87 203s34 146.666 34 207.999c0 84 -13.167 146.333 -39.5 187s-66.5 61 -120.5 61zM-168.002 321.999c0 64 13.501 132.501 40.501 205.501s63.5 138.833 109.5 197.5c40 51.333 83 90.5 129 117.5
s92.333 40.5 139 40.5c73.333 0 132 -29.5 176 -88.5s66 -138.167 66 -237.5c0 -65.333 -12.5 -133.5 -37.5 -204.5s-59.833 -136.5 -104.5 -196.5c-39.333 -52.667 -82.333 -92.834 -129 -120.501s-94.334 -41.5 -143.001 -41.5c-76 0 -136 29.167 -180 87.5
s-66 138.5 -66 240.5z" />
    <glyph glyph-name="one" unicode="1" horiz-adv-x="739" 
d="M90 0h-81.999l207 717l-115 -160l-22 18c58.667 73.333 106.167 136 142.5 188s59.166 89.667 68.499 113l41 3c-19.333 -84 -49 -199.333 -89 -346z" />
    <glyph glyph-name="two" unicode="2" horiz-adv-x="739" 
d="M-172 0v17.999c192 138.667 330.833 260 416.5 364s128.5 202.667 128.5 296c0 54 -13.833 96.833 -41.5 128.5s-65.167 47.5 -112.5 47.5c-59.333 0 -111.833 -22.5 -157.5 -67.5s-80.5 -109.167 -104.5 -192.5l-59 20c30.667 86 74.667 152.333 132 199
s122.333 70 195 70c69.333 0 126 -21.5 170 -64.5s66 -98.167 66 -165.5c0 -70.667 -32.833 -145.667 -98.5 -225s-199.5 -196.666 -401.5 -351.999h387l-24 -76h-496z" />
    <glyph glyph-name="three" unicode="3" horiz-adv-x="739" 
d="M-225 43l14 76.0049c50.667 -32 97.167 -55.667 139.5 -71s82.5 -23 120.5 -23c77.333 0 142.833 23.833 196.5 71.5s80.5 106.167 80.5 175.5c0 49.333 -14 87 -42 113s-68.667 39 -122 39c-10.667 0 -21.667 -0.833008 -33 -2.5s-24.333 -4.16699 -39 -7.5l-2 18
c95.333 41.333 169 88.166 221 140.499s78 105.166 78 158.499c0 38.667 -11.167 68.167 -33.5 88.5s-54.833 30.5 -97.5 30.5c-46.667 0 -95.167 -17.5 -145.5 -52.5s-92.5 -81.833 -126.5 -140.5l-43 35c52 63.333 105.5 110.333 160.5 141s112.5 46 172.5 46
c58 0 103.667 -13.333 137 -40s50 -63.334 50 -110.001c0 -48.667 -22.833 -95.834 -68.5 -141.501s-113.834 -89.167 -204.501 -130.5l2 -10c72 -2.66699 127.333 -18.834 166 -48.501s58 -71.167 58 -124.5c0 -74.667 -38.5 -140 -115.5 -196s-170.5 -84 -280.5 -84
c-37.333 0 -76.166 4 -116.499 12s-82.5 20.333 -126.5 37z" />
    <glyph glyph-name="four" unicode="4" horiz-adv-x="739" 
d="M188 -35l-79 -26l63 223h-375l473 712l62 3l-465 -660h323l158 541l80 20l-158 -561h129l-16 -55h-133z" />
    <glyph glyph-name="five" unicode="5" horiz-adv-x="739" 
d="M-260 27l18.002 59.001c41.333 -22 80.166 -38.5 116.499 -49.5s70.5 -16.5 102.5 -16.5c87.333 0 165.833 34.667 235.5 104s104.5 146.666 104.5 231.999c0 46 -11.667 80.833 -35 104.5s-58 35.5 -104 35.5c-31.333 0 -65 -7.66699 -101 -23
s-75.333 -38.666 -118 -69.999l143 465h330l-22 -67h-301l-99 -322c43.333 14.667 80.166 25.5 110.499 32.5s55.833 10.5 76.5 10.5c60 0 108 -17.667 144 -53s54 -82.333 54 -141c0 -90.667 -40.5 -169.334 -121.5 -236.001s-179.833 -100 -296.5 -100
c-34.667 0 -72 2.83301 -112 8.5s-81.667 14.5 -125 26.5z" />
    <glyph glyph-name="six" unicode="6" horiz-adv-x="739" 
d="M319 938l14.998 -18.001c-130 -130.667 -230.167 -258.334 -300.5 -383.001s-105.5 -236.667 -105.5 -336c0 -55.333 11.667 -98.5 35 -129.5s55.333 -46.5 96 -46.5c24 0 50.5 7.83301 79.5 23.5s57.167 37.834 84.5 66.501c40 40.667 71.167 86.667 93.5 138
s33.5 102.333 33.5 153c0 28.667 -10.833 54.167 -32.5 76.5s-46.167 33.5 -73.5 33.5c-32.667 0 -66.5 -14.667 -101.5 -44s-69.5 -72 -103.5 -128l-23 12c40.667 67.333 82.667 118.333 126 153s86 52 128 52c46 0 83.833 -17.167 113.5 -51.5s44.5 -78.5 44.5 -132.5
c0 -46 -12.333 -94.5 -37 -145.5s-58 -96.833 -100 -137.5c-33.333 -31.333 -68.166 -55.166 -104.499 -71.499s-72.5 -24.5 -108.5 -24.5c-63.333 0 -117.166 24.167 -161.499 72.5s-66.5 107.5 -66.5 177.5c0 92 38.833 195 116.5 309s195.167 241 352.5 381z" />
    <glyph glyph-name="seven" unicode="7" horiz-adv-x="739" 
d="M51 4l-66.999 -4l440 797h-289c-29.333 0 -57.833 -1.33301 -85.5 -4s-52.834 -6 -75.501 -10l46 85h472z" />
    <glyph glyph-name="eight" unicode="8" horiz-adv-x="739" 
d="M207 481c70 11.333 124.333 36.001 163 74.001s58 85.667 58 143c0 44 -18.167 82 -54.5 114s-78.833 48 -127.5 48c-56 0 -102.5 -16.5 -139.5 -49.5s-55.5 -73.833 -55.5 -122.5c0 -38 13 -74.333 39 -109s65 -67.334 117 -98.001zM106 449.001
c-64.667 -15.333 -115.5 -44.5 -152.5 -87.5s-55.5 -93.833 -55.5 -152.5c0 -54.667 18.667 -100.5 56 -137.5s83.333 -55.5 138 -55.5c60 0 112.5 19.667 157.5 59s67.5 85.333 67.5 138c0 44.667 -17.667 86.667 -53 126s-88 76 -158 110zM86 467.001
c-34 30 -59.5 61.001 -76.5 93.001s-25.5 65 -25.5 99c0 59.333 26.333 112.166 79 158.499s113.667 69.5 183 69.5c63.333 0 117.666 -19.667 162.999 -59s68 -85.333 68 -138c0 -57.333 -19.667 -105 -59 -143s-96.666 -64.667 -171.999 -80
c50 -33.333 87 -67.833 111 -103.5s36 -73.5 36 -113.5c0 -70 -29.5 -130.833 -88.5 -182.5s-129.833 -77.5 -212.5 -77.5c-71.333 0 -130.833 22 -178.5 66s-71.5 98.333 -71.5 163c0 55.333 21.167 104.5 63.5 147.5s102.5 76.5 180.5 100.5z" />
    <glyph glyph-name="nine" unicode="9" horiz-adv-x="739" 
d="M8 -57l-14.001 15.999c130.667 130.667 231.167 258.334 301.5 383.001s105.5 236.667 105.5 336c0 54.667 -12 97.667 -36 129s-57 47 -99 47c-25.333 0 -53 -8.33301 -83 -25s-58.333 -39.667 -85 -69c-37.333 -41.333 -66.833 -87 -88.5 -137
s-32.5 -97.333 -32.5 -142c0 -32.667 10.333 -60.167 31 -82.5s45.334 -33.5 74.001 -33.5c32.667 0 67.5 14.833 104.5 44.5s71.833 71.5 104.5 125.5l20 -13c-40.667 -66.667 -82.5 -117.5 -125.5 -152.5s-85.833 -52.5 -128.5 -52.5c-46 0 -83.667 17.167 -113 51.5
s-44 78.833 -44 133.5c0 46 12.333 94.833 37 146.5s58 97.5 100 137.5c33.333 31.333 68.5 55.333 105.5 72s74.167 25 111.5 25c65.333 0 118.833 -23.5 160.5 -70.5s62.5 -107.5 62.5 -181.5c0 -93.333 -38.333 -196.333 -115 -309s-194.667 -239 -354 -379z" />
    <glyph glyph-name="colon" unicode=":" horiz-adv-x="410" 
d="M-45 375c0 14.667 6.16699 27.833 18.5 39.5s26.5 17.5 42.5 17.5c16.667 0 30.5 -5.5 41.5 -16.5s16.5 -25.167 16.5 -42.5s-5 -31 -15 -41s-23.667 -15 -41 -15c-18 0 -33 5.5 -45 16.5s-18 24.833 -18 41.5zM-137 56.999c0 14.667 6.16699 27.999 18.5 39.999
s26.5 18 42.5 18c16.667 0 30.5 -5.66699 41.5 -17s16.5 -25.666 16.5 -42.999c0 -16.667 -5 -30 -15 -40s-23.667 -15 -41 -15c-18 0 -33 5.5 -45 16.5s-18 24.5 -18 40.5z" />
    <glyph glyph-name="semicolon" unicode=";" horiz-adv-x="410" 
d="M-205 -246l-23.999 5.99805c51.333 53.333 92 99.833 122 139.5s48.333 72.5 55 98.5c-10 -2 -17.167 -3.16699 -21.5 -3.5s-8.5 -0.5 -12.5 -0.5c-16.667 0 -29.334 3.83301 -38.001 11.5s-13 18.834 -13 33.501c0 20 6 36.167 18 48.5s27.667 18.5 47 18.5
c16.667 0 30.167 -6.16699 40.5 -18.5s15.5 -29.166 15.5 -50.499c0 -34.667 -16 -76 -48 -124s-79 -101 -141 -159zM-44.999 374.998c0 14.667 6.16699 27.833 18.5 39.5s26.5 17.5 42.5 17.5c16.667 0 30.5 -5.5 41.5 -16.5s16.5 -25.167 16.5 -42.5s-5 -31 -15 -41
s-23.667 -15 -41 -15c-18 0 -33 5.5 -45 16.5s-18 24.833 -18 41.5z" />
    <glyph glyph-name="less" unicode="&#x3c;" horiz-adv-x="1706" 
d="M1442 1124v-90l-1045 -424l1045 -424v-88l-1178 482v61z" />
    <glyph glyph-name="equal" unicode="=" horiz-adv-x="1706" 
d="M254 469h1198v-82h-1198v82zM254 831h1198v-79h-1198v79z" />
    <glyph glyph-name="greater" unicode="&#x3e;" horiz-adv-x="1706" 
d="M264 1124l1178 -483v-61l-1178 -482v88l1045 424l-1045 424v90z" />
    <glyph glyph-name="question" unicode="?" horiz-adv-x="494" 
d="M47 471l-20.002 0.00195312c20 88 48.333 169.167 85 243.5s83.334 145.5 140.001 213.5c20 24 50 57.667 90 101c104 113.333 156 200.333 156 261c0 30.667 -9.66699 55.5 -29 74.5s-44.666 28.5 -75.999 28.5c-50 0 -100.167 -25.667 -150.5 -77
s-99.833 -126.666 -148.5 -225.999l-47 61c48.667 91.333 100.167 159.166 154.5 203.499s112.833 66.5 175.5 66.5c48.667 0 88.5 -14.667 119.5 -44s46.5 -67 46.5 -113c0 -99.333 -89 -240.333 -267 -423l-40 -42c-42.667 -44.667 -79.167 -93.334 -109.5 -146.001
s-56.833 -113.334 -79.5 -182.001zM-74.002 0.00195312c-18 0 -32.668 5.16699 -44.001 15.5s-17 23.5 -17 39.5c0 17.333 5.5 31.333 16.5 42s25.833 16 44.5 16c16 0 29 -5.5 39 -16.5s15 -25.5 15 -43.5c0 -17.333 -4.66699 -30.5 -14 -39.5s-22.666 -13.5 -39.999 -13.5
z" />
    <glyph glyph-name="at" unicode="@" horiz-adv-x="2019" 
d="M1194 344c-39.333 -72 -85.4971 -126.169 -138.497 -162.502s-112.5 -54.5 -178.5 -54.5c-76.667 0 -139.334 30.667 -188.001 92s-73 141.333 -73 240c0 70.667 16.333 142 49 214s78 136.333 136 193c43.333 43.333 90.666 77.166 141.999 101.499
s101.666 36.5 150.999 36.5c55.333 0 101.833 -17.333 139.5 -52s64.167 -84.334 79.5 -149.001l57 184h121l-168 -604l-2 -6c-12 -45.333 -18 -79.666 -18 -102.999c0 -34.667 9.16699 -61.667 27.5 -81s43.833 -29 76.5 -29c32 0 68 9.66699 108 29
s77.667 45.666 113 78.999c64 60 114.167 133.833 150.5 221.5s54.5 179.167 54.5 274.5c0 194 -64.833 349.667 -194.5 467s-301.834 176 -516.501 176c-116.667 0 -225.667 -19.167 -327 -57.5s-191.666 -94.166 -270.999 -167.499
c-91.333 -85.333 -160.166 -185.333 -206.499 -300s-69.5 -242 -69.5 -382c0 -116.667 18.5 -217 55.5 -301s96.167 -161.333 177.5 -232c78.667 -68 168 -119.833 268 -155.5s206.667 -53.5 320 -53.5c115.333 0 225.666 17.833 330.999 53.5s202.666 87.5 291.999 155.5
l26 -30c-97.333 -72.667 -200.333 -127.5 -309 -164.5s-222 -55.5 -340 -55.5c-127.333 0 -241.5 15.167 -342.5 45.5s-191.5 76.833 -271.5 139.5c-100.667 76.667 -176.667 168.334 -228 275.001s-77 225.334 -77 356.001c0 135.333 28.333 261.5 85 378.5
s140 221.5 250 313.5c88 72.667 184.833 127.667 290.5 165s218.5 56 338.5 56c230 0 413.833 -62.167 551.5 -186.5s206.5 -290.166 206.5 -497.499c0 -104 -19.333 -202.5 -58 -295.5s-93 -171.167 -163 -234.5c-40 -36.667 -81.167 -64.334 -123.5 -83.001
s-85.166 -28 -128.499 -28c-64.667 0 -114 18.333 -148 55s-53 91.334 -57 164.001zM1090 970.998c-38.667 0 -73.502 -10.335 -104.502 -31.002s-62.5 -54.667 -94.5 -102c-49.333 -72.667 -88.333 -150.667 -117 -234s-43 -157.666 -43 -222.999
c0 -66.667 14.667 -119.167 44 -157.5s69.333 -57.5 120 -57.5c44.667 0 88.334 15.167 131.001 45.5s83.667 75.166 123 134.499c39.333 60.667 70.333 126.834 93 198.501s34 137.834 34 198.501c0 64 -18.167 118 -54.5 162s-80.166 66 -131.499 66z" />
    <glyph glyph-name="A" unicode="A" horiz-adv-x="1341" 
d="M911 403h-49c-57.333 0 -108 1.66699 -152 5s-84.667 8.66602 -122 15.999c36.667 -44.667 73.167 -97.167 109.5 -157.5s71.5 -127.166 105.5 -200.499zM537 471c41.333 -12 88.166 -21.168 140.499 -27.501s107.833 -9.5 166.5 -9.5c8.66699 0 26.334 1 53.001 3
c10 0.666992 17.667 1 23 1l227 674c20.667 60.667 36.334 110.834 47.001 150.501s16 68.167 16 85.5c0 9.33301 -1 16.333 -3 21s-5 7 -9 7c-24.667 0 -113.334 -112.667 -266.001 -338zM-647 46.999l75.998 51c68 -28 130.333 -49 187 -63s109 -21 157 -21
c137.333 0 272.333 49.333 405 148s272.667 254.334 420 467.001l135 194c298 430 466.667 645 506 645c18 0 31.667 -8 41 -24s14 -39.333 14 -70c0 -55.333 -12.167 -130.333 -36.5 -225s-68.166 -232.667 -131.499 -414l-102 -295h20c12.667 0 33.334 1.33301 62.001 4h6
l-2 -32c-12 -2 -24.167 -3.5 -36.5 -4.5s-24.833 -1.5 -37.5 -1.5h-26l-136 -406l-79 -4c-52.667 121.333 -101 216.666 -145 285.999s-89.333 123.333 -136 162c-119.333 -159.333 -243.333 -277 -372 -353s-269 -114 -421 -114c-54 0 -111.667 5.83301 -173 17.5
s-126.333 29.167 -195 52.5z" />
    <glyph glyph-name="B" unicode="B" horiz-adv-x="1118" 
d="M279 938c-126.667 -148 -227.333 -296 -302 -444s-112 -267.667 -112 -359c0 -16 1.16699 -26.5 3.5 -31.5s6.5 -7.5 12.5 -7.5c36 0 88.167 72.333 156.5 217s148.833 353 241.5 625zM412.001 1386l110.001 69.998l-88 -301c128.667 114.667 230.667 195.5 306 242.5
s138.666 70.5 189.999 70.5c48.667 0 88.5 -16 119.5 -48s46.5 -73.333 46.5 -124c0 -66 -24.167 -138.667 -72.5 -218s-111.5 -149.333 -189.5 -210c-64 -49.333 -128.5 -95 -193.5 -137s-97.5 -64.333 -97.5 -67c0 -7.33301 18 -19.666 54 -36.999l34 -17
c70 -36 119.5 -72.5 148.5 -109.5s43.5 -80.167 43.5 -129.5c0 -62.667 -23.167 -122.5 -69.5 -179.5s-109.833 -103.167 -190.5 -138.5c-44.667 -20 -101.5 -34.5 -170.5 -43.5s-163.5 -13.5 -283.5 -13.5c-18 0 -33.167 0.166992 -45.5 0.5s-24.5 0.833008 -36.5 1.5
c23.333 35.333 42.833 59.5 58.5 72.5s32.167 19.5 49.5 19.5c1.33301 0 31 -2 89 -6s115 -6 171 -6c114 0 202 20.5 264 61.5s93 98.833 93 173.5c0 63.333 -46 124.333 -138 183l-6 4c-13.333 8.66699 -32.333 20 -57 34c-58.667 33.333 -88 63 -88 89
c0 21.333 38 57 114 107c47.333 30.667 85 56.334 113 77.001c90.667 65.333 164.834 142.5 222.501 231.5s86.5 167.5 86.5 235.5c0 43.333 -10 75.666 -30 96.999s-50.667 32 -92 32c-42.667 0 -98.334 -22.667 -167.001 -68s-168 -125.666 -298 -240.999
c-92.667 -324.667 -192.5 -590.167 -299.5 -796.5s-193.5 -309.5 -259.5 -309.5c-14 0 -23.667 5.33301 -29 16s-8 32 -8 64c0 115.333 43 257.5 129 426.5s205.333 342.833 358 521.5z" />
    <glyph glyph-name="C" unicode="C" horiz-adv-x="1081" 
d="M801 186l2.00488 -31.999c-80.667 -54 -162.834 -94.5 -246.501 -121.5s-168.834 -40.5 -255.501 -40.5c-116 0 -208.5 35.333 -277.5 106s-103.5 165.667 -103.5 285c0 120.667 30.167 246 90.5 376s144.166 250.333 251.499 361c58.667 59.333 122 112.666 190 159.999
s140 87.666 216 120.999c52.667 22.667 101.5 39.834 146.5 51.501s84.833 17.5 119.5 17.5c54.667 0 97 -11.667 127 -35s45 -56.666 45 -99.999c0 -64 -40.5 -128.5 -121.5 -193.5s-198.833 -127.5 -353.5 -187.5l16 99c135.333 54 239.166 106.5 311.499 157.5
s108.5 96.833 108.5 137.5c0 30.667 -11.167 54.667 -33.5 72s-53.5 26 -93.5 26c-77.333 0 -169.833 -31.167 -277.5 -93.5s-214.5 -147.833 -320.5 -256.5c-99.333 -101.333 -178.833 -215.833 -238.5 -343.5s-89.5 -245.5 -89.5 -353.5c0 -112 31.167 -200 93.5 -264
s148.166 -96 257.499 -96c78.667 0 155.5 12.667 230.5 38s143.5 61.666 205.5 108.999z" />
    <glyph glyph-name="D" unicode="D" horiz-adv-x="1712" 
d="M1063 1161c-84.667 -282 -166.332 -501.499 -244.999 -658.499s-165.667 -277.5 -261 -361.5c77.333 -25.333 149.833 -44.166 217.5 -56.499s133.167 -18.5 196.5 -18.5c151.333 0 266.666 34.833 345.999 104.5s119 171.167 119 304.5
c0 111.333 -32.833 227.666 -98.5 348.999s-157.167 233.666 -274.5 336.999zM428.002 100.001c-51.333 18 -99.999 31.501 -145.999 40.501s-89.333 13.5 -130 13.5c-62 0 -109.333 -6.83301 -142 -20.5s-49 -32.834 -49 -57.501c0 -22 16.167 -40.167 48.5 -54.5
s74.833 -21.5 127.5 -21.5c52 0 102.167 8.33301 150.5 25s95.166 41.667 140.499 75zM492.003 78.002c-55.333 -36.667 -111.669 -64.332 -169.002 -82.999s-115 -28 -173 -28c-76 0 -136 10.5 -180 31.5s-66 48.833 -66 83.5c0 38 25.167 69.333 75.5 94
s116.5 37 198.5 37c44.667 0 92.167 -4 142.5 -12s110.833 -21.667 181.5 -41c83.333 79.333 165.5 203.833 246.5 373.5s166.833 397.5 257.5 683.5c-102 75.333 -204.167 132.666 -306.5 171.999s-201.166 59 -296.499 59c-65.333 0 -115.666 -12.167 -150.999 -36.5
s-53 -58.5 -53 -102.5c0 -47.333 19.5 -98.166 58.5 -152.499s100.5 -116.166 184.5 -185.499l-75 -37c-74 67.333 -129.5 130.666 -166.5 189.999s-55.5 114.666 -55.5 165.999c0 60 23.5 106.5 70.5 139.5s113.833 49.5 200.5 49.5c106.667 0 211.167 -16.167 313.5 -48.5
s202.5 -80.5 300.5 -144.5l45 135l88 31l-71 -213c133.333 -111.333 233.833 -225.5 301.5 -342.5s101.5 -235.5 101.5 -355.5c0 -166.667 -51 -300.167 -153 -400.5s-238 -150.5 -408 -150.5c-68 0 -138.167 7.16699 -210.5 21.5s-149.5 36.5 -231.5 66.5z" />
    <glyph glyph-name="E" unicode="E" horiz-adv-x="1042" 
d="M762 211l-23.0039 -106.998c-105.333 -36 -205.5 -63.333 -300.5 -82s-180.5 -28 -256.5 -28c-115.333 0 -205.833 25.167 -271.5 75.5s-98.5 119.166 -98.5 206.499c0 97.333 45.167 195.166 135.5 293.499s228.5 200.833 414.5 307.5
c-33.333 53.333 -56.666 94.5 -69.999 123.5s-20 51.833 -20 68.5c0 42 20 87 60 135s96 93.667 168 137c63.333 40 132.5 71.167 207.5 93.5s146.5 33.5 214.5 33.5c52 0 93.333 -10.833 124 -32.5s46 -50.834 46 -87.501c0 -26 -11.5 -62.333 -34.5 -109
s-61.5 -112.334 -115.5 -197.001l-49 70c38.667 56 68.167 104.5 88.5 145.5s30.5 72.5 30.5 94.5c0 24 -10.167 43.667 -30.5 59s-47.166 23 -80.499 23c-36 0 -75.667 -6 -119 -18s-86.333 -28.667 -129 -50c-99.333 -50.667 -175.666 -103.667 -228.999 -159
s-80 -110.333 -80 -165c0 -38.667 11 -79.5 33 -122.5s33 -66.833 33 -71.5c0 -32 -43 -75.667 -129 -131c-60.667 -38 -108.667 -71 -144 -99c-94.667 -73.333 -163.667 -140.666 -207 -201.999s-65 -122.333 -65 -183s23.333 -108.5 70 -143.5
s111.334 -52.5 194.001 -52.5c95.333 0 197.5 14.833 306.5 44.5s217.833 72.834 326.5 129.501z" />
    <glyph glyph-name="F" unicode="F" horiz-adv-x="1118" 
d="M471 1071l-51 -65c-117.333 21.333 -207.5 52.333 -270.5 93s-94.5 88 -94.5 142c0 71.333 63.167 128.166 189.5 170.499s298.833 63.5 517.5 63.5c89.333 0 176.833 -3.33301 262.5 -10s169.5 -16.334 251.5 -29.001l-64 -72
c-94.667 12.667 -191.167 22.334 -289.5 29.001s-198.833 10 -301.5 10c-170.667 0 -302.5 -13.833 -395.5 -41.5s-139.5 -66.5 -139.5 -116.5c0 -43.333 28.5 -78.166 85.5 -104.499s156.833 -49.5 299.5 -69.5zM-313 82l55 50.999c52 -40 107.333 -69.833 166 -89.5
s121.334 -29.5 188.001 -29.5c126.667 0 238.167 37.5 334.5 112.5s176.833 186.5 241.5 334.5h-215l16 47h219l125 350l144 432l106 43l-156.5 -473c-47 -138.667 -88.5 -256 -124.5 -352h181l-15 -47h-180c-61.333 -155.333 -150.166 -273.666 -266.499 -354.999
s-254.833 -122 -415.5 -122c-72.667 0 -142.334 8 -209.001 24s-131.334 40.667 -194.001 74z" />
    <glyph glyph-name="G" unicode="G" horiz-adv-x="1118" 
d="M-70 -456l-18.002 78.999c60 -20.667 113.167 -36 159.5 -46s86.833 -15 121.5 -15c105.333 0 191 39.167 257 117.5s121.333 207.833 166 388.5c-56.667 -25.333 -110.667 -44.333 -162 -57s-100.333 -19 -147 -19c-122.667 0 -220.5 36.333 -293.5 109
s-109.5 170.667 -109.5 294c0 106 25.833 215.667 77.5 329s126.167 223.666 223.5 330.999c113.333 126 240 226.333 380 301s268.667 112 386 112c56 0 99.667 -13.167 131 -39.5s47 -62.833 47 -109.5c0 -58.667 -30.5 -122.667 -91.5 -192s-151.5 -143.333 -271.5 -222
l-69 49c123.333 79.333 218 152.333 284 219s99 122.667 99 168c0 27.333 -14 50.333 -42 69s-63.333 28 -106 28c-66 0 -147 -23.667 -243 -71s-187.667 -109.666 -275 -186.999c-136.667 -122 -243.5 -254.667 -320.5 -398s-115.5 -279.666 -115.5 -408.999
c0 -103.333 31 -187.5 93 -252.5s141.667 -97.5 239 -97.5c49.333 0 99.833 10.167 151.5 30.5s104.834 50.833 159.501 91.5c12.667 90.667 37.334 165 74.001 223s74.667 87 114 87c6.66699 0 12.5 -2.66699 17.5 -8s7.5 -11 7.5 -17
c0 -6.66699 -6.16699 -18.167 -18.5 -34.5s-21.166 -30.166 -26.499 -41.499c-12.667 -26.667 -35.334 -89 -68.001 -187l-79 -233c-50.667 -142 -117 -245 -199 -309s-189.333 -96 -322 -96c-30.667 0 -63.5 1.16699 -98.5 3.5s-72.5 6.16602 -112.5 11.499z" />
    <glyph glyph-name="H" unicode="H" horiz-adv-x="1475" 
d="M1063 397h-33c-78 0 -150.833 3.66699 -218.5 11s-131.167 18 -190.5 32c84.667 -53.333 155.5 -109.333 212.5 -168s100.167 -120 129.5 -184zM-502 109l61.9971 57.001c62.667 -44.667 127.334 -78.334 194.001 -101.001s133.667 -34 201 -34c132 0 245.667 44 341 132
s169.333 216.667 222 386l262 850l111 37l-262 -829c-4.66699 -16.667 -16.667 -49.667 -36 -99l-9 -24c62 -17.333 127.667 -30.333 197 -39s142 -13 218 -13c8 0 20.833 0.333008 38.5 1s30.834 1 39.501 1l312 1008l114 39l-345 -1047c28 1.33301 54.5 3 79.5 5
s47.833 4.33301 68.5 7l-6 -36c-36 -3.33301 -66.667 -6 -92 -8s-45.666 -3.66699 -60.999 -5l-125 -397h-57c-36.667 88.667 -88.334 169 -155.001 241s-149 136.333 -247 193c-75.333 -152.667 -163 -264.167 -263 -334.5s-220.333 -105.5 -361 -105.5
c-84 0 -162.667 9.5 -236 28.5s-141.666 47.833 -204.999 86.5z" />
    <glyph glyph-name="I" unicode="I" horiz-adv-x="973" 
d="M588 524c75.333 190.667 133.333 357.002 174 499.002s61 249.667 61 323c0 32 -3.83301 55.667 -11.5 71s-19.5 23 -35.5 23c-14 0 -30 -7.33301 -48 -22s-36 -35.334 -54 -62.001c-61.333 -88.667 -108.833 -181.334 -142.5 -278.001s-50.5 -189 -50.5 -277
c0 -67.333 8.5 -123 25.5 -167s44.167 -80.667 81.5 -110zM-313 78.002l39.0029 60.9961c72.667 -36 138.167 -63 196.5 -81s110.166 -27 155.499 -27c106.667 0 198.167 34.833 274.5 104.5s149.833 186.834 220.5 351.501c-56 39.333 -98.333 88.666 -127 147.999
s-43 128.333 -43 207c0 70 13.167 141.833 39.5 215.5s65.166 147.834 116.499 222.501c50 72 92 122.167 126 150.5s67.667 42.5 101 42.5c28 0 50.167 -14.667 66.5 -44s24.5 -69.333 24.5 -120c0 -102.667 -18.667 -227 -56 -373s-89.666 -299 -156.999 -459
c19.333 -8 41.166 -15.167 65.499 -21.5s52.166 -12.166 83.499 -17.499l-6 -28c-22.667 2.66699 -46.667 6.83398 -72 12.501s-53.333 12.834 -84 21.501c-64.667 -150 -144.667 -261.833 -240 -335.5s-208.333 -110.5 -339 -110.5c-59.333 0 -120.833 6.66699 -184.5 20
s-130.5 33.333 -200.5 60z" />
    <glyph glyph-name="J" unicode="J" horiz-adv-x="872" 
d="M438 383c-126.667 -22 -238.835 -54.333 -336.502 -97s-184.167 -97 -259.5 -163c-79.333 -70 -138.666 -140 -177.999 -210s-59 -140.667 -59 -212c0 -48 11 -87.333 33 -118s49 -46 81 -46c27.333 0 66.333 15.833 117 47.5s103.334 73.834 158.001 126.501
c84 82 163.5 179.667 238.5 293s143.5 239.666 205.5 378.999zM460.999 651l-60.0029 -73c-15.333 49.333 -27 95.166 -35 137.499s-12 81.833 -12 118.5c0 85.333 11.833 168.833 35.5 250.5s57.834 156.5 102.501 224.5c33.333 52.667 67 92.667 101 120s66.333 41 97 41
c32 0 56.333 -15.167 73 -45.5s25 -73.833 25 -130.5c0 -115.333 -19 -244.666 -57 -387.999s-94 -296.666 -168 -459.999l109 -2l-27 -51h-108c-53.333 -115.333 -108.166 -219 -164.499 -311s-115.5 -174.667 -177.5 -248c-86.667 -101.333 -173.5 -182.333 -260.5 -243
s-158.167 -91 -213.5 -91c-41.333 0 -76.166 17.5 -104.499 52.5s-42.5 79.167 -42.5 132.5c0 80 21.667 160.833 65 242.5s106.333 159.834 189 234.501c84.667 76 179 137 283 183s219.333 77 346 93c84.667 192 150.834 368.333 198.501 529s71.5 286 71.5 376
c0 26 -5.16699 47.333 -15.5 64s-23.5 25 -39.5 25c-17.333 0 -37.833 -10.833 -61.5 -32.5s-46.834 -51.167 -69.501 -88.5c-38.667 -64 -67.5 -132.333 -86.5 -205s-28.5 -151.334 -28.5 -236.001c0 -34.667 2.83301 -70.334 8.5 -107.001s14.5 -74 26.5 -112z" />
    <glyph glyph-name="K" unicode="K" horiz-adv-x="1380" 
d="M1073 61l-67 -53.001c-138.667 162.667 -242.667 288 -312 376s-104 138.333 -104 151c0 16 100 135.667 300 359l507 572l108 7l-831 -877c-6 -6 -10.333 -11.167 -13 -15.5s-4 -8.16602 -4 -11.499c0 -10 39.5 -63.5 118.5 -160.5s178.167 -212.833 297.5 -347.5z
M-502 60.999l59.998 54c50 -24.667 98.333 -42.834 145 -54.501s92.334 -17.5 137.001 -17.5c128 0 237 35.333 327 106s171 184 243 340c54 118.667 107.333 256.334 160 413.001s102.334 325.667 149.001 507l104 66c-66.667 -254 -126 -458.5 -178 -613.5
s-103 -281.833 -153 -380.5c-80 -156 -179 -275.167 -297 -357.5s-248.667 -123.5 -392 -123.5c-42.667 0 -89.167 5.16699 -139.5 15.5s-105.5 25.5 -165.5 45.5z" />
    <glyph glyph-name="L" unicode="L" horiz-adv-x="1161" 
d="M342 160c-72 30 -140.499 52.499 -205.499 67.499s-126.167 22.5 -183.5 22.5c-68 0 -121.5 -11.167 -160.5 -33.5s-58.5 -52.166 -58.5 -89.499c0 -36.667 20.167 -66.334 60.5 -89.001s94.5 -34 162.5 -34c68.667 0 136.167 13.333 202.5 40
s127.166 65.334 182.499 116.001zM383.001 146.999c-61.333 -56 -129.332 -99.002 -203.999 -129.002s-152 -45 -232 -45c-70.667 0 -129 15.167 -175 45.5s-69 67.833 -69 112.5c0 50.667 26.167 91 78.5 121s123.166 45 212.499 45c58 0 120.333 -6.66699 187 -20
s138 -33.333 214 -60c44 74.667 94.167 206.334 150.5 395.001s105.166 331.334 146.499 428.001c54.667 126 119.334 229.167 194.001 309.5s140.334 120.5 197.001 120.5c36 0 65.167 -15.333 87.5 -46s33.5 -71 33.5 -121c0 -36 -7.83301 -83.833 -23.5 -143.5
s-40.5 -136.167 -74.5 -229.5l-92 -27c43.333 112.667 76.666 206.834 99.999 282.501s35 128.167 35 157.5c0 27.333 -6.33301 49.666 -19 66.999s-29 26 -49 26c-52.667 0 -105.334 -37.167 -158.001 -111.5s-105 -184.833 -157 -331.5
c-15.333 -42.667 -36.666 -107.667 -63.999 -195c-87.333 -280.667 -179.333 -479.667 -276 -597c104.667 -42.667 194 -74.5 268 -95.5s137.667 -32.833 191 -35.5l-72 -74c-61.333 11.333 -127.833 29.5 -199.5 54.5s-148.5 57.167 -230.5 96.5z" />
    <glyph glyph-name="M" unicode="M" horiz-adv-x="1569" 
d="M68 0l-86.0039 0.000976562c128.667 371.333 225 667 289 887s96 366.667 96 440c0 34 -4.16699 59.167 -12.5 75.5s-20.833 24.5 -37.5 24.5c-40.667 0 -86.5 -46.833 -137.5 -140.5s-98.5 -220.834 -142.5 -381.501l-64 70c46 146.667 101.667 264.167 167 352.5
s127.333 132.5 186 132.5c28.667 0 50.834 -15.167 66.501 -45.5s23.5 -73.833 23.5 -130.5c0 -96.667 -20.333 -222.667 -61 -378s-120 -400.666 -238 -735.999c217.333 454 384.333 769.833 501 947.5s212.334 266.5 287.001 266.5c27.333 0 48.5 -9.5 63.5 -28.5
s22.5 -46.167 22.5 -81.5c0 -42.667 -13 -105.334 -39 -188.001s-69.667 -198.334 -131 -347.001l-11 -28c-142.667 -349.333 -214 -538 -214 -566c0 -5.33301 1.5 -10 4.5 -14s6.83301 -6 11.5 -6c14.667 0 55 71 121 213c72.667 156.667 137.667 290.334 195 401.001
c112 218.667 202.667 372.667 272 462s130.666 134 183.999 134c34.667 0 60.167 -10.667 76.5 -32s24.5 -55 24.5 -101c0 -71.333 -42.333 -225.333 -127 -462l-101 -287c-50 -152 -90.667 -281 -122 -387s-51.333 -184 -60 -234l-63 72
c18.667 92 48.334 204.333 89.001 337s91.334 283 152.001 451l107 291c22 62.667 38.667 115.5 50 158.5s17 74.833 17 95.5c0 18 -5.5 32.667 -16.5 44s-25.167 17 -42.5 17c-45.333 0 -108 -59.833 -188 -179.5s-183.333 -308.834 -310 -567.501l-108 -228
c-99.333 -214 -167.666 -321 -204.999 -321c-11.333 0 -20.333 6.83301 -27 20.5s-10 32.834 -10 57.501c0 34 12.667 95.167 38 183.5s59 185.5 101 291.5l84 210c126 312 189 487 189 525c0 17.333 -4.33301 31 -13 41s-20.667 15 -36 15
c-60.667 0 -155.5 -106.333 -284.5 -319s-305.833 -555 -530.5 -1027z" />
    <glyph glyph-name="N" unicode="N" horiz-adv-x="1200" 
d="M94 0l-80.002 0.000976562c120.667 396 215 716.333 283 961s102 384.334 102 419.001c0 15.333 -2.16699 27.5 -6.5 36.5s-10.166 13.5 -17.499 13.5c-28 0 -74.333 -55.333 -139 -166s-131 -252 -199 -424l-60 61c84.667 178.667 161.834 317.5 231.501 416.5
s124.5 148.5 164.5 148.5c24.667 0 44.5 -9.66699 59.5 -29s22.5 -45.666 22.5 -78.999c0 -62 -28.833 -203.833 -86.5 -425.5s-134.834 -482.5 -231.501 -782.5c215.333 431.333 393.833 746.666 535.5 945.999s257.5 299 347.5 299c32.667 0 58.834 -11.833 78.501 -35.5
s29.5 -54.834 29.5 -93.501c0 -44 -11.833 -111.833 -35.5 -203.5s-64.834 -226.834 -123.501 -405.501l-61 -185c-104 -315.333 -170.333 -540.333 -199 -675l-76 62c20 110.667 84.333 321.334 193 632.001l83 238c58.667 172 100.334 301.333 125.001 388
s37 145.667 37 177c0 17.333 -7.33301 32.666 -22 45.999s-32 20 -52 20c-75.333 0 -188.333 -113.333 -339 -340s-338.667 -566.667 -564 -1020z" />
    <glyph glyph-name="O" unicode="O" horiz-adv-x="1341" 
d="M1124 989c0 136.667 -32.832 245.001 -98.499 325.001s-154.834 120 -267.501 120c-70 0 -138.833 -15.333 -206.5 -46s-131.5 -75.667 -191.5 -135c-102 -100 -183 -221.333 -243 -364s-90 -284.667 -90 -426c0 -130 36 -236.667 108 -320s164.333 -125 277 -125
c88 0 177.5 30.833 268.5 92.5s173.5 147.834 247.5 258.501c62.667 93.333 111 193.666 145 300.999s51 213.666 51 318.999zM-58.999 539.001c0 106.667 18.1699 212 54.5029 316s89.166 200.667 158.499 290c78 102.667 168.167 181.5 270.5 236.5
s209.166 82.5 320.499 82.5c145.333 0 262.333 -49.667 351 -149s133 -230.333 133 -393c0 -108.667 -22 -219.5 -66 -332.5s-105.333 -215.167 -184 -306.5c-82.667 -97.333 -171.167 -170.5 -265.5 -219.5s-192.833 -73.5 -295.5 -73.5
c-146.667 0 -262.834 49 -348.501 147s-128.5 232 -128.5 402z" />
    <glyph glyph-name="P" unicode="P" horiz-adv-x="1010" 
d="M-150 -203l-70.999 66c119.333 344 210.666 639.167 273.999 885.5s103 461.166 119 644.499l90 40c-0.666992 -46.667 -7.83398 -110.5 -21.501 -191.5s-45.5 -236.167 -95.5 -465.5c103.333 226 209.833 398.167 319.5 516.5s216.834 177.5 321.501 177.5
c69.333 0 124.666 -24.667 165.999 -74s62 -116 62 -200c0 -98.667 -25.167 -198 -75.5 -298s-123.5 -196 -219.5 -288c-84.667 -81.333 -176.667 -146.5 -276 -195.5s-208.666 -83.5 -327.999 -103.5l26 80h11c93.333 0 178.166 14.833 254.499 44.5
s146.833 75.5 211.5 137.5c50.667 48.667 95 101.334 133 158.001s71 119 99 187c24 59.333 42.333 115 55 167s19 98 19 138c0 64.667 -14.833 115.667 -44.5 153s-70.167 56 -121.5 56c-82 0 -176.167 -58.5 -282.5 -175.5s-203.5 -271.5 -291.5 -463.5
c-39.333 -86.667 -95.166 -246.5 -167.499 -479.5s-127.833 -405.167 -166.5 -516.5z" />
    <glyph glyph-name="Q" unicode="Q" horiz-adv-x="1270" 
d="M514 43c-46 71.333 -88.167 124.001 -126.5 158.001s-74.5 51 -108.5 51c-31.333 0 -57 -10.333 -77 -31s-30 -47.334 -30 -80.001c0 -36 18.667 -65.5 56 -88.5s86.333 -34.5 147 -34.5c18 0 38.333 2 61 6s48.667 10.333 78 19zM580 72.001
c66 35.333 125.668 77.998 179.001 127.998s100.666 107.667 141.999 173c58.667 91.333 104.334 192.833 137.001 304.5s49 220.5 49 326.5c0 132 -32.167 238 -96.5 318s-149.5 120 -255.5 120c-82 0 -166.5 -25.167 -253.5 -75.5s-166.167 -120.166 -237.5 -209.499
c-78.667 -98.667 -140.667 -212 -186 -340s-68 -253 -68 -375c0 -100.667 15.5 -183.167 46.5 -247.5s78.167 -112.166 141.5 -143.499c-14.667 19.333 -25.5 37.833 -32.5 55.5s-10.5 36.167 -10.5 55.5c0 42.667 15.5 79.167 46.5 109.5s68.833 45.5 113.5 45.5
c46 0 90.667 -18.167 134 -54.5s93.666 -99.833 150.999 -190.5zM838.001 -156.001l-36.9971 -54.999c-56 20.667 -105.833 49.5 -149.5 86.5s-81.834 83.167 -114.501 138.5c-31.333 -8.66699 -60.666 -15.167 -87.999 -19.5s-53.333 -6.5 -78 -6.5
c-146.667 0 -263.334 44.167 -350.001 132.5s-130 207.166 -130 356.499c0 130 30.167 262.5 90.5 397.5s142.833 255.167 247.5 360.5c78 78 160.5 137.833 247.5 179.5s172.5 62.5 256.5 62.5c128 0 234.5 -47.333 319.5 -142s127.5 -214.667 127.5 -360
c0 -203.333 -52.333 -388.666 -157 -555.999s-246.334 -292.666 -425.001 -375.999c31.333 -48.667 66.666 -89.334 105.999 -122.001s84 -58.334 134 -77.001z" />
    <glyph glyph-name="R" unicode="R" horiz-adv-x="1085" 
d="M-156 -10l-61 35.002c114.667 299.333 208 560.666 280 783.999s127.333 422.666 166 597.999l105 51c-26 -104 -66 -243.833 -120 -419.5s-120 -379.834 -198 -612.501c179.333 354.667 342.833 616.667 490.5 786s286.167 254 415.5 254
c52.667 0 97.167 -22.5 133.5 -67.5s54.5 -101.5 54.5 -169.5c0 -70 -21 -143.167 -63 -219.5s-101 -147.166 -177 -212.499c-63.333 -56 -140.666 -105 -231.999 -147s-228.333 -88.667 -411 -140c25.333 -48.667 71 -106.5 137 -173.5s173.333 -162.167 322 -285.5
l-61 -51c-136 102.667 -247.5 202 -334.5 298s-130.5 163.333 -130.5 202c0 24 38.5 46.333 115.5 67s140.833 42.667 191.5 66c109.333 49.333 200.166 102.833 272.499 160.5s135.833 126.167 190.5 205.5c34.667 50 61.667 101.167 81 153.5s29 99.5 29 141.5
c0 41.333 -12.833 75 -38.5 101s-59.167 39 -100.5 39c-134.667 0 -294 -125.333 -478 -376s-377 -606.667 -579 -1068z" />
    <glyph glyph-name="S" unicode="S" horiz-adv-x="1157" 
d="M-326 94l66 74.0039c76 -42.667 163.333 -75.5 262 -98.5s201.667 -34.5 309 -34.5c139.333 0 252 28.333 338 85s129 130 129 220c0 50.667 -17.5 99.667 -52.5 147s-114.5 117.666 -238.5 210.999c-109.333 84 -181 150 -215 198s-51 99 -51 153
c0 45.333 14 90.666 42 135.999s66.667 85.333 116 120c74 52 159.5 93.333 256.5 124s192.5 46 286.5 46c79.333 0 142.166 -14.333 188.499 -43s69.5 -67 69.5 -115c0 -49.333 -23.833 -101 -71.5 -155s-118.167 -109.667 -211.5 -167l-94 49
c130.667 81.333 215.167 141.166 253.5 179.499s57.5 76.166 57.5 113.499c0 31.333 -17.167 56.666 -51.5 75.999s-79.833 29 -136.5 29c-50 0 -104.167 -6.66699 -162.5 -20s-116.833 -32.666 -175.5 -57.999c-85.333 -36.667 -155.5 -83.667 -210.5 -141
s-82.5 -110 -82.5 -158c0 -20.667 4.83301 -41.834 14.5 -63.501s25.834 -47.5 48.501 -77.5c20 -26.667 67 -67 141 -121s129.667 -96.333 167 -127c61.333 -51.333 107.333 -103.166 138 -155.499s46 -105.833 46 -160.5c0 -110.667 -53.667 -199 -161 -265
s-253 -99 -437 -99c-80.667 0 -168.167 8 -262.5 24s-199.5 40.667 -315.5 74z" />
    <glyph glyph-name="T" unicode="T" horiz-adv-x="1120" 
d="M-170 82l60.998 57.002c54.667 -36.667 109.167 -64.167 163.5 -82.5s108.5 -27.5 162.5 -27.5c178.667 0 327.667 99.333 447 298s235.333 551 348 1057c-56 2.66699 -111.667 4.5 -167 5.5s-111 1.5 -167 1.5c-216.667 0 -370.5 -11 -461.5 -33
s-136.5 -58.333 -136.5 -109c0 -38 29.833 -68.833 89.5 -92.5s159.5 -43.834 299.5 -60.501l-66 -68c-119.333 24 -207.5 53.667 -264.5 89s-85.5 78 -85.5 128c0 79.333 72.833 136.666 218.5 171.999s384.834 53 717.501 53h131
c-41.333 -212.667 -88.166 -408.167 -140.499 -586.5s-105.833 -325.5 -160.5 -441.5c-70 -148 -159.833 -259.667 -269.5 -335s-237.5 -113 -383.5 -113c-46.667 0 -98.167 7.33301 -154.5 22s-116.833 36.667 -181.5 66z" />
    <glyph glyph-name="U" unicode="U" horiz-adv-x="1233" 
d="M63 999l-59.002 54.002c69.333 134.667 135.5 238.334 198.5 311.001s118.5 109 166.5 109c22.667 0 40.5 -9.5 53.5 -28.5s19.5 -45.167 19.5 -78.5c0 -62.667 -41 -223.334 -123 -482.001l-10 -32c-59.333 -188.667 -103.5 -337.5 -132.5 -446.5
s-43.5 -182.167 -43.5 -219.5c0 -46 10.167 -80.333 30.5 -103s51.166 -34 92.499 -34c119.333 0 251.833 119.5 397.5 358.5s290.167 576.167 433.5 1011.5l97 19c-89.333 -266.667 -165 -519 -227 -757s-112 -465.667 -150 -683l-82 49c26.667 142 57.834 286 93.501 432
s76.167 295.667 121.5 449c-131.333 -314 -255.666 -548.167 -372.999 -702.5s-230 -231.5 -338 -231.5c-56.667 0 -100.5 18 -131.5 54s-46.5 87 -46.5 153c0 46 11.833 116.167 35.5 210.5s61.834 224.166 114.501 389.499l97 296c55.333 164.667 83 257.667 83 279
c0 15.333 -3.33301 28.166 -10 38.499s-15 15.5 -25 15.5c-24 0 -59.833 -36.167 -107.5 -108.5s-106.167 -179.833 -175.5 -322.5z" />
    <glyph glyph-name="V" unicode="V" horiz-adv-x="1124" 
d="M66 1026l-49.9971 75.998c68 137.333 123.5 234.166 166.5 290.499s81.833 84.5 116.5 84.5c36 0 62.333 -20.667 79 -62s25 -106 25 -194c0 -128 -18 -307.5 -54 -538.5s-54 -396.5 -54 -496.5c0 -50 6.83301 -88 20.5 -114s33.5 -39 59.5 -39
c49.333 0 109.666 35 180.999 105s139.333 162.667 204 278c85.333 152.667 159.5 314.834 222.5 486.501s115.167 354.167 156.5 547.5l100 31c-53.333 -208.667 -117.333 -405.667 -192 -591s-155.334 -348.333 -242.001 -489
c-77.333 -125.333 -156.5 -224.166 -237.5 -296.499s-151.5 -108.5 -211.5 -108.5c-48 0 -82.833 20.833 -104.5 62.5s-32.5 110.834 -32.5 207.501c0 94 14 240.333 42 439l9 63l6 39c46.667 325.333 70 509 70 551c0 28 -4 49.333 -12 64s-19.667 22 -35 22
c-26.667 0 -55.834 -27.333 -87.501 -82s-80.167 -166.667 -145.5 -336z" />
    <glyph glyph-name="W" unicode="W" horiz-adv-x="1753" 
d="M70 1030l-60 57.0029c81.333 138 147.666 235.333 198.999 292s97.666 85 138.999 85c30 0 52.833 -16.833 68.5 -50.5s23.5 -82.834 23.5 -147.501c0 -84 -22.333 -274.333 -67 -571l-4 -31l-42 -261c-25.333 -153.333 -38 -246.666 -38 -279.999
c0 -17.333 2.5 -30.833 7.5 -40.5s11.167 -14.5 18.5 -14.5c20 0 71 58.333 153 175s161.667 253.334 239 410.001c50 102.667 102.833 223.834 158.5 363.501s111.167 290.167 166.5 451.5h70c-56.667 -276 -100.834 -524.333 -132.501 -745s-47.5 -382.334 -47.5 -485.001
c0 -61.333 7.5 -108.5 22.5 -141.5s36.167 -49.5 63.5 -49.5c46 0 107.667 41.333 185 124s154.666 191.667 231.999 327c72.667 126 137.334 269.167 194.001 429.5s102.667 330.5 138 510.5l96 37c-46 -186.667 -101.333 -363.334 -166 -530.001
s-134.667 -314.334 -210 -443.001c-92 -154.667 -183.333 -278 -274 -370s-164.667 -138 -222 -138c-46 0 -80.333 23.5 -103 70.5s-34 117.5 -34 211.5c0 98.667 9 217.667 27 357s48 318.666 90 537.999c-123.333 -332 -253.666 -610.5 -390.999 -835.5
s-236.666 -337.5 -297.999 -337.5c-17.333 0 -31.5 10.5 -42.5 31.5s-16.5 48.833 -16.5 83.5c0 42.667 5 104.167 15 184.5s31 218.166 63 413.499c30.667 191.333 52.334 336.5 65.001 435.5s19 171.5 19 217.5c0 26 -2.66699 44.5 -8 55.5s-14.333 16.5 -27 16.5
c-26.667 0 -60.167 -30 -100.5 -90s-96.833 -165.333 -169.5 -316z" />
    <glyph glyph-name="X" unicode="X" horiz-adv-x="1124" 
d="M461 723l-335.499 -417.999c-138.333 -170.667 -217.833 -272.334 -238.5 -305.001l-96 20l419.5 456.5c110.333 123.667 191.166 218.834 242.499 285.501l-35 151c-17.333 79.333 -41.333 164.166 -72 254.499s-68.334 186.5 -113.001 288.5l82 17
c42 -86.667 79.833 -182.834 113.5 -288.501s64.167 -223.5 91.5 -353.5l28 31c242 262.667 416.333 462.667 523 600l105 -14l-404.5 -404.5c-142.333 -146.333 -222.833 -228.5 -241.5 -246.5l91 -369c14.667 -60 33.834 -123.833 57.501 -191.5
s51.5 -138.167 83.5 -211.5l-88 -25c-32 71.333 -59.5 140.833 -82.5 208.5s-41.833 134.834 -56.5 201.501z" />
    <glyph glyph-name="Y" unicode="Y" horiz-adv-x="1190" 
d="M-119 -457l38.999 76c54.667 -17.333 103.167 -30.166 145.5 -38.499s80.5 -12.5 114.5 -12.5c97.333 0 176.833 27.833 238.5 83.5s134.5 176.5 218.5 362.5c56.667 126 115.334 278.5 176.001 457.5s125 389.833 193 632.5c-188.667 -360 -357.667 -634 -507 -822
s-273.333 -282 -372 -282c-41.333 0 -71.833 12.333 -91.5 37s-29.5 63.667 -29.5 117c0 40.667 13 110 39 208s63 216.333 111 355l78 224c91.333 260.667 137 412 137 454c0 9.33301 -1.83301 17 -5.5 23s-8.83398 9 -15.501 9c-26 0 -64 -35 -114 -105
s-113 -177 -189 -321l-51 72c80 133.333 149.5 231.5 208.5 294.5s110.167 94.5 153.5 94.5c18 0 34.167 -9 48.5 -27s21.5 -39 21.5 -63c0 -78 -75.667 -346 -227 -804l-23 -68c-32 -98 -56.667 -181.667 -74 -251s-26 -118.333 -26 -147c0 -22.667 5 -39.5 15 -50.5
s25.333 -16.5 46 -16.5c96.667 0 235 124.5 415 373.5s363.333 575.833 550 980.5l86 8c-94.667 -332 -180.5 -612.833 -257.5 -842.5s-142.833 -400.834 -197.5 -513.501c-97.333 -200.667 -194.166 -337.5 -290.499 -410.5s-220.5 -109.5 -372.5 -109.5
c-28 0 -57.667 1.83301 -89 5.5s-65.333 9.16699 -102 16.5z" />
    <glyph glyph-name="Z" unicode="Z" horiz-adv-x="1200" 
d="M483 1069l-45.001 -60.999c-127.333 26.667 -220.166 58 -278.499 94s-87.5 80.333 -87.5 133c0 73.333 56 131.333 168 174s267 64 465 64c164.667 0 302.334 -11.333 413.001 -34s166 -48.334 166 -77.001c0 -30.667 -42.833 -84.667 -128.5 -162
s-259.834 -216 -522.501 -416c-281.333 -213.333 -484.166 -373.166 -608.499 -479.499s-186.5 -173.166 -186.5 -200.499c0 -6 3.66699 -10.833 11 -14.5s17.333 -5.5 30 -5.5c5.33301 0 21 1 47 3c132.667 10 264.667 15 396 15c110.667 0 214.5 -2.33301 311.5 -7
s186.167 -11.667 267.5 -21l-51 -76c-48 6 -122.833 10.5 -224.5 13.5s-230.167 4.5 -385.5 4.5c-126.667 0 -261.667 -5.66699 -405 -17c-39.333 -3.33301 -64.333 -5 -75 -5c-14 0 -24.333 3.16699 -31 9.5s-10 16.166 -10 29.499c0 32.667 67.167 109 201.5 229
s323.166 272.333 566.499 457c278.667 210.667 466.5 357 563.5 439s145.5 133.667 145.5 155c0 24 -50.833 44.667 -152.5 62s-232.5 26 -392.5 26c-173.333 0 -308.5 -14.333 -405.5 -43s-145.5 -68.334 -145.5 -119.001c0 -38.667 23.833 -69.667 71.5 -93
s151.5 -49 311.5 -77z" />
    <glyph glyph-name="bracketleft" unicode="[" horiz-adv-x="797" 
d="M109 -446h-199l532 1914h193v-22h-127l-516 -1868h117v-24z" />
    <glyph glyph-name="backslash" unicode="\" horiz-adv-x="379" 
d="M-18 1470l133 -1939h-45l-136 1939h48z" />
    <glyph glyph-name="bracketright" unicode="]" horiz-adv-x="797" 
d="M344 1468h199l-533 -1914h-192v24h125l518 1868h-117v22z" />
    <glyph glyph-name="asciicircum" unicode="^" horiz-adv-x="2048" 
d="M946 1462h152l534 -565h-84l-526 465l-530 -465h-80z" />
    <glyph glyph-name="underscore" unicode="_" 
d="M0 -403h1024v-80h-1024v80z" />
    <glyph glyph-name="grave" unicode="`" 
d="M412 547c-10 0 -25.332 6.83301 -45.999 20.5s-42.334 31.5 -65.001 53.5c-28.667 27.333 -50.167 52.166 -64.5 74.499s-21.5 41.833 -21.5 58.5c0 12 3.33301 21.5 10 28.5s15.667 10.5 27 10.5c20 0 34.333 -19.333 43 -58c5.33301 -24 10.666 -42.333 15.999 -55
c17.333 -37.333 39.5 -67.333 66.5 -90s40.5 -35 40.5 -37c0 -1.33301 -0.666992 -2.66602 -2 -3.99902s-2.66602 -2 -3.99902 -2z" />
    <glyph glyph-name="a" unicode="a" horiz-adv-x="602" 
d="M340 158l4.00293 -26.998c-35.333 -40.667 -70.5 -73 -105.5 -97s-63.833 -36 -86.5 -36c-19.333 0 -34.166 5.5 -44.499 16.5s-15.5 26.5 -15.5 46.5s3.66699 44.667 11 74s20 68.333 38 117c-53.333 -79.333 -104.333 -141.5 -153 -186.5s-88.334 -67.5 -119.001 -67.5
c-28.667 0 -51.834 9.83301 -69.501 29.5s-26.5 45.167 -26.5 76.5c0 28 9.83301 61.667 29.5 101s47.167 79.666 82.5 120.999c36.667 42 73.5 73.667 110.5 95s74.833 32 113.5 32c13.333 0 36 -2.66699 68 -8c2 0 3.66699 -0.333008 5 -1l-20 -41
c-18 8 -32.667 13.5 -44 16.5s-22 4.5 -32 4.5c-20.667 0 -41 -5.16699 -61 -15.5s-38.667 -24.833 -56 -43.5c-35.333 -41.333 -63.5 -84.5 -84.5 -129.5s-31.5 -83.833 -31.5 -116.5c0 -21.333 4.16699 -37 12.5 -47s21.833 -15 40.5 -15c38 0 84.333 33.667 139 101
s112 161.333 172 282l66 4l-107 -313c-2.66699 -9.33301 -4.66699 -17.333 -6 -24s-2 -12.334 -2 -17.001c0 -9.33301 2.66699 -17.5 8 -24.5s11.666 -10.5 18.999 -10.5c15.333 0 35.666 9 60.999 27s53.333 43.333 84 76z" />
    <glyph glyph-name="b" unicode="b" horiz-adv-x="530" 
d="M115 412c-22 0 -44.666 -7.99902 -67.999 -23.999s-49.333 -41.667 -78 -77c-34 -41.333 -61.167 -84.333 -81.5 -129s-30.5 -82 -30.5 -112c0 -17.333 3.66699 -29.5 11 -36.5s20 -10.5 38 -10.5c20 0 43.5 8.16699 70.5 24.5s53.833 38.833 80.5 67.5
c33.333 35.333 60.166 74.666 80.499 117.999s30.5 80.333 30.5 111c0 19.333 -5.16699 35.5 -15.5 48.5s-22.833 19.5 -37.5 19.5zM137.001 1262l96.002 20l-315 -997c41.333 56 80.166 97.667 116.499 125s71.166 41 104.499 41c34 0 60 -10.333 78 -31s27 -50.667 27 -90
c0 -41.333 -11 -82.5 -33 -123.5s-53.333 -78.5 -94 -112.5c-35.333 -29.333 -75.166 -53 -119.499 -71s-84.5 -27 -120.5 -27c-29.333 0 -50 5.5 -62 16.5s-18 30.167 -18 57.5c0 12 4.16699 34.333 12.5 67s28.166 101.667 59.499 207z" />
    <glyph glyph-name="c" unicode="c" horiz-adv-x="446" 
d="M125 154l0.00292969 -27.002c-49.333 -43.333 -95 -76.333 -137 -99s-78.333 -34 -109 -34c-34.667 0 -62.834 11.167 -84.501 33.5s-32.5 51.5 -32.5 87.5c0 30 9.83301 65.333 29.5 106s45.5 79 77.5 115c34 38 69.5 65.833 106.5 83.5s77.833 26.5 122.5 26.5
c31.333 0 52.166 -2.5 62.499 -7.5s15.5 -13.833 15.5 -26.5c0 -7.33301 -1.5 -14.166 -4.5 -20.499s-7.5 -13.166 -13.5 -20.499c-30 15.333 -54.333 26.333 -73 33s-34.667 10 -48 10c-18 0 -34.333 -4.16699 -49 -12.5s-30.334 -22.833 -47.001 -43.5
c-28 -34 -50.5 -72.333 -67.5 -115s-25.5 -81.334 -25.5 -116.001c0 -30 6.33301 -51.5 19 -64.5s33.667 -19.5 63 -19.5c23.333 0 52.333 9.83301 87 29.5s70.667 46.834 108 81.501z" />
    <glyph glyph-name="d" unicode="d" horiz-adv-x="602" 
d="M104 426c-56 0 -111.501 -32.5 -166.501 -97.5s-82.5 -132.833 -82.5 -203.5c0 -26.667 6 -48 18 -64s27.667 -24 47 -24c20 0 42.667 9.83301 68 29.5s50.333 47.5 75 83.5c30 40.667 54.333 81.5 73 122.5s28 70.833 28 89.5c0 20.667 -5.16699 36.5 -15.5 47.5
s-25.166 16.5 -44.499 16.5zM339.999 160l1.99902 -35c-36 -40.667 -69.167 -72 -99.5 -94s-55.833 -33 -76.5 -33c-18.667 0 -33.334 6.5 -44.001 19.5s-16 31.167 -16 54.5c0 14 2.33301 33.5 7 58.5s11.334 53.167 20.001 84.5
c-40.667 -71.333 -82 -125.666 -124 -162.999s-82.667 -56 -122 -56c-34.667 0 -62.667 11 -84 33s-32 51.333 -32 88c0 28.667 9 61.667 27 99s43 74.666 75 111.999c37.333 41.333 75 71.833 113 91.5s79 29.5 123 29.5c10.667 0 22.834 -1.5 36.501 -4.5
s28.5 -7.16699 44.5 -12.5l242 832l109 47l-301 -957c-23.333 -72.667 -39.833 -128.167 -49.5 -166.5s-14.5 -66.833 -14.5 -85.5c0 -16.667 2.33301 -29 7 -37s12 -12 22 -12c15.333 0 31.833 6.66699 49.5 20s46.167 42.333 85.5 87z" />
    <glyph glyph-name="e" unicode="e" horiz-adv-x="446" 
d="M-141 127c72 32 129.833 70.666 173.5 115.999s65.5 88 65.5 128c0 16.667 -3.5 29.334 -10.5 38.001s-17.167 13 -30.5 13c-34.667 0 -71 -27.667 -109 -83s-67.667 -126 -89 -212zM133 161.999l4.00293 -26.999c-48 -48 -92.833 -84.167 -134.5 -108.5
s-79.5 -36.5 -113.5 -36.5c-35.333 0 -62.833 9.83301 -82.5 29.5s-29.5 47.167 -29.5 82.5c0 31.333 8.66699 66.666 26 105.999s41.333 77.333 72 114c35.333 41.333 70.166 73.166 104.499 95.499s66.5 33.5 96.5 33.5c21.333 0 39 -8 53 -24s21 -35.333 21 -58
c0 -46.667 -26.5 -94.667 -79.5 -144s-123.5 -91 -211.5 -125v-8c0 -19.333 5.83301 -34.666 17.5 -45.999s27.5 -17 47.5 -17c23.333 0 53.166 11.5 89.499 34.5s76.166 55.833 119.499 98.5z" />
    <glyph glyph-name="f" unicode="f" horiz-adv-x="375" 
d="M-186 238c25.333 22 44.6709 40.666 58.0039 55.999s21.666 28.333 24.999 39c1.33301 4 4.66602 15.333 9.99902 34c42.667 155.333 92 320.333 148 495c54.667 167.333 111.5 303 170.5 407s107.5 156 145.5 156c18 0 32 -7.66699 42 -23s15 -37 15 -65
c0 -52 -10.833 -118.667 -32.5 -200s-51.834 -166.666 -90.501 -255.999c-43.333 -102 -91.333 -193.833 -144 -275.5s-110.334 -154.5 -173.001 -218.5l-35 -119c22 2 48.833 10.333 80.5 25s68.167 35.667 109.5 63l7 -24c-19.333 -18 -45.5 -35 -78.5 -51
s-75.833 -32.667 -128.5 -50l-113.5 -377c-36.333 -115.333 -68.833 -211.333 -97.5 -288l-109 -35c30 70 66.167 165.5 108.5 286.5s86.833 257.5 133.5 409.5zM4.00488 448.999c35.333 38.667 71.168 86.5 107.501 143.5s72.166 121.5 107.499 193.5
c52.667 110 95.167 217 127.5 321s48.5 179.333 48.5 226c0 18 -2 31.333 -6 40s-10 13 -18 13c-29.333 0 -75.333 -79.833 -138 -239.5s-139 -392.167 -229 -697.5z" />
    <glyph glyph-name="g" unicode="g" horiz-adv-x="602" 
d="M70 -39c-79.333 -64 -145.001 -131.166 -197.001 -201.499s-78 -121.833 -78 -154.5c0 -14.667 4.5 -26.834 13.5 -36.501s19.5 -14.5 31.5 -14.5c35.333 0 70.833 31.333 106.5 94s76.834 167 123.501 313zM130.999 211.001
c-49.333 -68 -95.9971 -120.167 -139.997 -156.5s-82.667 -54.5 -116 -54.5c-28.667 0 -51.834 10.333 -69.501 31s-26.5 48 -26.5 82c0 34.667 11.833 73.834 35.5 117.501s54.834 82.834 93.501 117.501c36.667 34 76 59.667 118 77s86 26 132 26
c13.333 0 28.666 -1.16699 45.999 -3.5s36.666 -5.5 57.999 -9.5l-16 -43c-22 8.66699 -41.333 15 -58 19s-31.667 6 -45 6c-34 0 -66 -7 -96 -21s-58 -35 -84 -63c-30.667 -32.667 -55.334 -69.667 -74.001 -111s-28 -78 -28 -110c0 -21.333 4 -37.333 12 -48
s20.333 -16 37 -16c35.333 0 77.5 27 126.5 81s100.167 130 153.5 228l54 -18l-76 -281c22 15.333 42.333 31.166 61 47.499s36 33.5 52 51.5l16 -23c-28 -24.667 -53.667 -46.334 -77 -65.001s-44.666 -35 -63.999 -49c-42 -164 -90.333 -287.667 -145 -371
s-115 -125 -181 -125c-21.333 0 -38 6.83301 -50 20.5s-18 32.834 -18 57.501c0 47.333 27.667 105.166 83 173.499s133.666 141.5 234.999 219.5z" />
    <glyph glyph-name="h" unicode="h" horiz-adv-x="592" 
d="M-176 0l-66 -0.00292969l363 1249l94 25l-350 -1161c74.667 122 135.167 208.833 181.5 260.5s86.166 77.5 119.499 77.5c22.667 0 40 -6.66699 52 -20s18 -32.666 18 -57.999c0 -42 -15.167 -96.833 -45.5 -164.5s-45.5 -111.167 -45.5 -130.5c0 -10 2.66699 -18 8 -24
s12.333 -9 21 -9c12 0 30.167 10.5 54.5 31.5s51.166 49.5 80.499 85.5l17 -19c-47.333 -55.333 -85.333 -94 -114 -116s-54.334 -33 -77.001 -33c-20.667 0 -37 6.33301 -49 19s-18 29.334 -18 50.001c0 15.333 9.33301 45.333 28 90l25 60
c14.667 38.667 26.834 74.334 36.501 107.001s14.5 53 14.5 61c0 10 -3.16699 18.667 -9.5 26s-14.166 11 -23.499 11c-22 0 -62.667 -38.667 -122 -116s-123.666 -178 -192.999 -302z" />
    <glyph glyph-name="i" unicode="i" horiz-adv-x="342" 
d="M-102 430l94.001 19c-32.667 -94.667 -58.334 -174.334 -77.001 -239.001s-28 -106.667 -28 -126c0 -6 3 -11.667 9 -17s12.667 -8 20 -8c8.66699 0 23.167 8.83301 43.5 26.5s48.166 45.834 83.499 84.501l14 -20c-47.333 -54.667 -87.5 -94.667 -120.5 -120
s-60.167 -38 -81.5 -38c-16 0 -28.333 6 -37 18s-13 29 -13 51c0 16.667 11.833 66.667 35.5 150s42.834 156.333 57.501 219zM-24.999 662c0 14.667 4.66797 26.832 14.001 36.499s21.333 14.5 36 14.5c13.333 0 24.166 -4.33301 32.499 -13s12.5 -20 12.5 -34
c0 -16 -4.66699 -28.667 -14 -38s-22 -14 -38 -14c-14.667 0 -25.5 3.83301 -32.5 11.5s-10.5 19.834 -10.5 36.501z" />
    <glyph glyph-name="j" unicode="j" horiz-adv-x="295" 
d="M-143 52l28 26.0029c37.333 36 66 62.667 86 80l13 -23c-28.667 -23.333 -55 -46.333 -79 -69s-45.667 -45.334 -65 -68.001c-69.333 -206.667 -115.833 -336.167 -139.5 -388.5s-43.167 -78.5 -58.5 -78.5c-10 0 -17.333 3.66699 -22 11s-7 18.666 -7 33.999
c0 35.333 11.667 84.666 35 147.999s54 125.333 92 186l162 508l84 31zM-33 662.003c0 14.667 4.83301 26.833 14.5 36.5s21.834 14.5 36.501 14.5c14 0 25 -4.33301 33 -13s12 -20 12 -34c0 -16 -4.5 -28.667 -13.5 -38s-21.5 -14 -37.5 -14
c-14.667 0 -25.834 4 -33.501 12s-11.5 20 -11.5 36z" />
    <glyph glyph-name="k" unicode="k" horiz-adv-x="559" 
d="M-170 4l-68 -3.99902l369 1249l102 45l-354 -1153c65.333 103.333 123.833 179.666 175.5 228.999s99.167 74 142.5 74c27.333 0 47.833 -7 61.5 -21s20.5 -35.667 20.5 -65c0 -30 -9 -58.5 -27 -85.5s-43.333 -50.167 -76 -69.5c-10 -6 -23.667 -13 -41 -21
c-32.667 -15.333 -49 -30.333 -49 -45c0 -6 15.667 -21.667 47 -47l66 -55l-56 -51l-43 37c-62.667 54.667 -94 88.667 -94 102c0 8 18.667 25.667 56 53c8.66699 6 15 10.667 19 14c53.333 40.667 88 72 104 94s24 44.667 24 68c0 14.667 -4.66699 25.834 -14 33.501
s-22.333 11.5 -39 11.5c-36 0 -83.5 -35.333 -142.5 -106s-120.167 -166.334 -183.5 -287.001z" />
    <glyph glyph-name="l" unicode="l" horiz-adv-x="379" 
d="M-188 283l96.001 116c80.667 314 163.5 564.333 248.5 751s157.167 280 216.5 280c14.667 0 25.5 -7.66699 32.5 -23s10.5 -40 10.5 -74c0 -92 -36.167 -214 -108.5 -366s-173.5 -316 -303.5 -492c-30 -111.333 -53.167 -202 -69.5 -272s-24.5 -113 -24.5 -129
c0 -7.33301 3.16699 -13.333 9.5 -18s14.833 -7 25.5 -7c13.333 0 31.833 9.33301 55.5 28s52.834 47 87.501 85l10 -29c-42 -46 -79.833 -81 -113.5 -105s-61.834 -36 -84.501 -36c-20 0 -35.667 5.83301 -47 17.5s-17 27.5 -17 47.5c0 22 5.16699 57.667 15.5 107
s25.166 107.333 44.499 174l-76 -84zM23.001 543c113.333 168 202.334 322.667 267.001 464s97 250 97 326c0 18 -1.33301 30.667 -4 38s-6.66699 11 -12 11c-36 0 -85.833 -76.167 -149.5 -228.5s-129.834 -355.833 -198.501 -610.5z" />
    <glyph glyph-name="m" unicode="m" horiz-adv-x="858" 
d="M-160 0h-72.998l102 414l84 24l-88 -336c83.333 141.333 144.5 234.5 183.5 279.5s74.167 67.5 105.5 67.5c21.333 0 37.833 -7.33301 49.5 -22s17.5 -34.667 17.5 -60c0 -24.667 -4.83301 -56.5 -14.5 -95.5s-23.834 -84.5 -42.501 -136.5
c68 119.333 121.167 201.5 159.5 246.5s72.5 67.5 102.5 67.5c20 0 36.667 -9.5 50 -28.5s20 -42.5 20 -70.5c0 -40.667 -11.333 -92.5 -34 -155.5s-34 -103.167 -34 -120.5c0 -8.66699 2.33301 -15.334 7 -20.001s11.334 -7 20.001 -7c10.667 0 27.5 9.16699 50.5 27.5
s51.167 45.5 84.5 81.5l16 -21c-46 -50 -86.5 -87.333 -121.5 -112s-64.833 -37 -89.5 -37c-16 0 -28.5 4.66699 -37.5 14s-13.5 22.333 -13.5 39s8.66699 49.667 26 99c3.33301 8.66699 5.66602 15.334 6.99902 20.001c22.667 70 38.167 120.5 46.5 151.5
s12.5 53.5 12.5 67.5c0 7.33301 -2.66699 13.5 -8 18.5s-12 7.5 -20 7.5c-24.667 0 -63 -35.833 -115 -107.5s-110 -170.167 -174 -295.5h-88c55.333 142 90.666 235.667 105.999 281s23 75.333 23 90c0 8.66699 -3 16.167 -9 22.5s-13.333 9.5 -22 9.5
c-23.333 0 -62 -37.167 -116 -111.5s-111.667 -171.5 -173 -291.5z" />
    <glyph glyph-name="n" unicode="n" horiz-adv-x="592" 
d="M-176 -4h-68.001c27.333 84 50.5 159.833 69.5 227.5s34.833 130.5 47.5 188.5l94 41c-4 -25.333 -22 -88 -54 -188c-21.333 -67.333 -38 -121.666 -50 -162.999c74.667 124 135.5 212.833 182.5 266.5s87.167 80.5 120.5 80.5c21.333 0 37.833 -7.16699 49.5 -21.5
s17.5 -33.833 17.5 -58.5c0 -35.333 -14.667 -87.833 -44 -157.5s-44 -116.834 -44 -141.501c0 -8 3 -14.833 9 -20.5s12.667 -8.5 20 -8.5c11.333 0 29.5 10.667 54.5 32s51.833 49.666 80.5 84.999l15 -21c-47.333 -55.333 -85 -93.666 -113 -114.999s-53.333 -32 -76 -32
c-20.667 0 -37 6 -49 18s-18 28.333 -18 49c0 16.667 10.333 50.667 31 102l20 50c15.333 39.333 28 75.333 38 108s15 52.667 15 60c0 10 -3.5 18.667 -10.5 26s-15.167 11 -24.5 11c-21.333 0 -61.166 -38.5 -119.499 -115.5s-122.833 -177.833 -193.5 -302.5z" />
    <glyph glyph-name="o" unicode="o" horiz-adv-x="483" 
d="M-221 143c0 80.667 28.001 152.167 84.001 214.5s119.333 93.5 190 93.5c45.333 0 80.666 -14.167 105.999 -42.5s38 -67.5 38 -117.5c0 -83.333 -27.667 -155 -83 -215s-122 -90 -200 -90c-40 0 -72.5 14.5 -97.5 43.5s-37.5 66.833 -37.5 113.5zM53.001 426
c-21.333 0 -41.332 -6.66602 -59.999 -19.999s-41 -38.666 -67 -75.999c-22.667 -34 -41.334 -73 -56.001 -117s-22 -83.667 -22 -119c0 -26.667 6.66699 -47.334 20 -62.001s32 -22 56 -22c48 0 93.833 36.667 137.5 110s65.5 149.333 65.5 228
c0 25.333 -6.33301 44.666 -19 57.999s-31 20 -55 20z" />
    <glyph glyph-name="p" unicode="p" horiz-adv-x="602" 
d="M-281 -451l-92.001 -16l269 907l88 21l-131 -430c62 156 117.5 266.333 166.5 331s100.5 97 154.5 97c36 0 65.5 -13.833 88.5 -41.5s34.5 -63.834 34.5 -108.501c0 -79.333 -27.667 -150.666 -83 -213.999s-119 -95 -191 -95c-16 0 -32.167 2.5 -48.5 7.5
s-33.166 12.833 -50.499 23.5l15 26c11.333 -9.33301 23 -16.333 35 -21s24 -7 36 -7c23.333 0 46.333 7 69 21s42 33.667 58 59c26.667 40 47.667 81.833 63 125.5s23 81.5 23 113.5c0 25.333 -5.33301 45.333 -16 60s-25 22 -43 22c-62 0 -132.167 -77.333 -210.5 -232
s-156.5 -371 -234.5 -649z" />
    <glyph glyph-name="q" unicode="q" horiz-adv-x="602" 
d="M135 33c-50 -136 -85 -234.834 -105 -296.501s-30 -102.167 -30 -121.5c0 -15.333 1.66699 -26.666 5 -33.999s8.33301 -11 15 -11c30 0 59.833 34 89.5 102s44.5 145.333 44.5 232c0 16.667 -1.66699 36 -5 58s-8 45.667 -14 71zM133 36.999
c42.667 16 78.668 34.1621 108.001 54.4951s53.333 43.833 72 70.5l21 -21c-26 -28 -51 -51.5 -75 -70.5s-48 -34.167 -72 -45.5c1.33301 -20 2.5 -38.667 3.5 -56s1.83301 -33 2.5 -47c0 -105.333 -22.5 -197.5 -67.5 -276.5s-93.5 -118.5 -145.5 -118.5
c-20.667 0 -35.834 4.83301 -45.501 14.5s-14.5 24.5 -14.5 44.5c0 42 18.333 117 55 225s88.667 241.333 156 400c-49.333 -68 -96 -120.167 -140 -156.5s-82.667 -54.5 -116 -54.5c-28.667 0 -51.834 10.333 -69.501 31s-26.5 48 -26.5 82
c0 34.667 11.833 73.834 35.5 117.501s54.834 82.834 93.501 117.501c36.667 34 76 59.667 118 77s86 26 132 26c13.333 0 28.666 -1.16699 45.999 -3.5s36.666 -5.5 57.999 -9.5l-16 -43c-22 8.66699 -41.333 15 -58 19s-31.667 6 -45 6c-33.333 0 -65 -7.16699 -95 -21.5
s-59 -35.833 -87 -64.5c-29.333 -31.333 -53.666 -68.666 -72.999 -111.999s-29 -79.666 -29 -108.999c0 -16 5.83301 -30.333 17.5 -43s24.834 -19 39.501 -19c31.333 0 72 27.833 122 83.5s100.667 130.834 152 225.501l54 -18z" />
    <glyph glyph-name="r" unicode="r" horiz-adv-x="418" 
d="M-154 0h-61l86 414l78 24l-60 -305c48 99.333 90.833 175 128.5 227s68.834 78 93.501 78c13.333 0 24.166 -6 32.499 -18s12.5 -28.333 12.5 -49c0 -10.667 -3.33301 -37.334 -10 -80.001l-1 -4l-71 -51c4 30.667 7 55.167 9 73.5s3 30.5 3 36.5
c0 9.33301 -1.33301 16.5 -4 21.5s-6 7.5 -10 7.5c-14 0 -40.667 -32.667 -80 -98s-88 -157.666 -146 -276.999z" />
    <glyph glyph-name="s" unicode="s" horiz-adv-x="403" 
d="M-186 207l-14.998 14l176 190c5.33301 34.667 15.5 61.834 30.5 81.501s32.167 29.5 51.5 29.5c10.667 0 19.167 -3 25.5 -9s9.5 -14 9.5 -24c0 -12.667 -12.333 -29.834 -37 -51.501s-37 -34.5 -37 -38.5l35 -74c23.333 -49.333 35 -95.666 35 -138.999
c0 -53.333 -20.5 -98.666 -61.5 -135.999s-90.833 -56 -149.5 -56c-34.667 0 -64.5 6.66699 -89.5 20s-37.5 28.333 -37.5 45c0 9.33301 3.16699 17.166 9.5 23.499s14.166 9.5 23.499 9.5c15.333 0 37.5 -10.5 66.5 -31.5s51.833 -31.5 68.5 -31.5
c28.667 0 52.5 12.667 71.5 38s28.5 57 28.5 95c0 33.333 -10 86.666 -30 159.999c-6.66699 25.333 -11.334 44 -14.001 56z" />
    <glyph glyph-name="t" unicode="t" horiz-adv-x="336" 
d="M59 154l16.998 -21c-56.667 -52.667 -100.667 -88.667 -132 -108s-59.666 -29 -84.999 -29c-24.667 0 -43.167 6.16699 -55.5 18.5s-18.5 30.833 -18.5 55.5c0 12 3.5 32.333 10.5 61s17.833 65.667 32.5 111l82 266h-60l15 37h53l94 311l90 25l-100 -336h143l-12 -37
h-147l-90 -311c-9.33301 -31.333 -16.166 -57 -20.499 -77s-6.5 -35.333 -6.5 -46c0 -9.33301 2.5 -16.5 7.5 -21.5s12.167 -7.5 21.5 -7.5c14 0 34.667 9.16699 62 27.5s60.333 45.5 99 81.5z" />
    <glyph glyph-name="u" unicode="u" horiz-adv-x="602" 
d="M-106 428l77.001 23.002c-30.667 -108.667 -54 -196 -70 -262s-24 -108.667 -24 -128c0 -6 2.66699 -11.167 8 -15.5s12.333 -6.5 21 -6.5c25.333 0 62 33.833 110 101.5s104.667 165.5 170 293.5l88 4c-42 -140.667 -68.5 -231.834 -79.5 -273.501
s-16.5 -69.167 -16.5 -82.5c0 -9.33301 2.66699 -16.5 8 -21.5s13 -7.5 23 -7.5c10.667 0 25.5 8 44.5 24s45.167 42.333 78.5 79l14 -25c-38.667 -44 -73.834 -77.5 -105.501 -100.5s-57.834 -34.5 -78.501 -34.5c-19.333 0 -34.5 6.16699 -45.5 18.5
s-16.5 29.5 -16.5 51.5c0 19.333 5.66699 52.5 17 99.5s28.333 107.167 51 180.5c-74 -133.333 -132.167 -225 -174.5 -275s-81.166 -75 -116.499 -75c-23.333 0 -41.5 7.5 -54.5 22.5s-19.5 36.167 -19.5 63.5c0 20.667 6.33301 55.167 19 103.5s36.667 129.166 72 242.499
z" />
    <glyph glyph-name="v" unicode="v" horiz-adv-x="487" 
d="M-113 426l86 23c-28.667 -97.333 -50.167 -176.833 -64.5 -238.5s-21.5 -105.167 -21.5 -130.5c0 -16.667 3.66699 -30 11 -40s16.666 -15 27.999 -15c28.667 0 67.5 38.333 116.5 115s93.5 173.334 133.5 290.001l70 4c-58 -132.667 -119 -239.5 -183 -320.5
s-117 -121.5 -159 -121.5c-26 0 -45.833 9.66699 -59.5 29s-20.5 47 -20.5 83c0 38.667 4.83301 83.167 14.5 133.5s25.834 113.166 48.501 188.499z" />
    <glyph glyph-name="w" unicode="w" horiz-adv-x="750" 
d="M-111 434l77.999 15.0039c-28.667 -93.333 -51.167 -172.5 -67.5 -237.5s-24.5 -109.5 -24.5 -133.5c0 -14 2.83301 -25 8.5 -33s13.834 -12 24.501 -12c27.333 0 66.5 38.167 117.5 114.5s96.5 170.5 136.5 282.5l80 12c-32.667 -90 -57 -162.833 -73 -218.5
s-24 -93.834 -24 -114.501c0 -22 5 -39.833 15 -53.5s23 -20.5 39 -20.5c34.667 0 73 37.333 115 112s76.667 171 104 289l63 6c-39.333 -134 -87.833 -241.833 -145.5 -323.5s-112.167 -122.5 -163.5 -122.5c-28.667 0 -50.167 10.167 -64.5 30.5
s-21.5 51.166 -21.5 92.499c0 12 0.833008 26 2.5 42s4.16699 35.333 7.5 58c-40 -71.333 -78.333 -126.333 -115 -165s-68.667 -58 -96 -58c-21.333 0 -37.833 8.16699 -49.5 24.5s-17.5 40.166 -17.5 71.499c0 44 6.16699 95.667 18.5 155s29.833 121.666 52.5 186.999z
" />
    <glyph glyph-name="x" unicode="x" horiz-adv-x="412" 
d="M-70 182l-163 -176l-68 -4l225 203l-51 229l74 6l30 -170l125 168l60 6l-178 -198l55 -246h-70z" />
    <glyph glyph-name="y" unicode="y" horiz-adv-x="592" 
d="M53 -86c-66.667 -61.333 -119.499 -120.5 -158.499 -177.5s-58.5 -102.167 -58.5 -135.5c0 -16 3 -28.667 9 -38s14 -14 24 -14c35.333 0 67.166 27.833 95.499 83.5s57.833 149.5 88.5 281.5zM-112.999 430l82 13.999l-9 -29c-58 -179.333 -87 -290.333 -87 -333
c0 -17.333 2.33301 -29.5 7 -36.5s12.667 -10.5 24 -10.5c28.667 0 68.334 35.333 119.001 106s107.334 170.334 170.001 299.001h73l-106 -385l100 99l19 -19l-127 -121c-44.667 -168 -89.834 -291.5 -135.501 -370.5s-94.834 -118.5 -147.501 -118.5
c-17.333 0 -32.333 6.33301 -45 19s-19 28 -19 46c0 43.333 21.667 96 65 158s106.333 131 189 207l103 371c-62 -114.667 -115.333 -198 -160 -250s-85.667 -78 -123 -78c-24 0 -42 7.16699 -54 21.5s-18 36.5 -18 66.5c0 23.333 5.33301 58 16 104s32 126 64 240z" />
    <glyph glyph-name="z" unicode="z" horiz-adv-x="455" 
d="M-264 0l-0.000976562 33l372 339c-8 0 -16.5 -0.166992 -25.5 -0.5s-20.167 -0.5 -33.5 -0.5c-4.66699 0 -11.5 0.333008 -20.5 1s-15.833 1 -20.5 1c-17.333 0 -44 -1.5 -80 -4.5s-61 -4.83301 -75 -5.5l32 69c14 0.666992 33 1.66699 57 3c65.333 3.33301 110 5 134 5
c13.333 0 27.333 -0.166992 42 -0.5s37.334 -1.5 68.001 -3.5l-2 -18l-366 -348c10 0 25.333 -0.333008 46 -1s36 -1 46 -1c22.667 0 50.167 0.666992 82.5 2s67.5 3.33301 105.5 6l-8 -76h-354z" />
    <glyph glyph-name="braceleft" unicode="{" 
d="M844 1516v-47.002c-102 -1.33301 -171.167 -19.666 -207.5 -54.999s-54.5 -105.333 -54.5 -210v-147c0 -150 -21.5 -252.667 -64.5 -308s-122.5 -93.333 -238.5 -114c116 -20 195.5 -57.5 238.5 -112.5s64.5 -158.167 64.5 -309.5v-147
c0 -104.667 18.167 -174.667 54.5 -210s105.5 -53.666 207.5 -54.999v-45h-10c-142 0 -239.667 24.333 -293 73s-80 139.667 -80 273v222c0 102.667 -19.833 173.5 -59.5 212.5s-114.834 62.833 -225.501 71.5v56c112.667 10 188.334 34.167 227.001 72.5
s58 108.833 58 211.5v221c0 133.333 26.667 224.5 80 273.5s151 73.5 293 73.5h10z" />
    <glyph glyph-name="bar" unicode="|" 
d="M467 1565h90v-2048h-90v2048z" />
    <glyph glyph-name="braceright" unicode="}" 
d="M178 1516h9.99902c142.667 0 240.834 -24.667 294.501 -74s80.5 -140.333 80.5 -273v-221c0 -103.333 19.333 -174 58 -212s114.334 -62 227.001 -72v-56c-110.667 -8.66699 -185.834 -32.5 -225.501 -71.5s-59.5 -109.833 -59.5 -212.5v-222
c0 -132 -26.833 -222.667 -80.5 -272s-151.834 -74 -294.501 -74h-10v45c102.667 1.33301 172.334 19.666 209.001 54.999s55 105.333 55 210v147c0 150.667 21.333 253.334 64 308.001s122.334 92.667 239.001 114c-116 20.667 -195.5 58.667 -238.5 114
s-64.5 158 -64.5 308v147c0 104 -18.333 173.833 -55 209.5s-106.334 54.167 -209.001 55.5v47z" />
    <glyph glyph-name="asciitilde" unicode="~" horiz-adv-x="1706" 
d="M1530 739v-92.002c-70.667 -49.333 -138 -86.166 -202 -110.499s-125.667 -36.5 -185 -36.5c-66 0 -154.667 20.333 -266 61c-10.667 4 -18 6.66699 -22 8c-8 2.66699 -19 6.66699 -33 12c-111.333 40 -197 60 -257 60c-55.333 0 -113.666 -12.5 -174.999 -37.5
s-132 -65.833 -212 -122.5v92c70 49.333 137 86 201 110s126 36 186 36c66.667 0 157 -20.333 271 -61c8 -3.33301 14.333 -5.66602 19 -6.99902l27 -10c112 -40.667 199 -61 261 -61c55.333 0 113.666 12.5 174.999 37.5s132 65.5 212 121.5z" />
    <glyph glyph-name="nonbreakingspace" unicode="&#xa0;" horiz-adv-x="739" 
 />
    <glyph glyph-name="exclamdown" unicode="&#xa1;" horiz-adv-x="371" 
d="M211 1143l29.001 0.000976562l-154.5 -533.5c-48.333 -173.667 -93.833 -344.834 -136.5 -513.501l-119 -51c53.333 133.333 110.166 287 170.499 461zM350.001 1413c0 -16.667 -5.49902 -30.333 -16.499 -41s-25.167 -16 -42.5 -16
c-16.667 0 -30.834 5.66699 -42.501 17s-17.5 25.333 -17.5 42s5.33301 30 16 40s24.667 15 42 15s31.833 -5.5 43.5 -16.5s17.5 -24.5 17.5 -40.5z" />
    <glyph glyph-name="cent" unicode="&#xa2;" horiz-adv-x="739" 
d="M133 414c-43.333 -8.66699 -83.833 -44.334 -121.5 -107.001s-56.5 -126 -56.5 -190c0 -21.333 5.5 -38.666 16.5 -51.999s25.167 -20 42.5 -20h11zM233 154l-0.00292969 -26.998c-19.333 -23.333 -44.166 -44.833 -74.499 -64.5s-68.166 -38.5 -113.499 -56.5l-51 -174
h-33l49 164c-2.66699 0 -6.16699 -0.333008 -10.5 -1s-7.5 -1 -9.5 -1c-36 0 -64.833 11 -86.5 33s-32.5 51.333 -32.5 88c0 62 26.667 126.5 80 193.5s116.666 111.5 189.999 133.5l47 160h33l-47 -156c5.33301 0 12 0.5 20 1.5s13.667 1.5 17 1.5c26 0 44.833 -3 56.5 -9
s17.5 -15.333 17.5 -28c0 -6 -1.66699 -12.333 -5 -19s-8.66602 -14 -15.999 -22c-8 3.33301 -18.667 8.33301 -32 15c-33.333 16 -54.666 24 -63.999 24h-4l-106 -363c26 5.33301 53.5 16.666 82.5 33.999s59.833 41.666 92.5 72.999z" />
    <glyph glyph-name="sterling" unicode="&#xa3;" horiz-adv-x="739" 
d="M39 96c-40.667 16 -77.667 27.833 -111 35.5s-63.333 11.5 -90 11.5c-36.667 0 -66.334 -5.83301 -89.001 -17.5s-34 -26.834 -34 -45.501c0 -17.333 10.833 -32.666 32.5 -45.999s47.834 -20 78.501 -20c35.333 0 71.333 7.16699 108 21.5s71.667 34.5 105 60.5zM80 82
c-41.333 -32.667 -81.835 -56.5029 -121.502 -71.5029s-82.5 -22.5 -128.5 -22.5s-82 8.5 -108 25.5s-39 40.5 -39 70.5c0 28.667 15.833 53.5 47.5 74.5s70.834 31.5 117.501 31.5c32.667 0 67.834 -4.16699 105.501 -12.5s77.834 -21.166 120.501 -38.499
c14.667 33.333 28.167 67.5 40.5 102.5s23.166 71.833 32.499 110.5h-120l12 39h117c36.667 142.667 85.5 258.834 146.5 348.501s117.833 134.5 170.5 134.5c24.667 0 44.5 -9.16699 59.5 -27.5s22.5 -43.166 22.5 -74.499c0 -26.667 -3.83301 -57.334 -11.5 -92.001
s-20.167 -78.334 -37.5 -131.001l-72 -21c22.667 62 41 117.833 55 167.5s21 82.167 21 97.5c0 14.667 -4.33301 27.834 -13 39.501s-18 17.5 -28 17.5c-36 0 -73.5 -39.167 -112.5 -117.5s-77.833 -192.166 -116.5 -341.499h120l-14 -39h-119
c-15.333 -44 -32.5 -85.167 -51.5 -123.5s-39.833 -73.5 -62.5 -105.5c46 -18 92.667 -32.333 140 -43s95.333 -17.667 144 -21l-49 -63h-16c-30.667 0 -66.667 7 -108 21s-89.333 35.667 -144 65z" />
    <glyph glyph-name="currency" unicode="&#xa4;" horiz-adv-x="1241" 
d="M623 1217c-92 0 -170.333 -32.3311 -235 -96.998s-97 -142.334 -97 -233.001c0 -92 32.333 -170.333 97 -235s143 -97 235 -97c91.333 0 169.333 32.333 234 97s97 143 97 235c0 91.333 -32.167 169.166 -96.5 233.499s-142.5 96.5 -234.5 96.5zM152 1411
l205.999 -206.998c40 32 81.667 55.667 125 71s89.333 23 138 23c48 0 94 -7.83301 138 -23.5s86 -39.167 126 -70.5l205 207l59 -59l-207 -205c30 -38.667 52.833 -80.167 68.5 -124.5s23.5 -90.166 23.5 -137.499c0 -48.667 -7.66699 -94.834 -23 -138.501
s-38.333 -84.834 -69 -123.501l207 -205l-59 -60l-205 207c-38.667 -30 -80.334 -52.833 -125.001 -68.5s-91 -23.5 -139 -23.5c-49.333 0 -95.666 7.66699 -138.999 23s-84.666 38.333 -123.999 69l-206 -207l-58 60l207 205c-30 38 -52.833 79.167 -68.5 123.5
s-23.5 90.5 -23.5 138.5c0 47.333 7.83301 93.166 23.5 137.499s38.5 85.833 68.5 124.5l-207 205z" />
    <glyph glyph-name="yen" unicode="&#xa5;" horiz-adv-x="739" 
d="M623 864l-149.498 -159.001l-166.5 -187h168l-8 -35h-186l-53.5 -63.5l-57.5 -63.5h229l-8 -34h-235l-86 -332l-70 10l90 322h-244l9 34h233l-26 109c-3.33301 14 -5 21.333 -5 22c1.33301 0 2 -1.33301 2 -4h-178l8 35h162
c-12.667 50.667 -28.334 104.334 -47.001 161.001s-41 120.334 -67 191.001l69 13c28.667 -66 55 -140.667 79 -224s46.333 -177.333 67 -282l221 278.5c59.333 78.333 111.666 152.166 156.999 221.499z" />
    <glyph glyph-name="brokenbar" unicode="&#xa6;" 
d="M467 408h90v-758h-90v758zM467 1432h90v-758h-90v758z" />
    <glyph glyph-name="section" unicode="&#xa7;" horiz-adv-x="750" 
d="M281 336c84 18 144.5 41.334 181.5 70.001s55.5 66 55.5 112c0 23.333 -6 50.666 -18 81.999s-28.333 63.333 -49 96l-185 281c-78 -14 -136.333 -35.833 -175 -65.5s-58 -67.167 -58 -112.5c0 -24 4.66699 -50.167 14 -78.5s22.333 -55.5 39 -81.5zM-281 -60.999
l54.0029 64.999c44.667 -37.333 91.167 -65.833 139.5 -85.5s97.166 -29.5 146.499 -29.5c63.333 0 116.833 18.667 160.5 56s65.5 82.333 65.5 135c0 19.333 -4.33301 40.333 -13 63s-22.334 49.334 -41.001 80.001l-196 322c-20 32 -35.333 64 -46 96s-16 62.667 -16 92
c0 66.667 23.667 126.834 71 180.501s111.333 92.5 192 116.5c-17.333 32 -30 60.333 -38 85s-12 47.667 -12 69c0 76.667 35.333 143.167 106 199.5s155.667 84.5 255 84.5c36.667 0 76 -6.5 118 -19.5s88 -32.833 138 -59.5l-41 -58c-48 31.333 -93.5 54.5 -136.5 69.5
s-84.833 22.5 -125.5 22.5c-67.333 0 -123.833 -18.167 -169.5 -54.5s-68.5 -80.166 -68.5 -131.499c0 -19.333 6.66699 -43.833 20 -73.5s34.666 -67.834 63.999 -114.501l137 -222c33.333 -52.667 57 -97.667 71 -135s21 -71.333 21 -102c0 -72 -22.667 -134.667 -68 -188
s-110 -92.333 -194 -117c16.667 -29.333 29 -56.833 37 -82.5s12 -50.167 12 -73.5c0 -75.333 -35.167 -141.333 -105.5 -198s-154.5 -85 -252.5 -85c-43.333 0 -88.333 7.66699 -135 23s-96.667 38.666 -150 69.999z" />
    <glyph glyph-name="dieresis" unicode="&#xa8;" 
d="M412 655c0 14 3.83496 24.999 11.502 32.999s18.167 12 31.5 12s24.166 -4.33301 32.499 -13s12.5 -20.667 12.5 -36c0 -11.333 -4 -20.666 -12 -27.999s-18.333 -11 -31 -11s-23.334 4.16699 -32.001 12.5s-13 18.5 -13 30.5zM219.002 654.999
c0 14 3.99902 24.999 11.999 32.999s18.333 12 31 12c14 0 25 -4.33301 33 -13s12 -20.667 12 -36c0 -11.333 -4.16699 -20.666 -12.5 -27.999s-19.166 -11 -32.499 -11c-12 0 -22.167 4.16699 -30.5 12.5s-12.5 18.5 -12.5 30.5z" />
    <glyph glyph-name="copyright" unicode="&#xa9;" horiz-adv-x="1683" 
d="M1118 1093l31.0029 1v-308h-37c-21.333 90.667 -56 159.167 -104 205.5s-108.333 69.5 -181 69.5c-84.667 0 -148.834 -31.833 -192.501 -95.5s-65.5 -157.5 -65.5 -281.5c0 -126.667 23.333 -222.167 70 -286.5s115.667 -96.5 207 -96.5c60 0 113.667 14.167 161 42.5
s89.333 71.5 126 129.5l30 -20c-36.667 -68 -83.5 -119.5 -140.5 -154.5s-122.167 -52.5 -195.5 -52.5c-109.333 0 -202.5 40.667 -279.5 122s-115.5 180 -115.5 296c0 122.667 37.833 226 113.5 310s168.167 126 277.5 126c47.333 0 95.666 -11.333 144.999 -34
s77.666 -34 84.999 -34c18.667 0 33.5 5.33301 44.5 16s17.833 25.667 20.5 45zM844.003 1298c-82 0 -160.501 -15.667 -235.501 -47s-141.167 -76.333 -198.5 -135c-58.667 -59.333 -103.5 -126.5 -134.5 -201.5s-46.5 -153.833 -46.5 -236.5
c0 -84 15.5 -163.5 46.5 -238.5s75.833 -141.5 134.5 -199.5c58.667 -59.333 124.667 -104.333 198 -135s151.333 -46 234 -46c84 0 162.833 15.5 236.5 46.5s138.834 75.833 195.501 134.5c58.667 60.667 103.667 128.5 135 203.5s47 153.167 47 234.5
c0 82 -16 162.167 -48 240.5s-76 145.5 -132 201.5c-56.667 56.667 -122.667 100.5 -198 131.5s-153.333 46.5 -234 46.5zM844.002 1370c89.333 0 176.332 -17.5 260.999 -52.5s159.334 -84.5 224.001 -148.5c64 -63.333 113.833 -138.333 149.5 -225
s53.5 -175.334 53.5 -266.001c0 -90 -17.667 -177 -53 -261s-86 -159.667 -152 -227c-64.667 -65.333 -138.5 -115.333 -221.5 -150s-170.833 -52 -263.5 -52c-92 0 -179.5 17.167 -262.5 51.5s-158.167 84.5 -225.5 150.5c-66 66.667 -116.167 141.334 -150.5 224.001
s-51.5 170.667 -51.5 264c0 92 17 179.667 51 263s83.667 158 149 224c64.667 65.333 139.667 115.833 225 151.5s174.333 53.5 267 53.5z" />
    <glyph glyph-name="ordfeminine" unicode="&#xaa;" horiz-adv-x="451" 
d="M106 1077h259.001c27.333 0 45.333 -1.66699 54 -5s13 -9 13 -17c0 -12 -4.5 -20.167 -13.5 -24.5s-30.5 -6.5 -64.5 -6.5h-250c-20 0 -33.167 1.83301 -39.5 5.5s-9.5 10.167 -9.5 19.5c0 10 4.16699 17.167 12.5 21.5s21.166 6.5 38.499 6.5zM383.001 1460
l-20.9941 -43.0029c-12.667 5.33301 -23.334 9.16602 -32.001 11.499s-16.334 3.5 -23.001 3.5c-34.667 0 -70 -23.5 -106 -70.5s-54 -91.833 -54 -134.5c0 -14 2.5 -24 7.5 -30s12.833 -9 23.5 -9c26.667 0 59.834 23.667 99.501 71s80.834 113 123.501 197l68 4l-78 -227
c-0.666992 -2.66699 -1.83398 -6.16699 -3.50098 -10.5s-2.5 -7.83301 -2.5 -10.5c0 -6.66699 1.66699 -12 5 -16s7.66602 -6 12.999 -6c10.667 0 25.167 6.66699 43.5 20s40.166 33.333 65.499 60l4 -39c-28.667 -31.333 -56.334 -55.5 -83.001 -72.5
s-50.334 -25.5 -71.001 -25.5c-17.333 0 -30.5 4.5 -39.5 13.5s-13.5 22.833 -13.5 41.5c0 10.667 1.5 22.834 4.5 36.501s7.16699 28.834 12.5 45.501c-33.333 -42.667 -65.833 -76.167 -97.5 -100.5s-57.834 -36.5 -78.501 -36.5c-24 0 -43.333 7.33301 -58 22
s-22 33.667 -22 57c0 28.667 10.833 61.334 32.5 98.001s50.834 70.334 87.501 101.001c21.333 18 43.666 31.667 66.999 41s47 14 71 14c8 0 16.667 -0.5 26 -1.5s19 -2.5 29 -4.5z" />
    <glyph glyph-name="guillemotleft" unicode="&#xab;" horiz-adv-x="635" 
d="M379 436c-40.667 -33.333 -83 -66 -127 -98s-90.333 -63.333 -139 -94l147 -248l-74 -25l-141 244l274 221h60zM137 436c-38 -31.333 -79.167 -63 -123.5 -95s-92.5 -64.333 -144.5 -97l147 -248l-71 -25l-142 244l275 221h59z" />
    <glyph glyph-name="logicalnot" unicode="&#xac;" horiz-adv-x="1706" 
d="M254 856h1198v-502h-78v420h-1120v82z" />
    <glyph glyph-name="sfthyphen" unicode="&#xad;" horiz-adv-x="371" 
d="M-182 199l18 57h211l-16 -57h-213z" />
    <glyph glyph-name="registered" unicode="&#xae;" horiz-adv-x="1683" 
d="M717 717c8 -0.666992 16.833 -1.16699 26.5 -1.5s23.167 -0.5 40.5 -0.5c85.333 0 150.5 15 195.5 45s67.5 73.667 67.5 131c0 50.667 -19.5 91 -58.5 121s-92.167 45 -159.5 45c-36 0 -63.667 -6.66699 -83 -20s-29 -32 -29 -56v-264zM469 1087l391 0.000976562
c98 0 175.167 -17.5 231.5 -52.5s84.5 -82.833 84.5 -143.5c0 -50 -23.333 -90.833 -70 -122.5s-120.334 -57.167 -221.001 -76.5c61.333 -20 107.833 -46.167 139.5 -78.5s55.5 -77.833 71.5 -136.5c3.33301 -13.333 7.33301 -33 12 -59c10 -58.667 28.333 -88 55 -88
c27.333 0 47.333 10.167 60 30.5s19.334 52.833 20.001 97.5l37 1v-8c0 -58.667 -12.5 -102.834 -37.5 -132.501s-62.5 -44.5 -112.5 -44.5c-30.667 0 -57 6.16699 -79 18.5s-37 29.5 -45 51.5c-10.667 26 -16.5 63.833 -17.5 113.5s-4.16699 82.834 -9.5 99.501
c-15.333 44 -40.666 76.167 -75.999 96.5s-84.333 30.5 -147 30.5c-4 0 -10.333 -0.333008 -19 -1s-15.334 -1 -20.001 -1v-248c0 -37.333 9.66699 -63.333 29 -78s55.333 -23 108 -25v-38h-385v38c52.667 2 88.667 10.333 108 25s29 40.667 29 78v512
c0 38 -10 64.667 -30 80s-55.667 23.666 -107 24.999v36zM844 1298c-82 0 -160.501 -15.667 -235.501 -47s-141.167 -76.333 -198.5 -135c-58.667 -59.333 -103.5 -126.5 -134.5 -201.5s-46.5 -153.833 -46.5 -236.5c0 -84 15.5 -163.5 46.5 -238.5
s75.833 -141.5 134.5 -199.5c58.667 -59.333 124.667 -104.333 198 -135s151.333 -46 234 -46c84 0 162.833 15.5 236.5 46.5s138.834 75.833 195.501 134.5c58.667 60.667 103.667 128.5 135 203.5s47 153.167 47 234.5c0 82 -16 162.167 -48 240.5s-76 145.5 -132 201.5
c-56.667 56.667 -122.667 100.5 -198 131.5s-153.333 46.5 -234 46.5zM843.999 1370c89.333 0 176.332 -17.5 260.999 -52.5s159.334 -84.5 224.001 -148.5c64 -63.333 113.833 -138.333 149.5 -225s53.5 -175.334 53.5 -266.001c0 -90 -17.667 -177 -53 -261
s-86 -159.667 -152 -227c-64.667 -65.333 -138.5 -115.333 -221.5 -150s-170.833 -52 -263.5 -52c-92 0 -179.5 17.167 -262.5 51.5s-158.167 84.5 -225.5 150.5c-66 66.667 -116.167 141.334 -150.5 224.001s-51.5 170.667 -51.5 264c0 92 17 179.667 51 263
s83.667 158 149 224c64.667 65.333 139.667 115.833 225 151.5s174.333 53.5 267 53.5z" />
    <glyph glyph-name="macron" unicode="&#xaf;" 
d="M446 633h-201.999c-21.333 0 -34.833 1.83301 -40.5 5.5s-8.5 10.5 -8.5 20.5s3.5 17 10.5 21s21.833 6 44.5 6h237c21.333 0 35.333 -1.66699 42 -5s10 -9 10 -17c0 -12 -5.33301 -20.167 -16 -24.5s-36.334 -6.5 -77.001 -6.5z" />
    <glyph glyph-name="degree" unicode="&#xb0;" horiz-adv-x="674" 
d="M338 1389c-59.333 0 -109.668 -20.6689 -151.001 -62.002s-62 -91.666 -62 -150.999s20.833 -109.666 62.5 -150.999s91.834 -62 150.501 -62s108.834 20.667 150.501 62s62.5 91.666 62.5 150.999c0 58.667 -20.833 108.834 -62.5 150.501s-91.834 62.5 -150.501 62.5z
M337.998 1450c74.667 0 138.668 -26.834 192.001 -80.501s80 -118.167 80 -193.5c0 -76 -26.667 -140.5 -80 -193.5s-118 -79.5 -194 -79.5c-76.667 0 -141.334 26.333 -194.001 79s-79 117.334 -79 194.001c0 76 26.833 140.667 80.5 194s118.5 80 194.5 80z" />
    <glyph glyph-name="plusminus" unicode="&#xb1;" horiz-adv-x="1706" 
d="M254 141h1198v-82h-1198v82zM813 1161h80v-354h559v-80h-559v-352h-80v352h-559v80h559v354z" />
    <glyph glyph-name="twosuperior" unicode="&#xb2;" horiz-adv-x="487" 
d="M-113 350l-0.00195312 10c127.333 84.667 219 158 275 220s84 121.333 84 178c0 32 -9.16699 57.333 -27.5 76s-42.833 28 -73.5 28c-39.333 0 -74.166 -13.333 -104.499 -40s-53.5 -65 -69.5 -115l-39 12c20.667 51.333 49.834 91.166 87.501 119.499
s81.167 42.5 130.5 42.5c44.667 0 81.667 -13.167 111 -39.5s44 -59.833 44 -100.5c0 -41.333 -21.5 -85.666 -64.5 -132.999s-132.167 -118.333 -267.5 -213h256l-16 -45h-326z" />
    <glyph glyph-name="threesuperior" unicode="&#xb3;" horiz-adv-x="487" 
d="M-150 377l10.999 45.0039c34 -20 64.833 -34.5 92.5 -43.5s54.167 -13.5 79.5 -13.5c50.667 0 93.667 14.5 129 43.5s53 64.167 53 105.5c0 29.333 -9.33301 51.666 -28 66.999s-45.667 23 -81 23c-8 0 -15.667 -0.5 -23 -1.5s-15 -2.5 -23 -4.5l-3 12
c63.333 24.667 112.333 52.667 147 84s52 62.666 52 93.999c0 23.333 -7.33301 41.166 -22 53.499s-36 18.5 -64 18.5c-31.333 0 -63.666 -10.5 -96.999 -31.5s-61 -48.833 -83 -83.5l-29 21c35.333 37.333 71 65.166 107 83.499s73.333 27.5 112 27.5
c39.333 0 70 -7.83301 92 -23.5s33 -37.5 33 -65.5c0 -29.333 -15.167 -57.666 -45.5 -84.999s-75.166 -53.333 -134.499 -78v-6c47.333 -1.33301 83.666 -11 108.999 -29s38 -43.333 38 -76c0 -44.667 -25.167 -83.834 -75.5 -117.501s-111.833 -50.5 -184.5 -50.5
c-24 0 -49.5 2.5 -76.5 7.5s-55.5 12.833 -85.5 23.5z" />
    <glyph glyph-name="acute" unicode="&#xb4;" 
d="M287 555c0 2.66699 18.167 13.5 54.5 32.5s64.5 42.833 84.5 71.5c10 14 20.167 38.667 30.5 74s24.833 53 43.5 53c10.667 0 19.5 -2.83301 26.5 -8.5s10.5 -12.834 10.5 -21.501c0 -18 -9 -39.167 -27 -63.5s-44 -49.833 -78 -76.5
c-24 -19.333 -49.833 -35.666 -77.5 -48.999s-46.167 -20 -55.5 -20c-4 0 -7 0.666992 -9 2s-3 3.33301 -3 6z" />
    <glyph glyph-name="mu" unicode="&#xb5;" horiz-adv-x="1051" 
d="M162 190c-14 -87.333 -27.6631 -197.335 -40.9961 -330.002c-18.667 -184 -52.334 -276 -101.001 -276c-19.333 0 -35.666 6 -48.999 18s-20 26.667 -20 44c0 26 19.833 121.667 59.5 287s72.5 309.333 98.5 432l108 520h119l-111 -518
c-2.66699 -13.333 -4.66699 -27.166 -6 -41.499s-2 -29.833 -2 -46.5c0 -63.333 15.5 -114.333 46.5 -153s71.5 -58 121.5 -58c66 0 122.667 28.333 170 85s83.666 140 108.999 250l110 482h119l-117 -527c-8.66699 -39.333 -15.167 -74.166 -19.5 -104.499
s-6.5 -54.833 -6.5 -73.5c0 -29.333 6.66699 -52.333 20 -69s31.666 -25 54.999 -25c28.667 0 54.5 9 77.5 27s40.833 43 53.5 75c8.66699 20 18.667 46.333 30 79c16.667 47.333 31.334 71 44.001 71c8 0 14.5 -2.83301 19.5 -8.5s7.5 -13.167 7.5 -22.5
c0 -20 -5.16699 -47.5 -15.5 -82.5s-22.833 -66.167 -37.5 -93.5c-26.667 -48 -57.834 -84.167 -93.501 -108.5s-74.834 -36.5 -117.501 -36.5c-46.667 0 -82.334 15 -107.001 45s-37 73 -37 129c0 3.33301 0.333008 8.66602 1 15.999s1 13 1 17
c-28.667 -72 -65.334 -125.5 -110.001 -160.5s-98 -52.5 -160 -52.5s-111.667 17.833 -149 53.5s-60.666 87.834 -69.999 156.501z" />
    <glyph glyph-name="paragraph" unicode="&#xb6;" 
d="M932 1479l0.000976562 -64h-129v-1415h-70v1415h-192v-1415h-70v782c-116.667 5.33301 -209.334 39.5 -278.001 102.5s-103 144.833 -103 245.5c0 104.667 36.167 189 108.5 253s167.833 96 286.5 96h447z" />
    <glyph glyph-name="periodcentered" unicode="&#xb7;" horiz-adv-x="371" 
d="M-76 438c0 17.333 5.5 31.668 16.5 43.001s24.833 17 41.5 17c16 0 30.167 -5.83301 42.5 -17.5s18.5 -25.834 18.5 -42.501s-6 -30.667 -18 -42s-26.333 -17 -43 -17s-30.5 5.5 -41.5 16.5s-16.5 25.167 -16.5 42.5z" />
    <glyph glyph-name="cedilla" unicode="&#xb8;" 
d="M-47 -229l12 24c24.667 -11.333 48.334 -20 71.001 -26s43.334 -9 62.001 -9c38.667 0 69.5 7.33301 92.5 22s34.5 34 34.5 58c0 19.333 -8.33301 34.5 -25 45.5s-39.667 16.5 -69 16.5c-6.66699 0 -19 -1.33301 -37 -4h-6l64 114h28l-43 -78h25
c40.667 0 71.667 -7 93 -21s32 -35 32 -63c0 -34 -15.5 -62.833 -46.5 -86.5s-69.5 -35.5 -115.5 -35.5c-26.667 0 -54.334 3.5 -83.001 10.5s-58.334 17.833 -89.001 32.5z" />
    <glyph glyph-name="onesuperior" unicode="&#xb9;" horiz-adv-x="487" 
d="M59 350h-52.999l137 430l-75 -96l-17 12c40.667 45.333 72.667 83.333 96 114s37.666 53 42.999 67h29c-13.333 -52 -33.5 -122.333 -60.5 -211z" />
    <glyph glyph-name="ordmasculine" unicode="&#xba;" horiz-adv-x="362" 
d="M102 1077h152c27.333 0 45.5 -1.66699 54.5 -5s13.5 -9 13.5 -17c0 -12 -4.66699 -20.167 -14 -24.5s-30.666 -6.5 -63.999 -6.5h-144c-20 0 -33.167 1.83301 -39.5 5.5s-9.5 10.167 -9.5 19.5c0 10 4.16699 17.167 12.5 21.5s21.166 6.5 38.499 6.5zM348 1384
c0 16.667 -4.33203 29.499 -12.999 38.499s-21.334 13.5 -38.001 13.5c-31.333 0 -62 -25.167 -92 -75.5s-45 -101.833 -45 -154.5c0 -16.667 4 -29.667 12 -39s19 -14 33 -14c34.667 0 67.167 24.833 97.5 74.5s45.5 101.834 45.5 156.501zM301.001 1464
c37.333 0 66.501 -10.6689 87.501 -32.002s31.5 -51 31.5 -89c0 -59.333 -21.833 -110.666 -65.5 -153.999s-96.167 -65 -157.5 -65c-32.667 0 -59.334 10.833 -80.001 32.5s-31 49.834 -31 84.501c0 58.667 21.833 110.5 65.5 155.5s93.5 67.5 149.5 67.5z" />
    <glyph glyph-name="guillemotright" unicode="&#xbb;" horiz-adv-x="635" 
d="M-37 -29c44 36.667 88.167 71.167 132.5 103.5s88.833 62.833 133.5 91.5l-147 246l72 24l143 -243l-274 -222h-60zM-281 -29c42 34.667 85.333 68.167 130 100.5s91 63.833 139 94.5l-148 246l72 24l141 -243l-274 -222h-60z" />
    <glyph glyph-name="onequarter" unicode="&#xbc;" horiz-adv-x="1274" 
d="M928 -20l-51 -15l41 125h-236l297 399l39 3l-293 -371h205l98 303l51 12l-100 -315h82l-10 -31h-84zM131 -10h-49l661 893h52zM57 385h-52.999l131 401l-72 -90l-14 11c36.667 40 66.667 74.833 90 104.5s37.666 51.5 42.999 65.5h25
c-13.333 -51.333 -32.833 -119 -58.5 -203z" />
    <glyph glyph-name="onehalf" unicode="&#xbd;" horiz-adv-x="1274" 
d="M700 0l0.000976562 10.002c122.667 79.333 210.667 147.833 264 205.5s80 112.167 80 163.5c0 30.667 -8.83301 55 -26.5 73s-41.5 27 -71.5 27c-36.667 0 -69.334 -12.833 -98.001 -38.5s-50.667 -61.834 -66 -108.501l-37 12c19.333 48 46.833 85 82.5 111
s76.5 39 122.5 39c44 0 80 -12 108 -36s42 -54.333 42 -91c0 -40.667 -21.5 -83.834 -64.5 -129.501s-126.833 -110.5 -251.5 -194.5h244l-14 -43h-314zM131.001 -9.99805h-49l661 893h52zM57.001 385.002h-52.999l131 401l-72 -90l-14 11c36.667 40 66.667 74.833 90 104.5
s37.666 51.5 42.999 65.5h25c-13.333 -51.333 -32.833 -119 -58.5 -203z" />
    <glyph glyph-name="threequarters" unicode="&#xbe;" horiz-adv-x="1274" 
d="M926 -20l-52 -15l41 125h-235l297 399l39 3l-293 -371h205l98 303l51 12l-100 -315h82l-10 -31h-84zM129 -10h-49l661 893h52zM-141 410l7.99805 40.998c32.667 -18 62.334 -31.167 89.001 -39.5s51.667 -12.5 75 -12.5c48.667 0 89.834 13.333 123.501 40
s50.5 59.334 50.5 98.001c0 28 -8.83301 49.333 -26.5 64s-43.167 22 -76.5 22c-7.33301 0 -14.666 -0.5 -21.999 -1.5s-15 -2.5 -23 -4.5l-2 10c60.667 23.333 107.334 49.666 140.001 78.999s49 59 49 89c0 21.333 -7 37.5 -21 48.5s-34.333 16.5 -61 16.5
c-30 0 -60.667 -9.66699 -92 -29s-58 -45 -80 -77l-27 18c33.333 35.333 67.166 61.666 101.499 78.999s70.166 26 107.499 26s66.5 -7.5 87.5 -22.5s31.5 -35.5 31.5 -61.5c0 -27.333 -14.5 -53.666 -43.5 -78.999s-71.833 -49.666 -128.5 -72.999l2 -6
c44.667 -1.33301 79 -10.166 103 -26.499s36 -39.5 36 -69.5c0 -42.667 -24 -79.667 -72 -111s-106.667 -47 -176 -47c-22.667 0 -46.5 2.33301 -71.5 7s-52.167 12 -81.5 22z" />
    <glyph glyph-name="questiondown" unicode="&#xbf;" horiz-adv-x="494" 
d="M305 993l21.0029 -0.000976562c-20.667 -88 -49.334 -169.167 -86.001 -243.5s-83.334 -145.166 -140.001 -212.499c-20 -24.667 -49.667 -58.667 -89 -102c-104 -113.333 -156 -200.333 -156 -261c0 -30 9.5 -54.5 28.5 -73.5s44.167 -28.5 75.5 -28.5
c50.667 0 101.5 25.667 152.5 77s100.5 126.666 148.5 225.999l45 -62c-48.667 -91.333 -100.167 -159.166 -154.5 -203.499s-112.833 -66.5 -175.5 -66.5c-48.667 0 -88.334 14.667 -119.001 44s-46 67.333 -46 114c0 99.333 88.667 240.333 266 423l41 42
c42 44 78.167 92.5 108.5 145.5s56.833 113.5 79.5 181.5zM428.003 1464c18 0 32.333 -5.00195 43 -15.002s16 -23.333 16 -40c0 -17.333 -5.5 -31.166 -16.5 -41.499s-25.833 -15.5 -44.5 -15.5c-15.333 0 -28 5.66699 -38 17s-15 26 -15 44
c0 16.667 4.66699 29.334 14 38.001s23 13 41 13z" />
    <glyph glyph-name="Agrave" unicode="&#xc0;" horiz-adv-x="1341" 
d="M911 403h-49c-57.333 0 -108 1.66699 -152 5s-84.667 8.66602 -122 15.999c36.667 -44.667 73.167 -97.167 109.5 -157.5s71.5 -127.166 105.5 -200.499zM537 471c41.333 -12 88.166 -21.168 140.499 -27.501s107.833 -9.5 166.5 -9.5c8.66699 0 26.334 1 53.001 3
c10 0.666992 17.667 1 23 1l227 674c20.667 60.667 36.334 110.834 47.001 150.501s16 68.167 16 85.5c0 9.33301 -1 16.333 -3 21s-5 7 -9 7c-24.667 0 -113.334 -112.667 -266.001 -338zM-647 46.999l75.998 51c68 -28 130.333 -49 187 -63s109 -21 157 -21
c137.333 0 272.333 49.333 405 148s272.667 254.334 420 467.001l135 194c298 430 466.667 645 506 645c18 0 31.667 -8 41 -24s14 -39.333 14 -70c0 -55.333 -12.167 -130.333 -36.5 -225s-68.166 -232.667 -131.499 -414l-102 -295h20c12.667 0 33.334 1.33301 62.001 4h6
l-2 -32c-12 -2 -24.167 -3.5 -36.5 -4.5s-24.833 -1.5 -37.5 -1.5h-26l-136 -406l-79 -4c-52.667 121.333 -101 216.666 -145 285.999s-89.333 123.333 -136 162c-119.333 -159.333 -243.333 -277 -372 -353s-269 -114 -421 -114c-54 0 -111.667 5.83301 -173 17.5
s-126.333 29.167 -195 52.5zM1344 1583c-10 0 -25.332 6.83301 -45.999 20.5s-42.334 31.5 -65.001 53.5c-28.667 27.333 -50.167 52.166 -64.5 74.499s-21.5 41.833 -21.5 58.5c0 12 3.33301 21.5 10 28.5s15.667 10.5 27 10.5c20 0 34.333 -19.333 43 -58
c5.33301 -24 10.666 -42.333 15.999 -55c17.333 -37.333 39.5 -67.333 66.5 -90s40.5 -35 40.5 -37c0 -1.33301 -0.666992 -2.66602 -2 -3.99902s-2.66602 -2 -3.99902 -2z" />
    <glyph glyph-name="Aacute" unicode="&#xc1;" horiz-adv-x="1341" 
d="M911 403h-49c-57.333 0 -108 1.66699 -152 5s-84.667 8.66602 -122 15.999c36.667 -44.667 73.167 -97.167 109.5 -157.5s71.5 -127.166 105.5 -200.499zM537 471c41.333 -12 88.166 -21.168 140.499 -27.501s107.833 -9.5 166.5 -9.5c8.66699 0 26.334 1 53.001 3
c10 0.666992 17.667 1 23 1l227 674c20.667 60.667 36.334 110.834 47.001 150.501s16 68.167 16 85.5c0 9.33301 -1 16.333 -3 21s-5 7 -9 7c-24.667 0 -113.334 -112.667 -266.001 -338zM-647 46.999l75.998 51c68 -28 130.333 -49 187 -63s109 -21 157 -21
c137.333 0 272.333 49.333 405 148s272.667 254.334 420 467.001l135 194c298 430 466.667 645 506 645c18 0 31.667 -8 41 -24s14 -39.333 14 -70c0 -55.333 -12.167 -130.333 -36.5 -225s-68.166 -232.667 -131.499 -414l-102 -295h20c12.667 0 33.334 1.33301 62.001 4h6
l-2 -32c-12 -2 -24.167 -3.5 -36.5 -4.5s-24.833 -1.5 -37.5 -1.5h-26l-136 -406l-79 -4c-52.667 121.333 -101 216.666 -145 285.999s-89.333 123.333 -136 162c-119.333 -159.333 -243.333 -277 -372 -353s-269 -114 -421 -114c-54 0 -111.667 5.83301 -173 17.5
s-126.333 29.167 -195 52.5zM1219 1591c0 2.66699 18.167 13.5 54.5 32.5s64.5 42.833 84.5 71.5c10 14 20.167 38.667 30.5 74s24.833 53 43.5 53c10.667 0 19.5 -2.83301 26.5 -8.5s10.5 -12.834 10.5 -21.501c0 -18 -9 -39.167 -27 -63.5s-44 -49.833 -78 -76.5
c-24 -19.333 -49.833 -35.666 -77.5 -48.999s-46.167 -20 -55.5 -20c-4 0 -7 0.666992 -9 2s-3 3.33301 -3 6z" />
    <glyph glyph-name="Acircumflex" unicode="&#xc2;" horiz-adv-x="1341" 
d="M911 403h-49c-57.333 0 -108 1.66699 -152 5s-84.667 8.66602 -122 15.999c36.667 -44.667 73.167 -97.167 109.5 -157.5s71.5 -127.166 105.5 -200.499zM537 471c41.333 -12 88.166 -21.168 140.499 -27.501s107.833 -9.5 166.5 -9.5c8.66699 0 26.334 1 53.001 3
c10 0.666992 17.667 1 23 1l227 674c20.667 60.667 36.334 110.834 47.001 150.501s16 68.167 16 85.5c0 9.33301 -1 16.333 -3 21s-5 7 -9 7c-24.667 0 -113.334 -112.667 -266.001 -338zM-647 46.999l75.998 51c68 -28 130.333 -49 187 -63s109 -21 157 -21
c137.333 0 272.333 49.333 405 148s272.667 254.334 420 467.001l135 194c298 430 466.667 645 506 645c18 0 31.667 -8 41 -24s14 -39.333 14 -70c0 -55.333 -12.167 -130.333 -36.5 -225s-68.166 -232.667 -131.499 -414l-102 -295h20c12.667 0 33.334 1.33301 62.001 4h6
l-2 -32c-12 -2 -24.167 -3.5 -36.5 -4.5s-24.833 -1.5 -37.5 -1.5h-26l-136 -406l-79 -4c-52.667 121.333 -101 216.666 -145 285.999s-89.333 123.333 -136 162c-119.333 -159.333 -243.333 -277 -372 -353s-269 -114 -421 -114c-54 0 -111.667 5.83301 -173 17.5
s-126.333 29.167 -195 52.5zM1305 1718c-49.333 -46 -89.166 -81.333 -119.499 -106s-49.166 -37 -56.499 -37c-4.66699 0 -8.66699 1.66699 -12 5s-5 6.33301 -5 9c0 4 23.167 29.833 69.5 77.5s89.5 98.167 129.5 151.5h20c14.667 -68 40.667 -134 78 -198
c10 -16.667 15 -27 15 -31s-1.16699 -7 -3.5 -9s-5.5 -3 -9.5 -3c-8.66699 0 -21.834 11.5 -39.501 34.5s-39.834 58.5 -66.501 106.5z" />
    <glyph glyph-name="Atilde" unicode="&#xc3;" horiz-adv-x="1341" 
d="M911 403h-49c-57.333 0 -108 1.66699 -152 5s-84.667 8.66602 -122 15.999c36.667 -44.667 73.167 -97.167 109.5 -157.5s71.5 -127.166 105.5 -200.499zM537 471c41.333 -12 88.166 -21.168 140.499 -27.501s107.833 -9.5 166.5 -9.5c8.66699 0 26.334 1 53.001 3
c10 0.666992 17.667 1 23 1l227 674c20.667 60.667 36.334 110.834 47.001 150.501s16 68.167 16 85.5c0 9.33301 -1 16.333 -3 21s-5 7 -9 7c-24.667 0 -113.334 -112.667 -266.001 -338zM-647 46.999l75.998 51c68 -28 130.333 -49 187 -63s109 -21 157 -21
c137.333 0 272.333 49.333 405 148s272.667 254.334 420 467.001l135 194c298 430 466.667 645 506 645c18 0 31.667 -8 41 -24s14 -39.333 14 -70c0 -55.333 -12.167 -130.333 -36.5 -225s-68.166 -232.667 -131.499 -414l-102 -295h20c12.667 0 33.334 1.33301 62.001 4h6
l-2 -32c-12 -2 -24.167 -3.5 -36.5 -4.5s-24.833 -1.5 -37.5 -1.5h-26l-136 -406l-79 -4c-52.667 121.333 -101 216.666 -145 285.999s-89.333 123.333 -136 162c-119.333 -159.333 -243.333 -277 -372 -353s-269 -114 -421 -114c-54 0 -111.667 5.83301 -173 17.5
s-126.333 29.167 -195 52.5zM1120 1620l-16.001 3.99902c1.33301 42.667 9.33301 74.834 24 96.501s36 32.5 64 32.5c20.667 0 55.334 -11 104.001 -33s83.667 -33 105 -33c13.333 0 25.833 8 37.5 24s21.167 37.333 28.5 64h20c-4 -45.333 -13.833 -79.833 -29.5 -103.5
s-36.5 -35.5 -62.5 -35.5c-22.667 0 -59.167 11 -109.5 33s-84.833 33 -103.5 33c-16.667 0 -30 -6.83301 -40 -20.5s-17.333 -34.167 -22 -61.5z" />
    <glyph glyph-name="Adieresis" unicode="&#xc4;" horiz-adv-x="1341" 
d="M911 403h-49c-57.333 0 -108 1.66699 -152 5s-84.667 8.66602 -122 15.999c36.667 -44.667 73.167 -97.167 109.5 -157.5s71.5 -127.166 105.5 -200.499zM537 471c41.333 -12 88.166 -21.168 140.499 -27.501s107.833 -9.5 166.5 -9.5c8.66699 0 26.334 1 53.001 3
c10 0.666992 17.667 1 23 1l227 674c20.667 60.667 36.334 110.834 47.001 150.501s16 68.167 16 85.5c0 9.33301 -1 16.333 -3 21s-5 7 -9 7c-24.667 0 -113.334 -112.667 -266.001 -338zM-647 46.999l75.998 51c68 -28 130.333 -49 187 -63s109 -21 157 -21
c137.333 0 272.333 49.333 405 148s272.667 254.334 420 467.001l135 194c298 430 466.667 645 506 645c18 0 31.667 -8 41 -24s14 -39.333 14 -70c0 -55.333 -12.167 -130.333 -36.5 -225s-68.166 -232.667 -131.499 -414l-102 -295h20c12.667 0 33.334 1.33301 62.001 4h6
l-2 -32c-12 -2 -24.167 -3.5 -36.5 -4.5s-24.833 -1.5 -37.5 -1.5h-26l-136 -406l-79 -4c-52.667 121.333 -101 216.666 -145 285.999s-89.333 123.333 -136 162c-119.333 -159.333 -243.333 -277 -372 -353s-269 -114 -421 -114c-54 0 -111.667 5.83301 -173 17.5
s-126.333 29.167 -195 52.5zM1344 1691c0 14 3.83496 24.999 11.502 32.999s18.167 12 31.5 12s24.166 -4.33301 32.499 -13s12.5 -20.667 12.5 -36c0 -11.333 -4 -20.666 -12 -27.999s-18.333 -11 -31 -11s-23.334 4.16699 -32.001 12.5s-13 18.5 -13 30.5zM1151 1691
c0 14 3.99902 24.999 11.999 32.999s18.333 12 31 12c14 0 25 -4.33301 33 -13s12 -20.667 12 -36c0 -11.333 -4.16699 -20.666 -12.5 -27.999s-19.166 -11 -32.499 -11c-12 0 -22.167 4.16699 -30.5 12.5s-12.5 18.5 -12.5 30.5z" />
    <glyph glyph-name="Aring" unicode="&#xc5;" horiz-adv-x="1341" 
d="M1171 1708c0 -38.667 13.333 -71.167 40 -97.5s59.334 -39.5 98.001 -39.5c37.333 0 69.166 13.333 95.499 40s39.5 59 39.5 97s-13 70 -39 96s-58 39 -96 39s-70.5 -13 -97.5 -39s-40.5 -58 -40.5 -96zM1130 1709c0 49.333 17.167 90.833 51.5 124.5
s76.833 50.5 127.5 50.5c49.333 0 91 -16.833 125 -50.5s51 -75.5 51 -125.5s-17 -92.167 -51 -126.5s-75.667 -51.5 -125 -51.5c-50 0 -92 17.167 -126 51.5s-51.667 76.833 -53 127.5zM911 403h-49c-57.333 0 -108 1.66699 -152 5s-84.667 8.66602 -122 15.999
c36.667 -44.667 73.167 -97.167 109.5 -157.5s71.5 -127.166 105.5 -200.499zM537 471c41.333 -12 88.166 -21.167 140.499 -27.5s107.833 -9.5 166.5 -9.5c8.66699 0 26.334 1 53.001 3c10 0.666992 17.667 1 23 1l147 428c50 146 86.333 257.167 109 333.5
s34 125.166 34 146.499c0 10.667 -1.16699 18.334 -3.5 23.001s-5.83301 7 -10.5 7c-23.333 0 -110 -110.333 -260 -331zM-647 47l75.9961 51.001c67.333 -28 128.833 -48.667 184.5 -62s107.5 -20 155.5 -20c140.667 0 276.834 48.667 408.501 146s271.834 253 420.501 467
l101 146c319.333 462 499.333 693 540 693c18 0 31.667 -8 41 -24s14 -39.333 14 -70c0 -55.333 -12.167 -130.333 -36.5 -225s-68.166 -232.667 -131.499 -414l-102 -295h20c12.667 0 33.334 1.33301 62.001 4h6l-2 -30c-17.333 -2.66699 -34.333 -4.66699 -51 -6
s-33 -2 -49 -2l-142 -406l-73 -4c-52.667 121.333 -101 216.666 -145 285.999s-89.333 123.333 -136 162c-119.333 -159.333 -243.333 -277 -372 -353s-269 -114 -421 -114c-54 0 -111.667 5.83301 -173 17.5s-126.333 29.167 -195 52.5z" />
    <glyph glyph-name="AE" unicode="&#xc6;" horiz-adv-x="2099" 
d="M911 403h-49c-57.333 0 -108 1.66699 -152 5s-84.667 8.66602 -122 15.999c36.667 -44.667 73.167 -97.167 109.5 -157.5s71.5 -127.166 105.5 -200.499zM537 471c41.333 -12 88.166 -21.167 140.499 -27.5s107.833 -9.5 166.5 -9.5c8.66699 0 26.334 1 53.001 3
c10 0.666992 17.667 1 23 1l186 539c32 95.333 56.667 176 74 242s26 113.667 26 143c0 6 -1 10.167 -3 12.5s-5.66699 3.5 -11 3.5c-19.333 0 -107.333 -115 -264 -345zM-647 47l76.001 50.9951c67.333 -28 128.833 -48.667 184.5 -62s107.5 -20 155.5 -20
c140.667 0 276.834 48.667 408.501 146s271.834 253 420.501 467l101 146c319.333 462 499.333 693 540 693c17.333 0 30.833 -8 40.5 -24s14.5 -38.667 14.5 -68c0 -71.333 -20 -175.833 -60 -313.5s-98.333 -302.167 -175 -493.5c36 45.333 88.667 93.333 158 144
s151 101 245 151c-32.667 52.667 -56.167 94.834 -70.5 126.501s-21.5 57.834 -21.5 78.501c0 42.667 19.667 87.834 59 135.501s94.666 93.167 165.999 136.5c64.667 40 133.667 71.167 207 93.5s141.666 33.5 204.999 33.5c54.667 0 98.667 -11.167 132 -33.5
s50 -51.166 50 -86.499c0 -24.667 -11.667 -60.834 -35 -108.501s-61.333 -113.5 -114 -197.5l-51 70c37.333 53.333 65.666 100.5 84.999 141.5s29 74.5 29 100.5c0 27.333 -8.16699 47.833 -24.5 61.5s-40.833 20.5 -73.5 20.5c-50 0 -106 -10.833 -168 -32.5
s-121.333 -51.167 -178 -88.5c-80.667 -53.333 -137.334 -100.666 -170.001 -141.999s-49 -85 -49 -131c0 -38.667 10.833 -79.5 32.5 -122.5s32.5 -66.833 32.5 -71.5c0 -32 -43 -75.667 -129 -131c-60 -38 -107.667 -71 -143 -99c-94 -72 -162.5 -138.833 -205.5 -200.5
s-64.5 -123.167 -64.5 -184.5s23 -109.333 69 -144s110.333 -52 193 -52c95.333 0 197.333 14.833 306 44.5s217.667 72.834 327 129.501l-23 -107c-104 -35.333 -203.667 -62.5 -299 -81.5s-181.333 -28.5 -258 -28.5c-93.333 0 -168.666 14.833 -225.999 44.5
s-98 74.834 -122 135.501l-62 -174l-73 -4c-52.667 121.333 -101 216.666 -145 285.999s-89.333 123.333 -136 162c-119.333 -159.333 -243.333 -277 -372 -353s-269 -114 -421 -114c-54 0 -111.667 5.83301 -173 17.5s-126.333 29.167 -195 52.5z" />
    <glyph glyph-name="Ccedilla" unicode="&#xc7;" horiz-adv-x="1081" 
d="M801 186l2.00488 -31.999c-80.667 -54 -162.834 -94.5 -246.501 -121.5s-168.834 -40.5 -255.501 -40.5c-116 0 -208.5 35.333 -277.5 106s-103.5 165.667 -103.5 285c0 120.667 30.167 246 90.5 376s144.166 250.333 251.499 361c58.667 59.333 122 112.666 190 159.999
s140 87.666 216 120.999c52.667 22.667 101.5 39.834 146.5 51.501s84.833 17.5 119.5 17.5c54.667 0 97 -11.667 127 -35s45 -56.666 45 -99.999c0 -64 -40.5 -128.5 -121.5 -193.5s-198.833 -127.5 -353.5 -187.5l16 99c135.333 54 239.166 106.5 311.499 157.5
s108.5 96.833 108.5 137.5c0 30.667 -11.167 54.667 -33.5 72s-53.5 26 -93.5 26c-77.333 0 -169.833 -31.167 -277.5 -93.5s-214.5 -147.833 -320.5 -256.5c-99.333 -101.333 -178.833 -215.833 -238.5 -343.5s-89.5 -245.5 -89.5 -353.5c0 -112 31.167 -200 93.5 -264
s148.166 -96 257.499 -96c78.667 0 155.5 12.667 230.5 38s143.5 61.666 205.5 108.999zM129.005 -228.999l12 24c24.667 -11.333 48.334 -20 71.001 -26s43.334 -9 62.001 -9c38.667 0 69.5 7.33301 92.5 22s34.5 34 34.5 58c0 19.333 -8.33301 34.5 -25 45.5
s-39.667 16.5 -69 16.5c-6.66699 0 -19 -1.33301 -37 -4h-6l64 114h28l-43 -78h25c40.667 0 71.667 -7 93 -21s32 -35 32 -63c0 -34 -15.5 -62.833 -46.5 -86.5s-69.5 -35.5 -115.5 -35.5c-26.667 0 -54.334 3.5 -83.001 10.5s-58.334 17.833 -89.001 32.5z" />
    <glyph glyph-name="Egrave" unicode="&#xc8;" horiz-adv-x="1042" 
d="M762 211l-23.0039 -106.998c-105.333 -36 -205.5 -63.333 -300.5 -82s-180.5 -28 -256.5 -28c-115.333 0 -205.833 25.167 -271.5 75.5s-98.5 119.166 -98.5 206.499c0 97.333 45.167 195.166 135.5 293.499s228.5 200.833 414.5 307.5
c-33.333 53.333 -56.666 94.5 -69.999 123.5s-20 51.833 -20 68.5c0 42 20 87 60 135s96 93.667 168 137c63.333 40 132.5 71.167 207.5 93.5s146.5 33.5 214.5 33.5c52 0 93.333 -10.833 124 -32.5s46 -50.834 46 -87.501c0 -26 -11.5 -62.333 -34.5 -109
s-61.5 -112.334 -115.5 -197.001l-49 70c38.667 56 68.167 104.5 88.5 145.5s30.5 72.5 30.5 94.5c0 24 -10.167 43.667 -30.5 59s-47.166 23 -80.499 23c-36 0 -75.667 -6 -119 -18s-86.333 -28.667 -129 -50c-99.333 -50.667 -175.666 -103.667 -228.999 -159
s-80 -110.333 -80 -165c0 -38.667 11 -79.5 33 -122.5s33 -66.833 33 -71.5c0 -32 -43 -75.667 -129 -131c-60.667 -38 -108.667 -71 -144 -99c-94.667 -73.333 -163.667 -140.666 -207 -201.999s-65 -122.333 -65 -183s23.333 -108.5 70 -143.5
s111.334 -52.5 194.001 -52.5c95.333 0 197.5 14.833 306.5 44.5s217.833 72.834 326.5 129.501zM974.996 1583c-10 0 -25.332 6.83301 -45.999 20.5s-42.334 31.5 -65.001 53.5c-28.667 27.333 -50.167 52.166 -64.5 74.499s-21.5 41.833 -21.5 58.5
c0 12 3.33301 21.5 10 28.5s15.667 10.5 27 10.5c20 0 34.333 -19.333 43 -58c5.33301 -24 10.666 -42.333 15.999 -55c17.333 -37.333 39.5 -67.333 66.5 -90s40.5 -35 40.5 -37c0 -1.33301 -0.666992 -2.66602 -2 -3.99902s-2.66602 -2 -3.99902 -2z" />
    <glyph glyph-name="Eacute" unicode="&#xc9;" horiz-adv-x="1042" 
d="M762 211l-23.0039 -106.998c-105.333 -36 -205.5 -63.333 -300.5 -82s-180.5 -28 -256.5 -28c-115.333 0 -205.833 25.167 -271.5 75.5s-98.5 119.166 -98.5 206.499c0 97.333 45.167 195.166 135.5 293.499s228.5 200.833 414.5 307.5
c-33.333 53.333 -56.666 94.5 -69.999 123.5s-20 51.833 -20 68.5c0 42 20 87 60 135s96 93.667 168 137c63.333 40 132.5 71.167 207.5 93.5s146.5 33.5 214.5 33.5c52 0 93.333 -10.833 124 -32.5s46 -50.834 46 -87.501c0 -26 -11.5 -62.333 -34.5 -109
s-61.5 -112.334 -115.5 -197.001l-49 70c38.667 56 68.167 104.5 88.5 145.5s30.5 72.5 30.5 94.5c0 24 -10.167 43.667 -30.5 59s-47.166 23 -80.499 23c-36 0 -75.667 -6 -119 -18s-86.333 -28.667 -129 -50c-99.333 -50.667 -175.666 -103.667 -228.999 -159
s-80 -110.333 -80 -165c0 -38.667 11 -79.5 33 -122.5s33 -66.833 33 -71.5c0 -32 -43 -75.667 -129 -131c-60.667 -38 -108.667 -71 -144 -99c-94.667 -73.333 -163.667 -140.666 -207 -201.999s-65 -122.333 -65 -183s23.333 -108.5 70 -143.5
s111.334 -52.5 194.001 -52.5c95.333 0 197.5 14.833 306.5 44.5s217.833 72.834 326.5 129.501zM849.996 1591c0 2.66699 18.167 13.5 54.5 32.5s64.5 42.833 84.5 71.5c10 14 20.167 38.667 30.5 74s24.833 53 43.5 53c10.667 0 19.5 -2.83301 26.5 -8.5
s10.5 -12.834 10.5 -21.501c0 -18 -9 -39.167 -27 -63.5s-44 -49.833 -78 -76.5c-24 -19.333 -49.833 -35.666 -77.5 -48.999s-46.167 -20 -55.5 -20c-4 0 -7 0.666992 -9 2s-3 3.33301 -3 6z" />
    <glyph glyph-name="Ecircumflex" unicode="&#xca;" horiz-adv-x="1042" 
d="M762 211l-23.0039 -106.998c-105.333 -36 -205.5 -63.333 -300.5 -82s-180.5 -28 -256.5 -28c-115.333 0 -205.833 25.167 -271.5 75.5s-98.5 119.166 -98.5 206.499c0 97.333 45.167 195.166 135.5 293.499s228.5 200.833 414.5 307.5
c-33.333 53.333 -56.666 94.5 -69.999 123.5s-20 51.833 -20 68.5c0 42 20 87 60 135s96 93.667 168 137c63.333 40 132.5 71.167 207.5 93.5s146.5 33.5 214.5 33.5c52 0 93.333 -10.833 124 -32.5s46 -50.834 46 -87.501c0 -26 -11.5 -62.333 -34.5 -109
s-61.5 -112.334 -115.5 -197.001l-49 70c38.667 56 68.167 104.5 88.5 145.5s30.5 72.5 30.5 94.5c0 24 -10.167 43.667 -30.5 59s-47.166 23 -80.499 23c-36 0 -75.667 -6 -119 -18s-86.333 -28.667 -129 -50c-99.333 -50.667 -175.666 -103.667 -228.999 -159
s-80 -110.333 -80 -165c0 -38.667 11 -79.5 33 -122.5s33 -66.833 33 -71.5c0 -32 -43 -75.667 -129 -131c-60.667 -38 -108.667 -71 -144 -99c-94.667 -73.333 -163.667 -140.666 -207 -201.999s-65 -122.333 -65 -183s23.333 -108.5 70 -143.5
s111.334 -52.5 194.001 -52.5c95.333 0 197.5 14.833 306.5 44.5s217.833 72.834 326.5 129.501zM935.996 1718c-49.333 -46 -89.166 -81.333 -119.499 -106s-49.166 -37 -56.499 -37c-4.66699 0 -8.66699 1.66699 -12 5s-5 6.33301 -5 9c0 4 23.167 29.833 69.5 77.5
s89.5 98.167 129.5 151.5h20c14.667 -68 40.667 -134 78 -198c10 -16.667 15 -27 15 -31s-1.16699 -7 -3.5 -9s-5.5 -3 -9.5 -3c-8.66699 0 -21.834 11.5 -39.501 34.5s-39.834 58.5 -66.501 106.5z" />
    <glyph glyph-name="Edieresis" unicode="&#xcb;" horiz-adv-x="1042" 
d="M762 211l-23.0039 -106.998c-105.333 -36 -205.5 -63.333 -300.5 -82s-180.5 -28 -256.5 -28c-115.333 0 -205.833 25.167 -271.5 75.5s-98.5 119.166 -98.5 206.499c0 97.333 45.167 195.166 135.5 293.499s228.5 200.833 414.5 307.5
c-33.333 53.333 -56.666 94.5 -69.999 123.5s-20 51.833 -20 68.5c0 42 20 87 60 135s96 93.667 168 137c63.333 40 132.5 71.167 207.5 93.5s146.5 33.5 214.5 33.5c52 0 93.333 -10.833 124 -32.5s46 -50.834 46 -87.501c0 -26 -11.5 -62.333 -34.5 -109
s-61.5 -112.334 -115.5 -197.001l-49 70c38.667 56 68.167 104.5 88.5 145.5s30.5 72.5 30.5 94.5c0 24 -10.167 43.667 -30.5 59s-47.166 23 -80.499 23c-36 0 -75.667 -6 -119 -18s-86.333 -28.667 -129 -50c-99.333 -50.667 -175.666 -103.667 -228.999 -159
s-80 -110.333 -80 -165c0 -38.667 11 -79.5 33 -122.5s33 -66.833 33 -71.5c0 -32 -43 -75.667 -129 -131c-60.667 -38 -108.667 -71 -144 -99c-94.667 -73.333 -163.667 -140.666 -207 -201.999s-65 -122.333 -65 -183s23.333 -108.5 70 -143.5
s111.334 -52.5 194.001 -52.5c95.333 0 197.5 14.833 306.5 44.5s217.833 72.834 326.5 129.501zM974.996 1691c0 14 3.83496 24.999 11.502 32.999s18.167 12 31.5 12s24.166 -4.33301 32.499 -13s12.5 -20.667 12.5 -36c0 -11.333 -4 -20.666 -12 -27.999
s-18.333 -11 -31 -11s-23.334 4.16699 -32.001 12.5s-13 18.5 -13 30.5zM781.998 1691c0 14 3.99902 24.999 11.999 32.999s18.333 12 31 12c14 0 25 -4.33301 33 -13s12 -20.667 12 -36c0 -11.333 -4.16699 -20.666 -12.5 -27.999s-19.166 -11 -32.499 -11
c-12 0 -22.167 4.16699 -30.5 12.5s-12.5 18.5 -12.5 30.5z" />
    <glyph glyph-name="Igrave" unicode="&#xcc;" horiz-adv-x="973" 
d="M588 524c75.333 190.667 133.333 357.002 174 499.002s61 249.667 61 323c0 32 -3.83301 55.667 -11.5 71s-19.5 23 -35.5 23c-14 0 -30 -7.33301 -48 -22s-36 -35.334 -54 -62.001c-61.333 -88.667 -108.833 -181.334 -142.5 -278.001s-50.5 -189 -50.5 -277
c0 -67.333 8.5 -123 25.5 -167s44.167 -80.667 81.5 -110zM-313 78.002l39.0029 60.9961c72.667 -36 138.167 -63 196.5 -81s110.166 -27 155.499 -27c106.667 0 198.167 34.833 274.5 104.5s149.833 186.834 220.5 351.501c-56 39.333 -98.333 88.666 -127 147.999
s-43 128.333 -43 207c0 70 13.167 141.833 39.5 215.5s65.166 147.834 116.499 222.501c50 72 92 122.167 126 150.5s67.667 42.5 101 42.5c28 0 50.167 -14.667 66.5 -44s24.5 -69.333 24.5 -120c0 -102.667 -18.667 -227 -56 -373s-89.666 -299 -156.999 -459
c19.333 -8 41.166 -15.167 65.499 -21.5s52.166 -12.166 83.499 -17.499l-6 -28c-22.667 2.66699 -46.667 6.83398 -72 12.501s-53.333 12.834 -84 21.501c-64.667 -150 -144.667 -261.833 -240 -335.5s-208.333 -110.5 -339 -110.5c-59.333 0 -120.833 6.66699 -184.5 20
s-130.5 33.333 -200.5 60zM879.003 1583c-10 0 -25.332 6.83301 -45.999 20.5s-42.334 31.5 -65.001 53.5c-28.667 27.333 -50.167 52.166 -64.5 74.499s-21.5 41.833 -21.5 58.5c0 12 3.33301 21.5 10 28.5s15.667 10.5 27 10.5c20 0 34.333 -19.333 43 -58
c5.33301 -24 10.666 -42.333 15.999 -55c17.333 -37.333 39.5 -67.333 66.5 -90s40.5 -35 40.5 -37c0 -1.33301 -0.666992 -2.66602 -2 -3.99902s-2.66602 -2 -3.99902 -2z" />
    <glyph glyph-name="Iacute" unicode="&#xcd;" horiz-adv-x="973" 
d="M588 524c75.333 190.667 133.333 357.002 174 499.002s61 249.667 61 323c0 32 -3.83301 55.667 -11.5 71s-19.5 23 -35.5 23c-14 0 -30 -7.33301 -48 -22s-36 -35.334 -54 -62.001c-61.333 -88.667 -108.833 -181.334 -142.5 -278.001s-50.5 -189 -50.5 -277
c0 -67.333 8.5 -123 25.5 -167s44.167 -80.667 81.5 -110zM-313 78.002l39.0029 60.9961c72.667 -36 138.167 -63 196.5 -81s110.166 -27 155.499 -27c106.667 0 198.167 34.833 274.5 104.5s149.833 186.834 220.5 351.501c-56 39.333 -98.333 88.666 -127 147.999
s-43 128.333 -43 207c0 70 13.167 141.833 39.5 215.5s65.166 147.834 116.499 222.501c50 72 92 122.167 126 150.5s67.667 42.5 101 42.5c28 0 50.167 -14.667 66.5 -44s24.5 -69.333 24.5 -120c0 -102.667 -18.667 -227 -56 -373s-89.666 -299 -156.999 -459
c19.333 -8 41.166 -15.167 65.499 -21.5s52.166 -12.166 83.499 -17.499l-6 -28c-22.667 2.66699 -46.667 6.83398 -72 12.501s-53.333 12.834 -84 21.501c-64.667 -150 -144.667 -261.833 -240 -335.5s-208.333 -110.5 -339 -110.5c-59.333 0 -120.833 6.66699 -184.5 20
s-130.5 33.333 -200.5 60zM754.003 1591c0 2.66699 18.167 13.5 54.5 32.5s64.5 42.833 84.5 71.5c10 14 20.167 38.667 30.5 74s24.833 53 43.5 53c10.667 0 19.5 -2.83301 26.5 -8.5s10.5 -12.834 10.5 -21.501c0 -18 -9 -39.167 -27 -63.5s-44 -49.833 -78 -76.5
c-24 -19.333 -49.833 -35.666 -77.5 -48.999s-46.167 -20 -55.5 -20c-4 0 -7 0.666992 -9 2s-3 3.33301 -3 6z" />
    <glyph glyph-name="Icircumflex" unicode="&#xce;" horiz-adv-x="973" 
d="M588 524c75.333 190.667 133.333 357.002 174 499.002s61 249.667 61 323c0 32 -3.83301 55.667 -11.5 71s-19.5 23 -35.5 23c-14 0 -30 -7.33301 -48 -22s-36 -35.334 -54 -62.001c-61.333 -88.667 -108.833 -181.334 -142.5 -278.001s-50.5 -189 -50.5 -277
c0 -67.333 8.5 -123 25.5 -167s44.167 -80.667 81.5 -110zM-313 78.002l39.0029 60.9961c72.667 -36 138.167 -63 196.5 -81s110.166 -27 155.499 -27c106.667 0 198.167 34.833 274.5 104.5s149.833 186.834 220.5 351.501c-56 39.333 -98.333 88.666 -127 147.999
s-43 128.333 -43 207c0 70 13.167 141.833 39.5 215.5s65.166 147.834 116.499 222.501c50 72 92 122.167 126 150.5s67.667 42.5 101 42.5c28 0 50.167 -14.667 66.5 -44s24.5 -69.333 24.5 -120c0 -102.667 -18.667 -227 -56 -373s-89.666 -299 -156.999 -459
c19.333 -8 41.166 -15.167 65.499 -21.5s52.166 -12.166 83.499 -17.499l-6 -28c-22.667 2.66699 -46.667 6.83398 -72 12.501s-53.333 12.834 -84 21.501c-64.667 -150 -144.667 -261.833 -240 -335.5s-208.333 -110.5 -339 -110.5c-59.333 0 -120.833 6.66699 -184.5 20
s-130.5 33.333 -200.5 60zM840.003 1718c-49.333 -46 -89.166 -81.333 -119.499 -106s-49.166 -37 -56.499 -37c-4.66699 0 -8.66699 1.66699 -12 5s-5 6.33301 -5 9c0 4 23.167 29.833 69.5 77.5s89.5 98.167 129.5 151.5h20c14.667 -68 40.667 -134 78 -198
c10 -16.667 15 -27 15 -31s-1.16699 -7 -3.5 -9s-5.5 -3 -9.5 -3c-8.66699 0 -21.834 11.5 -39.501 34.5s-39.834 58.5 -66.501 106.5z" />
    <glyph glyph-name="Idieresis" unicode="&#xcf;" horiz-adv-x="973" 
d="M588 524c75.333 190.667 133.333 357.002 174 499.002s61 249.667 61 323c0 32 -3.83301 55.667 -11.5 71s-19.5 23 -35.5 23c-14 0 -30 -7.33301 -48 -22s-36 -35.334 -54 -62.001c-61.333 -88.667 -108.833 -181.334 -142.5 -278.001s-50.5 -189 -50.5 -277
c0 -67.333 8.5 -123 25.5 -167s44.167 -80.667 81.5 -110zM-313 78.002l39.0029 60.9961c72.667 -36 138.167 -63 196.5 -81s110.166 -27 155.499 -27c106.667 0 198.167 34.833 274.5 104.5s149.833 186.834 220.5 351.501c-56 39.333 -98.333 88.666 -127 147.999
s-43 128.333 -43 207c0 70 13.167 141.833 39.5 215.5s65.166 147.834 116.499 222.501c50 72 92 122.167 126 150.5s67.667 42.5 101 42.5c28 0 50.167 -14.667 66.5 -44s24.5 -69.333 24.5 -120c0 -102.667 -18.667 -227 -56 -373s-89.666 -299 -156.999 -459
c19.333 -8 41.166 -15.167 65.499 -21.5s52.166 -12.166 83.499 -17.499l-6 -28c-22.667 2.66699 -46.667 6.83398 -72 12.501s-53.333 12.834 -84 21.501c-64.667 -150 -144.667 -261.833 -240 -335.5s-208.333 -110.5 -339 -110.5c-59.333 0 -120.833 6.66699 -184.5 20
s-130.5 33.333 -200.5 60zM879.003 1691c0 14 3.83496 24.999 11.502 32.999s18.167 12 31.5 12s24.166 -4.33301 32.499 -13s12.5 -20.667 12.5 -36c0 -11.333 -4 -20.666 -12 -27.999s-18.333 -11 -31 -11s-23.334 4.16699 -32.001 12.5s-13 18.5 -13 30.5zM686.005 1691
c0 14 3.99902 24.999 11.999 32.999s18.333 12 31 12c14 0 25 -4.33301 33 -13s12 -20.667 12 -36c0 -11.333 -4.16699 -20.666 -12.5 -27.999s-19.166 -11 -32.499 -11c-12 0 -22.167 4.16699 -30.5 12.5s-12.5 18.5 -12.5 30.5z" />
    <glyph glyph-name="Eth" unicode="&#xd0;" horiz-adv-x="1712" 
d="M1063 1161c-20.667 -69.333 -45.332 -146.333 -73.999 -231s-60.667 -174 -96 -268h266l-10 -37h-272c-46.667 -108.667 -96 -202.167 -148 -280.5s-109.333 -146.166 -172 -203.499c77.333 -25.333 149.833 -44.166 217.5 -56.499s133.167 -18.5 196.5 -18.5
c151.333 0 266.666 34.833 345.999 104.5s119 171.167 119 304.5c0 111.333 -32.833 227.666 -98.5 348.999s-157.167 233.666 -274.5 336.999zM428.002 100c-51.333 18 -99.999 31.501 -145.999 40.501s-89.333 13.5 -130 13.5c-62 0 -109.333 -6.83301 -142 -20.5
s-49 -32.834 -49 -57.501c0 -22 16.167 -40.167 48.5 -54.5s74.833 -21.5 127.5 -21.5c52 -0 102.167 8.33301 150.5 25s95.166 41.667 140.499 75zM492.003 78.001c-55.333 -36.667 -111.669 -64.3311 -169.002 -82.998s-115 -28 -173 -28c-76 0 -136 10.5 -180 31.5
s-66 48.833 -66 83.5c0 38 25.167 69.333 75.5 94s116.5 37 198.5 37c44.667 0 92.167 -4 142.5 -12s110.833 -21.667 181.5 -41c59.333 63.333 113.166 133.666 161.499 210.999s91.5 162 129.5 254h-203l10 37h207l111.5 295.5c33.667 93.667 62.834 180.167 87.501 259.5
c-102 75.333 -204.167 132.666 -306.5 171.999s-201.166 59 -296.499 59c-65.333 0 -115.666 -12.167 -150.999 -36.5s-53 -58.5 -53 -102.5c0 -47.333 19.5 -98.166 58.5 -152.499s100.5 -116.166 184.5 -185.499l-75 -37c-74 67.333 -129.5 130.666 -166.5 189.999
s-55.5 114.666 -55.5 165.999c0 60 23.5 106.5 70.5 139.5s113.833 49.5 200.5 49.5c106.667 0 211.167 -16.167 313.5 -48.5s202.5 -80.5 300.5 -144.5l45 135l88 31l-71 -213c133.333 -111.333 233.833 -225.5 301.5 -342.5s101.5 -235.5 101.5 -355.5
c0 -166.667 -51 -300.167 -153 -400.5s-238 -150.5 -408 -150.5c-68 0 -138.167 7.16699 -210.5 21.5s-149.5 36.5 -231.5 66.5z" />
    <glyph glyph-name="Ntilde" unicode="&#xd1;" horiz-adv-x="1200" 
d="M94 0l-80.002 0.000976562c120.667 396 215 716.333 283 961s102 384.334 102 419.001c0 15.333 -2.16699 27.5 -6.5 36.5s-10.166 13.5 -17.499 13.5c-28 0 -74.333 -55.333 -139 -166s-131 -252 -199 -424l-60 61c84.667 178.667 161.834 317.5 231.501 416.5
s124.5 148.5 164.5 148.5c24.667 0 44.5 -9.66699 59.5 -29s22.5 -45.666 22.5 -78.999c0 -62 -28.833 -203.833 -86.5 -425.5s-134.834 -482.5 -231.501 -782.5c215.333 431.333 393.833 746.666 535.5 945.999s257.5 299 347.5 299c32.667 0 58.834 -11.833 78.501 -35.5
s29.5 -54.834 29.5 -93.501c0 -44 -11.833 -111.833 -35.5 -203.5s-64.834 -226.834 -123.501 -405.501l-61 -185c-104 -315.333 -170.333 -540.333 -199 -675l-76 62c20 110.667 84.333 321.334 193 632.001l83 238c58.667 172 100.334 301.333 125.001 388
s37 145.667 37 177c0 17.333 -7.33301 32.666 -22 45.999s-32 20 -52 20c-75.333 0 -188.333 -113.333 -339 -340s-338.667 -566.667 -564 -1020zM687.998 1620l-16.001 3.99902c1.33301 42.667 9.33301 74.834 24 96.501s36 32.5 64 32.5c20.667 0 55.334 -11 104.001 -33
s83.667 -33 105 -33c13.333 0 25.833 8 37.5 24s21.167 37.333 28.5 64h20c-4 -45.333 -13.833 -79.833 -29.5 -103.5s-36.5 -35.5 -62.5 -35.5c-22.667 0 -59.167 11 -109.5 33s-84.833 33 -103.5 33c-16.667 0 -30 -6.83301 -40 -20.5s-17.333 -34.167 -22 -61.5z" />
    <glyph glyph-name="Ograve" unicode="&#xd2;" horiz-adv-x="1341" 
d="M1124 989c0 136.667 -32.832 245.001 -98.499 325.001s-154.834 120 -267.501 120c-70 0 -138.833 -15.333 -206.5 -46s-131.5 -75.667 -191.5 -135c-102 -100 -183 -221.333 -243 -364s-90 -284.667 -90 -426c0 -130 36 -236.667 108 -320s164.333 -125 277 -125
c88 0 177.5 30.833 268.5 92.5s173.5 147.834 247.5 258.501c62.667 93.333 111 193.666 145 300.999s51 213.666 51 318.999zM-58.999 539.001c0 106.667 18.1699 212 54.5029 316s89.166 200.667 158.499 290c78 102.667 168.167 181.5 270.5 236.5
s209.166 82.5 320.499 82.5c145.333 0 262.333 -49.667 351 -149s133 -230.333 133 -393c0 -108.667 -22 -219.5 -66 -332.5s-105.333 -215.167 -184 -306.5c-82.667 -97.333 -171.167 -170.5 -265.5 -219.5s-192.833 -73.5 -295.5 -73.5
c-146.667 0 -262.834 49 -348.501 147s-128.5 232 -128.5 402zM871.004 1583c-10 0 -25.332 6.83301 -45.999 20.5s-42.334 31.5 -65.001 53.5c-28.667 27.333 -50.167 52.166 -64.5 74.499s-21.5 41.833 -21.5 58.5c0 12 3.33301 21.5 10 28.5s15.667 10.5 27 10.5
c20 0 34.333 -19.333 43 -58c5.33301 -24 10.666 -42.333 15.999 -55c17.333 -37.333 39.5 -67.333 66.5 -90s40.5 -35 40.5 -37c0 -1.33301 -0.666992 -2.66602 -2 -3.99902s-2.66602 -2 -3.99902 -2z" />
    <glyph glyph-name="Oacute" unicode="&#xd3;" horiz-adv-x="1341" 
d="M1124 989c0 136.667 -32.832 245.001 -98.499 325.001s-154.834 120 -267.501 120c-70 0 -138.833 -15.333 -206.5 -46s-131.5 -75.667 -191.5 -135c-102 -100 -183 -221.333 -243 -364s-90 -284.667 -90 -426c0 -130 36 -236.667 108 -320s164.333 -125 277 -125
c88 0 177.5 30.833 268.5 92.5s173.5 147.834 247.5 258.501c62.667 93.333 111 193.666 145 300.999s51 213.666 51 318.999zM-58.999 539.001c0 106.667 18.1699 212 54.5029 316s89.166 200.667 158.499 290c78 102.667 168.167 181.5 270.5 236.5
s209.166 82.5 320.499 82.5c145.333 0 262.333 -49.667 351 -149s133 -230.333 133 -393c0 -108.667 -22 -219.5 -66 -332.5s-105.333 -215.167 -184 -306.5c-82.667 -97.333 -171.167 -170.5 -265.5 -219.5s-192.833 -73.5 -295.5 -73.5
c-146.667 0 -262.834 49 -348.501 147s-128.5 232 -128.5 402zM746.004 1591c0 2.66699 18.167 13.5 54.5 32.5s64.5 42.833 84.5 71.5c10 14 20.167 38.667 30.5 74s24.833 53 43.5 53c10.667 0 19.5 -2.83301 26.5 -8.5s10.5 -12.834 10.5 -21.501
c0 -18 -9 -39.167 -27 -63.5s-44 -49.833 -78 -76.5c-24 -19.333 -49.833 -35.666 -77.5 -48.999s-46.167 -20 -55.5 -20c-4 0 -7 0.666992 -9 2s-3 3.33301 -3 6z" />
    <glyph glyph-name="Ocircumflex" unicode="&#xd4;" horiz-adv-x="1341" 
d="M1124 989c0 136.667 -32.832 245.001 -98.499 325.001s-154.834 120 -267.501 120c-70 0 -138.833 -15.333 -206.5 -46s-131.5 -75.667 -191.5 -135c-102 -100 -183 -221.333 -243 -364s-90 -284.667 -90 -426c0 -130 36 -236.667 108 -320s164.333 -125 277 -125
c88 0 177.5 30.833 268.5 92.5s173.5 147.834 247.5 258.501c62.667 93.333 111 193.666 145 300.999s51 213.666 51 318.999zM-58.999 539.001c0 106.667 18.1699 212 54.5029 316s89.166 200.667 158.499 290c78 102.667 168.167 181.5 270.5 236.5
s209.166 82.5 320.499 82.5c145.333 0 262.333 -49.667 351 -149s133 -230.333 133 -393c0 -108.667 -22 -219.5 -66 -332.5s-105.333 -215.167 -184 -306.5c-82.667 -97.333 -171.167 -170.5 -265.5 -219.5s-192.833 -73.5 -295.5 -73.5
c-146.667 0 -262.834 49 -348.501 147s-128.5 232 -128.5 402zM832.004 1718c-49.333 -46 -89.166 -81.333 -119.499 -106s-49.166 -37 -56.499 -37c-4.66699 0 -8.66699 1.66699 -12 5s-5 6.33301 -5 9c0 4 23.167 29.833 69.5 77.5s89.5 98.167 129.5 151.5h20
c14.667 -68 40.667 -134 78 -198c10 -16.667 15 -27 15 -31s-1.16699 -7 -3.5 -9s-5.5 -3 -9.5 -3c-8.66699 0 -21.834 11.5 -39.501 34.5s-39.834 58.5 -66.501 106.5z" />
    <glyph glyph-name="Otilde" unicode="&#xd5;" horiz-adv-x="1341" 
d="M1124 989c0 136.667 -32.832 245.001 -98.499 325.001s-154.834 120 -267.501 120c-70 0 -138.833 -15.333 -206.5 -46s-131.5 -75.667 -191.5 -135c-102 -100 -183 -221.333 -243 -364s-90 -284.667 -90 -426c0 -130 36 -236.667 108 -320s164.333 -125 277 -125
c88 0 177.5 30.833 268.5 92.5s173.5 147.834 247.5 258.501c62.667 93.333 111 193.666 145 300.999s51 213.666 51 318.999zM-58.999 539.001c0 106.667 18.1699 212 54.5029 316s89.166 200.667 158.499 290c78 102.667 168.167 181.5 270.5 236.5
s209.166 82.5 320.499 82.5c145.333 0 262.333 -49.667 351 -149s133 -230.333 133 -393c0 -108.667 -22 -219.5 -66 -332.5s-105.333 -215.167 -184 -306.5c-82.667 -97.333 -171.167 -170.5 -265.5 -219.5s-192.833 -73.5 -295.5 -73.5
c-146.667 0 -262.834 49 -348.501 147s-128.5 232 -128.5 402zM647.004 1620l-16.001 3.99902c1.33301 42.667 9.33301 74.834 24 96.501s36 32.5 64 32.5c20.667 0 55.334 -11 104.001 -33s83.667 -33 105 -33c13.333 0 25.833 8 37.5 24s21.167 37.333 28.5 64h20
c-4 -45.333 -13.833 -79.833 -29.5 -103.5s-36.5 -35.5 -62.5 -35.5c-22.667 0 -59.167 11 -109.5 33s-84.833 33 -103.5 33c-16.667 0 -30 -6.83301 -40 -20.5s-17.333 -34.167 -22 -61.5z" />
    <glyph glyph-name="Odieresis" unicode="&#xd6;" horiz-adv-x="1341" 
d="M1124 989c0 136.667 -32.832 245.001 -98.499 325.001s-154.834 120 -267.501 120c-70 0 -138.833 -15.333 -206.5 -46s-131.5 -75.667 -191.5 -135c-102 -100 -183 -221.333 -243 -364s-90 -284.667 -90 -426c0 -130 36 -236.667 108 -320s164.333 -125 277 -125
c88 0 177.5 30.833 268.5 92.5s173.5 147.834 247.5 258.501c62.667 93.333 111 193.666 145 300.999s51 213.666 51 318.999zM-58.999 539.001c0 106.667 18.1699 212 54.5029 316s89.166 200.667 158.499 290c78 102.667 168.167 181.5 270.5 236.5
s209.166 82.5 320.499 82.5c145.333 0 262.333 -49.667 351 -149s133 -230.333 133 -393c0 -108.667 -22 -219.5 -66 -332.5s-105.333 -215.167 -184 -306.5c-82.667 -97.333 -171.167 -170.5 -265.5 -219.5s-192.833 -73.5 -295.5 -73.5
c-146.667 0 -262.834 49 -348.501 147s-128.5 232 -128.5 402zM871.004 1691c0 14 3.83496 24.999 11.502 32.999s18.167 12 31.5 12s24.166 -4.33301 32.499 -13s12.5 -20.667 12.5 -36c0 -11.333 -4 -20.666 -12 -27.999s-18.333 -11 -31 -11
s-23.334 4.16699 -32.001 12.5s-13 18.5 -13 30.5zM678.006 1691c0 14 3.99902 24.999 11.999 32.999s18.333 12 31 12c14 0 25 -4.33301 33 -13s12 -20.667 12 -36c0 -11.333 -4.16699 -20.666 -12.5 -27.999s-19.166 -11 -32.499 -11c-12 0 -22.167 4.16699 -30.5 12.5
s-12.5 18.5 -12.5 30.5z" />
    <glyph glyph-name="multiply" unicode="&#xd7;" horiz-adv-x="1706" 
d="M367 1155l487 -487l487 487l58 -57l-488 -488l488 -487l-58 -57l-487 487l-487 -487l-58 57l488 487l-488 488z" />
    <glyph glyph-name="Oslash" unicode="&#xd8;" horiz-adv-x="1341" 
d="M1044 1288l-902.998 -1147c31.333 -39.333 70.166 -69.666 116.499 -90.999s97.833 -32 154.5 -32c87.333 0 176.666 31 267.999 93s174 148 248 258c62.667 92.667 111 192.834 145 300.501s51 213.5 51 317.5c0 58 -6.5 111.667 -19.5 161s-33.167 96 -60.5 140z
M111.002 175.998l906.999 1145c-30.667 38 -67.167 66.333 -109.5 85s-92.5 28 -150.5 28c-70 0 -138.833 -15.333 -206.5 -46s-131.5 -75.667 -191.5 -135c-102 -100 -183 -221.333 -243 -364s-90 -284.667 -90 -426c0 -54 6.83301 -104.333 20.5 -151
s34.834 -92 63.501 -136zM78.001 124.998c-46.667 53.333 -81.168 115.001 -103.501 185.001s-33.5 150.333 -33.5 241c0 124.667 26.833 248.667 80.5 372s127.834 231.333 222.501 324c72.667 70.667 151.834 124.5 237.501 161.5s173.5 55.5 263.5 55.5
c62 0 118.167 -8.5 168.5 -25.5s96.833 -43.167 139.5 -78.5l184 242h49l-203 -273c46.667 -54.667 82.667 -115.667 108 -183s38 -136 38 -206c0 -116.667 -21.667 -231.834 -65 -345.501s-105 -217.5 -185 -311.5c-82.667 -98 -170.834 -171.333 -264.501 -220
s-193.167 -73 -298.5 -73c-62 0 -117.5 8.5 -166.5 25.5s-94.5 43.833 -136.5 80.5l-250 -317l-49 4z" />
    <glyph glyph-name="Ugrave" unicode="&#xd9;" horiz-adv-x="1233" 
d="M63 999l-59.002 54.002c69.333 134.667 135.5 238.334 198.5 311.001s118.5 109 166.5 109c22.667 0 40.5 -9.5 53.5 -28.5s19.5 -45.167 19.5 -78.5c0 -62.667 -41 -223.334 -123 -482.001l-10 -32c-59.333 -188.667 -103.5 -337.5 -132.5 -446.5
s-43.5 -182.167 -43.5 -219.5c0 -46 10.167 -80.333 30.5 -103s51.166 -34 92.499 -34c119.333 0 251.833 119.5 397.5 358.5s290.167 576.167 433.5 1011.5l97 19c-89.333 -266.667 -165 -519 -227 -757s-112 -465.667 -150 -683l-82 49c26.667 142 57.834 286 93.501 432
s76.167 295.667 121.5 449c-131.333 -314 -255.666 -548.167 -372.999 -702.5s-230 -231.5 -338 -231.5c-56.667 0 -100.5 18 -131.5 54s-46.5 87 -46.5 153c0 46 11.833 116.167 35.5 210.5s61.834 224.166 114.501 389.499l97 296c55.333 164.667 83 257.667 83 279
c0 15.333 -3.33301 28.166 -10 38.499s-15 15.5 -25 15.5c-24 0 -59.833 -36.167 -107.5 -108.5s-106.167 -179.833 -175.5 -322.5zM882.998 1583c-10 0 -25.332 6.83301 -45.999 20.5s-42.334 31.5 -65.001 53.5c-28.667 27.333 -50.167 52.166 -64.5 74.499
s-21.5 41.833 -21.5 58.5c0 12 3.33301 21.5 10 28.5s15.667 10.5 27 10.5c20 0 34.333 -19.333 43 -58c5.33301 -24 10.666 -42.333 15.999 -55c17.333 -37.333 39.5 -67.333 66.5 -90s40.5 -35 40.5 -37c0 -1.33301 -0.666992 -2.66602 -2 -3.99902
s-2.66602 -2 -3.99902 -2z" />
    <glyph glyph-name="Uacute" unicode="&#xda;" horiz-adv-x="1233" 
d="M63 999l-59.002 54.002c69.333 134.667 135.5 238.334 198.5 311.001s118.5 109 166.5 109c22.667 0 40.5 -9.5 53.5 -28.5s19.5 -45.167 19.5 -78.5c0 -62.667 -41 -223.334 -123 -482.001l-10 -32c-59.333 -188.667 -103.5 -337.5 -132.5 -446.5
s-43.5 -182.167 -43.5 -219.5c0 -46 10.167 -80.333 30.5 -103s51.166 -34 92.499 -34c119.333 0 251.833 119.5 397.5 358.5s290.167 576.167 433.5 1011.5l97 19c-89.333 -266.667 -165 -519 -227 -757s-112 -465.667 -150 -683l-82 49c26.667 142 57.834 286 93.501 432
s76.167 295.667 121.5 449c-131.333 -314 -255.666 -548.167 -372.999 -702.5s-230 -231.5 -338 -231.5c-56.667 0 -100.5 18 -131.5 54s-46.5 87 -46.5 153c0 46 11.833 116.167 35.5 210.5s61.834 224.166 114.501 389.499l97 296c55.333 164.667 83 257.667 83 279
c0 15.333 -3.33301 28.166 -10 38.499s-15 15.5 -25 15.5c-24 0 -59.833 -36.167 -107.5 -108.5s-106.167 -179.833 -175.5 -322.5zM757.998 1591c0 2.66699 18.167 13.5 54.5 32.5s64.5 42.833 84.5 71.5c10 14 20.167 38.667 30.5 74s24.833 53 43.5 53
c10.667 0 19.5 -2.83301 26.5 -8.5s10.5 -12.834 10.5 -21.501c0 -18 -9 -39.167 -27 -63.5s-44 -49.833 -78 -76.5c-24 -19.333 -49.833 -35.666 -77.5 -48.999s-46.167 -20 -55.5 -20c-4 0 -7 0.666992 -9 2s-3 3.33301 -3 6z" />
    <glyph glyph-name="Ucircumflex" unicode="&#xdb;" horiz-adv-x="1233" 
d="M63 999l-59.002 54.002c69.333 134.667 135.5 238.334 198.5 311.001s118.5 109 166.5 109c22.667 0 40.5 -9.5 53.5 -28.5s19.5 -45.167 19.5 -78.5c0 -62.667 -41 -223.334 -123 -482.001l-10 -32c-59.333 -188.667 -103.5 -337.5 -132.5 -446.5
s-43.5 -182.167 -43.5 -219.5c0 -46 10.167 -80.333 30.5 -103s51.166 -34 92.499 -34c119.333 0 251.833 119.5 397.5 358.5s290.167 576.167 433.5 1011.5l97 19c-89.333 -266.667 -165 -519 -227 -757s-112 -465.667 -150 -683l-82 49c26.667 142 57.834 286 93.501 432
s76.167 295.667 121.5 449c-131.333 -314 -255.666 -548.167 -372.999 -702.5s-230 -231.5 -338 -231.5c-56.667 0 -100.5 18 -131.5 54s-46.5 87 -46.5 153c0 46 11.833 116.167 35.5 210.5s61.834 224.166 114.501 389.499l97 296c55.333 164.667 83 257.667 83 279
c0 15.333 -3.33301 28.166 -10 38.499s-15 15.5 -25 15.5c-24 0 -59.833 -36.167 -107.5 -108.5s-106.167 -179.833 -175.5 -322.5zM843.998 1718c-49.333 -46 -89.166 -81.333 -119.499 -106s-49.166 -37 -56.499 -37c-4.66699 0 -8.66699 1.66699 -12 5s-5 6.33301 -5 9
c0 4 23.167 29.833 69.5 77.5s89.5 98.167 129.5 151.5h20c14.667 -68 40.667 -134 78 -198c10 -16.667 15 -27 15 -31s-1.16699 -7 -3.5 -9s-5.5 -3 -9.5 -3c-8.66699 0 -21.834 11.5 -39.501 34.5s-39.834 58.5 -66.501 106.5z" />
    <glyph glyph-name="Udieresis" unicode="&#xdc;" horiz-adv-x="1233" 
d="M63 999l-59.002 54.002c69.333 134.667 135.5 238.334 198.5 311.001s118.5 109 166.5 109c22.667 0 40.5 -9.5 53.5 -28.5s19.5 -45.167 19.5 -78.5c0 -62.667 -41 -223.334 -123 -482.001l-10 -32c-59.333 -188.667 -103.5 -337.5 -132.5 -446.5
s-43.5 -182.167 -43.5 -219.5c0 -46 10.167 -80.333 30.5 -103s51.166 -34 92.499 -34c119.333 0 251.833 119.5 397.5 358.5s290.167 576.167 433.5 1011.5l97 19c-89.333 -266.667 -165 -519 -227 -757s-112 -465.667 -150 -683l-82 49c26.667 142 57.834 286 93.501 432
s76.167 295.667 121.5 449c-131.333 -314 -255.666 -548.167 -372.999 -702.5s-230 -231.5 -338 -231.5c-56.667 0 -100.5 18 -131.5 54s-46.5 87 -46.5 153c0 46 11.833 116.167 35.5 210.5s61.834 224.166 114.501 389.499l97 296c55.333 164.667 83 257.667 83 279
c0 15.333 -3.33301 28.166 -10 38.499s-15 15.5 -25 15.5c-24 0 -59.833 -36.167 -107.5 -108.5s-106.167 -179.833 -175.5 -322.5zM882.998 1691c0 14 3.83496 24.999 11.502 32.999s18.167 12 31.5 12s24.166 -4.33301 32.499 -13s12.5 -20.667 12.5 -36
c0 -11.333 -4 -20.666 -12 -27.999s-18.333 -11 -31 -11s-23.334 4.16699 -32.001 12.5s-13 18.5 -13 30.5zM690 1691c0 14 3.99902 24.999 11.999 32.999s18.333 12 31 12c14 0 25 -4.33301 33 -13s12 -20.667 12 -36c0 -11.333 -4.16699 -20.666 -12.5 -27.999
s-19.166 -11 -32.499 -11c-12 0 -22.167 4.16699 -30.5 12.5s-12.5 18.5 -12.5 30.5z" />
    <glyph glyph-name="Yacute" unicode="&#xdd;" horiz-adv-x="1190" 
d="M-119 -457l38.999 76c54.667 -17.333 103.167 -30.166 145.5 -38.499s80.5 -12.5 114.5 -12.5c97.333 0 176.833 27.833 238.5 83.5s134.5 176.5 218.5 362.5c56.667 126 115.334 278.5 176.001 457.5s125 389.833 193 632.5c-188.667 -360 -357.667 -634 -507 -822
s-273.333 -282 -372 -282c-41.333 0 -71.833 12.333 -91.5 37s-29.5 63.667 -29.5 117c0 40.667 13 110 39 208s63 216.333 111 355l78 224c91.333 260.667 137 412 137 454c0 9.33301 -1.83301 17 -5.5 23s-8.83398 9 -15.501 9c-26 0 -64 -35 -114 -105
s-113 -177 -189 -321l-51 72c80 133.333 149.5 231.5 208.5 294.5s110.167 94.5 153.5 94.5c18 0 34.167 -9 48.5 -27s21.5 -39 21.5 -63c0 -78 -75.667 -346 -227 -804l-23 -68c-32 -98 -56.667 -181.667 -74 -251s-26 -118.333 -26 -147c0 -22.667 5 -39.5 15 -50.5
s25.333 -16.5 46 -16.5c96.667 0 235 124.5 415 373.5s363.333 575.833 550 980.5l86 8c-94.667 -332 -180.5 -612.833 -257.5 -842.5s-142.833 -400.834 -197.5 -513.501c-97.333 -200.667 -194.166 -337.5 -290.499 -410.5s-220.5 -109.5 -372.5 -109.5
c-28 0 -57.667 1.83301 -89 5.5s-65.333 9.16699 -102 16.5zM861.999 1591c0 2.66699 18.167 13.5 54.5 32.5s64.5 42.833 84.5 71.5c10 14 20.167 38.667 30.5 74s24.833 53 43.5 53c10.667 0 19.5 -2.83301 26.5 -8.5s10.5 -12.834 10.5 -21.501
c0 -18 -9 -39.167 -27 -63.5s-44 -49.833 -78 -76.5c-24 -19.333 -49.833 -35.666 -77.5 -48.999s-46.167 -20 -55.5 -20c-4 0 -7 0.666992 -9 2s-3 3.33301 -3 6z" />
    <glyph glyph-name="Thorn" unicode="&#xde;" horiz-adv-x="1010" 
d="M109 631c98.667 198.667 198.836 349.336 300.503 452.003s201.5 154 299.5 154c68.667 0 123.667 -24.667 165 -74s62 -116 62 -200c0 -98.667 -25.167 -198 -75.5 -298s-123.5 -196 -219.5 -288c-84.667 -82 -176.5 -147.5 -275.5 -196.5
s-207.833 -83.167 -326.5 -102.5l24 80h19c91.333 0 174.666 15 249.999 45s145 75.667 209 137c49.333 47.333 93.166 99.5 131.499 156.5s71.5 119.5 99.5 187.5c24 59.333 42.333 115.166 55 167.499s19 98.166 19 137.499c0 65.333 -14.833 116.5 -44.5 153.5
s-70.167 55.5 -121.5 55.5c-84.667 0 -181 -61.167 -289 -183.5s-207.667 -285.166 -299 -488.499c-20 -44 -56.167 -150 -108.5 -318s-96.833 -305 -133.5 -411l-71 66c119.333 345.333 210.666 641.166 273.999 887.499s103 460.5 119 642.5l90 41
c0 -55.333 -11 -141.333 -33 -258s-62 -298.334 -120 -545.001z" />
    <glyph glyph-name="germandbls" unicode="&#xdf;" horiz-adv-x="631" 
d="M-270 -422l-109 -47.002c38 84.667 81.167 201.5 129.5 350.5s117.166 378.833 206.499 689.5c87.333 303.333 165.666 528.333 234.999 675s131.666 220 186.999 220c23.333 0 41.5 -10.5 54.5 -31.5s19.5 -50.5 19.5 -88.5c0 -59.333 -12.333 -130.166 -37 -212.499
s-59.667 -167.833 -105 -256.5c-30 -59.333 -69.5 -125.166 -118.5 -197.499s-73.5 -117.166 -73.5 -134.499c0 -15.333 14.833 -38.333 44.5 -69s53.834 -59 72.501 -85c23.333 -32 41 -65 53 -99s18 -68 18 -102c0 -56.667 -22.667 -104.5 -68 -143.5
s-102.333 -58.5 -171 -58.5c-42.667 0 -76.334 6.66699 -101.001 20s-37 31.666 -37 54.999c0 13.333 4.5 24.333 13.5 33s20.167 13 33.5 13c14 0 33.833 -15.167 59.5 -45.5s48.834 -45.5 69.501 -45.5c28.667 0 53.667 14.667 75 44s32 65.333 32 108
c0 28.667 -4.33301 56.667 -13 84s-24.667 60 -48 98c-9.33301 14.667 -22.666 34 -39.999 58c-32.667 44.667 -49 78 -49 100c0 20 26 69.667 78 149s93 149 123 209c54 107.333 93.5 201.5 118.5 282.5s37.5 155.5 37.5 223.5c0 20.667 -3.16699 36.167 -9.5 46.5
s-15.5 15.5 -27.5 15.5c-59.333 0 -186.666 -321.667 -381.999 -965l-5 -16z" />
    <glyph glyph-name="agrave" unicode="&#xe0;" horiz-adv-x="602" 
d="M340 158l4.00293 -26.998c-35.333 -40.667 -70.5 -73 -105.5 -97s-63.833 -36 -86.5 -36c-19.333 0 -34.166 5.5 -44.499 16.5s-15.5 26.5 -15.5 46.5s3.66699 44.667 11 74s20 68.333 38 117c-53.333 -79.333 -104.333 -141.5 -153 -186.5s-88.334 -67.5 -119.001 -67.5
c-28.667 0 -51.834 9.83301 -69.501 29.5s-26.5 45.167 -26.5 76.5c0 28 9.83301 61.667 29.5 101s47.167 79.666 82.5 120.999c36.667 42 73.5 73.667 110.5 95s74.833 32 113.5 32c13.333 0 36 -2.66699 68 -8c2 0 3.66699 -0.333008 5 -1l-20 -41
c-18 8 -32.667 13.5 -44 16.5s-22 4.5 -32 4.5c-20.667 0 -41 -5.16699 -61 -15.5s-38.667 -24.833 -56 -43.5c-35.333 -41.333 -63.5 -84.5 -84.5 -129.5s-31.5 -83.833 -31.5 -116.5c0 -21.333 4.16699 -37 12.5 -47s21.833 -15 40.5 -15c38 0 84.333 33.667 139 101
s112 161.333 172 282l66 4l-107 -313c-2.66699 -9.33301 -4.66699 -17.333 -6 -24s-2 -12.334 -2 -17.001c0 -9.33301 2.66699 -17.5 8 -24.5s11.666 -10.5 18.999 -10.5c15.333 0 35.666 9 60.999 27s53.333 43.333 84 76zM234.003 547.002
c-10 0 -25.332 6.83301 -45.999 20.5s-42.334 31.5 -65.001 53.5c-28.667 27.333 -50.167 52.166 -64.5 74.499s-21.5 41.833 -21.5 58.5c0 12 3.33301 21.5 10 28.5s15.667 10.5 27 10.5c20 0 34.333 -19.333 43 -58c5.33301 -24 10.666 -42.333 15.999 -55
c17.333 -37.333 39.5 -67.333 66.5 -90s40.5 -35 40.5 -37c0 -1.33301 -0.666992 -2.66602 -2 -3.99902s-2.66602 -2 -3.99902 -2z" />
    <glyph glyph-name="aacute" unicode="&#xe1;" horiz-adv-x="602" 
d="M340 158l4.00293 -26.998c-35.333 -40.667 -70.5 -73 -105.5 -97s-63.833 -36 -86.5 -36c-19.333 0 -34.166 5.5 -44.499 16.5s-15.5 26.5 -15.5 46.5s3.66699 44.667 11 74s20 68.333 38 117c-53.333 -79.333 -104.333 -141.5 -153 -186.5s-88.334 -67.5 -119.001 -67.5
c-28.667 0 -51.834 9.83301 -69.501 29.5s-26.5 45.167 -26.5 76.5c0 28 9.83301 61.667 29.5 101s47.167 79.666 82.5 120.999c36.667 42 73.5 73.667 110.5 95s74.833 32 113.5 32c13.333 0 36 -2.66699 68 -8c2 0 3.66699 -0.333008 5 -1l-20 -41
c-18 8 -32.667 13.5 -44 16.5s-22 4.5 -32 4.5c-20.667 0 -41 -5.16699 -61 -15.5s-38.667 -24.833 -56 -43.5c-35.333 -41.333 -63.5 -84.5 -84.5 -129.5s-31.5 -83.833 -31.5 -116.5c0 -21.333 4.16699 -37 12.5 -47s21.833 -15 40.5 -15c38 0 84.333 33.667 139 101
s112 161.333 172 282l66 4l-107 -313c-2.66699 -9.33301 -4.66699 -17.333 -6 -24s-2 -12.334 -2 -17.001c0 -9.33301 2.66699 -17.5 8 -24.5s11.666 -10.5 18.999 -10.5c15.333 0 35.666 9 60.999 27s53.333 43.333 84 76zM109.003 555.002
c0 2.66699 18.167 13.5 54.5 32.5s64.5 42.833 84.5 71.5c10 14 20.167 38.667 30.5 74s24.833 53 43.5 53c10.667 0 19.5 -2.83301 26.5 -8.5s10.5 -12.834 10.5 -21.501c0 -18 -9 -39.167 -27 -63.5s-44 -49.833 -78 -76.5c-24 -19.333 -49.833 -35.666 -77.5 -48.999
s-46.167 -20 -55.5 -20c-4 0 -7 0.666992 -9 2s-3 3.33301 -3 6z" />
    <glyph glyph-name="acircumflex" unicode="&#xe2;" horiz-adv-x="602" 
d="M340 158l4.00293 -26.998c-35.333 -40.667 -70.5 -73 -105.5 -97s-63.833 -36 -86.5 -36c-19.333 0 -34.166 5.5 -44.499 16.5s-15.5 26.5 -15.5 46.5s3.66699 44.667 11 74s20 68.333 38 117c-53.333 -79.333 -104.333 -141.5 -153 -186.5s-88.334 -67.5 -119.001 -67.5
c-28.667 0 -51.834 9.83301 -69.501 29.5s-26.5 45.167 -26.5 76.5c0 28 9.83301 61.667 29.5 101s47.167 79.666 82.5 120.999c36.667 42 73.5 73.667 110.5 95s74.833 32 113.5 32c13.333 0 36 -2.66699 68 -8c2 0 3.66699 -0.333008 5 -1l-20 -41
c-18 8 -32.667 13.5 -44 16.5s-22 4.5 -32 4.5c-20.667 0 -41 -5.16699 -61 -15.5s-38.667 -24.833 -56 -43.5c-35.333 -41.333 -63.5 -84.5 -84.5 -129.5s-31.5 -83.833 -31.5 -116.5c0 -21.333 4.16699 -37 12.5 -47s21.833 -15 40.5 -15c38 0 84.333 33.667 139 101
s112 161.333 172 282l66 4l-107 -313c-2.66699 -9.33301 -4.66699 -17.333 -6 -24s-2 -12.334 -2 -17.001c0 -9.33301 2.66699 -17.5 8 -24.5s11.666 -10.5 18.999 -10.5c15.333 0 35.666 9 60.999 27s53.333 43.333 84 76zM195.003 682.002
c-49.333 -46 -89.166 -81.333 -119.499 -106s-49.166 -37 -56.499 -37c-4.66699 0 -8.66699 1.66699 -12 5s-5 6.33301 -5 9c0 4 23.167 29.833 69.5 77.5s89.5 98.167 129.5 151.5h20c14.667 -68 40.667 -134 78 -198c10 -16.667 15 -27 15 -31s-1.16699 -7 -3.5 -9
s-5.5 -3 -9.5 -3c-8.66699 0 -21.834 11.5 -39.501 34.5s-39.834 58.5 -66.501 106.5z" />
    <glyph glyph-name="atilde" unicode="&#xe3;" horiz-adv-x="602" 
d="M340 158l4.00293 -26.998c-35.333 -40.667 -70.5 -73 -105.5 -97s-63.833 -36 -86.5 -36c-19.333 0 -34.166 5.5 -44.499 16.5s-15.5 26.5 -15.5 46.5s3.66699 44.667 11 74s20 68.333 38 117c-53.333 -79.333 -104.333 -141.5 -153 -186.5s-88.334 -67.5 -119.001 -67.5
c-28.667 0 -51.834 9.83301 -69.501 29.5s-26.5 45.167 -26.5 76.5c0 28 9.83301 61.667 29.5 101s47.167 79.666 82.5 120.999c36.667 42 73.5 73.667 110.5 95s74.833 32 113.5 32c13.333 0 36 -2.66699 68 -8c2 0 3.66699 -0.333008 5 -1l-20 -41
c-18 8 -32.667 13.5 -44 16.5s-22 4.5 -32 4.5c-20.667 0 -41 -5.16699 -61 -15.5s-38.667 -24.833 -56 -43.5c-35.333 -41.333 -63.5 -84.5 -84.5 -129.5s-31.5 -83.833 -31.5 -116.5c0 -21.333 4.16699 -37 12.5 -47s21.833 -15 40.5 -15c38 0 84.333 33.667 139 101
s112 161.333 172 282l66 4l-107 -313c-2.66699 -9.33301 -4.66699 -17.333 -6 -24s-2 -12.334 -2 -17.001c0 -9.33301 2.66699 -17.5 8 -24.5s11.666 -10.5 18.999 -10.5c15.333 0 35.666 9 60.999 27s53.333 43.333 84 76zM10.0029 584.002l-16.001 3.99902
c1.33301 42.667 9.33301 74.834 24 96.501s36 32.5 64 32.5c20.667 0 55.334 -11 104.001 -33s83.667 -33 105 -33c13.333 0 25.833 8 37.5 24s21.167 37.333 28.5 64h20c-4 -45.333 -13.833 -79.833 -29.5 -103.5s-36.5 -35.5 -62.5 -35.5c-22.667 0 -59.167 11 -109.5 33
s-84.833 33 -103.5 33c-16.667 0 -30 -6.83301 -40 -20.5s-17.333 -34.167 -22 -61.5z" />
    <glyph glyph-name="adieresis" unicode="&#xe4;" horiz-adv-x="602" 
d="M340 158l4.00293 -26.998c-35.333 -40.667 -70.5 -73 -105.5 -97s-63.833 -36 -86.5 -36c-19.333 0 -34.166 5.5 -44.499 16.5s-15.5 26.5 -15.5 46.5s3.66699 44.667 11 74s20 68.333 38 117c-53.333 -79.333 -104.333 -141.5 -153 -186.5s-88.334 -67.5 -119.001 -67.5
c-28.667 0 -51.834 9.83301 -69.501 29.5s-26.5 45.167 -26.5 76.5c0 28 9.83301 61.667 29.5 101s47.167 79.666 82.5 120.999c36.667 42 73.5 73.667 110.5 95s74.833 32 113.5 32c13.333 0 36 -2.66699 68 -8c2 0 3.66699 -0.333008 5 -1l-20 -41
c-18 8 -32.667 13.5 -44 16.5s-22 4.5 -32 4.5c-20.667 0 -41 -5.16699 -61 -15.5s-38.667 -24.833 -56 -43.5c-35.333 -41.333 -63.5 -84.5 -84.5 -129.5s-31.5 -83.833 -31.5 -116.5c0 -21.333 4.16699 -37 12.5 -47s21.833 -15 40.5 -15c38 0 84.333 33.667 139 101
s112 161.333 172 282l66 4l-107 -313c-2.66699 -9.33301 -4.66699 -17.333 -6 -24s-2 -12.334 -2 -17.001c0 -9.33301 2.66699 -17.5 8 -24.5s11.666 -10.5 18.999 -10.5c15.333 0 35.666 9 60.999 27s53.333 43.333 84 76zM234.003 655.002
c0 14 3.83496 24.999 11.502 32.999s18.167 12 31.5 12s24.166 -4.33301 32.499 -13s12.5 -20.667 12.5 -36c0 -11.333 -4 -20.666 -12 -27.999s-18.333 -11 -31 -11s-23.334 4.16699 -32.001 12.5s-13 18.5 -13 30.5zM41.0049 655.001c0 14 3.99902 24.999 11.999 32.999
s18.333 12 31 12c14 0 25 -4.33301 33 -13s12 -20.667 12 -36c0 -11.333 -4.16699 -20.666 -12.5 -27.999s-19.166 -11 -32.499 -11c-12 0 -22.167 4.16699 -30.5 12.5s-12.5 18.5 -12.5 30.5z" />
    <glyph glyph-name="aring" unicode="&#xe5;" horiz-adv-x="602" 
d="M55 702c0 -34 11.1689 -62.1689 33.502 -84.502s50.166 -33.5 83.499 -33.5s61.5 11.333 84.5 34s34.5 50.667 34.5 84c0 32.667 -11.667 60.334 -35 83.001s-51.333 34 -84 34s-60.334 -11.167 -83.001 -33.5s-34 -50.166 -34 -83.499zM20.002 701.998
c0 43.333 14.667 79.502 44 108.502s66 43.5 110 43.5c43.333 0 79.5 -14.5 108.5 -43.5s43.5 -65.167 43.5 -108.5c0 -42.667 -14.667 -78.834 -44 -108.501s-65.333 -44.5 -108 -44.5c-43.333 0 -79.833 14.667 -109.5 44s-44.5 65.666 -44.5 108.999zM340.002 158
l4.00391 -27c-35.333 -40.667 -70.5 -73 -105.5 -97s-63.833 -36 -86.5 -36c-20 0 -35 5.66699 -45 17s-15 28.333 -15 51c0 23.333 11.667 70.666 35 141.999l14 43c-53.333 -78.667 -104.333 -140.5 -153 -185.5s-88.334 -67.5 -119.001 -67.5
c-28.667 0 -51.834 9.83301 -69.501 29.5s-26.5 45.167 -26.5 76.5c0 28 9.83301 61.333 29.5 100s47.167 79.334 82.5 122.001c37.333 43.333 74 75.333 110 96s74 31 114 31c13.333 0 36 -2.66699 68 -8c2 0 3.66699 -0.333008 5 -1l-20 -41c-18 8 -32.667 13.5 -44 16.5
s-22 4.5 -32 4.5c-21.333 0 -42.333 -5.33301 -63 -16s-39.334 -26 -56.001 -46c-32.667 -37.333 -59.834 -80.166 -81.501 -128.499s-32.5 -86.5 -32.5 -114.5c0 -21.333 4.16699 -37 12.5 -47s21.833 -15 40.5 -15c38 0 84.333 33.667 139 101s112 161.333 172 282l66 4
l-107 -313c-2.66699 -9.33301 -4.66699 -17.333 -6 -24s-2 -12.334 -2 -17.001c0 -8.66699 3.16699 -16.667 9.5 -24s13.5 -11 21.5 -11c13.333 0 32 8.66699 56 26s52.333 43 85 77z" />
    <glyph glyph-name="ae" unicode="&#xe6;" horiz-adv-x="764" 
d="M174 127c70 31.333 127.833 70.167 173.5 116.5s68.5 86.833 68.5 121.5c0 14 -4.33301 26 -13 36s-18.667 15 -30 15c-35.333 0 -72 -27.167 -110 -81.5s-67.667 -123.5 -89 -207.5zM242 375.001c23.333 22 47.502 38.668 72.502 50.001s50.5 17 76.5 17
c22.667 0 41 -6.83301 55 -20.5s21 -31.167 21 -52.5c0 -46.667 -26.667 -94.667 -80 -144s-124.333 -91 -213 -125v-8c0 -19.333 5.83301 -34.666 17.5 -45.999s27.834 -17 48.501 -17c22.667 0 52.167 11.5 88.5 34.5s76.5 55.833 120.5 98.5l6 -27
c-49.333 -48.667 -94 -85 -134 -109s-76.667 -36 -110 -36c-38.667 0 -67.834 9.5 -87.501 28.5s-29.5 46.833 -29.5 83.5c0 19.333 3.83301 41.166 11.5 65.499s19.5 52.5 35.5 84.5c-53.333 -79.333 -104.333 -141.5 -153 -186.5s-88.334 -67.5 -119.001 -67.5
c-28.667 0 -51.834 9.83301 -69.501 29.5s-26.5 45.167 -26.5 76.5c0 30 9.66699 64.5 29 103.5s46.333 78.5 81 118.5c37.333 42 74.833 73.667 112.5 95s75.5 32 113.5 32c13.333 0 36 -2.66699 68 -8c2 0 3.66699 -0.333008 5 -1l-20 -41
c-14 7.33301 -27.167 12.666 -39.5 15.999s-24.5 5 -36.5 5c-21.333 0 -42.5 -5.5 -63.5 -16.5s-40.833 -26.833 -59.5 -47.5c-32 -36 -58.333 -77 -79 -123s-31 -85.333 -31 -118c0 -21.333 4.16699 -37 12.5 -47s21.833 -15 40.5 -15c38 0 84.333 33.667 139 101
s112 161.333 172 282l64 4z" />
    <glyph glyph-name="ccedilla" unicode="&#xe7;" horiz-adv-x="446" 
d="M125 154l0.00292969 -27.002c-49.333 -43.333 -95 -76.333 -137 -99s-78.333 -34 -109 -34c-34.667 0 -62.834 11.167 -84.501 33.5s-32.5 51.5 -32.5 87.5c0 30 9.83301 65.333 29.5 106s45.5 79 77.5 115c34 38 69.5 65.833 106.5 83.5s77.833 26.5 122.5 26.5
c31.333 0 52.166 -2.5 62.499 -7.5s15.5 -13.833 15.5 -26.5c0 -7.33301 -1.5 -14.166 -4.5 -20.499s-7.5 -13.166 -13.5 -20.499c-30 15.333 -54.333 26.333 -73 33s-34.667 10 -48 10c-18 0 -34.333 -4.16699 -49 -12.5s-30.334 -22.833 -47.001 -43.5
c-28 -34 -50.5 -72.333 -67.5 -115s-25.5 -81.334 -25.5 -116.001c0 -30 6.33301 -51.5 19 -64.5s33.667 -19.5 63 -19.5c23.333 0 52.333 9.83301 87 29.5s70.667 46.834 108 81.501zM-302.997 -229.002l12 24c24.667 -11.333 48.334 -20 71.001 -26s43.334 -9 62.001 -9
c38.667 0 69.5 7.33301 92.5 22s34.5 34 34.5 58c0 19.333 -8.33301 34.5 -25 45.5s-39.667 16.5 -69 16.5c-6.66699 0 -19 -1.33301 -37 -4h-6l64 114h28l-43 -78h25c40.667 0 71.667 -7 93 -21s32 -35 32 -63c0 -34 -15.5 -62.833 -46.5 -86.5s-69.5 -35.5 -115.5 -35.5
c-26.667 0 -54.334 3.5 -83.001 10.5s-58.334 17.833 -89.001 32.5z" />
    <glyph glyph-name="egrave" unicode="&#xe8;" horiz-adv-x="446" 
d="M-141 127c72 32 129.833 70.666 173.5 115.999s65.5 88 65.5 128c0 16.667 -3.5 29.334 -10.5 38.001s-17.167 13 -30.5 13c-34.667 0 -71 -27.667 -109 -83s-67.667 -126 -89 -212zM133 161.999l4.00293 -26.999c-48 -48 -92.833 -84.167 -134.5 -108.5
s-79.5 -36.5 -113.5 -36.5c-35.333 0 -62.833 9.83301 -82.5 29.5s-29.5 47.167 -29.5 82.5c0 31.333 8.66699 66.666 26 105.999s41.333 77.333 72 114c35.333 41.333 70.166 73.166 104.499 95.499s66.5 33.5 96.5 33.5c21.333 0 39 -8 53 -24s21 -35.333 21 -58
c0 -46.667 -26.5 -94.667 -79.5 -144s-123.5 -91 -211.5 -125v-8c0 -19.333 5.83301 -34.666 17.5 -45.999s27.5 -17 47.5 -17c23.333 0 53.166 11.5 89.499 34.5s76.166 55.833 119.499 98.5zM144.003 547c-10 0 -25.332 6.83301 -45.999 20.5s-42.334 31.5 -65.001 53.5
c-28.667 27.333 -50.167 52.166 -64.5 74.499s-21.5 41.833 -21.5 58.5c0 12 3.33301 21.5 10 28.5s15.667 10.5 27 10.5c20 0 34.333 -19.333 43 -58c5.33301 -24 10.666 -42.333 15.999 -55c17.333 -37.333 39.5 -67.333 66.5 -90s40.5 -35 40.5 -37
c0 -1.33301 -0.666992 -2.66602 -2 -3.99902s-2.66602 -2 -3.99902 -2z" />
    <glyph glyph-name="eacute" unicode="&#xe9;" horiz-adv-x="446" 
d="M-141 127c72 32 129.833 70.666 173.5 115.999s65.5 88 65.5 128c0 16.667 -3.5 29.334 -10.5 38.001s-17.167 13 -30.5 13c-34.667 0 -71 -27.667 -109 -83s-67.667 -126 -89 -212zM133 161.999l4.00293 -26.999c-48 -48 -92.833 -84.167 -134.5 -108.5
s-79.5 -36.5 -113.5 -36.5c-35.333 0 -62.833 9.83301 -82.5 29.5s-29.5 47.167 -29.5 82.5c0 31.333 8.66699 66.666 26 105.999s41.333 77.333 72 114c35.333 41.333 70.166 73.166 104.499 95.499s66.5 33.5 96.5 33.5c21.333 0 39 -8 53 -24s21 -35.333 21 -58
c0 -46.667 -26.5 -94.667 -79.5 -144s-123.5 -91 -211.5 -125v-8c0 -19.333 5.83301 -34.666 17.5 -45.999s27.5 -17 47.5 -17c23.333 0 53.166 11.5 89.499 34.5s76.166 55.833 119.499 98.5zM19.0029 555c0 2.66699 18.167 13.5 54.5 32.5s64.5 42.833 84.5 71.5
c10 14 20.167 38.667 30.5 74s24.833 53 43.5 53c10.667 0 19.5 -2.83301 26.5 -8.5s10.5 -12.834 10.5 -21.501c0 -18 -9 -39.167 -27 -63.5s-44 -49.833 -78 -76.5c-24 -19.333 -49.833 -35.666 -77.5 -48.999s-46.167 -20 -55.5 -20c-4 0 -7 0.666992 -9 2
s-3 3.33301 -3 6z" />
    <glyph glyph-name="ecircumflex" unicode="&#xea;" horiz-adv-x="446" 
d="M-141 127c72 32 129.833 70.666 173.5 115.999s65.5 88 65.5 128c0 16.667 -3.5 29.334 -10.5 38.001s-17.167 13 -30.5 13c-34.667 0 -71 -27.667 -109 -83s-67.667 -126 -89 -212zM133 161.999l4.00293 -26.999c-48 -48 -92.833 -84.167 -134.5 -108.5
s-79.5 -36.5 -113.5 -36.5c-35.333 0 -62.833 9.83301 -82.5 29.5s-29.5 47.167 -29.5 82.5c0 31.333 8.66699 66.666 26 105.999s41.333 77.333 72 114c35.333 41.333 70.166 73.166 104.499 95.499s66.5 33.5 96.5 33.5c21.333 0 39 -8 53 -24s21 -35.333 21 -58
c0 -46.667 -26.5 -94.667 -79.5 -144s-123.5 -91 -211.5 -125v-8c0 -19.333 5.83301 -34.666 17.5 -45.999s27.5 -17 47.5 -17c23.333 0 53.166 11.5 89.499 34.5s76.166 55.833 119.499 98.5zM105.003 682c-49.333 -46 -89.166 -81.333 -119.499 -106
s-49.166 -37 -56.499 -37c-4.66699 0 -8.66699 1.66699 -12 5s-5 6.33301 -5 9c0 4 23.167 29.833 69.5 77.5s89.5 98.167 129.5 151.5h20c14.667 -68 40.667 -134 78 -198c10 -16.667 15 -27 15 -31s-1.16699 -7 -3.5 -9s-5.5 -3 -9.5 -3
c-8.66699 0 -21.834 11.5 -39.501 34.5s-39.834 58.5 -66.501 106.5z" />
    <glyph glyph-name="edieresis" unicode="&#xeb;" horiz-adv-x="446" 
d="M-141 127c72 32 129.833 70.666 173.5 115.999s65.5 88 65.5 128c0 16.667 -3.5 29.334 -10.5 38.001s-17.167 13 -30.5 13c-34.667 0 -71 -27.667 -109 -83s-67.667 -126 -89 -212zM133 161.999l4.00293 -26.999c-48 -48 -92.833 -84.167 -134.5 -108.5
s-79.5 -36.5 -113.5 -36.5c-35.333 0 -62.833 9.83301 -82.5 29.5s-29.5 47.167 -29.5 82.5c0 31.333 8.66699 66.666 26 105.999s41.333 77.333 72 114c35.333 41.333 70.166 73.166 104.499 95.499s66.5 33.5 96.5 33.5c21.333 0 39 -8 53 -24s21 -35.333 21 -58
c0 -46.667 -26.5 -94.667 -79.5 -144s-123.5 -91 -211.5 -125v-8c0 -19.333 5.83301 -34.666 17.5 -45.999s27.5 -17 47.5 -17c23.333 0 53.166 11.5 89.499 34.5s76.166 55.833 119.499 98.5zM144.003 655c0 14 3.83496 24.999 11.502 32.999s18.167 12 31.5 12
s24.166 -4.33301 32.499 -13s12.5 -20.667 12.5 -36c0 -11.333 -4 -20.666 -12 -27.999s-18.333 -11 -31 -11s-23.334 4.16699 -32.001 12.5s-13 18.5 -13 30.5zM-48.9951 654.999c0 14 3.99902 24.999 11.999 32.999s18.333 12 31 12c14 0 25 -4.33301 33 -13
s12 -20.667 12 -36c0 -11.333 -4.16699 -20.666 -12.5 -27.999s-19.166 -11 -32.499 -11c-12 0 -22.167 4.16699 -30.5 12.5s-12.5 18.5 -12.5 30.5z" />
    <glyph glyph-name="igrave" unicode="&#xec;" horiz-adv-x="342" 
d="M-102 430l94.001 19c-32.667 -94.667 -58.334 -174.334 -77.001 -239.001s-28 -106.667 -28 -126c0 -6 3 -11.667 9 -17s12.667 -8 20 -8c8.66699 0 23.167 8.83301 43.5 26.5s48.166 45.834 83.499 84.501l14 -20c-47.333 -54.667 -87.5 -94.667 -120.5 -120
s-60.167 -38 -81.5 -38c-16 0 -28.333 6 -37 18s-13 29 -13 51c0 16.667 11.833 66.667 35.5 150s42.834 156.333 57.501 219zM50.001 547c-10 0 -25.332 6.83301 -45.999 20.5s-42.334 31.5 -65.001 53.5c-28.667 27.333 -50.167 52.166 -64.5 74.499
s-21.5 41.833 -21.5 58.5c0 12 3.33301 21.5 10 28.5s15.667 10.5 27 10.5c20 0 34.333 -19.333 43 -58c5.33301 -24 10.666 -42.333 15.999 -55c17.333 -37.333 39.5 -67.333 66.5 -90s40.5 -35 40.5 -37c0 -1.33301 -0.666992 -2.66602 -2 -3.99902
s-2.66602 -2 -3.99902 -2z" />
    <glyph glyph-name="iacute" unicode="&#xed;" horiz-adv-x="342" 
d="M-102 430l94.001 19c-32.667 -94.667 -58.334 -174.334 -77.001 -239.001s-28 -106.667 -28 -126c0 -6 3 -11.667 9 -17s12.667 -8 20 -8c8.66699 0 23.167 8.83301 43.5 26.5s48.166 45.834 83.499 84.501l14 -20c-47.333 -54.667 -87.5 -94.667 -120.5 -120
s-60.167 -38 -81.5 -38c-16 0 -28.333 6 -37 18s-13 29 -13 51c0 16.667 11.833 66.667 35.5 150s42.834 156.333 57.501 219zM-74.999 555c0 2.66699 18.167 13.5 54.5 32.5s64.5 42.833 84.5 71.5c10 14 20.167 38.667 30.5 74s24.833 53 43.5 53
c10.667 0 19.5 -2.83301 26.5 -8.5s10.5 -12.834 10.5 -21.501c0 -18 -9 -39.167 -27 -63.5s-44 -49.833 -78 -76.5c-24 -19.333 -49.833 -35.666 -77.5 -48.999s-46.167 -20 -55.5 -20c-4 0 -7 0.666992 -9 2s-3 3.33301 -3 6z" />
    <glyph glyph-name="icircumflex" unicode="&#xee;" horiz-adv-x="342" 
d="M-102 430l94.001 19c-32.667 -94.667 -58.334 -174.334 -77.001 -239.001s-28 -106.667 -28 -126c0 -6 3 -11.667 9 -17s12.667 -8 20 -8c8.66699 0 23.167 8.83301 43.5 26.5s48.166 45.834 83.499 84.501l14 -20c-47.333 -54.667 -87.5 -94.667 -120.5 -120
s-60.167 -38 -81.5 -38c-16 0 -28.333 6 -37 18s-13 29 -13 51c0 16.667 11.833 66.667 35.5 150s42.834 156.333 57.501 219zM11.001 682c-49.333 -46 -89.166 -81.333 -119.499 -106s-49.166 -37 -56.499 -37c-4.66699 0 -8.66699 1.66699 -12 5s-5 6.33301 -5 9
c0 4 23.167 29.833 69.5 77.5s89.5 98.167 129.5 151.5h20c14.667 -68 40.667 -134 78 -198c10 -16.667 15 -27 15 -31s-1.16699 -7 -3.5 -9s-5.5 -3 -9.5 -3c-8.66699 0 -21.834 11.5 -39.501 34.5s-39.834 58.5 -66.501 106.5z" />
    <glyph glyph-name="idieresis" unicode="&#xef;" horiz-adv-x="342" 
d="M-102 430l94.001 19c-32.667 -94.667 -58.334 -174.334 -77.001 -239.001s-28 -106.667 -28 -126c0 -6 3 -11.667 9 -17s12.667 -8 20 -8c8.66699 0 23.167 8.83301 43.5 26.5s48.166 45.834 83.499 84.501l14 -20c-47.333 -54.667 -87.5 -94.667 -120.5 -120
s-60.167 -38 -81.5 -38c-16 0 -28.333 6 -37 18s-13 29 -13 51c0 16.667 11.833 66.667 35.5 150s42.834 156.333 57.501 219zM50.001 655c0 14 3.83496 24.999 11.502 32.999s18.167 12 31.5 12s24.166 -4.33301 32.499 -13s12.5 -20.667 12.5 -36
c0 -11.333 -4 -20.666 -12 -27.999s-18.333 -11 -31 -11s-23.334 4.16699 -32.001 12.5s-13 18.5 -13 30.5zM-142.997 654.999c0 14 3.99902 24.999 11.999 32.999s18.333 12 31 12c14 0 25 -4.33301 33 -13s12 -20.667 12 -36c0 -11.333 -4.16699 -20.666 -12.5 -27.999
s-19.166 -11 -32.499 -11c-12 0 -22.167 4.16699 -30.5 12.5s-12.5 18.5 -12.5 30.5z" />
    <glyph glyph-name="eth" unicode="&#xf0;" horiz-adv-x="483" 
d="M125 437c-2.66699 47.333 -7.66699 92.1689 -15 134.502s-17.333 83.166 -30 122.499l-201 -61l-6 24l197 66c-11.333 40 -28.166 80.333 -50.499 121s-49.833 81 -82.5 121l12 14c28 -26 56.167 -59.333 84.5 -100s56.166 -88 83.499 -142l202 62l7 -25l-195 -63
c24.667 -70 43.167 -134 55.5 -192s18.5 -108.667 18.5 -152c0 -116.667 -26.5 -209.334 -79.5 -278.001s-123.5 -103 -211.5 -103c-40.667 0 -73.667 14.333 -99 43s-38 66 -38 112c0 80.667 28.333 152.5 85 215.5s120.334 94.5 191.001 94.5
c9.33301 0 19.166 -1 29.499 -3s24.5 -5.66699 42.5 -11zM57 426.003c-48 0 -94.832 -36.667 -140.499 -110s-68.5 -148 -68.5 -224c0 -26.667 6.5 -47 19.5 -61s31.833 -21 56.5 -21c48 0 94.167 36.833 138.5 110.5s66.5 149.5 66.5 227.5c0 24 -6.33301 43 -19 57
s-30.334 21 -53.001 21z" />
    <glyph glyph-name="ntilde" unicode="&#xf1;" horiz-adv-x="592" 
d="M-176 -4h-68.001c27.333 84 50.5 159.833 69.5 227.5s34.833 130.5 47.5 188.5l94 41c-4 -25.333 -22 -88 -54 -188c-21.333 -67.333 -38 -121.666 -50 -162.999c74.667 124 135.5 212.833 182.5 266.5s87.167 80.5 120.5 80.5c21.333 0 37.833 -7.16699 49.5 -21.5
s17.5 -33.833 17.5 -58.5c0 -35.333 -14.667 -87.833 -44 -157.5s-44 -116.834 -44 -141.501c0 -8 3 -14.833 9 -20.5s12.667 -8.5 20 -8.5c11.333 0 29.5 10.667 54.5 32s51.833 49.666 80.5 84.999l15 -21c-47.333 -55.333 -85 -93.666 -113 -114.999s-53.333 -32 -76 -32
c-20.667 0 -37 6 -49 18s-18 28.333 -18 49c0 16.667 10.333 50.667 31 102l20 50c15.333 39.333 28 75.333 38 108s15 52.667 15 60c0 10 -3.5 18.667 -10.5 26s-15.167 11 -24.5 11c-21.333 0 -61.166 -38.5 -119.499 -115.5s-122.833 -177.833 -193.5 -302.5z
M-52.001 584l-16.001 3.99902c1.33301 42.667 9.33301 74.834 24 96.501s36 32.5 64 32.5c20.667 0 55.334 -11 104.001 -33s83.667 -33 105 -33c13.333 0 25.833 8 37.5 24s21.167 37.333 28.5 64h20c-4 -45.333 -13.833 -79.833 -29.5 -103.5s-36.5 -35.5 -62.5 -35.5
c-22.667 0 -59.167 11 -109.5 33s-84.833 33 -103.5 33c-16.667 0 -30 -6.83301 -40 -20.5s-17.333 -34.167 -22 -61.5z" />
    <glyph glyph-name="ograve" unicode="&#xf2;" horiz-adv-x="483" 
d="M-221 143c0 80.667 28.001 152.167 84.001 214.5s119.333 93.5 190 93.5c45.333 0 80.666 -14.167 105.999 -42.5s38 -67.5 38 -117.5c0 -83.333 -27.667 -155 -83 -215s-122 -90 -200 -90c-40 0 -72.5 14.5 -97.5 43.5s-37.5 66.833 -37.5 113.5zM53.001 426
c-21.333 0 -41.332 -6.66602 -59.999 -19.999s-41 -38.666 -67 -75.999c-22.667 -34 -41.334 -73 -56.001 -117s-22 -83.667 -22 -119c0 -26.667 6.66699 -47.334 20 -62.001s32 -22 56 -22c48 0 93.833 36.667 137.5 110s65.5 149.333 65.5 228
c0 25.333 -6.33301 44.666 -19 57.999s-31 20 -55 20zM166.002 547.001c-10 0 -25.332 6.83301 -45.999 20.5s-42.334 31.5 -65.001 53.5c-28.667 27.333 -50.167 52.166 -64.5 74.499s-21.5 41.833 -21.5 58.5c0 12 3.33301 21.5 10 28.5s15.667 10.5 27 10.5
c20 0 34.333 -19.333 43 -58c5.33301 -24 10.666 -42.333 15.999 -55c17.333 -37.333 39.5 -67.333 66.5 -90s40.5 -35 40.5 -37c0 -1.33301 -0.666992 -2.66602 -2 -3.99902s-2.66602 -2 -3.99902 -2z" />
    <glyph glyph-name="oacute" unicode="&#xf3;" horiz-adv-x="483" 
d="M-221 143c0 80.667 28.001 152.167 84.001 214.5s119.333 93.5 190 93.5c45.333 0 80.666 -14.167 105.999 -42.5s38 -67.5 38 -117.5c0 -83.333 -27.667 -155 -83 -215s-122 -90 -200 -90c-40 0 -72.5 14.5 -97.5 43.5s-37.5 66.833 -37.5 113.5zM53.001 426
c-21.333 0 -41.332 -6.66602 -59.999 -19.999s-41 -38.666 -67 -75.999c-22.667 -34 -41.334 -73 -56.001 -117s-22 -83.667 -22 -119c0 -26.667 6.66699 -47.334 20 -62.001s32 -22 56 -22c48 0 93.833 36.667 137.5 110s65.5 149.333 65.5 228
c0 25.333 -6.33301 44.666 -19 57.999s-31 20 -55 20zM41.002 555.001c0 2.66699 18.167 13.5 54.5 32.5s64.5 42.833 84.5 71.5c10 14 20.167 38.667 30.5 74s24.833 53 43.5 53c10.667 0 19.5 -2.83301 26.5 -8.5s10.5 -12.834 10.5 -21.501c0 -18 -9 -39.167 -27 -63.5
s-44 -49.833 -78 -76.5c-24 -19.333 -49.833 -35.666 -77.5 -48.999s-46.167 -20 -55.5 -20c-4 0 -7 0.666992 -9 2s-3 3.33301 -3 6z" />
    <glyph glyph-name="ocircumflex" unicode="&#xf4;" horiz-adv-x="483" 
d="M-221 143c0 80.667 28.001 152.167 84.001 214.5s119.333 93.5 190 93.5c45.333 0 80.666 -14.167 105.999 -42.5s38 -67.5 38 -117.5c0 -83.333 -27.667 -155 -83 -215s-122 -90 -200 -90c-40 0 -72.5 14.5 -97.5 43.5s-37.5 66.833 -37.5 113.5zM53.001 426
c-21.333 0 -41.332 -6.66602 -59.999 -19.999s-41 -38.666 -67 -75.999c-22.667 -34 -41.334 -73 -56.001 -117s-22 -83.667 -22 -119c0 -26.667 6.66699 -47.334 20 -62.001s32 -22 56 -22c48 0 93.833 36.667 137.5 110s65.5 149.333 65.5 228
c0 25.333 -6.33301 44.666 -19 57.999s-31 20 -55 20zM127.002 682.001c-49.333 -46 -89.166 -81.333 -119.499 -106s-49.166 -37 -56.499 -37c-4.66699 0 -8.66699 1.66699 -12 5s-5 6.33301 -5 9c0 4 23.167 29.833 69.5 77.5s89.5 98.167 129.5 151.5h20
c14.667 -68 40.667 -134 78 -198c10 -16.667 15 -27 15 -31s-1.16699 -7 -3.5 -9s-5.5 -3 -9.5 -3c-8.66699 0 -21.834 11.5 -39.501 34.5s-39.834 58.5 -66.501 106.5z" />
    <glyph glyph-name="otilde" unicode="&#xf5;" horiz-adv-x="483" 
d="M-221 143c0 80.667 28.001 152.167 84.001 214.5s119.333 93.5 190 93.5c45.333 0 80.666 -14.167 105.999 -42.5s38 -67.5 38 -117.5c0 -83.333 -27.667 -155 -83 -215s-122 -90 -200 -90c-40 0 -72.5 14.5 -97.5 43.5s-37.5 66.833 -37.5 113.5zM53.001 426
c-21.333 0 -41.332 -6.66602 -59.999 -19.999s-41 -38.666 -67 -75.999c-22.667 -34 -41.334 -73 -56.001 -117s-22 -83.667 -22 -119c0 -26.667 6.66699 -47.334 20 -62.001s32 -22 56 -22c48 0 93.833 36.667 137.5 110s65.5 149.333 65.5 228
c0 25.333 -6.33301 44.666 -19 57.999s-31 20 -55 20zM-57.998 584.001l-16.001 3.99902c1.33301 42.667 9.33301 74.834 24 96.501s36 32.5 64 32.5c20.667 0 55.334 -11 104.001 -33s83.667 -33 105 -33c13.333 0 25.833 8 37.5 24s21.167 37.333 28.5 64h20
c-4 -45.333 -13.833 -79.833 -29.5 -103.5s-36.5 -35.5 -62.5 -35.5c-22.667 0 -59.167 11 -109.5 33s-84.833 33 -103.5 33c-16.667 0 -30 -6.83301 -40 -20.5s-17.333 -34.167 -22 -61.5z" />
    <glyph glyph-name="odieresis" unicode="&#xf6;" horiz-adv-x="483" 
d="M-221 143c0 80.667 28.001 152.167 84.001 214.5s119.333 93.5 190 93.5c45.333 0 80.666 -14.167 105.999 -42.5s38 -67.5 38 -117.5c0 -83.333 -27.667 -155 -83 -215s-122 -90 -200 -90c-40 0 -72.5 14.5 -97.5 43.5s-37.5 66.833 -37.5 113.5zM53.001 426
c-21.333 0 -41.332 -6.66602 -59.999 -19.999s-41 -38.666 -67 -75.999c-22.667 -34 -41.334 -73 -56.001 -117s-22 -83.667 -22 -119c0 -26.667 6.66699 -47.334 20 -62.001s32 -22 56 -22c48 0 93.833 36.667 137.5 110s65.5 149.333 65.5 228
c0 25.333 -6.33301 44.666 -19 57.999s-31 20 -55 20zM166.002 655.001c0 14 3.83496 24.999 11.502 32.999s18.167 12 31.5 12s24.166 -4.33301 32.499 -13s12.5 -20.667 12.5 -36c0 -11.333 -4 -20.666 -12 -27.999s-18.333 -11 -31 -11s-23.334 4.16699 -32.001 12.5
s-13 18.5 -13 30.5zM-26.9961 655c0 14 3.99902 24.999 11.999 32.999s18.333 12 31 12c14 0 25 -4.33301 33 -13s12 -20.667 12 -36c0 -11.333 -4.16699 -20.666 -12.5 -27.999s-19.166 -11 -32.499 -11c-12 0 -22.167 4.16699 -30.5 12.5s-12.5 18.5 -12.5 30.5z" />
    <glyph glyph-name="divide" unicode="&#xf7;" horiz-adv-x="1706" 
d="M854 365c27.333 0 50.5 -9.83301 69.5 -29.5s28.5 -43.5 28.5 -71.5c0 -26.667 -9.5 -49.667 -28.5 -69s-42.167 -29 -69.5 -29s-50.5 9.5 -69.5 28.5s-28.5 42.167 -28.5 69.5s9.66699 51 29 71s42.333 30 69 30zM254 651h1198v-82h-1198v82zM854 1055
c27.333 0 50.5 -9.49902 69.5 -28.499s28.5 -42.5 28.5 -70.5c0 -26.667 -9.5 -50 -28.5 -70s-42.167 -30 -69.5 -30s-50.5 9.83301 -69.5 29.5s-28.5 43.167 -28.5 70.5s9.5 50.666 28.5 69.999s42.167 29 69.5 29z" />
    <glyph glyph-name="oslash" unicode="&#xf8;" horiz-adv-x="483" 
d="M127 399l-246.001 -375.998c8 -2.66699 16 -4.83398 24 -6.50098s15 -2.5 21 -2.5c20 0 39.833 6.16699 59.5 18.5s38.167 30.166 55.5 53.499c26.667 36 49.334 79.333 68.001 130s28 92 28 124c0 10 -0.833008 19.833 -2.5 29.5s-4.16699 19.5 -7.5 29.5z
M-141.001 41.002l245 379.001c-4.66699 3.33301 -10 5.83301 -16 7.5s-15 2.5 -27 2.5c-26.667 0 -50.167 -6.83301 -70.5 -20.5s-41.833 -36.834 -64.5 -69.501c-24 -34.667 -44 -75.334 -60 -122.001s-24 -86.667 -24 -120c0 -10 1.33301 -19.667 4 -29
s7 -18.666 13 -27.999zM-156.001 12.0029c-20.667 12.667 -36.667 30.668 -48 54.001s-17 50.333 -17 81c0 80.667 28 151.5 84 212.5s120 91.5 192 91.5h33c10.667 -0.666992 18 -1.33398 22 -2.00098s7.33301 -2 10 -4l54 83h35l-64 -100
c19.333 -18 33.5 -37.5 42.5 -58.5s13.5 -44.5 13.5 -70.5c0 -84 -28.167 -156.167 -84.5 -216.5s-124.5 -90.5 -204.5 -90.5c-6 0 -12.667 1 -20 3s-15 5 -23 9l-55 -84h-35z" />
    <glyph glyph-name="ugrave" unicode="&#xf9;" horiz-adv-x="602" 
d="M-106 428l77.001 23.002c-30.667 -108.667 -54 -196 -70 -262s-24 -108.667 -24 -128c0 -6 2.66699 -11.167 8 -15.5s12.333 -6.5 21 -6.5c25.333 0 62 33.833 110 101.5s104.667 165.5 170 293.5l88 4c-42 -140.667 -68.5 -231.834 -79.5 -273.501
s-16.5 -69.167 -16.5 -82.5c0 -9.33301 2.66699 -16.5 8 -21.5s13 -7.5 23 -7.5c10.667 0 25.5 8 44.5 24s45.167 42.333 78.5 79l14 -25c-38.667 -44 -73.834 -77.5 -105.501 -100.5s-57.834 -34.5 -78.501 -34.5c-19.333 0 -34.5 6.16699 -45.5 18.5
s-16.5 29.5 -16.5 51.5c0 19.333 5.66699 52.5 17 99.5s28.333 107.167 51 180.5c-74 -133.333 -132.167 -225 -174.5 -275s-81.166 -75 -116.499 -75c-23.333 0 -41.5 7.5 -54.5 22.5s-19.5 36.167 -19.5 63.5c0 20.667 6.33301 55.167 19 103.5s36.667 129.166 72 242.499
zM181.001 547.002c-10 0 -25.332 6.83301 -45.999 20.5s-42.334 31.5 -65.001 53.5c-28.667 27.333 -50.167 52.166 -64.5 74.499s-21.5 41.833 -21.5 58.5c0 12 3.33301 21.5 10 28.5s15.667 10.5 27 10.5c20 0 34.333 -19.333 43 -58
c5.33301 -24 10.666 -42.333 15.999 -55c17.333 -37.333 39.5 -67.333 66.5 -90s40.5 -35 40.5 -37c0 -1.33301 -0.666992 -2.66602 -2 -3.99902s-2.66602 -2 -3.99902 -2z" />
    <glyph glyph-name="uacute" unicode="&#xfa;" horiz-adv-x="602" 
d="M-106 428l77.001 23.002c-30.667 -108.667 -54 -196 -70 -262s-24 -108.667 -24 -128c0 -6 2.66699 -11.167 8 -15.5s12.333 -6.5 21 -6.5c25.333 0 62 33.833 110 101.5s104.667 165.5 170 293.5l88 4c-42 -140.667 -68.5 -231.834 -79.5 -273.501
s-16.5 -69.167 -16.5 -82.5c0 -9.33301 2.66699 -16.5 8 -21.5s13 -7.5 23 -7.5c10.667 0 25.5 8 44.5 24s45.167 42.333 78.5 79l14 -25c-38.667 -44 -73.834 -77.5 -105.501 -100.5s-57.834 -34.5 -78.501 -34.5c-19.333 0 -34.5 6.16699 -45.5 18.5
s-16.5 29.5 -16.5 51.5c0 19.333 5.66699 52.5 17 99.5s28.333 107.167 51 180.5c-74 -133.333 -132.167 -225 -174.5 -275s-81.166 -75 -116.499 -75c-23.333 0 -41.5 7.5 -54.5 22.5s-19.5 36.167 -19.5 63.5c0 20.667 6.33301 55.167 19 103.5s36.667 129.166 72 242.499
zM56.001 555.002c0 2.66699 18.167 13.5 54.5 32.5s64.5 42.833 84.5 71.5c10 14 20.167 38.667 30.5 74s24.833 53 43.5 53c10.667 0 19.5 -2.83301 26.5 -8.5s10.5 -12.834 10.5 -21.501c0 -18 -9 -39.167 -27 -63.5s-44 -49.833 -78 -76.5
c-24 -19.333 -49.833 -35.666 -77.5 -48.999s-46.167 -20 -55.5 -20c-4 0 -7 0.666992 -9 2s-3 3.33301 -3 6z" />
    <glyph glyph-name="ucircumflex" unicode="&#xfb;" horiz-adv-x="602" 
d="M-106 428l77.001 23.002c-30.667 -108.667 -54 -196 -70 -262s-24 -108.667 -24 -128c0 -6 2.66699 -11.167 8 -15.5s12.333 -6.5 21 -6.5c25.333 0 62 33.833 110 101.5s104.667 165.5 170 293.5l88 4c-42 -140.667 -68.5 -231.834 -79.5 -273.501
s-16.5 -69.167 -16.5 -82.5c0 -9.33301 2.66699 -16.5 8 -21.5s13 -7.5 23 -7.5c10.667 0 25.5 8 44.5 24s45.167 42.333 78.5 79l14 -25c-38.667 -44 -73.834 -77.5 -105.501 -100.5s-57.834 -34.5 -78.501 -34.5c-19.333 0 -34.5 6.16699 -45.5 18.5
s-16.5 29.5 -16.5 51.5c0 19.333 5.66699 52.5 17 99.5s28.333 107.167 51 180.5c-74 -133.333 -132.167 -225 -174.5 -275s-81.166 -75 -116.499 -75c-23.333 0 -41.5 7.5 -54.5 22.5s-19.5 36.167 -19.5 63.5c0 20.667 6.33301 55.167 19 103.5s36.667 129.166 72 242.499
zM142.001 682.002c-49.333 -46 -89.166 -81.333 -119.499 -106s-49.166 -37 -56.499 -37c-4.66699 0 -8.66699 1.66699 -12 5s-5 6.33301 -5 9c0 4 23.167 29.833 69.5 77.5s89.5 98.167 129.5 151.5h20c14.667 -68 40.667 -134 78 -198c10 -16.667 15 -27 15 -31
s-1.16699 -7 -3.5 -9s-5.5 -3 -9.5 -3c-8.66699 0 -21.834 11.5 -39.501 34.5s-39.834 58.5 -66.501 106.5z" />
    <glyph glyph-name="udieresis" unicode="&#xfc;" horiz-adv-x="602" 
d="M-106 428l77.001 23.002c-30.667 -108.667 -54 -196 -70 -262s-24 -108.667 -24 -128c0 -6 2.66699 -11.167 8 -15.5s12.333 -6.5 21 -6.5c25.333 0 62 33.833 110 101.5s104.667 165.5 170 293.5l88 4c-42 -140.667 -68.5 -231.834 -79.5 -273.501
s-16.5 -69.167 -16.5 -82.5c0 -9.33301 2.66699 -16.5 8 -21.5s13 -7.5 23 -7.5c10.667 0 25.5 8 44.5 24s45.167 42.333 78.5 79l14 -25c-38.667 -44 -73.834 -77.5 -105.501 -100.5s-57.834 -34.5 -78.501 -34.5c-19.333 0 -34.5 6.16699 -45.5 18.5
s-16.5 29.5 -16.5 51.5c0 19.333 5.66699 52.5 17 99.5s28.333 107.167 51 180.5c-74 -133.333 -132.167 -225 -174.5 -275s-81.166 -75 -116.499 -75c-23.333 0 -41.5 7.5 -54.5 22.5s-19.5 36.167 -19.5 63.5c0 20.667 6.33301 55.167 19 103.5s36.667 129.166 72 242.499
zM181.001 655.002c0 14 3.83496 24.999 11.502 32.999s18.167 12 31.5 12s24.166 -4.33301 32.499 -13s12.5 -20.667 12.5 -36c0 -11.333 -4 -20.666 -12 -27.999s-18.333 -11 -31 -11s-23.334 4.16699 -32.001 12.5s-13 18.5 -13 30.5zM-11.9971 655.001
c0 14 3.99902 24.999 11.999 32.999s18.333 12 31 12c14 0 25 -4.33301 33 -13s12 -20.667 12 -36c0 -11.333 -4.16699 -20.666 -12.5 -27.999s-19.166 -11 -32.499 -11c-12 0 -22.167 4.16699 -30.5 12.5s-12.5 18.5 -12.5 30.5z" />
    <glyph glyph-name="yacute" unicode="&#xfd;" horiz-adv-x="592" 
d="M53 -86c-66.667 -61.333 -119.499 -120.5 -158.499 -177.5s-58.5 -102.167 -58.5 -135.5c0 -16 3 -28.667 9 -38s14 -14 24 -14c35.333 0 67.166 27.833 95.499 83.5s57.833 149.5 88.5 281.5zM-112.999 430l82 13.999l-9 -29c-58 -179.333 -87 -290.333 -87 -333
c0 -17.333 2.33301 -29.5 7 -36.5s12.667 -10.5 24 -10.5c28.667 0 68.334 35.333 119.001 106s107.334 170.334 170.001 299.001h73l-106 -385l100 99l19 -19l-127 -121c-44.667 -168 -89.834 -291.5 -135.501 -370.5s-94.834 -118.5 -147.501 -118.5
c-17.333 0 -32.333 6.33301 -45 19s-19 28 -19 46c0 43.333 21.667 96 65 158s106.333 131 189 207l103 371c-62 -114.667 -115.333 -198 -160 -250s-85.667 -78 -123 -78c-24 0 -42 7.16699 -54 21.5s-18 36.5 -18 66.5c0 23.333 5.33301 58 16 104s32 126 64 240z
M72.001 554.999c0 2.66699 18.167 13.5 54.5 32.5s64.5 42.833 84.5 71.5c10 14 20.167 38.667 30.5 74s24.833 53 43.5 53c10.667 0 19.5 -2.83301 26.5 -8.5s10.5 -12.834 10.5 -21.501c0 -18 -9 -39.167 -27 -63.5s-44 -49.833 -78 -76.5
c-24 -19.333 -49.833 -35.666 -77.5 -48.999s-46.167 -20 -55.5 -20c-4 0 -7 0.666992 -9 2s-3 3.33301 -3 6z" />
    <glyph glyph-name="thorn" unicode="&#xfe;" horiz-adv-x="602" 
d="M131 1249l94 25l-372 -1243c62 156 117.5 266.333 166.5 331s100.5 97 154.5 97c36 0 65.5 -13.833 88.5 -41.5s34.5 -63.834 34.5 -108.501c0 -80 -27.5 -151.5 -82.5 -214.5s-118.833 -94.5 -191.5 -94.5c-16 0 -32 2.5 -48 7.5s-33 12.833 -51 23.5l15 26
c11.333 -9.33301 23 -16.333 35 -21s24 -7 36 -7c23.333 0 46.333 7 69 21s42 33.667 58 59c26 38.667 46.833 79.667 62.5 123s23.5 79.333 23.5 108s-5.16699 50.834 -15.5 66.501s-24.833 23.5 -43.5 23.5c-62 0 -132.167 -77.333 -210.5 -232s-156.5 -371 -234.5 -649
l-92 -16z" />
    <glyph glyph-name="ydieresis" unicode="&#xff;" horiz-adv-x="592" 
d="M53 -86c-66.667 -61.333 -119.499 -120.5 -158.499 -177.5s-58.5 -102.167 -58.5 -135.5c0 -16 3 -28.667 9 -38s14 -14 24 -14c35.333 0 67.166 27.833 95.499 83.5s57.833 149.5 88.5 281.5zM-112.999 430l82 13.999l-9 -29c-58 -179.333 -87 -290.333 -87 -333
c0 -17.333 2.33301 -29.5 7 -36.5s12.667 -10.5 24 -10.5c28.667 0 68.334 35.333 119.001 106s107.334 170.334 170.001 299.001h73l-106 -385l100 99l19 -19l-127 -121c-44.667 -168 -89.834 -291.5 -135.501 -370.5s-94.834 -118.5 -147.501 -118.5
c-17.333 0 -32.333 6.33301 -45 19s-19 28 -19 46c0 43.333 21.667 96 65 158s106.333 131 189 207l103 371c-62 -114.667 -115.333 -198 -160 -250s-85.667 -78 -123 -78c-24 0 -42 7.16699 -54 21.5s-18 36.5 -18 66.5c0 23.333 5.33301 58 16 104s32 126 64 240z
M197.001 654.999c0 14 3.83496 24.999 11.502 32.999s18.167 12 31.5 12s24.166 -4.33301 32.499 -13s12.5 -20.667 12.5 -36c0 -11.333 -4 -20.666 -12 -27.999s-18.333 -11 -31 -11s-23.334 4.16699 -32.001 12.5s-13 18.5 -13 30.5zM4.00293 654.998
c0 14 3.99902 24.999 11.999 32.999s18.333 12 31 12c14 0 25 -4.33301 33 -13s12 -20.667 12 -36c0 -11.333 -4.16699 -20.666 -12.5 -27.999s-19.166 -11 -32.499 -11c-12 0 -22.167 4.16699 -30.5 12.5s-12.5 18.5 -12.5 30.5z" />
    <glyph glyph-name="Cacute" unicode="&#x106;" horiz-adv-x="1081" 
d="M801 186l2.00488 -31.999c-80.667 -54 -162.834 -94.5 -246.501 -121.5s-168.834 -40.5 -255.501 -40.5c-116 0 -208.5 35.333 -277.5 106s-103.5 165.667 -103.5 285c0 120.667 30.167 246 90.5 376s144.166 250.333 251.499 361c58.667 59.333 122 112.666 190 159.999
s140 87.666 216 120.999c52.667 22.667 101.5 39.834 146.5 51.501s84.833 17.5 119.5 17.5c54.667 0 97 -11.667 127 -35s45 -56.666 45 -99.999c0 -64 -40.5 -128.5 -121.5 -193.5s-198.833 -127.5 -353.5 -187.5l16 99c135.333 54 239.166 106.5 311.499 157.5
s108.5 96.833 108.5 137.5c0 30.667 -11.167 54.667 -33.5 72s-53.5 26 -93.5 26c-77.333 0 -169.833 -31.167 -277.5 -93.5s-214.5 -147.833 -320.5 -256.5c-99.333 -101.333 -178.833 -215.833 -238.5 -343.5s-89.5 -245.5 -89.5 -353.5c0 -112 31.167 -200 93.5 -264
s148.166 -96 257.499 -96c78.667 0 155.5 12.667 230.5 38s143.5 61.666 205.5 108.999zM885.005 1591c0 2.66699 18.167 13.5 54.5 32.5s64.5 42.833 84.5 71.5c10 14 20.167 38.667 30.5 74s24.833 53 43.5 53c10.667 0 19.5 -2.83301 26.5 -8.5
s10.5 -12.834 10.5 -21.501c0 -18 -9 -39.167 -27 -63.5s-44 -49.833 -78 -76.5c-24 -19.333 -49.833 -35.666 -77.5 -48.999s-46.167 -20 -55.5 -20c-4 0 -7 0.666992 -9 2s-3 3.33301 -3 6z" />
    <glyph glyph-name="cacute" unicode="&#x107;" horiz-adv-x="446" 
d="M125 154l0.00292969 -27.002c-49.333 -43.333 -95 -76.333 -137 -99s-78.333 -34 -109 -34c-34.667 0 -62.834 11.167 -84.501 33.5s-32.5 51.5 -32.5 87.5c0 30 9.83301 65.333 29.5 106s45.5 79 77.5 115c34 38 69.5 65.833 106.5 83.5s77.833 26.5 122.5 26.5
c31.333 0 52.166 -2.5 62.499 -7.5s15.5 -13.833 15.5 -26.5c0 -7.33301 -1.5 -14.166 -4.5 -20.499s-7.5 -13.166 -13.5 -20.499c-30 15.333 -54.333 26.333 -73 33s-34.667 10 -48 10c-18 0 -34.333 -4.16699 -49 -12.5s-30.334 -22.833 -47.001 -43.5
c-28 -34 -50.5 -72.333 -67.5 -115s-25.5 -81.334 -25.5 -116.001c0 -30 6.33301 -51.5 19 -64.5s33.667 -19.5 63 -19.5c23.333 0 52.333 9.83301 87 29.5s70.667 46.834 108 81.501zM27.0029 554.998c0 2.66699 18.167 13.5 54.5 32.5s64.5 42.833 84.5 71.5
c10 14 20.167 38.667 30.5 74s24.833 53 43.5 53c10.667 0 19.5 -2.83301 26.5 -8.5s10.5 -12.834 10.5 -21.501c0 -18 -9 -39.167 -27 -63.5s-44 -49.833 -78 -76.5c-24 -19.333 -49.833 -35.666 -77.5 -48.999s-46.167 -20 -55.5 -20c-4 0 -7 0.666992 -9 2
s-3 3.33301 -3 6z" />
    <glyph glyph-name="Ccaron" unicode="&#x10c;" horiz-adv-x="1081" 
d="M801 186l2.00488 -31.999c-80.667 -54 -162.834 -94.5 -246.501 -121.5s-168.834 -40.5 -255.501 -40.5c-116 0 -208.5 35.333 -277.5 106s-103.5 165.667 -103.5 285c0 120.667 30.167 246 90.5 376s144.166 250.333 251.499 361c58.667 59.333 122 112.666 190 159.999
s140 87.666 216 120.999c52.667 22.667 101.5 39.834 146.5 51.501s84.833 17.5 119.5 17.5c54.667 0 97 -11.667 127 -35s45 -56.666 45 -99.999c0 -64 -40.5 -128.5 -121.5 -193.5s-198.833 -127.5 -353.5 -187.5l16 99c135.333 54 239.166 106.5 311.499 157.5
s108.5 96.833 108.5 137.5c0 30.667 -11.167 54.667 -33.5 72s-53.5 26 -93.5 26c-77.333 0 -169.833 -31.167 -277.5 -93.5s-214.5 -147.833 -320.5 -256.5c-99.333 -101.333 -178.833 -215.833 -238.5 -343.5s-89.5 -245.5 -89.5 -353.5c0 -112 31.167 -200 93.5 -264
s148.166 -96 257.499 -96c78.667 0 155.5 12.667 230.5 38s143.5 61.666 205.5 108.999zM950.005 1675c49.333 46 89.168 81.333 119.501 106s49.166 37 56.499 37c4 0 7.83301 -1.66699 11.5 -5s5.5 -6.33301 5.5 -9c0 -4 -23.167 -29.833 -69.5 -77.5
s-89.5 -98.167 -129.5 -151.5h-20c-14.667 68 -40.667 134 -78 198c-10 16.667 -15 27 -15 31c0.666992 4.66699 2 8.16699 4 10.5s5 3.5 9 3.5c8.66699 0 21.5 -11.5 38.5 -34.5s39.5 -59.167 67.5 -108.5z" />
    <glyph glyph-name="ccaron" unicode="&#x10d;" horiz-adv-x="446" 
d="M125 154l0.00292969 -27.002c-49.333 -43.333 -95 -76.333 -137 -99s-78.333 -34 -109 -34c-34.667 0 -62.834 11.167 -84.501 33.5s-32.5 51.5 -32.5 87.5c0 30 9.83301 65.333 29.5 106s45.5 79 77.5 115c34 38 69.5 65.833 106.5 83.5s77.833 26.5 122.5 26.5
c31.333 0 52.166 -2.5 62.499 -7.5s15.5 -13.833 15.5 -26.5c0 -7.33301 -1.5 -14.166 -4.5 -20.499s-7.5 -13.166 -13.5 -20.499c-30 15.333 -54.333 26.333 -73 33s-34.667 10 -48 10c-18 0 -34.333 -4.16699 -49 -12.5s-30.334 -22.833 -47.001 -43.5
c-28 -34 -50.5 -72.333 -67.5 -115s-25.5 -81.334 -25.5 -116.001c0 -30 6.33301 -51.5 19 -64.5s33.667 -19.5 63 -19.5c23.333 0 52.333 9.83301 87 29.5s70.667 46.834 108 81.501zM92.0029 638.998c49.333 46 89.168 81.333 119.501 106s49.166 37 56.499 37
c4 0 7.83301 -1.66699 11.5 -5s5.5 -6.33301 5.5 -9c0 -4 -23.167 -29.833 -69.5 -77.5s-89.5 -98.167 -129.5 -151.5h-20c-14.667 68 -40.667 134 -78 198c-10 16.667 -15 27 -15 31c0.666992 4.66699 2 8.16699 4 10.5s5 3.5 9 3.5c8.66699 0 21.5 -11.5 38.5 -34.5
s39.5 -59.167 67.5 -108.5z" />
    <glyph glyph-name="dcroat" unicode="&#x111;" horiz-adv-x="602" 
d="M111 426c-59.333 0 -116.833 -32.665 -172.5 -97.998s-83.5 -133 -83.5 -203c0 -26.667 6 -48 18 -64s27.667 -24 47 -24s41.5 9.66699 66.5 29s50.5 47.333 76.5 84c28.667 39.333 52.667 80.166 72 122.499s29 72.166 29 89.499c0 20.667 -4.66699 36.5 -14 47.5
s-22.333 16.5 -39 16.5zM340 160.002l2 -35.002c-36 -40.667 -69.167 -72 -99.5 -94s-55.833 -33 -76.5 -33c-19.333 0 -34.166 6.33301 -44.499 19s-15.5 31 -15.5 55c0.666992 12 2.83398 28.333 6.50098 49s10.5 52 20.5 94c-41.333 -71.333 -83 -125.666 -125 -162.999
s-82.333 -56 -121 -56c-34.667 0 -62.667 11.167 -84 33.5s-32 51.5 -32 87.5c0 32.667 11.5 71 34.5 115s53.833 84.667 92.5 122c31.333 32 64.5 55.833 99.5 71.5s72.167 23.5 111.5 23.5c12 0 24.667 -1.33301 38 -4s27.666 -7 42.999 -13l168 574h-143l12 32h142
l63 226l109 47l-86 -273h118l-12 -32h-117l-204 -652c-27.333 -87.333 -44.833 -147 -52.5 -179s-11.5 -56.333 -11.5 -73c0 -17.333 2.16699 -29.666 6.5 -36.999s11.833 -11.333 22.5 -12c15.333 0 31.666 6.33301 48.999 19s46 42 86 88z" />
    <glyph glyph-name="Gbreve" unicode="&#x11e;" horiz-adv-x="1118" 
d="M-70 -456l-18.002 78.999c60 -20.667 113.167 -36 159.5 -46s86.833 -15 121.5 -15c105.333 0 191 39.167 257 117.5s121.333 207.833 166 388.5c-56.667 -25.333 -110.667 -44.333 -162 -57s-100.333 -19 -147 -19c-122.667 0 -220.5 36.333 -293.5 109
s-109.5 170.667 -109.5 294c0 106 25.833 215.667 77.5 329s126.167 223.666 223.5 330.999c113.333 126 240 226.333 380 301s268.667 112 386 112c56 0 99.667 -13.167 131 -39.5s47 -62.833 47 -109.5c0 -58.667 -30.5 -122.667 -91.5 -192s-151.5 -143.333 -271.5 -222
l-69 49c123.333 79.333 218 152.333 284 219s99 122.667 99 168c0 27.333 -14 50.333 -42 69s-63.333 28 -106 28c-66 0 -147 -23.667 -243 -71s-187.667 -109.666 -275 -186.999c-136.667 -122 -243.5 -254.667 -320.5 -398s-115.5 -279.666 -115.5 -408.999
c0 -103.333 31 -187.5 93 -252.5s141.667 -97.5 239 -97.5c49.333 0 99.833 10.167 151.5 30.5s104.834 50.833 159.501 91.5c12.667 90.667 37.334 165 74.001 223s74.667 87 114 87c6.66699 0 12.5 -2.66699 17.5 -8s7.5 -11 7.5 -17
c0 -6.66699 -6.16699 -18.167 -18.5 -34.5s-21.166 -30.166 -26.499 -41.499c-12.667 -26.667 -35.334 -89 -68.001 -187l-79 -233c-50.667 -142 -117 -245 -199 -309s-189.333 -96 -322 -96c-30.667 0 -63.5 1.16699 -98.5 3.5s-72.5 6.16602 -112.5 11.499zM735.998 1757
c0 4 1.33398 7.33203 4.00098 9.99902s6 4 10 4c5.33301 0 11.666 -8.33301 18.999 -25l5 -13c12 -26.667 26.5 -45.667 43.5 -57s38.833 -17 65.5 -17c46 0 93.833 17.667 143.5 53s74.834 53 75.501 53c4 0 7 -0.833008 9 -2.5s3 -4.16699 3 -7.5
c0 -6 -8.16699 -18 -24.5 -36s-36.833 -36 -61.5 -54c-26 -19.333 -49.5 -32.666 -70.5 -39.999s-43.833 -11 -68.5 -11c-42.667 0 -78.834 14.5 -108.501 43.5s-44.5 62.167 -44.5 99.5z" />
    <glyph glyph-name="gbreve" unicode="&#x11f;" horiz-adv-x="602" 
d="M70 -39c-79.333 -64 -145.001 -131.166 -197.001 -201.499s-78 -121.833 -78 -154.5c0 -14.667 4.5 -26.834 13.5 -36.501s19.5 -14.5 31.5 -14.5c35.333 0 70.833 31.333 106.5 94s76.834 167 123.501 313zM130.999 211.001
c-49.333 -68 -95.9971 -120.167 -139.997 -156.5s-82.667 -54.5 -116 -54.5c-28.667 0 -51.834 10.333 -69.501 31s-26.5 48 -26.5 82c0 34.667 11.833 73.834 35.5 117.501s54.834 82.834 93.501 117.501c36.667 34 76 59.667 118 77s86 26 132 26
c13.333 0 28.666 -1.16699 45.999 -3.5s36.666 -5.5 57.999 -9.5l-16 -43c-22 8.66699 -41.333 15 -58 19s-31.667 6 -45 6c-34 0 -66 -7 -96 -21s-58 -35 -84 -63c-30.667 -32.667 -55.334 -69.667 -74.001 -111s-28 -78 -28 -110c0 -21.333 4 -37.333 12 -48
s20.333 -16 37 -16c35.333 0 77.5 27 126.5 81s100.167 130 153.5 228l54 -18l-76 -281c22 15.333 42.333 31.166 61 47.499s36 33.5 52 51.5l16 -23c-28 -24.667 -53.667 -46.334 -77 -65.001s-44.666 -35 -63.999 -49c-42 -164 -90.333 -287.667 -145 -371
s-115 -125 -181 -125c-21.333 0 -38 6.83301 -50 20.5s-18 32.834 -18 57.501c0 47.333 27.667 105.166 83 173.499s133.666 141.5 234.999 219.5zM-13.998 721.001c0 4 1.33398 7.33203 4.00098 9.99902s6 4 10 4c5.33301 0 11.666 -8.33301 18.999 -25l5 -13
c12 -26.667 26.5 -45.667 43.5 -57s38.833 -17 65.5 -17c46 0 93.833 17.667 143.5 53s74.834 53 75.501 53c4 0 7 -0.833008 9 -2.5s3 -4.16699 3 -7.5c0 -6 -8.16699 -18 -24.5 -36s-36.833 -36 -61.5 -54c-26 -19.333 -49.5 -32.666 -70.5 -39.999s-43.833 -11 -68.5 -11
c-42.667 0 -78.834 14.5 -108.501 43.5s-44.5 62.167 -44.5 99.5z" />
    <glyph glyph-name="Idotaccent" unicode="&#x130;" horiz-adv-x="973" 
d="M588 524c75.333 190.667 133.333 357.002 174 499.002s61 249.667 61 323c0 32 -3.83301 55.667 -11.5 71s-19.5 23 -35.5 23c-14 0 -30 -7.33301 -48 -22s-36 -35.334 -54 -62.001c-61.333 -88.667 -108.833 -181.334 -142.5 -278.001s-50.5 -189 -50.5 -277
c0 -67.333 8.5 -123 25.5 -167s44.167 -80.667 81.5 -110zM-313 78.002l39.0029 60.9961c72.667 -36 138.167 -63 196.5 -81s110.166 -27 155.499 -27c106.667 0 198.167 34.833 274.5 104.5s149.833 186.834 220.5 351.501c-56 39.333 -98.333 88.666 -127 147.999
s-43 128.333 -43 207c0 70 13.167 141.833 39.5 215.5s65.166 147.834 116.499 222.501c50 72 92 122.167 126 150.5s67.667 42.5 101 42.5c28 0 50.167 -14.667 66.5 -44s24.5 -69.333 24.5 -120c0 -102.667 -18.667 -227 -56 -373s-89.666 -299 -156.999 -459
c19.333 -8 41.166 -15.167 65.499 -21.5s52.166 -12.166 83.499 -17.499l-6 -28c-22.667 2.66699 -46.667 6.83398 -72 12.501s-53.333 12.834 -84 21.501c-64.667 -150 -144.667 -261.833 -240 -335.5s-208.333 -110.5 -339 -110.5c-59.333 0 -120.833 6.66699 -184.5 20
s-130.5 33.333 -200.5 60zM774.003 1691c0 16 4.83105 28.999 14.498 38.999s21.834 15 36.501 15c16.667 0 29.834 -5.16699 39.501 -15.5s14.5 -24.5 14.5 -42.5c0 -13.333 -5.16699 -24.5 -15.5 -33.5s-23.166 -13.5 -38.499 -13.5
c-14.667 0 -26.834 4.83301 -36.501 14.5s-14.5 21.834 -14.5 36.501z" />
    <glyph glyph-name="dotlessi" unicode="&#x131;" horiz-adv-x="342" 
d="M-102 430l94.001 19c-32.667 -94.667 -58.334 -174.334 -77.001 -239.001s-28 -106.667 -28 -126c0 -6 3 -11.667 9 -17s12.667 -8 20 -8c8.66699 0 23.167 8.83301 43.5 26.5s48.166 45.834 83.499 84.501l14 -20c-47.333 -54.667 -87.5 -94.667 -120.5 -120
s-60.167 -38 -81.5 -38c-16 0 -28.333 6 -37 18s-13 29 -13 51c0 16.667 11.833 66.667 35.5 150s42.834 156.333 57.501 219z" />
    <glyph glyph-name="Lslash" unicode="&#x141;" horiz-adv-x="1161" 
d="M383 147c-61.333 -56 -129.33 -99.001 -203.997 -129.001s-152 -45 -232 -45c-70.667 0 -129 15.167 -175 45.5s-69 67.833 -69 112.5c0 50.667 26.167 91 78.5 121s123.166 45 212.499 45c58 0 120.333 -6.66699 187 -20s138 -33.333 214 -60
c26.667 44.667 51.167 96 73.5 154s47.166 135.667 74.499 233l-246 -90l16 47l242 86c68 247.333 151.5 446.333 250.5 597s191.5 226 277.5 226c36 0 65.167 -15.333 87.5 -46s33.5 -71 33.5 -121c0 -36 -7.83301 -83.833 -23.5 -143.5s-40.5 -136.167 -74.5 -229.5
l-92 -27c43.333 112.667 76.666 206.834 99.999 282.501s35 128.167 35 157.5c0 27.333 -6.33301 49.666 -19 66.999s-29 26 -49 26c-68 0 -135.333 -60.5 -202 -181.5s-137 -311.167 -211 -570.5l243 88l-16 -45l-242 -88c-32 -94 -67 -177.667 -105 -251
s-78.667 -135.666 -122 -186.999c104.667 -42.667 194 -74.5 268 -95.5s137.667 -32.833 191 -35.5l-72 -74c-61.333 11.333 -127.833 29.5 -199.5 54.5s-148.5 57.167 -230.5 96.5zM342.003 159.999c-72 30 -140.499 52.499 -205.499 67.499s-126.167 22.5 -183.5 22.5
c-68 0 -121.5 -11.167 -160.5 -33.5s-58.5 -52.166 -58.5 -89.499c0 -36.667 20.167 -66.334 60.5 -89.001s94.5 -34 162.5 -34c68.667 0 136.167 13.333 202.5 40s127.166 65.334 182.499 116.001z" />
    <glyph glyph-name="lslash" unicode="&#x142;" horiz-adv-x="379" 
d="M88 162l10 -29c-42 -46 -79.833 -81 -113.5 -105s-61.834 -36 -84.501 -36c-20 0 -35.667 5.83301 -47 17.5s-17 27.5 -17 47.5c0 18 3.83301 47.333 11.5 88s19.5 94.667 35.5 162l-129 -65l17 43l120 63c86.667 333.333 173.5 597 260.5 791s160.833 291 221.5 291
c14.667 0 25.5 -7.66699 32.5 -23s10.5 -40 10.5 -74c0 -92 -36.167 -214 -108.5 -366s-173.5 -316 -303.5 -492c-1.33301 -9.33301 -4 -21.333 -8 -36s-10.333 -34 -19 -58l129 65l-16 -43l-123 -64l-14 -58c-28.667 -119.333 -43 -188.333 -43 -207
c0 -7.33301 3.16699 -13.333 9.5 -18s14.833 -7 25.5 -7c13.333 0 31.833 9.33301 55.5 28s52.834 47 87.501 85zM23 543c113.333 168 202.334 322.667 267.001 464s97 250 97 326c0 18 -1.33301 30.667 -4 38s-6.66699 11 -12 11c-36 0 -85.833 -76.167 -149.5 -228.5
s-129.834 -355.833 -198.501 -610.5z" />
    <glyph glyph-name="OE" unicode="&#x152;" horiz-adv-x="2157" 
d="M1855 104c-106 -36 -206 -63.333 -300 -82s-177.333 -28 -250 -28c-110.667 0 -195.667 19 -255 57s-98.666 98 -117.999 180c-79.333 -81.333 -161.5 -141.833 -246.5 -181.5s-174.833 -59.5 -269.5 -59.5c-145.333 0 -260.833 49 -346.5 147s-128.5 230.667 -128.5 398
c0 108 18 213.833 54 317.5s89 201.167 159 292.5c78.667 102.667 169.334 181.5 272.001 236.5s209 82.5 319 82.5c140 0 254.667 -47.167 344 -141.5s134 -213.5 134 -357.5c0 -65.333 -5 -124 -15 -176s-25 -97.333 -45 -136c39.333 33.333 84.166 66.833 134.499 100.5
s112.166 71.167 185.499 112.5c-33.333 56.667 -57 100.5 -71 131.5s-21 54.833 -21 71.5c0 42.667 19.667 87.834 59 135.501s94.666 93.167 165.999 136.5c63.333 39.333 131.666 70 204.999 92s142.333 33 207 33c54.667 0 98.667 -10.833 132 -32.5s50 -50.167 50 -85.5
c0 -24.667 -11.667 -60.834 -35 -108.501s-61.666 -113.5 -114.999 -197.5l-51 70c36.667 52.667 65.667 101.167 87 145.5s32 76.5 32 96.5c0 22 -11.667 41.167 -35 57.5s-51.333 24.5 -84 24.5c-46.667 0 -99.167 -10.833 -157.5 -32.5s-116.5 -51.834 -174.5 -90.501
c-78 -52 -133.667 -98.833 -167 -140.5s-50 -85.167 -50 -130.5c0 -38.667 11 -79.5 33 -122.5s33 -66.833 33 -71.5c0 -32 -43 -75.667 -129 -131c-60 -38 -108 -71 -144 -99c-94 -72 -162.5 -138.833 -205.5 -200.5s-64.5 -123.167 -64.5 -184.5
c0 -60.667 23.333 -108.5 70 -143.5s111.334 -52.5 194.001 -52.5c95.333 0 197 14.833 305 44.5s216.667 72.834 326 129.501zM1124 989c0 136.667 -32.832 245.001 -98.499 325.001s-154.834 120 -267.501 120c-70 0 -138.833 -15.333 -206.5 -46
s-131.5 -75.667 -191.5 -135c-102 -100 -183 -221.333 -243 -364s-90 -284.667 -90 -426c0 -130 36 -236.667 108 -320s164.333 -125 277 -125c88 0 177.5 30.833 268.5 92.5s173.5 147.834 247.5 258.501c62.667 93.333 111 193.666 145 300.999s51 213.666 51 318.999z
" />
    <glyph glyph-name="oe" unicode="&#x153;" horiz-adv-x="754" 
d="M164 127c69.333 31.333 126.5 70 171.5 116s67.5 86.667 67.5 122c0 14 -4.16699 26 -12.5 36s-18.5 15 -30.5 15c-34 0 -69.833 -27 -107.5 -81s-67.167 -123.333 -88.5 -208zM55 426c-24 0 -45.332 -6.5 -63.999 -19.5s-39.667 -35.833 -63 -68.5
c-22.667 -33.333 -41.334 -72.333 -56.001 -117s-22 -85 -22 -121c0 -26.667 6.33301 -47 19 -61s31 -21 55 -21c48 0 94.5 36.833 139.5 110.5s67.5 149.5 67.5 227.5c0 22.667 -5.33301 40 -16 52s-25.667 18 -45 18h-15zM438.001 162l4.00098 -27.002
c-48 -48.667 -92 -85 -132 -109s-77 -36 -111 -36c-30.667 0 -54.5 5.16699 -71.5 15.5s-29.5 27.5 -37.5 51.5c-24 -22.667 -50.167 -39.5 -78.5 -50.5s-60.166 -16.5 -95.499 -16.5c-40 0 -72.833 14.667 -98.5 44s-38.5 67 -38.5 113c0 80.667 28 151.5 84 212.5
s120 91.5 192 91.5c40.667 0 72.334 -9.16699 95.001 -27.5s37.667 -46.166 45 -83.499c32 35.333 63 61.5 93 78.5s60.333 25.5 91 25.5c22 0 40.167 -7 54.5 -21s21.5 -32 21.5 -54c0 -46.667 -26.333 -94.667 -79 -144s-123.334 -91 -212.001 -125v-8
c0 -19.333 5.83301 -34.666 17.5 -45.999s27.5 -17 47.5 -17c23.333 0 53.166 11.5 89.499 34.5s76.166 55.833 119.499 98.5z" />
    <glyph glyph-name="Scedilla" unicode="&#x15e;" horiz-adv-x="1157" 
d="M-326 94l66 74.0039c76 -42.667 163.333 -75.5 262 -98.5s201.667 -34.5 309 -34.5c139.333 0 252 28.333 338 85s129 130 129 220c0 50.667 -17.5 99.667 -52.5 147s-114.5 117.666 -238.5 210.999c-109.333 84 -181 150 -215 198s-51 99 -51 153
c0 45.333 14 90.666 42 135.999s66.667 85.333 116 120c74 52 159.5 93.333 256.5 124s192.5 46 286.5 46c79.333 0 142.166 -14.333 188.499 -43s69.5 -67 69.5 -115c0 -49.333 -23.833 -101 -71.5 -155s-118.167 -109.667 -211.5 -167l-94 49
c130.667 81.333 215.167 141.166 253.5 179.499s57.5 76.166 57.5 113.499c0 31.333 -17.167 56.666 -51.5 75.999s-79.833 29 -136.5 29c-50 0 -104.167 -6.66699 -162.5 -20s-116.833 -32.666 -175.5 -57.999c-85.333 -36.667 -155.5 -83.667 -210.5 -141
s-82.5 -110 -82.5 -158c0 -20.667 4.83301 -41.834 14.5 -63.501s25.834 -47.5 48.501 -77.5c20 -26.667 67 -67 141 -121s129.667 -96.333 167 -127c61.333 -51.333 107.333 -103.166 138 -155.499s46 -105.833 46 -160.5c0 -110.667 -53.667 -199 -161 -265
s-253 -99 -437 -99c-80.667 0 -168.167 8 -262.5 24s-199.5 40.667 -315.5 74zM21 -228.996l12 24c24.667 -11.333 48.334 -20 71.001 -26s43.334 -9 62.001 -9c38.667 0 69.5 7.33301 92.5 22s34.5 34 34.5 58c0 19.333 -8.33301 34.5 -25 45.5s-39.667 16.5 -69 16.5
c-6.66699 0 -19 -1.33301 -37 -4h-6l64 114h28l-43 -78h25c40.667 0 71.667 -7 93 -21s32 -35 32 -63c0 -34 -15.5 -62.833 -46.5 -86.5s-69.5 -35.5 -115.5 -35.5c-26.667 0 -54.334 3.5 -83.001 10.5s-58.334 17.833 -89.001 32.5z" />
    <glyph glyph-name="scedilla" unicode="&#x15f;" horiz-adv-x="403" 
d="M-186 207l-14.998 14l176 190c5.33301 34.667 15.5 61.834 30.5 81.501s32.167 29.5 51.5 29.5c10.667 0 19.167 -3 25.5 -9s9.5 -14 9.5 -24c0 -12.667 -12.333 -29.834 -37 -51.501s-37 -34.5 -37 -38.5l35 -74c23.333 -49.333 35 -95.666 35 -138.999
c0 -53.333 -20.5 -98.666 -61.5 -135.999s-90.833 -56 -149.5 -56c-34.667 0 -64.5 6.66699 -89.5 20s-37.5 28.333 -37.5 45c0 9.33301 3.16699 17.166 9.5 23.499s14.166 9.5 23.499 9.5c15.333 0 37.5 -10.5 66.5 -31.5s51.833 -31.5 68.5 -31.5
c28.667 0 52.5 12.667 71.5 38s28.5 57 28.5 95c0 33.333 -10 86.666 -30 159.999c-6.66699 25.333 -11.334 44 -14.001 56zM-355.998 -229l12 24c24.667 -11.333 48.334 -20 71.001 -26s43.334 -9 62.001 -9c38.667 0 69.5 7.33301 92.5 22s34.5 34 34.5 58
c0 19.333 -8.33301 34.5 -25 45.5s-39.667 16.5 -69 16.5c-6.66699 0 -19 -1.33301 -37 -4h-6l64 114h28l-43 -78h25c40.667 0 71.667 -7 93 -21s32 -35 32 -63c0 -34 -15.5 -62.833 -46.5 -86.5s-69.5 -35.5 -115.5 -35.5c-26.667 0 -54.334 3.5 -83.001 10.5
s-58.334 17.833 -89.001 32.5z" />
    <glyph glyph-name="Scaron" unicode="&#x160;" horiz-adv-x="1157" 
d="M-326 94l66 74.0039c76 -42.667 163.333 -75.5 262 -98.5s201.667 -34.5 309 -34.5c139.333 0 252 28.333 338 85s129 130 129 220c0 50.667 -17.5 99.667 -52.5 147s-114.5 117.666 -238.5 210.999c-109.333 84 -181 150 -215 198s-51 99 -51 153
c0 45.333 14 90.666 42 135.999s66.667 85.333 116 120c74 52 159.5 93.333 256.5 124s192.5 46 286.5 46c79.333 0 142.166 -14.333 188.499 -43s69.5 -67 69.5 -115c0 -49.333 -23.833 -101 -71.5 -155s-118.167 -109.667 -211.5 -167l-94 49
c130.667 81.333 215.167 141.166 253.5 179.499s57.5 76.166 57.5 113.499c0 31.333 -17.167 56.666 -51.5 75.999s-79.833 29 -136.5 29c-50 0 -104.167 -6.66699 -162.5 -20s-116.833 -32.666 -175.5 -57.999c-85.333 -36.667 -155.5 -83.667 -210.5 -141
s-82.5 -110 -82.5 -158c0 -20.667 4.83301 -41.834 14.5 -63.501s25.834 -47.5 48.501 -77.5c20 -26.667 67 -67 141 -121s129.667 -96.333 167 -127c61.333 -51.333 107.333 -103.166 138 -155.499s46 -105.833 46 -160.5c0 -110.667 -53.667 -199 -161 -265
s-253 -99 -437 -99c-80.667 0 -168.167 8 -262.5 24s-199.5 40.667 -315.5 74zM911 1675c49.333 46 89.168 81.333 119.501 106s49.166 37 56.499 37c4 0 7.83301 -1.66699 11.5 -5s5.5 -6.33301 5.5 -9c0 -4 -23.167 -29.833 -69.5 -77.5s-89.5 -98.167 -129.5 -151.5h-20
c-14.667 68 -40.667 134 -78 198c-10 16.667 -15 27 -15 31c0.666992 4.66699 2 8.16699 4 10.5s5 3.5 9 3.5c8.66699 0 21.5 -11.5 38.5 -34.5s39.5 -59.167 67.5 -108.5z" />
    <glyph glyph-name="scaron" unicode="&#x161;" horiz-adv-x="403" 
d="M-186 207l-14.998 14l176 190c5.33301 34.667 15.5 61.834 30.5 81.501s32.167 29.5 51.5 29.5c10.667 0 19.167 -3 25.5 -9s9.5 -14 9.5 -24c0 -12.667 -12.333 -29.834 -37 -51.501s-37 -34.5 -37 -38.5l35 -74c23.333 -49.333 35 -95.666 35 -138.999
c0 -53.333 -20.5 -98.666 -61.5 -135.999s-90.833 -56 -149.5 -56c-34.667 0 -64.5 6.66699 -89.5 20s-37.5 28.333 -37.5 45c0 9.33301 3.16699 17.166 9.5 23.499s14.166 9.5 23.499 9.5c15.333 0 37.5 -10.5 66.5 -31.5s51.833 -31.5 68.5 -31.5
c28.667 0 52.5 12.667 71.5 38s28.5 57 28.5 95c0 33.333 -10 86.666 -30 159.999c-6.66699 25.333 -11.334 44 -14.001 56zM43.002 639c49.333 46 89.168 81.333 119.501 106s49.166 37 56.499 37c4 0 7.83301 -1.66699 11.5 -5s5.5 -6.33301 5.5 -9
c0 -4 -23.167 -29.833 -69.5 -77.5s-89.5 -98.167 -129.5 -151.5h-20c-14.667 68 -40.667 134 -78 198c-10 16.667 -15 27 -15 31c0.666992 4.66699 2 8.16699 4 10.5s5 3.5 9 3.5c8.66699 0 21.5 -11.5 38.5 -34.5s39.5 -59.167 67.5 -108.5z" />
    <glyph glyph-name="Ydieresis" unicode="&#x178;" horiz-adv-x="1190" 
d="M-119 -457l38.999 76c54.667 -17.333 103.167 -30.166 145.5 -38.499s80.5 -12.5 114.5 -12.5c97.333 0 176.833 27.833 238.5 83.5s134.5 176.5 218.5 362.5c56.667 126 115.334 278.5 176.001 457.5s125 389.833 193 632.5c-188.667 -360 -357.667 -634 -507 -822
s-273.333 -282 -372 -282c-41.333 0 -71.833 12.333 -91.5 37s-29.5 63.667 -29.5 117c0 40.667 13 110 39 208s63 216.333 111 355l78 224c91.333 260.667 137 412 137 454c0 9.33301 -1.83301 17 -5.5 23s-8.83398 9 -15.501 9c-26 0 -64 -35 -114 -105
s-113 -177 -189 -321l-51 72c80 133.333 149.5 231.5 208.5 294.5s110.167 94.5 153.5 94.5c18 0 34.167 -9 48.5 -27s21.5 -39 21.5 -63c0 -78 -75.667 -346 -227 -804l-23 -68c-32 -98 -56.667 -181.667 -74 -251s-26 -118.333 -26 -147c0 -22.667 5 -39.5 15 -50.5
s25.333 -16.5 46 -16.5c96.667 0 235 124.5 415 373.5s363.333 575.833 550 980.5l86 8c-94.667 -332 -180.5 -612.833 -257.5 -842.5s-142.833 -400.834 -197.5 -513.501c-97.333 -200.667 -194.166 -337.5 -290.499 -410.5s-220.5 -109.5 -372.5 -109.5
c-28 0 -57.667 1.83301 -89 5.5s-65.333 9.16699 -102 16.5zM986.999 1691c0 14 3.83496 24.999 11.502 32.999s18.167 12 31.5 12s24.166 -4.33301 32.499 -13s12.5 -20.667 12.5 -36c0 -11.333 -4 -20.666 -12 -27.999s-18.333 -11 -31 -11s-23.334 4.16699 -32.001 12.5
s-13 18.5 -13 30.5zM794.001 1691c0 14 3.99902 24.999 11.999 32.999s18.333 12 31 12c14 0 25 -4.33301 33 -13s12 -20.667 12 -36c0 -11.333 -4.16699 -20.666 -12.5 -27.999s-19.166 -11 -32.499 -11c-12 0 -22.167 4.16699 -30.5 12.5s-12.5 18.5 -12.5 30.5z" />
    <glyph glyph-name="Zcaron" unicode="&#x17d;" horiz-adv-x="1200" 
d="M483 1069l-45.001 -60.999c-127.333 26.667 -220.166 58 -278.499 94s-87.5 80.333 -87.5 133c0 73.333 56 131.333 168 174s267 64 465 64c164.667 0 302.334 -11.333 413.001 -34s166 -48.334 166 -77.001c0 -30.667 -42.833 -84.667 -128.5 -162
s-259.834 -216 -522.501 -416c-281.333 -213.333 -484.166 -373.166 -608.499 -479.499s-186.5 -173.166 -186.5 -200.499c0 -6 3.66699 -10.833 11 -14.5s17.333 -5.5 30 -5.5c5.33301 0 21 1 47 3c132.667 10 264.667 15 396 15c110.667 0 214.5 -2.33301 311.5 -7
s186.167 -11.667 267.5 -21l-51 -76c-48 6 -122.833 10.5 -224.5 13.5s-230.167 4.5 -385.5 4.5c-126.667 0 -261.667 -5.66699 -405 -17c-39.333 -3.33301 -64.333 -5 -75 -5c-14 0 -24.333 3.16699 -31 9.5s-10 16.166 -10 29.499c0 32.667 67.167 109 201.5 229
s323.166 272.333 566.499 457c278.667 210.667 466.5 357 563.5 439s145.5 133.667 145.5 155c0 24 -50.833 44.667 -152.5 62s-232.5 26 -392.5 26c-173.333 0 -308.5 -14.333 -405.5 -43s-145.5 -68.334 -145.5 -119.001c0 -38.667 23.833 -69.667 71.5 -93
s151.5 -49 311.5 -77zM931.999 1675c49.333 46 89.168 81.333 119.501 106s49.166 37 56.499 37c4 0 7.83301 -1.66699 11.5 -5s5.5 -6.33301 5.5 -9c0 -4 -23.167 -29.833 -69.5 -77.5s-89.5 -98.167 -129.5 -151.5h-20c-14.667 68 -40.667 134 -78 198
c-10 16.667 -15 27 -15 31c0.666992 4.66699 2 8.16699 4 10.5s5 3.5 9 3.5c8.66699 0 21.5 -11.5 38.5 -34.5s39.5 -59.167 67.5 -108.5z" />
    <glyph glyph-name="zcaron" unicode="&#x17e;" horiz-adv-x="455" 
d="M-264 0l-0.000976562 33l372 339c-8 0 -16.5 -0.166992 -25.5 -0.5s-20.167 -0.5 -33.5 -0.5c-4.66699 0 -11.5 0.333008 -20.5 1s-15.833 1 -20.5 1c-17.333 0 -44 -1.5 -80 -4.5s-61 -4.83301 -75 -5.5l32 69c14 0.666992 33 1.66699 57 3c65.333 3.33301 110 5 134 5
c13.333 0 27.333 -0.166992 42 -0.5s37.334 -1.5 68.001 -3.5l-2 -18l-366 -348c10 0 25.333 -0.333008 46 -1s36 -1 46 -1c22.667 0 50.167 0.666992 82.5 2s67.5 3.33301 105.5 6l-8 -76h-354zM66.999 639c49.333 46 89.168 81.333 119.501 106s49.166 37 56.499 37
c4 0 7.83301 -1.66699 11.5 -5s5.5 -6.33301 5.5 -9c0 -4 -23.167 -29.833 -69.5 -77.5s-89.5 -98.167 -129.5 -151.5h-20c-14.667 68 -40.667 134 -78 198c-10 16.667 -15 27 -15 31c0.666992 4.66699 2 8.16699 4 10.5s5 3.5 9 3.5c8.66699 0 21.5 -11.5 38.5 -34.5
s39.5 -59.167 67.5 -108.5z" />
    <glyph glyph-name="florin" unicode="&#x192;" horiz-adv-x="739" 
d="M315 424l-134.999 0.00390625c-56 -252 -114.833 -444 -176.5 -576s-122.834 -198 -183.501 -198c-24 0 -43 14 -57 42s-21 65.667 -21 113c0 39.333 5.83301 82 17.5 128s29.834 96.333 54.501 151l84 37c-35.333 -79.333 -62 -152 -80 -218s-27 -124.333 -27 -175
c0 -16.667 2.66699 -29.834 8 -39.501s12.333 -14.5 21 -14.5c35.333 0 76.833 63.667 124.5 191s99.5 313.666 155.5 558.999h-131l15 37h129c33.333 142.667 72.166 252 116.499 328s90.833 114 139.5 114c32 0 57.667 -13.333 77 -40s29 -62.334 29 -107.001
c0 -31.333 -1.83301 -60.833 -5.5 -88.5s-9.16699 -54.834 -16.5 -81.501l-86 -23c18 56.667 30.667 102 38 136s11 64.667 11 92c0 24.667 -5 45.5 -15 62.5s-21.333 25.5 -34 25.5c-26.667 0 -51.667 -25.833 -75 -77.5s-57.333 -165.167 -102 -340.5h140z" />
    <glyph glyph-name="circumflex" unicode="&#x2c6;" 
d="M373 682c-49.333 -46 -89.166 -81.333 -119.499 -106s-49.166 -37 -56.499 -37c-4.66699 0 -8.66699 1.66699 -12 5s-5 6.33301 -5 9c0 4 23.167 29.833 69.5 77.5s89.5 98.167 129.5 151.5h20c14.667 -68 40.667 -134 78 -198c10 -16.667 15 -27 15 -31
s-1.16699 -7 -3.5 -9s-5.5 -3 -9.5 -3c-8.66699 0 -21.834 11.5 -39.501 34.5s-39.834 58.5 -66.501 106.5z" />
    <glyph glyph-name="caron" unicode="&#x2c7;" 
d="M352 639c49.333 46 89.168 81.333 119.501 106s49.166 37 56.499 37c4 0 7.83301 -1.66699 11.5 -5s5.5 -6.33301 5.5 -9c0 -4 -23.167 -29.833 -69.5 -77.5s-89.5 -98.167 -129.5 -151.5h-20c-14.667 68 -40.667 134 -78 198c-10 16.667 -15 27 -15 31
c0.666992 4.66699 2 8.16699 4 10.5s5 3.5 9 3.5c8.66699 0 21.5 -11.5 38.5 -34.5s39.5 -59.167 67.5 -108.5z" />
    <glyph glyph-name="breve" unicode="&#x2d8;" 
d="M197 721c0 4 1.33398 7.33203 4.00098 9.99902s6 4 10 4c5.33301 0 11.666 -8.33301 18.999 -25l5 -13c12 -26.667 26.5 -45.667 43.5 -57s38.833 -17 65.5 -17c46 0 93.833 17.667 143.5 53s74.834 53 75.501 53c4 0 7 -0.833008 9 -2.5s3 -4.16699 3 -7.5
c0 -6 -8.16699 -18 -24.5 -36s-36.833 -36 -61.5 -54c-26 -19.333 -49.5 -32.666 -70.5 -39.999s-43.833 -11 -68.5 -11c-42.667 0 -78.834 14.5 -108.501 43.5s-44.5 62.167 -44.5 99.5z" />
    <glyph glyph-name="dotaccent" unicode="&#x2d9;" 
d="M307 655c0 16 4.83105 28.999 14.498 38.999s21.834 15 36.501 15c16.667 0 29.834 -5.16699 39.501 -15.5s14.5 -24.5 14.5 -42.5c0 -13.333 -5.16699 -24.5 -15.5 -33.5s-23.166 -13.5 -38.499 -13.5c-14.667 0 -26.834 4.83301 -36.501 14.5
s-14.5 21.834 -14.5 36.501z" />
    <glyph glyph-name="ring" unicode="&#x2da;" 
d="M217 692c0 43.333 14.667 79.5 44 108.5s66 43.5 110 43.5c42.667 0 78.5 -14.5 107.5 -43.5s43.5 -65.167 43.5 -108.5s-14.5 -79.666 -43.5 -108.999s-64.833 -44 -107.5 -44c-44 0 -80.667 14.667 -110 44s-44 65.666 -44 108.999zM252 692
c0 -34 10.999 -62.333 32.999 -85s50 -34 84 -34c32.667 0 60.5 11.5 83.5 34.5s34.5 51.167 34.5 84.5c0 32.667 -11.5 60.334 -34.5 83.001s-50.833 34 -83.5 34c-33.333 0 -61.166 -11.333 -83.499 -34s-33.5 -50.334 -33.5 -83.001z" />
    <glyph glyph-name="ogonek" unicode="&#x2db;" 
d="M215 12c-49.333 -30.667 -86.168 -59.333 -110.501 -86s-36.5 -52 -36.5 -76c0 -23.333 7 -41.333 21 -54s34.333 -19 61 -19c16.667 0 32.834 4 48.501 12s31.5 20.333 47.5 37l16 -10c-14 -26 -33.167 -45.5 -57.5 -58.5s-52.833 -19.5 -85.5 -19.5
c-32 0 -58.833 9 -80.5 27s-32.5 40.333 -32.5 67c0 28.667 15.333 59.167 46 91.5s72.667 61.833 126 88.5h37z" />
    <glyph glyph-name="tilde" unicode="&#x2dc;" 
d="M188 584l-16.001 3.99902c1.33301 42.667 9.33301 74.834 24 96.501s36 32.5 64 32.5c20.667 0 55.334 -11 104.001 -33s83.667 -33 105 -33c13.333 0 25.833 8 37.5 24s21.167 37.333 28.5 64h20c-4 -45.333 -13.833 -79.833 -29.5 -103.5s-36.5 -35.5 -62.5 -35.5
c-22.667 0 -59.167 11 -109.5 33s-84.833 33 -103.5 33c-16.667 0 -30 -6.83301 -40 -20.5s-17.333 -34.167 -22 -61.5z" />
    <glyph glyph-name="hungarumlaut" unicode="&#x2dd;" 
d="M373 555c0 4.66699 12 13.167 36 25.5s43.333 26.5 58 42.5c22 22.667 40 55.5 54 98.5s28 64.5 42 64.5c11.333 0 20 -2.66699 26 -8s9 -12.666 9 -21.999c0 -18 -8.33301 -39.333 -25 -64s-39.667 -50 -69 -76c-21.333 -18.667 -45 -34.834 -71 -48.501
s-42.667 -20.5 -50 -20.5c-2.66699 0 -5 0.833008 -7 2.5s-3 3.5 -3 5.5zM225 555c0 4.66699 12.332 13.167 36.999 25.5s44.667 26.5 60 42.5c22 22.667 39.667 55.5 53 98.5s27 64.5 41 64.5c10.667 0 19.167 -2.66699 25.5 -8s9.5 -12.666 9.5 -21.999
c0 -18 -8.33301 -39.333 -25 -64s-40 -50 -70 -76c-21.333 -18.667 -44.666 -34.834 -69.999 -48.501s-41.333 -20.5 -48 -20.5c-3.33301 0 -6.33301 0.833008 -9 2.5s-4 3.5 -4 5.5z" />
    <glyph glyph-name="Omega" unicode="&#x3a9;" horiz-adv-x="1565" 
d="M1079 123v-23h318l78 232h59l-98 -332h-492c106.667 177.333 185.5 336.5 236.5 477.5s76.5 269.833 76.5 386.5c0 176 -41.833 314.667 -125.5 416s-198.834 152 -345.501 152c-146 0 -261.333 -50.833 -346 -152.5s-127 -240.167 -127 -415.5
c0 -118 25.5 -247.5 76.5 -388.5s130.167 -299.5 237.5 -475.5h-492l-98 332h59l78 -232h318v23c-101.333 134.667 -176.166 264 -224.499 388s-72.5 248 -72.5 372c0 184.667 54.5 333.167 163.5 445.5s251.5 168.5 427.5 168.5c176.667 0 319.5 -56.167 428.5 -168.5
s163.5 -260.833 163.5 -445.5c0 -122.667 -24.333 -246 -73 -370s-124 -254 -226 -390z" />
    <glyph glyph-name="pi" unicode="&#x3c0;" horiz-adv-x="1298" 
d="M1268 885l-24.998 -108.999h-311c-30 -146 -56 -319.333 -78 -520c-22.667 -199.333 -60.334 -299 -113.001 -299c-22.667 0 -40.834 7.33301 -54.501 22s-20.5 34 -20.5 58c0 19.333 25.833 110.5 77.5 273.5s96.167 318.167 133.5 465.5h-361
c-29.333 -146 -55.333 -319.333 -78 -520c-22 -199.333 -59.333 -299 -112 -299c-23.333 0 -41.833 7.33301 -55.5 22s-20.5 34 -20.5 58c0 19.333 25.833 110.5 77.5 273.5s96.167 318.167 133.5 465.5h-189c-48 0 -85 -16.833 -111 -50.5s-49.667 -99.5 -71 -197.5h-65
c21.333 127.333 57.5 218.666 108.5 273.999s123.833 83 218.5 83h916z" />
    <glyph glyph-name="endash" unicode="&#x2013;" 
d="M-262 205l24 47h1024l-24 -47h-1024z" />
    <glyph glyph-name="emdash" unicode="&#x2014;" horiz-adv-x="2048" 
d="M-262 207l24 51h2048l-24 -51h-2048z" />
    <glyph glyph-name="quoteleft" unicode="&#x2018;" horiz-adv-x="256" 
d="M193 1477l10.001 -14.999c-27.333 -33.333 -46 -58.833 -56 -76.5s-15.333 -32.834 -16 -45.501c25.333 -2.66699 43.333 -8 54 -16s16 -20.667 16 -38c0 -18 -4.83301 -32.333 -14.5 -43s-22.834 -16 -39.501 -16c-18 0 -32.333 6.5 -43 19.5s-16 30.167 -16 51.5
c0 28 9 57.333 27 88s44 61 78 91z" />
    <glyph glyph-name="quoteright" unicode="&#x2019;" horiz-adv-x="256" 
d="M94 1225l-14.001 14c22 22 39.167 43 51.5 63s20.166 40 23.499 60c-25.333 2 -43.5 7.16699 -54.5 15.5s-16.5 20.833 -16.5 37.5c0 19.333 5 34.5 15 45.5s23.333 16.5 40 16.5c18.667 0 33.334 -6.5 44.001 -19.5s16 -31.167 16 -54.5
c0 -29.333 -8.66699 -58.5 -26 -87.5s-43.666 -59.167 -78.999 -90.5z" />
    <glyph glyph-name="quotesinglbase" unicode="&#x201a;" horiz-adv-x="256" 
d="M-147 -145l-14.998 14c22 22 39.167 43 51.5 63s20.166 40 23.499 60c-25.333 2 -43.333 7 -54 15s-16.334 20.667 -17.001 38c0 19.333 4.83301 34.333 14.5 45s22.834 16 39.501 16c18.667 0 33.167 -6.33301 43.5 -19s15.5 -30.667 15.5 -54
c0 -30 -8.33301 -59.5 -25 -88.5s-42.334 -58.833 -77.001 -89.5z" />
    <glyph glyph-name="quotedblleft" unicode="&#x201c;" horiz-adv-x="455" 
d="M391 1477l10 -15c-27.333 -33.333 -45.833 -58.833 -55.5 -76.5s-14.834 -32.834 -15.501 -45.501c25.333 -2.66699 43.166 -8 53.499 -16s15.5 -20.667 15.5 -38c0 -18 -4.66699 -32.333 -14 -43s-22.333 -16 -39 -16c-17.333 0 -31.166 6.33301 -41.499 19
s-15.5 30 -15.5 52c0 28.667 8.83301 58.334 26.5 89.001s42.834 60.667 75.501 90zM193 1477l10.001 -14.999c-27.333 -33.333 -46 -58.833 -56 -76.5s-15.333 -32.834 -16 -45.501c25.333 -2.66699 43.333 -8 54 -16s16 -20.667 16 -38c0 -18 -4.83301 -32.333 -14.5 -43
s-22.834 -16 -39.501 -16c-18 0 -32.333 6.5 -43 19.5s-16 30.167 -16 51.5c0 28 9 57.333 27 88s44 61 78 91z" />
    <glyph glyph-name="quotedblright" unicode="&#x201d;" horiz-adv-x="455" 
d="M297 1225l-13.999 14c21.333 22 38.166 43 50.499 63s20.5 40 24.5 60c-25.333 2 -43.5 7 -54.5 15s-16.5 20.667 -16.5 38c0 19.333 5 34.5 15 45.5s23.333 16.5 40 16.5c18.667 0 33.167 -6.5 43.5 -19.5s15.5 -31.167 15.5 -54.5c0 -29.333 -8.5 -58.5 -25.5 -87.5
s-43.167 -59.167 -78.5 -90.5zM94.001 1225l-14.001 14c22 22 39.167 43 51.5 63s20.166 40 23.499 60c-25.333 2 -43.5 7.16699 -54.5 15.5s-16.5 20.833 -16.5 37.5c0 19.333 5 34.5 15 45.5s23.333 16.5 40 16.5c18.667 0 33.334 -6.5 44.001 -19.5s16 -31.167 16 -54.5
c0 -29.333 -8.66699 -58.5 -26 -87.5s-43.666 -59.167 -78.999 -90.5z" />
    <glyph glyph-name="quotedblbase" unicode="&#x201e;" horiz-adv-x="455" 
d="M-135 -145l-15 14c22 22 39.167 43 51.5 63s20.5 39.667 24.5 59c-25.333 2.66699 -43.5 8 -54.5 16s-16.5 20.667 -16.5 38c0 18.667 5 33.5 15 44.5s23.333 16.5 40 16.5c18.667 0 33.167 -6.33301 43.5 -19s15.5 -30.667 15.5 -54c0 -29.333 -8.5 -58.5 -25.5 -87.5
s-43.167 -59.167 -78.5 -90.5zM68 -145l-14.999 14c22 22 39.167 43 51.5 63s20.5 40 24.5 60c-26 2 -44.333 7 -55 15s-16.334 20.667 -17.001 38c0 18.667 5 33.5 15 44.5s23.667 16.5 41 16.5c18.667 0 33.167 -6.33301 43.5 -19s15.5 -30.667 15.5 -54
c0 -29.333 -8.5 -58.5 -25.5 -87.5s-43.167 -59.167 -78.5 -90.5z" />
    <glyph glyph-name="dagger" unicode="&#x2020;" horiz-adv-x="750" 
d="M51 -150l-57.002 87c57.333 153.333 111.833 314.5 163.5 483.5s101.5 346.833 149.5 533.5h-358l26 52h342c14.667 62 28 127.5 40 196.5s23.333 141.167 34 216.5l109 39c-11.333 -56.667 -24.5 -119 -39.5 -187s-35.5 -156.333 -61.5 -265h344l-24 -52h-330
c-75.333 -279.333 -139.666 -506 -192.999 -680s-101.666 -315.333 -144.999 -424z" />
    <glyph glyph-name="daggerdbl" unicode="&#x2021;" horiz-adv-x="750" 
d="M51 -150l-56.998 86.999l44.5 126.5l96.5 276.5h-317l14 51h313c18 46.667 39.667 114.334 65 203.001s59.666 218.334 102.999 389.001h-323l14 51h320c12.667 61.333 24.5 124 35.5 188s21.5 129.667 31.5 197l109 39c-17.333 -82.667 -44 -202.334 -80 -359.001
l-14 -65h309l-15 -51h-305c-42 -162 -76.333 -290 -103 -384s-48.334 -163.333 -65.001 -208h316l-15 -51h-311l-87.5 -270z" />
    </font>
</defs>
</svg>
