<?xml version="1.0" standalone="no"?>
<!DOCTYPE svg PUBLIC "-//W3C//DTD SVG 1.1//EN" "http://www.w3.org/Graphics/SVG/1.1/DTD/svg11.dtd" >
<svg>
<metadata>
Created by FontForge 20090914 at Mon Oct 29 20:39:24 2012
 By www-data
Copyright 1990-1992 Bitstream Inc.  All rights reserved.
</metadata>
<defs>
<font id="BrushScriptBT-Regular" horiz-adv-x="1024" >
  <font-face 
    font-family="BrushScript BT"
    font-weight="400"
    font-style="italic"
    font-stretch="normal"
    units-per-em="2048"
    panose-1="3 6 8 2 4 4 6 7 3 4"
    ascent="1638"
    descent="-410"
    x-height="698.003"
    cap-height="1397"
    bbox="-323.999 -664 2079 1876"
    underline-thickness="174"
    underline-position="-165"
    slope="-40"
    unicode-range="U+0020-U+F002"
  />
<missing-glyph horiz-adv-x="1229" 
d="M102 -362v1806h1024v-1806h-1024zM217 -248h795v1577h-795v-1577z" />
    <glyph glyph-name=".notdef" horiz-adv-x="1229" 
d="M102 -362v1806h1024v-1806h-1024zM217 -248h795v1577h-795v-1577z" />
    <glyph glyph-name="space" unicode=" " horiz-adv-x="580" 
 />
    <glyph glyph-name="exclam" unicode="!" horiz-adv-x="602" 
d="M27 74c0 48.667 11 100.333 33 155s43 82 63 82c30.667 0 59.167 -12.167 85.5 -36.5s39.5 -50.833 39.5 -79.5c0 -58 -10.833 -110.833 -32.5 -158.5s-45.167 -71.5 -70.5 -71.5c-32 0 -59.667 10.167 -83 30.5s-35 46.5 -35 78.5zM311 441.999
c6 -5.33301 9.66699 -9.16895 11 -11.502s2 -5.16602 2 -8.49902c0 -12.667 -9.33301 -28.5 -28 -47.5s-33.334 -28.5 -44.001 -28.5s-30.834 15.5 -60.501 46.5s-44.5 54.5 -44.5 70.5c0 19.333 23.667 78.166 71 176.499s106.333 206.833 177 325.5l42 70
c120 200 193.333 300 220 300c4.66699 0 9.83398 -0.666992 15.501 -2s11.5 -3.33301 17.5 -6l64 -27c28.667 -11.333 47.334 -20.666 56.001 -27.999s13 -15.666 13 -24.999c0 -6 -58.5 -95.833 -175.5 -269.5s-229.167 -352.167 -336.5 -535.5z" />
    <glyph glyph-name="quotedbl" unicode="&#x22;" horiz-adv-x="643" 
d="M395 1436h164v-557h-164v557zM86 1436h164v-557h-164v557z" />
    <glyph glyph-name="numbersign" unicode="#" horiz-adv-x="1575" 
d="M709 852l-91 -254h256l91 254h-256zM735 1460h191l-154 -436h250l156 436h190l-154 -436h291l-59 -172h-293l-90 -252h309l-61 -172h-307l-156 -434h-191l156 434h-252l-158 -434h-190l156 434h-299l61 172h297l90 252h-315l61 172h316z" />
    <glyph glyph-name="dollar" unicode="$" horiz-adv-x="1161" 
d="M602 754l51 172c-78.667 -12 -142 -29.333 -190 -52s-72 -45.667 -72 -69c0.666992 -33.333 53 -50.333 157 -51h54zM699 567l-64 -213.001c68.667 19.333 122 41.5 160 66.5s57 50.167 57 75.5c0 20.667 -12.5 36.834 -37.5 48.501s-63.5 19.167 -115.5 22.5z
M551 85.999l-33.001 -130.999c-9.33301 -36.667 -19.166 -61.834 -29.499 -75.501s-23.5 -20.5 -39.5 -20.5c-19.333 0 -36.5 9 -51.5 27s-22.5 39 -22.5 63c0 12 0.666992 23.5 2 34.5s3.33301 22.5 6 34.5l14 64c-96 10 -168 25.833 -216 47.5s-72 48.834 -72 81.501
c0 32 9 66.667 27 104s40.333 65.333 67 84c42 -20.667 83.5 -36 124.5 -46s82.167 -15 123.5 -15h28l70 240h-43c-112 0 -188.833 11.5 -230.5 34.5s-62.5 63.167 -62.5 120.5c0 98.667 46.167 186 138.5 262s214.166 124 365.499 144c7.33301 51.333 33 96.5 77 135.5
s81.667 58.5 113 58.5c4.66699 0 8.83398 -2 12.501 -6s5.83398 -8.66699 6.50098 -14c0 -2 -2 -8.33301 -6 -19c-2 -6 -3.66699 -10.667 -5 -14l-48 -137c94.667 -3.33301 160.167 -12 196.5 -26s54.5 -36.667 54.5 -68c0 -74 -15.167 -123.833 -45.5 -149.5
s-93.5 -42.167 -189.5 -49.5l73 68c-23.333 6 -46 10.5 -68 13.5s-43.667 4.5 -65 4.5h-18l-60 -205c87.333 -16.667 155.666 -47.334 204.999 -92.001s74 -98 74 -160c0 -84.667 -43.5 -163.5 -130.5 -236.5s-201.167 -125.167 -342.5 -156.5z" />
    <glyph glyph-name="percent" unicode="%" horiz-adv-x="1161" 
d="M944 409c-26 -4.66699 -51.501 -15.167 -76.501 -31.5s-49.167 -37.833 -72.5 -64.5c-38.667 -42 -70.5 -85.167 -95.5 -129.5s-37.5 -77.5 -37.5 -99.5c0 -14.667 3.16699 -25.5 9.5 -32.5s15.833 -10.5 28.5 -10.5c18 0 39.333 11.167 64 33.5
s53.334 56.833 86.001 103.5c30.667 44.667 53.5 85.667 68.5 123s23.5 73.333 25.5 108zM986.999 426c22 -10 38.502 -23.833 49.502 -41.5s16.5 -39.5 16.5 -65.5c0 -38 -9.83301 -81.833 -29.5 -131.5s-46.167 -97.167 -79.5 -142.5
c-36.667 -50 -78.167 -89.833 -124.5 -119.5s-89.5 -44.5 -129.5 -44.5c-47.333 0 -86.5 20.833 -117.5 62.5s-46.5 95.167 -46.5 160.5c0 57.333 14.167 112.5 42.5 165.5s70.166 103.833 125.499 152.5c34.667 30.667 69.167 54.667 103.5 72s64.166 26 89.499 26
c29.333 0 53.333 -8.66699 72 -26s28 -40 28 -68zM139.001 -125c-24.667 1.33301 -46.499 18.499 -65.499 51.499s-28.5 67.833 -28.5 104.5c0 33.333 45.667 111 137 233s206.666 254.667 345.999 398c150 152.667 288.5 281.167 415.5 385.5s205.167 156.5 234.5 156.5
c9.33301 0 17 -3.33301 23 -10s9 -15 9 -25c0 -55.333 -45.333 -125.666 -136 -210.999l-34 -32c-234 -229.333 -415.833 -420.833 -545.5 -574.5s-248.167 -312.5 -355.5 -476.5zM518.002 1157l11.998 66.001c-61.333 -42.667 -110.666 -92.334 -147.999 -149.001
s-56 -107.334 -56 -152.001c0 -11.333 3.5 -20.666 10.5 -27.999s15.5 -11 25.5 -11c13.333 0 36.5 12.167 69.5 36.5s63.833 53.833 92.5 88.5c32 37.333 58.833 74.333 80.5 111s32.5 61 32.5 73c0 8 -2.5 14.833 -7.5 20.5s-10.833 8.5 -17.5 8.5
c-7.33301 0 -20.166 -6 -38.499 -18s-36.833 -27.333 -55.5 -46zM659 1274h11c26 0 45.5 -7.66699 58.5 -23s19.5 -39 19.5 -71c0 -44 -9.5 -90 -28.5 -138s-45.833 -93.667 -80.5 -137c-43.333 -54 -90.833 -98.167 -142.5 -132.5s-95.5 -51.5 -131.5 -51.5
c-52 0 -95.5 19.667 -130.5 59s-52.5 89.333 -52.5 150c0 59.333 14 116.5 42 171.5s68.667 105.5 122 151.5c42 37.333 83 65.833 123 85.5s76.333 29.5 109 29.5c25.333 0 46 -6.66699 62 -20s24 -31.333 24 -54l-2 -8.5c-1.33301 -5.66699 -2.33301 -9.5 -3 -11.5z" />
    <glyph glyph-name="ampersand" unicode="&#x26;" horiz-adv-x="1200" 
d="M731 109c-71.333 -52.667 -140.496 -93.1729 -207.496 -121.506s-126.167 -42.5 -177.5 -42.5c-44 0 -82.833 8 -116.5 24s-65.834 42 -96.501 78c-34 40.667 -60.5 83.834 -79.5 129.501s-28.5 87.834 -28.5 126.501c0 94 38 184.167 114 270.5
s179.333 155.833 310 208.5c-0.666992 1.33301 -1 3.33301 -1 6c-2.66699 26.667 -4 46 -4 58c0 52 7.66699 100.167 23 144.5s38.666 85.5 69.999 123.5c53.333 66.667 119.5 122 198.5 166s149.167 66 210.5 66c58 0 107.333 -19.333 148 -58s61 -84.334 61 -137.001
c0 -57.333 -37.167 -119.166 -111.5 -185.499s-190.166 -141.166 -347.499 -224.499c10.667 -38.667 24 -78.5 40 -119.5s35 -83.5 57 -127.5c71.333 38.667 135.666 86.167 192.999 142.5s87.666 84.5 90.999 84.5c8 0 14.167 -7.33301 18.5 -22s6.5 -34.667 6.5 -60
c0 -59.333 -16.333 -118.666 -49 -177.999s-79.334 -114.666 -140.001 -165.999l62 -64l49 31c8.66699 -7.33301 15 -14.666 19 -21.999s6 -15 6 -23c0 -12.667 -5 -29.167 -15 -49.5s-32.333 -57.833 -67 -112.5c-16 -25.333 -30.667 -43.166 -44 -53.499
s-27.333 -15.5 -42 -15.5c-19.333 0 -42 10.667 -68 32s-53.333 51.666 -82 90.999zM594.004 347.994c-24 50 -43.8311 95.999 -59.498 137.999s-27.834 82 -36.501 120c-76.667 -42 -141 -94.5 -193 -157.5s-78 -114.167 -78 -153.5c0 -17.333 6.83301 -30.833 20.5 -40.5
s32.167 -14.5 55.5 -14.5c36 0 76.667 8.33301 122 25s101.666 44.334 168.999 83.001zM668.006 914.993c89.333 48 164.5 102.5 225.5 163.5s91.5 109.167 91.5 144.5c0 8 -4 14.667 -12 20s-18.333 8 -31 8c-53.333 0 -109.5 -33.5 -168.5 -100.5
s-94.167 -145.5 -105.5 -235.5z" />
    <glyph glyph-name="quotesingle" unicode="'" horiz-adv-x="334" 
d="M86 1436h164v-557h-164v557z" />
    <glyph glyph-name="parenleft" unicode="(" horiz-adv-x="860" 
d="M538 151l1 -7.99609c0 -46 -13.5 -85.5 -40.5 -118.5s-57.833 -49.5 -92.5 -49.5c-41.333 0 -74.666 24.833 -99.999 74.5s-38 116.5 -38 200.5c0 127.333 28.833 265.166 86.5 413.499s140.834 299.166 249.501 452.499c53.333 75.333 102.5 134.166 147.5 176.499
s80.5 63.5 106.5 63.5c18 0 34.5 -6.33301 49.5 -19s22.5 -27 22.5 -43c0 -19.333 -25.333 -61.333 -76 -126s-92.334 -124.334 -125.001 -179.001c-92 -156 -156.667 -289.667 -194 -401s-56 -222 -56 -332c0 -44 1.66699 -76.5 5 -97.5s8.66602 -31.5 15.999 -31.5
c4.66699 0 16 7 34 21z" />
    <glyph glyph-name="parenright" unicode=")" horiz-adv-x="860" 
d="M518 1202l-29.999 -9.99805c-4 14.667 -6.83301 27 -8.5 37s-2.5 18.667 -2.5 26c0 30 10.167 54.667 30.5 74s46.5 29 78.5 29c45.333 0 82.833 -32.667 112.5 -98s44.5 -149.333 44.5 -252c0 -130 -22.5 -253 -67.5 -369s-112.5 -225.333 -202.5 -328
c-78 -88.667 -164.333 -166.5 -259 -233.5s-159.334 -100.5 -194.001 -100.5c-12.667 0 -21.5 3 -26.5 9s-7.5 16 -7.5 30c0 33.333 40.667 90.666 122 171.999c44.667 44.667 79.667 81 105 109c120 131.333 206 255.166 258 371.499s78 240.833 78 373.5
c0 32 -2.5 60.5 -7.5 85.5s-12.833 49.833 -23.5 74.5z" />
    <glyph glyph-name="asterisk" unicode="*" horiz-adv-x="829" 
d="M598 1057l-44.9971 -116.996c-6.66699 -16.667 -13.834 -28.334 -21.501 -35.001s-17.5 -10 -29.5 -10c-12.667 0 -23 3.33301 -31 10s-12 15.667 -12 27c0 9.33301 2.66699 21.666 8 36.999l2 6l31 115l-80 -27c-11.333 -4 -21 -6.66699 -29 -8s-16 -2 -24 -2
c-14.667 0 -26.667 4 -36 12s-14 18.333 -14 31s5 23.667 15 33s25 16.666 45 21.999l108 29l-74 103c-0.666992 0.666992 -2 2.66699 -4 6c-12 17.333 -18 31.333 -18 42c0 11.333 3.66699 20.666 11 27.999s16.666 11 27.999 11c8.66699 0 16.5 -2 23.5 -6
s16.167 -12.333 27.5 -25l84 -88l43 109c7.33301 18.667 15 31.5 23 38.5s18 10.5 30 10.5s21.833 -3.83301 29.5 -11.5s11.5 -17.5 11.5 -29.5c0 -4.66699 -0.5 -9.5 -1.5 -14.5s-3.16699 -12.5 -6.5 -22.5l-39 -112l123 20c4.66699 0.666992 9.83398 1.5 15.501 2.5
s8.83398 1.5 9.50098 1.5h8c17.333 0 28.5 -3 33.5 -9s7.5 -16.667 7.5 -32c0 -14 -3.83301 -24.333 -11.5 -31s-27.834 -14 -60.501 -22l-104 -27l67 -94c9.33301 -12 16.166 -23 20.499 -33s6.5 -18.667 6.5 -26c0 -12 -4 -22.167 -12 -30.5s-17.667 -12.5 -29 -12.5
c-9.33301 0 -18.333 3.16699 -27 9.5s-19.334 17.5 -32.001 33.5z" />
    <glyph glyph-name="plus" unicode="+" horiz-adv-x="1706" 
d="M768 1221h170v-527h514v-166h-514v-528h-170v528h-514v166h514v527z" />
    <glyph glyph-name="comma" unicode="," horiz-adv-x="580" 
d="M20 -127c24.667 28.667 41.502 49.333 50.502 62s13.5 20.667 13.5 24c0 0.666992 -8.16699 5 -24.5 13s-24.5 21.333 -24.5 40c0 41.333 24 83.833 72 127.5s97 65.5 147 65.5c9.33301 0 17.166 -4.5 23.499 -13.5s9.5 -20.833 9.5 -35.5
c0 -32 -20.833 -76.167 -62.5 -132.5s-93.834 -106.5 -156.501 -150.5h-48z" />
    <glyph glyph-name="hyphen" unicode="-" horiz-adv-x="901" 
d="M90 377c0 5.33301 9.00098 19 27.001 41s38.333 42.333 61 61c20 16.667 51.667 30.5 95 41.5s89.666 16.5 138.999 16.5c30 0 62.667 -3.5 98 -10.5s55.666 -10.5 60.999 -10.5c2.66699 0 13 1.66699 31 5s34.333 5 49 5c30.667 0 57.834 -3 81.501 -9
s35.5 -13 35.5 -21c0 -6.66699 -7.5 -16 -22.5 -28s-50.5 -35.667 -106.5 -71c-26 -16 -57.167 -27.833 -93.5 -35.5s-83.833 -11.5 -142.5 -11.5c-17.333 0 -41.5 0.666992 -72.5 2s-53.833 2 -68.5 2h-84c-30 0 -52 1.83301 -66 5.5s-21.333 9.5 -22 17.5z" />
    <glyph glyph-name="period" unicode="." horiz-adv-x="580" 
d="M33 6c0 36 26.166 78.5 78.499 127.5s95.833 73.5 130.5 73.5c14.667 0 26.167 -4.5 34.5 -13.5s12.5 -21.5 12.5 -37.5c0 -35.333 -23.167 -78 -69.5 -128s-90.166 -75 -131.499 -75c-18 0 -31.667 4.5 -41 13.5s-14 22.167 -14 39.5z" />
    <glyph glyph-name="slash" unicode="/" horiz-adv-x="561" 
d="M-31 -141l0.000976562 20.001c0 92.667 27 226.167 81 400.5s131 376.166 231 605.499c69.333 160 126 274.333 170 343s82 103 114 103c14 0 24.333 -4.16699 31 -12.5s10 -21.833 10 -40.5c0 -28 -55.167 -182.667 -165.5 -464s-199.833 -558.666 -268.5 -831.999
c3.33301 -9.33301 5.83301 -17.833 7.5 -25.5s2.5 -15.167 2.5 -22.5c0 -30 -11.667 -62 -35 -96s-47 -51 -71 -51c-17.333 0 -36.333 6.66699 -57 20s-37.334 30.666 -50.001 51.999z" />
    <glyph glyph-name="zero" unicode="0" horiz-adv-x="1161" 
d="M801 944l-12.999 53c-168.667 -116 -300.167 -241.5 -394.5 -376.5s-141.5 -264.167 -141.5 -387.5c0 -42 5.83301 -71.167 17.5 -87.5s32.5 -24.5 62.5 -24.5c47.333 0 113.333 30.167 198 90.5s166.667 138.5 246 234.5c76 92 135.667 184.5 179 277.5
s65 172.167 65 237.5c0 27.333 -5.5 48.5 -16.5 63.5s-26.833 22.5 -47.5 22.5c-19.333 0 -43.833 -9.5 -73.5 -28.5s-56.834 -43.833 -81.501 -74.5zM1053 1169c32 -25.333 54.667 -54.1699 68 -86.5029s20 -79.833 20 -142.5c0 -134 -22.5 -259.333 -67.5 -376
s-114.833 -231 -209.5 -343c-74 -87.333 -158.333 -157.666 -253 -210.999s-179.667 -80 -255 -80c-74.667 0 -141 38.167 -199 114.5s-87 169.5 -87 279.5c0 128.667 36.167 259.834 108.5 393.501s170.5 248.834 294.5 345.501c77.333 60.667 159.333 110.667 246 150
s152 59 196 59c22 0 44.667 -5.5 68 -16.5s49.333 -28.833 78 -53.5z" />
    <glyph glyph-name="one" unicode="1" horiz-adv-x="1161" 
d="M782 1040c-43.333 -14.667 -93.5 -33.667 -150.5 -57s-90.833 -35 -101.5 -35c-5.33301 0 -9.66602 2.5 -12.999 7.5s-5 11.5 -5 19.5c0 19.333 7.16699 38.833 21.5 58.5s35.166 38.5 62.499 56.5c68 44 135.667 81.167 203 111.5s112.333 45.5 135 45.5
c20 0 36.167 -12.333 48.5 -37s18.5 -56 18.5 -94c0 -52.667 -42.667 -152.667 -128 -300l-9 -16l-233 -394c-40 -68 -75.333 -143.833 -106 -227.5s-46 -141.167 -46 -172.5c0 -8 0.666992 -18.167 2 -30.5s2 -20.5 2 -24.5c0 -14 -3 -25 -9 -33s-13.667 -12 -23 -12
c-22.667 0 -58.167 20.333 -106.5 61s-72.5 81 -72.5 121c0 104 45.5 242 136.5 414s215.5 351.333 373.5 538z" />
    <glyph glyph-name="two" unicode="2" horiz-adv-x="1161" 
d="M186 170c198.667 22 401 52.0029 607 90.0029c51.333 9.33301 80.666 14 87.999 14c12 0 20 -2.33301 24 -7s6 -13 6 -25c0 -44 -17.667 -92.667 -53 -146s-77 -90 -125 -110c-45.333 -19.333 -108.666 -34.166 -189.999 -44.499s-174.333 -15.5 -279 -15.5
c-47.333 0 -84.5 4.66699 -111.5 14s-49.167 24.666 -66.5 45.999c-12 15.333 -24.5 42.666 -37.5 81.999s-19.5 71.333 -19.5 96c0 64 39.667 135.333 119 214s195.333 161.667 348 249c56 32 133.667 72.667 233 122c196.667 98 295 183 295 255
c0 14 -8.33301 24.667 -25 32s-41 11 -73 11c-72.667 0 -156.334 -15.333 -251.001 -46s-179.667 -71.334 -255 -122.001c52 -2 95.333 -9.5 130 -22.5s52 -27.5 52 -43.5c0 -9.33301 -3.33301 -16.166 -10 -20.499s-17.667 -6.5 -33 -6.5h-16
c-36.667 0 -79.167 -6 -127.5 -18s-74.833 -18 -79.5 -18h-23c-21.333 0 -36.166 4.66699 -44.499 14s-12.5 24.333 -12.5 45c0 138 57.833 249.667 173.5 335s269.5 128 461.5 128c60.667 0 103.834 -3.83301 129.501 -11.5s45.167 -20.834 58.5 -39.501
c21.333 -28.667 37.333 -64.334 48 -107.001s16 -91.667 16 -147c0 -78 -20.833 -143.667 -62.5 -197s-130.834 -120.333 -267.501 -201l-109 -64c-221.333 -129.333 -394 -241 -518 -335z" />
    <glyph glyph-name="three" unicode="3" horiz-adv-x="1161" 
d="M145 268c-12.667 -8.66699 -22.3369 -17.834 -29.0039 -27.501s-10 -19.5 -10 -29.5c0 -22.667 12.5 -40.667 37.5 -54s59.833 -20 104.5 -20c138 0 268.667 30.167 392 90.5s185 116.833 185 169.5c0 37.333 -25.667 64.833 -77 82.5s-131.333 26.5 -240 26.5
c-68 0 -136.667 -5.33301 -206 -16c-13.333 -2 -21 -3 -23 -3c-18 0.666992 -29.667 3.66699 -35 9s-8 16 -8 32c0 72 17.333 126 52 162s98.334 61.333 191.001 76c178 28.667 322.167 67 432.5 115s165.5 94.333 165.5 139c0 23.333 -14.167 40.833 -42.5 52.5
s-72.166 17.5 -131.499 17.5c-82 0 -159.667 -8 -233 -24s-139.666 -39 -198.999 -69l133 -71c-44.667 -2 -94 -5 -148 -9s-85.333 -6 -94 -6c-26 0 -48.5 10.333 -67.5 31s-28.5 46 -28.5 76c0 74.667 53.333 137.334 160 188.001s240.334 76 401.001 76
c128 0 224.5 -22.167 289.5 -66.5s97.5 -109.5 97.5 -195.5c0 -102.667 -53.833 -184 -161.5 -244s-281.834 -105 -522.501 -135c161.333 -12 277.833 -40.667 349.5 -86s107.5 -112.333 107.5 -201c0 -66.667 -21.333 -129.667 -64 -189s-106 -113.666 -190 -162.999
c-67.333 -40 -140.666 -70.5 -219.999 -91.5s-162.333 -31.5 -249 -31.5c-106 0 -186 14.167 -240 42.5s-81 70.166 -81 125.499c0 24 8 51.333 24 82s38.667 62 68 94c16.667 18 31.167 30.333 43.5 37s25.833 10 40.5 10c6.66699 0 12 -0.166992 16 -0.5
s7.33301 -0.833008 10 -1.5z" />
    <glyph glyph-name="four" unicode="4" horiz-adv-x="1161" 
d="M594 483c61.333 103.333 132.001 208.334 212.001 315.001s169 214.667 267 324c-143.333 -53.333 -283 -135.833 -419 -247.5s-261 -246.834 -375 -405.501c12.667 -5.33301 26.667 -9 42 -11s36 -3 62 -3c29.333 0 59.166 1.83301 89.499 5.5s70.833 11.167 121.5 22.5
zM750.001 256.001c-14.667 -30.667 -25.8291 -62.3359 -33.4961 -95.0029s-11.5 -61 -11.5 -85c0 -6.66699 3 -15 9 -25s9 -18.667 9 -26c0 -25.333 -24.833 -56 -74.5 -92s-90.5 -54 -122.5 -54c-17.333 0 -30.5 10.833 -39.5 32.5s-13.5 53.834 -13.5 96.501
c0 36 1.83301 71.833 5.5 107.5s9.16699 71.5 16.5 107.5l-214 -10h-5c-5.33301 0 -13.333 -0.333008 -24 -1s-19 -1 -25 -1c-32 0 -53.833 3.66699 -65.5 11s-23.834 23.333 -36.501 48c-14.667 28.667 -26.834 59.834 -36.501 93.501s-14.5 60.5 -14.5 80.5
c0 68 45.667 156.167 137 264.5s210.666 212.166 357.999 311.499c113.333 76 221 138.667 323 188s172 74 210 74c18 0 34.5 -7 49.5 -21s22.5 -29.667 22.5 -47c0 -7.33301 -2.83301 -15.5 -8.5 -24.5s-13.834 -18.5 -24.501 -28.5c10 -14 17.5 -27.5 22.5 -40.5
s7.5 -24.833 7.5 -35.5c0 -21.333 -5.5 -46 -16.5 -74s-31.167 -66.667 -60.5 -116l-226 -377l109 6h16c27.333 0 47.833 -4.5 61.5 -13.5s20.5 -22.833 20.5 -41.5c0 -17.333 -9 -40.5 -27 -69.5s-41.667 -57.833 -71 -86.5c-10.667 -9.33301 -25 -17.166 -43 -23.499
s-43.333 -12.166 -76 -17.499z" />
    <glyph glyph-name="five" unicode="5" horiz-adv-x="1161" 
d="M364 301l-177.001 -105.999c13.333 -5.33301 26.666 -9.16602 39.999 -11.499s26.333 -3.5 39 -3.5c43.333 0 99.833 11.667 169.5 35s138.167 54 205.5 92c69.333 40 126.333 83.667 171 131s67 85.666 67 114.999c0 24.667 -12.833 43.5 -38.5 56.5
s-63.5 19.5 -113.5 19.5c-72 0 -150.833 -11.333 -236.5 -34s-131.167 -34 -136.5 -34c-23.333 0 -46.833 27.667 -70.5 83s-35.5 109 -35.5 161c0 24 21.5 66.667 64.5 128s97.833 125.666 164.5 192.999c69.333 69.333 116.833 111.666 142.5 126.999s56.834 23 93.501 23
c0.666992 0 27.667 -1 81 -3s106 -3 158 -3c38.667 0 79.167 1 121.5 3s87.833 5 136.5 9c-12.667 -42.667 -31.667 -85.834 -57 -129.501s-53.333 -82.5 -84 -116.5c-10.667 -12 -28.834 -20.333 -54.501 -25s-81.834 -7 -168.501 -7h-246
c-29.333 -30.667 -57.833 -63.167 -85.5 -97.5s-55.167 -71.5 -82.5 -111.5c49.333 16 97.833 28.167 145.5 36.5s92.834 12.5 135.501 12.5c88 0 158.833 -27 212.5 -81s80.5 -126 80.5 -216c0 -82.667 -19.667 -164 -59 -244s-91.333 -145.667 -156 -197
c-77.333 -59.333 -171.666 -107.166 -282.999 -143.499s-219.333 -54.5 -324 -54.5c-69.333 0 -117.666 13 -144.999 39s-41 71 -41 135c0 62.667 31.667 115.834 95 159.501s135.333 65.5 216 65.5c8.66699 0 17.5 -0.5 26.5 -1.5s18.5 -2.5 28.5 -4.5z" />
    <glyph glyph-name="six" unicode="6" horiz-adv-x="1161" 
d="M340 233c0 -37.333 4.50098 -66.667 13.501 -88s21.5 -32 37.5 -32c19.333 0 49.666 12.5 90.999 37.5s82 56.833 122 95.5c53.333 50.667 98.5 112.167 135.5 184.5s55.5 130.833 55.5 175.5c0 21.333 -4.16699 37.333 -12.5 48s-20.833 16 -37.5 16
c-30 0 -67.833 -15.167 -113.5 -45.5s-97.167 -74.833 -154.5 -133.5l-8 -8c-86 -90 -129 -173.333 -129 -250zM518.001 730.999c51.333 27.333 94.833 46.833 130.5 58.5s69.5 17.5 101.5 17.5c73.333 0 132.166 -23.667 176.499 -71s66.5 -110.333 66.5 -189
c0 -71.333 -16.5 -144.666 -49.5 -219.999s-79.167 -144 -138.5 -206c-60 -63.333 -122.167 -114 -186.5 -152s-118.166 -57 -161.499 -57c-79.333 0 -154.833 44.167 -226.5 132.5s-107.5 188.166 -107.5 299.499c0 124.667 45.667 256 137 394s215.666 262 372.999 372
l49 34c119.333 84 201.333 126 246 126h86c34 0 60.833 -2.33301 80.5 -7s29.5 -10.667 29.5 -18c0 -4 -71.167 -56.667 -213.5 -158s-273.166 -220 -392.499 -356z" />
    <glyph glyph-name="seven" unicode="7" horiz-adv-x="1161" 
d="M328 -143c-32 13.333 -56.168 32.834 -72.501 58.501s-24.5 57.167 -24.5 94.5c0 105.333 65.667 255 197 449s300.333 381 507 561c-34 3.33301 -66.167 5.83301 -96.5 7.5s-59.833 2.5 -88.5 2.5c-70 0 -131.5 -2.83301 -184.5 -8.5s-92.833 -13.834 -119.5 -24.501
c-18 -6.66699 -42.667 -22.334 -74 -47.001s-55.666 -37 -72.999 -37c-12 0 -22.5 5.16699 -31.5 15.5s-13.5 23.166 -13.5 38.499c0 16 20.167 54.833 60.5 116.5s81.5 110.834 123.5 147.501c20.667 18 76.334 32.667 167.001 44s200.334 17 329.001 17h29
c105.333 0 169.166 -14.833 191.499 -44.5s33.833 -93.5 34.5 -191.5c-196.667 -194.667 -353.167 -380.667 -469.5 -558s-174.5 -312.666 -174.5 -405.999c0 -14.667 1.33301 -26.167 4 -34.5s6.66699 -12.5 12 -12.5c4.66699 0 11.167 2 19.5 6s14.166 6 17.499 6
c2.66699 0 5 -1.5 7 -4.5s3 -6.83301 3 -11.5c0 -15.333 -26.167 -40.5 -78.5 -75.5s-119.5 -71.167 -201.5 -108.5z" />
    <glyph glyph-name="eight" unicode="8" horiz-adv-x="1161" 
d="M614 676l191.499 171.5l191.5 164.5c-34 3.33301 -66.167 5.83301 -96.5 7.5s-60.166 2.5 -89.499 2.5c-92 0 -164.5 -15 -217.5 -45s-79.5 -70.333 -79.5 -121c0 -22.667 6.66699 -46.667 20 -72s40 -61.333 80 -108zM550.999 406
c-91.333 -98.667 -160.334 -178.834 -207.001 -240.501s-70 -103.834 -70 -126.501c0 -13.333 8.16699 -24.5 24.5 -33.5s36.833 -13.5 61.5 -13.5c62 0 119.833 25.167 173.5 75.5s80.5 107.833 80.5 172.5c0 26.667 -5.16699 53.834 -15.5 81.501
s-26.166 55.834 -47.499 84.501zM695.998 557c38 -42 66.001 -87.165 84.001 -135.498s27 -101.5 27 -159.5c0 -64.667 -9.5 -120.334 -28.5 -167.001s-49.167 -88 -90.5 -124c-46.667 -40.667 -102.5 -74.667 -167.5 -102s-121.167 -41 -168.5 -41
c-64.667 0 -120.667 19.167 -168 57.5s-71 84.833 -71 139.5c0 51.333 27.667 117.166 83 197.499s144.333 182.833 267 307.5c-56.667 80.667 -97.167 149.167 -121.5 205.5s-36.5 108.166 -36.5 155.499c0 122.667 64 220.834 192 294.501s302.333 110.5 523 110.5
c90.667 0 150.5 -4.16699 179.5 -12.5s43.5 -23.833 43.5 -46.5c0 -40 -18.167 -87.5 -54.5 -142.5s-76.5 -83.167 -120.5 -84.5c3.33301 -8 5.66602 -14.5 6.99902 -19.5s2 -9.5 2 -13.5c0 -30.667 -103.667 -148 -311 -352z" />
    <glyph glyph-name="nine" unicode="9" horiz-adv-x="1161" 
d="M780 541c-79.333 -58 -153.667 -104.669 -223 -140.002s-119 -53 -149 -53c-27.333 0 -53.5 7.83301 -78.5 23.5s-50.167 39.834 -75.5 72.501c-34 44.667 -58.833 86.167 -74.5 124.5s-23.5 76.166 -23.5 113.499c0 62.667 23 129 69 199s109.667 134.667 191 194
c77.333 57.333 168.666 106.5 273.999 147.5s183.333 61.5 234 61.5c20 0 40 -4.16699 60 -12.5s36.667 -19.833 50 -34.5l2 -2c71.333 -75.333 107 -128.666 107 -159.999c0 -16 -5.5 -32.167 -16.5 -48.5s-30.833 -36.833 -59.5 -61.5
c-30.667 -26.667 -61.834 -49.167 -93.501 -67.5s-53.167 -27.5 -64.5 -27.5c-6 0.666992 -11.167 3.33398 -15.5 8.00098s-6.5 10.334 -6.5 17.001c0 6 14 21.833 42 47.5s52 50.834 72 75.501c-186 -40 -339.667 -102.667 -461 -188s-182 -168 -182 -248
c0 -20.667 5.5 -38.167 16.5 -52.5s24.167 -21.5 39.5 -21.5c28.667 0 77 16.667 145 50s139 76.666 213 129.999c34.667 25.333 78 59.666 130 102.999c67.333 55.333 112 83 134 83c26.667 0 51.834 -6.16699 75.501 -18.5s35.5 -25.833 35.5 -40.5
c0 -6.66699 -4 -16.667 -12 -30s-21 -32 -39 -56l-547 -749c-36.667 -50.667 -76.167 -92.167 -118.5 -124.5s-75.833 -48.5 -100.5 -48.5c-8.66699 0 -17.667 2.33301 -27 7s-20.333 12 -33 22l66 144c10.667 24.667 24.834 45 42.501 61s38.167 27.667 61.5 35z" />
    <glyph glyph-name="colon" unicode=":" horiz-adv-x="602" 
d="M225 469c0 36 26.167 78.5 78.5 127.5s95.833 73.5 130.5 73.5c15.333 0 27 -4.33301 35 -13s12 -20.667 12 -36c0 -35.333 -23.167 -78.333 -69.5 -129s-89.833 -76 -130.5 -76c-18.667 0 -32.667 4.5 -42 13.5s-14 22.167 -14 39.5zM35 4c0 36 26.167 78.5 78.5 127.5
s95.833 73.5 130.5 73.5c14.667 0 26.167 -4.33301 34.5 -13s12.5 -20.667 12.5 -36c0 -35.333 -23.5 -78.333 -70.5 -129s-91.167 -76 -132.5 -76c-18 0 -31.333 4.33301 -40 13s-13 22 -13 40z" />
    <glyph glyph-name="semicolon" unicode=";" horiz-adv-x="602" 
d="M20 -127c24.667 28.667 41.502 49.333 50.502 62s13.5 20.667 13.5 24c0 0.666992 -8.16699 5 -24.5 13s-24.5 21.333 -24.5 40c0 41.333 24 83.833 72 127.5s97 65.5 147 65.5c9.33301 0 17.166 -4.5 23.499 -13.5s9.5 -20.833 9.5 -35.5
c0 -32 -20.833 -76.167 -62.5 -132.5s-93.834 -106.5 -156.501 -150.5h-48zM225.002 466.999c0 36 26.167 78.501 78.5 127.501s95.833 73.5 130.5 73.5c15.333 0 27 -4.33301 35 -13s12 -21 12 -37c0 -34.667 -23.5 -77.334 -70.5 -128.001s-90.833 -76 -131.5 -76
c-18 0 -31.5 4.33301 -40.5 13s-13.5 22 -13.5 40z" />
    <glyph glyph-name="less" unicode="&#x3c;" horiz-adv-x="1706" 
d="M1442 1176v-185l-934 -381l934 -381v-182l-1178 483v160z" />
    <glyph glyph-name="equal" unicode="=" horiz-adv-x="1706" 
d="M254 487h1198v-165h-1198v165zM254 901h1198v-168h-1198v168z" />
    <glyph glyph-name="greater" unicode="&#x3e;" horiz-adv-x="1706" 
d="M264 1176l1178 -486v-160l-1178 -483v182l934 381l-934 381v185z" />
    <glyph glyph-name="question" unicode="?" horiz-adv-x="784" 
d="M317 1100l64.001 -30.998l4 -2c16.667 -8 25 -17.667 25 -29c0 -6.66699 -1.5 -11.334 -4.5 -14.001s-7.83301 -4 -14.5 -4c-0.666992 0 -4.33398 0.666992 -11.001 2c-34.667 8.66699 -74.334 16 -119.001 22c-34.667 4.66699 -57.167 10.5 -67.5 17.5
s-15.5 19.167 -15.5 36.5c0 85.333 38.833 153.666 116.5 204.999s184.167 77 319.5 77c82 0 145.167 -18.333 189.5 -55s66.5 -88.667 66.5 -156c0 -72.667 -19.667 -147 -59 -223s-117 -180.333 -233 -313l-64 -73c-82 -93.333 -123 -150.333 -123 -171
c0 -2 1 -8.66699 3 -20s3 -21.666 3 -30.999c0 -10.667 -3.83301 -19.5 -11.5 -26.5s-17.5 -10.5 -29.5 -10.5c-21.333 0 -42.666 16.167 -63.999 48.5s-32 69.5 -32 111.5c0 45.333 22 96.166 66 152.499s125 134.5 243 234.5l61 50c96 78 144 137.667 144 179
c0 30.667 -12.5 52.667 -37.5 66s-67.833 20 -128.5 20c-50.667 0 -101 -5.5 -151 -16.5s-96.667 -26.5 -140 -46.5zM186.001 -38.998c-22.667 0 -46.667 14 -72 42s-38 56.333 -38 85c0 36.667 17 82.667 51 138s59.333 83 76 83c14 0 33.833 -15.667 59.5 -47
s38.5 -59.333 38.5 -84c0 -43.333 -13.833 -90.333 -41.5 -141s-52.167 -76 -73.5 -76z" />
    <glyph glyph-name="at" unicode="@" horiz-adv-x="2048" 
d="M1174 283c-36.667 -58 -79.334 -100.502 -128.001 -127.502s-107.334 -40.5 -176.001 -40.5c-101.333 0 -178.833 28.833 -232.5 86.5s-80.5 140.834 -80.5 249.501c0 155.333 46 287 138 395s203 162 333 162c59.333 0 109 -11.5 149 -34.5s73 -58.833 99 -107.5l55 107
h154l-148 -586c-0.666992 -3.33301 -1.33398 -7.33301 -2.00098 -12c-4 -18.667 -6 -31 -6 -37c0 -25.333 8.83301 -45.666 26.5 -60.999s40.834 -23 69.501 -23c34 0 69.833 10.167 107.5 30.5s72.834 48.5 105.501 84.5c48 50.667 84.667 109.834 110 177.501
s38 139.5 38 215.5c0 168.667 -62.333 305.667 -187 411s-287.667 158 -489 158c-92 0 -177.333 -10.333 -256 -31s-150.334 -52 -215.001 -94c-120.667 -75.333 -213.667 -172.333 -279 -291s-98 -250.334 -98 -395.001c0 -208 69.833 -374.333 209.5 -499
s325.834 -187 558.501 -187c110.667 0 218.5 16.333 323.5 49s202.167 80 291.5 142l67 -99c-99.333 -75.333 -205.5 -132 -318.5 -170s-231.5 -57 -355.5 -57c-128 0 -245 16 -351 48s-199.667 79.333 -281 142c-103.333 78.667 -180.5 170.5 -231.5 275.5
s-76.5 224.167 -76.5 357.5c0 110 17.333 214.5 52 313.5s85.667 189.833 153 272.5c98 119.333 215.833 210 353.5 272s290.834 93 459.501 93c110.667 0 215.667 -15.167 315 -45.5s184.333 -72.833 255 -127.5c88 -68 154 -146.5 198 -235.5s66 -189.167 66 -300.5
c0 -108 -21.667 -208.667 -65 -302s-105 -172.333 -185 -237c-46 -36.667 -96 -64.5 -150 -83.5s-110 -28.5 -168 -28.5c-70.667 0 -123 13.5 -157 40.5s-51 68.833 -51 125.5v4zM1233 706.998c-9.33301 56 -29.832 99.332 -61.499 129.999s-72.5 46 -122.5 46
c-84.667 0 -157.167 -42.833 -217.5 -128.5s-90.5 -189.167 -90.5 -310.5c0 -65.333 15.167 -115.666 45.5 -150.999s73.166 -53 128.499 -53c60 0 114.5 22.167 163.5 66.5s82.167 101.833 99.5 172.5z" />
    <glyph glyph-name="A" unicode="A" horiz-adv-x="1466" 
d="M545 418l-74 -94.0049c-134.667 -170 -240 -289.667 -316 -359s-138 -104 -186 -104c-11.333 0 -21.333 3.66699 -30 11s-13 16 -13 26c0 46.667 36.167 111.167 108.5 193.5s145.5 134.5 219.5 156.5l139 172c-100 5.33301 -161.5 13 -184.5 23s-34.5 27 -34.5 51
c0 22 17.5 53.667 52.5 95s70.167 71 105.5 89c28.667 14.667 62.5 25.5 101.5 32.5s91.833 11.167 158.5 12.5c-18.667 -18 -45.834 -31.167 -81.501 -39.5s-58.167 -14.166 -67.5 -17.499h147c193.333 221.333 360.833 399.833 502.5 535.5s229.5 203.5 263.5 203.5
c16.667 0 31.667 -8.5 45 -25.5s20 -37.167 20 -60.5c0 -19.333 -3.33301 -44.5 -10 -75.5s-16.334 -65.833 -29.001 -104.5l-137 -441l107 7h14c26 0 48.5 -4.66699 67.5 -14s28.5 -20 28.5 -32c0 -16.667 -14.5 -44.167 -43.5 -82.5s-62.833 -74.166 -101.5 -107.499
c-18 -15.333 -56 -25.666 -114 -30.999c-16.667 -1.33301 -30 -2.66602 -40 -3.99902c-20.667 -68 -35 -118.5 -43 -151.5s-12 -58.167 -12 -75.5c0 -15.333 2.66699 -27.666 8 -36.999s12.333 -14 21 -14c20 0 53.833 16 101.5 48s114.834 84 201.501 156l2 -69
c-127.333 -138 -221.5 -228.5 -282.5 -271.5s-117.833 -64.5 -170.5 -64.5c-37.333 0 -65 9.5 -83 28.5s-27 47.833 -27 86.5c0 17.333 1.16699 34.5 3.5 51.5s5.83301 32.5 10.5 46.5l88 268c-50.667 -6 -105.667 -10.5 -165 -13.5s-126.666 -4.5 -201.999 -4.5h-69z
M1057 691.995l157 478.999c-88 -81.333 -170.833 -163.166 -248.5 -245.499s-152.167 -167.5 -223.5 -255.5c70.667 2 131.167 4.83301 181.5 8.5s94.833 8.16699 133.5 13.5z" />
    <glyph glyph-name="B" unicode="B" horiz-adv-x="1346" 
d="M629 659c186.667 -16 334.666 -49.3301 443.999 -99.9971s164 -110 164 -178c0 -42 -16.333 -84.333 -49 -127s-83.334 -87.667 -152.001 -135c-84 -58.667 -169.833 -103.334 -257.5 -134.001s-172.5 -46 -254.5 -46c-110.667 0 -201.5 22.5 -272.5 67.5
s-106.5 102.167 -106.5 171.5c0 39.333 7.83301 79.166 23.5 119.499s40.834 85.166 75.501 134.499l112 164c-48.667 4.66699 -86.334 14.5 -113.001 29.5s-40 33.833 -40 56.5s21.5 41.834 64.5 57.501s129.833 34.167 260.5 55.5
c96.667 106.667 176.834 182.5 240.501 227.5s121.5 67.5 173.5 67.5c6 0 10.667 -1.83301 14 -5.5s5 -8.16699 5 -13.5s-2.16699 -12 -6.5 -20s-10.5 -17 -18.5 -27l-168 -201c162.667 27.333 295.167 65.833 397.5 115.5s153.5 98.5 153.5 146.5c0 30 -18 54.333 -54 73
s-83.667 28 -143 28c-85.333 0 -181.333 -11.333 -288 -34s-221.667 -56.334 -345 -101.001l80 -21l-303 -98l-15 -5c-60 -18.667 -99.333 -28 -118 -28c-13.333 0 -24.166 3.5 -32.499 10.5s-12.5 15.833 -12.5 26.5c0 30 22.833 81.167 68.5 153.5
s91.834 123.5 138.501 153.5c28 18.667 67.167 37.5 117.5 56.5s116.833 39.833 199.5 62.5c100.667 26.667 188 46 262 58s143.667 18 209 18c122.667 0 222 -24.5 298 -73.5s114 -112.5 114 -190.5c0 -118 -71.833 -217.833 -215.5 -299.5
s-346.834 -137.5 -609.501 -167.5zM552.999 569.003l-89.999 -106.002c-24 -28.667 -43 -57 -57 -85s-21 -51 -21 -69c0 -29.333 20.167 -55.666 60.5 -78.999s89.166 -35 146.499 -35c98 0 193.833 26 287.5 78s140.5 99.667 140.5 143c0 32 -40.667 61.333 -122 88
s-196.333 48.334 -345 65.001z" />
    <glyph glyph-name="C" unicode="C" horiz-adv-x="1389" 
d="M1341 539l13 -84.001c-170 -171.333 -334.5 -302 -493.5 -392s-303.833 -135 -434.5 -135c-120.667 0 -218 34.667 -292 104s-111 160.333 -111 273c0 126.667 49.667 262.834 149 408.501s238.666 285.5 417.999 419.5c148.667 110.667 286.167 195.334 412.5 254.001
s234.5 88 324.5 88c56.667 0 100.834 -15 132.501 -45s47.5 -71 47.5 -123c0 -72 -25.167 -149.833 -75.5 -233.5s-125.5 -172.5 -225.5 -266.5c-88 -83.333 -175.333 -152.333 -262 -207s-146.667 -82 -180 -82c-26 0 -51.667 15 -77 45s-38 60 -38 90
c0 32 32.5 78 97.5 138s149.833 120.667 254.5 182l9 -43c90.667 70 164.834 139.667 222.501 209s86.5 121 86.5 155c0 14.667 -3.33301 25.167 -10 31.5s-17 9.5 -31 9.5c-38 0 -107.333 -30 -208 -90s-204.667 -136.333 -312 -229
c-134 -114.667 -238.833 -233.334 -314.5 -356.001s-113.5 -232.667 -113.5 -330c0 -62.667 18 -111.167 54 -145.5s87 -51.5 153 -51.5c101.333 0 220.166 34.333 356.499 103s285.5 169.667 447.5 303z" />
    <glyph glyph-name="D" unicode="D" horiz-adv-x="1538" 
d="M551 985c-76.667 -10.667 -158.999 -29.6699 -246.999 -57.0029s-141 -41 -159 -41c-16 0 -28.5 4.16699 -37.5 12.5s-13.5 19.833 -13.5 34.5c0 50.667 10.833 104.334 32.5 161.001s49.167 97.334 82.5 122.001c78.667 58.667 181.334 105.334 308.001 140.001
s260.334 52 401.001 52c210 0 369.333 -45 478 -135s163 -222.333 163 -397c0 -116.667 -32 -228.667 -96 -336s-157.667 -206.333 -281 -297c-120.667 -88 -251.334 -156.833 -392.001 -206.5s-274.334 -74.5 -401.001 -74.5c-80.667 0 -138 11.5 -172 34.5
s-51 61.5 -51 115.5c0 88 48.833 210.833 146.5 368.5s254.834 366.5 471.501 626.5c-62.667 -4 -130.667 -15.167 -204 -33.5s-150.333 -43.166 -231 -74.499c17.333 1.33301 31.666 2.16602 42.999 2.49902s23.333 0.833008 36 1.5c31.333 0 56.666 -1.5 75.999 -4.5
s35 -7.83301 47 -14.5zM874.001 1112l0.000976562 -14.002c0 -42 -38 -111.667 -114 -209l-23 -29c-104 -137.333 -192.833 -267 -266.5 -389s-110.5 -193.667 -110.5 -215c0 -17.333 11.667 -30.166 35 -38.499s59.666 -12.5 108.999 -12.5c88 0 182.833 14.167 284.5 42.5
s195.167 66.5 280.5 114.5c104.667 59.333 189.5 133.833 254.5 223.5s97.5 175.834 97.5 258.501c0 81.333 -46 144.5 -138 189.5s-228.333 71.167 -409 78.5z" />
    <glyph glyph-name="E" unicode="E" horiz-adv-x="1354" 
d="M1221 344c2 -15.333 3.49902 -29.166 4.49902 -41.499s1.5 -23.166 1.5 -32.499c0 -64 -12.167 -119.833 -36.5 -167.5s-63.5 -92.834 -117.5 -135.501c-83.333 -64 -186.333 -115.833 -309 -155.5s-243 -59.5 -361 -59.5c-130 0 -230.667 26.333 -302 79
s-107 126.667 -107 222c0 126.667 70.5 242 211.5 346s331.167 178.667 570.5 224c-193.333 2 -335.166 25 -425.499 69s-135.5 111.667 -135.5 203c0 62.667 20.167 122.834 60.5 180.501s101.5 113.5 183.5 167.5c83.333 55.333 180.833 97.833 292.5 127.5
s229.834 44.5 354.501 44.5c68.667 0 130 -4.83301 184 -14.5s89.667 -21.834 107 -36.501c10 -8.66699 16.833 -19.5 20.5 -32.5s5.5 -36.833 5.5 -71.5v-27c0 -37.333 -5.33301 -65.166 -16 -83.499s-36.667 -37.5 -78 -57.5l-218 -106.5
c-60.667 -29 -91.667 -43.5 -93 -43.5c-4.66699 0 -8.16699 0.833008 -10.5 2.5s-3.5 4.16699 -3.5 7.5c0 16 14 38 42 66s65 56.667 111 86c-12.667 0.666992 -25.5 1.16699 -38.5 1.5s-29.5 0.5 -49.5 0.5c-89.333 0 -179.333 -11.833 -270 -35.5
s-173.334 -56.834 -248.001 -99.501c-42 -24 -72.667 -45.5 -92 -64.5s-29 -37.167 -29 -54.5c0 -26 24.333 -45 73 -57s152.667 -21.667 312 -29c28 -1.33301 66.667 -3 116 -5c166 -6.66699 249 -27 249 -61c0 -16 -8.83301 -39 -26.5 -69s-38.834 -56 -63.501 -78
c-19.333 -16.667 -58.333 -29.334 -117 -38.001c-34 -4.66699 -61.333 -9 -82 -13c-104.667 -20.667 -195.667 -44.5 -273 -71.5s-144.666 -58.5 -201.999 -94.5c-59.333 -37.333 -108 -76.5 -146 -117.5s-57 -72.833 -57 -95.5c0 -26.667 17.667 -47 53 -61
s87.333 -21 156 -21c125.333 0 248.333 22.5 369 67.5s264 123.5 430 235.5z" />
    <glyph glyph-name="F" unicode="F" horiz-adv-x="1352" 
d="M782 295c-66.667 -7.33301 -124.667 -12.667 -174 -16s-94.333 -5 -135 -5c-26 0 -46.167 3.5 -60.5 10.5s-21.5 16.5 -21.5 28.5c0 79.333 43.5 140.5 130.5 183.5s244.833 79.5 473.5 109.5c78 131.333 135.833 237.5 173.5 318.5s56.5 139.5 56.5 175.5
c0 12 -4.16699 20.5 -12.5 25.5s-22.833 7.5 -43.5 7.5c-84.667 0 -201.5 -18.5 -350.5 -55.5s-309.167 -88.167 -480.5 -153.5l102 2h33c9.33301 0 16.5 -1.83301 21.5 -5.5s7.5 -8.83398 7.5 -15.501c0 -11.333 -34.667 -27 -104 -47
c-29.333 -8 -52.666 -14.667 -69.999 -20c-28 -8.66699 -64 -21.5 -108 -38.5s-72.333 -25.5 -85 -25.5c-17.333 0 -31.166 5.16699 -41.499 15.5s-15.5 23.5 -15.5 39.5c0 15.333 8 45.166 24 89.499s36.667 90.5 62 138.5c25.333 46.667 50.833 84.334 76.5 113.001
s53.5 50.334 83.5 65.001c24.667 11.333 68.667 26.833 132 46.5s132.666 38.834 207.999 57.501c117.333 28.667 225.166 50.167 323.499 64.5s186.833 21.5 265.5 21.5c89.333 0 149 -7.33301 179 -22s45 -41.334 45 -80.001c0 -63.333 -26.833 -159 -80.5 -287
s-127.834 -272.667 -222.501 -434c6 0 17.5 0.333008 34.5 1s30.5 1 40.5 1c10.667 0 21.834 -0.166992 33.501 -0.5s23.834 -0.833008 36.501 -1.5c-24.667 -46.667 -50 -90.667 -76 -132s-45.667 -70.333 -59 -87c-16 -18.667 -77.667 -40.667 -185 -66l-8 -2
c-150.667 -201.333 -293 -365.333 -427 -492s-228.333 -190 -283 -190c-12.667 0 -23.334 4.16699 -32.001 12.5s-13 17.833 -13 28.5c0 64 33.333 135 100 213s141 127.333 223 148c34 36 68.833 75 104.5 117z" />
    <glyph glyph-name="G" unicode="G" horiz-adv-x="1389" 
d="M897 434c-173.333 -152 -309.328 -261.664 -407.995 -328.997s-172.334 -101 -221.001 -101c-64.667 0 -117.334 29.333 -158.001 88s-61 135.334 -61 230.001c0 128 42.167 255.667 126.5 383s206.166 246.666 365.499 357.999c134 93.333 270.333 166.833 409 220.5
s259 80.5 361 80.5c48.667 0 79.834 -13.167 93.501 -39.5s20.5 -73.166 20.5 -140.499c0 -20.667 -10.333 -41.334 -31 -62.001s-72.334 -56 -155.001 -106c-74 -44.667 -126.833 -75.667 -158.5 -93s-51.167 -26 -58.5 -26c-4.66699 0 -8.83398 2.16699 -12.501 6.5
s-5.5 9.16602 -5.5 14.499c0 4.66699 1.33301 9.5 4 14.5s9.33398 12.833 20.001 23.5l121 119c-87.333 -30 -180.5 -74.167 -279.5 -132.5s-193.5 -124.833 -283.5 -199.5c-110.667 -91.333 -198.167 -182.833 -262.5 -274.5s-96.5 -167.834 -96.5 -228.501
c0 -22 6.16699 -39.833 18.5 -53.5s28.166 -20.5 47.499 -20.5c31.333 0 81.666 23.5 150.999 70.5s189.666 141.5 360.999 283.5l213 186c84.667 76.667 138 115 160 115c21.333 0 45.666 -9.33301 72.999 -28s41 -36 41 -52c0 -21.333 -36 -99 -108 -233
s-161.667 -286.333 -269 -457c69.333 34.667 138.666 75.167 207.999 121.5s139.333 98.833 210 157.5l15 -78c-116 -111.333 -239.667 -215 -371 -311s-198.333 -145.333 -201 -148c-12 -12 -39.833 -46.333 -83.5 -103s-84.167 -104.334 -121.5 -143.001
c-62.667 -65.333 -121 -116.833 -175 -154.5s-96.667 -56.5 -128 -56.5c-21.333 0 -38.166 7.5 -50.499 22.5s-18.5 34.833 -18.5 59.5c0 42.667 13.333 90.5 40 143.5s62.334 100.833 107.001 143.5c32 31.333 73.833 66 125.5 104s82.834 61.333 93.501 70
c18 15.333 59.167 75.833 123.5 181.5s133.833 230.167 208.5 373.5z" />
    <glyph glyph-name="H" unicode="H" horiz-adv-x="1573" 
d="M625 297c-66.667 -68.667 -129.334 -144.17 -188.001 -226.503s-95 -123.5 -109 -123.5c-24 0 -45 8.66699 -63 26s-27 38.666 -27 63.999c0 28.667 48 106.334 144 233.001l13 17c-72.667 10 -120.167 21.167 -142.5 33.5s-33.5 31.166 -33.5 56.499
c0 26 12.333 55.333 37 88s50 53 76 61c2 0.666992 11.667 2.33398 29 5.00098c101.333 13.333 205.666 32.333 312.999 57c154 153.333 274.667 280 362 380s131 161 131 183c0 14.667 -5.16699 24.5 -15.5 29.5s-33.166 7.5 -68.499 7.5c-98.667 0 -207.667 -18 -327 -54
s-241 -87.667 -365 -155l94 -2l-303 -146c-20 -9.33301 -37.167 -16.333 -51.5 -21s-25.833 -7 -34.5 -7c-18 0 -31.667 5.66699 -41 17s-14 28 -14 50c0 38 8.16699 81.333 24.5 130s38.166 94.334 65.499 137.001c188 89.333 361.5 156 520.5 200s305.167 66 438.5 66
c96 0 161.167 -14.167 195.5 -42.5s51.5 -79.166 51.5 -152.499c0 -102 -110.333 -267.333 -331 -496l-91 -94c39.333 5.33301 81.5 9.83301 126.5 13.5s97.167 6.83398 156.5 9.50098c168.667 214 293.834 368.833 375.501 464.5s129.834 143.5 144.501 143.5
c8.66699 0 15 -2.5 19 -7.5s6 -13.167 6 -24.5c0 -75.333 -63.333 -191.666 -190 -348.999c-78 -98 -137.667 -177.667 -179 -239c73.333 -6.66699 127.5 -15.334 162.5 -26.001s52.5 -24 52.5 -40c0 -8.66699 -25.5 -39.334 -76.5 -92.001s-96.167 -103.667 -135.5 -153
c-32.667 3.33301 -62 5.83301 -88 7.5s-51 2.5 -75 2.5h-32c-38 -63.333 -65.667 -113.666 -83 -150.999s-26 -64.333 -26 -81c0 -4 1 -11.667 3 -23s3 -20.666 3 -27.999c0 -22.667 -19.667 -46.334 -59 -71.001s-75.666 -37 -108.999 -37
c-18.667 0 -32.834 5.5 -42.501 16.5s-14.5 27.167 -14.5 48.5c0 35.333 12.333 84.166 37 146.499s56.667 122.833 96 181.5c-52.667 -3.33301 -119.167 -9.16602 -199.5 -17.499s-134.5 -13.5 -162.5 -15.5z" />
    <glyph glyph-name="I" unicode="I" horiz-adv-x="977" 
d="M606 143c1.33301 -4.66699 2.33008 -9.66699 2.99707 -15s1 -13.333 1 -24c0 -28 -18.667 -65.333 -56 -112s-67.666 -70 -90.999 -70c-18 0 -39.667 12.833 -65 38.5s-38 47.167 -38 64.5c0 22 43.167 96.667 129.5 224s158.166 239.666 215.499 336.999
c95.333 163.333 159 284.5 191 363.5s50.667 151.5 56 217.5c-123.333 -30 -233.5 -81 -330.5 -153s-170.833 -157.333 -221.5 -256c24 8.66699 43.167 14.834 57.5 18.501s25.833 5.5 34.5 5.5c12.667 0 21.834 -2.16699 27.501 -6.5s8.5 -10.833 8.5 -19.5
c0 -13.333 -22.333 -35.333 -67 -66l-35 -24l-49 -38c-30 -24 -50.667 -36 -62 -36c-27.333 0 -62.166 21.667 -104.499 65s-63.5 79.666 -63.5 108.999c0 30.667 17.333 79 52 145s76.334 124 125.001 174c84 88 185.667 162 305 222s217 90 293 90
c60 0 107 -17.167 141 -51.5s51 -82.166 51 -143.499c0 -119.333 -43 -268.833 -129 -448.5s-212.333 -383.167 -379 -610.5z" />
    <glyph glyph-name="J" unicode="J" horiz-adv-x="1016" 
d="M539 573c-108.667 -116 -191.999 -198.501 -249.999 -247.501s-101 -73.5 -129 -73.5c-18.667 0 -33.334 8.33301 -44.001 25s-16 40.334 -16 71.001c0 120 28.667 252.667 86 398s130.666 268.666 219.999 369.999c83.333 96 177.833 173.333 283.5 232
s199.5 88 281.5 88c34.667 0 65.5 -13.667 92.5 -41s40.5 -59 40.5 -95c0 -83.333 -36.667 -212 -110 -386s-177.333 -378.333 -312 -613c66 31.333 125.667 55 179 71s99.333 24.333 138 25v-69c-53.333 -9.33301 -112 -26.166 -176 -50.499s-133 -56.166 -207 -95.499
c-219.333 -290 -377 -487.667 -473 -593s-164 -158 -204 -158c-22 0 -39.167 8.33301 -51.5 25s-18.5 39.667 -18.5 69c0 95.333 56.167 207 168.5 335s259.5 243.667 441.5 347c134 240 239 446 315 618s124.667 313.333 146 424
c-55.333 -12.667 -112.666 -41.334 -171.999 -86.001s-124.333 -108 -195 -190c-62 -74 -111.667 -152 -149 -234s-63.333 -170.667 -78 -266c51.333 39.333 90.333 65.833 117 79.5s50.667 20.5 72 20.5h4z" />
    <glyph glyph-name="K" unicode="K" horiz-adv-x="1499" 
d="M569 383l-74.0059 -114.999c-140 -218 -245 -327 -315 -327c-12.667 0 -23 3.66699 -31 11s-12 17.333 -12 30c0 16 11.167 42.5 33.5 79.5s65.833 99.167 130.5 186.5l166 223c-8.66699 14 -15 27.333 -19 40s-6 26 -6 40c0 80 64.667 153.667 194 221l36 19l65 34
c40.667 53.333 77.667 106.333 111 159s63.333 105 90 157c-58.667 -8.66699 -125 -26.334 -199 -53.001s-168 -67.667 -282 -123l-150 -76c-112.667 -57.333 -183 -86 -211 -86c-16.667 0 -29 4.5 -37 13.5s-12 23.5 -12 43.5c0 48 10.833 101.833 32.5 161.5
s46.5 100.834 74.5 123.501c44.667 36 88.334 66.5 131.001 91.5s71.334 37.5 86.001 37.5c0.666992 0 1.5 -0.5 2.5 -1.5s1.5 -1.83301 1.5 -2.5c0 -4 -2.16699 -8.66699 -6.5 -14s-11.166 -12.333 -20.499 -21l-47 -41c142.667 57.333 272.334 102.333 389.001 135
s203.334 49 260.001 49c36.667 0 70.834 -21.333 102.501 -64s47.5 -82 47.5 -118c0 -22.667 -24.667 -68.334 -74 -137.001c-37.333 -52.667 -67.333 -97 -90 -133l526 276c58.667 30.667 104.5 53.334 137.5 68.001s54.833 22 65.5 22c10 0 18 -1.83301 24 -5.5
s9 -8.5 9 -14.5c0 -30.667 -24 -74.834 -72 -132.501s-84.667 -86.5 -110 -86.5h-19c-14.667 0 -80.167 -29 -196.5 -87l-516.5 -268l-79 -118l138 -85c402 -246.667 603 -426.667 603 -540c0 -40 -2.66699 -67 -8 -81s-15 -21 -29 -21c-12.667 0 -48.834 18 -108.501 54
s-139.5 88 -239.5 156c-83.333 57.333 -180.166 120.5 -290.499 189.5s-177.5 112.5 -201.5 130.5z" />
    <glyph glyph-name="L" unicode="L" horiz-adv-x="1047" 
d="M-39 4l-9.99219 -5.00391c-78 -38.667 -142.333 -58 -193 -58c-34 0 -56.167 1.33301 -66.5 4s-15.5 8 -15.5 16c0 24 21 66.667 63 128s80.667 102.666 116 123.999c21.333 12.667 50.666 22.834 87.999 30.501s91.666 14.5 162.999 20.5
c57.333 59.333 155.166 178.833 293.499 358.5s258.5 322.5 360.5 428.5c84.667 88 167.167 160.5 247.5 217.5s137.166 85.5 170.499 85.5c16 0 32.5 -11.5 49.5 -34.5s25.5 -45.833 25.5 -68.5c0 -52.667 -20.333 -123.167 -61 -211.5s-104.334 -199.833 -191.001 -334.5
l25 -31c-52.667 -58 -104.334 -105 -155.001 -141s-89 -54 -115 -54c-12.667 0 -21.334 3.5 -26.001 10.5s-7 20.5 -7 40.5c0 49.333 12.167 100.833 36.5 154.5s64.833 116.834 121.5 189.501c4.66699 6.66699 12 16.334 22 29.001c71.333 92 112.333 161.667 123 209
c-113.333 -94.667 -249.333 -242.667 -408 -444s-279.334 -339.333 -362.001 -414c118.667 -17.333 265.167 -55.666 439.5 -114.999s281.833 -94.666 322.5 -105.999c-69.333 -78.667 -123.333 -132.5 -162 -161.5s-74 -43.5 -106 -43.5
c-35.333 0 -139.833 23.5 -313.5 70.5s-332.167 82.167 -475.5 105.5z" />
    <glyph glyph-name="M" unicode="M" horiz-adv-x="1915" 
d="M1864 307l0.00292969 -90.0059c-92.667 -105.333 -189.334 -191 -290.001 -257s-179.667 -99 -237 -99c-48.667 0 -86.334 23.667 -113.001 71s-40 114.333 -40 201s40.333 200.5 121 341.5s192.334 292.167 335.001 453.5c-102.667 -84 -206.334 -180.5 -311.001 -289.5
s-223.334 -246.167 -356.001 -411.5l-27 -33c-142 -176 -225.333 -264 -250 -264c-13.333 0 -27.5 21.667 -42.5 65s-22.5 87.333 -22.5 132c0 56 72 188.667 216 398s256.333 405.666 337 588.999c-96 -67.333 -194.667 -158.166 -296 -272.499
s-212.333 -260.5 -333 -438.5l-116 -175c-102.667 -157.333 -169.667 -236 -201 -236c-21.333 0 -42.5 21 -63.5 63s-31.5 86.333 -31.5 133c0 40 40.667 116 122 228c49.333 68.667 88.666 125.334 117.999 170.001c88.667 136 158.667 254.667 210 356s77 170.333 77 207
c0 6.66699 -3.16699 12.834 -9.5 18.501s-13.5 8.5 -21.5 8.5c-12 0 -37.333 -9.83301 -76 -29.5s-94 -50.167 -166 -91.5l-74 -44c-86.667 -51.333 -141 -77 -163 -77c-14.667 0 -25.167 3.33301 -31.5 10s-9.5 17.667 -9.5 33c0 42.667 7.66699 90.834 23 144.501
s33.666 95.5 54.999 125.5c22 31.333 52 61.333 90 90s61.667 43 71 43c2.66699 0 5.16699 -1.33301 7.5 -4s3.5 -5.33398 3.5 -8.00098s-2.83301 -7.66699 -8.5 -15s-12.5 -14.666 -20.5 -21.999l-70 -69c98.667 51.333 189 92.833 271 124.5s138 47.5 168 47.5
c31.333 0 60.333 -23.667 87 -71s40 -92.666 40 -135.999c0 -62 -21.333 -141.667 -64 -239s-102.667 -204 -180 -320c148.667 198 294.334 362.167 437.001 492.5s237.334 195.5 284.001 195.5c18.667 0 40.667 -15.667 66 -47s38 -66.333 38 -105
c0 -38 -27.333 -111.167 -82 -219.5s-131 -239.166 -229 -392.499c193.333 214.667 364.166 388.834 512.499 522.501s242.5 200.5 282.5 200.5c20.667 0 42.834 -22 66.501 -66s35.5 -81.333 35.5 -112c0 -28 -34.333 -82.333 -103 -163l-112 -138
c-116 -149.333 -203.333 -282 -262 -398s-88 -213.667 -88 -293c0 -31.333 3.66699 -52.333 11 -63s21.333 -16 42 -16c33.333 0 85.5 22.333 156.5 67s143.167 102.667 216.5 174z" />
    <glyph glyph-name="N" unicode="N" horiz-adv-x="1460" 
d="M1442 369l2.00195 -93.001c-104 -131.333 -213 -239.5 -327 -324.5s-201.667 -127.5 -263 -127.5c-36.667 0 -66.334 13.833 -89.001 41.5s-34 63.5 -34 107.5c0 76.667 24.5 169.334 73.5 278.001s124.833 238 227.5 388c29.333 42.667 75.833 107 139.5 193
s103.834 148 120.501 186c-97.333 -62.667 -197.833 -141.334 -301.5 -236.001s-207.834 -203.667 -312.501 -327l-174 -206c-133.333 -159.333 -208.333 -239 -225 -239c-17.333 0 -42.5 16.333 -75.5 49s-49.5 59.334 -49.5 80.001c0 17.333 55.667 113.333 167 288
l177 280c85.333 136.667 142.833 232.834 172.5 288.501s44.5 93.167 44.5 112.5c0 12 -3.33301 20.5 -10 25.5s-18.334 7.5 -35.001 7.5c-21.333 0 -64.5 -11.833 -129.5 -35.5s-137.833 -54.834 -218.5 -93.501l-172 -86c-80 -41.333 -126 -62 -138 -62
c-6.66699 0 -11.667 3.83301 -15 11.5s-5 19.5 -5 35.5c0 44 15 91.5 45 142.5s71 97.833 123 140.5c66.667 54.667 121.5 97.334 164.5 128.001s70.167 46 81.5 46c2.66699 0 5 -0.666992 7 -2s3 -3.33301 3 -6c0 -6.66699 -6.33301 -15.334 -19 -26.001
c-2.66699 -2 -4.66699 -3.66699 -6 -5l-88 -74c117.333 60.667 219.333 106.667 306 138s154.667 47 204 47c44 0 80.333 -11.5 109 -34.5s43 -52.5 43 -88.5c0 -58 -35.167 -151.333 -105.5 -280s-185.5 -309.667 -345.5 -543c207.333 240 401.166 437.5 581.499 592.5
s298.5 232.5 354.5 232.5c24 0 46.333 -17 67 -51s31 -71.667 31 -113c0 -97.333 -84 -255.666 -252 -474.999l-55 -72c-82 -108.667 -142.833 -199 -182.5 -271s-59.5 -129 -59.5 -171c0 -23.333 5.16699 -40.833 15.5 -52.5s25.833 -17.5 46.5 -17.5
c32 0 78.833 22.167 140.5 66.5s141.834 113.166 240.501 206.499z" />
    <glyph glyph-name="O" unicode="O" horiz-adv-x="1200" 
d="M438 580l-1.99902 79.001c-60 -63.333 -110.167 -142.833 -150.5 -238.5s-60.5 -176.5 -60.5 -242.5c0 -34 8 -60.167 24 -78.5s38.667 -27.5 68 -27.5c66 0 145.167 30.167 237.5 90.5s179.166 140.5 260.499 240.5c72 89.333 130 179.166 174 269.499
s66 161.833 66 214.5c0 29.333 -6.33301 51.333 -19 66s-31.667 22 -57 22c-75.333 0 -167.5 -37.667 -276.5 -113s-197.167 -169.333 -264.5 -282zM979.001 1073c10.667 0.666992 22.001 1.50195 34.001 2.50195s19 1.5 21 1.5c61.333 0 106.333 -15 135 -45
s43 -77 43 -141c0 -90.667 -21 -191.5 -63 -302.5s-99.333 -215.167 -172 -312.5c-82.667 -110.667 -176.834 -194.834 -282.501 -252.501s-217.834 -86.5 -336.501 -86.5c-87.333 0 -162.333 42.833 -225 128.5s-94 188.167 -94 307.5c0 107.333 31 218 93 332
s151 223.667 267 329c100 90 209.333 165.5 328 226.5s206.667 91.5 264 91.5c22 0 40 -3.66699 54 -11s35 -27 63 -59c22.667 -26.667 40.334 -50.667 53.001 -72s19 -38.333 19 -51c0 -11.333 -23.5 -23.333 -70.5 -36s-90.5 -29.334 -130.5 -50.001z" />
    <glyph glyph-name="P" unicode="P" horiz-adv-x="1425" 
d="M410 317l-103 -169.999c6.66699 -6 10.667 -10.5 12 -13.5s2.33301 -7.16699 3 -12.5c0 -10.667 -4.66699 -25.5 -14 -44.5s-25.333 -46.5 -48 -82.5c-32 -50 -57.833 -84 -77.5 -102s-39.5 -27 -59.5 -27c-16 0 -28.5 6.16699 -37.5 18.5s-13.5 29.166 -13.5 50.499
c0 31.333 18.333 88 55 170s83.667 167.333 141 256c-32 24 -54 44.667 -66 62s-18 36.333 -18 57c0 50 26.5 93.833 79.5 131.5s124.167 62.834 213.5 75.501c44 65.333 96.333 136.333 157 213s127.334 156 200.001 238
c-213.333 -12.667 -427.666 -55.334 -642.999 -128.001c-40 -13.333 -63.333 -20 -70 -20c-4 0.666992 -6.66699 2.83398 -8 6.50098s-2 10.5 -2 20.5c0 8.66699 14.167 38.5 42.5 89.5s62.5 105.167 102.5 162.5c16.667 25.333 31.667 42.666 45 51.999
s31.666 18 54.999 26c82.667 28 173.667 50.333 273 67s192.666 25 279.999 25c196.667 0 347.667 -39.5 453 -118.5s158 -192.5 158 -340.5c0 -106 -21.5 -201 -64.5 -285s-106.167 -154.333 -189.5 -211c-88.667 -60 -190.667 -106.667 -306 -140
s-232.666 -50 -351.999 -50c-32.667 0 -65.334 2 -98.001 6s-66 10 -100 18zM575 563.001c35.333 -5.33301 67.333 -9.33301 96 -12s55.667 -4 81 -4c79.333 0 156.5 11.667 231.5 35s142.5 56.666 202.5 99.999c58.667 43.333 107.167 91.833 145.5 145.5
s57.5 99.5 57.5 137.5c0 46.667 -37.833 84.334 -113.5 113.001s-188.167 47.334 -337.5 56.001c-3.33301 -22.667 -10.333 -46 -21 -70s-26.334 -49.667 -47.001 -77l-202 -284l33 3c7.33301 0.666992 13.333 1 18 1c36.667 0 64.334 -1.33301 83.001 -4
s33.667 -6.66699 45 -12c-20.667 -10.667 -50 -20.334 -88 -29.001s-82 -15.667 -132 -21z" />
    <glyph glyph-name="Q" unicode="Q" horiz-adv-x="1389" 
d="M559 309c114 -23.333 213.334 -40.332 298.001 -50.999s163 -16 235 -16c66 0 120.333 7.33301 163 22c4.66699 1.33301 7.66699 2 9 2c9.33301 0 16 -2.16699 20 -6.5s6 -11.5 6 -21.5c0 -14.667 -11.667 -51.334 -35 -110.001s-45.666 -101.334 -66.999 -128.001
c-14 -17.333 -37 -29.833 -69 -37.5s-76 -11.5 -132 -11.5c-122 0 -266.5 14.667 -433.5 44s-269.5 44 -307.5 44c-34.667 0 -73 -10.333 -115 -31s-68.667 -31 -80 -31c-12 0 -20.5 3.16699 -25.5 9.5s-7.5 18.5 -7.5 36.5c0 38 12.333 83 37 135s50.334 87.667 77.001 107
c14 10 37.833 19.333 71.5 28s81.167 17.334 142.5 26.001c300 206.667 524.167 381.167 672.5 523.5s222.5 254.166 222.5 335.499c0 12 -3.83301 20.333 -11.5 25s-22.167 7 -43.5 7c-74.667 0 -179.334 -29.5 -314.001 -88.5s-268.334 -137.167 -401.001 -234.5
c22.667 2.66699 44.834 4.66699 66.501 6s42.5 2 62.5 2c14 0 25.333 -2.33301 34 -7s13 -10.667 13 -18c0 -12.667 -20.667 -25 -62 -37c-26.667 -7.33301 -48.334 -14 -65.001 -20c-42.667 -15.333 -92 -35.166 -148 -59.499s-90 -36.5 -102 -36.5
c-20.667 0 -37.334 22.5 -50.001 67.5s-19 102.167 -19 171.5c0 22.667 11.5 48.167 34.5 76.5s61.167 64.5 114.5 108.5c98.667 81.333 223.334 149.333 374.001 204s287 82 409 82c76 0 141.333 -25 196 -75s82 -107.333 82 -172c0 -109.333 -71.833 -237.333 -215.5 -384
s-355.834 -309 -636.501 -487z" />
    <glyph glyph-name="R" unicode="R" horiz-adv-x="1501" 
d="M446 369c-23.333 -40 -56.167 -91 -98.5 -153s-67.166 -103.667 -74.499 -125c-12 -34 -34.167 -65.167 -66.5 -93.5s-56.833 -42.5 -73.5 -42.5c-12 0 -21.833 4.33301 -29.5 13s-11.5 20 -11.5 34c0 26.667 20.667 79.5 62 158.5s95.666 168.833 162.999 269.5
c-35.333 15.333 -59.5 28.166 -72.5 38.499s-19.5 21.5 -19.5 33.5c0 34 27 73.167 81 117.5s119 67.833 195 70.5l314 449c-77.333 -12 -151.5 -26.333 -222.5 -43s-140.167 -36.667 -207.5 -60l133 -12c2.66699 0 6.66699 -0.333008 12 -1
c10.667 -0.666992 16.334 -3.66699 17.001 -9c0 -13.333 -30.5 -24.5 -91.5 -33.5s-137.167 -13.5 -228.5 -13.5c-26 0 -46.167 4 -60.5 12s-21.5 19.667 -21.5 35c0 36.667 15 85.167 45 145.5s62.333 102.5 97 126.5c14 10 35.167 20.5 63.5 31.5
s63.166 22.5 104.499 34.5c103.333 29.333 206 51.666 308 66.999s200 23 294 23c193.333 0 339.666 -25.667 438.999 -77s149 -126.666 149 -225.999c0 -162 -77 -285.167 -231 -369.5s-430 -148.166 -828 -191.499l-17 -29c179.333 -58.667 338.333 -115.5 477 -170.5
s226.334 -94.5 263.001 -118.5c33.333 -21.333 55.333 -44.833 66 -70.5s16 -82.167 16 -169.5c0 -30 -3.16699 -50.667 -9.5 -62s-16.833 -17 -31.5 -17c-8 0 -112.5 49 -313.5 147zM679.999 723c244.667 51.333 443.667 110.83 597 178.497s230 126.834 230 177.501
c0 28.667 -28 49.834 -84 63.501s-142 20.5 -258 20.5c-21.333 0 -53.833 -1.16699 -97.5 -3.5s-94.167 -5.83301 -151.5 -10.5c-4 -69.333 -63.667 -184.666 -179 -345.999z" />
    <glyph glyph-name="S" unicode="S" horiz-adv-x="1346" 
d="M166 254c38 -4 72.999 -6.99902 104.999 -8.99902s61.667 -3 89 -3c85.333 0 171.5 7.16699 258.5 21.5s170.833 35.166 251.5 62.499c60 20.667 102 39.5 126 56.5s36 35.5 36 55.5c0 29.333 -28 56.666 -84 81.999s-167.333 58 -334 98c-152 36 -252.333 70 -301 102
s-73 74.667 -73 128c0 72.667 10 138.834 30 198.501s48 106.834 84 141.501c64 60 170.333 112.833 319 158.5s297 68.5 445 68.5c95.333 0 172.833 -9.16699 232.5 -27.5s89.5 -41.166 89.5 -68.499c0 -49.333 -9.16699 -92.833 -27.5 -130.5
s-44.166 -65.834 -77.499 -84.501c-9.33301 -5.33301 -37.833 -18.5 -85.5 -39.5s-89.167 -41.167 -124.5 -60.5c-14.667 -8 -31.334 -18.333 -50.001 -31s-31.667 -19 -39 -19c-8 0 -14.333 2.16699 -19 6.5s-7 10.5 -7 18.5c0 20 42.667 60.667 128 122l23 17
c-6 0 -17.333 0.333008 -34 1s-30.667 1 -42 1c-164.667 0 -313.667 -26.5 -447 -79.5s-200 -104.167 -200 -153.5c0 -32.667 65.667 -67.334 197 -104.001c74.667 -20.667 136 -38.667 184 -54c124.667 -40 223.5 -89.333 296.5 -148s109.5 -117 109.5 -175
c0 -46 -19.667 -102.167 -59 -168.5s-84.666 -114.833 -135.999 -145.5c-78 -46 -182.167 -83.333 -312.5 -112s-265.166 -43 -404.499 -43c-107.333 0 -195.833 13.667 -265.5 41s-104.5 60 -104.5 98c0 12 10.833 39.833 32.5 83.5s42.834 76.5 63.501 98.5
c14 15.333 39.167 28.5 75.5 39.5s79.166 18.167 128.499 21.5c-8.66699 -14 -19.334 -26.333 -32.001 -37s-27.667 -20 -45 -28z" />
    <glyph glyph-name="T" unicode="T" horiz-adv-x="1163" 
d="M822 201c10 -1.33301 17.502 -4.66797 22.502 -10.001s7.5 -13 7.5 -23c0 -10.667 -9 -34.167 -27 -70.5s-40.333 -73.5 -67 -111.5c-26.667 -38.667 -52.834 -68.834 -78.501 -90.501s-48.167 -32.5 -67.5 -32.5c-20.667 0 -40.5 11 -59.5 33s-28.5 46.333 -28.5 73
c0 82 64 232.5 192 451.5s293.333 448.167 496 687.5h-20c-188.667 0 -363.834 -13.667 -525.501 -41s-308.834 -68.333 -441.501 -123l128 -33c7.33301 -2 13.5 -5.16699 18.5 -9.5s7.5 -8.5 7.5 -12.5c0 -8.66699 -9.5 -15 -28.5 -19s-49.833 -6 -92.5 -6
c-95.333 0 -155 4.66699 -179 14s-36 30.666 -36 63.999c0 52.667 13.833 116.834 41.5 192.501s54.834 124.167 81.501 145.5c40 30.667 138 62.834 294 96.501s316.667 50.5 482 50.5c102.667 0 181 -4.33301 235 -13s89.667 -22.667 107 -42
c18.667 -19.333 37 -53 55 -101s27 -85.333 27 -112c0 -43.333 -69.667 -166.166 -209 -368.499s-251 -398.833 -335 -589.5z" />
    <glyph glyph-name="U" unicode="U" horiz-adv-x="1651" 
d="M1319 799c-269.333 -309.333 -468.999 -526.335 -598.999 -651.002s-220.333 -187 -271 -187c-40 0 -77 21.5 -111 64.5s-51 91.833 -51 146.5c0 62 20 131.5 60 208.5s117.667 189.167 233 336.5l86 107c106.667 132.667 176 229.334 208 290.001
c-108.667 -41.333 -239.834 -106.666 -393.501 -195.999s-255.167 -134 -304.5 -134c-19.333 0 -35 5.16699 -47 15.5s-18 23.166 -18 38.499c0 10.667 4.83301 29.667 14.5 57s24.5 62 44.5 104c23.333 50.667 49.666 94.334 78.999 131.001s62.333 67.667 99 93
c42 28.667 89.5 55 142.5 79s111.5 45.333 175.5 64c68.667 20.667 134.667 37.167 198 49.5s110 18.5 140 18.5c43.333 0 74.166 -11 92.499 -33s27.5 -59 27.5 -111c0 -110.667 -58 -241.667 -174 -393c-29.333 -37.333 -51.666 -66.666 -66.999 -87.999
c-138 -187.333 -225.833 -313.333 -263.5 -378s-56.5 -114 -56.5 -148c0 -5.33301 1.16699 -9.5 3.5 -12.5s5.16602 -4.5 8.49902 -4.5c30 0 87.5 39.167 172.5 117.5s227.833 224.833 428.5 439.5l264 295c122.667 140.667 197 211 223 211c18.667 0 35.667 -14.333 51 -43
s23 -63.334 23 -104.001c0 -40 -59.333 -150 -178 -330l-60 -90c-107.333 -164 -178.5 -283.667 -213.5 -359s-52.5 -138.666 -52.5 -189.999c0 -26.667 5.16699 -46.334 15.5 -59.001s26.166 -19 47.499 -19c32.667 0 78.834 19.833 138.501 59.5s127.5 95.5 203.5 167.5
l4 -92c-71.333 -95.333 -153.166 -174 -245.499 -236s-170.166 -93 -233.499 -93c-47.333 0 -84.333 16.667 -111 50s-40 80 -40 140c0 70 23.333 156.167 70 258.5s125.667 238.833 237 409.5z" />
    <glyph glyph-name="V" unicode="V" horiz-adv-x="1163" 
d="M215 809c34.667 4.66699 59.3311 7.83008 73.998 9.49707s24 2.5 28 2.5c6 0 16.833 0.666992 32.5 2s28.167 2 37.5 2c10 0 18.333 -1.5 25 -4.5s10 -6.83301 10 -11.5c0 -9.33301 -22 -19.666 -66 -30.999c-40 -10 -74 -19.333 -102 -28c-51.333 -16 -102 -34 -152 -54
s-76.333 -30 -79 -30c-9.33301 0 -16.833 5.83301 -22.5 17.5s-8.5 27.5 -8.5 47.5c0 92 11.833 162.5 35.5 211.5s65.834 96.5 126.501 142.5c58.667 46 124.667 90 198 132s151.333 80 234 114c79.333 33.333 148.166 59.5 206.499 78.5s98.5 28.5 120.5 28.5
c33.333 0 65 -19.333 95 -58s45 -76.667 45 -114c0 -18 -31.667 -75.667 -95 -173l-141 -225c-107.333 -180 -184 -318.667 -230 -416s-69 -169.333 -69 -216c0 -23.333 4.16699 -43.833 12.5 -61.5s21.833 -34.167 40.5 -49.5c56.667 42 132.167 126.833 226.5 254.5
s207.5 297.5 339.5 509.5c-0.666992 3.33301 -1.5 8.33301 -2.5 15s-1.5 11.334 -1.5 14.001c0 24 7 52.333 21 85s36.333 71.667 67 117c28.667 43.333 54.834 75.666 78.501 96.999s45.167 32 64.5 32c14 0 25.333 -6.16699 34 -18.5s13 -28.5 13 -48.5
c0 -44 -24.5 -112.333 -73.5 -205s-153.5 -260.667 -313.5 -504c-108 -164 -209.167 -299.5 -303.5 -406.5s-157.166 -160.5 -188.499 -160.5c-10 0 -26.833 7.33301 -50.5 22s-45.5 32.667 -65.5 54c-30.667 31.333 -52.667 64 -66 98s-20 74.333 -20 121
c0 86.667 31.167 197 93.5 331s179.833 337 352.5 609c-118.667 -51.333 -225.5 -105.166 -320.5 -161.499s-175.167 -113.166 -240.5 -170.499z" />
    <glyph glyph-name="W" unicode="W" horiz-adv-x="1765" 
d="M1110 727c-160 -218 -307.995 -393.67 -443.995 -527.003s-231.667 -200 -287 -200c-27.333 0 -57.333 29.167 -90 87.5s-49 113.166 -49 164.499c0 42.667 16.667 92.834 50 150.501s90.333 133.834 171 228.501c49.333 58 116.666 132 201.999 222
c119.333 126 179 205.667 179 239c0 14 -5 25.333 -15 34s-23.667 13 -41 13c-32.667 0 -79.5 -10.167 -140.5 -30.5s-130.833 -49.166 -209.5 -86.499c-44.667 -21.333 -103.334 -52.666 -176.001 -93.999s-121 -62 -145 -62c-14 0 -23.667 3.66699 -29 11s-8 20 -8 38
c0 44 10.667 98 32 162s42.666 107 63.999 129c22 24 58.667 50 110 78s107 52 167 72l-17 -39c76 30 142.833 51.833 200.5 65.5s111.167 20.5 160.5 20.5c86.667 0 146.834 -17.667 180.501 -53s50.5 -96.333 50.5 -183c0 -62.667 -20.333 -131 -61 -205
s-108.334 -164.667 -203.001 -272c-110.667 -127.333 -184.5 -219.5 -221.5 -276.5s-61.5 -109.5 -73.5 -157.5c64.667 40 148.167 111.167 250.5 213.5s228.5 240.833 378.5 415.5c108 126 196.5 222 265.5 288s115.5 99 139.5 99c17.333 0 34 -13.833 50 -41.5
s24 -55.5 24 -83.5c0 -27.333 -46.333 -110 -139 -248l-84 -127c-90 -138 -156 -251.5 -198 -340.5s-63.333 -161.167 -64 -216.5c121.333 63.333 234.333 157 339 281s201.667 279 291 465c-3.33301 22.667 -5.83301 40.834 -7.5 54.501s-2.5 25.5 -2.5 35.5
c0 21.333 13.667 49.833 41 85.5s66.333 75.167 117 118.5c14 -22.667 24.667 -44.334 32 -65.001s11 -40.667 11 -60c0 -60 -27.333 -159.167 -82 -297.5s-124.334 -273.166 -209.001 -404.499c-88.667 -137.333 -180.334 -246.833 -275.001 -328.5
s-174.334 -122.5 -239.001 -122.5c-36.667 0 -76.167 21.667 -118.5 65s-63.5 89.333 -63.5 138c0 82.667 13.833 165.667 41.5 249s75.834 182.666 144.501 297.999z" />
    <glyph glyph-name="X" unicode="X" horiz-adv-x="1464" 
d="M844 512c-152 -169.333 -284.169 -305.501 -396.502 -408.501s-182.833 -154.5 -211.5 -154.5c-14 0 -25.5 5.5 -34.5 16.5s-13.5 24.5 -13.5 40.5c0 50.667 31.333 115.334 94 194.001s136 135 220 169l360 395c7.33301 69.333 13 135.166 17 197.499s6 120.833 6 175.5
c0 7.33301 -0.333008 18.833 -1 34.5s-1 27.167 -1 34.5c-107.333 -27.333 -207.166 -61.166 -299.499 -101.499s-174.833 -86.166 -247.5 -137.499c36 4 60.833 6.66699 74.5 8s24.167 2 31.5 2c14 0 25 -1.5 33 -4.5s12 -6.83301 12 -11.5c0 -12.667 -16.333 -23 -49 -31
l-39 -10c-44 -12.667 -89.667 -28.167 -137 -46.5s-74.666 -27.5 -81.999 -27.5c-8.66699 0 -15.167 2.5 -19.5 7.5s-6.5 12.833 -6.5 23.5c0 53.333 15.667 114.333 47 183s71.666 124.334 120.999 167.001c33.333 29.333 75.333 57 126 83s110.334 50 179.001 72
c77.333 26 151 46.167 221 60.5s126 21.5 168 21.5c44.667 0 75.667 -11.167 93 -33.5s26 -64.833 26 -127.5c0 -37.333 -1.83301 -81 -5.5 -131s-8.83398 -105.333 -15.501 -166l291 288c30.667 31.333 53 51.833 67 61.5s25.667 14.5 35 14.5
c10.667 0 19.834 -4.66699 27.501 -14s11.5 -21 11.5 -35c0 -26.667 -11.833 -61.334 -35.5 -104.001s-53.5 -80.334 -89.5 -113.001l-32 2l-299 -315c-11.333 -106 -19.666 -205.167 -24.999 -297.5s-8 -176.833 -8 -253.5c0 -25.333 3.33301 -44 10 -56s17 -18 31 -18
c25.333 0 68.666 20.167 129.999 60.5s94.333 60.5 99 60.5c5.33301 0 10.5 -3.16699 15.5 -9.5s7.5 -13.5 7.5 -21.5c0 -14 -8.66699 -32.833 -26 -56.5s-41 -48.5 -71 -74.5l-9 -8c-140 -123.333 -236.667 -185 -290 -185c-42.667 0 -73 15.5 -91 46.5
s-27 85.833 -27 164.5v43z" />
    <glyph glyph-name="Y" unicode="Y" horiz-adv-x="1501" 
d="M1169 672c-182 -192.667 -350.331 -352.498 -504.998 -479.498s-252.334 -190.5 -293.001 -190.5c-33.333 0 -63.833 14.333 -91.5 43s-41.5 60 -41.5 94c0 46.667 29 121.5 87 224.5s135.333 213.167 232 330.5l123 147c121.333 144.667 182 233 182 265
c0 2.66699 -0.833008 4.66699 -2.5 6s-4.16699 2 -7.5 2c-36 0 -142.333 -53 -319 -159l-91 -54c-74.667 -44.667 -142.334 -81 -203.001 -109s-99.334 -42 -116.001 -42c-6 0 -10.167 2.33301 -12.5 7s-3.83301 13 -4.5 25c0 43.333 12.333 98.166 37 164.499
s52 112.5 82 138.5c30.667 27.333 70.5 56.666 119.5 87.999s104.833 63.666 167.5 96.999c100 52 188.5 90.167 265.5 114.5s146.833 36.5 209.5 36.5c47.333 0 84.166 -8.66699 110.499 -26s39.5 -41.333 39.5 -72c0 -44 -21 -102.833 -63 -176.5s-110 -170.5 -204 -290.5
l-23 -29c-196 -250 -294 -395.333 -294 -436c0 -6.66699 1.33301 -12 4 -16s6.66699 -6 12 -6c43.333 0 104.833 30.833 184.5 92.5s180.834 157.167 303.501 286.5c131.333 137.333 224.333 230.666 279 279.999s91.334 74 110.001 74c15.333 0 34.833 -18.167 58.5 -54.5
s35.5 -65.166 35.5 -86.499c0 -14.667 -73.167 -128.167 -219.5 -340.5s-277.166 -430.166 -392.499 -653.499c77.333 56 154.333 101.167 231 135.5s132.667 51.5 168 51.5c12.667 0 22 -2 28 -6s9 -10.333 9 -19c0 -27.333 -61 -90.666 -183 -189.999l-177 -148
c-72.667 -63.333 -151 -138.833 -235 -226.5s-137.667 -131.5 -161 -131.5c-24.667 0 -45.834 9.66699 -63.501 29s-26.5 43.666 -26.5 72.999c0 83.333 52.5 216.5 157.5 399.5s269.5 428.833 493.5 737.5z" />
    <glyph glyph-name="Z" unicode="Z" horiz-adv-x="1315" 
d="M1302 450l0.993164 -68.9932c-26.667 -16 -69.667 -39.667 -129 -71l-27 -15c-9.33301 -85.333 -40.166 -174.333 -92.499 -267s-125.166 -187.334 -218.499 -284.001c-88.667 -90.667 -186.667 -167.667 -294 -231s-185.666 -95 -234.999 -95
c-27.333 0 -58.666 16.833 -93.999 50.5s-53 65.5 -53 95.5c0 83.333 75 196.166 225 338.499s341.667 272.5 575 390.5c2.66699 7.33301 4.5 14 5.5 20s1.5 11 1.5 15c0 27.333 -9.16699 50.166 -27.5 68.499s-41.5 27.5 -69.5 27.5c-38 0 -81.667 -9.16699 -131 -27.5
s-116.666 -51.5 -201.999 -99.5l-103 -59c-85.333 -49.333 -136.333 -74 -153 -74c-6.66699 0 -11.834 3.66699 -15.501 11s-5.5 17.333 -5.5 30c0 22 7 55.167 21 99.5s30.333 82.166 49 113.499c12.667 20.667 27.834 39 45.501 55s48.834 37.333 93.501 64l19 11
c435.333 248.667 653 411.334 653 488.001c0 16.667 -5.66699 29 -17 37s-28.333 12 -51 12c-81.333 0 -213.666 -45.5 -396.999 -136.5s-358.333 -206.167 -525 -345.5c-0.666992 9.33301 -1 19.166 -1 29.499v45.5c0 98.667 11.833 182.167 35.5 250.5
s60.167 125.5 109.5 171.5c29.333 27.333 69.333 56.666 120 87.999s110.334 64 179.001 98c94 45.333 178.167 79.166 252.5 101.499s140.166 33.5 197.499 33.5c96.667 0 173.834 -26 231.501 -78s86.5 -120.667 86.5 -206c0 -82.667 -41.833 -167.334 -125.5 -254.001
s-199.5 -164.667 -347.5 -234c73.333 -9.33301 132.333 -36.333 177 -81s71.667 -103.667 81 -177c19.333 8.66699 52.666 21.667 99.999 39zM943.993 182.007c-140.667 -94.667 -263.5 -193.334 -368.5 -296.001s-184.833 -201.334 -239.5 -296.001
c142 54.667 262.667 130.334 362 227.001s181.333 218.334 246 365.001z" />
    <glyph glyph-name="bracketleft" unicode="[" horiz-adv-x="860" 
d="M76 -297l131.003 2.00293c15.333 0 26.666 -2 33.999 -6s11 -10 11 -18c0 -34.667 -11.667 -58.834 -35 -72.501s-78 -20.5 -164 -20.5c-64.667 0 -108.167 4.66699 -130.5 14s-33.5 26 -33.5 50c0 6.66699 68.167 181.5 204.5 524.5s268.166 698.5 395.499 1066.5
c-4 5.33301 -6.66699 9.66602 -8 12.999s-2 6.66602 -2 9.99902c0 12.667 4.83301 27 14.5 43s19.834 24 30.501 24c2.66699 0 10 -0.333008 22 -1c87.333 -6 177.666 -9 270.999 -9h47c-4.66699 -44 -13.834 -73.167 -27.501 -87.5s-42.5 -21.5 -86.5 -21.5h-27h-92
c-37.333 -166.667 -102.833 -377.5 -196.5 -632.5s-213.167 -547.833 -358.5 -878.5z" />
    <glyph glyph-name="backslash" unicode="\" horiz-adv-x="561" 
d="M199 -29l-0.000976562 84c0 68 -4.83301 157.833 -14.5 269.5s-24.167 242.5 -43.5 392.5c-12.667 106.667 -28.834 222 -48.501 346s-29.5 194.333 -29.5 211c0 34 3.83301 59.167 11.5 75.5s19.834 24.5 36.501 24.5c25.333 0 49.833 -23.833 73.5 -71.5
s46.834 -120.167 69.501 -217.5c18 -79.333 34.833 -163.333 50.5 -252s29.5 -179.334 41.5 -272.001c15.333 -115.333 27 -219.666 35 -312.999s12 -167 12 -221c0 -29.333 -2 -61.666 -6 -96.999s-10 -76.333 -18 -123c-12.667 -14 -28.5 -25.333 -47.5 -34
s-38.167 -13 -57.5 -13c-24 0 -44.667 14.667 -62 44s-26 62.666 -26 99.999c0 11.333 1.83301 22.333 5.5 33s9.5 22 17.5 34z" />
    <glyph glyph-name="bracketright" unicode="]" horiz-adv-x="860" 
d="M684 1231l-133.004 -2c-16 0 -27.5 2 -34.5 6s-10.5 10 -10.5 18c0 34 11.667 58 35 72s78 21 164 21c64.667 0 108.334 -4.66699 131.001 -14s34 -26 34 -50c0 -6.66699 -68.333 -181.667 -205 -525s-268.667 -699 -396 -1067l3 -4
c5.33301 -6.66699 8.33301 -12.667 9 -18c0 -12.667 -5.16699 -27 -15.5 -43s-21.166 -24 -32.499 -24c-2 0 -9.33301 0.333008 -22 1c-86.667 6 -176.667 9 -270 9h-47c4.66699 44 13.834 73 27.501 87s42.5 21 86.5 21h27h92
c36.667 164.667 101.834 374.167 195.501 628.5s214.167 548.833 361.5 883.5z" />
    <glyph glyph-name="asciicircum" unicode="^" horiz-adv-x="2048" 
d="M915 1460h218l495 -561h-207l-397 397l-399 -397h-207z" />
    <glyph glyph-name="underscore" unicode="_" 
d="M0 -311h1024v-172h-1024v172z" />
    <glyph glyph-name="grave" unicode="`" 
d="M733 903c0 -5.33301 -1 -9.00195 -3 -11.002s-7.66699 -3 -17 -3c-23.333 0 -41 2.33301 -53 7s-31.333 19.334 -58 44.001c-40 36.667 -73.167 74.334 -99.5 113.001s-39.5 66.667 -39.5 84c0 5.33301 3.33301 9.33301 10 12s17.667 4 33 4c32 0 53.167 -1.5 63.5 -4.5
s17.833 -9.16699 22.5 -18.5c24 -46 53.5 -93.833 88.5 -143.5s52.5 -77.5 52.5 -83.5z" />
    <glyph glyph-name="a" unicode="a" horiz-adv-x="926" 
d="M446 280c-90 -94.667 -164.169 -165.333 -222.502 -212s-102.166 -70 -131.499 -70c-26.667 0 -60.667 34.167 -102 102.5s-62 131.833 -62 190.5c0 42.667 17.667 90.834 53 144.501s84.666 106.5 147.999 158.5c47.333 39.333 98 74.166 152 104.499
s113.333 57.5 178 81.5c45.333 17.333 88.5 31.333 129.5 42s69.5 16 85.5 16c22 0 43.833 -12.167 65.5 -36.5s32.5 -47.166 32.5 -68.499c0 -6.66699 -2.5 -12.5 -7.5 -17.5s-14.833 -11.5 -29.5 -19.5l-37 -22l35 -72c4.66699 -8.66699 7.83398 -16 9.50098 -22
s2.5 -11.667 2.5 -17c0 -15.333 -26.167 -60.833 -78.5 -136.5s-78.5 -134.5 -78.5 -176.5c0 -16 5.16699 -28.167 15.5 -36.5s24.833 -12.5 43.5 -12.5c28.667 0 64.667 14.5 108 43.5s105 81.167 185 156.5l2 -88c-140.667 -152.667 -238.5 -250.5 -293.5 -293.5
s-101.833 -64.5 -140.5 -64.5c-31.333 0 -57.666 11.667 -78.999 35s-32 52.666 -32 87.999c0 32 16 98 48 198zM609.998 635.001c-218.667 -94 -360.333 -167.499 -425 -220.499s-97 -111.833 -97 -176.5c0 -16 3.33301 -29.333 10 -40s15 -16 25 -16
c33.333 0 97.833 43.167 193.5 129.5s193.5 194.166 293.5 323.499z" />
    <glyph glyph-name="b" unicode="b" horiz-adv-x="764" 
d="M190 569c164.667 178.667 283.833 320 357.5 424s126.167 199.667 157.5 287c-129.333 -133.333 -237 -259.333 -323 -378s-150 -229.667 -192 -333zM450.999 178c-67.333 -74.667 -129.835 -131.83 -187.502 -171.497s-107.167 -59.5 -148.5 -59.5
c-52 0 -93.333 30 -124 90s-46 141.333 -46 244c0 128 40.333 266.5 121 415.5s197.334 299.833 350.001 452.5c83.333 83.333 162.5 152.666 237.5 207.999s124.833 83 149.5 83c12 0 22.167 -7.33301 30.5 -22s12.5 -33.334 12.5 -56.001
c0 -88.667 -64.667 -222.334 -194 -401.001s-306.333 -376 -531 -592l-1 -7c-2 -36 -3 -62.333 -3 -79c0 -49.333 5.16699 -84.666 15.5 -105.999s27.5 -32 51.5 -32c21.333 0 43.166 8.66699 65.499 26s48.5 45.666 78.5 84.999c-8 13.333 -13.833 27.166 -17.5 41.499
s-5.5 29.833 -5.5 46.5c0 32.667 12.333 70.334 37 113.001s58.667 84.334 102 125.001c24.667 22.667 50.834 41.667 78.501 57s48.167 23 61.5 23c12.667 0 22.334 -5 29.001 -15s10 -25 10 -45c0 -41.333 -8.33301 -87.333 -25 -138s-40.667 -101.667 -72 -153
c8 -7.33301 16.5 -12.833 25.5 -16.5s19.167 -5.5 30.5 -5.5c22 0 47.333 8.16699 76 24.5s68.667 46.166 120 89.499l2 -86c-54 -48 -105.167 -85.167 -153.5 -111.5s-89.166 -39.5 -122.499 -39.5c-8.66699 0 -17.334 1 -26.001 3s-17.667 5 -27 9z" />
    <glyph glyph-name="c" unicode="c" horiz-adv-x="662" 
d="M674 399l2.00098 -90c-104.667 -118.667 -198.834 -208.334 -282.501 -269.001s-154.834 -91 -213.501 -91c-57.333 0 -109.166 32.667 -155.499 98s-69.5 140.333 -69.5 225c0 64 16.667 126.5 50 187.5s82.333 118.167 147 171.5
c57.333 48.667 117.833 88.167 181.5 118.5s115.5 45.5 155.5 45.5c33.333 0 57.5 -6.66699 72.5 -20s22.5 -34.666 22.5 -63.999c0 -53.333 -25.667 -112.5 -77 -177.5s-93.333 -97.5 -126 -97.5c-14 0 -24.333 5.33301 -31 16s-10.667 28.334 -12 53.001
c-55.333 -33.333 -102.5 -67 -141.5 -101s-70.5 -68.333 -94.5 -103v-20c0 -44 11.167 -78.333 33.5 -103s52.833 -37 91.5 -37c58.667 0 124.5 21.167 197.5 63.5s156.167 107.166 249.5 194.499z" />
    <glyph glyph-name="d" unicode="d" horiz-adv-x="936" 
d="M446 301c-99.333 -103.333 -177.333 -179 -234 -227s-95.334 -72 -116.001 -72c-29.333 0 -57.833 32.667 -85.5 98s-41.5 142 -41.5 230c0 47.333 15.333 93.333 46 138s77.667 89.334 141 134.001c68.667 48.667 134.334 86.834 197.001 114.501s113 41.5 151 41.5
c20 0 37 -3.66699 51 -11s27 -19.333 39 -36c110 188.667 195.333 327.334 256 416.001s101 133 121 133c17.333 0 33.5 -9.33301 48.5 -28s22.5 -40.334 22.5 -65.001c0 -52.667 -89 -206.334 -267 -461.001l-32 -44c-40.667 -59.333 -75.667 -135.333 -105 -228
s-44 -168.334 -44 -227.001c0 -12.667 4.16699 -24 12.5 -34s17.833 -15 28.5 -15c28.667 0 105 54.667 229 164l88 77v-88l-13 -15c-204.667 -228.667 -343 -343 -415 -343c-34 0 -58.167 12 -72.5 36s-21.5 66 -21.5 126c0 31.333 1.33301 62.333 4 93
s6.66699 61.667 12 93zM539 582c-162 -59.333 -273.169 -115.499 -333.502 -168.499s-90.5 -117.167 -90.5 -192.5c0 -12 1 -20.167 3 -24.5s5.66699 -6.5 11 -6.5c18 0 50 17.167 96 51.5s111.333 90.166 196 167.499c2.66699 2 5.33398 4.33301 8.00098 7
c52.667 46.667 89.334 102 110.001 166z" />
    <glyph glyph-name="e" unicode="e" horiz-adv-x="659" 
d="M111 303l0.00195312 -9.99902c0 -46 12 -82.5 36 -109.5s56.333 -40.5 97 -40.5c52.667 0 116.667 22.333 192 67s154.666 107.667 237.999 189v-90c-107.333 -119.333 -203 -206.166 -287 -260.499s-164 -81.5 -240 -81.5c-74.667 0 -131.834 23.667 -171.501 71
s-59.5 115.333 -59.5 204c0 65.333 15.333 129 46 191s76 121.667 136 179c60.667 57.333 123.167 100.666 187.5 129.999s128.833 44 193.5 44c49.333 0 86 -7.33301 110 -22s36 -37.334 36 -68.001c0 -69.333 -49.667 -143.5 -149 -222.5s-221 -135.833 -365 -170.5z
M119.002 391.001c108.667 49.333 193.835 97.168 255.502 143.501s92.5 85.166 92.5 116.499c0 8 -1.16699 13.833 -3.5 17.5s-5.83301 5.5 -10.5 5.5c-42.667 0 -98.334 -27 -167.001 -81s-124.334 -121.333 -167.001 -202z" />
    <glyph glyph-name="f" unicode="f" horiz-adv-x="666" 
d="M377 40c0.666992 -4 1.16992 -8.49902 1.50293 -13.499s0.5 -13.167 0.5 -24.5c0 -62 -15 -128 -45 -198s-72.333 -137.667 -127 -203c-50.667 -61.333 -105 -112.5 -163 -153.5s-101.333 -61.5 -130 -61.5c-29.333 0 -54.833 24.833 -76.5 74.5
s-32.5 110.834 -32.5 183.501c0 62.667 14.667 135.667 44 219s72 173.333 128 270c-16.667 18 -28.667 35.833 -36 53.5s-11 38.167 -11 61.5c0 50.667 11.667 90 35 118s56 42 98 42c7.33301 0 14.666 -0.166992 21.999 -0.5s15.333 -0.833008 24 -1.5
c28.667 40 72.334 109.667 131.001 209l18 30c89.333 193.333 171.666 346.166 246.999 458.499s132.333 168.5 171 168.5c12.667 0 22.667 -6.83301 30 -20.5s11 -32.167 11 -55.5c0 -69.333 -15.333 -139.5 -46 -210.5s-91.334 -166.833 -182.001 -287.5
c-3.33301 -4.66699 -11 -14.667 -23 -30c-88.667 -116 -170.334 -237.667 -245.001 -365c24 -22 46 -46.167 66 -72.5s37.667 -54.166 53 -83.499c60 34 118.333 72.167 175 114.5s111 88.166 163 137.499l-2 -92c-56.667 -68 -109.667 -123.833 -159 -167.5
s-96 -76.834 -140 -99.501zM88.0029 45.001c-35.333 -60.667 -61.499 -119.001 -78.499 -175.001s-25.5 -110.333 -25.5 -163c0 -20.667 2 -42.167 6 -64.5s10 -45.166 18 -68.499c49.333 18 95.166 67.167 137.499 147.5s63.5 159.5 63.5 237.5
c0 11.333 -0.166992 20.5 -0.5 27.5s-0.833008 14.167 -1.5 21.5c-22 5.33301 -42.833 11 -62.5 17s-38.5 12.667 -56.5 20z" />
    <glyph glyph-name="g" unicode="g" horiz-adv-x="891" 
d="M492 285c-70 -82 -143.833 -150.33 -221.5 -204.997s-134.5 -82 -170.5 -82c-41.333 0 -76.833 27.333 -106.5 82s-44.5 120 -44.5 196c0 52 16 105 48 159s76.667 103.667 134 149c90 70 171 124 243 162s129.667 57 173 57c30 0 57 -6.16699 81 -18.5
s36 -26.166 36 -41.499c0 -25.333 -18.333 -52.5 -55 -81.5s-106.667 -69.167 -210 -120.5c-114 -58 -194 -111 -240 -159s-69 -100.333 -69 -157c0 -12.667 4.66699 -23.334 14 -32.001s20.333 -13 33 -13c33.333 0 76 19.5 128 58.5s110.333 95.5 175 169.5l92 107
c83.333 99.333 138 149 164 149c14.667 0 27.667 -10.5 39 -31.5s17 -45.5 17 -73.5c0 -30.667 -20 -87.667 -60 -171l-2 -5l-123 -254c72.667 51.333 135 97.833 187 139.5s102.333 85.167 151 130.5v-92c-53.333 -53.333 -145.666 -134.666 -276.999 -243.999l-171 -145
c-77.333 -144.667 -163 -266.834 -257 -366.501s-162.667 -149.5 -206 -149.5c-15.333 0 -27.333 5.16699 -36 15.5s-13 24.166 -13 41.499c0 57.333 36.333 134.166 109 230.499s170.667 195.166 294 296.499c21.333 30 44.666 71.167 69.999 123.5s50 110.833 74 175.5z
" />
    <glyph glyph-name="h" unicode="h" horiz-adv-x="842" 
d="M854 397l1.99902 -88.0029c-103.333 -118 -192.333 -205.833 -267 -263.5s-136.667 -86.5 -186 -86.5c-30 0 -54.167 11.833 -72.5 35.5s-27.5 55.5 -27.5 95.5c0 36.667 13.333 82.834 40 138.501s74 134.5 142 236.5c-91.333 -81.333 -184.5 -178.833 -279.5 -292.5
s-155.167 -170.5 -180.5 -170.5c-24.667 0 -42.167 13.333 -52.5 40s-15.5 77 -15.5 151v49c0 42.667 2.16699 77.334 6.5 104.001s11.166 52.667 20.499 78c15.333 44.667 45.333 103.5 90 176.5s103.334 159.5 176.001 259.5c111.333 152.667 219 282 323 388
s169.667 159 197 159c18.667 0 37 -6.66699 55 -20s27 -25.666 27 -36.999c0 -38 -70.167 -153 -210.5 -345s-317.166 -409 -530.499 -651l-13 -102c124.667 134 236.334 241.833 335.001 323.5s164.667 122.5 198 122.5c17.333 0 38 -12.667 62 -38s36 -47.333 36 -66
c0 -8 -4.16699 -18.833 -12.5 -32.5s-26.5 -39.167 -54.5 -76.5c-64.667 -83.333 -107.834 -143.5 -129.501 -180.5s-32.5 -66.167 -32.5 -87.5c0 -12 4.16699 -22.167 12.5 -30.5s18.5 -12.5 30.5 -12.5c28 0 68.167 18.833 120.5 56.5s115.833 93.167 190.5 166.5z" />
    <glyph glyph-name="i" unicode="i" horiz-adv-x="522" 
d="M537 399l2.00195 -90.001c-96 -118 -177.5 -202.833 -244.5 -254.5s-128.167 -77.5 -183.5 -77.5c-56.667 0 -101 23.833 -133 71.5s-48 114.167 -48 199.5c0 74.667 15.5 143.5 46.5 206.5s82.5 129.833 154.5 200.5c36.667 36.667 68.667 62.334 96 77.001s56 22 86 22
c22.667 0 39.667 -4.83301 51 -14.5s17 -24.167 17 -43.5c0 -38.667 -23.667 -89.667 -71 -153s-113 -131 -197 -203c-4 -14.667 -6.83301 -27.334 -8.5 -38.001s-2.5 -20.667 -2.5 -30c0 -29.333 9.16699 -53 27.5 -71s42.166 -27 71.499 -27c32 0 77.667 19.833 137 59.5
s125.666 94.834 198.999 165.501zM334.002 869.999c0 44.667 17.999 86.667 53.999 126s74 59 114 59c20.667 0 36.334 -5.83301 47.001 -17.5s16 -28.5 16 -50.5c0 -38 -18 -78.5 -54 -121.5s-72 -64.5 -108 -64.5c-20 0 -36.5 6.5 -49.5 19.5s-19.5 29.5 -19.5 49.5z" />
    <glyph glyph-name="j" unicode="j" horiz-adv-x="672" 
d="M684 401l-0.00390625 -93.998c-65.333 -60.667 -162.666 -146.667 -291.999 -258s-213 -190.333 -251 -237c-72.667 -124.667 -137.5 -222.5 -194.5 -293.5s-98.5 -106.5 -124.5 -106.5c-14 0 -25.333 7.33301 -34 22s-13 34 -13 58c0 37.333 9.5 78.666 28.5 123.999
s45.5 88.666 79.5 129.999c31.333 38.667 70 81 116 127s73.667 75.333 83 88c25.333 35.333 63.833 102.666 115.5 201.999s102.5 207.333 152.5 324c-71.333 -16 -148.166 -40.333 -230.499 -73s-131.166 -49 -146.499 -49c-8.66699 0 -14.834 2 -18.501 6
s-5.5 10.667 -5.5 20c0 24.667 10.5 60.834 31.5 108.501s42.5 77.167 64.5 88.5c84 40.667 171.333 76 262 106s148 45 172 45c22.667 0 41.334 -6.33301 56.001 -19s22 -28.667 22 -48c0 -28 -6.5 -59.667 -19.5 -95s-39.167 -89 -78.5 -161l-191 -355
c55.333 38 114.833 82.833 178.5 134.5s142.834 120.167 237.501 205.5zM456.996 848.002c0 16 4.00293 34.166 12.0029 54.499s23.667 49.833 47 88.5c23.333 39.333 43.166 64.5 59.499 75.5s38.166 16.5 65.499 16.5c23.333 0 41.166 -6 53.499 -18
s18.5 -29.667 18.5 -53c0 -42.667 -17 -90.667 -51 -144s-69 -80 -105 -80c-31.333 0 -55.833 5.33301 -73.5 16s-26.5 25.334 -26.5 44.001z" />
    <glyph glyph-name="k" unicode="k" horiz-adv-x="862" 
d="M182 213l-92 -115.002c-52 -66.667 -86 -100 -102 -100c-19.333 0 -33.5 17.5 -42.5 52.5s-13.5 90.5 -13.5 166.5c0 100.667 25.5 203.334 76.5 308.001s138.833 233.334 263.5 386.001c106 128.667 207.667 236.334 305 323.001s161 130 191 130
c12.667 0 23.334 -4.83301 32.001 -14.5s13 -21.834 13 -36.501c0 -44.667 -67 -155.167 -201 -331.5s-314 -389.5 -540 -639.5l-13 -72c137.333 149.333 261.5 268.333 372.5 357s189.167 133 234.5 133c25.333 0 48 -13.167 68 -39.5s30 -56.833 30 -91.5
c0 -90.667 -110.333 -218 -331 -382l-38 -28c21.333 -31.333 40.666 -54.833 57.999 -70.5s33 -23.5 47 -23.5c30 0 77.167 24 141.5 72s141.833 117.667 232.5 209l3 -91c-108.667 -124 -199.334 -215.333 -272.001 -274s-131.667 -88 -177 -88
c-44 0 -84.667 19.5 -122 58.5s-78.666 106.167 -123.999 201.5zM258 312.998l90 -16c86.667 70 148.667 125.167 186 165.5s56 71.833 56 94.5c0 3.33301 -0.833008 5.83301 -2.5 7.5s-4.16699 2.5 -7.5 2.5c-22 0 -64.333 -24 -127 -72s-127.667 -108.667 -195 -182z" />
    <glyph glyph-name="l" unicode="l" horiz-adv-x="553" 
d="M565 399l1.99707 -88l-44 -47c-191.333 -203.333 -321.333 -305 -390 -305c-56 0 -103.167 29.5 -141.5 88.5s-57.5 130.5 -57.5 214.5c0 92.667 33.333 209.834 100 351.501s154.334 278.5 263.001 410.5c70.667 85.333 137.334 154.166 200.001 206.499
s108.667 78.5 138 78.5c12.667 0 22.667 -6.33301 30 -19s11 -30.334 11 -53.001c0 -140.667 -47.333 -286.167 -142 -436.5s-227.667 -290.166 -399 -419.499v-41c0 -62.667 8.5 -109.667 25.5 -141s42.833 -47 77.5 -47c22 0 53.833 15 95.5 45
s118.834 97.333 231.501 202zM175.997 539c88 70.667 162.666 154.667 223.999 252s111 210.333 149 339c-89.333 -96 -165.166 -193.5 -227.499 -292.5s-110.833 -198.5 -145.5 -298.5z" />
    <glyph glyph-name="m" unicode="m" horiz-adv-x="1241" 
d="M1257 399l-2 -90.001c-136.667 -152 -233.167 -249.333 -289.5 -292s-107.166 -64 -152.499 -64c-38.667 0 -68.834 9.5 -90.501 28.5s-32.5 45.5 -32.5 79.5c0 44 17.5 100.5 52.5 169.5s85.833 147.833 152.5 236.5c-101.333 -85.333 -204.333 -187.166 -309 -305.499
s-172.334 -177.5 -203.001 -177.5c-28.667 0 -49.834 6.83301 -63.501 20.5s-20.5 35.5 -20.5 65.5c0 34.667 15 82.334 45 143.001s94.333 168.667 193 324c-120 -98 -229.667 -213 -329 -345s-161 -198 -185 -198c-29.333 0 -53.833 22.333 -73.5 67
s-29.5 103.667 -29.5 177c0 44 3.83301 79.667 11.5 107s27.834 66 60.501 116c52.667 80 93.834 134.5 123.501 163.5s58.834 43.5 87.501 43.5c38 0 64.833 -3.5 80.5 -10.5s23.5 -18.5 23.5 -34.5c0 -25.333 -45.333 -91.333 -136 -198l-87 -103l-4 -68
c205.333 208 342.166 339.167 410.499 393.5s121.166 81.5 158.499 81.5c22 0 39.5 -6.83301 52.5 -20.5s19.5 -32.167 19.5 -55.5c0 -47.333 -49.667 -149.333 -149 -306l-35 -56c136 129.333 246.667 229.166 332 299.499s138.333 105.5 159 105.5c12 0 28 -15.667 48 -47
s30 -59.333 30 -84c0 -20 -21 -55.333 -63 -106l-25 -31c-39.333 -47.333 -68.666 -87.833 -87.999 -121.5s-29 -60.834 -29 -81.501c0 -12 4.83301 -22.5 14.5 -31.5s21.167 -13.5 34.5 -13.5c24 0 56.667 14.333 98 43s111 87.334 209 176.001z" />
    <glyph glyph-name="n" unicode="n" horiz-adv-x="825" 
d="M-72 319c51.333 115.333 101.832 202.665 151.499 261.998s96.834 89 141.501 89c26.667 0 50.167 -4.66699 70.5 -14s30.5 -19.666 30.5 -30.999c0 -13.333 -14.833 -39.833 -44.5 -79.5s-73.834 -92.5 -132.501 -158.5c-16.667 -18.667 -29.667 -38.667 -39 -60
s-14 -41.666 -14 -60.999v-6c122 140 238 254.833 348 344.5s185.333 134.5 226 134.5c15.333 0 30 -13.5 44 -40.5s21 -55.833 21 -86.5c0 -34 -22 -74.667 -66 -122c-23.333 -24.667 -40.666 -44.334 -51.999 -59.001c-31.333 -42 -57.333 -83.5 -78 -124.5
s-31 -69.5 -31 -85.5c0 -13.333 3.5 -23.833 10.5 -31.5s17.167 -11.5 30.5 -11.5c16.667 0 48 17.5 94 52.5s112.333 92.5 199 172.5l2 -92c-145.333 -158 -244.666 -257.167 -297.999 -297.5s-100.333 -60.5 -141 -60.5c-32 0 -58 12.833 -78 38.5s-30 59.167 -30 100.5
c0 40.667 14.667 91.167 44 151.5s74.666 132.833 135.999 217.5c-91.333 -84.667 -182 -182.334 -272 -293.001s-145.333 -166 -166 -166c-32 0 -58.167 24.167 -78.5 72.5s-30.5 111.5 -30.5 189.5c0 10.667 0.166992 20.334 0.5 29.001s0.833008 17.334 1.5 26.001z" />
    <glyph glyph-name="o" unicode="o" horiz-adv-x="735" 
d="M405 112c-44 -48 -87.999 -84.167 -131.999 -108.5s-88 -36.5 -132 -36.5c-61.333 0 -112.833 26.667 -154.5 80s-62.5 121.666 -62.5 204.999c0 58 16.333 119.5 49 184.5s77 123.5 133 175.5c47.333 44.667 99.166 80.167 155.499 106.5s107.166 39.5 152.499 39.5
c36 0 68.833 -8 98.5 -24s44.5 -32 44.5 -48c0 -4 -4.66699 -11.167 -14 -21.5s-17 -19.5 -23 -27.5h4c22.667 0 38.667 -7.16699 48 -21.5s14 -39.166 14 -74.499c0 -48 -9.33301 -98.833 -28 -152.5s-46 -110.167 -82 -169.5c30.667 1.33301 67.334 16.5 110.001 45.5
s98.667 77.5 168 145.5l-2 -103c-72 -71.333 -131.167 -121.833 -177.5 -151.5s-88.166 -44.5 -125.499 -44.5c-10.667 0 -19.334 0.166992 -26.001 0.5s-12.667 0.5 -18 0.5zM303.001 205c0 2.66699 -0.333008 6.66602 -1 11.999c-2 24 -3 41 -3 51
c0 36 8.66699 78.833 26 128.5s42.666 105.834 75.999 168.501c-94 -38.667 -172 -93 -234 -163s-93 -134.333 -93 -193c0 -26.667 6.66699 -46.667 20 -60s33.333 -20 60 -20c23.333 0 47.833 6.5 73.5 19.5s50.834 31.833 75.501 56.5z" />
    <glyph glyph-name="p" unicode="p" horiz-adv-x="938" 
d="M104 -12c-76 -186.667 -133.496 -315.333 -172.496 -386s-70.833 -106 -95.5 -106c-14.667 0 -26.5 7.33301 -35.5 22s-13.5 34.667 -13.5 60c0 76.667 13.167 151 39.5 223s67.833 146 124.5 222c0.666992 0.666992 1.66699 2 3 4c34.667 41.333 74.667 106 120 194
l157 309c-28.667 -33.333 -61.334 -69 -98.001 -107s-85 -85.333 -145 -142v96c93.333 86.667 201.666 215.667 324.999 387l68 94c34.667 46 67.5 79.333 98.5 100s62.833 31 95.5 31c19.333 0 35.166 -3.83301 47.499 -11.5s18.5 -17.5 18.5 -29.5
c0 -21.333 -26.833 -65.5 -80.5 -132.5s-97.834 -129.833 -132.501 -188.5l-109 -187c78 76 155.5 138.333 232.5 187s132.833 73 167.5 73c25.333 0 44 -6.5 56 -19.5s18 -33.833 18 -62.5c0 -65.333 -25.833 -139.666 -77.5 -222.999s-125.5 -168.666 -221.5 -255.999
c2.66699 -0.666992 6 -1.33398 10 -2.00098c20 -5.33301 33 -8 39 -8c46.667 0 98.667 18.833 156 56.5s141 111.167 251 220.5l2 -99c-112.667 -119.333 -215.167 -210.833 -307.5 -274.5s-168.5 -95.5 -228.5 -95.5c-32.667 0 -63.667 4.16699 -93 12.5
s-54.666 20.166 -75.999 35.499c-12 -2.66699 -24.333 -5 -37 -7s-25.334 -3 -38.001 -3c-10 0 -20.667 1.16699 -32 3.5s-23.333 5.5 -36 9.5zM218.004 172.001c8.66699 1.33301 23 3.33008 43 5.99707s34.667 4 44 4s19 -0.833008 29 -2.5s21.333 -4.16699 34 -7.5
c72 80 123.5 142.833 154.5 188.5s46.5 79.834 46.5 102.501c0 10.667 -1 18.334 -3 23.001s-5.66699 7.33398 -11 8.00098c-34 0 -83.667 -29.833 -149 -89.5s-128 -137.167 -188 -232.5z" />
    <glyph glyph-name="q" unicode="q" horiz-adv-x="897" 
d="M446 250c-108.667 -96.667 -187.336 -161.836 -236.003 -195.503s-86 -50.5 -112 -50.5c-46 0 -84.333 20.333 -115 61s-46 93.334 -46 158.001c0 75.333 17.667 143 53 203s93.333 120 174 180c66 49.333 148.167 90.333 246.5 123s187.5 49 267.5 49
c26 0 45.5 -7.66699 58.5 -23s19.5 -38.333 19.5 -69c0 -5.33301 -1.16699 -10.5 -3.5 -15.5s-6.83301 -12.167 -13.5 -21.5c12.667 -18.667 21.334 -33.5 26.001 -44.5s7 -21.5 7 -31.5c0 -35.333 -79.667 -162.666 -239 -381.999l-13 -17
c13.333 -4 29.166 -9.5 47.499 -16.5s29.833 -10.5 34.5 -10.5c28 0 104 59 228 177l81 77l2 -90c-57.333 -64 -108.333 -116.5 -153 -157.5s-89 -76.5 -133 -106.5c0 -2 0.333008 -5.16699 1 -9.5s1 -7.16602 1 -8.49902c0 -44.667 -17.167 -99.167 -51.5 -163.5
s-82.166 -131.5 -143.499 -201.5c-69.333 -77.333 -138.666 -142 -207.999 -194s-118.666 -78 -147.999 -78c-24.667 0 -45.167 13 -61.5 39s-24.5 56.667 -24.5 92c0 43.333 26.333 109 79 197s177.667 264.667 375 530zM640.998 615.998
c-210.667 -66.667 -358.5 -132.332 -443.5 -196.999s-127.5 -141 -127.5 -229c0 -4 1 -7 3 -9s5 -3 9 -3c47.333 0 125 41.167 233 123.5s216.667 187.166 326 314.499zM405.998 4c-74 -106 -129.666 -191.667 -166.999 -257s-61 -117.666 -71 -156.999
c92.667 55.333 166.667 118.666 222 189.999s83.666 139 84.999 203z" />
    <glyph glyph-name="r" unicode="r" horiz-adv-x="713" 
d="M-78 219l-28.001 69.998l139 135c-16.667 10 -29 21 -37 33s-12 25 -12 39c0 54 32.333 115.5 97 184.5s118.334 103.5 161.001 103.5c6.66699 0 12.667 -2.5 18 -7.5s8 -11.167 8 -18.5c0 -4.66699 -2 -12 -6 -22s-10 -22.667 -18 -38l170 11c4 0 9.33301 0.333008 16 1
c26 2 44.333 3 55 3c36 0 62.5 -11.167 79.5 -33.5s25.5 -56.166 25.5 -101.499c0 -16.667 -17.333 -41 -52 -73c-21.333 -18.667 -37.666 -34 -48.999 -46c-38.667 -41.333 -70.5 -84.333 -95.5 -129s-37.5 -80.334 -37.5 -107.001c0 -20 4.5 -35.167 13.5 -45.5
s22.5 -15.5 40.5 -15.5c20 0 52.667 16.833 98 50.5s118.333 96.5 219 188.5v-90c-112 -122.667 -202.833 -212 -272.5 -268s-124.834 -84 -165.501 -84c-36 0 -66.833 15.333 -92.5 46s-38.5 68.667 -38.5 114c0 57.333 15.833 114.833 47.5 172.5
s85.5 125.834 161.5 204.501c-48 -11.333 -87.667 -19.833 -119 -25.5s-61 -10.5 -89 -14.5l-27 -29c-105.333 -111.333 -175.333 -180.666 -210 -207.999z" />
    <glyph glyph-name="s" unicode="s" horiz-adv-x="705" 
d="M719 397l2.00195 -88c-111.333 -117.333 -211 -205.333 -299 -264s-164.333 -88 -229 -88c-67.333 0 -131 25.667 -191 77s-90 105.666 -90 162.999c0 22.667 6.16699 42.334 18.5 59.001s30.166 29.667 53.499 39v78l201 205c49.333 52 86 92.667 110 122
c10.667 49.333 26.834 83.5 48.501 102.5s54.5 28.5 98.5 28.5c13.333 0 22.833 -2.5 28.5 -7.5s8.5 -13.167 8.5 -24.5c0 -6 -0.666992 -13.167 -2 -21.5s-2 -13.5 -2 -15.5c0 -8.66699 6.5 -39.334 19.5 -92.001s19.5 -100.667 19.5 -144
c0 -83.333 -27.333 -163.166 -82 -239.499s-119.334 -125.5 -194.001 -147.5c14 -3.33301 26.167 -5.83301 36.5 -7.5s19.166 -2.5 26.499 -2.5c44.667 0 102 22.5 172 67.5s152 111.833 246 200.5zM6.00195 299c2 0 5.16797 0.333984 9.50098 1.00098s7.5 1 9.5 1
c27.333 0 53.166 -9.33301 77.499 -28s49.5 -49.667 75.5 -93c50 34 85 68 105 102s30 75.333 30 124c0 20.667 -2 44 -6 70s-10.667 57 -20 93c-44 -46.667 -115.667 -116.334 -215 -209.001z" />
    <glyph glyph-name="t" unicode="t" horiz-adv-x="588" 
d="M36 319l-24 -17.502l-39 -27.5l-2 86c52 54.667 97.667 104.834 137 150.501s75 89.834 107 132.501c-21.333 3.33301 -40.833 5.83301 -58.5 7.5s-33.5 2.5 -47.5 2.5h-41c-7.33301 0 -12.666 1 -15.999 3s-5 5.33301 -5 10c0 14 14.833 43 44.5 87s56.5 74.333 80.5 91
c16.667 12 41 20.833 73 26.5s77.333 9.16699 136 10.5l27 36c71.333 97.333 145.666 146 222.999 146c11.333 0 21.333 -3.16699 30 -9.5s13 -13.5 13 -21.5c0 -8.66699 -2 -17.334 -6 -26.001s-10.333 -17.667 -19 -27l-85 -102c33.333 -2 59.333 -6.33301 78 -13
s28 -14.667 28 -24s-12.833 -32.166 -38.5 -68.499s-55.167 -70.166 -88.5 -101.499c-20.667 -18.667 -39.334 -31.167 -56.001 -37.5s-38.334 -9.5 -65.001 -9.5c-20 0 -34 0.166992 -42 0.5s-14.667 0.5 -20 0.5c-57.333 -71.333 -102.666 -145.833 -135.999 -223.5
s-50 -144.834 -50 -201.501c0 -20 4.83301 -35.333 14.5 -46s23.167 -16 40.5 -16c28 0 71.667 20.833 131 62.5s139.333 107.5 240 197.5l2 -88c-109.333 -116.667 -208.166 -206.167 -296.499 -268.5s-160.833 -93.5 -217.5 -93.5c-40 0 -70.833 11.167 -92.5 33.5
s-32.5 54.166 -32.5 95.499c0 34 6.33301 71.833 19 113.5s30.667 84.834 54 129.501z" />
    <glyph glyph-name="u" unicode="u" horiz-adv-x="897" 
d="M403 274c-73.333 -94 -134.667 -163.83 -184 -209.497s-88.333 -68.5 -117 -68.5c-38 0 -73.333 24 -106 72s-49 106 -49 174c0 61.333 13.833 120.5 41.5 177.5s74.5 121.833 140.5 194.5c40 44 71.167 72.5 93.5 85.5s47.166 19.5 74.499 19.5
c31.333 0 58 -4.33301 80 -13s33 -18.667 33 -30c0 -20 -16.167 -49.333 -48.5 -88s-107.166 -114 -224.499 -226c-13.333 -29.333 -23.166 -53.833 -29.499 -73.5s-9.5 -36.5 -9.5 -50.5c0 -9.33301 0.833008 -15.833 2.5 -19.5s4.5 -5.5 8.5 -5.5
c22.667 0 69.667 29.167 141 87.5s151 134.166 239 227.499l2 1c157.333 168.667 251.666 253 282.999 253c12.667 0 22.334 -7.33301 29.001 -22s10 -36 10 -64c0 -39.333 -13.333 -75 -40 -107l-3 -3c-65.333 -74 -117.833 -145.5 -157.5 -214.5
s-59.5 -120.5 -59.5 -154.5c0 -13.333 4.83301 -24.5 14.5 -33.5s21.167 -13.5 34.5 -13.5c19.333 0 48 13.667 86 41s113 90.666 225 189.999v-92c-126 -142 -220 -237.833 -282 -287.5s-114.667 -74.5 -158 -74.5c-36.667 0 -66.334 11.667 -89.001 35
s-34 54.666 -34 93.999c0 24.667 4.66699 54.167 14 88.5s22.333 70.833 39 109.5z" />
    <glyph glyph-name="v" unicode="v" horiz-adv-x="791" 
d="M408 174c-91.333 -92.667 -156.333 -152.998 -195 -180.998s-71.334 -42 -98.001 -42c-44 0 -84 26.667 -120 80s-54 115.333 -54 186c0 58 11 115.5 33 172.5s56 114.833 102 173.5c38 48.667 70 83.334 96 104.001s50 31 72 31c23.333 0 47.5 -6.16699 72.5 -18.5
s37.5 -23.833 37.5 -34.5c0 -14.667 -13.667 -46.834 -41 -96.501s-58 -91.834 -92 -126.501c-6.66699 -7.33301 -17 -18 -31 -32c-69.333 -70.667 -104 -133 -104 -187c0 -21.333 3.33301 -38 10 -50s15.667 -18 27 -18c21.333 0 46 10.5 74 31.5s76.333 67.833 145 140.5
c24 89.333 68.333 173.833 133 253.5s112.334 119.5 143.001 119.5c13.333 0 27 -5.66699 41 -17s21 -24.666 21 -39.999c0 -40 -15.167 -90.167 -45.5 -150.5s-72.5 -122.833 -126.5 -187.5c10.667 -14 21.5 -24 32.5 -30s23.5 -9 37.5 -9c26 0 57.333 12.167 94 36.5
s81.667 63.166 135 116.499l-2 -94c-57.333 -62.667 -108.5 -108.334 -153.5 -137.001s-87.5 -43 -127.5 -43c-18.667 0 -37.5 4 -56.5 12s-38.833 20.333 -59.5 37z" />
    <glyph glyph-name="w" unicode="w" horiz-adv-x="1124" 
d="M406 274c-78 -86.667 -142.831 -152.669 -194.498 -198.002s-88.167 -68 -109.5 -68c-41.333 0 -80.333 27.333 -117 82s-55 116 -55 184c0 57.333 14 114.833 42 172.5s73.667 121.834 137 192.501c52 58.667 91.167 97.5 117.5 116.5s51.166 28.5 74.499 28.5
c32.667 0 61 -5.83301 85 -17.5s36 -25.5 36 -41.5c0 -27.333 -29.167 -76 -87.5 -146s-134.833 -146.667 -229.5 -230c-8 -26 -13.833 -48.5 -17.5 -67.5s-5.5 -35.833 -5.5 -50.5c0 -14 1.5 -24.667 4.5 -32s7.5 -11 13.5 -11c24 0 67.5 29.333 130.5 88
s147.167 149 252.5 271l85 101c36.667 46 61 69 73 69c24.667 0 45.5 -3.16699 62.5 -9.5s25.5 -14.166 25.5 -23.499c0 -12 -13.333 -42 -40 -90c-19.333 -34 -34.666 -62 -45.999 -84c-36.667 -69.333 -65.334 -132.5 -86.001 -189.5s-31 -100.5 -31 -130.5
c0 -13.333 1.83301 -22.333 5.5 -27s10.167 -7 19.5 -7c15.333 0 34.666 11.667 57.999 35s63.333 73 120 149c-0.666992 4 -1.16699 8.33301 -1.5 13s-0.5 10.667 -0.5 18c0 20.667 6.5 45.834 19.5 75.501s31.167 60.5 54.5 92.5c37.333 51.333 72 91.333 104 120
s58 43 78 43c14 0 25.333 -6.66699 34 -20s13 -31 13 -53c0 -40.667 -12 -88.834 -36 -144.501s-57.667 -112.834 -101 -171.501c11.333 -11.333 21.666 -19.166 30.999 -23.499s19.333 -6.5 30 -6.5c22 0 46.667 8.66699 74 26s63.666 48 108.999 92v-90
c-41.333 -50 -82.666 -88.667 -123.999 -116s-78.666 -41 -111.999 -41c-16 0 -33 4.5 -51 13.5s-39.333 24.167 -64 45.5c-62 -74.667 -120.5 -133 -175.5 -175s-100.167 -63 -135.5 -63c-28 0 -50.667 13 -68 39s-26 60.333 -26 103c0 22 2.16699 46.667 6.5 74
s10.5 55 18.5 83z" />
    <glyph glyph-name="x" unicode="x" horiz-adv-x="713" 
d="M170 164c-82.667 -66.667 -140.505 -111.333 -173.505 -134s-55.167 -34 -66.5 -34c-8.66699 0 -15.5 2.5 -20.5 7.5s-7.5 12.167 -7.5 21.5c0 22 21.667 58.333 65 109s113 120.667 209 210c5.33301 41.333 9.5 82.5 12.5 123.5s4.83301 81.833 5.5 122.5
c-46.667 -19.333 -89.667 -42 -129 -68l-59 -39c-4 0 -8 2.66699 -12 8s-6 11 -6 17c0 8 4.83301 18.667 14.5 32s29.834 35.333 60.501 66c68.667 67.333 125.834 119.333 171.501 156s76.167 55 91.5 55c16.667 0 31.334 -7.16699 44.001 -21.5s19 -31.166 19 -50.499
c0 -17.333 -2.5 -45 -7.5 -83s-12.833 -85.333 -23.5 -142c92.667 80 160.334 134.5 203.001 163.5s75.334 43.5 98.001 43.5c9.33301 0 17.166 -3.5 23.499 -10.5s9.5 -15.167 9.5 -24.5c0 -26.667 -38.667 -79.667 -116 -159l-7 -7l-71 -16l-144 -142
c-2 -15.333 -3.5 -31 -4.5 -47s-1.5 -32.333 -1.5 -49c0 -35.333 5.33301 -61.5 16 -78.5s27.334 -25.5 50.001 -25.5c20 0 54 17.833 102 53.5s118.333 95.5 211 179.5v-92c-133.333 -146.667 -228.833 -242.334 -286.5 -287.001s-107.5 -67 -149.5 -67
c-37.333 0 -65.5 16.333 -84.5 49s-31.167 86 -36.5 160z" />
    <glyph glyph-name="y" unicode="y" horiz-adv-x="840" 
d="M406 233c-78 -74 -150.501 -134.67 -217.501 -182.003s-111.5 -71 -133.5 -71c-26 0 -54.667 29 -86 87s-47 116.333 -47 175c0 46.667 11.667 94.5 35 143.5s58 100.167 104 153.5c46.667 52.667 96.834 99.834 150.501 141.501s86.834 62.5 99.501 62.5
c18.667 0 39.167 -10.333 61.5 -31s33.5 -38.334 33.5 -53.001c0 -25.333 -24.5 -66.5 -73.5 -123.5s-114.167 -118.833 -195.5 -185.5c-28.667 -33.333 -48.167 -60 -58.5 -80s-15.5 -39.667 -15.5 -59c0 -10 0.666992 -16.333 2 -19s3.66602 -4 6.99902 -4
c26.667 0 103.667 49.5 231 148.5s259.666 219.5 396.999 361.5c22.667 -4 39 -13.333 49 -28s15 -36.667 15 -66c0 -36.667 -48 -125.667 -144 -267s-175.667 -266.666 -239 -375.999c85.333 64.667 167.5 133.834 246.5 207.501s155.167 151.834 228.5 234.501v-92
l-491.5 -564c-162.333 -193.333 -247.5 -290 -255.5 -290c-9.33301 0 -20.666 17.5 -33.999 52.5s-20 68.167 -20 99.5c0 29.333 33 104 99 224s150 253.333 252 400z" />
    <glyph glyph-name="z" unicode="z" horiz-adv-x="727" 
d="M158 -176c-58 -38.667 -109.333 -80.5 -154 -125.5s-85 -95.5 -121 -151.5c54 15.333 103.333 45.333 148 90s87 107 127 187zM739 401l0.00195312 -92.001c-58 -68.667 -119.167 -132.167 -183.5 -190.5s-130.833 -110.166 -199.5 -155.499
c-5.33301 -46 -21.5 -97 -48.5 -153s-62.5 -111.333 -106.5 -166c-58 -71.333 -120.833 -130.5 -188.5 -177.5s-119.5 -70.5 -155.5 -70.5c-17.333 0 -32.666 12.333 -45.999 37s-20 54 -20 88c0 70 33.5 143.167 100.5 219.5s173.5 162.166 319.5 257.499v16
c0 26 -3.5 45 -10.5 57s-21.5 23.333 -43.5 34c-12.667 6 -30.334 13 -53.001 21c-46 17.333 -69 35.333 -69 54c0 22 52 71.333 156 148c94.667 70.667 173.667 132 237 184c-24 -6 -58.833 -13.667 -104.5 -23s-101.5 -20 -167.5 -32l-75 -81l-93 -95v96l73 78
c-18.667 6.66699 -32.834 15.167 -42.501 25.5s-14.5 22.166 -14.5 35.499c0 42.667 27.667 90.834 83 144.501s103.333 80.5 144 80.5c12 0 21.5 -3 28.5 -9s10.5 -13.667 10.5 -23c0 -6 -1.33301 -12.667 -4 -20s-7.33398 -17.333 -14.001 -30
c51.333 5.33301 104 15 158 29s84 21 90 21c24.667 0 43.834 -12.333 57.501 -37s20.5 -60.334 20.5 -107.001c0 -39.333 -52 -95.666 -156 -168.999c-68 -48.667 -124.667 -90.667 -170 -126c32.667 -15.333 58.167 -37.333 76.5 -66s29.833 -63.667 34.5 -105l48 36
c133.333 98.667 242.666 187.334 327.999 266.001z" />
    <glyph glyph-name="braceleft" unicode="{" 
d="M874 1477l0.00390625 -178.998c-5.33301 0 -13.333 0.333008 -24 1s-18.334 1 -23.001 1c-72.667 0 -121.834 -13.833 -147.501 -41.5s-38.5 -85.5 -38.5 -173.5v-241c0 -103.333 -14.667 -176.833 -44 -220.5s-82.333 -74.834 -159 -93.501
c76 -18 128.833 -48.833 158.5 -92.5s44.5 -117.167 44.5 -220.5v-240c0 -88 13.167 -146.167 39.5 -174.5s75.833 -42.5 148.5 -42.5c4.66699 0 12 0.333008 22 1s17.667 1 23 1v-176h-63c-68 0 -123.167 4 -165.5 12s-77.833 20.333 -106.5 37
c-38 22.667 -64.667 54.667 -80 96s-23 109 -23 203v248c0 96 -17.5 163.667 -52.5 203s-94.5 59 -178.5 59c-4.66699 0 -11.834 -0.333008 -21.501 -1s-16.834 -1 -21.501 -1v179c4.66699 0 11.834 -0.5 21.501 -1.5s16.834 -1.5 21.501 -1.5c84 0 143.5 19.667 178.5 59
s52.5 106.666 52.5 201.999v247c0 96.667 7.66699 165.5 23 206.5s42 72.5 80 94.5c29.333 18 65.666 30.833 108.999 38.5s103.666 11.5 180.999 11.5h45z" />
    <glyph glyph-name="bar" unicode="|" 
d="M424 1565h178v-2048h-178v2048z" />
    <glyph glyph-name="braceright" unicode="}" 
d="M152 1477h45.001c76.667 0 136.5 -3.83301 179.5 -11.5s79.167 -20.5 108.5 -38.5c38 -22 64.667 -53.667 80 -95s23 -110 23 -206v-247c0 -96 17.333 -163.5 52 -202.5s94.334 -58.5 179.001 -58.5c4 0 11 0.5 21 1.5s17.333 1.5 22 1.5v-179
c-4.66699 0 -11.834 0.333008 -21.501 1s-16.834 1 -21.501 1c-84 0 -143.5 -19.667 -178.5 -59s-52.5 -107 -52.5 -203v-248c0 -95.333 -7.66699 -163.333 -23 -204s-42 -72.334 -80 -95.001c-28.667 -17.333 -64.667 -29.833 -108 -37.5s-103.333 -11.5 -180 -11.5h-45
v176c5.33301 0 13 -0.333008 23 -1s17.333 -1 22 -1c72.667 0 121.834 14 147.501 42s38.5 86.333 38.5 175v240c0 102 15 175 45 219s83.333 75.333 160 94c-76.667 18.667 -130 49.834 -160 93.501s-45 117.167 -45 220.5v241c0 88 -12.667 145.833 -38 173.5
s-74 41.5 -146 41.5c-4.66699 0 -12.334 -0.333008 -23.001 -1s-18.667 -1 -24 -1v179z" />
    <glyph glyph-name="asciitilde" unicode="~" horiz-adv-x="1706" 
d="M1530 784l-0.000976562 -184.002c-68.667 -47.333 -134.5 -82.666 -197.5 -105.999s-124.167 -35 -183.5 -35c-29.333 0 -60.166 2.83301 -92.499 8.5s-65.166 14.5 -98.499 26.5c-16.667 5.33301 -42 14 -76 26c-141.333 49.333 -247.666 74 -318.999 74
c-54.667 0 -112.667 -12.667 -174 -38s-131.666 -66 -210.999 -122v187c70.667 48 138 83.833 202 107.5s125.667 35.5 185 35.5c41.333 0 83.166 -4 125.499 -12s98.5 -24 168.5 -48c8.66699 -2.66699 22.667 -7.66699 42 -15c109.333 -38.667 192.666 -58 249.999 -58
c56.667 0 115.667 12.333 177 37s128.666 63.334 201.999 116.001z" />
    <glyph glyph-name="nonbreakingspace" unicode="&#xa0;" horiz-adv-x="1161" 
 />
    <glyph glyph-name="exclamdown" unicode="&#xa1;" horiz-adv-x="602" 
d="M672 1229c0 -48.667 -11.001 -100.501 -33.001 -155.501s-43.333 -82.5 -64 -82.5c-30.667 0 -59 12.333 -85 37s-39 51.334 -39 80.001c0 57.333 10.833 109.5 32.5 156.5s44.834 70.5 69.501 70.5c32.667 0 60.667 -9.83301 84 -29.5s35 -45.167 35 -76.5z
M386.999 857.999c-5.33301 5.33301 -8.66699 9.33105 -10 11.998s-2 5.66699 -2 9c0 12.667 9.16699 28.667 27.5 48s32.833 29 43.5 29c11.333 0 31.666 -15.5 60.999 -46.5s44 -54.167 44 -69.5c0 -20 -23.667 -79.5 -71 -178.5s-106.333 -207.5 -177 -325.5l-42 -71
c-120 -200 -193.333 -300 -220 -300c-3.33301 0 -7.16602 0.666992 -11.499 2s-11.5 4 -21.5 8l-63 25c-28.667 12 -47.5 21.5 -56.5 28.5s-13.5 15.167 -13.5 24.5c0 6.66699 58.667 96.834 176 270.501s229.333 351.834 336 534.501z" />
    <glyph glyph-name="cent" unicode="&#xa2;" horiz-adv-x="1161" 
d="M375 625l92.002 276c-58 -27.333 -107 -63.5 -147 -108.5s-60 -81.833 -60 -110.5c0 -19.333 6.66699 -34 20 -44s32.666 -15 57.999 -15h6c11.333 1.33301 21.666 2 30.999 2zM475.002 446c-2.66699 -16.667 -4.66504 -33.502 -5.99805 -50.502s-2 -37.5 -2 -61.5
c0 -12.667 0.333008 -28.334 1 -47.001s1 -31.667 1 -39c0 -13.333 -2.33301 -23.833 -7 -31.5s-11.334 -11.5 -20.001 -11.5c-26.667 0 -54.167 13.833 -82.5 41.5s-42.5 57.5 -42.5 89.5c0.666992 14 5.33398 42.333 14.001 85c2 10.667 3.66699 19 5 25
c-65.333 2.66699 -114.833 22 -148.5 58s-50.5 87.667 -50.5 155c0 108.667 37.5 205.334 112.5 290.001s172.167 139 291.5 163c38.667 89.333 69.167 144.166 91.5 164.499s53.833 30.5 94.5 30.5c12 0 21.167 -1.5 27.5 -4.5s9.5 -7.16699 9.5 -12.5
c0 -3.33301 -1.66699 -9.16602 -5 -17.499s-8.33301 -19.166 -15 -32.499l-56 -107h35c45.333 0 76.833 -7.16699 94.5 -21.5s26.5 -40.166 26.5 -77.499c0 -42 -12.333 -74.833 -37 -98.5s-62.334 -39.167 -113.001 -46.5l27 51
c-6.66699 0.666992 -14.834 1.83398 -24.501 3.50098s-16.5 2.5 -20.5 2.5c-8.66699 0 -18 -0.5 -28 -1.5s-20.333 -2.5 -31 -4.5l-105 -293c46.667 14.667 95.167 34 145.5 58s79.5 36 87.5 36c9.33301 0 16.5 -4.83301 21.5 -14.5s7.5 -23.834 7.5 -42.501
c0 -50 -19.833 -91.667 -59.5 -125s-119.5 -71 -239.5 -113z" />
    <glyph glyph-name="sterling" unicode="&#xa3;" horiz-adv-x="1161" 
d="M479 158c40 0 117.165 -10.4971 231.498 -31.4971s210.5 -32.5 288.5 -34.5l-5 -8c-87.333 -135.333 -162.666 -203 -225.999 -203c-30 0 -101.167 5.16699 -213.5 15.5s-210.5 15.5 -294.5 15.5c-19.333 0 -39.166 -0.166992 -59.499 -0.5s-41.5 -0.833008 -63.5 -1.5
c-40 -25.333 -77.167 -45 -111.5 -59s-61.166 -21 -80.499 -21c-10 0 -18 2.83301 -24 8.5s-9 13.167 -9 22.5c0 8 7.16699 28.167 21.5 60.5s31.833 66.166 52.5 101.499c12.667 22 26.334 39.333 41.001 52s32.334 21.667 53.001 27c13.333 4 34 9 62 15
c70.667 14.667 122.334 33.667 155.001 57c48 36 83.5 70.833 106.5 104.5s34.5 67.834 34.5 102.501c0 8.66699 -1 18.167 -3 28.5s-5.66699 23.166 -11 38.499c-42.667 -2.66699 -86.667 -6.66699 -132 -12s-70.333 -8 -75 -8c-16.667 0 -30.667 3.5 -42 10.5
s-17 15.833 -17 26.5c0 33.333 18.167 58.333 54.5 75s91.166 25 164.499 25c-18.667 49.333 -31.834 90.666 -39.501 123.999s-11.5 63.666 -11.5 90.999c0 66 18.333 129.333 55 190s91.334 117.667 164.001 171c69.333 50 148.833 89.833 238.5 119.5
s175.834 44.5 258.501 44.5c91.333 0 166.833 -16.167 226.5 -48.5s89.5 -72.833 89.5 -121.5c0 -41.333 -19.667 -87.5 -59 -138.5s-69 -76.5 -89 -76.5c-4.66699 0 -9.16699 2 -13.5 6s-6.5 8.66699 -6.5 14c0 1.33301 2 10 6 26s6 31.333 6 46
c-28.667 8 -57.334 14 -86.001 18s-57.334 6 -86.001 6c-60 0 -119.833 -8.5 -179.5 -25.5s-117.834 -41.833 -174.501 -74.5c-60.667 -36 -106.5 -71.667 -137.5 -107s-46.5 -69.333 -46.5 -102c0 -25.333 12 -68.666 36 -129.999l11 -28
c135.333 -4.66699 238.666 -15.834 309.999 -33.501s107 -40.5 107 -68.5c0 -17.333 -2.5 -30.5 -7.5 -39.5s-12.5 -13.5 -22.5 -13.5c-14.667 0 -57.667 5.83301 -129 17.5s-135 17.5 -191 17.5l-22 -1c3.33301 -12.667 5.83301 -23.834 7.5 -33.501s2.5 -18.167 2.5 -25.5
c0 -31.333 -9.33301 -65.666 -28 -102.999s-47.667 -80 -87 -128z" />
    <glyph glyph-name="currency" unicode="&#xa4;" horiz-adv-x="1241" 
d="M623 1176c-80 0 -148.499 -28.667 -205.499 -86s-85.5 -125.666 -85.5 -204.999c0 -80 28.167 -148.167 84.5 -204.5s125.166 -84.5 206.499 -84.5c80.667 0 149.167 28.167 205.5 84.5s84.5 124.5 84.5 204.5c0 79.333 -28.5 147.666 -85.5 204.999
s-125.167 86 -204.5 86zM168.001 1430l203.002 -203c36.667 27.333 75.667 47.833 117 61.5s85.666 20.5 132.999 20.5s92 -6.83301 134 -20.5s81 -34.167 117 -61.5l203 203l94 -93l-204 -204c26 -36 45.667 -74.833 59 -116.5s20 -85.5 20 -131.5
c0 -46.667 -6.66699 -90.834 -20 -132.501s-33 -80.167 -59 -115.5l204 -205l-94 -92l-203 205c-38 -28 -77.333 -48.667 -118 -62s-84.334 -20 -131.001 -20c-48 0 -93 6.83301 -135 20.5s-81 34.167 -117 61.5l-203 -205l-92 92l203 205
c-26.667 35.333 -46.667 73.833 -60 115.5s-20 85.834 -20 132.501c0 46 6.66699 89.833 20 131.5s33.333 80.5 60 116.5l-203 204z" />
    <glyph glyph-name="yen" unicode="&#xa5;" horiz-adv-x="1161" 
d="M666 377c-28 -80.667 -64.6719 -171.333 -110.005 -272s-71 -163.667 -77 -189c-4 -16.667 -6.66699 -37.667 -8 -63c-2.66699 -37.333 -17.667 -56 -45 -56c-42.667 0 -84 10.333 -124 31s-60 43.334 -60 68.001c0 37.333 30.333 120 91 248c44.667 94 79 170 103 228
c-46 -0.666992 -96.333 -3.83398 -151 -9.50098s-117.334 -14.5 -188.001 -26.5c0.666992 19.333 5.33398 37.166 14.001 53.499s22.334 33.166 41.001 50.499c41.333 7.33301 88.333 13.833 141 19.5s114.667 10.834 186 15.501c7.33301 22 12.666 42 15.999 60s5 35 5 51
c0 7.33301 -0.166992 13 -0.5 17s-0.833008 7.66699 -1.5 11c-50 -2 -100.5 -5.83301 -151.5 -11.5s-104.5 -13.167 -160.5 -22.5c0 19.333 4.16699 36.833 12.5 52.5s22.166 31.5 41.499 47.5c44.667 9.33301 87.834 17 129.501 23s80.834 10 117.501 12
c-10 58.667 -22.167 112.167 -36.5 160.5s-31.5 93.833 -51.5 136.5c-54.667 -28 -94.5 -51.5 -119.5 -70.5s-43.833 -39.167 -56.5 -60.5l80 -11c-24.667 -8 -49 -14.333 -73 -19s-44 -7 -60 -7c-27.333 0 -47.5 13.5 -60.5 40.5s-19.5 68.833 -19.5 125.5
c0 24.667 5.83301 46.667 17.5 66s33.167 40.333 64.5 63c46.667 33.333 99.834 62.833 159.501 88.5s102.167 38.5 127.5 38.5c46 0 87.5 -45.5 124.5 -136.5s71.167 -231.167 102.5 -420.5c110 136.667 220 253.667 330 351s193.333 154.333 250 171
c0 -2.66699 0.333008 -6.66699 1 -12c4.66699 -32.667 7 -55.334 7 -68.001c0 -71.333 -26.667 -124 -80 -158l-6 -4c-2.66699 -1.33301 -6.66699 -3.66602 -12 -6.99902c-110 -64.667 -215.667 -155 -317 -271c52 -1.33301 101 -5.5 147 -12.5s90 -17.167 132 -30.5
c-6.66699 -14.667 -15 -27.834 -25 -39.501s-21.333 -21.834 -34 -30.501c-45.333 7.33301 -86.166 13 -122.499 17s-63.833 6 -82.5 6c-23.333 0 -41.666 -0.166992 -54.999 -0.5s-26.333 -1.16602 -39 -2.49902c-14 -18 -27.333 -38.667 -40 -62s-25.667 -51 -39 -83
c80.667 -3.33301 150.334 -9.66602 209.001 -18.999s111.667 -22 159 -38c-2 -18 -6.66699 -32.5 -14 -43.5s-18.333 -21.167 -33 -30.5c-50.667 8.66699 -105.167 15.834 -163.5 21.501s-122.5 10.167 -192.5 13.5z" />
    <glyph glyph-name="brokenbar" unicode="&#xa6;" 
d="M424 408h178v-758h-178v758zM424 1432h178v-758h-178v758z" />
    <glyph glyph-name="section" unicode="&#xa7;" horiz-adv-x="1126" 
d="M659 244c70.667 -77.333 116.34 -133.166 137.007 -167.499s31 -65.166 31 -92.499c0 -38 -10.833 -76.833 -32.5 -116.5s-50.167 -71.834 -85.5 -96.501c-56.667 -40 -115 -71.5 -175 -94.5s-111.667 -34.5 -155 -34.5c-29.333 0 -62 6.66699 -98 20
s-78.333 35.333 -127 66c-56.667 35.333 -103.334 70 -140.001 104s-55 58.667 -55 74c0 10 11.667 32.333 35 67l35 54l8 13c10 17.333 18 26 24 26c8 0 32.333 -15.333 73 -46l85 -61c29.333 -20.667 54.333 -35.667 75 -45s38.667 -14 54 -14
c47.333 0 99.166 13.5 155.499 40.5s84.5 49.5 84.5 67.5c0 17.333 -33.333 54.666 -100 111.999c-46 39.333 -82.333 71.666 -109 96.999c-116 110.667 -191.167 192.334 -225.5 245.001s-51.5 104 -51.5 154c0 67.333 27.667 123.166 83 167.499
s141.666 79.5 258.999 105.5c-44.667 37.333 -78.334 74.5 -101.001 111.5s-34 72.833 -34 107.5c0 29.333 13.667 64.833 41 106.5s65.666 84.5 114.999 128.5c27.333 24 67.166 42.667 119.499 56s112.833 20 181.5 20c126.667 0 227.667 -13.833 303 -41.5
s113 -64.167 113 -109.5c0 -41.333 -15.833 -77.333 -47.5 -108s-72.5 -46 -122.5 -46c-11.333 0 -24.5 0.833008 -39.5 2.5s-32.5 4.16699 -52.5 7.5l53 35c-24 13.333 -49.833 22.833 -77.5 28.5s-64.834 8.5 -111.501 8.5c-128.667 0 -212 -4.66699 -250 -14
s-57 -26.666 -57 -51.999c0 -26 68 -90.667 204 -194l56 -43c110 -85.333 187.333 -153.833 232 -205.5s67 -97.167 67 -136.5c0 -70.667 -24.333 -127 -73 -169s-150 -88 -304 -138zM461.006 416c116 17.333 208.5 38.499 277.5 63.499s103.5 49.5 103.5 73.5
c0 17.333 -19.5 43 -58.5 77s-89.833 69 -152.5 105c-109.333 -9.33301 -191.333 -25.166 -246 -47.499s-82 -51.5 -82 -87.5c0 -20 13.167 -45.333 39.5 -76s65.833 -66.667 118.5 -108z" />
    <glyph glyph-name="dieresis" unicode="&#xa8;" 
d="M725 985c0 26.667 14.168 52.832 42.501 78.499s59.166 38.5 92.499 38.5c19.333 0 34.166 -5.16699 44.499 -15.5s15.5 -25.166 15.5 -44.499c0 -29.333 -14 -57.833 -42 -85.5s-58 -41.5 -90 -41.5c-19.333 0 -34.666 6.16699 -45.999 18.5s-17 29.5 -17 51.5z
M449.001 984.998c0 26.667 14 52.832 42 78.499s59 38.5 93 38.5c18.667 0 33.167 -5.16699 43.5 -15.5s15.5 -25.166 15.5 -44.499c0 -29.333 -13.833 -57.833 -41.5 -85.5s-57.5 -41.5 -89.5 -41.5c-20 0 -35.5 6.16699 -46.5 18.5s-16.5 29.5 -16.5 51.5z" />
    <glyph glyph-name="copyright" unicode="&#xa9;" horiz-adv-x="1706" 
d="M1206 903h-166.001c-6.66699 49.333 -26.667 87.333 -60 114s-76.666 40 -129.999 40c-66 0 -117.667 -28.833 -155 -86.5s-56 -137.5 -56 -239.5c0 -101.333 19.167 -179.5 57.5 -234.5s92.833 -82.5 163.5 -82.5c53.333 0 96.333 14.5 129 43.5s52.667 70.5 60 124.5
h165c-4.66699 -90 -40.167 -162.333 -106.5 -217s-150.833 -82 -253.5 -82c-122 0 -218.667 39.667 -290 119s-107 187 -107 323c0 138.667 36.5 249.167 109.5 331.5s170.167 123.5 291.5 123.5c98 0 179 -25.667 243 -77s99 -118 105 -200zM853.999 1362
c-86.667 0 -167.667 -15.5 -243 -46.5s-142.333 -76.167 -201 -135.5c-60 -61.333 -106.167 -130.666 -138.5 -207.999s-48.5 -157.666 -48.5 -240.999c0 -84 16 -164 48 -240s78.333 -144 139 -204c60 -60.667 128.167 -107 204.5 -139s156.166 -48 239.499 -48
s163.333 16.167 240 48.5s146.334 79.166 209.001 140.499c59.333 58.667 104.5 125.5 135.5 200.5s46.5 155.5 46.5 241.5s-15.667 167.167 -47 243.5s-76.333 144.166 -135 203.499c-60.667 60 -129 105.667 -205 137s-157.333 47 -244 47zM851.999 1470
c101.333 0 196.664 -18.335 285.997 -55.002s169.333 -90.667 240 -162c70 -70 123.333 -149.5 160 -238.5s55 -183.5 55 -283.5c0 -102 -18.167 -197.333 -54.5 -286s-89.166 -166.667 -158.499 -234c-72 -71.333 -153.5 -126 -244.5 -164s-185.5 -57 -283.5 -57
c-97.333 0 -190.666 18.833 -279.999 56.5s-169.333 91.834 -240 162.501c-71.333 70.667 -125.666 150.834 -162.999 240.501s-56 183.5 -56 281.5c0 96.667 19 190.167 57 280.5s92.667 171.5 164 243.5c70 71.333 148.5 125 235.5 161s181.167 54 282.5 54z" />
    <glyph glyph-name="ordfeminine" unicode="&#xaa;" horiz-adv-x="694" 
d="M336 1026c-72 -69.333 -129 -119.835 -171 -151.502s-73.667 -47.5 -95 -47.5c-20.667 0 -46.334 24 -77.001 72s-46 92.333 -46 133c0 30.667 13.167 64.834 39.5 102.501s62.833 74.5 109.5 110.5c38 28.667 77.333 53.667 118 75s84 40 130 56
c34.667 12 67.334 21.5 98.001 28.5s52 10.5 64 10.5c16.667 0 33.167 -8.33301 49.5 -25s24.5 -32.334 24.5 -47.001c0 -4 -2 -8 -6 -12s-11.667 -8.66699 -23 -14l-27 -17l27 -49c2.66699 -5.33301 4.66699 -10.166 6 -14.499s2 -8.16602 2 -11.499
c0 -11.333 -19.833 -43.666 -59.5 -96.999s-59.5 -94.666 -59.5 -123.999c0 -10.667 4 -18.834 12 -24.501s19 -8.5 33 -8.5c22 0 49.5 10.333 82.5 31s78.833 56.667 137.5 108l2 -61c-100.667 -103.333 -172.5 -170.833 -215.5 -202.5s-79.833 -47.5 -110.5 -47.5
c-24 0 -43.667 8 -59 24s-23 36.667 -23 62c0 13.333 2.5 30.166 7.5 50.499s14.833 50.5 29.5 90.5zM459 1274c-168 -67.333 -275.5 -119.333 -322.5 -156s-70.5 -77.667 -70.5 -123c0 -10.667 2.5 -19.834 7.5 -27.501s11.167 -11.5 18.5 -11.5c25.333 0 74 30.333 146 91
s145.667 136.334 221 227.001z" />
    <glyph glyph-name="guillemotleft" unicode="&#xab;" horiz-adv-x="1020" 
d="M631 332l104 -156c12.667 -18 21.667 -32.5 27 -43.5s8 -20.5 8 -28.5c0 -13.333 -4.33301 -23.833 -13 -31.5s-20.667 -11.5 -36 -11.5c-10 0 -19 2.16699 -27 6.5s-18.667 13.166 -32 26.499l-136 137c-16.667 16.667 -29 32.834 -37 48.501s-12 31.167 -12 46.5
c0 18.667 6 36.5 18 53.5s30.667 34.5 56 52.5l225 162c24.667 18 45 31.333 61 40s28.333 13 37 13c7.33301 0 13 -2.33301 17 -7s6 -11 6 -19c0 -11.333 -4.33301 -23.5 -13 -36.5s-27.667 -33.167 -57 -60.5zM262 332l103.001 -156.001c12 -18 20.667 -32.5 26 -43.5
s8 -20.5 8 -28.5c0 -13.333 -4 -23.833 -12 -31.5s-19.667 -11.5 -35 -11.5c-10 0 -19.5 2.33301 -28.5 7s-19.833 13.334 -32.5 26.001l-135 137c-16 16 -27.833 31.833 -35.5 47.5s-11.5 31.5 -11.5 47.5c0 18.667 5.83301 36.5 17.5 53.5s30.167 34.5 55.5 52.5l226 162
c25.333 18.667 45.5 32.167 60.5 40.5s26.833 12.5 35.5 12.5c7.33301 0 13.166 -2.33301 17.499 -7s6.5 -11 6.5 -19c0 -19.333 -23 -51 -69 -95l-2 -2z" />
    <glyph glyph-name="logicalnot" unicode="&#xac;" horiz-adv-x="1706" 
d="M254 862h1198v-502h-166v336h-1032v166z" />
    <glyph glyph-name="sfthyphen" unicode="&#xad;" horiz-adv-x="901" 
d="M90 377c0 5.33301 9.00098 19 27.001 41s38.333 42.333 61 61c20 16.667 51.667 30.5 95 41.5s89.666 16.5 138.999 16.5c30 0 62.667 -3.5 98 -10.5s55.666 -10.5 60.999 -10.5c2.66699 0 13 1.66699 31 5s34.333 5 49 5c30.667 0 57.834 -3 81.501 -9
s35.5 -13 35.5 -21c0 -6.66699 -7.5 -16 -22.5 -28s-50.5 -35.667 -106.5 -71c-26 -16 -57.167 -27.833 -93.5 -35.5s-83.833 -11.5 -142.5 -11.5c-17.333 0 -41.5 0.666992 -72.5 2s-53.833 2 -68.5 2h-84c-30 0 -52 1.83301 -66 5.5s-21.333 9.5 -22 17.5z" />
    <glyph glyph-name="registered" unicode="&#xae;" horiz-adv-x="1706" 
d="M729 1047l-0.000976562 -261h117c66.667 0 115.334 10.167 146.001 30.5s46 52.5 46 96.5c0 46 -16 79.833 -48 101.5s-82.667 32.5 -152 32.5h-109zM550.999 1159l319.001 0.00195312c115.333 0 202.666 -19 261.999 -57s89 -94 89 -168
c0 -60.667 -16 -110.834 -48 -150.501s-77.667 -65.834 -137 -78.501l185 -375h-199l-164 346h-129v-346h-178v829zM854 1362c-86 0 -166.001 -15.168 -240.001 -45.501s-140.667 -75.166 -200 -134.499c-61.333 -62.667 -108.5 -132.667 -141.5 -210
s-49.5 -157.666 -49.5 -240.999s15.667 -162.833 47 -238.5s76.666 -143.5 135.999 -203.5c60 -60.667 128 -107.334 204 -140.001s154 -49 234 -49c86.667 0 168.834 15.667 246.501 47s147.5 77.333 209.5 138c59.333 57.333 105 123.5 137 198.5s48 154.167 48 237.5
c0 88.667 -15.167 171.167 -45.5 247.5s-75.166 144.833 -134.499 205.5c-62 61.333 -131.167 108 -207.5 140s-157.5 48 -243.5 48zM851.999 1470c102 0 198.167 -18.6689 288.5 -56.002s170.833 -92.333 241.5 -165c68.667 -69.333 121 -148.166 157 -236.499
s54 -182.166 54 -281.499c0 -102 -18.5 -197.667 -55.5 -287s-90.833 -168.333 -161.5 -237c-72 -70 -153 -123.667 -243 -161s-183.667 -56 -281 -56c-98 0 -192.167 19.167 -282.5 57.5s-170.833 93.5 -241.5 165.5c-70 70.667 -123.333 150.334 -160 239.001
s-55 181.667 -55 279c0 98 19.167 192.667 57.5 284s93.5 173 165.5 245c69.333 69.333 147.5 121.666 234.5 156.999s180.833 53 281.5 53z" />
    <glyph glyph-name="macron" unicode="&#xaf;" 
d="M934 1090c-2.66699 -46.667 -18.833 -80.333 -48.5 -101s-78.5 -31 -146.5 -31h-172c-46 0 -75.167 2.83301 -87.5 8.5s-18.5 16.5 -18.5 32.5c0 32 7.5 53.333 22.5 64s48.5 16 100.5 16c30.667 0 77.5 -3 140.5 -9s110.167 -9 141.5 -9c16 0 29.333 2.16699 40 6.5
s20 11.833 28 22.5z" />
    <glyph glyph-name="degree" unicode="&#xb0;" horiz-adv-x="674" 
d="M338 1350c-51.333 0 -95.166 -17.998 -131.499 -53.998s-54.5 -79.667 -54.5 -131c0 -50.667 18.167 -94.334 54.5 -131.001s80.166 -55 131.499 -55s94.833 18.167 130.5 54.5s53.5 80.166 53.5 131.499s-17.833 95 -53.5 131s-79.167 54 -130.5 54zM338 1460
c80.667 0 150 -28.999 208 -86.999s87 -128 87 -210c0 -80.667 -29 -150 -87 -208s-128 -87 -210 -87s-151.333 28.5 -208 85.5s-85 126.833 -85 209.5c0 83.333 28.667 153.666 86 210.999s127 86 209 86z" />
    <glyph glyph-name="plusminus" unicode="&#xb1;" horiz-adv-x="1706" 
d="M254 182h1198v-168h-1198v168zM768 1206h170v-334h514v-165h-514v-334h-170v334h-514v165h514v334z" />
    <glyph glyph-name="twosuperior" unicode="&#xb2;" horiz-adv-x="766" 
d="M123 584c130.667 12.667 263.997 30.3359 399.997 53.0029c34.667 5.33301 54.334 8 59.001 8c8 0 13.333 -1.33301 16 -4s4 -7.33398 4 -14.001c0 -26.667 -11.833 -56 -35.5 -88s-51.5 -54 -83.5 -66c-31.333 -11.333 -73.833 -20.333 -127.5 -27
s-114.167 -10 -181.5 -10c-30.667 0 -55 3 -73 9s-32.667 15.333 -44 28c-8.66699 8.66699 -17.334 24.667 -26.001 48s-13 43 -13 59c0 38 26 80.5 78 127.5s129.333 97.167 232 150.5c36.667 19.333 87.667 43.666 153 72.999c130 58.667 195 109.334 195 152.001
c0 8.66699 -5.66699 15.334 -17 20.001s-27.666 7 -48.999 7c-48 0 -103.167 -9.33301 -165.5 -28s-118.166 -43.334 -167.499 -74.001c35.333 -1.33301 64.166 -5.83301 86.499 -13.5s33.5 -16.167 33.5 -25.5c0 -6 -2.16699 -10.333 -6.5 -13s-11.5 -4 -21.5 -4h-11
c-23.333 0 -51.166 -3.33301 -83.499 -10s-50.166 -10 -53.499 -10h-14c-14.667 0 -24.5 2.66699 -29.5 8s-7.5 14.333 -7.5 27c0 82.667 38 149.667 114 201s177.333 77 304 77c39.333 0 67.5 -2.16699 84.5 -6.5s30.5 -12.5 40.5 -24.5
c13.333 -17.333 23.5 -38.833 30.5 -64.5s10.5 -55.167 10.5 -88.5c0 -46.667 -13.667 -85.834 -41 -117.501s-86.333 -71.834 -177 -120.501l-65 -35c-148 -79.333 -264 -147.333 -348 -204z" />
    <glyph glyph-name="threesuperior" unicode="&#xb3;" horiz-adv-x="766" 
d="M96 643c-9.33301 -6 -16 -11.835 -20 -17.502s-6 -11.5 -6 -17.5c0 -14 8.33301 -25 25 -33s39.667 -12 69 -12c90 0 176 18.167 258 54.5s123 70.166 123 101.499c0 22.667 -16.667 39.167 -50 49.5s-86.333 15.5 -159 15.5c-46 0 -91.333 -2.66699 -136 -8
c-9.33301 -1.33301 -14.666 -2 -15.999 -2c-10.667 0 -18 1.83301 -22 5.5s-6 10.167 -6 19.5c0 42.667 11.5 74.834 34.5 96.501s64.5 36.5 124.5 44.5c118 17.333 213.5 40.5 286.5 69.5s109.5 57.167 109.5 84.5c0 14 -9.33301 24.333 -28 31s-47.667 10 -87 10
c-55.333 0 -107.333 -4.83301 -156 -14.5s-91.667 -23.5 -129 -41.5l88 -43c-27.333 -1.33301 -59 -3 -95 -5s-57.333 -3 -64 -3c-18 0 -33.167 6.16699 -45.5 18.5s-18.5 27.5 -18.5 45.5c0 44.667 35.167 82.334 105.5 113.001s158.833 46 265.5 46
c83.333 0 146.5 -13.333 189.5 -40s64.5 -65.667 64.5 -117c0 -62 -35.333 -110.833 -106 -146.5s-185.334 -62.834 -344.001 -81.501c106 -7.33301 182.5 -24.5 229.5 -51.5s70.5 -67.167 70.5 -120.5c0 -40.667 -14 -78.667 -42 -114s-70 -67.666 -126 -96.999
c-44 -24 -92.167 -42.167 -144.5 -54.5s-107.166 -18.5 -164.499 -18.5c-70 0 -122.667 8.33301 -158 25s-53 41.667 -53 75c0 14.667 5.16699 31.334 15.5 50.001s25.166 36.667 44.499 54c10 10.667 19.333 18.167 28 22.5s17.667 6.5 27 6.5h18z" />
    <glyph glyph-name="acute" unicode="&#xb4;" 
d="M664 893c-16.667 0 -29.834 1.66699 -39.501 5s-14.5 7.66602 -14.5 12.999c0 2.66699 16.5 25.5 49.5 68.5s60.167 87.167 81.5 132.5c10.667 20.667 20.834 33 30.501 37s33.834 6 72.501 6c14 0 25 -2 33 -6s12 -9.33301 12 -16c0 -11.333 -7 -28.166 -21 -50.499
s-33.667 -47.833 -59 -76.5l-5 -6c-62.667 -71.333 -109.334 -107 -140.001 -107z" />
    <glyph glyph-name="mu" unicode="&#xb5;" horiz-adv-x="1208" 
d="M205 1081h228.999l-125 -635c-4 -19.333 -7 -37.666 -9 -54.999s-3 -33.666 -3 -48.999c0 -64 15.5 -112.833 46.5 -146.5s76.167 -50.5 135.5 -50.5c81.333 0 145.833 29.5 193.5 88.5s84.834 156.5 111.501 292.5l109 555h225l-145 -739
c-6.66699 -32.667 -11.5 -59.834 -14.5 -81.501s-4.5 -38.834 -4.5 -51.501c0 -24 5.16699 -41 15.5 -51s27.833 -15 52.5 -15c8.66699 0 15.5 0.166992 20.5 0.5s9.5 0.833008 13.5 1.5l-32 -159c-21.333 -6 -44.166 -10.333 -68.499 -13s-51.5 -4 -81.5 -4
c-49.333 0 -86.5 10.5 -111.5 31.5s-37.5 52.167 -37.5 93.5v15c-27.333 -44.667 -63.333 -79.5 -108 -104.5s-93.334 -37.5 -146.001 -37.5c-54 0 -99.833 8.66699 -137.5 26s-70.167 45 -97.5 83l-99 -506h-229z" />
    <glyph glyph-name="paragraph" unicode="&#xb6;" 
d="M969 1479v-99h-117v-1380h-129v1380h-168v-1380h-131v784c-112 4 -201.5 37.667 -268.5 101s-100.5 145 -100.5 245c0 105.333 35.667 189.833 107 253.5s166 95.5 284 95.5h523z" />
    <glyph glyph-name="periodcentered" unicode="&#xb7;" horiz-adv-x="580" 
d="M190 600c0 34 11.5 62.333 34.5 85s51.167 34 84.5 34s61.833 -11.667 85.5 -35s35.5 -51.333 35.5 -84s-12 -61 -36 -85s-52.333 -36 -85 -36s-60.667 11.833 -84 35.5s-35 52.167 -35 85.5z" />
    <glyph glyph-name="cedilla" unicode="&#xb8;" 
d="M313 31l103.001 17.9971l-131 -184c41.333 -4 73.5 -15.333 96.5 -34s34.5 -43 34.5 -73c0 -27.333 -15 -62.166 -45 -104.499s-67 -79.166 -111 -110.499c-32.667 -22.667 -67 -39.167 -103 -49.5s-77.333 -15.5 -124 -15.5c-38 0 -67.333 6.83301 -88 20.5
s-31 32.834 -31 57.501c0 10 2 20.667 6 32s10.333 23.666 19 36.999c50 18 91.833 31.833 125.5 41.5s57.834 14.5 72.501 14.5c7.33301 0 12.666 -0.666992 15.999 -2s5 -3.66602 5 -6.99902c0 -8 -9.66699 -18.333 -29 -31c-12 -7.33301 -21.667 -14 -29 -20
c9.33301 -6 18.333 -10.5 27 -13.5s17.667 -4.5 27 -4.5c39.333 0 76 9.83301 110 29.5s51 40.5 51 62.5c0 18 -15.833 33.667 -47.5 47s-72.834 21 -123.501 23c33.333 62.667 63.333 115 90 157s53 78.333 79 109z" />
    <glyph glyph-name="onesuperior" unicode="&#xb9;" horiz-adv-x="766" 
d="M518 1106c-28 -8.66699 -61.001 -20.0039 -99.001 -34.0039s-61 -21 -69 -21c-3.33301 0 -6.16602 1.5 -8.49902 4.5s-3.5 6.83301 -3.5 11.5c0 11.333 4.83301 22.833 14.5 34.5s24.167 22.834 43.5 33.501c43.333 26 87.333 48.167 132 66.5s74 27.5 88 27.5
s25.167 -7.16699 33.5 -21.5s12.5 -33.166 12.5 -56.499c0 -31.333 -27.333 -89.666 -82 -174.999l-9 -13l-153 -238c-26.667 -40.667 -50.167 -86 -70.5 -136s-30.5 -84.667 -30.5 -104c0 -5.33301 0.333008 -11.5 1 -18.5s1 -11.5 1 -13.5
c0 -9.33301 -1.66699 -16.5 -5 -21.5s-8.33301 -7.5 -15 -7.5c-15.333 0 -39 12.333 -71 37s-48 49.334 -48 74.001c0 62 30 144.333 90 247s142.667 210.667 248 324z" />
    <glyph glyph-name="ordmasculine" unicode="&#xba;" horiz-adv-x="551" 
d="M305 909c-34 -34 -67.4961 -59.501 -100.496 -76.501s-65.833 -25.5 -98.5 -25.5c-46 0 -84.667 18.667 -116 56s-47 85 -47 143c0 40.667 12.333 83.834 37 129.501s58 86.167 100 121.5c35.333 31.333 74 56.333 116 75s80.333 28 115 28c27.333 0 52 -5.5 74 -16.5
s33 -21.833 33 -32.5c0 -3.33301 -3.33301 -8.5 -10 -15.5s-12.334 -13.5 -17.001 -19.5h2c16.667 0 28.667 -5.16699 36 -15.5s11 -27.833 11 -52.5c0 -32 -7 -66.833 -21 -104.5s-34.667 -77.5 -62 -119.5c23.333 0.666992 50.833 11 82.5 31s73.5 53.667 125.5 101
l-2 -72c-53.333 -49.333 -97.333 -84.5 -132 -105.5s-66.334 -31.5 -95.001 -31.5c-6.66699 0 -12.334 0.166992 -17.001 0.5s-9.33398 0.833008 -14.001 1.5zM227.004 972.999c-0.666992 6 -1.16602 12 -1.49902 18s-0.5 15 -0.5 27c0 25.333 6.5 55.833 19.5 91.5
s31.833 74.167 56.5 115.5c-70.667 -27.333 -129.334 -65.333 -176.001 -114s-70 -94 -70 -136c0 -18.667 5 -32.5 15 -41.5s25 -13.5 45 -13.5c17.333 0 35.5 4.5 54.5 13.5s38.167 22.167 57.5 39.5z" />
    <glyph glyph-name="guillemotright" unicode="&#xbb;" horiz-adv-x="1020" 
d="M674 375l-105.001 154.999c-12.667 18.667 -21.5 33.5 -26.5 44.5s-7.5 20.167 -7.5 27.5c0 14 4.33301 25 13 33s20.667 12 36 12c8.66699 0 16.834 -2 24.501 -6s19.167 -13.667 34.5 -29l135 -137c16.667 -16.667 29 -32.667 37 -48s12 -30.666 12 -45.999
c0 -18.667 -5.83301 -36.5 -17.5 -53.5s-30.167 -34.833 -55.5 -53.5l-226 -161c-22.667 -17.333 -42.334 -30.333 -59.001 -39s-29.667 -13 -39 -13c-6.66699 0 -12 2.16699 -16 6.5s-6 10.5 -6 18.5c0 10.667 4.33301 22.5 13 35.5s27.334 33.167 56.001 60.5z
M296.999 374.999l-102.001 155c-12.667 18.667 -21.667 33.5 -27 44.5s-8 20.167 -8 27.5c0 14 4.33301 25 13 33s20.667 12 36 12c8.66699 0 17 -2 25 -6s19.333 -13.667 34 -29l135 -137c16 -16 28 -31.667 36 -47s12 -31 12 -47c0 -18.667 -6 -36.5 -18 -53.5
s-30.667 -34.833 -56 -53.5l-225 -161c-24 -18 -43.833 -31.167 -59.5 -39.5s-28.167 -12.5 -37.5 -12.5c-7.33301 0.666992 -12.833 3 -16.5 7s-5.5 10 -5.5 18c0 10.667 4.33301 22.5 13 35.5s27.334 33.167 56.001 60.5z" />
    <glyph glyph-name="onequarter" unicode="&#xbc;" horiz-adv-x="1804" 
d="M1448 270c38 58 82.167 116.835 132.5 176.502s106.5 120.5 168.5 182.5c-90.667 -30.667 -178.667 -77.334 -264 -140.001s-164 -138.334 -236 -227.001c8.66699 -2.66699 18.167 -4.66699 28.5 -6s22.833 -2 37.5 -2c18 0 36.167 1 54.5 3s44.5 6.33301 78.5 13z
M1546 143.002c-8.66699 -16.667 -15.5 -34.167 -20.5 -52.5s-7.5 -34.166 -7.5 -47.499c0 -4 1.66699 -8.83301 5 -14.5s5 -10.5 5 -14.5c0 -14 -15.5 -31.167 -46.5 -51.5s-56.5 -30.5 -76.5 -30.5c-11.333 0 -19.666 6 -24.999 18s-8 30 -8 54s1 45.833 3 65.5
s5 38.167 9 55.5l-135 -6h-2h-30c-21.333 0 -35.666 2 -42.999 6s-15 13 -23 27c-8.66699 14.667 -16 31.5 -22 50.5s-9 34.833 -9 47.5c0 37.333 28.833 86.5 86.5 147.5s132.834 118.833 225.501 173.5c72 43.333 140 78.833 204 106.5s107.667 41.5 131 41.5
c12 0 22.5 -4 31.5 -12s13.5 -17 13.5 -27c0 -4.66699 -1.83301 -9.5 -5.5 -14.5s-8.16699 -9.5 -13.5 -13.5c5.33301 -8.66699 9.5 -16.667 12.5 -24s4.5 -14 4.5 -20c0 -13.333 -3.83301 -28.333 -11.5 -45s-20.167 -37 -37.5 -61l-141 -211l70 2h10
c17.333 0 30.166 -2.5 38.499 -7.5s12.5 -12.833 12.5 -23.5c0 -9.33301 -5.5 -21.833 -16.5 -37.5s-25.833 -31.834 -44.5 -48.501c-6.66699 -4.66699 -15.834 -9 -27.501 -13s-27.834 -7.66699 -48.501 -11zM651 -22.998l-3.99805 -71.0039
c-21.333 -40.667 -41.333 -71 -60 -91s-35.334 -30 -50.001 -30c-15.333 0 -36.333 11.5 -63 34.5s-40 46.167 -40 69.5c0 54 35.5 153.667 106.5 299s167.167 313.333 288.5 504c130 203.333 245.167 361.666 345.5 474.999s175.166 170 224.499 170
c16.667 0 28 -3.16699 34 -9.5s9 -18.166 9 -35.499c0 -29.333 -39 -94.166 -117 -194.499s-142 -189.166 -192 -266.499c-122.667 -187.333 -220.167 -345.666 -292.5 -474.999s-135.5 -255.666 -189.5 -378.999zM494.002 1112
c-27.333 -8 -59.1699 -18.5029 -95.5029 -31.5029s-57.833 -19.5 -64.5 -19.5c-3.33301 0 -5.83301 1.33301 -7.5 4s-2.5 6.66699 -2.5 12c0 10.667 4.33301 21.334 13 32.001s21.334 21.334 38.001 32.001c42 24.667 84.333 45.5 127 62.5s71.334 25.5 86.001 25.5
c12.667 0 23 -7 31 -21s12 -31.667 12 -53c0 -28 -25.667 -82 -77 -162l-10 -15l-147 -220c-25.333 -38.667 -47.666 -81.334 -66.999 -128.001s-29 -78.334 -29 -95.001c0 -4.66699 0.666992 -10.667 2 -18s2 -11.666 2 -12.999c0 -8 -2 -14.5 -6 -19.5
s-8.66699 -7.5 -14 -7.5c-14.667 0 -37.167 11.5 -67.5 34.5s-45.5 45.833 -45.5 68.5c0 58.667 28.5 135.834 85.5 231.501s135.833 195.834 236.5 300.501z" />
    <glyph glyph-name="onehalf" unicode="&#xbd;" horiz-adv-x="1804" 
d="M1190 94c126 12.667 253.667 29.6689 383 51.002c32 6 50.333 9 55 9c7.33301 0 12.333 -1.33301 15 -4s4 -7.66699 4 -15c0 -24.667 -11.167 -52 -33.5 -82s-48.166 -50.333 -77.499 -61c-30 -10.667 -70.833 -18.834 -122.5 -24.501s-109.834 -8.5 -174.501 -8.5
c-30.667 0 -54.334 2.5 -71.001 7.5s-30.667 13.5 -42 25.5c-7.33301 10 -14.833 25.833 -22.5 47.5s-11.5 39.167 -11.5 52.5c0 36 25 76 75 120s122.333 90 217 138c35.333 18 84.333 41 147 69c124.667 55.333 187 102.666 187 141.999c0 8 -5.16699 14.167 -15.5 18.5
s-25.5 6.5 -45.5 6.5c-46 0 -98.667 -8.66699 -158 -26s-113 -40 -161 -68c33.333 -1.33301 60.666 -5.5 81.999 -12.5s32 -15.167 32 -24.5c0 -4.66699 -2.16699 -8.33398 -6.5 -11.001s-11.166 -4 -20.499 -4h-10c-22.667 0 -49.334 -3.33301 -80.001 -10
s-47.667 -10 -51 -10h-14c-13.333 0 -22.5 2.66699 -27.5 8s-7.5 13.666 -7.5 24.999c0 77.333 36.333 140 109 188s169.334 72 290.001 72c37.333 0 64.333 -2.16699 81 -6.5s29.334 -11.833 38.001 -22.5c13.333 -15.333 23.5 -35.166 30.5 -59.499
s10.5 -52.166 10.5 -83.499c0 -43.333 -13.333 -79.833 -40 -109.5s-83 -67.167 -169 -112.5l-57 -29c-143.333 -74.667 -256 -140 -338 -196zM651 -22.998l-3.99805 -71.0039c-21.333 -40.667 -41.333 -71 -60 -91s-35.334 -30 -50.001 -30
c-15.333 0 -36.333 11.5 -63 34.5s-40 46.167 -40 69.5c0 54 35.5 153.667 106.5 299s167.167 313.333 288.5 504c130 203.333 245.167 361.666 345.5 474.999s175.166 170 224.499 170c16.667 0 28 -3.16699 34 -9.5s9 -18.166 9 -35.499
c0 -29.333 -39 -94.166 -117 -194.499s-142 -189.166 -192 -266.499c-122.667 -187.333 -220.167 -345.666 -292.5 -474.999s-135.5 -255.666 -189.5 -378.999zM494.002 1112c-27.333 -8 -59.1699 -18.5029 -95.5029 -31.5029s-57.833 -19.5 -64.5 -19.5
c-3.33301 0 -5.83301 1.33301 -7.5 4s-2.5 6.66699 -2.5 12c0 10.667 4.33301 21.334 13 32.001s21.334 21.334 38.001 32.001c42 24.667 84.333 45.5 127 62.5s71.334 25.5 86.001 25.5c12.667 0 23 -7 31 -21s12 -31.667 12 -53c0 -28 -25.667 -82 -77 -162l-10 -15
l-147 -220c-25.333 -38.667 -47.666 -81.334 -66.999 -128.001s-29 -78.334 -29 -95.001c0 -4.66699 0.666992 -10.667 2 -18s2 -11.666 2 -12.999c0 -8 -2 -14.5 -6 -19.5s-8.66699 -7.5 -14 -7.5c-14.667 0 -37.167 11.5 -67.5 34.5s-45.5 45.833 -45.5 68.5
c0 58.667 28.5 135.834 85.5 231.501s135.833 195.834 236.5 300.501z" />
    <glyph glyph-name="threequarters" unicode="&#xbe;" horiz-adv-x="1804" 
d="M1448 270c38 58 82.167 116.835 132.5 176.502s106.5 120.5 168.5 182.5c-90.667 -30.667 -178.667 -77.334 -264 -140.001s-164 -138.334 -236 -227.001c8.66699 -2.66699 18.167 -4.66699 28.5 -6s22.833 -2 37.5 -2c18 0 36.167 1 54.5 3s44.5 6.33301 78.5 13z
M1546 143.002c-8.66699 -16.667 -15.5 -34.167 -20.5 -52.5s-7.5 -34.166 -7.5 -47.499c0 -4 1.66699 -8.83301 5 -14.5s5 -10.5 5 -14.5c0 -14 -15.5 -31.167 -46.5 -51.5s-56.5 -30.5 -76.5 -30.5c-11.333 0 -19.666 6 -24.999 18s-8 30 -8 54s1 45.833 3 65.5
s5 38.167 9 55.5l-135 -6h-2h-30c-21.333 0 -35.666 2 -42.999 6s-15 13 -23 27c-8.66699 14.667 -16 31.5 -22 50.5s-9 34.833 -9 47.5c0 37.333 28.833 86.5 86.5 147.5s132.834 118.833 225.501 173.5c72 43.333 140 78.833 204 106.5s107.667 41.5 131 41.5
c12 0 22.5 -4 31.5 -12s13.5 -17 13.5 -27c0 -4.66699 -1.83301 -9.5 -5.5 -14.5s-8.16699 -9.5 -13.5 -13.5c5.33301 -8.66699 9.5 -16.667 12.5 -24s4.5 -14 4.5 -20c0 -13.333 -3.83301 -28.333 -11.5 -45s-20.167 -37 -37.5 -61l-141 -211l70 2h10
c17.333 0 30.166 -2.5 38.499 -7.5s12.5 -12.833 12.5 -23.5c0 -9.33301 -5.5 -21.833 -16.5 -37.5s-25.833 -31.834 -44.5 -48.501c-6.66699 -4.66699 -15.834 -9 -27.501 -13s-27.834 -7.66699 -48.501 -11zM651 -22.998l-3.99805 -71.0039
c-21.333 -40.667 -41.333 -71 -60 -91s-35.334 -30 -50.001 -30c-15.333 0 -36.333 11.5 -63 34.5s-40 46.167 -40 69.5c0 54 35.5 153.667 106.5 299s167.167 313.333 288.5 504c130 203.333 245.167 361.666 345.5 474.999s175.166 170 224.499 170
c16.667 0 28 -3.16699 34 -9.5s9 -18.166 9 -35.499c0 -29.333 -39 -94.166 -117 -194.499s-142 -189.166 -192 -266.499c-122.667 -187.333 -220.167 -345.666 -292.5 -474.999s-135.5 -255.666 -189.5 -378.999zM92.002 679.998
c-8 -5.33301 -14.002 -10.501 -18.002 -15.501s-6 -10.167 -6 -15.5c0 -12.667 7.5 -22.667 22.5 -30s36.833 -11 65.5 -11c86.667 0 169 16.833 247 50.5s117 65.5 117 95.5c0 20 -16.333 34.833 -49 44.5s-83.334 14.5 -152.001 14.5c-42 0 -84.333 -2.66699 -127 -8
c-8.66699 -1.33301 -14 -2 -16 -2c-11.333 0 -19 1.66699 -23 5s-6 9 -6 17c0 40 11 70.167 33 90.5s62.333 34.5 121 42.5c112 16.667 202.833 38.667 272.5 66s104.5 53.333 104.5 78c0 12.667 -9 22.334 -27 29.001s-45.333 10 -82 10
c-51.333 0 -100.166 -4.33301 -146.499 -13s-88.166 -21.334 -125.499 -38.001l84 -41c-25.333 -1.33301 -55.333 -3.16602 -90 -5.49902s-55.334 -3.5 -62.001 -3.5c-16.667 0 -31 5.83301 -43 17.5s-18 25.834 -18 42.501c0 42 33.5 77.333 100.5 106s151.5 43 253.5 43
c80 0 140.667 -12.5 182 -37.5s62 -61.5 62 -109.5c0 -57.333 -34.167 -103 -102.5 -137s-178.166 -59.333 -329.499 -76c100.667 -6.66699 174 -22.667 220 -48s69 -62.666 69 -111.999c0 -37.333 -13.5 -72.666 -40.5 -105.999s-66.833 -63.666 -119.5 -90.999
c-43.333 -22.667 -89.833 -39.834 -139.5 -51.501s-102.167 -17.5 -157.5 -17.5c-66.667 0 -117.167 7.83301 -151.5 23.5s-51.5 39.167 -51.5 70.5c0 13.333 5.33301 28.666 16 45.999s25.334 34.666 44.001 51.999c12.667 11.333 22.5 18.666 29.5 21.999s14.833 5 23.5 5
c4 0 7.16699 -0.166992 9.5 -0.5s4.5 -0.833008 6.5 -1.5z" />
    <glyph glyph-name="questiondown" unicode="&#xbf;" horiz-adv-x="784" 
d="M670 1380c22.667 0 46.332 -13.833 70.999 -41.5s37 -56.167 37 -85.5c0 -36 -17 -81.833 -51 -137.5s-59.333 -83.5 -76 -83.5c-13.333 0 -32.666 15.667 -57.999 47s-38 59.333 -38 84c0 43.333 13.833 90.333 41.5 141s52.167 76 73.5 76zM538.998 242l-65 31.999
c-2.66699 1.33301 -5 2.33301 -7 3c-14 6.66699 -21 15.334 -21 26.001c0 6 1.33301 10.5 4 13.5s7 4.83301 13 5.5c1.33301 -0.666992 5.33301 -1.66699 12 -3c36 -8.66699 76.333 -16 121 -22c34.667 -4.66699 57 -10.5 67 -17.5s15 -18.833 15 -35.5
c0 -85.333 -39.167 -153.833 -117.5 -205.5s-185.166 -77.5 -320.499 -77.5c-81.333 0 -144 18.333 -188 55s-66 88.667 -66 156c0 73.333 19.833 148.333 59.5 225s116.5 180.667 230.5 312l64 72c82 93.333 123 150.333 123 171c0 2.66699 -1 9.5 -3 20.5s-3 21.5 -3 31.5
s3.83301 18.5 11.5 25.5s17.5 10.5 29.5 10.5c21.333 0 42.666 -15.667 63.999 -47s32 -68 32 -110c0 -46.667 -22.5 -99 -67.5 -157s-124.833 -135.333 -239.5 -232l-61 -51c-96 -78 -144 -137.667 -144 -179c0 -30.667 12.5 -52.667 37.5 -66s67.833 -20 128.5 -20
c50.667 0 101 5.5 151 16.5s96.667 26.833 140 47.5z" />
    <glyph glyph-name="Agrave" unicode="&#xc0;" horiz-adv-x="1466" 
d="M545 418l-74 -94.0049c-134.667 -170 -240 -289.667 -316 -359s-138 -104 -186 -104c-11.333 0 -21.333 3.66699 -30 11s-13 16 -13 26c0 46.667 36.167 111.167 108.5 193.5s145.5 134.5 219.5 156.5l139 172c-100 5.33301 -161.5 13 -184.5 23s-34.5 27 -34.5 51
c0 22 17.5 53.667 52.5 95s70.167 71 105.5 89c28.667 14.667 62.5 25.5 101.5 32.5s91.833 11.167 158.5 12.5c-18.667 -18 -45.834 -31.167 -81.501 -39.5s-58.167 -14.166 -67.5 -17.499h147c193.333 221.333 360.833 399.833 502.5 535.5s229.5 203.5 263.5 203.5
c16.667 0 31.667 -8.5 45 -25.5s20 -37.167 20 -60.5c0 -19.333 -3.33301 -44.5 -10 -75.5s-16.334 -65.833 -29.001 -104.5l-137 -441l107 7h14c26 0 48.5 -4.66699 67.5 -14s28.5 -20 28.5 -32c0 -16.667 -14.5 -44.167 -43.5 -82.5s-62.833 -74.166 -101.5 -107.499
c-18 -15.333 -56 -25.666 -114 -30.999c-16.667 -1.33301 -30 -2.66602 -40 -3.99902c-20.667 -68 -35 -118.5 -43 -151.5s-12 -58.167 -12 -75.5c0 -15.333 2.66699 -27.666 8 -36.999s12.333 -14 21 -14c20 0 53.833 16 101.5 48s114.834 84 201.501 156l2 -69
c-127.333 -138 -221.5 -228.5 -282.5 -271.5s-117.833 -64.5 -170.5 -64.5c-37.333 0 -65 9.5 -83 28.5s-27 47.833 -27 86.5c0 17.333 1.16699 34.5 3.5 51.5s5.83301 32.5 10.5 46.5l88 268c-50.667 -6 -105.667 -10.5 -165 -13.5s-126.666 -4.5 -201.999 -4.5h-69z
M1057 691.995l157 478.999c-88 -81.333 -170.833 -163.166 -248.5 -245.499s-152.167 -167.5 -223.5 -255.5c70.667 2 131.167 4.83301 181.5 8.5s94.833 8.16699 133.5 13.5zM1511 1535.99c0 -5.33301 -1 -9.00195 -3 -11.002s-7.66699 -3 -17 -3
c-23.333 0 -41 2.33301 -53 7s-31.333 19.334 -58 44.001c-40 36.667 -73.167 74.334 -99.5 113.001s-39.5 66.667 -39.5 84c0 5.33301 3.33301 9.33301 10 12s17.667 4 33 4c32 0 53.167 -1.5 63.5 -4.5s17.833 -9.16699 22.5 -18.5c24 -46 53.5 -93.833 88.5 -143.5
s52.5 -77.5 52.5 -83.5z" />
    <glyph glyph-name="Agrave" unicode="&#x410;" horiz-adv-x="1466" 
d="M545 418l-74 -94.0049c-134.667 -170 -240 -289.667 -316 -359s-138 -104 -186 -104c-11.333 0 -21.333 3.66699 -30 11s-13 16 -13 26c0 46.667 36.167 111.167 108.5 193.5s145.5 134.5 219.5 156.5l139 172c-100 5.33301 -161.5 13 -184.5 23s-34.5 27 -34.5 51
c0 22 17.5 53.667 52.5 95s70.167 71 105.5 89c28.667 14.667 62.5 25.5 101.5 32.5s91.833 11.167 158.5 12.5c-18.667 -18 -45.834 -31.167 -81.501 -39.5s-58.167 -14.166 -67.5 -17.499h147c193.333 221.333 360.833 399.833 502.5 535.5s229.5 203.5 263.5 203.5
c16.667 0 31.667 -8.5 45 -25.5s20 -37.167 20 -60.5c0 -19.333 -3.33301 -44.5 -10 -75.5s-16.334 -65.833 -29.001 -104.5l-137 -441l107 7h14c26 0 48.5 -4.66699 67.5 -14s28.5 -20 28.5 -32c0 -16.667 -14.5 -44.167 -43.5 -82.5s-62.833 -74.166 -101.5 -107.499
c-18 -15.333 -56 -25.666 -114 -30.999c-16.667 -1.33301 -30 -2.66602 -40 -3.99902c-20.667 -68 -35 -118.5 -43 -151.5s-12 -58.167 -12 -75.5c0 -15.333 2.66699 -27.666 8 -36.999s12.333 -14 21 -14c20 0 53.833 16 101.5 48s114.834 84 201.501 156l2 -69
c-127.333 -138 -221.5 -228.5 -282.5 -271.5s-117.833 -64.5 -170.5 -64.5c-37.333 0 -65 9.5 -83 28.5s-27 47.833 -27 86.5c0 17.333 1.16699 34.5 3.5 51.5s5.83301 32.5 10.5 46.5l88 268c-50.667 -6 -105.667 -10.5 -165 -13.5s-126.666 -4.5 -201.999 -4.5h-69z
M1057 691.995l157 478.999c-88 -81.333 -170.833 -163.166 -248.5 -245.499s-152.167 -167.5 -223.5 -255.5c70.667 2 131.167 4.83301 181.5 8.5s94.833 8.16699 133.5 13.5zM1511 1535.99c0 -5.33301 -1 -9.00195 -3 -11.002s-7.66699 -3 -17 -3
c-23.333 0 -41 2.33301 -53 7s-31.333 19.334 -58 44.001c-40 36.667 -73.167 74.334 -99.5 113.001s-39.5 66.667 -39.5 84c0 5.33301 3.33301 9.33301 10 12s17.667 4 33 4c32 0 53.167 -1.5 63.5 -4.5s17.833 -9.16699 22.5 -18.5c24 -46 53.5 -93.833 88.5 -143.5
s52.5 -77.5 52.5 -83.5z" />
    <glyph glyph-name="Aacute" unicode="&#xc1;" horiz-adv-x="1466" 
d="M545 418l-74 -94.0049c-134.667 -170 -240 -289.667 -316 -359s-138 -104 -186 -104c-11.333 0 -21.333 3.66699 -30 11s-13 16 -13 26c0 46.667 36.167 111.167 108.5 193.5s145.5 134.5 219.5 156.5l139 172c-100 5.33301 -161.5 13 -184.5 23s-34.5 27 -34.5 51
c0 22 17.5 53.667 52.5 95s70.167 71 105.5 89c28.667 14.667 62.5 25.5 101.5 32.5s91.833 11.167 158.5 12.5c-18.667 -18 -45.834 -31.167 -81.501 -39.5s-58.167 -14.166 -67.5 -17.499h147c193.333 221.333 360.833 399.833 502.5 535.5s229.5 203.5 263.5 203.5
c16.667 0 31.667 -8.5 45 -25.5s20 -37.167 20 -60.5c0 -19.333 -3.33301 -44.5 -10 -75.5s-16.334 -65.833 -29.001 -104.5l-137 -441l107 7h14c26 0 48.5 -4.66699 67.5 -14s28.5 -20 28.5 -32c0 -16.667 -14.5 -44.167 -43.5 -82.5s-62.833 -74.166 -101.5 -107.499
c-18 -15.333 -56 -25.666 -114 -30.999c-16.667 -1.33301 -30 -2.66602 -40 -3.99902c-20.667 -68 -35 -118.5 -43 -151.5s-12 -58.167 -12 -75.5c0 -15.333 2.66699 -27.666 8 -36.999s12.333 -14 21 -14c20 0 53.833 16 101.5 48s114.834 84 201.501 156l2 -69
c-127.333 -138 -221.5 -228.5 -282.5 -271.5s-117.833 -64.5 -170.5 -64.5c-37.333 0 -65 9.5 -83 28.5s-27 47.833 -27 86.5c0 17.333 1.16699 34.5 3.5 51.5s5.83301 32.5 10.5 46.5l88 268c-50.667 -6 -105.667 -10.5 -165 -13.5s-126.666 -4.5 -201.999 -4.5h-69z
M1057 691.995l157 478.999c-88 -81.333 -170.833 -163.166 -248.5 -245.499s-152.167 -167.5 -223.5 -255.5c70.667 2 131.167 4.83301 181.5 8.5s94.833 8.16699 133.5 13.5zM1442 1525.99c-16.667 0 -29.834 1.66699 -39.501 5s-14.5 7.66602 -14.5 12.999
c0 2.66699 16.5 25.5 49.5 68.5s60.167 87.167 81.5 132.5c10.667 20.667 20.834 33 30.501 37s33.834 6 72.501 6c14 0 25 -2 33 -6s12 -9.33301 12 -16c0 -11.333 -7 -28.166 -21 -50.499s-33.667 -47.833 -59 -76.5l-5 -6c-62.667 -71.333 -109.334 -107 -140.001 -107z
" />
    <glyph glyph-name="Aacute" unicode="&#x411;" horiz-adv-x="1466" 
d="M545 418l-74 -94.0049c-134.667 -170 -240 -289.667 -316 -359s-138 -104 -186 -104c-11.333 0 -21.333 3.66699 -30 11s-13 16 -13 26c0 46.667 36.167 111.167 108.5 193.5s145.5 134.5 219.5 156.5l139 172c-100 5.33301 -161.5 13 -184.5 23s-34.5 27 -34.5 51
c0 22 17.5 53.667 52.5 95s70.167 71 105.5 89c28.667 14.667 62.5 25.5 101.5 32.5s91.833 11.167 158.5 12.5c-18.667 -18 -45.834 -31.167 -81.501 -39.5s-58.167 -14.166 -67.5 -17.499h147c193.333 221.333 360.833 399.833 502.5 535.5s229.5 203.5 263.5 203.5
c16.667 0 31.667 -8.5 45 -25.5s20 -37.167 20 -60.5c0 -19.333 -3.33301 -44.5 -10 -75.5s-16.334 -65.833 -29.001 -104.5l-137 -441l107 7h14c26 0 48.5 -4.66699 67.5 -14s28.5 -20 28.5 -32c0 -16.667 -14.5 -44.167 -43.5 -82.5s-62.833 -74.166 -101.5 -107.499
c-18 -15.333 -56 -25.666 -114 -30.999c-16.667 -1.33301 -30 -2.66602 -40 -3.99902c-20.667 -68 -35 -118.5 -43 -151.5s-12 -58.167 -12 -75.5c0 -15.333 2.66699 -27.666 8 -36.999s12.333 -14 21 -14c20 0 53.833 16 101.5 48s114.834 84 201.501 156l2 -69
c-127.333 -138 -221.5 -228.5 -282.5 -271.5s-117.833 -64.5 -170.5 -64.5c-37.333 0 -65 9.5 -83 28.5s-27 47.833 -27 86.5c0 17.333 1.16699 34.5 3.5 51.5s5.83301 32.5 10.5 46.5l88 268c-50.667 -6 -105.667 -10.5 -165 -13.5s-126.666 -4.5 -201.999 -4.5h-69z
M1057 691.995l157 478.999c-88 -81.333 -170.833 -163.166 -248.5 -245.499s-152.167 -167.5 -223.5 -255.5c70.667 2 131.167 4.83301 181.5 8.5s94.833 8.16699 133.5 13.5zM1442 1525.99c-16.667 0 -29.834 1.66699 -39.501 5s-14.5 7.66602 -14.5 12.999
c0 2.66699 16.5 25.5 49.5 68.5s60.167 87.167 81.5 132.5c10.667 20.667 20.834 33 30.501 37s33.834 6 72.501 6c14 0 25 -2 33 -6s12 -9.33301 12 -16c0 -11.333 -7 -28.166 -21 -50.499s-33.667 -47.833 -59 -76.5l-5 -6c-62.667 -71.333 -109.334 -107 -140.001 -107z
" />
    <glyph glyph-name="Acircumflex" unicode="&#xc2;" horiz-adv-x="1466" 
d="M545 418l-74 -94.0049c-134.667 -170 -240 -289.667 -316 -359s-138 -104 -186 -104c-11.333 0 -21.333 3.66699 -30 11s-13 16 -13 26c0 46.667 36.167 111.167 108.5 193.5s145.5 134.5 219.5 156.5l139 172c-100 5.33301 -161.5 13 -184.5 23s-34.5 27 -34.5 51
c0 22 17.5 53.667 52.5 95s70.167 71 105.5 89c28.667 14.667 62.5 25.5 101.5 32.5s91.833 11.167 158.5 12.5c-18.667 -18 -45.834 -31.167 -81.501 -39.5s-58.167 -14.166 -67.5 -17.499h147c193.333 221.333 360.833 399.833 502.5 535.5s229.5 203.5 263.5 203.5
c16.667 0 31.667 -8.5 45 -25.5s20 -37.167 20 -60.5c0 -19.333 -3.33301 -44.5 -10 -75.5s-16.334 -65.833 -29.001 -104.5l-137 -441l107 7h14c26 0 48.5 -4.66699 67.5 -14s28.5 -20 28.5 -32c0 -16.667 -14.5 -44.167 -43.5 -82.5s-62.833 -74.166 -101.5 -107.499
c-18 -15.333 -56 -25.666 -114 -30.999c-16.667 -1.33301 -30 -2.66602 -40 -3.99902c-20.667 -68 -35 -118.5 -43 -151.5s-12 -58.167 -12 -75.5c0 -15.333 2.66699 -27.666 8 -36.999s12.333 -14 21 -14c20 0 53.833 16 101.5 48s114.834 84 201.501 156l2 -69
c-127.333 -138 -221.5 -228.5 -282.5 -271.5s-117.833 -64.5 -170.5 -64.5c-37.333 0 -65 9.5 -83 28.5s-27 47.833 -27 86.5c0 17.333 1.16699 34.5 3.5 51.5s5.83301 32.5 10.5 46.5l88 268c-50.667 -6 -105.667 -10.5 -165 -13.5s-126.666 -4.5 -201.999 -4.5h-69z
M1057 691.995l157 478.999c-88 -81.333 -170.833 -163.166 -248.5 -245.499s-152.167 -167.5 -223.5 -255.5c70.667 2 131.167 4.83301 181.5 8.5s94.833 8.16699 133.5 13.5zM1478 1670.99c-22 -15.333 -51.001 -36.665 -87.001 -63.998
c-73.333 -56.667 -129.666 -85 -168.999 -85c-12.667 0 -22.5 2.16699 -29.5 6.5s-10.833 10.166 -11.5 17.499c0 3.33301 3.16699 8.5 9.5 15.5s15.5 15.5 27.5 25.5l197 160c24 20 44 32.5 60 37.5s36.333 7.5 61 7.5c26.667 0 46.334 -18.333 59.001 -55
s19 -93.334 19 -170.001c0 -13.333 -1.83301 -24.833 -5.5 -34.5s-7.5 -14.5 -11.5 -14.5c-28 0 -46.5 1 -55.5 3s-15.167 6.66699 -18.5 14c-0.666992 2 -2 8 -4 18c-6.66699 42.667 -20.334 82 -41.001 118z" />
    <glyph glyph-name="Acircumflex" unicode="&#x412;" horiz-adv-x="1466" 
d="M545 418l-74 -94.0049c-134.667 -170 -240 -289.667 -316 -359s-138 -104 -186 -104c-11.333 0 -21.333 3.66699 -30 11s-13 16 -13 26c0 46.667 36.167 111.167 108.5 193.5s145.5 134.5 219.5 156.5l139 172c-100 5.33301 -161.5 13 -184.5 23s-34.5 27 -34.5 51
c0 22 17.5 53.667 52.5 95s70.167 71 105.5 89c28.667 14.667 62.5 25.5 101.5 32.5s91.833 11.167 158.5 12.5c-18.667 -18 -45.834 -31.167 -81.501 -39.5s-58.167 -14.166 -67.5 -17.499h147c193.333 221.333 360.833 399.833 502.5 535.5s229.5 203.5 263.5 203.5
c16.667 0 31.667 -8.5 45 -25.5s20 -37.167 20 -60.5c0 -19.333 -3.33301 -44.5 -10 -75.5s-16.334 -65.833 -29.001 -104.5l-137 -441l107 7h14c26 0 48.5 -4.66699 67.5 -14s28.5 -20 28.5 -32c0 -16.667 -14.5 -44.167 -43.5 -82.5s-62.833 -74.166 -101.5 -107.499
c-18 -15.333 -56 -25.666 -114 -30.999c-16.667 -1.33301 -30 -2.66602 -40 -3.99902c-20.667 -68 -35 -118.5 -43 -151.5s-12 -58.167 -12 -75.5c0 -15.333 2.66699 -27.666 8 -36.999s12.333 -14 21 -14c20 0 53.833 16 101.5 48s114.834 84 201.501 156l2 -69
c-127.333 -138 -221.5 -228.5 -282.5 -271.5s-117.833 -64.5 -170.5 -64.5c-37.333 0 -65 9.5 -83 28.5s-27 47.833 -27 86.5c0 17.333 1.16699 34.5 3.5 51.5s5.83301 32.5 10.5 46.5l88 268c-50.667 -6 -105.667 -10.5 -165 -13.5s-126.666 -4.5 -201.999 -4.5h-69z
M1057 691.995l157 478.999c-88 -81.333 -170.833 -163.166 -248.5 -245.499s-152.167 -167.5 -223.5 -255.5c70.667 2 131.167 4.83301 181.5 8.5s94.833 8.16699 133.5 13.5zM1478 1670.99c-22 -15.333 -51.001 -36.665 -87.001 -63.998
c-73.333 -56.667 -129.666 -85 -168.999 -85c-12.667 0 -22.5 2.16699 -29.5 6.5s-10.833 10.166 -11.5 17.499c0 3.33301 3.16699 8.5 9.5 15.5s15.5 15.5 27.5 25.5l197 160c24 20 44 32.5 60 37.5s36.333 7.5 61 7.5c26.667 0 46.334 -18.333 59.001 -55
s19 -93.334 19 -170.001c0 -13.333 -1.83301 -24.833 -5.5 -34.5s-7.5 -14.5 -11.5 -14.5c-28 0 -46.5 1 -55.5 3s-15.167 6.66699 -18.5 14c-0.666992 2 -2 8 -4 18c-6.66699 42.667 -20.334 82 -41.001 118z" />
    <glyph glyph-name="Atilde" unicode="&#xc3;" horiz-adv-x="1466" 
d="M545 418l-74 -94.0049c-134.667 -170 -240 -289.667 -316 -359s-138 -104 -186 -104c-11.333 0 -21.333 3.66699 -30 11s-13 16 -13 26c0 46.667 36.167 111.167 108.5 193.5s145.5 134.5 219.5 156.5l139 172c-100 5.33301 -161.5 13 -184.5 23s-34.5 27 -34.5 51
c0 22 17.5 53.667 52.5 95s70.167 71 105.5 89c28.667 14.667 62.5 25.5 101.5 32.5s91.833 11.167 158.5 12.5c-18.667 -18 -45.834 -31.167 -81.501 -39.5s-58.167 -14.166 -67.5 -17.499h147c193.333 221.333 360.833 399.833 502.5 535.5s229.5 203.5 263.5 203.5
c16.667 0 31.667 -8.5 45 -25.5s20 -37.167 20 -60.5c0 -19.333 -3.33301 -44.5 -10 -75.5s-16.334 -65.833 -29.001 -104.5l-137 -441l107 7h14c26 0 48.5 -4.66699 67.5 -14s28.5 -20 28.5 -32c0 -16.667 -14.5 -44.167 -43.5 -82.5s-62.833 -74.166 -101.5 -107.499
c-18 -15.333 -56 -25.666 -114 -30.999c-16.667 -1.33301 -30 -2.66602 -40 -3.99902c-20.667 -68 -35 -118.5 -43 -151.5s-12 -58.167 -12 -75.5c0 -15.333 2.66699 -27.666 8 -36.999s12.333 -14 21 -14c20 0 53.833 16 101.5 48s114.834 84 201.501 156l2 -69
c-127.333 -138 -221.5 -228.5 -282.5 -271.5s-117.833 -64.5 -170.5 -64.5c-37.333 0 -65 9.5 -83 28.5s-27 47.833 -27 86.5c0 17.333 1.16699 34.5 3.5 51.5s5.83301 32.5 10.5 46.5l88 268c-50.667 -6 -105.667 -10.5 -165 -13.5s-126.666 -4.5 -201.999 -4.5h-69z
M1057 691.995l157 478.999c-88 -81.333 -170.833 -163.166 -248.5 -245.499s-152.167 -167.5 -223.5 -255.5c70.667 2 131.167 4.83301 181.5 8.5s94.833 8.16699 133.5 13.5zM1235 1517.99c-12.667 0 -22.6709 4.16699 -30.0039 12.5s-11 19.833 -11 34.5
c0 37.333 17 78 51 122s69.333 66 106 66c33.333 0 72.833 -17.333 118.5 -52s75.167 -52 88.5 -52c22.667 0 44.334 20.5 65.001 61.5s40 61.5 58 61.5c11.333 0 20 -3.5 26 -10.5s9 -17.167 9 -30.5c0 -42 -14 -85 -42 -129s-58.333 -66 -91 -66
c-31.333 0 -69.166 16.333 -113.499 49s-74.833 49 -91.5 49c-21.333 0 -44.166 -19.333 -68.499 -58s-49.166 -58 -74.499 -58z" />
    <glyph glyph-name="Atilde" unicode="&#x413;" horiz-adv-x="1466" 
d="M545 418l-74 -94.0049c-134.667 -170 -240 -289.667 -316 -359s-138 -104 -186 -104c-11.333 0 -21.333 3.66699 -30 11s-13 16 -13 26c0 46.667 36.167 111.167 108.5 193.5s145.5 134.5 219.5 156.5l139 172c-100 5.33301 -161.5 13 -184.5 23s-34.5 27 -34.5 51
c0 22 17.5 53.667 52.5 95s70.167 71 105.5 89c28.667 14.667 62.5 25.5 101.5 32.5s91.833 11.167 158.5 12.5c-18.667 -18 -45.834 -31.167 -81.501 -39.5s-58.167 -14.166 -67.5 -17.499h147c193.333 221.333 360.833 399.833 502.5 535.5s229.5 203.5 263.5 203.5
c16.667 0 31.667 -8.5 45 -25.5s20 -37.167 20 -60.5c0 -19.333 -3.33301 -44.5 -10 -75.5s-16.334 -65.833 -29.001 -104.5l-137 -441l107 7h14c26 0 48.5 -4.66699 67.5 -14s28.5 -20 28.5 -32c0 -16.667 -14.5 -44.167 -43.5 -82.5s-62.833 -74.166 -101.5 -107.499
c-18 -15.333 -56 -25.666 -114 -30.999c-16.667 -1.33301 -30 -2.66602 -40 -3.99902c-20.667 -68 -35 -118.5 -43 -151.5s-12 -58.167 -12 -75.5c0 -15.333 2.66699 -27.666 8 -36.999s12.333 -14 21 -14c20 0 53.833 16 101.5 48s114.834 84 201.501 156l2 -69
c-127.333 -138 -221.5 -228.5 -282.5 -271.5s-117.833 -64.5 -170.5 -64.5c-37.333 0 -65 9.5 -83 28.5s-27 47.833 -27 86.5c0 17.333 1.16699 34.5 3.5 51.5s5.83301 32.5 10.5 46.5l88 268c-50.667 -6 -105.667 -10.5 -165 -13.5s-126.666 -4.5 -201.999 -4.5h-69z
M1057 691.995l157 478.999c-88 -81.333 -170.833 -163.166 -248.5 -245.499s-152.167 -167.5 -223.5 -255.5c70.667 2 131.167 4.83301 181.5 8.5s94.833 8.16699 133.5 13.5zM1235 1517.99c-12.667 0 -22.6709 4.16699 -30.0039 12.5s-11 19.833 -11 34.5
c0 37.333 17 78 51 122s69.333 66 106 66c33.333 0 72.833 -17.333 118.5 -52s75.167 -52 88.5 -52c22.667 0 44.334 20.5 65.001 61.5s40 61.5 58 61.5c11.333 0 20 -3.5 26 -10.5s9 -17.167 9 -30.5c0 -42 -14 -85 -42 -129s-58.333 -66 -91 -66
c-31.333 0 -69.166 16.333 -113.499 49s-74.833 49 -91.5 49c-21.333 0 -44.166 -19.333 -68.499 -58s-49.166 -58 -74.499 -58z" />
    <glyph glyph-name="Adieresis" unicode="&#xc4;" horiz-adv-x="1466" 
d="M545 418l-74 -94.0049c-134.667 -170 -240 -289.667 -316 -359s-138 -104 -186 -104c-11.333 0 -21.333 3.66699 -30 11s-13 16 -13 26c0 46.667 36.167 111.167 108.5 193.5s145.5 134.5 219.5 156.5l139 172c-100 5.33301 -161.5 13 -184.5 23s-34.5 27 -34.5 51
c0 22 17.5 53.667 52.5 95s70.167 71 105.5 89c28.667 14.667 62.5 25.5 101.5 32.5s91.833 11.167 158.5 12.5c-18.667 -18 -45.834 -31.167 -81.501 -39.5s-58.167 -14.166 -67.5 -17.499h147c193.333 221.333 360.833 399.833 502.5 535.5s229.5 203.5 263.5 203.5
c16.667 0 31.667 -8.5 45 -25.5s20 -37.167 20 -60.5c0 -19.333 -3.33301 -44.5 -10 -75.5s-16.334 -65.833 -29.001 -104.5l-137 -441l107 7h14c26 0 48.5 -4.66699 67.5 -14s28.5 -20 28.5 -32c0 -16.667 -14.5 -44.167 -43.5 -82.5s-62.833 -74.166 -101.5 -107.499
c-18 -15.333 -56 -25.666 -114 -30.999c-16.667 -1.33301 -30 -2.66602 -40 -3.99902c-20.667 -68 -35 -118.5 -43 -151.5s-12 -58.167 -12 -75.5c0 -15.333 2.66699 -27.666 8 -36.999s12.333 -14 21 -14c20 0 53.833 16 101.5 48s114.834 84 201.501 156l2 -69
c-127.333 -138 -221.5 -228.5 -282.5 -271.5s-117.833 -64.5 -170.5 -64.5c-37.333 0 -65 9.5 -83 28.5s-27 47.833 -27 86.5c0 17.333 1.16699 34.5 3.5 51.5s5.83301 32.5 10.5 46.5l88 268c-50.667 -6 -105.667 -10.5 -165 -13.5s-126.666 -4.5 -201.999 -4.5h-69z
M1057 691.995l157 478.999c-88 -81.333 -170.833 -163.166 -248.5 -245.499s-152.167 -167.5 -223.5 -255.5c70.667 2 131.167 4.83301 181.5 8.5s94.833 8.16699 133.5 13.5zM1503 1617.99c0 26.667 14.168 52.832 42.501 78.499s59.166 38.5 92.499 38.5
c19.333 0 34.166 -5.16699 44.499 -15.5s15.5 -25.166 15.5 -44.499c0 -29.333 -14 -57.833 -42 -85.5s-58 -41.5 -90 -41.5c-19.333 0 -34.666 6.16699 -45.999 18.5s-17 29.5 -17 51.5zM1227 1617.99c0 26.667 14 52.832 42 78.499s59 38.5 93 38.5
c18.667 0 33.167 -5.16699 43.5 -15.5s15.5 -25.166 15.5 -44.499c0 -29.333 -13.833 -57.833 -41.5 -85.5s-57.5 -41.5 -89.5 -41.5c-20 0 -35.5 6.16699 -46.5 18.5s-16.5 29.5 -16.5 51.5z" />
    <glyph glyph-name="Adieresis" unicode="&#x414;" horiz-adv-x="1466" 
d="M545 418l-74 -94.0049c-134.667 -170 -240 -289.667 -316 -359s-138 -104 -186 -104c-11.333 0 -21.333 3.66699 -30 11s-13 16 -13 26c0 46.667 36.167 111.167 108.5 193.5s145.5 134.5 219.5 156.5l139 172c-100 5.33301 -161.5 13 -184.5 23s-34.5 27 -34.5 51
c0 22 17.5 53.667 52.5 95s70.167 71 105.5 89c28.667 14.667 62.5 25.5 101.5 32.5s91.833 11.167 158.5 12.5c-18.667 -18 -45.834 -31.167 -81.501 -39.5s-58.167 -14.166 -67.5 -17.499h147c193.333 221.333 360.833 399.833 502.5 535.5s229.5 203.5 263.5 203.5
c16.667 0 31.667 -8.5 45 -25.5s20 -37.167 20 -60.5c0 -19.333 -3.33301 -44.5 -10 -75.5s-16.334 -65.833 -29.001 -104.5l-137 -441l107 7h14c26 0 48.5 -4.66699 67.5 -14s28.5 -20 28.5 -32c0 -16.667 -14.5 -44.167 -43.5 -82.5s-62.833 -74.166 -101.5 -107.499
c-18 -15.333 -56 -25.666 -114 -30.999c-16.667 -1.33301 -30 -2.66602 -40 -3.99902c-20.667 -68 -35 -118.5 -43 -151.5s-12 -58.167 -12 -75.5c0 -15.333 2.66699 -27.666 8 -36.999s12.333 -14 21 -14c20 0 53.833 16 101.5 48s114.834 84 201.501 156l2 -69
c-127.333 -138 -221.5 -228.5 -282.5 -271.5s-117.833 -64.5 -170.5 -64.5c-37.333 0 -65 9.5 -83 28.5s-27 47.833 -27 86.5c0 17.333 1.16699 34.5 3.5 51.5s5.83301 32.5 10.5 46.5l88 268c-50.667 -6 -105.667 -10.5 -165 -13.5s-126.666 -4.5 -201.999 -4.5h-69z
M1057 691.995l157 478.999c-88 -81.333 -170.833 -163.166 -248.5 -245.499s-152.167 -167.5 -223.5 -255.5c70.667 2 131.167 4.83301 181.5 8.5s94.833 8.16699 133.5 13.5zM1503 1617.99c0 26.667 14.168 52.832 42.501 78.499s59.166 38.5 92.499 38.5
c19.333 0 34.166 -5.16699 44.499 -15.5s15.5 -25.166 15.5 -44.499c0 -29.333 -14 -57.833 -42 -85.5s-58 -41.5 -90 -41.5c-19.333 0 -34.666 6.16699 -45.999 18.5s-17 29.5 -17 51.5zM1227 1617.99c0 26.667 14 52.832 42 78.499s59 38.5 93 38.5
c18.667 0 33.167 -5.16699 43.5 -15.5s15.5 -25.166 15.5 -44.499c0 -29.333 -13.833 -57.833 -41.5 -85.5s-57.5 -41.5 -89.5 -41.5c-20 0 -35.5 6.16699 -46.5 18.5s-16.5 29.5 -16.5 51.5z" />
    <glyph glyph-name="Aring" unicode="&#xc5;" horiz-adv-x="1466" 
d="M1581 1798c14 -16.667 23.999 -34.3359 29.999 -53.0029s9 -42 9 -70c0 -55.333 -22 -102.166 -66 -140.499s-95 -57.5 -153 -57.5c-44.667 0 -81.5 16.5 -110.5 49.5s-43.5 75.833 -43.5 128.5c0 59.333 27.833 111 83.5 155s118.834 66 189.501 66
c23.333 0 40.333 -3.5 51 -10.5s16 -17.833 16 -32.5c0 -5.33301 -0.5 -10.666 -1.5 -15.999s-2.5 -11.666 -4.5 -18.999zM1525 1753c-0.666992 0 -2.66699 0.333008 -6 1c-16.667 2 -28.667 3 -36 3c-35.333 0 -69.833 -13.833 -103.5 -41.5s-50.5 -57.5 -50.5 -89.5
c0 -19.333 3.66699 -35.333 11 -48s16.666 -19 27.999 -19c36 0 71.667 17.167 107 51.5s53 72.833 53 115.5c0 7.33301 -0.166992 12.833 -0.5 16.5s-1.16602 7.16699 -2.49902 10.5zM1057 691.998l157 478.999c-88 -81.333 -170.833 -163.166 -248.5 -245.499
s-152.167 -167.5 -223.5 -255.5c70.667 2 131.167 4.83301 181.5 8.5s94.833 8.16699 133.5 13.5zM544.999 417.997l-74 -94.0049c-134.667 -170 -240 -289.667 -316 -359s-138 -104 -186 -104c-11.333 0 -21.333 3.66699 -30 11s-13 16 -13 26
c0 46.667 36.167 111.167 108.5 193.5s145.5 134.5 219.5 156.5l139 172c-100 5.33301 -161.5 13 -184.5 23s-34.5 27 -34.5 51c0 22 17.5 53.667 52.5 95s70.167 71 105.5 89c28.667 14.667 62.5 25.5 101.5 32.5s91.833 11.167 158.5 12.5
c-18.667 -18 -45.834 -31.167 -81.501 -39.5s-58.167 -14.166 -67.5 -17.499h147c193.333 221.333 360.833 399.833 502.5 535.5s229.5 203.5 263.5 203.5c16.667 0 31.667 -8.5 45 -25.5s20 -37.167 20 -60.5c0 -19.333 -3.33301 -44.5 -10 -75.5
s-16.334 -65.833 -29.001 -104.5l-137 -441l107 7h14c26 0 48.5 -4.66699 67.5 -14s28.5 -20 28.5 -32c0 -16.667 -14.5 -44.167 -43.5 -82.5s-62.833 -74.166 -101.5 -107.499c-18 -15.333 -56 -25.666 -114 -30.999c-16.667 -1.33301 -30 -2.66602 -40 -3.99902
c-20.667 -68 -35 -118.5 -43 -151.5s-12 -58.167 -12 -75.5c0 -15.333 2.66699 -27.666 8 -36.999s12.333 -14 21 -14c20 0 53.833 16 101.5 48s114.834 84 201.501 156l2 -69c-127.333 -138 -221.5 -228.5 -282.5 -271.5s-117.833 -64.5 -170.5 -64.5
c-37.333 0 -65 9.5 -83 28.5s-27 47.833 -27 86.5c0 17.333 1.16699 34.5 3.5 51.5s5.83301 32.5 10.5 46.5l88 268c-50.667 -6 -105.667 -10.5 -165 -13.5s-126.666 -4.5 -201.999 -4.5h-69z" />
    <glyph glyph-name="Aring" unicode="&#x415;" horiz-adv-x="1466" 
d="M1581 1798c14 -16.667 23.999 -34.3359 29.999 -53.0029s9 -42 9 -70c0 -55.333 -22 -102.166 -66 -140.499s-95 -57.5 -153 -57.5c-44.667 0 -81.5 16.5 -110.5 49.5s-43.5 75.833 -43.5 128.5c0 59.333 27.833 111 83.5 155s118.834 66 189.501 66
c23.333 0 40.333 -3.5 51 -10.5s16 -17.833 16 -32.5c0 -5.33301 -0.5 -10.666 -1.5 -15.999s-2.5 -11.666 -4.5 -18.999zM1525 1753c-0.666992 0 -2.66699 0.333008 -6 1c-16.667 2 -28.667 3 -36 3c-35.333 0 -69.833 -13.833 -103.5 -41.5s-50.5 -57.5 -50.5 -89.5
c0 -19.333 3.66699 -35.333 11 -48s16.666 -19 27.999 -19c36 0 71.667 17.167 107 51.5s53 72.833 53 115.5c0 7.33301 -0.166992 12.833 -0.5 16.5s-1.16602 7.16699 -2.49902 10.5zM1057 691.998l157 478.999c-88 -81.333 -170.833 -163.166 -248.5 -245.499
s-152.167 -167.5 -223.5 -255.5c70.667 2 131.167 4.83301 181.5 8.5s94.833 8.16699 133.5 13.5zM544.999 417.997l-74 -94.0049c-134.667 -170 -240 -289.667 -316 -359s-138 -104 -186 -104c-11.333 0 -21.333 3.66699 -30 11s-13 16 -13 26
c0 46.667 36.167 111.167 108.5 193.5s145.5 134.5 219.5 156.5l139 172c-100 5.33301 -161.5 13 -184.5 23s-34.5 27 -34.5 51c0 22 17.5 53.667 52.5 95s70.167 71 105.5 89c28.667 14.667 62.5 25.5 101.5 32.5s91.833 11.167 158.5 12.5
c-18.667 -18 -45.834 -31.167 -81.501 -39.5s-58.167 -14.166 -67.5 -17.499h147c193.333 221.333 360.833 399.833 502.5 535.5s229.5 203.5 263.5 203.5c16.667 0 31.667 -8.5 45 -25.5s20 -37.167 20 -60.5c0 -19.333 -3.33301 -44.5 -10 -75.5
s-16.334 -65.833 -29.001 -104.5l-137 -441l107 7h14c26 0 48.5 -4.66699 67.5 -14s28.5 -20 28.5 -32c0 -16.667 -14.5 -44.167 -43.5 -82.5s-62.833 -74.166 -101.5 -107.499c-18 -15.333 -56 -25.666 -114 -30.999c-16.667 -1.33301 -30 -2.66602 -40 -3.99902
c-20.667 -68 -35 -118.5 -43 -151.5s-12 -58.167 -12 -75.5c0 -15.333 2.66699 -27.666 8 -36.999s12.333 -14 21 -14c20 0 53.833 16 101.5 48s114.834 84 201.501 156l2 -69c-127.333 -138 -221.5 -228.5 -282.5 -271.5s-117.833 -64.5 -170.5 -64.5
c-37.333 0 -65 9.5 -83 28.5s-27 47.833 -27 86.5c0 17.333 1.16699 34.5 3.5 51.5s5.83301 32.5 10.5 46.5l88 268c-50.667 -6 -105.667 -10.5 -165 -13.5s-126.666 -4.5 -201.999 -4.5h-69z" />
    <glyph glyph-name="AE" unicode="&#xc6;" horiz-adv-x="1796" 
d="M526 448c-160 -264.667 -269.334 -430.001 -328.001 -496.001s-111.667 -99 -159 -99c-14.667 0 -26.834 5.83301 -36.501 17.5s-14.5 26.834 -14.5 45.501c0 30.667 12.667 70.5 38 119.5s56.333 91.833 93 128.5c30 30 54.167 51.167 72.5 63.5s34.5 18.5 48.5 18.5h8
l125 203l-211 2c-34 0 -58.5 4.33301 -73.5 13s-22.5 22.667 -22.5 42c0 45.333 41.333 96.166 124 152.499s169 84.5 259 84.5c9.33301 0 17 -1.66699 23 -5s9 -7 9 -11s-3.33301 -8 -10 -12s-17 -8.33301 -31 -13l-106 -32l180 -4
c148.667 229.333 286.834 418.333 414.501 567s212.167 223 253.5 223c25.333 0 44.5 -14.333 57.5 -43s21.167 -75 24.5 -139c80.667 45.333 153.5 77.5 218.5 96.5s134.167 28.5 207.5 28.5c80 0 134.667 -11 164 -33s44 -65.667 44 -131
c0 -59.333 -24.333 -103.666 -73 -132.999c-4.66699 -2.66699 -8 -4.66699 -10 -6c-98.667 -58.667 -176 -103 -232 -133c-3.33301 0 -6.16602 2.16699 -8.49902 6.5s-3.5 9.5 -3.5 15.5c0 10.667 8.83301 27.5 26.5 50.5s42.167 49.167 73.5 78.5
c-14.667 0 -31 0.666992 -49 2h-8c-112.667 0 -218 -28.5 -316 -85.5s-147 -110.5 -147 -160.5c0 -38.667 26.833 -67.667 80.5 -87s134.167 -29 241.5 -29c16 0 36 1 60 3s40 3 48 3c20.667 0 37.5 -3.33301 50.5 -10s19.5 -15 19.5 -25s-5 -26.667 -15 -50
s-21.333 -43 -34 -59c-16.667 -20 -48 -33.333 -94 -40c-18 -2.66699 -32 -5 -42 -7c-154 -32.667 -287 -88.334 -399 -167.001s-168 -150 -168 -214c0 -22 21.167 -40 63.5 -54s97.5 -21 165.5 -21c89.333 0 177.166 18.333 263.499 55s178.833 95.334 277.5 176.001
c6 -20 10.333 -39.667 13 -59s4 -44 4 -74c0 -38 -4.5 -69.5 -13.5 -94.5s-23.167 -46.833 -42.5 -65.5c-66 -62.667 -148.167 -112.834 -246.5 -150.501s-197.833 -56.5 -298.5 -56.5c-136 0 -234.167 25.667 -294.5 77s-90.5 134.333 -90.5 249c0 48 21.333 97.333 64 148
s110.334 106.334 203.001 167.001c-54.667 -8 -119.667 -15.167 -195 -21.5s-157.333 -11.5 -246 -15.5zM659.999 669.999c90.667 3.33301 177 7.16699 259 11.5s158 9.16602 228 14.499c-55.333 23.333 -93.833 48.5 -115.5 75.5s-32.5 62.833 -32.5 107.5
c0 58 15.833 122.333 47.5 193s47.5 108 47.5 112c0 6.66699 -0.833008 11.334 -2.5 14.001s-4.5 4 -8.5 4c-19.333 0 -64 -44.167 -134 -132.5s-166.333 -221.5 -289 -399.5z" />
    <glyph glyph-name="AE" unicode="&#x416;" horiz-adv-x="1796" 
d="M526 448c-160 -264.667 -269.334 -430.001 -328.001 -496.001s-111.667 -99 -159 -99c-14.667 0 -26.834 5.83301 -36.501 17.5s-14.5 26.834 -14.5 45.501c0 30.667 12.667 70.5 38 119.5s56.333 91.833 93 128.5c30 30 54.167 51.167 72.5 63.5s34.5 18.5 48.5 18.5h8
l125 203l-211 2c-34 0 -58.5 4.33301 -73.5 13s-22.5 22.667 -22.5 42c0 45.333 41.333 96.166 124 152.499s169 84.5 259 84.5c9.33301 0 17 -1.66699 23 -5s9 -7 9 -11s-3.33301 -8 -10 -12s-17 -8.33301 -31 -13l-106 -32l180 -4
c148.667 229.333 286.834 418.333 414.501 567s212.167 223 253.5 223c25.333 0 44.5 -14.333 57.5 -43s21.167 -75 24.5 -139c80.667 45.333 153.5 77.5 218.5 96.5s134.167 28.5 207.5 28.5c80 0 134.667 -11 164 -33s44 -65.667 44 -131
c0 -59.333 -24.333 -103.666 -73 -132.999c-4.66699 -2.66699 -8 -4.66699 -10 -6c-98.667 -58.667 -176 -103 -232 -133c-3.33301 0 -6.16602 2.16699 -8.49902 6.5s-3.5 9.5 -3.5 15.5c0 10.667 8.83301 27.5 26.5 50.5s42.167 49.167 73.5 78.5
c-14.667 0 -31 0.666992 -49 2h-8c-112.667 0 -218 -28.5 -316 -85.5s-147 -110.5 -147 -160.5c0 -38.667 26.833 -67.667 80.5 -87s134.167 -29 241.5 -29c16 0 36 1 60 3s40 3 48 3c20.667 0 37.5 -3.33301 50.5 -10s19.5 -15 19.5 -25s-5 -26.667 -15 -50
s-21.333 -43 -34 -59c-16.667 -20 -48 -33.333 -94 -40c-18 -2.66699 -32 -5 -42 -7c-154 -32.667 -287 -88.334 -399 -167.001s-168 -150 -168 -214c0 -22 21.167 -40 63.5 -54s97.5 -21 165.5 -21c89.333 0 177.166 18.333 263.499 55s178.833 95.334 277.5 176.001
c6 -20 10.333 -39.667 13 -59s4 -44 4 -74c0 -38 -4.5 -69.5 -13.5 -94.5s-23.167 -46.833 -42.5 -65.5c-66 -62.667 -148.167 -112.834 -246.5 -150.501s-197.833 -56.5 -298.5 -56.5c-136 0 -234.167 25.667 -294.5 77s-90.5 134.333 -90.5 249c0 48 21.333 97.333 64 148
s110.334 106.334 203.001 167.001c-54.667 -8 -119.667 -15.167 -195 -21.5s-157.333 -11.5 -246 -15.5zM659.999 669.999c90.667 3.33301 177 7.16699 259 11.5s158 9.16602 228 14.499c-55.333 23.333 -93.833 48.5 -115.5 75.5s-32.5 62.833 -32.5 107.5
c0 58 15.833 122.333 47.5 193s47.5 108 47.5 112c0 6.66699 -0.833008 11.334 -2.5 14.001s-4.5 4 -8.5 4c-19.333 0 -64 -44.167 -134 -132.5s-166.333 -221.5 -289 -399.5z" />
    <glyph glyph-name="Ccedilla" unicode="&#xc7;" horiz-adv-x="1389" 
d="M1341 539l13 -84.001c-170 -171.333 -334.5 -302 -493.5 -392s-303.833 -135 -434.5 -135c-120.667 0 -218 34.667 -292 104s-111 160.333 -111 273c0 126.667 49.667 262.834 149 408.501s238.666 285.5 417.999 419.5c148.667 110.667 286.167 195.334 412.5 254.001
s234.5 88 324.5 88c56.667 0 100.834 -15 132.501 -45s47.5 -71 47.5 -123c0 -72 -25.167 -149.833 -75.5 -233.5s-125.5 -172.5 -225.5 -266.5c-88 -83.333 -175.333 -152.333 -262 -207s-146.667 -82 -180 -82c-26 0 -51.667 15 -77 45s-38 60 -38 90
c0 32 32.5 78 97.5 138s149.833 120.667 254.5 182l9 -43c90.667 70 164.834 139.667 222.501 209s86.5 121 86.5 155c0 14.667 -3.33301 25.167 -10 31.5s-17 9.5 -31 9.5c-38 0 -107.333 -30 -208 -90s-204.667 -136.333 -312 -229
c-134 -114.667 -238.833 -233.334 -314.5 -356.001s-113.5 -232.667 -113.5 -330c0 -62.667 18 -111.167 54 -145.5s87 -51.5 153 -51.5c101.333 0 220.166 34.333 356.499 103s285.5 169.667 447.5 303zM387 30.999l103.001 17.9971l-131 -184
c41.333 -4 73.5 -15.333 96.5 -34s34.5 -43 34.5 -73c0 -27.333 -15 -62.166 -45 -104.499s-67 -79.166 -111 -110.499c-32.667 -22.667 -67 -39.167 -103 -49.5s-77.333 -15.5 -124 -15.5c-38 0 -67.333 6.83301 -88 20.5s-31 32.834 -31 57.501c0 10 2 20.667 6 32
s10.333 23.666 19 36.999c50 18 91.833 31.833 125.5 41.5s57.834 14.5 72.501 14.5c7.33301 0 12.666 -0.666992 15.999 -2s5 -3.66602 5 -6.99902c0 -8 -9.66699 -18.333 -29 -31c-12 -7.33301 -21.667 -14 -29 -20c9.33301 -6 18.333 -10.5 27 -13.5s17.667 -4.5 27 -4.5
c39.333 0 76 9.83301 110 29.5s51 40.5 51 62.5c0 18 -15.833 33.667 -47.5 47s-72.834 21 -123.501 23c33.333 62.667 63.333 115 90 157s53 78.333 79 109z" />
    <glyph glyph-name="Ccedilla" unicode="&#x417;" horiz-adv-x="1389" 
d="M1341 539l13 -84.001c-170 -171.333 -334.5 -302 -493.5 -392s-303.833 -135 -434.5 -135c-120.667 0 -218 34.667 -292 104s-111 160.333 -111 273c0 126.667 49.667 262.834 149 408.501s238.666 285.5 417.999 419.5c148.667 110.667 286.167 195.334 412.5 254.001
s234.5 88 324.5 88c56.667 0 100.834 -15 132.501 -45s47.5 -71 47.5 -123c0 -72 -25.167 -149.833 -75.5 -233.5s-125.5 -172.5 -225.5 -266.5c-88 -83.333 -175.333 -152.333 -262 -207s-146.667 -82 -180 -82c-26 0 -51.667 15 -77 45s-38 60 -38 90
c0 32 32.5 78 97.5 138s149.833 120.667 254.5 182l9 -43c90.667 70 164.834 139.667 222.501 209s86.5 121 86.5 155c0 14.667 -3.33301 25.167 -10 31.5s-17 9.5 -31 9.5c-38 0 -107.333 -30 -208 -90s-204.667 -136.333 -312 -229
c-134 -114.667 -238.833 -233.334 -314.5 -356.001s-113.5 -232.667 -113.5 -330c0 -62.667 18 -111.167 54 -145.5s87 -51.5 153 -51.5c101.333 0 220.166 34.333 356.499 103s285.5 169.667 447.5 303zM387 30.999l103.001 17.9971l-131 -184
c41.333 -4 73.5 -15.333 96.5 -34s34.5 -43 34.5 -73c0 -27.333 -15 -62.166 -45 -104.499s-67 -79.166 -111 -110.499c-32.667 -22.667 -67 -39.167 -103 -49.5s-77.333 -15.5 -124 -15.5c-38 0 -67.333 6.83301 -88 20.5s-31 32.834 -31 57.501c0 10 2 20.667 6 32
s10.333 23.666 19 36.999c50 18 91.833 31.833 125.5 41.5s57.834 14.5 72.501 14.5c7.33301 0 12.666 -0.666992 15.999 -2s5 -3.66602 5 -6.99902c0 -8 -9.66699 -18.333 -29 -31c-12 -7.33301 -21.667 -14 -29 -20c9.33301 -6 18.333 -10.5 27 -13.5s17.667 -4.5 27 -4.5
c39.333 0 76 9.83301 110 29.5s51 40.5 51 62.5c0 18 -15.833 33.667 -47.5 47s-72.834 21 -123.501 23c33.333 62.667 63.333 115 90 157s53 78.333 79 109z" />
    <glyph glyph-name="Egrave" unicode="&#xc8;" horiz-adv-x="1354" 
d="M1221 344c2 -15.333 3.49902 -29.166 4.49902 -41.499s1.5 -23.166 1.5 -32.499c0 -64 -12.167 -119.833 -36.5 -167.5s-63.5 -92.834 -117.5 -135.501c-83.333 -64 -186.333 -115.833 -309 -155.5s-243 -59.5 -361 -59.5c-130 0 -230.667 26.333 -302 79
s-107 126.667 -107 222c0 126.667 70.5 242 211.5 346s331.167 178.667 570.5 224c-193.333 2 -335.166 25 -425.499 69s-135.5 111.667 -135.5 203c0 62.667 20.167 122.834 60.5 180.501s101.5 113.5 183.5 167.5c83.333 55.333 180.833 97.833 292.5 127.5
s229.834 44.5 354.501 44.5c68.667 0 130 -4.83301 184 -14.5s89.667 -21.834 107 -36.501c10 -8.66699 16.833 -19.5 20.5 -32.5s5.5 -36.833 5.5 -71.5v-27c0 -37.333 -5.33301 -65.166 -16 -83.499s-36.667 -37.5 -78 -57.5l-218 -106.5
c-60.667 -29 -91.667 -43.5 -93 -43.5c-4.66699 0 -8.16699 0.833008 -10.5 2.5s-3.5 4.16699 -3.5 7.5c0 16 14 38 42 66s65 56.667 111 86c-12.667 0.666992 -25.5 1.16699 -38.5 1.5s-29.5 0.5 -49.5 0.5c-89.333 0 -179.333 -11.833 -270 -35.5
s-173.334 -56.834 -248.001 -99.501c-42 -24 -72.667 -45.5 -92 -64.5s-29 -37.167 -29 -54.5c0 -26 24.333 -45 73 -57s152.667 -21.667 312 -29c28 -1.33301 66.667 -3 116 -5c166 -6.66699 249 -27 249 -61c0 -16 -8.83301 -39 -26.5 -69s-38.834 -56 -63.501 -78
c-19.333 -16.667 -58.333 -29.334 -117 -38.001c-34 -4.66699 -61.333 -9 -82 -13c-104.667 -20.667 -195.667 -44.5 -273 -71.5s-144.666 -58.5 -201.999 -94.5c-59.333 -37.333 -108 -76.5 -146 -117.5s-57 -72.833 -57 -95.5c0 -26.667 17.667 -47 53 -61
s87.333 -21 156 -21c125.333 0 248.333 22.5 369 67.5s264 123.5 430 235.5zM1257 1536c0 -5.33301 -1 -9.00195 -3 -11.002s-7.66699 -3 -17 -3c-23.333 0 -41 2.33301 -53 7s-31.333 19.334 -58 44.001c-40 36.667 -73.167 74.334 -99.5 113.001s-39.5 66.667 -39.5 84
c0 5.33301 3.33301 9.33301 10 12s17.667 4 33 4c32 0 53.167 -1.5 63.5 -4.5s17.833 -9.16699 22.5 -18.5c24 -46 53.5 -93.833 88.5 -143.5s52.5 -77.5 52.5 -83.5z" />
    <glyph glyph-name="Egrave" unicode="&#x418;" horiz-adv-x="1354" 
d="M1221 344c2 -15.333 3.49902 -29.166 4.49902 -41.499s1.5 -23.166 1.5 -32.499c0 -64 -12.167 -119.833 -36.5 -167.5s-63.5 -92.834 -117.5 -135.501c-83.333 -64 -186.333 -115.833 -309 -155.5s-243 -59.5 -361 -59.5c-130 0 -230.667 26.333 -302 79
s-107 126.667 -107 222c0 126.667 70.5 242 211.5 346s331.167 178.667 570.5 224c-193.333 2 -335.166 25 -425.499 69s-135.5 111.667 -135.5 203c0 62.667 20.167 122.834 60.5 180.501s101.5 113.5 183.5 167.5c83.333 55.333 180.833 97.833 292.5 127.5
s229.834 44.5 354.501 44.5c68.667 0 130 -4.83301 184 -14.5s89.667 -21.834 107 -36.501c10 -8.66699 16.833 -19.5 20.5 -32.5s5.5 -36.833 5.5 -71.5v-27c0 -37.333 -5.33301 -65.166 -16 -83.499s-36.667 -37.5 -78 -57.5l-218 -106.5
c-60.667 -29 -91.667 -43.5 -93 -43.5c-4.66699 0 -8.16699 0.833008 -10.5 2.5s-3.5 4.16699 -3.5 7.5c0 16 14 38 42 66s65 56.667 111 86c-12.667 0.666992 -25.5 1.16699 -38.5 1.5s-29.5 0.5 -49.5 0.5c-89.333 0 -179.333 -11.833 -270 -35.5
s-173.334 -56.834 -248.001 -99.501c-42 -24 -72.667 -45.5 -92 -64.5s-29 -37.167 -29 -54.5c0 -26 24.333 -45 73 -57s152.667 -21.667 312 -29c28 -1.33301 66.667 -3 116 -5c166 -6.66699 249 -27 249 -61c0 -16 -8.83301 -39 -26.5 -69s-38.834 -56 -63.501 -78
c-19.333 -16.667 -58.333 -29.334 -117 -38.001c-34 -4.66699 -61.333 -9 -82 -13c-104.667 -20.667 -195.667 -44.5 -273 -71.5s-144.666 -58.5 -201.999 -94.5c-59.333 -37.333 -108 -76.5 -146 -117.5s-57 -72.833 -57 -95.5c0 -26.667 17.667 -47 53 -61
s87.333 -21 156 -21c125.333 0 248.333 22.5 369 67.5s264 123.5 430 235.5zM1257 1536c0 -5.33301 -1 -9.00195 -3 -11.002s-7.66699 -3 -17 -3c-23.333 0 -41 2.33301 -53 7s-31.333 19.334 -58 44.001c-40 36.667 -73.167 74.334 -99.5 113.001s-39.5 66.667 -39.5 84
c0 5.33301 3.33301 9.33301 10 12s17.667 4 33 4c32 0 53.167 -1.5 63.5 -4.5s17.833 -9.16699 22.5 -18.5c24 -46 53.5 -93.833 88.5 -143.5s52.5 -77.5 52.5 -83.5z" />
    <glyph glyph-name="Eacute" unicode="&#xc9;" horiz-adv-x="1354" 
d="M1221 344c2 -15.333 3.49902 -29.166 4.49902 -41.499s1.5 -23.166 1.5 -32.499c0 -64 -12.167 -119.833 -36.5 -167.5s-63.5 -92.834 -117.5 -135.501c-83.333 -64 -186.333 -115.833 -309 -155.5s-243 -59.5 -361 -59.5c-130 0 -230.667 26.333 -302 79
s-107 126.667 -107 222c0 126.667 70.5 242 211.5 346s331.167 178.667 570.5 224c-193.333 2 -335.166 25 -425.499 69s-135.5 111.667 -135.5 203c0 62.667 20.167 122.834 60.5 180.501s101.5 113.5 183.5 167.5c83.333 55.333 180.833 97.833 292.5 127.5
s229.834 44.5 354.501 44.5c68.667 0 130 -4.83301 184 -14.5s89.667 -21.834 107 -36.501c10 -8.66699 16.833 -19.5 20.5 -32.5s5.5 -36.833 5.5 -71.5v-27c0 -37.333 -5.33301 -65.166 -16 -83.499s-36.667 -37.5 -78 -57.5l-218 -106.5
c-60.667 -29 -91.667 -43.5 -93 -43.5c-4.66699 0 -8.16699 0.833008 -10.5 2.5s-3.5 4.16699 -3.5 7.5c0 16 14 38 42 66s65 56.667 111 86c-12.667 0.666992 -25.5 1.16699 -38.5 1.5s-29.5 0.5 -49.5 0.5c-89.333 0 -179.333 -11.833 -270 -35.5
s-173.334 -56.834 -248.001 -99.501c-42 -24 -72.667 -45.5 -92 -64.5s-29 -37.167 -29 -54.5c0 -26 24.333 -45 73 -57s152.667 -21.667 312 -29c28 -1.33301 66.667 -3 116 -5c166 -6.66699 249 -27 249 -61c0 -16 -8.83301 -39 -26.5 -69s-38.834 -56 -63.501 -78
c-19.333 -16.667 -58.333 -29.334 -117 -38.001c-34 -4.66699 -61.333 -9 -82 -13c-104.667 -20.667 -195.667 -44.5 -273 -71.5s-144.666 -58.5 -201.999 -94.5c-59.333 -37.333 -108 -76.5 -146 -117.5s-57 -72.833 -57 -95.5c0 -26.667 17.667 -47 53 -61
s87.333 -21 156 -21c125.333 0 248.333 22.5 369 67.5s264 123.5 430 235.5zM1188 1526c-16.667 0 -29.834 1.66699 -39.501 5s-14.5 7.66602 -14.5 12.999c0 2.66699 16.5 25.5 49.5 68.5s60.167 87.167 81.5 132.5c10.667 20.667 20.834 33 30.501 37s33.834 6 72.501 6
c14 0 25 -2 33 -6s12 -9.33301 12 -16c0 -11.333 -7 -28.166 -21 -50.499s-33.667 -47.833 -59 -76.5l-5 -6c-62.667 -71.333 -109.334 -107 -140.001 -107z" />
    <glyph glyph-name="Eacute" unicode="&#x419;" horiz-adv-x="1354" 
d="M1221 344c2 -15.333 3.49902 -29.166 4.49902 -41.499s1.5 -23.166 1.5 -32.499c0 -64 -12.167 -119.833 -36.5 -167.5s-63.5 -92.834 -117.5 -135.501c-83.333 -64 -186.333 -115.833 -309 -155.5s-243 -59.5 -361 -59.5c-130 0 -230.667 26.333 -302 79
s-107 126.667 -107 222c0 126.667 70.5 242 211.5 346s331.167 178.667 570.5 224c-193.333 2 -335.166 25 -425.499 69s-135.5 111.667 -135.5 203c0 62.667 20.167 122.834 60.5 180.501s101.5 113.5 183.5 167.5c83.333 55.333 180.833 97.833 292.5 127.5
s229.834 44.5 354.501 44.5c68.667 0 130 -4.83301 184 -14.5s89.667 -21.834 107 -36.501c10 -8.66699 16.833 -19.5 20.5 -32.5s5.5 -36.833 5.5 -71.5v-27c0 -37.333 -5.33301 -65.166 -16 -83.499s-36.667 -37.5 -78 -57.5l-218 -106.5
c-60.667 -29 -91.667 -43.5 -93 -43.5c-4.66699 0 -8.16699 0.833008 -10.5 2.5s-3.5 4.16699 -3.5 7.5c0 16 14 38 42 66s65 56.667 111 86c-12.667 0.666992 -25.5 1.16699 -38.5 1.5s-29.5 0.5 -49.5 0.5c-89.333 0 -179.333 -11.833 -270 -35.5
s-173.334 -56.834 -248.001 -99.501c-42 -24 -72.667 -45.5 -92 -64.5s-29 -37.167 -29 -54.5c0 -26 24.333 -45 73 -57s152.667 -21.667 312 -29c28 -1.33301 66.667 -3 116 -5c166 -6.66699 249 -27 249 -61c0 -16 -8.83301 -39 -26.5 -69s-38.834 -56 -63.501 -78
c-19.333 -16.667 -58.333 -29.334 -117 -38.001c-34 -4.66699 -61.333 -9 -82 -13c-104.667 -20.667 -195.667 -44.5 -273 -71.5s-144.666 -58.5 -201.999 -94.5c-59.333 -37.333 -108 -76.5 -146 -117.5s-57 -72.833 -57 -95.5c0 -26.667 17.667 -47 53 -61
s87.333 -21 156 -21c125.333 0 248.333 22.5 369 67.5s264 123.5 430 235.5zM1188 1526c-16.667 0 -29.834 1.66699 -39.501 5s-14.5 7.66602 -14.5 12.999c0 2.66699 16.5 25.5 49.5 68.5s60.167 87.167 81.5 132.5c10.667 20.667 20.834 33 30.501 37s33.834 6 72.501 6
c14 0 25 -2 33 -6s12 -9.33301 12 -16c0 -11.333 -7 -28.166 -21 -50.499s-33.667 -47.833 -59 -76.5l-5 -6c-62.667 -71.333 -109.334 -107 -140.001 -107z" />
    <glyph glyph-name="Ecircumflex" unicode="&#xca;" horiz-adv-x="1354" 
d="M1221 344c2 -15.333 3.49902 -29.166 4.49902 -41.499s1.5 -23.166 1.5 -32.499c0 -64 -12.167 -119.833 -36.5 -167.5s-63.5 -92.834 -117.5 -135.501c-83.333 -64 -186.333 -115.833 -309 -155.5s-243 -59.5 -361 -59.5c-130 0 -230.667 26.333 -302 79
s-107 126.667 -107 222c0 126.667 70.5 242 211.5 346s331.167 178.667 570.5 224c-193.333 2 -335.166 25 -425.499 69s-135.5 111.667 -135.5 203c0 62.667 20.167 122.834 60.5 180.501s101.5 113.5 183.5 167.5c83.333 55.333 180.833 97.833 292.5 127.5
s229.834 44.5 354.501 44.5c68.667 0 130 -4.83301 184 -14.5s89.667 -21.834 107 -36.501c10 -8.66699 16.833 -19.5 20.5 -32.5s5.5 -36.833 5.5 -71.5v-27c0 -37.333 -5.33301 -65.166 -16 -83.499s-36.667 -37.5 -78 -57.5l-218 -106.5
c-60.667 -29 -91.667 -43.5 -93 -43.5c-4.66699 0 -8.16699 0.833008 -10.5 2.5s-3.5 4.16699 -3.5 7.5c0 16 14 38 42 66s65 56.667 111 86c-12.667 0.666992 -25.5 1.16699 -38.5 1.5s-29.5 0.5 -49.5 0.5c-89.333 0 -179.333 -11.833 -270 -35.5
s-173.334 -56.834 -248.001 -99.501c-42 -24 -72.667 -45.5 -92 -64.5s-29 -37.167 -29 -54.5c0 -26 24.333 -45 73 -57s152.667 -21.667 312 -29c28 -1.33301 66.667 -3 116 -5c166 -6.66699 249 -27 249 -61c0 -16 -8.83301 -39 -26.5 -69s-38.834 -56 -63.501 -78
c-19.333 -16.667 -58.333 -29.334 -117 -38.001c-34 -4.66699 -61.333 -9 -82 -13c-104.667 -20.667 -195.667 -44.5 -273 -71.5s-144.666 -58.5 -201.999 -94.5c-59.333 -37.333 -108 -76.5 -146 -117.5s-57 -72.833 -57 -95.5c0 -26.667 17.667 -47 53 -61
s87.333 -21 156 -21c125.333 0 248.333 22.5 369 67.5s264 123.5 430 235.5zM1224 1671c-22 -15.333 -51.001 -36.665 -87.001 -63.998c-73.333 -56.667 -129.666 -85 -168.999 -85c-12.667 0 -22.5 2.16699 -29.5 6.5s-10.833 10.166 -11.5 17.499
c0 3.33301 3.16699 8.5 9.5 15.5s15.5 15.5 27.5 25.5l197 160c24 20 44 32.5 60 37.5s36.333 7.5 61 7.5c26.667 0 46.334 -18.333 59.001 -55s19 -93.334 19 -170.001c0 -13.333 -1.83301 -24.833 -5.5 -34.5s-7.5 -14.5 -11.5 -14.5c-28 0 -46.5 1 -55.5 3
s-15.167 6.66699 -18.5 14c-0.666992 2 -2 8 -4 18c-6.66699 42.667 -20.334 82 -41.001 118z" />
    <glyph glyph-name="Ecircumflex" unicode="&#x41a;" horiz-adv-x="1354" 
d="M1221 344c2 -15.333 3.49902 -29.166 4.49902 -41.499s1.5 -23.166 1.5 -32.499c0 -64 -12.167 -119.833 -36.5 -167.5s-63.5 -92.834 -117.5 -135.501c-83.333 -64 -186.333 -115.833 -309 -155.5s-243 -59.5 -361 -59.5c-130 0 -230.667 26.333 -302 79
s-107 126.667 -107 222c0 126.667 70.5 242 211.5 346s331.167 178.667 570.5 224c-193.333 2 -335.166 25 -425.499 69s-135.5 111.667 -135.5 203c0 62.667 20.167 122.834 60.5 180.501s101.5 113.5 183.5 167.5c83.333 55.333 180.833 97.833 292.5 127.5
s229.834 44.5 354.501 44.5c68.667 0 130 -4.83301 184 -14.5s89.667 -21.834 107 -36.501c10 -8.66699 16.833 -19.5 20.5 -32.5s5.5 -36.833 5.5 -71.5v-27c0 -37.333 -5.33301 -65.166 -16 -83.499s-36.667 -37.5 -78 -57.5l-218 -106.5
c-60.667 -29 -91.667 -43.5 -93 -43.5c-4.66699 0 -8.16699 0.833008 -10.5 2.5s-3.5 4.16699 -3.5 7.5c0 16 14 38 42 66s65 56.667 111 86c-12.667 0.666992 -25.5 1.16699 -38.5 1.5s-29.5 0.5 -49.5 0.5c-89.333 0 -179.333 -11.833 -270 -35.5
s-173.334 -56.834 -248.001 -99.501c-42 -24 -72.667 -45.5 -92 -64.5s-29 -37.167 -29 -54.5c0 -26 24.333 -45 73 -57s152.667 -21.667 312 -29c28 -1.33301 66.667 -3 116 -5c166 -6.66699 249 -27 249 -61c0 -16 -8.83301 -39 -26.5 -69s-38.834 -56 -63.501 -78
c-19.333 -16.667 -58.333 -29.334 -117 -38.001c-34 -4.66699 -61.333 -9 -82 -13c-104.667 -20.667 -195.667 -44.5 -273 -71.5s-144.666 -58.5 -201.999 -94.5c-59.333 -37.333 -108 -76.5 -146 -117.5s-57 -72.833 -57 -95.5c0 -26.667 17.667 -47 53 -61
s87.333 -21 156 -21c125.333 0 248.333 22.5 369 67.5s264 123.5 430 235.5zM1224 1671c-22 -15.333 -51.001 -36.665 -87.001 -63.998c-73.333 -56.667 -129.666 -85 -168.999 -85c-12.667 0 -22.5 2.16699 -29.5 6.5s-10.833 10.166 -11.5 17.499
c0 3.33301 3.16699 8.5 9.5 15.5s15.5 15.5 27.5 25.5l197 160c24 20 44 32.5 60 37.5s36.333 7.5 61 7.5c26.667 0 46.334 -18.333 59.001 -55s19 -93.334 19 -170.001c0 -13.333 -1.83301 -24.833 -5.5 -34.5s-7.5 -14.5 -11.5 -14.5c-28 0 -46.5 1 -55.5 3
s-15.167 6.66699 -18.5 14c-0.666992 2 -2 8 -4 18c-6.66699 42.667 -20.334 82 -41.001 118z" />
    <glyph glyph-name="Edieresis" unicode="&#xcb;" horiz-adv-x="1354" 
d="M1221 344c2 -15.333 3.49902 -29.166 4.49902 -41.499s1.5 -23.166 1.5 -32.499c0 -64 -12.167 -119.833 -36.5 -167.5s-63.5 -92.834 -117.5 -135.501c-83.333 -64 -186.333 -115.833 -309 -155.5s-243 -59.5 -361 -59.5c-130 0 -230.667 26.333 -302 79
s-107 126.667 -107 222c0 126.667 70.5 242 211.5 346s331.167 178.667 570.5 224c-193.333 2 -335.166 25 -425.499 69s-135.5 111.667 -135.5 203c0 62.667 20.167 122.834 60.5 180.501s101.5 113.5 183.5 167.5c83.333 55.333 180.833 97.833 292.5 127.5
s229.834 44.5 354.501 44.5c68.667 0 130 -4.83301 184 -14.5s89.667 -21.834 107 -36.501c10 -8.66699 16.833 -19.5 20.5 -32.5s5.5 -36.833 5.5 -71.5v-27c0 -37.333 -5.33301 -65.166 -16 -83.499s-36.667 -37.5 -78 -57.5l-218 -106.5
c-60.667 -29 -91.667 -43.5 -93 -43.5c-4.66699 0 -8.16699 0.833008 -10.5 2.5s-3.5 4.16699 -3.5 7.5c0 16 14 38 42 66s65 56.667 111 86c-12.667 0.666992 -25.5 1.16699 -38.5 1.5s-29.5 0.5 -49.5 0.5c-89.333 0 -179.333 -11.833 -270 -35.5
s-173.334 -56.834 -248.001 -99.501c-42 -24 -72.667 -45.5 -92 -64.5s-29 -37.167 -29 -54.5c0 -26 24.333 -45 73 -57s152.667 -21.667 312 -29c28 -1.33301 66.667 -3 116 -5c166 -6.66699 249 -27 249 -61c0 -16 -8.83301 -39 -26.5 -69s-38.834 -56 -63.501 -78
c-19.333 -16.667 -58.333 -29.334 -117 -38.001c-34 -4.66699 -61.333 -9 -82 -13c-104.667 -20.667 -195.667 -44.5 -273 -71.5s-144.666 -58.5 -201.999 -94.5c-59.333 -37.333 -108 -76.5 -146 -117.5s-57 -72.833 -57 -95.5c0 -26.667 17.667 -47 53 -61
s87.333 -21 156 -21c125.333 0 248.333 22.5 369 67.5s264 123.5 430 235.5zM1249 1618c0 26.667 14.168 52.832 42.501 78.499s59.166 38.5 92.499 38.5c19.333 0 34.166 -5.16699 44.499 -15.5s15.5 -25.166 15.5 -44.499c0 -29.333 -14 -57.833 -42 -85.5
s-58 -41.5 -90 -41.5c-19.333 0 -34.666 6.16699 -45.999 18.5s-17 29.5 -17 51.5zM973 1618c0 26.667 14 52.832 42 78.499s59 38.5 93 38.5c18.667 0 33.167 -5.16699 43.5 -15.5s15.5 -25.166 15.5 -44.499c0 -29.333 -13.833 -57.833 -41.5 -85.5
s-57.5 -41.5 -89.5 -41.5c-20 0 -35.5 6.16699 -46.5 18.5s-16.5 29.5 -16.5 51.5z" />
    <glyph glyph-name="Edieresis" unicode="&#x41b;" horiz-adv-x="1354" 
d="M1221 344c2 -15.333 3.49902 -29.166 4.49902 -41.499s1.5 -23.166 1.5 -32.499c0 -64 -12.167 -119.833 -36.5 -167.5s-63.5 -92.834 -117.5 -135.501c-83.333 -64 -186.333 -115.833 -309 -155.5s-243 -59.5 -361 -59.5c-130 0 -230.667 26.333 -302 79
s-107 126.667 -107 222c0 126.667 70.5 242 211.5 346s331.167 178.667 570.5 224c-193.333 2 -335.166 25 -425.499 69s-135.5 111.667 -135.5 203c0 62.667 20.167 122.834 60.5 180.501s101.5 113.5 183.5 167.5c83.333 55.333 180.833 97.833 292.5 127.5
s229.834 44.5 354.501 44.5c68.667 0 130 -4.83301 184 -14.5s89.667 -21.834 107 -36.501c10 -8.66699 16.833 -19.5 20.5 -32.5s5.5 -36.833 5.5 -71.5v-27c0 -37.333 -5.33301 -65.166 -16 -83.499s-36.667 -37.5 -78 -57.5l-218 -106.5
c-60.667 -29 -91.667 -43.5 -93 -43.5c-4.66699 0 -8.16699 0.833008 -10.5 2.5s-3.5 4.16699 -3.5 7.5c0 16 14 38 42 66s65 56.667 111 86c-12.667 0.666992 -25.5 1.16699 -38.5 1.5s-29.5 0.5 -49.5 0.5c-89.333 0 -179.333 -11.833 -270 -35.5
s-173.334 -56.834 -248.001 -99.501c-42 -24 -72.667 -45.5 -92 -64.5s-29 -37.167 -29 -54.5c0 -26 24.333 -45 73 -57s152.667 -21.667 312 -29c28 -1.33301 66.667 -3 116 -5c166 -6.66699 249 -27 249 -61c0 -16 -8.83301 -39 -26.5 -69s-38.834 -56 -63.501 -78
c-19.333 -16.667 -58.333 -29.334 -117 -38.001c-34 -4.66699 -61.333 -9 -82 -13c-104.667 -20.667 -195.667 -44.5 -273 -71.5s-144.666 -58.5 -201.999 -94.5c-59.333 -37.333 -108 -76.5 -146 -117.5s-57 -72.833 -57 -95.5c0 -26.667 17.667 -47 53 -61
s87.333 -21 156 -21c125.333 0 248.333 22.5 369 67.5s264 123.5 430 235.5zM1249 1618c0 26.667 14.168 52.832 42.501 78.499s59.166 38.5 92.499 38.5c19.333 0 34.166 -5.16699 44.499 -15.5s15.5 -25.166 15.5 -44.499c0 -29.333 -14 -57.833 -42 -85.5
s-58 -41.5 -90 -41.5c-19.333 0 -34.666 6.16699 -45.999 18.5s-17 29.5 -17 51.5zM973 1618c0 26.667 14 52.832 42 78.499s59 38.5 93 38.5c18.667 0 33.167 -5.16699 43.5 -15.5s15.5 -25.166 15.5 -44.499c0 -29.333 -13.833 -57.833 -41.5 -85.5
s-57.5 -41.5 -89.5 -41.5c-20 0 -35.5 6.16699 -46.5 18.5s-16.5 29.5 -16.5 51.5z" />
    <glyph glyph-name="Igrave" unicode="&#xcc;" horiz-adv-x="977" 
d="M606 143c1.33301 -4.66699 2.33008 -9.66699 2.99707 -15s1 -13.333 1 -24c0 -28 -18.667 -65.333 -56 -112s-67.666 -70 -90.999 -70c-18 0 -39.667 12.833 -65 38.5s-38 47.167 -38 64.5c0 22 43.167 96.667 129.5 224s158.166 239.666 215.499 336.999
c95.333 163.333 159 284.5 191 363.5s50.667 151.5 56 217.5c-123.333 -30 -233.5 -81 -330.5 -153s-170.833 -157.333 -221.5 -256c24 8.66699 43.167 14.834 57.5 18.501s25.833 5.5 34.5 5.5c12.667 0 21.834 -2.16699 27.501 -6.5s8.5 -10.833 8.5 -19.5
c0 -13.333 -22.333 -35.333 -67 -66l-35 -24l-49 -38c-30 -24 -50.667 -36 -62 -36c-27.333 0 -62.166 21.667 -104.499 65s-63.5 79.666 -63.5 108.999c0 30.667 17.333 79 52 145s76.334 124 125.001 174c84 88 185.667 162 305 222s217 90 293 90
c60 0 107 -17.167 141 -51.5s51 -82.166 51 -143.499c0 -119.333 -43 -268.833 -129 -448.5s-212.333 -383.167 -379 -610.5zM1069 1536c0 -5.33301 -1 -9.00195 -3 -11.002s-7.66699 -3 -17 -3c-23.333 0 -41 2.33301 -53 7s-31.333 19.334 -58 44.001
c-40 36.667 -73.167 74.334 -99.5 113.001s-39.5 66.667 -39.5 84c0 5.33301 3.33301 9.33301 10 12s17.667 4 33 4c32 0 53.167 -1.5 63.5 -4.5s17.833 -9.16699 22.5 -18.5c24 -46 53.5 -93.833 88.5 -143.5s52.5 -77.5 52.5 -83.5z" />
    <glyph glyph-name="Igrave" unicode="&#x41c;" horiz-adv-x="977" 
d="M606 143c1.33301 -4.66699 2.33008 -9.66699 2.99707 -15s1 -13.333 1 -24c0 -28 -18.667 -65.333 -56 -112s-67.666 -70 -90.999 -70c-18 0 -39.667 12.833 -65 38.5s-38 47.167 -38 64.5c0 22 43.167 96.667 129.5 224s158.166 239.666 215.499 336.999
c95.333 163.333 159 284.5 191 363.5s50.667 151.5 56 217.5c-123.333 -30 -233.5 -81 -330.5 -153s-170.833 -157.333 -221.5 -256c24 8.66699 43.167 14.834 57.5 18.501s25.833 5.5 34.5 5.5c12.667 0 21.834 -2.16699 27.501 -6.5s8.5 -10.833 8.5 -19.5
c0 -13.333 -22.333 -35.333 -67 -66l-35 -24l-49 -38c-30 -24 -50.667 -36 -62 -36c-27.333 0 -62.166 21.667 -104.499 65s-63.5 79.666 -63.5 108.999c0 30.667 17.333 79 52 145s76.334 124 125.001 174c84 88 185.667 162 305 222s217 90 293 90
c60 0 107 -17.167 141 -51.5s51 -82.166 51 -143.499c0 -119.333 -43 -268.833 -129 -448.5s-212.333 -383.167 -379 -610.5zM1069 1536c0 -5.33301 -1 -9.00195 -3 -11.002s-7.66699 -3 -17 -3c-23.333 0 -41 2.33301 -53 7s-31.333 19.334 -58 44.001
c-40 36.667 -73.167 74.334 -99.5 113.001s-39.5 66.667 -39.5 84c0 5.33301 3.33301 9.33301 10 12s17.667 4 33 4c32 0 53.167 -1.5 63.5 -4.5s17.833 -9.16699 22.5 -18.5c24 -46 53.5 -93.833 88.5 -143.5s52.5 -77.5 52.5 -83.5z" />
    <glyph glyph-name="Iacute" unicode="&#xcd;" horiz-adv-x="977" 
d="M606 143c1.33301 -4.66699 2.33008 -9.66699 2.99707 -15s1 -13.333 1 -24c0 -28 -18.667 -65.333 -56 -112s-67.666 -70 -90.999 -70c-18 0 -39.667 12.833 -65 38.5s-38 47.167 -38 64.5c0 22 43.167 96.667 129.5 224s158.166 239.666 215.499 336.999
c95.333 163.333 159 284.5 191 363.5s50.667 151.5 56 217.5c-123.333 -30 -233.5 -81 -330.5 -153s-170.833 -157.333 -221.5 -256c24 8.66699 43.167 14.834 57.5 18.501s25.833 5.5 34.5 5.5c12.667 0 21.834 -2.16699 27.501 -6.5s8.5 -10.833 8.5 -19.5
c0 -13.333 -22.333 -35.333 -67 -66l-35 -24l-49 -38c-30 -24 -50.667 -36 -62 -36c-27.333 0 -62.166 21.667 -104.499 65s-63.5 79.666 -63.5 108.999c0 30.667 17.333 79 52 145s76.334 124 125.001 174c84 88 185.667 162 305 222s217 90 293 90
c60 0 107 -17.167 141 -51.5s51 -82.166 51 -143.499c0 -119.333 -43 -268.833 -129 -448.5s-212.333 -383.167 -379 -610.5zM999.997 1526c-16.667 0 -29.834 1.66699 -39.501 5s-14.5 7.66602 -14.5 12.999c0 2.66699 16.5 25.5 49.5 68.5s60.167 87.167 81.5 132.5
c10.667 20.667 20.834 33 30.501 37s33.834 6 72.501 6c14 0 25 -2 33 -6s12 -9.33301 12 -16c0 -11.333 -7 -28.166 -21 -50.499s-33.667 -47.833 -59 -76.5l-5 -6c-62.667 -71.333 -109.334 -107 -140.001 -107z" />
    <glyph glyph-name="Iacute" unicode="&#x41d;" horiz-adv-x="977" 
d="M606 143c1.33301 -4.66699 2.33008 -9.66699 2.99707 -15s1 -13.333 1 -24c0 -28 -18.667 -65.333 -56 -112s-67.666 -70 -90.999 -70c-18 0 -39.667 12.833 -65 38.5s-38 47.167 -38 64.5c0 22 43.167 96.667 129.5 224s158.166 239.666 215.499 336.999
c95.333 163.333 159 284.5 191 363.5s50.667 151.5 56 217.5c-123.333 -30 -233.5 -81 -330.5 -153s-170.833 -157.333 -221.5 -256c24 8.66699 43.167 14.834 57.5 18.501s25.833 5.5 34.5 5.5c12.667 0 21.834 -2.16699 27.501 -6.5s8.5 -10.833 8.5 -19.5
c0 -13.333 -22.333 -35.333 -67 -66l-35 -24l-49 -38c-30 -24 -50.667 -36 -62 -36c-27.333 0 -62.166 21.667 -104.499 65s-63.5 79.666 -63.5 108.999c0 30.667 17.333 79 52 145s76.334 124 125.001 174c84 88 185.667 162 305 222s217 90 293 90
c60 0 107 -17.167 141 -51.5s51 -82.166 51 -143.499c0 -119.333 -43 -268.833 -129 -448.5s-212.333 -383.167 -379 -610.5zM999.997 1526c-16.667 0 -29.834 1.66699 -39.501 5s-14.5 7.66602 -14.5 12.999c0 2.66699 16.5 25.5 49.5 68.5s60.167 87.167 81.5 132.5
c10.667 20.667 20.834 33 30.501 37s33.834 6 72.501 6c14 0 25 -2 33 -6s12 -9.33301 12 -16c0 -11.333 -7 -28.166 -21 -50.499s-33.667 -47.833 -59 -76.5l-5 -6c-62.667 -71.333 -109.334 -107 -140.001 -107z" />
    <glyph glyph-name="Icircumflex" unicode="&#xce;" horiz-adv-x="977" 
d="M606 143c1.33301 -4.66699 2.33008 -9.66699 2.99707 -15s1 -13.333 1 -24c0 -28 -18.667 -65.333 -56 -112s-67.666 -70 -90.999 -70c-18 0 -39.667 12.833 -65 38.5s-38 47.167 -38 64.5c0 22 43.167 96.667 129.5 224s158.166 239.666 215.499 336.999
c95.333 163.333 159 284.5 191 363.5s50.667 151.5 56 217.5c-123.333 -30 -233.5 -81 -330.5 -153s-170.833 -157.333 -221.5 -256c24 8.66699 43.167 14.834 57.5 18.501s25.833 5.5 34.5 5.5c12.667 0 21.834 -2.16699 27.501 -6.5s8.5 -10.833 8.5 -19.5
c0 -13.333 -22.333 -35.333 -67 -66l-35 -24l-49 -38c-30 -24 -50.667 -36 -62 -36c-27.333 0 -62.166 21.667 -104.499 65s-63.5 79.666 -63.5 108.999c0 30.667 17.333 79 52 145s76.334 124 125.001 174c84 88 185.667 162 305 222s217 90 293 90
c60 0 107 -17.167 141 -51.5s51 -82.166 51 -143.499c0 -119.333 -43 -268.833 -129 -448.5s-212.333 -383.167 -379 -610.5zM1036 1671c-22 -15.333 -51.001 -36.665 -87.001 -63.998c-73.333 -56.667 -129.666 -85 -168.999 -85c-12.667 0 -22.5 2.16699 -29.5 6.5
s-10.833 10.166 -11.5 17.499c0 3.33301 3.16699 8.5 9.5 15.5s15.5 15.5 27.5 25.5l197 160c24 20 44 32.5 60 37.5s36.333 7.5 61 7.5c26.667 0 46.334 -18.333 59.001 -55s19 -93.334 19 -170.001c0 -13.333 -1.83301 -24.833 -5.5 -34.5s-7.5 -14.5 -11.5 -14.5
c-28 0 -46.5 1 -55.5 3s-15.167 6.66699 -18.5 14c-0.666992 2 -2 8 -4 18c-6.66699 42.667 -20.334 82 -41.001 118z" />
    <glyph glyph-name="Icircumflex" unicode="&#x41e;" horiz-adv-x="977" 
d="M606 143c1.33301 -4.66699 2.33008 -9.66699 2.99707 -15s1 -13.333 1 -24c0 -28 -18.667 -65.333 -56 -112s-67.666 -70 -90.999 -70c-18 0 -39.667 12.833 -65 38.5s-38 47.167 -38 64.5c0 22 43.167 96.667 129.5 224s158.166 239.666 215.499 336.999
c95.333 163.333 159 284.5 191 363.5s50.667 151.5 56 217.5c-123.333 -30 -233.5 -81 -330.5 -153s-170.833 -157.333 -221.5 -256c24 8.66699 43.167 14.834 57.5 18.501s25.833 5.5 34.5 5.5c12.667 0 21.834 -2.16699 27.501 -6.5s8.5 -10.833 8.5 -19.5
c0 -13.333 -22.333 -35.333 -67 -66l-35 -24l-49 -38c-30 -24 -50.667 -36 -62 -36c-27.333 0 -62.166 21.667 -104.499 65s-63.5 79.666 -63.5 108.999c0 30.667 17.333 79 52 145s76.334 124 125.001 174c84 88 185.667 162 305 222s217 90 293 90
c60 0 107 -17.167 141 -51.5s51 -82.166 51 -143.499c0 -119.333 -43 -268.833 -129 -448.5s-212.333 -383.167 -379 -610.5zM1036 1671c-22 -15.333 -51.001 -36.665 -87.001 -63.998c-73.333 -56.667 -129.666 -85 -168.999 -85c-12.667 0 -22.5 2.16699 -29.5 6.5
s-10.833 10.166 -11.5 17.499c0 3.33301 3.16699 8.5 9.5 15.5s15.5 15.5 27.5 25.5l197 160c24 20 44 32.5 60 37.5s36.333 7.5 61 7.5c26.667 0 46.334 -18.333 59.001 -55s19 -93.334 19 -170.001c0 -13.333 -1.83301 -24.833 -5.5 -34.5s-7.5 -14.5 -11.5 -14.5
c-28 0 -46.5 1 -55.5 3s-15.167 6.66699 -18.5 14c-0.666992 2 -2 8 -4 18c-6.66699 42.667 -20.334 82 -41.001 118z" />
    <glyph glyph-name="Idieresis" unicode="&#xcf;" horiz-adv-x="977" 
d="M606 143c1.33301 -4.66699 2.33008 -9.66699 2.99707 -15s1 -13.333 1 -24c0 -28 -18.667 -65.333 -56 -112s-67.666 -70 -90.999 -70c-18 0 -39.667 12.833 -65 38.5s-38 47.167 -38 64.5c0 22 43.167 96.667 129.5 224s158.166 239.666 215.499 336.999
c95.333 163.333 159 284.5 191 363.5s50.667 151.5 56 217.5c-123.333 -30 -233.5 -81 -330.5 -153s-170.833 -157.333 -221.5 -256c24 8.66699 43.167 14.834 57.5 18.501s25.833 5.5 34.5 5.5c12.667 0 21.834 -2.16699 27.501 -6.5s8.5 -10.833 8.5 -19.5
c0 -13.333 -22.333 -35.333 -67 -66l-35 -24l-49 -38c-30 -24 -50.667 -36 -62 -36c-27.333 0 -62.166 21.667 -104.499 65s-63.5 79.666 -63.5 108.999c0 30.667 17.333 79 52 145s76.334 124 125.001 174c84 88 185.667 162 305 222s217 90 293 90
c60 0 107 -17.167 141 -51.5s51 -82.166 51 -143.499c0 -119.333 -43 -268.833 -129 -448.5s-212.333 -383.167 -379 -610.5zM1061 1618c0 26.667 14.168 52.832 42.501 78.499s59.166 38.5 92.499 38.5c19.333 0 34.166 -5.16699 44.499 -15.5s15.5 -25.166 15.5 -44.499
c0 -29.333 -14 -57.833 -42 -85.5s-58 -41.5 -90 -41.5c-19.333 0 -34.666 6.16699 -45.999 18.5s-17 29.5 -17 51.5zM784.998 1618c0 26.667 14 52.832 42 78.499s59 38.5 93 38.5c18.667 0 33.167 -5.16699 43.5 -15.5s15.5 -25.166 15.5 -44.499
c0 -29.333 -13.833 -57.833 -41.5 -85.5s-57.5 -41.5 -89.5 -41.5c-20 0 -35.5 6.16699 -46.5 18.5s-16.5 29.5 -16.5 51.5z" />
    <glyph glyph-name="Idieresis" unicode="&#x41f;" horiz-adv-x="977" 
d="M606 143c1.33301 -4.66699 2.33008 -9.66699 2.99707 -15s1 -13.333 1 -24c0 -28 -18.667 -65.333 -56 -112s-67.666 -70 -90.999 -70c-18 0 -39.667 12.833 -65 38.5s-38 47.167 -38 64.5c0 22 43.167 96.667 129.5 224s158.166 239.666 215.499 336.999
c95.333 163.333 159 284.5 191 363.5s50.667 151.5 56 217.5c-123.333 -30 -233.5 -81 -330.5 -153s-170.833 -157.333 -221.5 -256c24 8.66699 43.167 14.834 57.5 18.501s25.833 5.5 34.5 5.5c12.667 0 21.834 -2.16699 27.501 -6.5s8.5 -10.833 8.5 -19.5
c0 -13.333 -22.333 -35.333 -67 -66l-35 -24l-49 -38c-30 -24 -50.667 -36 -62 -36c-27.333 0 -62.166 21.667 -104.499 65s-63.5 79.666 -63.5 108.999c0 30.667 17.333 79 52 145s76.334 124 125.001 174c84 88 185.667 162 305 222s217 90 293 90
c60 0 107 -17.167 141 -51.5s51 -82.166 51 -143.499c0 -119.333 -43 -268.833 -129 -448.5s-212.333 -383.167 -379 -610.5zM1061 1618c0 26.667 14.168 52.832 42.501 78.499s59.166 38.5 92.499 38.5c19.333 0 34.166 -5.16699 44.499 -15.5s15.5 -25.166 15.5 -44.499
c0 -29.333 -14 -57.833 -42 -85.5s-58 -41.5 -90 -41.5c-19.333 0 -34.666 6.16699 -45.999 18.5s-17 29.5 -17 51.5zM784.998 1618c0 26.667 14 52.832 42 78.499s59 38.5 93 38.5c18.667 0 33.167 -5.16699 43.5 -15.5s15.5 -25.166 15.5 -44.499
c0 -29.333 -13.833 -57.833 -41.5 -85.5s-57.5 -41.5 -89.5 -41.5c-20 0 -35.5 6.16699 -46.5 18.5s-16.5 29.5 -16.5 51.5z" />
    <glyph glyph-name="Eth" unicode="&#xd0;" horiz-adv-x="1538" 
d="M551 985c-76.667 -10.667 -158.999 -29.6689 -246.999 -57.002s-141 -41 -159 -41c-16 0 -28.5 4.16699 -37.5 12.5s-13.5 19.833 -13.5 34.5c0 50.667 10.833 104.334 32.5 161.001s49.167 97.334 82.5 122.001c78.667 58.667 181.334 105.334 308.001 140.001
s260.334 52 401.001 52c210 0 369.333 -45 478 -135s163 -222.333 163 -397c0 -116.667 -32 -228.667 -96 -336s-157.667 -206.333 -281 -297c-120.667 -88 -251.334 -156.833 -392.001 -206.5s-274.334 -74.5 -401.001 -74.5c-80.667 0 -138 11.5 -172 34.5
s-51 61.5 -51 115.5c0 50 13.667 106.833 41 170.5s82.333 160.167 165 289.5c-40 -4 -82.667 -10.5 -128 -19.5s-95.333 -20.833 -150 -35.5c22.667 97.333 112.334 160.666 269.001 189.999c50 9.33301 89.333 17 118 23l137.5 174.5l165.5 202.5
c-62.667 -4 -130.667 -15.167 -204 -33.5s-150.333 -43.166 -231 -74.499c17.333 1.33301 31.666 2.16602 42.999 2.49902s23.333 0.833008 36 1.5c31.333 0 56.666 -1.5 75.999 -4.5s35 -7.83301 47 -14.5zM874.001 1112c0 -1.33301 0.500977 -3.66992 1.50098 -7.00293
s1.5 -5.66602 1.5 -6.99902c0 -40.667 -49.333 -124 -148 -250l-72 -92c36 2.66699 73.333 4.66699 112 6s81.334 2 128.001 2c19.333 0 40.666 -0.5 63.999 -1.5s49 -2.83301 77 -5.5c-12 -47.333 -30.5 -87.333 -55.5 -120s-48.167 -49 -69.5 -49
c-6 0 -27.833 1.33301 -65.5 4s-72.5 4 -104.5 4c-28.667 0 -80.667 -3 -156 -9c-18 -1.33301 -32 -2.33301 -42 -3c-62.667 -98 -109.167 -173.833 -139.5 -227.5s-45.5 -87.167 -45.5 -100.5c0 -17.333 11.667 -30.166 35 -38.499s59.666 -12.5 108.999 -12.5
c88 0 182.833 14.167 284.5 42.5s195.167 66.5 280.5 114.5c104.667 59.333 189.5 133.833 254.5 223.5s97.5 175.834 97.5 258.501c0 81.333 -46 144.5 -138 189.5s-228.333 71.167 -409 78.5z" />
    <glyph glyph-name="Eth" unicode="&#x420;" horiz-adv-x="1538" 
d="M551 985c-76.667 -10.667 -158.999 -29.6689 -246.999 -57.002s-141 -41 -159 -41c-16 0 -28.5 4.16699 -37.5 12.5s-13.5 19.833 -13.5 34.5c0 50.667 10.833 104.334 32.5 161.001s49.167 97.334 82.5 122.001c78.667 58.667 181.334 105.334 308.001 140.001
s260.334 52 401.001 52c210 0 369.333 -45 478 -135s163 -222.333 163 -397c0 -116.667 -32 -228.667 -96 -336s-157.667 -206.333 -281 -297c-120.667 -88 -251.334 -156.833 -392.001 -206.5s-274.334 -74.5 -401.001 -74.5c-80.667 0 -138 11.5 -172 34.5
s-51 61.5 -51 115.5c0 50 13.667 106.833 41 170.5s82.333 160.167 165 289.5c-40 -4 -82.667 -10.5 -128 -19.5s-95.333 -20.833 -150 -35.5c22.667 97.333 112.334 160.666 269.001 189.999c50 9.33301 89.333 17 118 23l137.5 174.5l165.5 202.5
c-62.667 -4 -130.667 -15.167 -204 -33.5s-150.333 -43.166 -231 -74.499c17.333 1.33301 31.666 2.16602 42.999 2.49902s23.333 0.833008 36 1.5c31.333 0 56.666 -1.5 75.999 -4.5s35 -7.83301 47 -14.5zM874.001 1112c0 -1.33301 0.500977 -3.66992 1.50098 -7.00293
s1.5 -5.66602 1.5 -6.99902c0 -40.667 -49.333 -124 -148 -250l-72 -92c36 2.66699 73.333 4.66699 112 6s81.334 2 128.001 2c19.333 0 40.666 -0.5 63.999 -1.5s49 -2.83301 77 -5.5c-12 -47.333 -30.5 -87.333 -55.5 -120s-48.167 -49 -69.5 -49
c-6 0 -27.833 1.33301 -65.5 4s-72.5 4 -104.5 4c-28.667 0 -80.667 -3 -156 -9c-18 -1.33301 -32 -2.33301 -42 -3c-62.667 -98 -109.167 -173.833 -139.5 -227.5s-45.5 -87.167 -45.5 -100.5c0 -17.333 11.667 -30.166 35 -38.499s59.666 -12.5 108.999 -12.5
c88 0 182.833 14.167 284.5 42.5s195.167 66.5 280.5 114.5c104.667 59.333 189.5 133.833 254.5 223.5s97.5 175.834 97.5 258.501c0 81.333 -46 144.5 -138 189.5s-228.333 71.167 -409 78.5z" />
    <glyph glyph-name="Ntilde" unicode="&#xd1;" horiz-adv-x="1460" 
d="M1442 369l2.00195 -93.001c-104 -131.333 -213 -239.5 -327 -324.5s-201.667 -127.5 -263 -127.5c-36.667 0 -66.334 13.833 -89.001 41.5s-34 63.5 -34 107.5c0 76.667 24.5 169.334 73.5 278.001s124.833 238 227.5 388c29.333 42.667 75.833 107 139.5 193
s103.834 148 120.501 186c-97.333 -62.667 -197.833 -141.334 -301.5 -236.001s-207.834 -203.667 -312.501 -327l-174 -206c-133.333 -159.333 -208.333 -239 -225 -239c-17.333 0 -42.5 16.333 -75.5 49s-49.5 59.334 -49.5 80.001c0 17.333 55.667 113.333 167 288
l177 280c85.333 136.667 142.833 232.834 172.5 288.501s44.5 93.167 44.5 112.5c0 12 -3.33301 20.5 -10 25.5s-18.334 7.5 -35.001 7.5c-21.333 0 -64.5 -11.833 -129.5 -35.5s-137.833 -54.834 -218.5 -93.501l-172 -86c-80 -41.333 -126 -62 -138 -62
c-6.66699 0 -11.667 3.83301 -15 11.5s-5 19.5 -5 35.5c0 44 15 91.5 45 142.5s71 97.833 123 140.5c66.667 54.667 121.5 97.334 164.5 128.001s70.167 46 81.5 46c2.66699 0 5 -0.666992 7 -2s3 -3.33301 3 -6c0 -6.66699 -6.33301 -15.334 -19 -26.001
c-2.66699 -2 -4.66699 -3.66699 -6 -5l-88 -74c117.333 60.667 219.333 106.667 306 138s154.667 47 204 47c44 0 80.333 -11.5 109 -34.5s43 -52.5 43 -88.5c0 -58 -35.167 -151.333 -105.5 -280s-185.5 -309.667 -345.5 -543c207.333 240 401.166 437.5 581.499 592.5
s298.5 232.5 354.5 232.5c24 0 46.333 -17 67 -51s31 -71.667 31 -113c0 -97.333 -84 -255.666 -252 -474.999l-55 -72c-82 -108.667 -142.833 -199 -182.5 -271s-59.5 -129 -59.5 -171c0 -23.333 5.16699 -40.833 15.5 -52.5s25.833 -17.5 46.5 -17.5
c32 0 78.833 22.167 140.5 66.5s141.834 113.166 240.501 206.499zM1159 1518c-12.667 0 -22.6709 4.16699 -30.0039 12.5s-11 19.833 -11 34.5c0 37.333 17 78 51 122s69.333 66 106 66c33.333 0 72.833 -17.333 118.5 -52s75.167 -52 88.5 -52
c22.667 0 44.334 20.5 65.001 61.5s40 61.5 58 61.5c11.333 0 20 -3.5 26 -10.5s9 -17.167 9 -30.5c0 -42 -14 -85 -42 -129s-58.333 -66 -91 -66c-31.333 0 -69.166 16.333 -113.499 49s-74.833 49 -91.5 49c-21.333 0 -44.166 -19.333 -68.499 -58
s-49.166 -58 -74.499 -58z" />
    <glyph glyph-name="Ntilde" unicode="&#x421;" horiz-adv-x="1460" 
d="M1442 369l2.00195 -93.001c-104 -131.333 -213 -239.5 -327 -324.5s-201.667 -127.5 -263 -127.5c-36.667 0 -66.334 13.833 -89.001 41.5s-34 63.5 -34 107.5c0 76.667 24.5 169.334 73.5 278.001s124.833 238 227.5 388c29.333 42.667 75.833 107 139.5 193
s103.834 148 120.501 186c-97.333 -62.667 -197.833 -141.334 -301.5 -236.001s-207.834 -203.667 -312.501 -327l-174 -206c-133.333 -159.333 -208.333 -239 -225 -239c-17.333 0 -42.5 16.333 -75.5 49s-49.5 59.334 -49.5 80.001c0 17.333 55.667 113.333 167 288
l177 280c85.333 136.667 142.833 232.834 172.5 288.501s44.5 93.167 44.5 112.5c0 12 -3.33301 20.5 -10 25.5s-18.334 7.5 -35.001 7.5c-21.333 0 -64.5 -11.833 -129.5 -35.5s-137.833 -54.834 -218.5 -93.501l-172 -86c-80 -41.333 -126 -62 -138 -62
c-6.66699 0 -11.667 3.83301 -15 11.5s-5 19.5 -5 35.5c0 44 15 91.5 45 142.5s71 97.833 123 140.5c66.667 54.667 121.5 97.334 164.5 128.001s70.167 46 81.5 46c2.66699 0 5 -0.666992 7 -2s3 -3.33301 3 -6c0 -6.66699 -6.33301 -15.334 -19 -26.001
c-2.66699 -2 -4.66699 -3.66699 -6 -5l-88 -74c117.333 60.667 219.333 106.667 306 138s154.667 47 204 47c44 0 80.333 -11.5 109 -34.5s43 -52.5 43 -88.5c0 -58 -35.167 -151.333 -105.5 -280s-185.5 -309.667 -345.5 -543c207.333 240 401.166 437.5 581.499 592.5
s298.5 232.5 354.5 232.5c24 0 46.333 -17 67 -51s31 -71.667 31 -113c0 -97.333 -84 -255.666 -252 -474.999l-55 -72c-82 -108.667 -142.833 -199 -182.5 -271s-59.5 -129 -59.5 -171c0 -23.333 5.16699 -40.833 15.5 -52.5s25.833 -17.5 46.5 -17.5
c32 0 78.833 22.167 140.5 66.5s141.834 113.166 240.501 206.499zM1159 1518c-12.667 0 -22.6709 4.16699 -30.0039 12.5s-11 19.833 -11 34.5c0 37.333 17 78 51 122s69.333 66 106 66c33.333 0 72.833 -17.333 118.5 -52s75.167 -52 88.5 -52
c22.667 0 44.334 20.5 65.001 61.5s40 61.5 58 61.5c11.333 0 20 -3.5 26 -10.5s9 -17.167 9 -30.5c0 -42 -14 -85 -42 -129s-58.333 -66 -91 -66c-31.333 0 -69.166 16.333 -113.499 49s-74.833 49 -91.5 49c-21.333 0 -44.166 -19.333 -68.499 -58
s-49.166 -58 -74.499 -58z" />
    <glyph glyph-name="Ograve" unicode="&#xd2;" horiz-adv-x="1200" 
d="M438 580l-1.99902 79.001c-60 -63.333 -110.167 -142.833 -150.5 -238.5s-60.5 -176.5 -60.5 -242.5c0 -34 8 -60.167 24 -78.5s38.667 -27.5 68 -27.5c66 0 145.167 30.167 237.5 90.5s179.166 140.5 260.499 240.5c72 89.333 130 179.166 174 269.499
s66 161.833 66 214.5c0 29.333 -6.33301 51.333 -19 66s-31.667 22 -57 22c-75.333 0 -167.5 -37.667 -276.5 -113s-197.167 -169.333 -264.5 -282zM979.001 1073c10.667 0.666992 22.001 1.50195 34.001 2.50195s19 1.5 21 1.5c61.333 0 106.333 -15 135 -45
s43 -77 43 -141c0 -90.667 -21 -191.5 -63 -302.5s-99.333 -215.167 -172 -312.5c-82.667 -110.667 -176.834 -194.834 -282.501 -252.501s-217.834 -86.5 -336.501 -86.5c-87.333 0 -162.333 42.833 -225 128.5s-94 188.167 -94 307.5c0 107.333 31 218 93 332
s151 223.667 267 329c100 90 209.333 165.5 328 226.5s206.667 91.5 264 91.5c22 0 40 -3.66699 54 -11s35 -27 63 -59c22.667 -26.667 40.334 -50.667 53.001 -72s19 -38.333 19 -51c0 -11.333 -23.5 -23.333 -70.5 -36s-90.5 -29.334 -130.5 -50.001zM1149 1536
c0 -5.33301 -1 -9.00195 -3 -11.002s-7.66699 -3 -17 -3c-23.333 0 -41 2.33301 -53 7s-31.333 19.334 -58 44.001c-40 36.667 -73.167 74.334 -99.5 113.001s-39.5 66.667 -39.5 84c0 5.33301 3.33301 9.33301 10 12s17.667 4 33 4c32 0 53.167 -1.5 63.5 -4.5
s17.833 -9.16699 22.5 -18.5c24 -46 53.5 -93.833 88.5 -143.5s52.5 -77.5 52.5 -83.5z" />
    <glyph glyph-name="Ograve" unicode="&#x422;" horiz-adv-x="1200" 
d="M438 580l-1.99902 79.001c-60 -63.333 -110.167 -142.833 -150.5 -238.5s-60.5 -176.5 -60.5 -242.5c0 -34 8 -60.167 24 -78.5s38.667 -27.5 68 -27.5c66 0 145.167 30.167 237.5 90.5s179.166 140.5 260.499 240.5c72 89.333 130 179.166 174 269.499
s66 161.833 66 214.5c0 29.333 -6.33301 51.333 -19 66s-31.667 22 -57 22c-75.333 0 -167.5 -37.667 -276.5 -113s-197.167 -169.333 -264.5 -282zM979.001 1073c10.667 0.666992 22.001 1.50195 34.001 2.50195s19 1.5 21 1.5c61.333 0 106.333 -15 135 -45
s43 -77 43 -141c0 -90.667 -21 -191.5 -63 -302.5s-99.333 -215.167 -172 -312.5c-82.667 -110.667 -176.834 -194.834 -282.501 -252.501s-217.834 -86.5 -336.501 -86.5c-87.333 0 -162.333 42.833 -225 128.5s-94 188.167 -94 307.5c0 107.333 31 218 93 332
s151 223.667 267 329c100 90 209.333 165.5 328 226.5s206.667 91.5 264 91.5c22 0 40 -3.66699 54 -11s35 -27 63 -59c22.667 -26.667 40.334 -50.667 53.001 -72s19 -38.333 19 -51c0 -11.333 -23.5 -23.333 -70.5 -36s-90.5 -29.334 -130.5 -50.001zM1149 1536
c0 -5.33301 -1 -9.00195 -3 -11.002s-7.66699 -3 -17 -3c-23.333 0 -41 2.33301 -53 7s-31.333 19.334 -58 44.001c-40 36.667 -73.167 74.334 -99.5 113.001s-39.5 66.667 -39.5 84c0 5.33301 3.33301 9.33301 10 12s17.667 4 33 4c32 0 53.167 -1.5 63.5 -4.5
s17.833 -9.16699 22.5 -18.5c24 -46 53.5 -93.833 88.5 -143.5s52.5 -77.5 52.5 -83.5z" />
    <glyph glyph-name="Oacute" unicode="&#xd3;" horiz-adv-x="1200" 
d="M438 580l-1.99902 79.001c-60 -63.333 -110.167 -142.833 -150.5 -238.5s-60.5 -176.5 -60.5 -242.5c0 -34 8 -60.167 24 -78.5s38.667 -27.5 68 -27.5c66 0 145.167 30.167 237.5 90.5s179.166 140.5 260.499 240.5c72 89.333 130 179.166 174 269.499
s66 161.833 66 214.5c0 29.333 -6.33301 51.333 -19 66s-31.667 22 -57 22c-75.333 0 -167.5 -37.667 -276.5 -113s-197.167 -169.333 -264.5 -282zM979.001 1073c10.667 0.666992 22.001 1.50195 34.001 2.50195s19 1.5 21 1.5c61.333 0 106.333 -15 135 -45
s43 -77 43 -141c0 -90.667 -21 -191.5 -63 -302.5s-99.333 -215.167 -172 -312.5c-82.667 -110.667 -176.834 -194.834 -282.501 -252.501s-217.834 -86.5 -336.501 -86.5c-87.333 0 -162.333 42.833 -225 128.5s-94 188.167 -94 307.5c0 107.333 31 218 93 332
s151 223.667 267 329c100 90 209.333 165.5 328 226.5s206.667 91.5 264 91.5c22 0 40 -3.66699 54 -11s35 -27 63 -59c22.667 -26.667 40.334 -50.667 53.001 -72s19 -38.333 19 -51c0 -11.333 -23.5 -23.333 -70.5 -36s-90.5 -29.334 -130.5 -50.001zM1080 1526
c-16.667 0 -29.834 1.66699 -39.501 5s-14.5 7.66602 -14.5 12.999c0 2.66699 16.5 25.5 49.5 68.5s60.167 87.167 81.5 132.5c10.667 20.667 20.834 33 30.501 37s33.834 6 72.501 6c14 0 25 -2 33 -6s12 -9.33301 12 -16c0 -11.333 -7 -28.166 -21 -50.499
s-33.667 -47.833 -59 -76.5l-5 -6c-62.667 -71.333 -109.334 -107 -140.001 -107z" />
    <glyph glyph-name="Oacute" unicode="&#x423;" horiz-adv-x="1200" 
d="M438 580l-1.99902 79.001c-60 -63.333 -110.167 -142.833 -150.5 -238.5s-60.5 -176.5 -60.5 -242.5c0 -34 8 -60.167 24 -78.5s38.667 -27.5 68 -27.5c66 0 145.167 30.167 237.5 90.5s179.166 140.5 260.499 240.5c72 89.333 130 179.166 174 269.499
s66 161.833 66 214.5c0 29.333 -6.33301 51.333 -19 66s-31.667 22 -57 22c-75.333 0 -167.5 -37.667 -276.5 -113s-197.167 -169.333 -264.5 -282zM979.001 1073c10.667 0.666992 22.001 1.50195 34.001 2.50195s19 1.5 21 1.5c61.333 0 106.333 -15 135 -45
s43 -77 43 -141c0 -90.667 -21 -191.5 -63 -302.5s-99.333 -215.167 -172 -312.5c-82.667 -110.667 -176.834 -194.834 -282.501 -252.501s-217.834 -86.5 -336.501 -86.5c-87.333 0 -162.333 42.833 -225 128.5s-94 188.167 -94 307.5c0 107.333 31 218 93 332
s151 223.667 267 329c100 90 209.333 165.5 328 226.5s206.667 91.5 264 91.5c22 0 40 -3.66699 54 -11s35 -27 63 -59c22.667 -26.667 40.334 -50.667 53.001 -72s19 -38.333 19 -51c0 -11.333 -23.5 -23.333 -70.5 -36s-90.5 -29.334 -130.5 -50.001zM1080 1526
c-16.667 0 -29.834 1.66699 -39.501 5s-14.5 7.66602 -14.5 12.999c0 2.66699 16.5 25.5 49.5 68.5s60.167 87.167 81.5 132.5c10.667 20.667 20.834 33 30.501 37s33.834 6 72.501 6c14 0 25 -2 33 -6s12 -9.33301 12 -16c0 -11.333 -7 -28.166 -21 -50.499
s-33.667 -47.833 -59 -76.5l-5 -6c-62.667 -71.333 -109.334 -107 -140.001 -107z" />
    <glyph glyph-name="Ocircumflex" unicode="&#xd4;" horiz-adv-x="1200" 
d="M438 580l-1.99902 79.001c-60 -63.333 -110.167 -142.833 -150.5 -238.5s-60.5 -176.5 -60.5 -242.5c0 -34 8 -60.167 24 -78.5s38.667 -27.5 68 -27.5c66 0 145.167 30.167 237.5 90.5s179.166 140.5 260.499 240.5c72 89.333 130 179.166 174 269.499
s66 161.833 66 214.5c0 29.333 -6.33301 51.333 -19 66s-31.667 22 -57 22c-75.333 0 -167.5 -37.667 -276.5 -113s-197.167 -169.333 -264.5 -282zM979.001 1073c10.667 0.666992 22.001 1.50195 34.001 2.50195s19 1.5 21 1.5c61.333 0 106.333 -15 135 -45
s43 -77 43 -141c0 -90.667 -21 -191.5 -63 -302.5s-99.333 -215.167 -172 -312.5c-82.667 -110.667 -176.834 -194.834 -282.501 -252.501s-217.834 -86.5 -336.501 -86.5c-87.333 0 -162.333 42.833 -225 128.5s-94 188.167 -94 307.5c0 107.333 31 218 93 332
s151 223.667 267 329c100 90 209.333 165.5 328 226.5s206.667 91.5 264 91.5c22 0 40 -3.66699 54 -11s35 -27 63 -59c22.667 -26.667 40.334 -50.667 53.001 -72s19 -38.333 19 -51c0 -11.333 -23.5 -23.333 -70.5 -36s-90.5 -29.334 -130.5 -50.001zM1116 1671
c-22 -15.333 -51.001 -36.665 -87.001 -63.998c-73.333 -56.667 -129.666 -85 -168.999 -85c-12.667 0 -22.5 2.16699 -29.5 6.5s-10.833 10.166 -11.5 17.499c0 3.33301 3.16699 8.5 9.5 15.5s15.5 15.5 27.5 25.5l197 160c24 20 44 32.5 60 37.5s36.333 7.5 61 7.5
c26.667 0 46.334 -18.333 59.001 -55s19 -93.334 19 -170.001c0 -13.333 -1.83301 -24.833 -5.5 -34.5s-7.5 -14.5 -11.5 -14.5c-28 0 -46.5 1 -55.5 3s-15.167 6.66699 -18.5 14c-0.666992 2 -2 8 -4 18c-6.66699 42.667 -20.334 82 -41.001 118z" />
    </font>
</defs>
</svg>
